<?xml version="1.0" encoding="iso-8859-1"?>
<!-- Generator: Adobe Illustrator 16.0.0, SVG Export Plug-In . SVG Version: 6.00 Build 0)  -->
<!DOCTYPE svg PUBLIC "-//W3C//DTD SVG 1.1//EN" "http://www.w3.org/Graphics/SVG/1.1/DTD/svg11.dtd">
<svg version="1.1" id="Capa_1" xmlns="http://www.w3.org/2000/svg" xmlns:xlink="http://www.w3.org/1999/xlink" x="0px" y="0px"
	 width="187.314px" height="187.314px" viewBox="0 0 187.314 187.314" style="enable-background:new 0 0 187.314 187.314;"
	 xml:space="preserve">
<g>
	<g>
		<path d="M124.321,139.331c-5.945-17.68-11.678-35.462-17.956-53.026c0.274-2.024-0.642-4.154-3.203-4.8
			c-30.425-7.665-32.878,23.156-40.026,44.8c-4.123,12.484-10.576,24.427-15.506,36.631c-2.565,6.35-8.679,16.885-3.788,23.219
			c1.514,1.962,4.458,1.365,4.662-1.263c0.969-12.474,13.347-32.706,19.028-45.716c0.6-1.371,1.157-2.906,1.694-4.541
			c9.256,0.629,18.574,0.59,27.843,0.878c4.848,0.151,11.638,1.424,17.222,0.729c0.54,1.804,1.053,3.616,1.612,5.411
			c1.131,3.628,2.285,8.265,3.64,13.182c-8.257-1.198-16.938-0.812-25.217-1.11c-6.658-0.24-13.314-0.564-19.974-0.727
			c-2.391-0.06-4.782-0.128-7.172-0.206c-1.525-0.051-2.672,0.94-3.281,2.017c-0.052-0.011-0.103-0.024-0.154-0.035
			c-0.884-0.198-1.551,0.266-1.874,1.064c-0.004,0.009-0.007,0.018-0.011,0.026c-0.24,0.594,0.143,1.457,0.704,1.729
			c3.217,1.562,4.279,2.758,8.576,3.108c7.012,0.572,14.035,0.934,21.059,1.318c9.603,0.526,20.126,2.258,29.721,0.826
			c2.825,8.747,6.544,17.193,12.126,21.507c1.986,1.535,5.913,0.896,5.623-2.328C138.416,168.132,128.816,152.696,124.321,139.331z
			 M97.067,128.121c-8.699,0.27-17.438,0.264-26.133,0.777c5.054-18.3,9.639-43.672,29.797-38.577
			c0.614,0.155,1.183,0.172,1.716,0.112c2.724,12.32,5.77,24.611,9.192,36.77C106.661,127.066,101.169,127.992,97.067,128.121z"/>
		<path d="M99.18,27.003c-5.595-2.442-11.544,0.486-15.396,4.965c-1.804,0.61-3.481,1.525-4.794,2.65
			c-5.533,4.745-6.569,13.681-3.739,20.063c3.633,8.193,15.824,16.838,24.816,11.754c6.746-3.814,8.297-13.375,8.093-20.378
			C107.968,39.473,105.968,29.966,99.18,27.003z"/>
		<path d="M51.848,68.927c-8.92-6.094-11.681-13.754-9.002-24.215c1.162-4.537,3.699-8.636,6.897-12
			c2.577-2.712,4.802-3.058,5.29-7.046c0.126-1.035-0.699-2.41-1.632-2.844c-10.442-4.861-18.679,15.77-19.987,23.154
			c-2.164,12.213,3.348,25.309,16.077,28.543C52.967,75.403,54.665,70.852,51.848,68.927z"/>
		<path d="M33.918,1.146C14.392-5.896,3.243,21.241,1.587,35.648C0.054,48.99,3.149,82.834,19.449,87.532
			c1.971,0.568,4.139-1.405,3.447-3.447c-4.671-13.798-11.563-23.724-12.489-39.166c-0.486-8.092,0.696-16.345,4.111-23.724
			c4.346-9.39,12.639-9.39,20.144-14.358C36.994,5.293,36.485,2.072,33.918,1.146z"/>
		<path d="M128.62,26.053c-4.925-3.183-9.492,4.693-4.578,7.833c9.303,5.944,13.663,18.098,12.136,28.818
			c-0.649,4.569-2.961,7.903-7.106,9.835c-1.543,0.719-2.51,3.405-1.284,4.747c0.196,0.215,0.392,0.429,0.589,0.644
			c0.812,0.89,2.202,1.2,3.34,0.883C155.875,72.064,143.523,35.685,128.62,26.053z"/>
		<path d="M161.623,1.651c-5.042-3.042-9.621,4.839-4.596,7.864c36.865,22.19,16.606,59.529-5.616,84.263
			c-2.673,2.975,1.352,6.929,4.352,4.353C186.403,71.828,202.382,26.247,161.623,1.651z"/>
	</g>
</g>
<g>
</g>
<g>
</g>
<g>
</g>
<g>
</g>
<g>
</g>
<g>
</g>
<g>
</g>
<g>
</g>
<g>
</g>
<g>
</g>
<g>
</g>
<g>
</g>
<g>
</g>
<g>
</g>
<g>
</g>
</svg>
