<?xml version="1.0" encoding="iso-8859-1"?>
<!-- Generator: Adobe Illustrator 16.0.0, SVG Export Plug-In . SVG Version: 6.00 Build 0)  -->
<!DOCTYPE svg PUBLIC "-//W3C//DTD SVG 1.1//EN" "http://www.w3.org/Graphics/SVG/1.1/DTD/svg11.dtd">
<svg version="1.1" id="Capa_1" xmlns="http://www.w3.org/2000/svg" xmlns:xlink="http://www.w3.org/1999/xlink" x="0px" y="0px"
	 width="189.025px" height="189.025px" viewBox="0 0 189.025 189.025" style="enable-background:new 0 0 189.025 189.025;"
	 xml:space="preserve">
<g>
	<g>
		<path d="M187.96,160.177c-0.143-1.635-0.368-3.209-1.099-4.543c0.279-0.936-0.208-2.135-1.479-2.146
			c-11.284-0.1-22.512-0.119-33.723-0.108c-0.096-0.07-0.18-0.153-0.274-0.223c-0.311-0.228-0.652-0.052-0.833,0.226
			c-6.551,0.008-13.102,0.015-19.64,0.05c-0.348-0.316-0.707-0.616-1.054-0.935c-0.66-0.607-1.565,0.282-1.035,0.953
			c-10.055,0.061-20.11,0.106-30.149,0.267c-0.091-0.116-0.2-0.217-0.29-0.334c-0.413-0.539-1.193-0.196-1.146,0.36
			c-5.935,0.097-11.869,0.186-17.805,0.325c-0.072-0.054-0.146-0.108-0.217-0.161c-0.279-0.205-0.581-0.059-0.745,0.186
			c-7.262,0.172-14.521,0.329-21.792,0.574c-0.128-0.05-0.244-0.049-0.354,0.011c-17.155,0.58-34.347,1.353-51.639,2.423
			c-0.032,0.002-0.042,0.03-0.072,0.034c-0.464-0.79-1.601-0.934-2.334-0.338c-0.25-0.212-0.494-0.432-0.746-0.643
			c-0.489-0.411-1.115,0.211-0.7,0.699c0.248,0.294,0.535,0.553,0.789,0.841c-2.056,3.771-1.83,9.597-1.115,13.652
			c-0.395,0.519-0.114,1.536,0.676,1.459c8.146-0.802,16.284-1.228,24.42-1.433c0.032,0.004,0.061,0.021,0.093,0.025
			c0.051,0.005,0.074-0.031,0.12-0.033c8.234-0.204,16.464-0.129,24.696,0.024c0.287,0.172,0.545,0.152,0.772,0.018
			c10.641,0.208,21.289,0.549,31.944,0.852c0.277,0.15,0.546,0.323,0.826,0.463c0.586,0.294,1.062,0.013,1.259-0.416
			c4.67,0.128,9.342,0.234,14.017,0.318c0.046,0.03,0.088,0.068,0.133,0.098c0.349,0.229,0.682,0.126,0.95-0.072
			c1.009,0.017,2.015,0.059,3.024,0.068c14.278,0.141,29.345-1.229,44.313-1.854c0.503,0.347,0.995,0.72,1.52,1.02
			c0.623,0.356,1.562-0.413,1.062-1.061c-0.014-0.018-0.031-0.032-0.044-0.049c8.969-0.318,17.884-0.325,26.552,0.493
			c0.796,0.558,1.615,1.058,2.475,1.438c0.751,0.332,1.441-0.278,1.318-0.951c1.708,0.214,3.427,0.388,5.112,0.678
			c0.582,0.101,0.962-0.153,1.225-0.491c1.008,0.302,2.314-0.476,2.008-1.84C188.249,166.85,188.248,163.484,187.96,160.177z
			 M184.891,161.784c-0.818-1.047-1.974-1.894-2.973-2.726c-1.126-0.938-2.337-1.751-3.618-2.449
			c1.833,0.033,3.665,0.079,5.498,0.088C184.411,158.283,184.703,160.012,184.891,161.784z M176.444,156.579
			c0.014,0.149,0.077,0.295,0.255,0.405c1.485,0.918,2.816,2.013,4.092,3.202c1.151,1.075,2.126,2.506,3.5,3.291
			c0.264,0.152,0.524,0.095,0.744-0.032c0.101,1.269,0.19,2.541,0.326,3.79c-1.877-1.886-4.093-3.537-5.98-5.431
			c-1.82-1.825-3.631-3.645-5.629-5.27C174.649,156.554,175.547,156.561,176.444,156.579z M3.255,170.729
			c-0.125-1.481-0.088-2.955,0.029-4.43c0.805,0.835,1.556,1.726,2.33,2.589c0.23,0.257,0.724,0.873,1.296,1.429
			C5.692,170.471,4.473,170.553,3.255,170.729z M9.461,170.029c-0.082-0.288-0.224-0.601-0.497-0.877
			c-0.77-0.786-1.545-1.567-2.316-2.352c-0.831-0.844-1.898-2.1-3.076-2.842c0.216-1.127,0.516-2.239,0.785-3.353
			c1.769,1.778,3.591,3.504,5.461,5.162c1.233,1.095,2.858,2.758,4.589,3.826C12.759,169.749,11.108,169.84,9.461,170.029z
			 M17.895,169.291c-0.013-0.016-0.012-0.038-0.027-0.053c-2.031-2.102-5.05-3.584-7.342-5.422c-1.98-1.589-3.894-3.255-5.809-4.921
			c0.009-0.062,0.031-0.122,0.039-0.186c2.065,0.016,4.128-0.022,6.192-0.037c-0.47,0.05-0.842,0.64-0.417,1.093
			c2.467,2.634,5.118,5.087,7.895,7.393c0.744,0.617,1.579,1.305,2.45,1.961C19.882,169.187,18.888,169.213,17.895,169.291z
			 M24.729,168.899c-1.734-1.036-3.559-1.953-5.217-3.149c-2.87-2.072-5.466-4.506-8.063-6.902c-0.147-0.136-0.309-0.18-0.462-0.174
			c2.917-0.021,5.833-0.088,8.749-0.16c0.654,1.965,3.126,3.704,4.497,4.961c1.933,1.771,4.033,3.705,6.299,5.214
			C28.598,168.755,26.663,168.796,24.729,168.899z M34.229,168.554c-0.086-0.127-0.118-0.271-0.286-0.366
			c-2.828-1.596-5.335-3.624-7.821-5.7c-1.186-0.99-2.341-2.019-3.47-3.074c-0.197-0.185-0.745-0.563-1.225-0.93
			c2.133-0.06,4.264-0.182,6.397-0.262c0.043,0.082,0.031,0.167,0.117,0.243c2.588,2.242,5.227,4.423,7.872,6.599
			c1.221,1.006,2.495,2.287,3.838,3.425C37.842,168.507,36.035,168.51,34.229,168.554z M43.148,168.446
			c-1.677-1.815-4.189-3.249-6.022-4.696c-2.364-1.867-4.724-3.742-7.08-5.618c1.637-0.065,3.274-0.162,4.911-0.237
			c-0.014,0.145,0.018,0.289,0.154,0.403c3.974,3.349,7.857,6.856,11.857,10.195C45.695,168.486,44.421,168.443,43.148,168.446z
			 M49.973,168.529c-4.555-3.549-8.913-7.399-13.642-10.701c2.066-0.098,4.131-0.214,6.196-0.321c1.538,2.454,5.1,4.551,7.166,6.169
			c1.618,1.268,3.279,2.476,4.974,3.637c0.603,0.413,1.277,0.948,1.991,1.349C54.43,168.619,52.201,168.553,49.973,168.529z
			 M59.312,168.715c0.099-0.206,0.119-0.45-0.02-0.698c-0.605-1.087-1.865-1.527-2.895-2.157c-1.892-1.155-3.706-2.442-5.515-3.723
			c-1.738-1.229-3.428-2.521-5.106-3.831c-0.361-0.28-0.724-0.6-1.089-0.91c1.977-0.104,3.954-0.214,5.931-0.32
			c2.392,2.712,4.958,5.221,7.714,7.576c1.589,1.357,3.305,2.853,5.102,4.173C62.06,168.789,60.685,168.745,59.312,168.715z
			 M67.062,168.919c-2.13-1.743-4.583-3.175-6.772-4.818c-2.868-2.151-5.529-4.571-8.059-7.114c1.687-0.093,3.375-0.183,5.062-0.274
			c2.562,2.986,5.346,5.742,8.349,8.299c1.405,1.197,3.021,2.696,4.744,4.002C69.277,168.982,68.168,168.95,67.062,168.919z
			 M74.869,169.141c-2.442-1.986-5.525-3.575-7.918-5.437c-2.826-2.198-5.512-4.591-8.1-7.075c2.031-0.11,4.064-0.196,6.095-0.302
			c-0.082,0.225-0.087,0.472,0.151,0.702c4.147,4.002,8.545,8.608,13.393,12.203C77.283,169.197,76.075,169.176,74.869,169.141z
			 M92.352,169.541c-0.829-1.03-2.294-1.729-3.306-2.455c-2.107-1.513-4.187-3.061-6.262-4.617c-3.186-2.387-6.309-4.98-10.06-6.327
			c-0.406-0.146-0.661,0.487-0.29,0.689c3.57,1.938,6.814,5.235,9.984,7.765c1.309,1.045,3.493,3.277,5.675,4.854
			c-1.858-0.044-3.715-0.071-5.573-0.12c-2.39-1.69-4.794-3.347-7.062-5.242c-3.055-2.552-5.952-5.286-9.007-7.837
			c4.328-0.223,8.656-0.42,12.985-0.604c5.129,4.599,10.26,9.654,15.758,13.935C94.247,169.566,93.299,169.56,92.352,169.541z
			 M98.842,169.636c-5.378-5.024-11.458-9.695-17.399-14.081c2.027-0.081,4.057-0.104,6.084-0.17
			c0.047,0.098,0.073,0.201,0.18,0.274c3.91,2.677,7.166,6.315,10.538,9.617c1.469,1.438,3.125,3.233,5.028,4.367
			C101.796,169.635,100.318,169.654,98.842,169.636z M111.205,169.661c-1.381,0.018-2.763-0.01-4.143-0.008
			c-0.045-0.246-0.144-0.479-0.366-0.618c-6.294-3.944-11.185-9.564-17.267-13.702c2.865-0.084,5.729-0.198,8.597-0.24
			c2.292,3.393,5.127,6.374,8.126,9.152c1.688,1.562,3.896,3.826,6.206,5.405C111.974,169.654,111.589,169.656,111.205,169.661z
			 M116.334,169.609c-2.248-2.634-6.152-4.554-8.784-6.763c-2.793-2.345-5.344-4.962-7.684-7.757
			c2.121-0.02,4.244,0.034,6.367,0.036c4.315,5.229,9.74,9.607,14.52,14.443C119.279,169.581,117.806,169.593,116.334,169.609z
			 M123.149,169.546c-0.035-0.136-0.023-0.274-0.132-0.402c-4.418-5.234-10.269-9.278-15.264-14.01
			c1.78,0.005,3.561,0.055,5.341,0.072c3.252,2.771,6.267,5.79,9.287,8.811c1.669,1.669,3.624,4.008,5.813,5.48
			C126.515,169.51,124.832,169.531,123.149,169.546z M131.483,169.464c-0.039-0.089-0.045-0.185-0.119-0.262
			c-2.52-2.605-5.795-4.688-8.473-7.198c-2.465-2.311-4.917-4.655-7.558-6.768c2.203,0.026,4.406,0.087,6.609,0.126
			c5.068,4.392,10.058,10.677,16.3,13.126c0.736,0.289,1.401-0.851,0.782-1.347c-2.948-2.364-6.209-4.292-9.142-6.718
			c-2.038-1.686-4.042-3.4-6.122-5.026c2.38,0.046,4.761,0.111,7.141,0.168c2.806,2.829,5.72,5.555,8.676,8.22
			c1.975,1.781,3.963,3.76,6.081,5.51C140.937,169.371,136.211,169.421,131.483,169.464z M148.9,169.224
			c-2.381-2.516-5.313-4.633-7.916-6.845c-2.585-2.199-5.089-4.485-7.605-6.756c1.934,0.048,3.866,0.101,5.8,0.152
			c-0.019,0.17,0.028,0.348,0.204,0.504c2.683,2.39,5.272,4.88,7.873,7.358c1.788,1.706,3.702,4.07,5.875,5.481
			C151.721,169.15,150.312,169.198,148.9,169.224z M155.315,169.065c-0.009-0.112-0.005-0.223-0.086-0.342
			c-1.65-2.419-4.64-4.275-6.812-6.247c-2.48-2.252-4.974-4.488-7.529-6.655c1.706,0.046,3.413,0.087,5.119,0.133
			c2.634,2.565,5.241,5.151,7.808,7.787c1.47,1.508,3.125,3.684,4.973,5.238C157.631,169.006,156.473,169.037,155.315,169.065z
			 M161.858,168.886c-1.609-2.415-4.685-4.505-6.712-6.477c-2.236-2.176-4.487-4.365-6.866-6.397
			c1.495,0.04,2.991,0.072,4.486,0.111c2.548,2.322,4.964,4.79,7.405,7.222c1.559,1.555,3.479,3.856,5.593,5.312
			C164.442,168.746,163.131,168.831,161.858,168.886z M169.057,168.447c-2.301-2.646-5.726-4.74-8.313-7.176
			c-1.846-1.735-3.722-3.439-5.643-5.09c1.63,0.042,3.261,0.073,4.892,0.113c3.45,2.642,6.667,5.56,9.812,8.563
			c1.119,1.067,2.28,2.248,3.479,3.397C171.873,168.289,170.46,168.36,169.057,168.447z M177.33,168.301
			c-2.313-2.009-4.829-3.887-7.056-5.881c-2.407-2.156-4.898-4.168-7.485-6.06c1.214,0.027,2.428,0.031,3.642,0.058
			c2.451,2.201,4.904,4.393,7.269,6.693c1.641,1.596,3.27,3.595,5.032,5.335C178.262,168.407,177.805,168.324,177.33,168.301z
			 M182.42,168.943c-1.944-2.698-5.056-4.986-7.416-7.138c-2.039-1.856-4.158-3.639-6.329-5.352c1.163,0.023,2.326,0.032,3.49,0.056
			c-0.008,0.156,0.036,0.312,0.168,0.439c2.239,2.144,4.33,4.422,6.433,6.697c1.836,1.987,3.842,4.528,6.393,5.583
			c0.185,0.077,0.345,0.056,0.489,0.006c0.033,0.178,0.04,0.367,0.077,0.544C184.659,169.403,183.542,169.165,182.42,168.943z"/>
		<path d="M29.357,103.277c-0.092-0.847-0.645-1.316-1.257-1.447c-0.098-0.136-0.199-0.272-0.361-0.352
			c-2.306-1.12-5.279-0.439-7.78-0.366c-3.627,0.105-7.159,0.26-10.759-0.368c-0.914-0.159-1.431,0.593-1.389,1.287
			c-0.435,0.117-0.832,0.354-0.984,0.871c-3.559,12.15-1.247,26.852,0.332,39.302c-0.926,0.344-1.112,1.873,0.028,2.083
			c7.019,1.295,14.222,1.332,21.312,2.032c1.626,0.16,2.042-1.686,1.266-2.741C32.104,130.575,30.773,116.292,29.357,103.277z
			 M27.486,142.817c-6.108-0.492-12.261-0.684-18.391-0.722c0.106-12.985-0.023-25.845,0.503-38.818
			c0.001-0.018-0.015-0.023-0.014-0.04c3.033,0.712,6.124,0.951,9.242,1.088c2.204,0.096,5.046,0.382,7.373-0.167
			C25.328,116.986,28.209,129.894,27.486,142.817z"/>
		<path d="M53.258,68.959c0.006-0.123-0.035-0.215-0.051-0.324c0.19-0.964-0.325-2.091-1.596-2.09
			c-5.596,0.003-11.226,0.145-16.809,0.539c-1.118,0.079-1.397,1.259-0.864,1.917c-0.144,0.179-0.287,0.366-0.311,0.659
			c-1.927,24.106-0.979,49.378-0.066,73.539c0.023,0.6,0.395,0.899,0.823,1.05c0.143,0.499,0.502,0.934,1.119,0.899
			c2.709-0.151,5.411-0.308,8.123-0.394c2.253-0.072,5.308,0.151,7.226-1.159c0.125-0.085,0.183-0.209,0.269-0.317
			c0.155,1.475,2.376,1.47,2.416-0.078C54.181,118.442,52.186,93.719,53.258,68.959z M50.548,141.272
			c-2.108-0.645-4.743,0.113-6.923,0.3c-2.515,0.215-5.068,0.506-7.558,0.976c0.905-23.964,1.82-48.998-0.091-72.889
			c-0.006-0.076-0.065-0.103-0.081-0.172c4.666,0.302,9.355,0.434,14.031,0.46c-1.118,23.869,0.164,47.774,1.094,71.635
			C50.886,141.461,50.751,141.335,50.548,141.272z"/>
		<path d="M76.241,130.31c0.169-0.563,0.016-1.018-0.277-1.354c-0.183-0.261-0.431-0.49-0.815-0.609
			c-4.4-1.366-9.172-1.295-13.733-1.522c-0.504-0.025-0.791,0.325-0.885,0.724c-0.416-0.251-0.936-0.295-1.32,0.14
			c-1.277,1.443-1.081,3.605-1.162,5.445c-0.128,2.888-0.035,5.779,0.084,8.666c0.032,0.778,0.628,1.147,1.215,1.131
			c0.131,0.214,0.329,0.392,0.667,0.428c4.385,0.46,8.898,0.691,13.307,0.693c0.432,0,0.751-0.162,0.997-0.388
			c0.059,0.165,0.097,0.335,0.157,0.499c0.437,1.189,2.128,0.727,1.894-0.523C75.54,139.188,74.912,134.729,76.241,130.31z
			 M73.322,140.947c-4.247,0.003-8.584,0.229-12.817,0.655c0.093-2.239,0.172-4.481,0.295-6.721
			c0.103-1.872,0.834-4.269,0.409-6.146c3.855,1.006,7.821,1.358,11.679,2.347c-0.62,3.321-0.298,6.647,0.585,9.896
			C73.419,140.972,73.38,140.947,73.322,140.947z"/>
		<path d="M101.629,84.367c0.139-1.485-1.787-2.054-2.774-1.33c-0.264-0.212-0.586-0.373-1.019-0.392
			c-3.781-0.163-8.488-0.252-12.132,0.878c-0.252,0.078-0.451,0.237-0.615,0.421c-0.387-1.233-2.215-1.176-2.564,0.063
			c-2.968,10.525-1.974,24.053-2.418,34.945c-0.182,4.461-2.473,22.703,3.566,24.808c0.306,0.106,0.631-0.119,0.718-0.408
			c0.844-2.805-0.718-6.587-0.888-9.476c-0.348-5.883-0.12-11.783,0.127-17.665c0.387-9.194,3.428-21.145,1.798-30.474
			c1.309,0.75,3.732,0.288,5.055,0.28c2.447-0.015,4.909,0.175,7.354,0.07c0.084-0.004,0.142-0.04,0.22-0.052
			c-2.407,17.918,0.452,36.138-0.047,54.18c-0.062-0.01-0.107-0.04-0.173-0.044c-3.881-0.279-7.997,0.036-11.867,0.367
			c-1.62,0.139-1.62,2.376,0,2.515c3.872,0.332,7.986,0.646,11.867,0.367c0.049-0.004,0.081-0.026,0.128-0.033
			c0.121,1.489,2.387,1.358,2.573-0.191C102.883,123.64,99.789,103.974,101.629,84.367z"/>
		<path d="M130.3,48.648c-0.09-0.704-0.537-1.16-1.067-1.391c0.009-0.454-0.194-0.909-0.629-1.126
			c-2.467-1.237-5.788-0.425-8.532-0.261c-1.642,0.098-3.289,0.166-4.935,0.156c-0.895-0.005-1.827-0.259-2.586,0.212
			c-0.114-0.004-0.229,0.026-0.301,0.138c-0.064,0.099-0.127,0.198-0.189,0.298c-0.535,0.856-0.019,2.025,0.929,2.284
			c2.684,0.734,5.686,0.479,8.431,0.391c1.451-0.047,2.899-0.145,4.349-0.217c0.427-0.022,0.844-0.07,1.262-0.113
			c2.768,30.343,0.831,60.427-0.37,90.789c-1.943-0.66-4.389,0.041-6.385,0.201c-3.133,0.252-6.274,0.331-9.407,0.573
			c0.751-16.172,1.037-32.323,0.542-48.511c-0.467-15.203-3.35-29.358,0.191-44.504c0.298-1.275-1.605-2.214-2.2-0.928
			c-5.122,11.085-3.084,24.091-2.087,35.901c1.686,19.959,0.606,39.963,1.377,59.957c0.044,1.134,1.379,1.257,1.871,0.495
			c3.234,0.261,6.47,0.324,9.714,0.308c2.259-0.011,5.478,0.421,7.203-1.273c0.111-0.109,0.174-0.249,0.236-0.389
			c0.685,0.061,1.457-0.353,1.55-1.242C132.432,110.118,134.175,78.937,130.3,48.648z"/>
		<path d="M156.714,90.671c-0.124-1.091-1.009-1.465-1.778-1.276c-0.06-0.113-0.049-0.271-0.146-0.349
			c-1.567-1.266-3.512-0.723-5.391-0.675c-3.026,0.075-6.25,0.3-9.259-0.127c-0.552-0.078-0.928,0.224-1.137,0.599
			c-0.484-0.21-1.085-0.18-1.45,0.223c-4.158,4.599-3.312,13.523-3.265,19.222c0.086,10.471,1.406,20.977,2.25,31.408
			c0.09,1.111,1.233,1.404,1.922,0.929c-0.174,0.887,0.574,2.043,1.785,1.875c4.276-0.592,8.613-0.513,12.92-0.457
			c2.125,0.028,2.125-3.323,0-3.294c-4.586,0.062-9.161,0.181-13.694,0.944c-0.255,0.043-0.451,0.138-0.61,0.258
			c0.027-0.098,0.109-0.142,0.115-0.255c0.464-8.678-0.521-17.507-0.918-26.177c-0.368-8.051,0.708-15.332,1.635-23.196
			c2.725,0.804,5.712,0.865,8.523,1.064c1.744,0.124,3.851,0.613,5.545-0.004c-1.613,15.941,0.146,33.059,1.024,49.013
			c0.084,1.521,2.288,1.525,2.363,0C157.952,124.191,158.548,106.803,156.714,90.671z"/>
		<path d="M183.419,118.261c-0.406-1.777-3.143-1.355-3.134,0.424c0.001,0.161,0.014,0.319,0.016,0.48
			c-2.101-1.953-6.576-1.5-9.032-1.486c-0.757,0.004-5.069-0.261-7.136,0.506c-0.023-0.047-0.029-0.102-0.053-0.148
			c-0.617-1.233-2.308-0.526-2.396,0.648c-0.274,3.675,0.608,7.641,0.819,11.348c0.186,3.257,0.577,6.482,1.254,9.67
			c-0.58,0.528-0.403,1.587,0.612,1.691c0.058,0.007,0.115,0,0.174,0.006c0.298,0.133,0.621,0.123,0.933,0.027
			c3.07,0.206,6.187,0.04,9.245-0.132c2.182-0.123,4.838,0.163,6.795-0.975c0.478,0.797,1.987,0.8,2.273-0.29
			C185.554,133.312,184.954,124.989,183.419,118.261z M174.724,138.475c-2.846,0.366-5.713,0.516-8.569,0.771
			c-0.368-3.564-0.471-7.137-0.601-10.719c-0.09-2.474-0.022-5.184-0.548-7.682c1.655,0.283,3.878-0.025,4.841-0.004
			c2.58,0.059,7.573,0.02,9.214,1.176c0.497,0.351,0.976,0.234,1.368-0.03c0.374,5.24,1.299,10.351,1.003,15.667
			C179.191,137.39,176.95,138.188,174.724,138.475z"/>
		<path d="M22.362,78.332c-1.447-4.965-3.391-9.763-4.888-14.712c-0.327-1.08-1.228-1.293-2.006-1.008
			c-0.275-0.403-0.728-0.652-1.318-0.496c-2.311,0.613-3.144,3.942-3.707,5.949c-0.003,0.01-0.003,0.022-0.006,0.032
			c-0.009,0.065-0.067,0.089-0.068,0.16c0,0.064,0.005,0.126,0.005,0.189c-0.811,3.084-1.076,6.456-0.927,9.616
			c0.035,0.751,0.753,0.937,1.242,0.661c-0.004,0.726,0.547,1.447,1.535,1.311c0.363-0.05,0.738-0.045,1.107-0.064
			c0.033-0.006,0.06,0.013,0.093,0.004c0.007-0.002,0.01-0.008,0.016-0.01c0.287-0.013,0.569-0.052,0.86-0.05
			c0.077,3.717,0.331,7.475,1.138,11.073c0.293,1.305,2.464,1.034,2.351-0.318c-0.297-3.528-0.294-7.033-0.278-10.551
			c1.11,0.108,2.214,0.223,3.283,0.27C21.847,80.435,22.648,79.317,22.362,78.332z"/>
		<path d="M49.636,43.554c-2.052-4.189-3.88-8.479-5.389-12.895c-0.649-1.899-3.516-1.617-3.544,0.48
			c-0.054,3.928-0.844,7.696-2.015,11.433c-0.078,0.251-0.075,0.511-0.029,0.766c-0.152,0.592,0.058,1.326,0.732,1.548
			c0.93,0.306,1.865,0.467,2.801,0.594c-0.043,0.101-0.108,0.183-0.132,0.302c-0.417,2.106-0.426,4.291-0.516,6.429
			c-0.042,1-0.106,2-0.126,3.001c-0.008,0.373-0.038,0.782,0.062,1.148c0.255,0.924,0.251,0.418,0.695,0.126
			c-0.624,0.409-0.231,1.376,0.506,1.202c1.606-0.38,1.876-1.93,2.042-3.375c0.31-2.682,0.622-5.362,0.941-8.042
			c0.018-0.153-0.021-0.28-0.041-0.415c0.671,0.073,1.342,0.162,2.016,0.295C49.203,46.46,50.336,44.985,49.636,43.554z"/>
		<path d="M73.569,106.325c-1.445-5.657-3.396-11.168-4.87-16.818c-0.354-1.359-2.545-1.833-3.184-0.416
			c-1.528,3.39-2.174,6.893-2.96,10.505c-0.294,1.347-0.769,2.473-0.738,3.854c0.01,0.475,0.1,1.039,0.168,1.605
			c-0.359,0.365-0.591,0.893-0.52,1.396c0.02,0.141,0.048,0.283,0.074,0.425c-0.041,0.004-0.081,0.014-0.121,0.018
			c-1.619,0.157-1.687,2.562,0,2.571c1.069,0.005,2.126-0.089,3.179-0.211c0.031,3.618,0.013,7.255,0.379,10.832
			c0.177,1.73,2.512,1.73,2.689,0c0.381-3.723,0.349-7.51,0.386-11.274c1.283-0.169,2.57-0.316,3.873-0.324
			C73.047,108.48,73.845,107.404,73.569,106.325z"/>
		<path d="M93.255,46.772c-0.295-1.965-2.873-1.416-3.446,0c-1.498,3.702-2.345,7.604-3.495,11.413
			c-0.507,1.31-0.935,2.653-1.377,4.004c-0.478,1.458,0.794,2.263,1.951,2.065c1.126,0.381,2.359,0.338,3.613,0.201
			c0.219,0.915,0.436,1.831,0.553,2.775c0.3,2.435,0.269,4.897,0.556,7.332c0.2,1.7,2.446,1.701,2.644,0
			c0.284-2.429,0.249-4.892,0.14-7.332c-0.042-0.942-0.101-1.982-0.231-3.012c0.143,0.01,0.29,0.007,0.432,0.027
			c1.298,0.18,2.254-0.695,2.027-2.027C95.741,57.027,94.041,52.007,93.255,46.772z"/>
		<path d="M125.856,30.317c-1.795-4.188-2.622-8.448-3.271-12.936c-0.226-1.554-2.405-1.522-3.104-0.406
			c-2.737,4.379-3.825,9.498-6.276,14.023c-0.646,1.222,0.306,2.337,1.342,2.481c0.038,0.005,0.058,0.042,0.098,0.043
			c1.178,0.015,2.326-0.212,3.472-0.453c0.084,1.927,0.146,3.855,0.315,5.774c0.126,1.436,2.105,1.436,2.231,0
			c0.183-2.081,0.249-4.171,0.349-6.259c0.992-0.11,1.988-0.139,3.005,0.126C125.525,33.103,126.396,31.576,125.856,30.317z"/>
		<path d="M151.765,70.113c-1.027,0.086-2.06,0.186-3.09,0.311c-0.026-0.273-0.039-0.536-0.066-0.812
			c-0.17-1.747-0.369-3.489-0.547-5.235c-0.061-0.602-0.084-1.209-0.249-1.793c-0.151-0.541-0.252-0.65-0.351-0.588
			c0.019-0.232-0.034-0.468-0.269-0.608c-0.016-0.009-0.03-0.018-0.046-0.027c-0.191-0.114-0.479-0.13-0.669,0
			c-1.743,1.195-1.213,4.907-1.151,7.123c0.016,0.557,0.063,1.112,0.106,1.668c-0.494,0.022-0.978,0.056-1.395,0.074
			c-0.888,0.037-2.052,0.096-2.84,0.633c-0.988,0.031-1.941,0.811-1.575,2.054c1.339,3.99,2.839,7.923,4.186,11.911
			c0.483,1.429,2.299,1.679,3.131,0.409c2.673-4.079,4.913-8.384,6.413-13.033C153.665,71.234,152.813,70.026,151.765,70.113z"/>
		<path d="M177.416,96.787c-1.047-0.234-2.101-0.366-3.154-0.452c-0.377-3.286-0.757-6.572-1.064-9.867
			c-0.133-1.434-2.146-1.458-2.244,0c-0.222,3.259-0.03,6.557,0.221,9.837c-1.248,0.072-2.496,0.212-3.736,0.492
			c-0.827,0.188-1.426,1.197-1.142,2.011c1.092,3.127,2.665,6.059,4.313,8.937c0.194,0.523,0.355,1.053,0.564,1.576
			c0.197,0.495,0.532,0.776,0.901,0.96c0.117,0.203,0.235,0.406,0.354,0.609c0.341,0.59,0.875,0.692,1.336,0.527
			c0.216-0.048,0.416-0.134,0.551-0.297c0.931-1.115,1.155-2.625,1.114-4.191c1.21-2.645,2.482-5.261,3.134-8.118
			C178.757,97.972,178.318,96.989,177.416,96.787z"/>
	</g>
</g>
<g>
</g>
<g>
</g>
<g>
</g>
<g>
</g>
<g>
</g>
<g>
</g>
<g>
</g>
<g>
</g>
<g>
</g>
<g>
</g>
<g>
</g>
<g>
</g>
<g>
</g>
<g>
</g>
<g>
</g>
</svg>
