<?xml version="1.0" encoding="iso-8859-1"?>
<!-- Generator: Adobe Illustrator 16.0.0, SVG Export Plug-In . SVG Version: 6.00 Build 0)  -->
<!DOCTYPE svg PUBLIC "-//W3C//DTD SVG 1.1//EN" "http://www.w3.org/Graphics/SVG/1.1/DTD/svg11.dtd">
<svg version="1.1" id="Capa_1" xmlns="http://www.w3.org/2000/svg" xmlns:xlink="http://www.w3.org/1999/xlink" x="0px" y="0px"
	 width="186.246px" height="186.247px" viewBox="0 0 186.246 186.247" style="enable-background:new 0 0 186.246 186.247;"
	 xml:space="preserve">
<g>
	<g>
		<path d="M51.9,107.604c-0.843,2.037-1.28,4.535-0.935,6.726c0.11,0.699,1.291,0.696,1.403,0c0.345-2.143,0.097-4.292,0.487-6.462
			C52.971,107.228,52.143,107.02,51.9,107.604z"/>
		<path d="M52.251,119.826c-0.05-0.753-1.12-0.753-1.17,0c-0.183,2.746-0.84,6.045-0.095,8.721c0.188,0.674,1.172,0.674,1.36,0
			C53.093,125.871,52.435,122.572,52.251,119.826z"/>
		<path d="M50.025,134.624c-0.157-0.657-1.071-0.359-0.984,0.271c0.239,1.728,0.319,3.472,0.364,5.213
			c0.042,1.597-0.239,3.238,0.202,4.783c0.18,0.63,1.093,0.63,1.273,0C51.759,141.808,50.753,137.677,50.025,134.624z"/>
		<path d="M70.523,133.336c-0.062-0.472-0.673-0.472-0.735,0c-0.32,2.448-0.795,5.574-0.226,7.986c0.139,0.588,1.047,0.588,1.186,0
			C71.319,138.911,70.844,135.785,70.523,133.336z"/>
		<path d="M93.977,101.335c-0.037-0.454-0.668-0.454-0.705,0c-0.281,3.453-0.951,7.418-0.284,10.843c0.123,0.632,1.15,0.632,1.273,0
			C94.928,108.753,94.258,104.79,93.977,101.335z"/>
		<path d="M94.653,121.16c-0.058-0.394-0.617-0.256-0.647,0.088c-0.203,2.272-0.267,5.092,0.477,7.267
			c0.186,0.539,0.958,0.575,1.128,0C96.322,126.1,95.003,123.545,94.653,121.16z"/>
		<path d="M94.791,133.462c0.081-0.588-0.721-0.848-0.912-0.251c-0.887,2.764-1.44,6.098-0.34,8.878
			c0.317,0.801,1.69,0.782,1.621-0.22C94.959,138.984,94.387,136.385,94.791,133.462z"/>
		<path d="M185.073,146.727c-7.297-2.847-14.631-5.624-21.668-9.073c-1.061-0.521-2.393,0.101-2.394,1.373
			c-0.001,2.754,0.019,5.502,0.001,8.248c-10.422,1.316-21.423-0.258-31.837,0.221c-6.139,0.282-12.273,0.676-18.406,1.089
			c-0.046-2.008-0.815-4.01-1.022-6.002c-0.063-0.61-0.918-0.626-0.96,0c-0.135,1.97-0.326,4.176,0.277,6.114
			c-4.538,0.306-9.074,0.621-13.612,0.894c-0.508-1.112-0.962-2.194-0.99-3.453c-0.026-1.205-1.816-1.003-1.65,0.225
			c0.164,1.212,0.607,2.27,1.119,3.326c-3.918,0.229-7.837,0.426-11.757,0.564c-3.502,0.124-7,0.162-10.495,0.17
			c0.029-0.089,0.085-0.162,0.091-0.262c0.122-1.812-0.949-3.76-1.196-5.561c-0.071-0.516-0.818-0.339-0.854,0.116
			c-0.144,1.767-0.353,3.981,0.241,5.689c0.002,0.004,0.005,0.008,0.007,0.012c-19.365-0.032-38.639-1.242-57.835,1.228
			c0.582-8.651,1.001-17.372,1.316-26.121c4.638-3.519,9.094-7.294,13.507-11.073c6.156-5.273,12.574-10.209,18.882-15.269
			c0.446,0.88,1.153,1.603,2.237,1.94c0.427,0.133,0.887,0.158,1.356,0.14c0.164,0.032,0.281,0.121,0.457,0.139
			c0.294,0.028,0.59-0.038,0.887-0.054c0.126,0.169,0.224,0.36,0.372,0.51c0.425,0.43,1.309,0.139,1.255-0.52
			c-0.007-0.086-0.041-0.165-0.052-0.25c0.765-0.228,1.485-0.578,2.162-1.029c1.583,2.23,2.946,4.674,4.321,6.968
			c2,3.338,3.891,6.823,5.983,10.158c-1.439,1.162-2.287,3.021-1.979,5.243c0.459,3.301,3.507,4.7,6.52,4.57
			c-0.005,1.004,0.027,2.001,0.17,2.957c0.093,0.626,1.165,0.626,1.258,0c0.153-1.028,0.194-2.1,0.179-3.179
			c0.756-0.179,1.489-0.423,2.13-0.8c3.004-1.766,2.89-5.865,0.867-8.314c6.129-8.344,10.757-17.744,15.291-27.07
			c0.806,0.218,1.63,0.191,2.439,0.013c0.275,2.014,0.257,4.345,1.284,6.134c0.294,0.512,1.279,0.492,1.371-0.18
			c0.296-2.169-0.422-4.447-0.819-6.574c-0.011-0.057-0.021-0.114-0.032-0.17c0.792,0.963,1.586,1.924,2.369,2.896
			c1.237,1.541,2.512,3.053,3.774,4.574c0.201,0.243,0.403,0.51,0.612,0.776c-0.229,0.949-0.24,2.009,0.06,3.139
			c0.763,2.87,3.166,5.154,6.164,4.327c-0.086,1.924-0.119,3.848,0.017,5.767c0.058,0.831,1.231,0.831,1.29,0
			c0.148-2.121,0.089-4.248-0.019-6.373c1.116-0.636,2.028-1.544,2.675-2.65c2.494-1.245,4.035-3.209,1.928-5.184
			c-0.331-0.31-0.776-0.535-1.199-0.777c-0.083-0.215-0.192-0.415-0.305-0.613c23.646-17.039,41.39-41.258,62.228-61.386
			c1.632-1.577-0.838-4.032-2.482-2.482c-21.297,20.08-39.584,42.723-61.571,62.036c-0.658-0.33-1.442-0.554-2.385-0.617
			c-1.353-0.091-2.611,0.554-3.64,1.515c-0.312,0.128-0.586,0.302-0.853,0.483c-1.389-1.554-2.747-3.136-4.155-4.672
			c-0.837-0.914-1.751-2.108-2.753-3.202c0.085-0.248,0.125-0.503,0.179-0.76c0.155-0.201,0.354-0.382,0.482-0.591
			c1.753-2.827-0.29-5.823-2.99-6.982c-2.695-1.158-4.926-0.1-6.244,1.796c-0.799,0.555-1.362,1.466-1.563,2.983
			c-0.252,1.901,0.068,3.797,1.189,4.966c-4.548,9.292-9.031,18.543-14.241,27.489c-0.699-0.266-1.441-0.352-2.178-0.209
			c-0.689-0.14-1.363-0.17-2.014-0.096c-2.226-3.439-4.197-7.092-6.303-10.539c-1.365-2.233-2.938-5.055-4.832-7.474
			c1.427-2.026,1.78-4.585-0.157-6.713c-1.939-2.131-5.015-3.092-7.614-1.665c-1.868,1.026-2.984,3.163-3.445,5.241
			c-5.655,3.641-10.823,8.383-15.79,12.657c-5.383,4.632-10.714,9.266-16.156,13.771c0.828-25.97,0.731-52.182,0.581-77.833
			c1.115-0.015,2.237-0.048,3.38-0.097c1.126-0.049,1.926-1.054,1.65-2.166c-1.529-6.168-5.482-11.444-6.439-17.767
			c-0.253-1.671-2.858-1.525-3.221,0c-1.47,6.168-4.86,11.627-6.367,17.787c-0.406,1.662,1.705,2.711,2.759,1.53
			c1.656,0.369,3.284,0.546,4.913,0.637C10.091,70.478,7.18,98.707,7.235,126.36c-1.958,1.536-3.921,3.067-5.938,4.546
			c-1.19,0.873-0.158,2.786,1.181,2.02c1.653-0.945,3.236-1.996,4.82-3.044c0.087,7.505,0.351,14.973,1.016,22.347
			c-2.485,0.388-4.97,0.767-7.453,1.301c-1.531,0.329-0.835,2.482,0.63,2.284c2.358-0.317,4.718-0.507,7.076-0.739
			c0.288,2.8,0.617,5.589,1.015,8.361c0.148,1.034,1.632,0.677,1.709-0.231c0.238-2.812,0.415-5.651,0.618-8.479
			c12.519-1.045,25.045-1.057,37.575-0.941c-0.041,0.391-0.06,0.781,0.004,1.153c0.063,0.366,0.319,0.489,0.595,0.514
			c0.056,0.018,0.104,0.006,0.161,0.012c0.058-0.007,0.105,0.006,0.161-0.012c0.276-0.024,0.531-0.147,0.595-0.514
			s0.044-0.754,0.005-1.141c15.485,0.153,30.977,0.447,46.473-0.787c14.634-1.165,29.568-2.383,44.248-2.086
			c6.407,0.129,12.859,0.783,19.183-0.034c-0.046,1.972-0.069,3.942-0.209,5.916c-0.025,0.35,0.116,0.617,0.332,0.816
			c-0.011,0.055-0.021,0.109-0.031,0.165c-0.188,1.104,0.741,2.551,2.044,2.044c7.648-2.979,15.097-6.459,22.411-10.177
			C186.812,148.961,186.249,147.186,185.073,146.727z"/>
		<path d="M107.435,116.98c-0.021-0.387-0.579-0.387-0.6,0c-0.161,2.909-0.494,5.874,0.439,8.691c0.199,0.6,1.254,0.536,1.164-0.158
			C108.069,122.666,107.599,119.853,107.435,116.98z"/>
		<path d="M109.075,133.336c-0.043-0.666-0.994-0.667-1.035,0c-0.147,2.38-0.199,4.44,0.847,6.624
			c0.184,0.383,0.879,0.213,0.825-0.224C109.443,137.612,109.214,135.474,109.075,133.336z"/>
	</g>
</g>
<g>
</g>
<g>
</g>
<g>
</g>
<g>
</g>
<g>
</g>
<g>
</g>
<g>
</g>
<g>
</g>
<g>
</g>
<g>
</g>
<g>
</g>
<g>
</g>
<g>
</g>
<g>
</g>
<g>
</g>
</svg>
