<?xml version="1.0" encoding="iso-8859-1"?>
<!-- Generator: Adobe Illustrator 16.0.0, SVG Export Plug-In . SVG Version: 6.00 Build 0)  -->
<!DOCTYPE svg PUBLIC "-//W3C//DTD SVG 1.1//EN" "http://www.w3.org/Graphics/SVG/1.1/DTD/svg11.dtd">
<svg version="1.1" id="Capa_1" xmlns="http://www.w3.org/2000/svg" xmlns:xlink="http://www.w3.org/1999/xlink" x="0px" y="0px"
	 width="183.871px" height="183.871px" viewBox="0 0 183.871 183.871" style="enable-background:new 0 0 183.871 183.871;"
	 xml:space="preserve">
<g>
	<g>
		<path d="M183.763,85.111c-1.516-27.166-16.209-50.448-37.054-65.556c0.075-0.105,0.155-0.209,0.23-0.314
			c0.922-1.304-1.099-2.783-2.173-1.676c-0.125,0.129-0.242,0.264-0.367,0.393C128.62,7.2,109.614,1.003,90.219,1.149
			C66.036,1.331,40.276,12.844,21.948,28.001C1.104,45.238-1.891,74.005,0.868,99.031c4.466,40.512,45.467,98.873,92.863,80.058
			C140.409,176.032,186.405,132.5,183.763,85.111z M90.219,4.689c19.58-1.372,37.45,4.75,52.071,15.524
			c-19.075,20.153-35.509,43.079-53.973,63.882c-0.022-0.106-0.034-0.211-0.081-0.318C77.627,59.881,75.92,32.551,60.35,10.737
			c-0.081-0.114-0.179-0.191-0.277-0.263C70.148,7.265,80.576,5.365,90.219,4.689z M106.292,144.112
			c1.556-0.573,2.921-2.41,4.235-3.404c2.436-1.843,5.083-3.422,7.715-4.964c2.696-1.58,5.469-3.029,8.269-4.415
			c1.379-0.682,3.122-1.218,4.47-2.1c1.071,0.645,2.167,1.29,3.271,1.938c-5.421,1.93-11.192,6.607-15.337,9.367
			c-2.054,1.368-10.654,6.362-11.591,9.991c-1.564-4.526-3.127-9.058-4.713-13.591c3.294-2.201,6.412-4.703,9.599-7.033
			c2.12-1.551,4.238-3.102,6.423-4.562c0.607-0.405,2.112-1.584,3.301-2.163c0.951,0.694,1.881,1.414,2.847,2.092
			c1.199,0.841,2.469,1.669,3.783,2.491c-1.125,0.503-2.222,1.167-3.174,1.651c-3.147,1.6-6.203,3.383-9.209,5.232
			c-2.394,1.473-10.555,5.634-10.337,9.128C105.857,143.983,106.063,144.196,106.292,144.112z M111.732,163.216
			c0.015-0.013,0.034-0.007,0.048-0.021c1.297-1.358,4.508-2.481,6.156-3.472c3.945-2.372,7.931-4.682,11.914-6.991
			c4.201-2.438,8.43-4.831,12.685-7.173c2.326-1.281,5.571-2.361,7.543-4.211c1.256,0.979,2.437,1.996,3.562,3.044
			c-13.184,8.331-26.687,15.692-40.434,23.071C112.715,166.044,112.225,164.633,111.732,163.216z M141.365,143.555
			c-4.721,2.658-9.38,5.427-14.029,8.207c-4.328,2.591-12.982,5.939-15.938,10.49c-0.663-1.913-1.326-3.807-1.988-5.723
			c5.402-1.332,10.689-6.196,14.952-9.271c1.525-1.1,14.005-11.662,15.657-10.623c0.788,0.495,1.645-0.464,1.227-1.227
			c-2.051-3.746-25.695,16.848-32.227,19.993c-0.42-1.216-0.84-2.412-1.262-3.629c1.241-0.616,2.194-2.152,3.215-3.066
			c3.084-2.765,6.642-5.016,10.126-7.235c5.051-3.217,10.96-5.448,15.979-8.647c3.813,2.239,7.615,4.574,11.103,7.096
			C145.786,140.651,143.386,142.417,141.365,143.555z M67.595,108.644c1.288-1.748,2.631-3.456,3.957-5.179
			c8.173,13.003,18.761,24.269,27.355,36.986c0.367,1.108,0.702,2.226,1.081,3.331c0.909,2.652,1.839,5.547,2.836,8.501
			c-11.297-14.892-21.584-30.474-32.486-45.649c-0.334-0.464-1.091-0.05-0.78,0.456c10.121,16.475,20.61,32.802,32.529,48.043
			c0.467,0.597,1.256,0.372,1.692-0.116c0.84,2.388,1.72,4.782,2.705,7.101C90.231,146.836,79.21,127.588,67.595,108.644z
			 M78.696,130.815c-4.919-6.276-9.813-12.663-12.722-20.027c0.295-0.406,0.611-0.796,0.907-1.201
			C70.462,116.853,74.437,123.92,78.696,130.815z M92.364,120.973c-2.743-3.656-7.119-6.577-10.362-9.846
			c-2.973-2.996-6.392-6.24-8.758-9.812c0.695-0.885,1.411-1.754,2.119-2.63c2.067,3.188,4.632,6.109,7.128,8.925
			c2.453,2.767,5.516,7.037,8.93,8.866c1.84,5.966,3.636,11.947,5.517,17.902c-7.917-10.81-17.297-20.525-24.818-31.653
			c0.214-0.276,0.439-0.544,0.653-0.819c1.852,3.557,4.649,6.592,7.321,9.558c3.065,3.402,6.943,8.676,11.217,10.563
			C91.922,122.298,92.886,121.666,92.364,120.973z M82.468,101.611c1.041,1.483,2.145,2.923,3.273,4.342
			c0.88,1.107,1.758,2.483,3.101,3.023c0.065,0.025,0.131,0.004,0.197,0.007c0.376,1.175,0.769,2.346,1.138,3.522
			c-1.652-1.533-3.471-2.975-4.955-4.463c-3.259-3.27-6.234-6.76-8.972-10.463c1.493-1.821,3.016-3.622,4.619-5.365
			c0.099,0.212,0.187,0.428,0.316,0.632c0.678,1.068,1.753,1.562,2.918,1.68c1.342,3.595,2.577,7.223,3.775,10.863
			c-0.114-0.118-0.231-0.235-0.339-0.354c-1.155-1.281-2.25-2.616-3.323-3.965c-1.011-1.271-1.973-2.586-2.893-3.924
			c-0.311-0.451-1.002-1.096-1.167-1.579c-0.123-0.364-0.627-0.288-0.655,0.089C79.339,97.821,81.294,99.938,82.468,101.611z
			 M114.613,125.846c-4.199,3.216-8.163,6.763-12.407,9.924c-0.697-1.989-1.373-3.98-2.079-5.966
			c0.194,0.056,0.401,0.058,0.567-0.105c2.915-2.854,6.085-5.369,9.357-7.803c1.663-1.237,3.536-2.338,5.226-3.609
			c1.568,1.168,3.158,2.31,4.729,3.475C117.865,122.93,115.667,125.038,114.613,125.846z M109.077,120.632
			c-3.189,2.467-6.839,4.991-9.271,8.262c-0.691-1.938-1.341-3.89-2.044-5.819c1.989-1.36,3.916-2.826,5.844-4.26
			c1.705-1.269,4.024-3.41,6.058-4.087c0.174-0.059,0.293-0.167,0.366-0.298c1.186,0.903,2.415,1.756,3.608,2.65
			C112.049,118.195,110.543,119.499,109.077,120.632z M104.402,116.578c-2.31,1.867-4.653,3.691-7.001,5.509
			c-0.643-1.752-1.261-3.518-1.918-5.261c1.278-1.061,2.532-2.149,3.895-3.118c1.631-1.16,3.656-2.104,5.043-3.56
			c1.488,1.169,3.012,2.296,4.514,3.446C107.239,113.899,105.625,115.59,104.402,116.578z M98.004,112.906
			c-1.047,0.787-2.066,1.619-3.053,2.49c-0.456-1.201-0.882-2.421-1.346-3.616c1.038-1.021,2.062-2.057,3.127-3.051
			c0.929-0.869,1.939-1.566,2.961-2.26c1.175,0.957,2.4,1.852,3.589,2.791C101.38,110.127,99.633,111.683,98.004,112.906z
			 M96.959,106.392c-1.389,1.237-2.628,2.641-3.877,4.026c-0.563-1.436-1.081-2.901-1.658-4.328
			c-0.007-0.038,0.011-0.068-0.007-0.108c-0.165-0.375,2.391-1.924,4.059-2.969c0.92,0.779,1.865,1.525,2.796,2.292
			C97.812,105.648,97.371,106.023,96.959,106.392z M90.845,104.628c-1.266-3.09-2.568-6.154-3.915-9.185
			c2.343,2.187,4.761,4.281,7.186,6.366C92.882,102.54,91.507,103.589,90.845,104.628z M31.395,150.027
			c-0.387-0.407-0.972,0.107-0.742,0.573c0.061,0.121,0.098,0.253,0.155,0.376c-0.654,0.812-1.255,1.658-1.758,2.562
			c-12.043-13.556-20.367-31.185-23.787-49.013c-5.137-26.78-0.977-54.449,19.19-74.021c9.038-8.77,21.109-15.17,33.856-19.447
			c-0.058,0.237-0.032,0.505,0.144,0.787c9.5,15.135,13.623,32.547,19.047,49.384c2.166,6.723,3.348,18.937,8.521,24.02
			c-1.209-0.2-2.136,0.287-2.828,1.134c-1.762,0.323-2.733,1.741-2.832,3.384c-2.031,1.933-3.938,3.962-5.792,6.031
			c-0.311,0.004-0.559,0.245-0.521,0.581c-2.873,3.247-5.585,6.619-8.171,10.093c-0.162,0.058-0.267,0.194-0.278,0.382
			c-4.127,5.567-8.002,11.342-11.939,17.096c-4.836,7.068-9.991,13.874-15.963,20.016c-1.987,2.044-4.261,4.017-6.187,6.219
			C31.467,150.138,31.438,150.072,31.395,150.027z M36.171,160.629c-0.579-2.476-1.421-5.193-2.678-7.548
			c0.993-0.988,1.895-2.043,2.849-3.059c0.049,2.837,0.301,5.671,0.808,8.46c0.182,1.001,0.4,2.31,0.744,3.609
			C37.317,161.609,36.735,161.132,36.171,160.629z M41.354,164.852c-0.485-1.954-1.581-3.913-2.083-5.843
			c-0.898-3.44-1.257-6.981-1.5-10.52c0.853-0.938,1.642-1.921,2.468-2.877c-0.421,4.085,0.268,8.266,1.181,12.231
			c0.606,2.631,1.503,6.312,3.086,9.16C43.45,166.294,42.376,165.616,41.354,164.852z M48.297,169.395
			c-0.008-0.113,0.017-0.218-0.039-0.341c-3.658-8.137-7.445-15.595-6.821-24.839c0.786-0.932,1.525-1.896,2.291-2.844
			c2.112,10.621,5.772,20.955,10.071,30.889C51.928,171.38,50.085,170.439,48.297,169.395z M56.386,173.387
			c0.009-0.166,0.068-0.321-0.008-0.501c-4.454-10.498-8.412-20.949-11.599-31.899c-0.074-0.253-0.258-0.34-0.452-0.359
			c0.729-0.912,1.426-1.848,2.14-2.771c-0.82,5.52,3.912,14.464,5.45,18.456c1.714,4.448,3.99,13.086,7.564,18.255
			C58.442,174.192,57.403,173.813,56.386,173.387z M63.363,175.828c-3.355-5.909-6.195-12.129-8.819-18.404
			c-1.828-4.372-8.647-16.475-6.643-21.423c0.403-0.532,0.792-1.074,1.191-1.608c3.358,13.512,8.247,31.255,17.272,42.223
			C65.355,176.374,64.353,176.116,63.363,175.828z M69.455,177.265c-7.112-14.521-14.228-28.52-19.636-43.855
			c0.611-0.825,1.208-1.661,1.812-2.492c7.857,8.149,10.219,20.188,13.584,30.667c1.688,5.257,3.633,11.637,7.38,16.125
			C71.545,177.569,70.487,177.455,69.455,177.265z M75.996,178.079c-11.203-13.934-9.342-36.784-23.593-48.225
			c1.396-1.934,2.765-3.889,4.14-5.836c6.591,19.321,18.275,36.376,28.169,54.122C81.75,178.315,78.841,178.3,75.996,178.079z
			 M87.278,177.957c-9.752-18.554-21.838-35.789-29.784-55.279c0.625-0.887,1.254-1.772,1.879-2.659
			c8.468,19.588,18.004,40.448,30.752,57.561C89.172,177.718,88.218,177.862,87.278,177.957z M93.017,175.619
			c-0.521,0.029-0.912,0.248-1.191,0.553c-10.567-19.048-20.873-38.331-31.685-57.24c0.781-1.109,1.573-2.211,2.358-3.316
			c0.143,8.515,8.906,18.311,13.153,25.11c7.129,11.411,12.988,23.909,21.294,34.534C95.63,175.411,94.317,175.545,93.017,175.619z
			 M99.156,174.962c-0.01-0.019,0.003-0.038-0.009-0.057c-12.377-19.679-23.958-39.87-36.257-59.588
			c-0.032-0.052-0.09-0.041-0.141-0.056c0.749-1.052,1.511-2.096,2.266-3.143c0.797,8.997,11.382,19.317,16.172,25.757
			c8.665,11.649,15.884,24.835,25.751,35.532C104.336,174.04,101.737,174.588,99.156,174.962z M109.076,172.839
			c-3.329-4.273-6.477-8.668-9.584-13.089c2.726,2.69,5.671,5.007,8.911,6.508c0.005,0.002,0.009-0.001,0.014,0.001
			c1.052,2.085,2.188,4.067,3.456,5.836C110.941,172.383,110.009,172.587,109.076,172.839z M113.679,168.818
			c13.062-6.496,28.571-12.146,40.036-21.426c-11.333,10.659-25.113,19.061-39.194,23.849
			C114.239,170.441,113.959,169.625,113.679,168.818z M157.715,143.476c-2.555-4.894-13.115-9.376-16.463-11.35
			c-8.168-4.814-16.104-10.183-23.862-15.835c0.128-0.503-0.262-1.14-0.838-0.899c-0.079,0.032-0.152,0.087-0.231,0.122
			c-9.61-7.051-18.939-14.533-28.023-22.035c0.088-0.116,0.207-0.204,0.27-0.339c0.348-0.302,0.662-0.63,0.9-1.003
			c0.916-1.436,0.636-3.215-0.246-4.617c19.443-20.508,39.044-42.437,55.604-65.382c19.072,15.153,32.131,38.387,35.403,62.973
			C183.062,106.409,173.289,127.195,157.715,143.476z"/>
	</g>
</g>
<g>
</g>
<g>
</g>
<g>
</g>
<g>
</g>
<g>
</g>
<g>
</g>
<g>
</g>
<g>
</g>
<g>
</g>
<g>
</g>
<g>
</g>
<g>
</g>
<g>
</g>
<g>
</g>
<g>
</g>
</svg>
