<?xml version="1.0" encoding="iso-8859-1"?>
<!-- Generator: Adobe Illustrator 16.0.0, SVG Export Plug-In . SVG Version: 6.00 Build 0)  -->
<!DOCTYPE svg PUBLIC "-//W3C//DTD SVG 1.1//EN" "http://www.w3.org/Graphics/SVG/1.1/DTD/svg11.dtd">
<svg version="1.1" id="Capa_1" xmlns="http://www.w3.org/2000/svg" xmlns:xlink="http://www.w3.org/1999/xlink" x="0px" y="0px"
	 width="193.784px" height="193.784px" viewBox="0 0 193.784 193.784" style="enable-background:new 0 0 193.784 193.784;"
	 xml:space="preserve">
<g>
	<g>
		<path d="M173.171,45.478c-26.747-14.22-52.183-30.702-78.731-45.274c-0.729-0.4-1.761-0.212-2.168,0.568
			c-4.242,8.116-7.442,16.551-10.157,25.155c-0.264-0.406-0.564-0.796-0.82-1.205c-0.327-0.522-1.128-0.058-0.826,0.483
			c0.39,0.7,0.811,1.435,1.21,2.148c-1.483,4.8-2.833,9.646-4.128,14.521c-0.162-0.288-0.358-0.555-0.515-0.845
			c-0.29-0.538-1.081-0.065-0.813,0.475c0.298,0.6,0.646,1.167,0.961,1.756c-0.475,1.799-0.946,3.599-1.414,5.402
			c-0.217,0.101-0.376,0.35-0.242,0.632c0.016,0.033,0.036,0.064,0.051,0.096c-0.613,2.357-1.226,4.717-1.851,7.078
			c-0.976,3.688-2.01,7.357-3.054,11.021c-0.065-0.075-0.126-0.154-0.191-0.229l-0.015,0.015c-0.234-0.24-0.7,0.047-0.502,0.383
			c0.142,0.241,0.32,0.459,0.467,0.697c-3.513,12.304-7.197,24.53-9.88,37c-0.384-0.201-0.924,0.188-0.665,0.671
			c0.124,0.231,0.268,0.451,0.394,0.682c-0.36,1.722-0.721,3.443-1.038,5.177c-0.089,0.107-0.144,0.236-0.088,0.392
			c0.002,0.006,0.005,0.012,0.007,0.017c-0.529,2.929-1.001,5.872-1.38,8.838c-0.307-0.322-0.887,0.008-0.634,0.433
			c0.157,0.264,0.303,0.545,0.456,0.814c-0.024,0.204-0.063,0.403-0.087,0.607c-11.804-4.663-24.268-6.584-36.885-7.473
			c-0.76-0.054-1.063,0.886-0.729,1.412c-0.053,0.18-0.065,0.381,0.031,0.594c11.54,25.523,24.712,50.303,36.924,75.511
			c0.313,0.646,1.109,0.852,1.753,0.715c7.702-1.642,15.058-4.008,22.24-6.762c0.138,0.007,0.26-0.038,0.345-0.134
			c4.027-1.554,7.991-3.247,11.918-5.033c0.097,0.062,0.18,0.162,0.279,0.219c0.432,0.242,0.896-0.237,0.665-0.664
			c0.975-0.448,1.936-0.932,2.906-1.391c0.298,0.157,0.637-0.057,0.738-0.353c1.339-0.639,2.659-1.344,3.994-1.999
			c0.069,0.049,0.13,0.113,0.199,0.16c0.382,0.259,0.865-0.211,0.689-0.605c4.174-2.061,8.328-4.183,12.483-6.332
			c0.057-0.016,0.102-0.039,0.147-0.075c2.654-1.373,5.316-2.769,7.976-4.157c0.018-0.012,0.037-0.017,0.054-0.028
			c1.743-0.911,3.48-1.812,5.229-2.727c0.623-0.324,0.823-0.86,0.777-1.388c0.164-0.183,0.281-0.413,0.264-0.709
			c-0.361-6.103-1.034-12.192-2.381-18.161c-0.128-0.567-0.62-0.995-1.157-1.158c-2.354-0.717-4.543-1.903-6.703-3.066
			c-0.55-0.296-1.12-0.7-1.719-1.014c0.324-0.403,0.687-0.771,1.015-1.171c0.062,0.053,0.11,0.124,0.174,0.175
			c0.477,0.369,1.33-0.114,0.916-0.707c-0.093-0.134-0.19-0.267-0.283-0.399c13.006-15.664,28.045-29.309,41.371-44.677
			c12.61-14.543,12.613-24.724,11.924-43.058C173.964,48.183,174.671,46.275,173.171,45.478z M169.201,47.167
			c0.128,3.195,0.376,6.324,0.539,9.421c-1.335-4.1-3.453-8.19-5.378-12.071C165.977,45.398,167.574,46.307,169.201,47.167z
			 M119.029,18.073c4.462,2.666,8.914,5.343,13.369,8.013c10.988,12.941,17.076,28.711,25.209,43.268
			c-0.08,0.029-0.161,0.034-0.239,0.08c-1.125-0.536-2.269-1.026-3.406-1.533c-1.706-3.337-4.58-6.634-6.459-9.739
			c-3.921-6.481-7.637-13.085-11.587-19.55c-2.375-3.886-9.837-19.844-16.067-18.676c-0.074,0.014-0.059,0.141,0.018,0.132
			c5.781-0.65,16.187,23.053,18.438,27.025c3.182,5.61,6.354,11.225,9.757,16.705c0.377,0.608,0.797,1.338,1.256,2.089
			c-1.321-0.55-2.642-1.104-3.97-1.637c0.328-0.761-0.581-1.342-1.211-0.842c1-0.796-26.41-40.403-33.191-50.661
			C114.762,15.149,117.949,17.428,119.029,18.073z M100.416,137.269c0.166,0.199,0.315,0.423,0.479,0.626
			c-3.26,4.73-6.427,9.523-9.35,14.478c-1.297,0.604-1.558,2.852,0.207,3.305c4,1.028,7.994,2.04,11.967,3.164
			c13.412,3.791,4.592,4.916-1.691,7.302c-7.571,2.875-15.325,5.327-22.75,8.576c-10.721,4.691-11.104,4.159-15.716-6.477
			c-3.486-8.039-7.397-15.769-11.626-23.385c0.028-0.175,0.051-0.354-0.057-0.553c-0.745-1.363-1.559-2.682-2.392-3.988
			c3.257,1.486,6.542,2.915,9.792,4.417c1.932,0.894,3.853,1.812,5.756,2.768c0.543,0.272,3.276,1.422,2.898,0.986
			c0.858,0.988,2.45-0.06,2.124-1.235c-0.182-0.655-0.587-1.217-1.115-1.715c11.601-32.39,18.763-66.192,30.373-98.619
			c16.91,11.698,37.155,16.496,55.604,25.199c-18.119,21.277-37.498,41.982-53.475,64.99c-0.141-0.148-0.263-0.314-0.404-0.463
			C100.642,136.226,100.06,136.839,100.416,137.269z M95.883,150.015c0.377,1.196,0.851,2.384,1.496,3.504
			c-1.129-0.305-2.247-0.615-3.396-0.915C94.602,151.727,95.252,150.879,95.883,150.015z M109.275,11.722
			c6.648,14.011,16.185,26.301,24.511,39.322c1.628,2.546,3.598,7.728,6.245,11.092c-0.122-0.047-0.242-0.098-0.363-0.144
			c-15.229-15.436-28.689-33.699-37.002-53.87C104.852,9.136,107.121,10.418,109.275,11.722z M101.229,7.505
			c3.418,11.136,9.776,21.425,16.084,31.102c1.385,2.125,2.842,4.311,4.368,6.491c-9.568-12.139-19.37-24.281-24.542-38.925
			C98.375,6.398,99.779,6.904,101.229,7.505z M92.1,7.934c0.653-1.478,2.042-1.984,3.833-1.887
			c2.618,10.071,8.518,19.152,14.269,27.678c5.58,8.272,11.791,17.137,18.948,24.254c-2.015-0.766-4.03-1.528-6.033-2.318
			c-10.405-15.948-21.589-31.094-31.021-47.72C92.098,7.939,92.099,7.936,92.1,7.934z M91.607,9.126
			c7.303,15.485,16.294,31.8,27.573,44.907c-1.911-0.785-3.841-1.53-5.728-2.369c-7.739-12.623-17.806-23.613-24.072-37.144
			C90.082,12.712,90.837,10.917,91.607,9.126z M88.832,16.011c5.29,12.478,13.846,23.11,21.516,34.21
			c-1.326-0.622-2.658-1.23-3.967-1.893c-7.212-8.499-12.651-18.224-19.499-26.997C87.505,19.55,88.165,17.78,88.832,16.011z
			 M86.393,22.818c4.596,6.724,8.718,13.852,13.576,20.391c-0.67-0.859-2.399-0.915-2.909,0.468
			c-0.295,0.802-0.56,1.617-0.838,2.426c-3.585-5.828-7.941-11.317-11.922-16.966C84.927,26.998,85.682,24.918,86.393,22.818z
			 M83.468,31.946c0.085-0.313,0.187-0.616,0.275-0.928c3.451,6.026,7.3,12.097,11.755,17.177c-0.278,0.824-0.566,1.644-0.851,2.465
			c-0.177-0.09-0.376-0.067-0.556,0.016c-1.059-1.824-2.031-3.49-3.608-5.221c-3.022-3.317-5.221-7.332-7.682-11.104
			C83.023,33.55,83.25,32.746,83.468,31.946z M80.831,41.463c2.354,3.565,4.286,7.412,6.652,10.975
			c0.445,0.67,4.12,5.827,4.629,2.46c0.12-0.796-0.893-1.074-1.197-0.33c0.09-0.221-1.596-1.937-1.953-2.416
			c-0.997-1.335-1.873-2.77-2.759-4.179c-1.605-2.554-3.031-5.284-4.877-7.677c-0.041-0.053-0.099-0.055-0.149-0.088
			c0.455-1.635,0.906-3.269,1.359-4.903c2.007,3.387,3.851,6.871,6.131,10.091c1.251,1.766,2.783,3.201,3.737,5.173
			c0.443,0.915,0.714,1.968,1.302,2.811c-0.92,2.689-1.893,5.354-2.783,8.055c-0.051,0.066-0.124,0.09-0.16,0.179
			c0.032,0.059,0.037,0.073,0.062,0.121c-0.01,0.032-0.021,0.064-0.031,0.096c-0.124-0.181-0.288-0.429-0.54-0.825
			c-0.339-0.555-0.688-1.104-1.048-1.646c-1.197-1.843-2.583-3.58-3.823-5.398c-1.922-2.817-3.832-5.641-5.657-8.518
			C80.096,44.117,80.46,42.792,80.831,41.463z M77.59,53.152c1.618,2.945,3.35,5.833,5.21,8.613
			c0.496,0.742,3.608,5.977,5.016,3.926c0.437-0.637-0.487-1.228-1.01-0.779c0.476-0.408,0.48-0.021-0.098-0.766
			c-0.378-0.488-0.78-0.955-1.17-1.433c-1.212-1.487-2.298-3.083-3.381-4.663c-1.433-2.089-2.823-4.225-4.151-6.395
			c0.429-1.54,0.851-3.077,1.28-4.617c2.853,4.765,6.051,9.306,8.929,14.063c0.499,0.825,1.274,1.898,2.026,2.433
			c-0.802,2.457-1.622,4.907-2.403,7.372c-0.013-0.062,0.003-0.128-0.035-0.187c-1.587-2.503-3.664-4.732-5.533-7.03
			c-1.827-2.246-3.628-4.698-5.74-6.709C76.885,55.703,77.235,54.429,77.59,53.152z M76.268,57.928
			c1.792,2.328,3.481,4.749,5.267,7.081c1.631,2.128,3.219,4.959,5.409,6.57c0.243,0.178,0.511,0.101,0.702-0.072
			c-0.601,1.903-1.237,3.791-1.825,5.699c-4.301-4.315-7.698-9.033-10.966-14.179C75.327,61.325,75.793,59.629,76.268,57.928z
			 M72.517,71.463c1.168,1.614,2.382,3.196,3.6,4.762c1.909,2.456,3.858,5.497,6.336,7.416c0.636,0.492,1.815-0.169,1.233-0.951
			c-1.781-2.393-4.052-4.494-6.001-6.757c-1.636-1.901-3.212-3.852-4.803-5.79c0.495-1.795,0.993-3.58,1.49-5.374
			c1.663,2.941,3.471,5.809,5.437,8.548c1.136,1.583,3.243,5.144,5.56,5.377c-1.042,3.403-2.07,6.811-3.075,10.228
			c-0.281,0.009-0.557,0.192-0.569,0.545c-0.009,0.24,0.06,0.582,0.023,0.863c-1.76-2.73-3.754-5.33-5.649-7.96
			c-1.508-2.094-3.494-4.197-4.841-6.356C71.67,74.494,72.1,72.981,72.517,71.463z M71.064,76.71
			c2.625,5.333,6.293,10.486,9.799,15.307c0.11,0.151,0.251,0.278,0.413,0.351c-0.285,0.982-0.584,1.96-0.867,2.943
			c-1.318-1.737-4.71-5.541-5.211-6.22c-1.873-2.538-3.639-5.15-5.409-7.76C70.205,79.788,70.646,78.252,71.064,76.71z
			 M69.375,82.846c2.474,3.814,4.932,7.648,7.695,11.258c0.328,0.428,1.595,2.074,2.824,2.99c-0.48,1.677-0.978,3.347-1.451,5.026
			c-2.119-2.638-4.228-5.235-6.101-8.109c-1.32-2.026-2.566-4.588-4.245-6.496C68.506,85.954,68.959,84.405,69.375,82.846z
			 M67.634,89.283c1.402,2.458,3.12,4.845,4.589,7.17c1.572,2.488,3.389,5.419,5.723,7.418c-0.395,1.408-0.809,2.812-1.199,4.223
			c-1.746-2.033-3.683-3.945-5.291-6.088c-1.826-2.434-3.485-4.981-5.193-7.496C66.704,92.764,67.183,91.027,67.634,89.283z
			 M65.837,96.186c1.56,2.582,3.201,5.119,4.952,7.569c1.535,2.146,3.254,4.658,5.387,6.394c-0.485,1.767-0.995,3.527-1.473,5.294
			c-1.581-2.189-3.35-4.263-4.869-6.505c-1.799-2.655-3.455-5.401-5.181-8.104C65.027,99.279,65.452,97.736,65.837,96.186z
			 M64.302,102.273c1.43,2.464,2.85,4.934,4.349,7.354c1.569,2.535,3.266,5.458,5.616,7.411c-0.569,2.109-1.166,4.216-1.726,6.326
			c-1.521-3.1-3.929-5.893-5.904-8.705c-1.378-1.963-2.613-4.013-3.879-6.045C63.232,106.496,63.799,104.391,64.302,102.273z
			 M62.378,110.323c1.025,1.677,2.081,3.333,3.154,4.982c2.019,3.104,3.902,6.592,6.462,9.272c0.062,0.064,0.129,0.065,0.195,0.094
			c-0.399,1.509-0.823,3.016-1.218,4.524c-2.823-5.008-6.755-9.444-9.56-14.518C61.716,113.225,62.06,111.775,62.378,110.323z
			 M61.046,116.51c1.273,2.496,2.743,4.902,4.205,7.274c1.573,2.553,3.171,5.345,5.121,7.69c-0.63,2.423-1.294,4.844-1.914,7.266
			c-1.446-2.44-3.052-4.805-4.458-7.273c-1.447-2.54-2.89-5.08-4.433-7.561C60.021,121.435,60.542,118.974,61.046,116.51z
			 M47.498,122.931c3.803,5.568,6.387,12.374,11.004,17.268c0.458,0.486,1.216-0.135,0.904-0.697
			c-3.019-5.451-6.543-11.011-10.25-16.104c2.786,0.839,5.549,1.757,8.255,2.872c0.25,0.268,0.645,0.333,1.016,0.269
			c0.002,0,0.003-0.001,0.005-0.001c0.137-0.025,0.264-0.039,0.376-0.115c0.276-0.12,0.47-0.361,0.614-0.637
			c2.554,5.084,4.946,10.604,8.598,14.668c-0.239,0.935-0.484,1.87-0.721,2.806c-1.864-3.163-4.343-6.185-6.365-9.217
			c-2.135-3.205-4.446-6.228-7.395-8.727c-0.414-0.35-0.997,0.209-0.603,0.604c3.209,3.203,5.541,7.057,7.911,10.889
			c1.304,2.108,2.569,4.539,4.214,6.523c-0.944-0.394-1.85-0.75-2.538-1.069c-3.096-1.438-6.243-2.975-9.477-4.176
			c-0.002-0.004,0.001-0.008-0.002-0.013c-1.39-2.491-3.277-4.724-4.759-7.178c-1.744-2.887-3.277-5.931-4.662-9.004
			c-0.018-0.041-0.056-0.047-0.083-0.073C44.87,122.151,46.179,122.556,47.498,122.931z M43.224,121.742
			c-0.175,0.057-0.323,0.22-0.255,0.425c1.61,4.954,3.958,11.007,7.605,15.095c-0.201-0.061-0.397-0.142-0.599-0.199
			c-0.728-0.208-1.395,0.145-1.803,0.734c-0.013,0.041-0.026,0.083-0.039,0.124c-0.063,0.023-0.08,0.09-0.11,0.144
			c-3.629-5.425-7.551-10.65-9.875-16.84c-0.234-0.622-1.23-0.367-1.009,0.278c2.178,6.355,5.849,11.952,9.441,17.586
			c-0.006,0.167-0.009,0.337,0.083,0.522c5.909,12.057,11.44,24.275,16.51,36.7c-11.811-18.212-23.663-36.483-31.089-56.979
			C35.823,120.031,39.54,120.826,43.224,121.742z M56.282,184.492c-10.621-22.73-21.953-45.273-34.51-66.998
			c1.608,0.273,3.217,0.548,4.826,0.826c0.855,11.023,6.82,20.436,12.779,29.535c8.822,13.472,17.354,27.03,25.264,41.074
			C60.688,188.863,57.715,187.557,56.282,184.492z M66.76,188.858c-6.517-12.207-13.371-24.502-21.221-35.901
			c-7.096-10.308-15.709-21.74-17.724-34.419c1.053,0.185,2.101,0.394,3.152,0.587c7.499,25.669,23.865,47.24,38.26,69.384
			C68.39,188.646,67.542,188.795,66.76,188.858z M70.833,188.228c-0.926-1.465-1.872-2.923-2.809-4.384
			c0.08-0.031,0.158-0.026,0.238-0.069c0.984-0.534,1.992-1.013,2.988-1.517c0.344,2.103,1.787,4.046,3.854,4.699
			c0.415,0.131,0.612-0.378,0.385-0.662c-1.273-1.602-2.993-2.305-3.241-4.544c0.592-0.293,1.195-0.558,1.791-0.841
			c1.645,1.685,3.396,3.312,5.206,4.838C76.289,186.812,73.445,187.683,70.833,188.228z M80.316,185.35
			c-1.695-1.738-3.712-3.194-5.56-4.776c1.351-0.636,2.742-1.177,4.11-1.774c1.635,1.784,3.323,3.7,5.38,4.988
			C82.92,184.338,81.605,184.868,80.316,185.35z M89.318,181.544c-1.321-1.464-3.044-2.538-4.492-3.877
			c-0.536-0.496-1.327,0.286-0.803,0.804c1.296,1.28,2.73,2.476,4.206,3.573c-0.941,0.426-1.88,0.843-2.812,1.242
			c-1.865-1.651-3.797-3.21-5.65-4.876c2.509-1.082,5.049-2.092,7.592-3.093c1.217,1.81,2.555,3.737,4.108,5.214
			C90.75,180.872,90.033,181.214,89.318,181.544z M92.92,179.833c-0.763-0.921-1.595-1.802-2.361-2.688
			c-0.661-0.764-1.274-1.566-1.903-2.356c0.901-0.351,1.807-0.688,2.71-1.033c1.139,1.682,2.458,3.427,3.962,4.867
			C94.524,179.025,93.727,179.44,92.92,179.833z M96.63,177.97c-1.38-1.556-2.951-2.956-4.261-4.596
			c1.227-0.467,2.457-0.93,3.686-1.393c1.268,1.404,2.534,2.925,3.931,4.239C98.872,176.807,97.76,177.395,96.63,177.97z
			 M101.306,175.532c-1.271-1.412-2.771-2.688-4.19-3.95c1.174-0.441,2.344-0.894,3.518-1.335c1.157,1.236,2.448,2.648,3.971,3.502
			C103.516,174.344,102.422,174.938,101.306,175.532z M106.124,172.916c-1.533-0.934-2.936-1.948-4.283-3.127
			c1.307-0.494,2.606-1.003,3.91-1.504c1.123,1.05,2.313,2.058,3.574,2.845C108.279,171.719,107.214,172.314,106.124,172.916z
			 M110.253,170.604c-0.771-1.133-1.923-2.01-3.064-2.873c1.077-0.418,2.138-0.877,3.211-1.304c0.629,1.01,1.351,2.006,2.176,2.854
			C111.815,169.716,111.046,170.155,110.253,170.604z M113.953,168.489c-0.37-0.327-0.744-0.651-1.086-1.015
			c-0.45-0.478-0.808-1.034-1.203-1.562c1.607-0.648,3.226-1.268,4.816-1.956c1.237-0.536,0.997-2.362,0-2.968
			c-5.486-3.325-11.19-5.273-17.156-6.946c-1.171-1.449-2.174-2.986-2.828-4.864c1.124-1.528,2.235-3.066,3.367-4.587
			c0.436,1.975,2.177,3.889,3.304,5.386c1.033,1.372,2.107,2.713,3.197,4.039c0.885,1.077,1.967,2.728,3.284,3.29
			c0.399,0.171,1.078-0.119,0.856-0.659c-0.912-2.222-3.549-4.227-5.112-6.028c-1.121-1.292-2.21-2.613-3.247-3.975
			c-0.557-0.729-1.657-1.738-1.828-2.674c0.86-1.154,1.688-2.338,2.558-3.486c5.74,7.972,10.36,17.642,17.375,24.354
			C118.355,165.941,116.277,167.153,113.953,168.489z M122.274,144.62c0.69,0.303,1.396,0.564,2.106,0.817
			c0.147,0.052,0.84,4.928,0.934,5.426c0.005,0.027,0.009,0.056,0.014,0.082c-2.049-2.597-4.168-5.145-6.324-7.67
			C120.25,143.831,121.477,144.27,122.274,144.62z M125.728,153.777c0.028,0.023,0.068,0.015,0.101,0.032
			c0.416,2.404,0.82,4.811,1.257,7.209c-0.079,0.028-0.153,0.027-0.233,0.069c-1.153,0.606-2.81,1.554-4.779,2.694
			c-5.992-8.13-11.792-16.635-18.484-24.22c1.808-2.375,3.703-4.673,5.547-7.016C113.796,139.726,118.961,148.444,125.728,153.777z
			 M117.917,134.203c-1.09-1.533-2.18-3.065-3.263-4.604c-0.387-0.551-1.275-0.06-0.917,0.536c1.019,1.696,1.975,3.693,3.23,5.352
			c-0.631,0.889-1.32,1.718-1.934,2.622c-0.092,0.051-0.153,0.134-0.23,0.2c-1.764-2.102-3.504-4.223-5.161-6.408
			c2.315-2.936,4.696-5.814,7.056-8.714c1.119,2.327,2.427,5.082,4.227,7.137C119.925,131.621,118.883,132.875,117.917,134.203z
			 M121.854,129.13c-1.561-2.127-3.134-4.204-4.41-6.591c-0.034-0.063-0.089-0.069-0.133-0.107c0.951-1.168,1.942-2.307,2.9-3.47
			c1.031,2.159,2.372,5.146,4.328,6.899C123.646,126.952,122.728,128.019,121.854,129.13z M128.511,121.269
			c-0.765-1.979-2.476-3.709-3.266-5.691c-0.202-0.508-1.022-0.306-0.836,0.23c0.733,2.104,1.933,4.511,3.406,6.251
			c-0.735,0.859-1.52,1.677-2.243,2.546c-1.731-1.962-3.267-3.942-4.553-6.338c-0.035-0.064-0.092-0.07-0.137-0.109
			c1.844-2.234,3.729-4.437,5.584-6.659c1.573,2.105,3.211,4.228,5.025,6.034c0.081,0.081,0.169,0.091,0.255,0.117
			C130.675,118.859,129.567,120.044,128.511,121.269z M132.439,116.878c-0.008-0.024,0.005-0.046-0.006-0.07
			c-1.077-2.362-3.237-4.35-5.102-6.339c1.217-1.456,2.447-2.904,3.667-4.358c0.575,1.008,1.099,2.044,1.714,3.023
			c0.816,1.296,1.753,3.074,3.298,3.59c0.08,0.027,0.146-0.002,0.219-0.01C134.963,114.101,133.687,115.479,132.439,116.878z
			 M136.743,112.147c0.006-0.151-0.027-0.303-0.151-0.423c-1.907-1.841-3.506-4.116-4.892-6.449c0.897-1.066,1.793-2.141,2.69-3.207
			c1.116,2.489,2.994,5.776,5.322,5.671c0.63-0.028,0.745-0.891,0.147-1.087c-2.14-0.7-3.699-3.247-4.778-5.407
			c1.153-1.369,2.3-2.75,3.455-4.119c0.756,1.578,1.603,3.109,2.586,4.564c0.708,1.047,1.533,2.306,2.679,2.953
			C141.427,107.134,139.053,109.623,136.743,112.147z M146.526,101.746c-0.578,0.592-1.12,1.204-1.693,1.799
			c-2.113-2.244-3.966-4.771-5.372-7.523c0.767-0.909,1.527-1.826,2.293-2.734c1.065,2.923,3.503,6.559,6.464,6.653
			c0.113,0.004,0.188-0.098,0.278-0.165C147.818,100.444,147.151,101.104,146.526,101.746z M148.698,99.577
			c0.064-0.152,0.104-0.322-0.001-0.468c-0.832-1.139-2.242-1.74-3.293-2.681c-1.294-1.158-2.147-2.643-2.71-4.26
			c0.747-0.885,1.488-1.779,2.234-2.665c0.003,0.072-0.013,0.142,0.022,0.215c0.732,1.479,1.765,2.811,2.778,4.108
			c0.847,1.084,1.902,2.72,3.23,3.553C150.189,98.125,149.429,98.859,148.698,99.577z M152.258,96.122
			c-2.334-2.209-4.293-4.692-6.521-7.011c-0.112-0.117-0.237-0.152-0.358-0.145c1.066-1.263,2.123-2.539,3.189-3.802
			c1.142,1.807,2.244,3.643,3.447,5.408c0.807,1.183,1.737,2.31,3.038,2.798C154.12,94.3,153.184,95.227,152.258,96.122z
			 M156.117,92.303c-3.035-1.928-4.666-5.197-6.883-7.932c0.978-1.16,1.949-2.33,2.928-3.491c0.925,1.98,1.911,3.923,3.145,5.744
			c0.787,1.165,1.797,2.481,3.01,3.384C157.593,90.78,156.861,91.549,156.117,92.303z M159.7,88.472
			c-1.244-1.264-2.569-2.445-3.666-3.903c-1.117-1.487-2.097-3.075-3.043-4.68c0.728-0.864,1.451-1.734,2.179-2.598
			c1.214,3.358,3.104,7.61,6.141,9.259C160.776,87.192,160.266,87.84,159.7,88.472z M162.246,85.434
			c-0.842-1.59-2.285-2.896-3.336-4.354c-1.095-1.519-2.014-3.173-2.849-4.85c1.089-1.295,2.183-2.583,3.263-3.89
			c1.815,3.079,3.711,6.111,5.841,9.005C164.316,82.731,163.314,84.09,162.246,85.434z M167.03,77.81
			c-0.231,0.538-0.552,1.067-0.827,1.601c-7.554-18.215-18.389-37.612-31.96-52.227c3.665,2.193,7.355,4.342,11.037,6.504
			c5.322,13.519,12.106,30.143,22.998,39.971c0.056,0.051,0.124,0.043,0.186,0.072C168.08,75.085,167.617,76.443,167.03,77.81z
			 M168.869,71.984c-7.703-12.396-15.252-24.374-21.984-37.35c5.167,3.02,10.374,5.972,15.618,8.864
			c0.005,0.022-0.013,0.038-0.004,0.061c1.862,4.938,3.573,10.602,6.308,15.114c0.244,0.405,0.691,0.438,1.03,0.263
			C169.986,63.303,169.865,67.622,168.869,71.984z"/>
		<path d="M163.998,53.633c-2.8-4.565-5.854-8.965-8.896-13.37c-0.422-0.611-1.394-0.068-1.008,0.589
			c2.407,4.095,4.882,8.149,7.291,12.242c2.289,3.887,3.995,8.379,6.653,11.994c0.555,0.755,1.801,0.331,1.559-0.657
			C168.64,60.54,166.074,57.019,163.998,53.633z"/>
		<path d="M126.076,158.391c-6.52-7.319-12.531-14.804-18.625-22.487c-0.344-0.434-1.064,0.133-0.763,0.59
			c5.235,7.943,10.79,17.258,18.464,23.095C125.875,160.139,126.62,159.002,126.076,158.391z"/>
	</g>
</g>
<g>
</g>
<g>
</g>
<g>
</g>
<g>
</g>
<g>
</g>
<g>
</g>
<g>
</g>
<g>
</g>
<g>
</g>
<g>
</g>
<g>
</g>
<g>
</g>
<g>
</g>
<g>
</g>
<g>
</g>
</svg>
