<?xml version="1.0" encoding="iso-8859-1"?>
<!-- Generator: Adobe Illustrator 16.0.0, SVG Export Plug-In . SVG Version: 6.00 Build 0)  -->
<!DOCTYPE svg PUBLIC "-//W3C//DTD SVG 1.1//EN" "http://www.w3.org/Graphics/SVG/1.1/DTD/svg11.dtd">
<svg version="1.1" id="Capa_1" xmlns="http://www.w3.org/2000/svg" xmlns:xlink="http://www.w3.org/1999/xlink" x="0px" y="0px"
	 width="194.431px" height="194.431px" viewBox="0 0 194.431 194.431" style="enable-background:new 0 0 194.431 194.431;"
	 xml:space="preserve">
<g>
	<g>
		<path d="M171.468,36.419c0.222-3.832,1.322-8.715,0.461-12.739c0.234-0.353,0.334-0.817,0.19-1.379
			c-1.606-6.301-10.069-8.499-19.952-8.912c1.574-3.076,0.557-7.184-1.936-9.735c-3.757-3.847-10.909-4.728-15.61-2.302
			c-5.641,2.91-7.711,8.258-7.205,13.437c-4.081,0.477-7.472,0.924-9.477,1.079c-3.05,0.235-6.103,0.412-9.153,0.627
			c-0.241-4.777-3.26-8.846-7.767-10.897C95.21,2.954,89.444,5.42,86.276,10.66c-1.407,2.326-1.567,4.883-1.022,7.357
			c-6.177,0.356-12.353,0.714-18.535,1.033c-0.264,0.014-0.572,0.01-0.855,0.016c-0.12-5.229-2.36-10.423-7.225-12.918
			c-5.74-2.943-11.04,1.425-14,6.068c-1.038,1.628-1.598,3.57-1.75,5.627c-6.678-0.085-12.97,0.545-16.811,3.157
			c-0.005-0.152-0.008-0.305-0.013-0.457c-0.064-1.645-2.445-1.631-2.542,0c-3.346,56.135,0.529,113.109,1.128,169.318
			c0.001,0.133,0.048,0.232,0.074,0.35c-0.945,0.713-0.695,2.527,0.809,2.557c21.471,0.412,43.024-1.131,64.49-1.67
			c14.645-0.369,29.295-0.541,43.945-0.312c5.841,0.091,23.625-1.79,27.96,3.164c0.878,1.002,2.334,0.295,2.612-0.805
			c0.807,1.086,3.073,0.734,3.245-1.065c3.3-34.706-1.033-69.481-0.045-104.252C168.224,70.785,170.483,53.472,171.468,36.419z
			 M135.011,5.533c3.162-2.41,7.731-2.025,11.062-0.255c4.049,2.152,2.87,4.842,1.749,8.035c-5.783,0.033-11.744,0.53-16.953,1.089
			C130.647,11.066,132.104,7.748,135.011,5.533z M88.992,14.348c1.825-10.027,15.035-5.862,15.937,2.41
			c-5.26,0.358-10.519,0.727-15.781,1.04C88.87,16.678,88.779,15.52,88.992,14.348z M47.104,15.772
			c1.103-4.395,5.995-8.425,10.42-6.15c3.374,1.734,4.577,5.734,4.694,9.382c-4.391-0.21-9.903-0.781-15.433-1.041
			C46.835,17.208,46.929,16.467,47.104,15.772z M164.288,87.826c-3.355,34.452,3.035,69.358-0.028,103.977
			c-4.51-9.354-44.291-4.927-51.296-4.865c-28.39,0.246-56.718,1.797-85.072,2.879c0.328-47.808,0.24-95.958-1.092-143.847
			c26.009,2.374,52.538-0.51,78.583-1.336c20.136-0.639,39.302-6.828,59.493-2.692c1.562,0.32,2.77-1.991,1.148-2.722
			c-15.159-6.836-34.493-1.421-50.292,0.632c-29.349,3.814-59.469,2.33-88.991,4.094c-0.204-7.133-0.353-14.277-0.62-21.394
			c5.69-0.099,11.37-0.171,17.045-0.238c1.181,6.365,5.635,12.423,11.536,12.982c0.001,0.001,0.002,0.002,0.002,0.002
			c0.641,0.207,1.399,0.427,2.181,0.578c0.523,0.475,1.303,0.623,2.012,0.153c0.945-0.067,1.824-0.37,2.469-1.116
			c0.724-0.837,0.81-1.879,0.596-2.887c0.012-0.12,0.089-0.243,0.075-0.36c-0.066-0.552-0.316-0.921-0.671-1.219
			c-0.034-0.059-0.054-0.128-0.09-0.185c-0.79-1.264-2.48-2.626-4.022-1.725c-0.489,0.286-0.804,0.69-1.019,1.153
			c-0.33,0.078-0.662,0.153-0.96,0.352c-0.688,0.459-1.075,1.141-1.316,1.889c-3.575-1.597-5.979-5.549-6.848-9.666
			c5.051-0.06,10.101-0.133,15.149-0.211c0.488,1.303,2.622,1.274,3.313-0.055c6.966-0.12,13.933-0.266,20.911-0.509
			c0.942,1.869,2.216,3.586,3.621,4.962c2.402,2.352,7.073,4.971,10.978,4.63c0.132,0.751,0.431,1.44,1.022,1.955
			c0.775,0.674,1.529,0.743,2.239,0.505c0.963,0.348,2.043,0.009,2.494-1.056c-0.012-0.001-0.021-0.003-0.032-0.004
			c0.435-0.664,0.652-1.516,0.763-2.366c0.28-0.51,0.523-0.996,0.687-1.363c-0.025,0.014-0.05,0.028-0.074,0.043
			c0.458-0.591,0.588-1.395-0.098-2.009c-0.736-0.66-2.56-0.939-4.011-0.699c-0.308-0.695-1.313-0.962-1.804-0.152
			c-0.257,0.426-0.503,0.944-0.713,1.502c-2.721-0.11-4.974-0.582-7.528-2.58c-1.237-0.967-2.393-2.187-3.305-3.556
			c4.316-0.173,8.629-0.325,12.957-0.583c3.996-0.237,13.642-1.722,24.336-2.796c1.857,6.034,7.263,11.01,14.627,10.408
			c-0.042,0.801,0.055,1.62,0.579,2.615c0.319,0.607,1.117,0.91,1.765,0.718c1.743-0.516,4.607-1.176,5.239-3.194
			c0.277-0.888,0.105-1.709-0.288-2.461c0.041-0.229,0.046-0.473-0.025-0.74c-0.01-0.037-0.02-0.074-0.029-0.111
			c-0.2-0.747-0.898-1.209-1.64-1.219c-0.302-0.281-0.602-0.547-0.887-0.792c-0.324-0.384-0.804-0.6-1.306-0.599
			c-0.74-0.001-1.445,0.441-1.617,1.276c-0.475,0.005-0.929,0.218-1.05,0.831c-0.1,0.5-0.22,0.938-0.334,1.37
			c-4.428-0.937-7.998-2.82-10.557-6.724c-0.363-0.555-0.661-1.13-0.904-1.714c16.584-1.47,34.426-1.559,37.191,5.637
			c0.102,0.262,0.241,0.475,0.406,0.648c-0.96,3.141-0.994,12.466-1.125,14.419C166.955,54.842,165.898,71.294,164.288,87.826z"/>
		<path d="M137.595,72.267c-7.692-1.648-11.058-1.334-15.344-8.884c-0.581-1.023-2.092-0.99-2.68,0
			c-2.709,4.557-2.03,3.173-3.846,8.229c-3.296,9.177-10.516-4.95-11.239-5.999c-0.655-0.947-1.999-1.02-2.64,0
			c-5.016,7.98-6.406,5.255-11.657-1.04c-0.483-0.578-1.668-0.615-2.144,0c-4.008,5.183-5.9-1.828-9.694-5.168
			c-0.78-0.687-1.77-0.506-2.364,0.305c-2.152,2.937-3.021,4.118-4.328,7.564c-3.863,10.187-10.385-4.82-11.732-6.722
			c-0.675-0.953-1.972-0.779-2.381,0.311c-2.456,6.549-3.789,13.306-5.614,20.046c-0.334,1.236,1.548,1.748,1.91,0.526
			c1.499-5.059,2.783-10.162,4.261-15.227c0.257-0.881,6.873,11.37,7.578,12.74c0.424,0.823,1.66,0.951,2.281,0.294
			c5.68-6.004,8.69-22.385,15.413-7.658c0.406,0.889,1.747,0.958,2.374,0.306c4.633-4.821,6.737-0.025,10.424,3.704
			c0.731,0.739,1.842,0.486,2.392-0.308c7.244-10.462,7.397,0.055,13.866,6.233c0.692,0.663,1.934,0.582,2.412-0.311
			c2.609-4.867,2.052-3.602,3.859-8.776c3.023-8.649,5.093-0.516,7.505,2.878c0.388,0.544,1.077,0.976,1.775,0.722
			c2.926-0.248,5.851-0.496,8.778-0.744C138.732,75.701,139.573,72.691,137.595,72.267z"/>
		<path d="M142.354,101.273c-5.701-0.584-11.354-2.018-17.052-2.713c-5.976-0.729-13.836,3.662-18.918,1.607
			c-2.444-0.988-4.962-1.502-7.359,0.521c-2.986,2.521-2.22,1.565-4.004,5.017c-3.445,6.665-10.317-6.419-11.148-7.614
			c-0.727-1.045-2.091-1.047-2.818,0c-9.762,14.049-20.76,3.962-32.825,8.372c-0.552,0.202-1.023,0.786-0.801,1.41
			c0.261,0.733,0.522,1.466,0.782,2.198c0.064,0.18,0.362,0.279,0.456,0.061c3.089-7.158,17.139,1.375,23.445,2.17
			c2.492,0.314,5.641-4.091,6.859-5.511c7.518-8.769,4.623,5.376,14.306,5.376c1.231,0,2.827-1.199,3.363-2.268
			c3.776-7.543,9.599-2.946,14.365-4.936c9.142-3.814,15.887-2.878,25.348-1.365c2.129,0.34,4.604,1.059,6.68,0.174
			C144.399,103.189,143.508,101.391,142.354,101.273z"/>
		<path d="M139.396,138.708c-8.626,0.649-16.734,0.784-25.148-1.675c-3.088-0.903-6.777-1.92-10.023-1.026
			c-9.394,2.584-2.215,5.218-12.916,2.274c-0.651-0.18-9.974-0.159-10.248-0.551c-0.745-1.061-2.203-2.516-3.564-2.422
			c-2.476,0.17-2.438,0.225-4.391,1.834c-10.403,8.567-12.284,0.377-16.085-7.119c-0.591-1.166-2.088-0.662-2.489,0.326
			c-2.659,6.562-3.876,12.576-4.09,19.586c-0.038,1.26,1.835,1.225,1.934,0c0.587-7.26,1.837-19.354,6.893-8.471
			c0.692,1.49,2.109,2.658,3.678,3.09c8.015,2.205,12.435-9.354,18.116-1.195c0.475,0.683,1.447,1.11,2.217,0.582
			c4.759,0.91,9.518,1.819,14.277,2.729c0.983,0.829,2.335,0.499,2.768-0.731c3.372-9.576,31.088-3.322,39.069-4.002
			C141.45,141.761,141.479,138.551,139.396,138.708z"/>
	</g>
</g>
<g>
</g>
<g>
</g>
<g>
</g>
<g>
</g>
<g>
</g>
<g>
</g>
<g>
</g>
<g>
</g>
<g>
</g>
<g>
</g>
<g>
</g>
<g>
</g>
<g>
</g>
<g>
</g>
<g>
</g>
</svg>
