<?xml version="1.0" encoding="iso-8859-1"?>
<!-- Generator: Adobe Illustrator 16.0.0, SVG Export Plug-In . SVG Version: 6.00 Build 0)  -->
<!DOCTYPE svg PUBLIC "-//W3C//DTD SVG 1.1//EN" "http://www.w3.org/Graphics/SVG/1.1/DTD/svg11.dtd">
<svg version="1.1" id="Capa_1" xmlns="http://www.w3.org/2000/svg" xmlns:xlink="http://www.w3.org/1999/xlink" x="0px" y="0px"
	 width="188.495px" height="188.495px" viewBox="0 0 188.495 188.495" style="enable-background:new 0 0 188.495 188.495;"
	 xml:space="preserve">
<g>
	<g>
		<path d="M113.489,60.81c-0.342-0.066-0.661-0.073-0.972-0.055c2.738-6.27,3.319-13.708,3.954-20.375
			c0.252-2.643,1.073-6.961,0.617-10.551c8.506,0.102,27.747-4.308,19.974-16.843C129.037,0.041,111.279,0.932,97.65,0.816
			C87.471,0.729,67.438-2.899,59.633,5.88c-9.741,10.959,3.3,19.726,13.656,22.158c-2.351,12.058-3.038,24.84-0.371,36.884
			c-0.529-0.705-1.426-1.119-2.641-0.794c-8.092,2.166-18.878,6.233-24.488,12.897c-0.689-0.461-1.766,0.237-1.224,1.065
			c0.062,0.095,0.136,0.18,0.199,0.275c-2.948,4.216-3.844,9.385-0.946,15.668c7.849,17.019,36.802,21.644,52.836,22.519
			c15.31,0.835,43.576-0.305,48.59-19.142C151.367,74.403,133.169,64.604,113.489,60.81z M138.759,83.168
			c-4.889-4.571-10.468-8.815-16.424-12.762C129.7,72.942,136.327,76.904,138.759,83.168z M126.646,19.881
			c-2.064-1.621-4.373-3.018-6.45-4.511c-3.248-2.332-6.473-4.701-9.662-7.113c4.017,0.281,7.972,0.926,11.894,1.832
			C128.254,10.774,129.653,14.042,126.646,19.881z M106.02,8.041c3.562,3.067,7.245,5.972,10.955,8.858
			c2.266,1.761,4.433,3.849,6.723,5.695c-1.97,0.302-3.942,0.447-5.924,0.329c0.079-0.497-0.026-1.036-0.383-1.459
			c-3.158-3.744-8.859-6.105-13-8.643c-2.728-1.672-5.451-3.355-8.181-5.027C99.48,7.867,102.75,7.929,106.02,8.041z M65.642,10.106
			C68.809,7.958,73.734,7.953,77.4,7.66c4.185-0.336,8.413-0.207,12.621-0.052c3.654,2.398,7.316,4.782,10.951,7.208
			c4.023,2.684,8.387,6.688,12.971,8.715c-0.197,0.175-0.373,0.371-0.518,0.59c-2.947-1.145-4.791,2.093-4.008,4.56
			C98.347,21.44,86.799,14.299,75.192,8.242c-1.242-0.648-2.31,1.157-1.1,1.882c12.359,7.393,23.746,17.471,36.626,23.941
			c0.021,0.236,0.049,0.47,0.065,0.708c0.112,1.64,0.141,3.283,0.14,4.927c-15.91-8.919-30.862-18.535-45.455-29.453
			C65.536,10.2,65.573,10.152,65.642,10.106z M63.88,11.731c14.014,12.343,29.583,24.229,46.457,32.166
			c0.177,0.083,0.346,0.098,0.517,0.132c-0.084,3.162-0.219,6.449-0.657,9.678c-4.555-3.834-11.408-6.604-16.162-9.466
			c-4.824-2.903-9.575-6.008-14.845-7.975c0.41-2.609,0.877-5.204,1.42-7.769c0.652-3.081-2.302-4.961-4.61-4.487
			C72.805,22.839,59.493,17.285,63.88,11.731z M109.438,57.803c-0.284,1.19-0.614,2.363-1.033,3.495
			c-0.09,0.24-0.111,0.465-0.093,0.678c-10.145-5.577-20.665-10.417-30.374-14.583c0.209-3.464,0.606-6.919,1.125-10.349
			c3.5,3.542,7.814,6.168,11.979,8.901c3.421,2.246,6.851,4.478,10.279,6.713C103.872,54.323,106.54,56.617,109.438,57.803z
			 M59.432,99.406c-4.68-2.649-10.11-6.944-10.663-12.73c-0.086-0.892,0.058-1.745,0.31-2.578
			c3.296,3.963,6.971,7.588,10.912,10.967c4.455,3.819,10.333,9.131,16.253,11.32C70.392,104.693,64.72,102.4,59.432,99.406z
			 M99.442,109.697c-0.676,0.006-1.352-0.037-2.027-0.049c0.859-0.488,1.233-1.716,0.399-2.572
			c-4.539-4.668-11.462-7.756-16.765-11.603c-7.912-5.74-15.511-12.024-22.79-18.547c-1.001-0.896-2.393,0.484-1.475,1.476
			c6.191,6.697,12.909,12.743,20.002,18.471c5.391,4.354,11.974,10.768,18.777,12.731c-5.527-0.223-11.035-1.049-16.412-2.394
			c1.297,0.22,2.666-1.424,1.424-2.462c-4.476-3.741-10.44-6.043-15.292-9.415c-5.497-3.82-10.765-8.259-15.289-13.282
			c2.572-4.103,8.679-7.366,14.015-9.714c0.011,0.012,0.013,0.025,0.025,0.037c8.342,8.312,17.314,15.958,26.516,23.295
			c5.985,4.772,12.322,10.313,19.287,13.849C105.999,109.691,102.38,109.67,99.442,109.697z M115.439,109.111
			c-0.052-0.316-0.186-0.619-0.462-0.855c-6.78-5.796-14.963-10.195-22.144-15.546c-9.093-6.777-17.721-14.141-26.436-21.388
			c2.126-0.879,4.001-1.596,5.273-2.132c0.136-0.058,0.238-0.143,0.358-0.213c18.67,10.308,33.83,24.657,49.997,38.344
			c0.338,0.285,0.696,0.414,1.057,0.479C120.612,108.41,118.032,108.84,115.439,109.111z M137.678,97.498
			c-2.233,5.143-7.051,8.078-12.728,9.787c0.903-0.741,1.28-2.047,0.137-3.023C109.588,91.021,93.56,76.719,74.898,68.049
			c1.731,0.517,4.026-0.949,3.66-3.355c-0.261-1.722-0.44-3.453-0.577-5.187c9.336,6.091,18.433,12.985,27.661,19.29
			c5.781,3.95,11.529,7.947,17.255,11.975c3.823,2.689,7.896,6.771,12.42,8.16c1.432,0.439,2.864-1.3,1.993-2.592
			c-5.953-8.83-20.916-15.269-29.632-21.028c-9.623-6.358-19.253-13.055-29.8-17.589c-0.145-2.625-0.152-5.258-0.059-7.89
			c10.403,5.19,20.594,10.719,30.439,16.934c10.826,6.833,20.488,15.628,31.455,22.104C139.659,91.451,139.07,94.293,137.678,97.498
			z"/>
		<path d="M108.539,124.611c-8.438-2.1-16.494-1.352-25-0.019c-2.372,0.372-2.847,2.558-2.067,4.287
			c-4.433,3.653-1.293,16.344-0.646,20.728c0.308,2.088,0.642,4.193,0.993,6.303c-0.004,0.023,0.004,0.024,0.008,0.048
			c1.706,10.263,4.015,20.675,7.987,30.194c1.22,2.926,5.256,3.314,6.34,0c6.169-18.838,10.952-38.008,14.695-57.469
			C111.185,126.947,110.39,125.072,108.539,124.611z M92.791,174.72c-1.861-6.228-3.29-12.619-4.625-18.907
			c-1.297-6.111-2.418-12.271-3.05-18.488c-0.199-1.957,0.218-4.274-0.143-6.289c0.113-0.008,0.22-0.002,0.337-0.021
			c6.467-1.032,12.201-1.667,18.446-0.635C100.788,145.339,97.174,160.124,92.791,174.72z"/>
	</g>
</g>
<g>
</g>
<g>
</g>
<g>
</g>
<g>
</g>
<g>
</g>
<g>
</g>
<g>
</g>
<g>
</g>
<g>
</g>
<g>
</g>
<g>
</g>
<g>
</g>
<g>
</g>
<g>
</g>
<g>
</g>
</svg>
