<?xml version="1.0" encoding="iso-8859-1"?>
<!-- Generator: Adobe Illustrator 16.0.0, SVG Export Plug-In . SVG Version: 6.00 Build 0)  -->
<!DOCTYPE svg PUBLIC "-//W3C//DTD SVG 1.1//EN" "http://www.w3.org/Graphics/SVG/1.1/DTD/svg11.dtd">
<svg version="1.1" id="Capa_1" xmlns="http://www.w3.org/2000/svg" xmlns:xlink="http://www.w3.org/1999/xlink" x="0px" y="0px"
	 width="193.655px" height="193.655px" viewBox="0 0 193.655 193.655" style="enable-background:new 0 0 193.655 193.655;"
	 xml:space="preserve">
<g>
	<g>
		<path d="M180.001,4.772c0.242-0.272,0.358-0.638,0.227-1.062c-1.63-5.214-16.309-3.417-20.134-3.39
			c-3.477,0.025-18.424-1.322-22.546,1.838c-0.297,0.007-0.604,0.078-0.922,0.321c-11.654,8.904-23.872,16.987-36.041,25.138
			c-0.005-0.011-0.011-0.022-0.016-0.034c-0.26-0.552-1.182-0.16-0.984,0.415c0.027,0.079,0.062,0.154,0.089,0.232
			c-2.42,1.622-4.843,3.241-7.254,4.878c-0.195-0.506-1.088-0.395-1.021,0.191c0.017,0.153,0.058,0.299,0.078,0.451
			c-6.843,4.661-13.627,9.41-20.222,14.434C53.43,61.765,32.332,70.306,15.1,84.411c-0.832,0.681-0.572,1.873,0,2.588
			c5.164,6.456,15.815,23.078,25.673,24.467c-6.97,5.142-12.989,12.583-18.034,19.368c-0.318-0.133-0.772,0.07-0.744,0.47
			c0.011,0.148,0.043,0.295,0.055,0.442c-3.769,4.964-11.252,14.307-8.552,20.762c-1.383,6.623,2.621,17.41,5.902,21.951
			c7.085,9.806,21.471,12.942,31.981,18.212c0.058,0.028,0.103,0.069,0.166,0.081c0.451,0.228,0.938,0.436,1.373,0.673
			c0.818,0.445,1.587,0.196,2.097-0.317c0.258,0.044,0.534,0.035,0.829-0.104c15.449-7.288,22.053-24.377,33.157-36.516
			c0.476,0.16,1.006-0.352,0.911-0.877c-0.004-0.021-0.011-0.041-0.015-0.062c0.359-0.375,0.707-0.763,1.077-1.127
			c12.144,11.139,27.488,17.062,41.56,25.409c0.987,0.586,2.392,0.055,2.668-1.085c7.646-31.51,16.3-62.739,25.096-93.943
			c7.271-25.793,7.471-53.773,20.221-77.867C180.986,6.057,180.62,5.24,180.001,4.772z M138.446,5.591
			c0.108-0.083,0.128-0.199,0.206-0.294c1.199,3.395,2.903,6.613,4.836,9.706c-1.644,0.185-3.267,0.529-4.875,0.972
			c-0.887-1.051-2.062-1.961-2.976-2.895c-1.008-1.028-1.954-2.118-2.859-3.241C134.675,8.427,136.594,7.018,138.446,5.591z
			 M131.672,10.668c0.723,1.046,1.484,2.063,2.308,3.048c0.751,0.9,1.578,1.988,2.494,2.926c-1.247,0.426-2.487,0.893-3.711,1.439
			c-0.533-0.59-1.108-1.151-1.562-1.711c-0.896-1.107-1.762-2.244-2.646-3.365C129.603,12.229,130.625,11.445,131.672,10.668z
			 M127.509,13.789c0.79,1.202,1.566,2.413,2.386,3.59c0.333,0.478,0.69,1.033,1.074,1.576c-0.635,0.313-1.274,0.604-1.902,0.943
			c-1.506-1.312-2.765-2.772-3.817-4.415C126.013,14.92,126.748,14.352,127.509,13.789z M124.135,16.303
			c0.822,1.746,1.902,3.498,3.263,4.525c-1.353,0.782-2.693,1.605-4.012,2.478c-0.388-0.405-0.792-0.797-1.145-1.202
			c-0.779-0.898-1.479-1.853-2.139-2.836C121.454,18.281,122.789,17.291,124.135,16.303z M119.169,19.949
			c0.516,0.86,1.057,1.705,1.623,2.534c0.367,0.535,0.761,1.162,1.202,1.745c-1.063,0.731-2.119,1.479-3.159,2.246
			c-0.716-0.772-1.503-1.395-2.142-2.274c-0.389-0.535-0.699-1.122-0.979-1.722C116.874,21.638,118.014,20.791,119.169,19.949z
			 M114.703,23.213c0.58,1.688,1.459,3.344,2.809,4.246c-0.894,0.674-1.783,1.352-2.657,2.038c-0.897-1.461-2.012-2.79-2.927-4.262
			C112.859,24.564,113.773,23.886,114.703,23.213z M110.776,26.07c0.682,1.646,1.608,3.235,2.723,4.5
			c-0.937,0.747-1.875,1.495-2.789,2.236c-0.066-0.067-0.114-0.153-0.208-0.191c-0.374-0.155-1.216-1.357-1.56-1.742
			c-0.628-0.704-1.179-1.463-1.711-2.235C108.423,27.788,109.587,26.922,110.776,26.07z M105.979,29.542
			c0.86,1.715,2.088,3.593,3.53,4.234c-1.209,0.984-2.407,1.962-3.57,2.899c-0.639-1.294-1.741-2.443-2.498-3.656
			c-0.236-0.379-0.44-0.78-0.662-1.169C103.855,31.086,104.906,30.307,105.979,29.542z M101.531,32.744
			c0.171,0.364,0.322,0.735,0.504,1.096c0.632,1.249,1.455,2.951,2.697,3.796c-0.355,0.282-0.714,0.572-1.065,0.847
			c-0.478,0.375-0.962,0.722-1.44,1.091c-0.004-0.271-0.022-0.548-0.051-0.828c-0.093-0.92-1.315-0.908-1.422,0
			c-0.021,0.186-0.069,0.348-0.1,0.523c-0.771-1.433-1.504-2.872-2.145-4.357C99.527,34.196,100.517,33.46,101.531,32.744z
			 M97.163,35.858c0.749,1.911,1.685,3.758,2.582,5.594c-1.043,0.786-2.081,1.596-3.126,2.369c0.155-0.359,0.048-0.843-0.406-1.005
			c-0.303-0.108-0.754-1.239-0.908-1.512c-0.475-0.838-0.825-1.748-1.167-2.645c-0.068-0.179-0.103-0.372-0.168-0.552
			C95.038,37.364,96.096,36.606,97.163,35.858z M92.621,39.046c0.208,0.701,0.377,1.41,0.635,2.099
			c0.464,1.241,1.182,3.057,2.765,3.081c0.038,0,0.053-0.028,0.088-0.032c-1.317,0.97-2.634,1.943-3.955,2.898
			c-0.493-0.781-1.175-1.491-1.681-2.22c-0.675-0.973-1.29-1.988-1.918-2.994C89.916,40.944,91.263,39.987,92.621,39.046z
			 M87.391,42.684c0.486,1.04,1.006,2.062,1.588,3.063c0.466,0.802,0.974,1.743,1.661,2.44c-1.023,0.735-2.043,1.488-3.068,2.216
			c-0.578-2.01-1.888-3.96-3.333-5.541C85.293,44.146,86.338,43.404,87.391,42.684z M83.371,45.455
			c0.543,0.857,1.051,1.738,1.498,2.627c0.546,1.087,0.857,2.238,1.231,3.368c-1.27,0.897-2.533,1.821-3.806,2.708
			c-0.15-0.241-0.307-0.474-0.47-0.712c-0.453-0.658-0.834-1.373-1.238-2.062c-0.562-0.959-1.159-1.894-1.791-2.805
			C80.326,47.556,81.844,46.489,83.371,45.455z M78.04,49.09c0.91,1.662,1.686,3.396,2.521,5.096
			c0.126,0.257,0.313,0.547,0.524,0.82c-1.59,1.101-3.164,2.248-4.76,3.333c-0.544-0.808-0.973-1.872-1.276-2.49
			c-0.587-1.199-1.109-2.416-1.783-3.536C74.861,51.261,76.446,50.155,78.04,49.09z M72.629,52.737
			c0.52,1.54,0.975,3.128,1.631,4.645c0.214,0.494,0.489,1.178,0.85,1.783c-0.853,0.577-1.701,1.166-2.556,1.739
			c-0.112-0.285-0.215-0.551-0.262-0.657c-0.416-0.937-0.788-1.889-1.237-2.812c-0.465-0.956-1.069-1.891-1.995-2.313
			C70.253,54.347,71.438,53.521,72.629,52.737z M68.524,55.478c1.855,0.809,1.707,4.378,2.614,6.376
			c-0.963,0.641-1.919,1.297-2.885,1.933c-1.426-1.783-2.51-3.777-3.454-5.846C66.042,57.144,67.281,56.284,68.524,55.478z
			 M63.785,58.59c0.429,1.198,0.904,2.378,1.45,3.53c0.428,0.901,0.918,1.905,1.699,2.535c-1.326,0.869-2.64,1.755-3.972,2.616
			c-0.133-0.283-0.458-1.055-0.55-1.24c-0.432-0.871-0.808-1.771-1.181-2.668c-0.341-0.818-0.721-1.624-1.092-2.433
			C61.354,60.165,62.57,59.367,63.785,58.59z M56.395,63.304c0.975-0.606,1.951-1.242,2.927-1.855
			c0.294,1.147,0.593,2.292,0.981,3.434c0.252,0.742,0.61,2.381,1.33,3.252c-1.004,0.645-1.994,1.309-3.003,1.95
			c-0.328-0.782-0.734-1.543-1.059-2.291c-0.597-1.376-1.17-2.772-1.709-4.181C56.027,63.515,56.256,63.39,56.395,63.304z
			 M54.842,64.205c0.378,1.226,0.789,2.443,1.211,3.651c0.336,0.961,0.638,2.137,1.119,3.163c-0.993,0.629-1.969,1.276-2.967,1.902
			c-0.004,0.002-0.007-0.001-0.01,0.001c-0.649,0.319-1.453-5.011-1.801-7.379C53.318,65.046,54.129,64.604,54.842,64.205z
			 M51.422,66.062c0.114,2.202,0.348,6.202,1.54,7.647c-0.747,0.466-1.477,0.948-2.227,1.412c-0.227-0.172-0.574-0.189-0.764,0.11
			c-0.015,0.023-0.009,0.029-0.021,0.05c-0.079-0.174-0.161-0.347-0.226-0.53c-0.306-0.859-0.51-1.758-0.735-2.64
			c-0.349-1.374-0.714-2.768-1.248-4.089C49.072,67.312,50.284,66.668,51.422,66.062z M46.929,68.455
			c0.709,2.259,0.876,4.694,1.529,6.966c0.101,0.351,0.266,0.617,0.442,0.846c-1.041,0.641-2.054,1.3-3.1,1.937
			c-0.336-1.078-0.549-2.263-0.756-3.273c-0.343-1.667-0.583-3.36-0.756-5.057C45.193,69.385,46.069,68.915,46.929,68.455z
			 M43.249,70.439c0.12,1.618,0.316,3.233,0.575,4.828c0.17,1.052,0.272,2.543,0.762,3.686c-1.088,0.659-2.141,1.339-3.236,1.996
			c-0.426-1.017-0.577-2.389-0.737-3.228c-0.339-1.79-0.536-3.628-0.669-5.453C41.058,71.642,42.159,71.035,43.249,70.439z
			 M39.201,72.691c-0.018,1.971,0.081,3.931,0.348,5.892c0.12,0.884,0.277,2.07,0.734,3.006c-1.015,0.607-2.016,1.219-3.037,1.824
			c0.006-3.121-0.125-6.273-0.411-9.364C37.619,73.591,38.411,73.141,39.201,72.691z M25.713,93.792
			c-1.335-1.447-2.664-2.901-3.962-4.407c-1.829-2.123,0.528-5.189,4.723-8.498C25.86,85.109,25.761,89.469,25.713,93.792z
			 M26.85,95.038c0.602-4.9,0.852-9.891,1.173-14.778c0.012-0.18-0.065-0.316-0.161-0.432c0.832-0.611,1.702-1.226,2.628-1.844
			c-0.563,7.13,0.275,14.73,1.125,21.963C30.001,98.34,28.415,96.704,26.85,95.038z M32.162,76.887
			c1.074-0.686,2.19-1.37,3.324-2.048c0.009,3.052,0.462,6.138,0.731,9.186c-1.133,0.669-2.249,1.343-3.39,2.01
			C32.705,82.957,32.515,79.896,32.162,76.887z M32.919,88.542c21.155-8.112,39.995-21.057,57.754-34.955
			c16.791-13.14,32.93-29.048,53.669-35.554c-0.105,0.153-0.21,0.306-0.278,0.513l-0.468,1.43c-0.305,0.927,0.505,1.718,1.352,1.819
			c-0.811,0.125-1.766,0.503-2.338,3.541c-0.938,4.984-1.859,9.974-2.728,14.971c-0.413,2.375-0.899,4.745-1.371,7.116
			c-0.024,0.045-0.024,0.091-0.028,0.144c-2.34,11.719-5.294,23.382-8.268,34.919c-3.061,11.87-6.089,23.715-9.73,35.424
			c-1.469,4.722-3.218,9.311-5.138,13.842c-0.248-0.323-0.774,0.015-0.594,0.42c0.075,0.167,0.131,0.341,0.202,0.508
			c-0.948,2.204-1.925,4.399-2.955,6.579c-3.141,6.646-22.066-6.314-24.467-8.316c-0.208-0.173-0.428-0.265-0.65-0.316
			c-0.303-0.346-0.649-0.726-1.163-1.273c-0.637-0.68-1.908-0.719-2.539,0c-10.495,11.966-20.915,23.471-32.496,34.345
			c-2.969-2.672-7.83-4.525-11.089-6.628c-4.834-3.118-9.757-6.309-14.989-8.736c1.072-0.375,1.988-1.056,2.669-2.002
			c5.957-5.402,10.643-12.11,15.317-18.608c2.662-3.699,5.318-7.396,8.154-10.965c1.971-2.479,4.702-4.518,6.308-7.219
			c0.301-0.508,0.193-1.118-0.136-1.55c0.182-0.449,0.175-0.997-0.181-1.381c-2.383-2.553-5.825-4.292-8.672-6.303
			c-2.738-1.934-5.452-3.962-8.024-6.112c-2.049-1.711-4.453-4.757-7.122-5.562C32.921,88.603,32.92,88.572,32.919,88.542z
			 M47.104,115.15c-0.805,1.111-1.571,2.231-2.294,3.286c0.005-1.814-0.076-3.625-0.248-5.431c1.183-0.919,0.724-2.576-0.31-3.065
			c-0.001-0.008-0.001-0.017-0.003-0.024c-0.405-2.993-0.577-6.373-1.264-9.451c0.956,0.821,1.945,1.628,2.95,2.413
			c-0.331-0.157-0.797-0.062-0.872,0.355C44.392,106.997,46.103,111.444,47.104,115.15z M50.409,111.136
			c-0.872,0.905-1.71,1.885-2.497,2.918c-0.199-1.28-0.433-2.554-0.671-3.829c-0.432-2.313-0.469-4.711-0.986-6.991
			c-0.024-0.106-0.098-0.176-0.169-0.245c0.77,0.599,1.57,1.123,2.36,1.677c-0.012,0.088-0.051,0.165-0.014,0.268
			C49.217,107.057,50.004,108.992,50.409,111.136z M50.372,105.994c1.282,0.804,2.577,1.536,3.875,2.114
			c-0.998,0.517-1.934,1.244-2.835,2.062C51.254,108.732,50.921,107.317,50.372,105.994z M36.595,104.785
			c-1.178-1.053-2.258-2.2-3.392-3.295c-0.09-3.502-0.136-7.032-0.207-10.573c0.066,0.087,0.089,0.185,0.164,0.265
			c0.868,0.924,1.802,1.786,2.712,2.671c-0.306,0.09-0.565,0.309-0.532,0.698c0.204,2.369,0.855,4.701,1.17,7.061
			C36.649,102.654,36.618,103.722,36.595,104.785z M37.928,105.916c0.195-1.168,0.125-2.445,0.089-3.485
			c-0.083-2.431-0.437-5.054-1.002-7.453c0.383,0.365,0.746,0.751,1.131,1.114c0.868,0.817,1.798,1.674,2.754,2.539
			c-0.174,2.904,0.701,5.999,1.189,8.826c0.125,0.726,0.217,1.457,0.334,2.185C40.87,108.445,39.395,107.184,37.928,105.916z
			 M43.105,114.187c0.249,1.932,0.455,3.867,0.617,5.81c-0.182,0.258-0.37,0.53-0.547,0.771c-0.588,0.799-1.17,1.604-1.756,2.404
			c-0.228-0.869-0.506-1.727-0.671-2.612c-0.252-1.356-0.277-2.748-0.474-4.104C41.189,115.649,42.152,114.926,43.105,114.187z
			 M38.775,117.854c0.095,2.242,0.823,4.581,1.672,6.648c-1.308,1.792-2.618,3.582-3.926,5.373c0.056-2.905-0.056-6.19-0.881-8.964
			C36.651,119.85,37.713,118.852,38.775,117.854z M34.443,122.184c0.161,0.905,0.386,1.809,0.545,2.697
			c0.361,2.015,0.623,4.029,0.746,6.071c-0.696,0.947-1.378,1.906-2.082,2.849c-0.375-3.015-0.676-6.197-1.479-9.09
			C32.912,123.858,33.676,123.019,34.443,122.184z M27.733,130.029c1.049-1.307,2.142-2.628,3.251-3.942
			c0.325,2.952,1.127,5.989,1.841,8.809c-0.98,1.293-1.914,2.622-2.935,3.883c-1.284-2.767-1.878-5.508-2.404-8.446
			C27.561,130.237,27.66,130.12,27.733,130.029z M26.156,131.958c0.442,2.703,1.654,5.364,3.005,7.666
			c-1.368,1.657-2.756,3.298-4.234,4.868c0.119-3.235,0.072-6.851-0.746-10.107C24.871,133.521,25.536,132.711,26.156,131.958z
			 M22.708,136.289c0.58,3.082,1.299,6.162,1.516,9.307c0.001,0.012,0.018,0.007,0.02,0.019c-0.329,0.284-0.682,0.536-1.114,0.705
			c-0.874-2.173-1.813-4.321-2.918-6.41c-0.016-0.031-0.05-0.031-0.07-0.056C20.96,138.618,21.833,137.435,22.708,136.289z
			 M21.254,171.286c-2.79-3.812-3.42-9.943-4.183-14.472c-0.097-0.579-1.148-6.961-1.122-6.999c0.063-0.094,0.017-0.187-0.036-0.267
			c0.153-1.382,0.628-2.818,1.234-4.261c1.783,10.015,3.581,21.44,8.392,30.442C23.967,174.4,22.488,172.971,21.254,171.286z
			 M28.77,178.187c-0.007-0.055,0.029-0.092,0.01-0.149c-3.639-11.523-7.464-22.909-10.809-34.55
			c0.457-0.888,1.023-1.76,1.572-2.634c0.795,1.983,1.514,3.993,2.166,6.026c-0.419,0.461-0.207,1.342,0.411,1.658
			c-0.254,0.492-0.192,1.123,0.463,1.512c0.031,0.019,0.06,0.04,0.091,0.059c1.449,4.949,2.683,9.969,4.044,14.932
			c1.312,4.787,2.726,10.401,5.273,15.068C30.886,179.505,29.807,178.871,28.77,178.187z M35.924,182.073
			c-5.092-9.58-7.366-20.199-10.81-30.393c1.081,0.681,2.136,1.4,3.204,2.101c3.321,9.467,5.395,19.59,9.032,28.913
			C36.877,182.483,36.392,182.291,35.924,182.073z M39.557,183.656c-1.645-9.7-5.7-19.666-9.589-28.793
			c1.49,0.992,2.979,1.985,4.466,2.982c1.98,5.132,3.628,10.329,5.107,15.631c1.004,3.601,1.696,7.806,3.132,11.468
			C41.634,184.518,40.593,184.094,39.557,183.656z M45.421,186.078c-0.98-4.398-2.839-8.821-4.193-13.067
			c-1.5-4.7-3.007-9.464-5.023-13.983c0.945,0.632,1.887,1.268,2.835,1.894c1.051,0.693,2.317,1.668,3.679,2.621
			c0.784,8.04,3.337,16.465,6.357,24.09C47.87,187.108,46.66,186.586,45.421,186.078z M54.916,190.479
			c-0.068-0.049-0.105-0.111-0.185-0.155c-0.871-0.471-1.811-0.895-2.729-1.332c-2.109-8.298-5.833-16.104-7.824-24.479
			c1.571,0.994,3.216,1.839,4.798,2.102c0.094,0.108,0.234,0.161,0.362,0.229c1.122,4.788,1.883,9.676,2.93,14.473
			c0.485,2.225,0.931,6.863,2.9,8.985C55.082,190.358,55.004,190.423,54.916,190.479z M56.582,189.309
			c-0.478-0.998-0.672-2.497-0.92-3.315c-0.757-2.506-1.438-5.027-2.09-7.562c-0.998-3.881-2.003-7.784-3.205-11.616
			c0.082-0.052,0.163-0.105,0.248-0.152c0.057-0.009,0.117,0.007,0.173-0.003c0.368-0.062,0.593-0.292,0.754-0.567
			c0.623-0.357,1.202-0.788,1.809-1.171c2.345,7.165,2.564,15.248,5.985,21.866c0.029,0.057,0.08,0.059,0.116,0.102
			C58.51,187.708,57.615,188.569,56.582,189.309z M60.575,185.944c-1.339-7.152-3.371-14.872-6.173-21.701
			c1.558-1.031,3.063-2.149,4.531-3.323c0.974,3.426,1.96,6.848,3.015,10.25c0.913,2.944,1.533,7.005,3.585,9.408
			C63.983,182.456,62.37,184.278,60.575,185.944z M66.567,179.285c-0.31-2.863-2.004-5.979-2.942-8.577
			c-1.275-3.531-2.493-7.083-3.694-10.64c0.821-0.681,1.568-1.468,2.365-2.185c1.802,6.336,3.042,13.125,6.164,18.88
			C67.835,177.609,67.217,178.46,66.567,179.285z M69.711,175.056c-2.214-5.989-4.026-12.177-6.433-18.082
			c1.157-1.074,2.253-2.229,3.369-3.361c0.985,3.205,2.141,6.357,3.339,9.487c0.673,1.758,1.39,4.946,3.384,5.652
			c0.758,0.268,1.11-0.704,0.705-1.212c-3.203-4.016-4.846-9.884-6.65-14.703c1.041-1.072,2.048-2.184,3.06-3.288
			c0.483,2.779,1.03,5.546,1.728,8.277c0.707,2.766,1.566,6.286,3.344,8.766C73.602,169.404,71.698,172.264,69.711,175.056z
			 M76.815,164.805c-0.948-2.475-2.232-4.88-3.038-7.409c-0.931-2.918-1.642-5.893-2.336-8.873c0.876-0.97,1.709-1.967,2.568-2.95
			c0.425,3.071,1.094,6.093,1.897,9.092c0.647,2.418,1.298,5.464,2.768,7.642C78.049,163.134,77.419,163.958,76.815,164.805z
			 M79.898,160.694c-0.697-2.171-1.838-4.312-2.569-6.423c-1.083-3.125-1.937-6.349-2.529-9.605c0.789-0.91,1.538-1.802,2.32-2.711
			c0.513,2.791,1.074,5.575,1.656,8.349c0.559,2.663,0.678,6.561,2.487,8.689c0.007,0.009,0.021,0.009,0.028,0.017
			C80.823,159.568,80.35,160.123,79.898,160.694z M82.361,157.749c0.021-2.576-1.277-5.524-1.875-7.917
			c-0.761-3.042-1.49-6.1-2.293-9.135c0.733-0.858,1.454-1.698,2.188-2.558c0.872,5.83,1.946,11.876,4.356,17.146
			C83.931,156.093,83.115,156.893,82.361,157.749z M86.135,153.899c-1.601-5.735-3.165-11.418-4.501-17.223
			c0.331-0.387,0.659-0.771,0.992-1.159c0.994,3.333,1.791,6.721,2.548,10.118c0.518,2.326,0.94,5.098,1.847,7.528
			C86.734,153.417,86.415,153.64,86.135,153.899z M89.714,150.925c-0.307,0.223-0.568,0.486-0.865,0.719
			c-0.701-2.156-1.516-4.311-2.076-6.45c-0.955-3.651-1.862-7.313-3.129-10.867c0.26-0.305,0.527-0.617,0.783-0.916
			c0.411,0.5,0.822,1,1.233,1.5c0.521,0.778,1.334,0.908,2.028,0.681c0.381,3.155,0.98,6.294,1.711,9.373
			c0.396,1.668,0.812,3.859,1.551,5.779C90.561,150.621,90.136,150.62,89.714,150.925z M97.316,155.701
			c-1.043-3.159-3.784-14.778-4.075-16.402c-0.128-0.713-1.352-0.551-1.269,0.172c0.54,4.731,1.451,9.486,2.656,14.091
			c0.021,0.079,0.059,0.21,0.088,0.318c-0.204-0.152-0.42-0.283-0.624-0.438c0.087-0.166,0.117-0.362,0.03-0.587
			c-2.156-5.604-3.841-11.161-5.16-16.971c2.619,1.955,5.466,3.568,8.39,5.051c-0.302,0.024-0.595,0.225-0.573,0.578
			c0.308,4.977,0.997,10.391,2.361,15.388C98.536,156.495,97.915,156.118,97.316,155.701z M101.781,158.634
			c-1.248-5.763-2.795-11.442-3.816-17.283c-0.014-0.073-0.071-0.099-0.104-0.153c1.051,0.524,2.137,0.982,3.208,1.471
			c-0.134,1.587,1.515,5.062,1.79,5.808c1.602,4.348,3.381,8.77,4.313,13.332C105.367,160.763,103.542,159.75,101.781,158.634z
			 M109.066,162.923c0.039-0.104,0.12-0.184,0.103-0.314c-0.508-3.85-2.13-7.574-3.555-11.158c-0.248-0.624-3.126-6.512-3.823-8.451
			c2.001,0.896,4.027,1.711,6.05,2.537c0.32,4.217,1.37,8.393,2.52,12.444c0.555,1.957,1.139,4.478,2.033,6.736
			C111.292,164.113,110.158,163.54,109.066,162.923z M115.215,166.239c-0.915-2.926-2.319-5.802-3.248-8.699
			c-1.211-3.78-2.194-7.614-2.947-11.508c0.5,0.2,0.993,0.432,1.493,0.627c0.728,0.284,1.685-0.178,2.041-0.831
			c0.069-0.13,0.132-0.264,0.202-0.393c3.379,7.229,3.319,15.877,6.548,23.01C117.929,167.719,116.58,166.971,115.215,166.239z
			 M122.264,169.974c-1.406-5.018-3.043-9.993-4.402-15.04c-1.021-3.791-2.284-7.586-4.393-10.881
			c1.161-2.19,2.271-4.417,3.346-6.668c4.066,11.487,5.723,23.924,10.808,34.906C126.196,171.895,124.459,171.086,122.264,169.974z
			 M129.424,172.565c-2.974-12.181-6.757-24.864-12.04-36.396c0.849-1.811,1.654-3.65,2.452-5.496
			c1.84,7.445,3.507,14.928,5.538,22.329c1.504,5.476,3.066,13.219,7.126,17.637C131.645,171.926,130.683,172.544,129.424,172.565z
			 M133.433,168.898c-4.911-13.027-9.167-26.033-13.065-39.416c0.536-1.26,0.983-2.577,1.496-3.851
			c3.513,6.442,5.377,13.694,7.324,20.741c1.485,5.376,2.693,12.051,6.099,16.751C134.645,165.552,134.051,167.466,133.433,168.898z
			 M136.12,159.98c-4.287-11.812-7.001-25.053-13.782-35.568c0.952-2.403,1.79-4.877,2.67-7.325
			c2.283,8.445,6.573,16.067,9.54,24.274c0.968,2.678,1.216,8.198,3.777,9.894c0.033,0.021,0.067,0.018,0.101,0.033
			C137.666,154.187,136.866,157.077,136.12,159.98z M139.048,148.943c-0.01-0.015-0.009-0.021-0.019-0.036
			c-0.382-1.077-0.729-2.165-1.076-3.256c-0.629-1.98-1.159-4.049-2.011-5.949c-3.47-7.747-7.7-15.377-10.179-23.504
			c-0.057-0.182-0.182-0.267-0.32-0.309c0.706-1.997,1.331-4.042,1.993-6.064c1.415,1.638,2.333,4.557,3.005,6.153
			c1.521,3.611,2.919,7.27,4.276,10.943c1.765,4.781,2.916,11.558,5.993,15.817C140.162,144.809,139.593,146.874,139.048,148.943z
			 M141.59,139.469c-1.559-5.851-4.886-11.982-7.028-17.281c-1.238-3.062-3.381-11.01-6.898-13.056
			c0.861-2.65,1.649-5.338,2.443-8.023c2.441,5.072,4.529,10.284,6.562,15.548c1.811,4.685,3.272,10.492,6.596,14.361
			c0.179,0.208,0.419,0.203,0.615,0.1C143.128,133.904,142.334,136.68,141.59,139.469z M144.123,130.231
			c-1.417-5.468-4.507-10.757-6.656-15.987c-2.05-4.987-4.236-9.936-6.907-14.621c0.47-1.618,0.895-3.255,1.343-4.883
			c1.583,5.228,4.418,10.432,6.612,15.234c0.854,1.871,4.236,11.914,7.296,14.1C145.256,126.128,144.679,128.176,144.123,130.231z
			 M146.397,121.94c-0.692-1.318-1.521-3.271-1.713-3.638c-1.795-3.416-3.509-6.876-5.198-10.346
			c-0.656-1.348-5.107-11.684-7.124-14.883c0.419-1.549,0.754-3.125,1.155-4.681c5.449,9.254,9.783,18.856,14.209,28.704
			C147.288,118.712,146.834,120.324,146.397,121.94z M148.602,113.901c-2.287-5.567-4.836-11.036-7.614-16.369
			c-1.859-3.569-3.974-6.987-6.188-10.344c-0.155-0.236-0.445-0.557-0.772-0.867c0.547-2.169,1.013-4.357,1.53-6.534
			c1.918,5.227,4.897,9.953,7.853,14.66c1.838,2.928,3.408,5.776,4.703,9c0.365,0.91,0.75,1.858,1.663,2.293
			c0.418,0.199,0.798,0.084,1.07-0.28l0.112-0.152C150.174,108.171,149.381,111.035,148.602,113.901z M151.167,104.546
			c-0.173-0.401-0.802-0.621-1.213-0.298c1.586-1.245-4.188-9.383-5.042-10.679c-3.321-5.045-6.402-10.053-8.942-15.541
			c0.459-1.963,0.864-3.933,1.304-5.899c4.52,9.999,8.909,20.263,14.454,29.686c0.041,0.07,0.107,0.067,0.156,0.12
			C151.647,102.804,151.407,103.675,151.167,104.546z M152.571,99.427c-4.664-9.755-9.815-19.38-14.94-28.908
			c0.344-1.562,0.655-3.122,0.989-4.684c2.852,5.465,5.411,11.085,8.019,16.667c1.932,4.136,3.941,9.142,7.036,12.772
			C153.315,96.664,152.958,98.054,152.571,99.427z M154.368,92.547c-5.396-9.314-10.061-18.94-15.412-28.306
			c0.37-1.752,0.715-3.497,1.074-5.247c2.769,4.569,5.608,9.095,8.404,13.646c2.228,3.626,5.994,8.237,7.608,12.605
			C155.509,87.695,154.96,90.136,154.368,92.547z M156.721,82.095c-1.637-3.041-4.288-6.241-5.288-7.805
			c-3.619-5.662-7.438-11.195-11.086-16.838c0.322-1.589,0.606-3.153,0.922-4.739c2.463,4.445,4.818,8.949,7.294,13.389
			c2.367,4.247,5.037,9.277,8.847,12.528C157.177,79.784,156.959,80.947,156.721,82.095z M157.819,76.565
			c-2.979-4.303-6.224-8.366-8.915-12.933c-2.451-4.158-4.832-8.353-7.332-12.479c0.257-1.302,0.492-2.585,0.745-3.885
			c4.403,2.135,7.425,8.153,9.714,11.99c1.762,2.953,3.762,8.986,6.998,10.602c0.022,0.011,0.05,0.004,0.074,0.012
			C158.678,72.107,158.257,74.344,157.819,76.565z M159.412,68.256c-1.883-4.347-5.051-8.641-7.624-12.521
			c-2.164-3.264-5.192-8.178-9.257-9.588c0.57-2.947,1.118-5.868,1.67-8.794c2.374,4.752,4.918,9.431,7.523,14.051
			c2.464,4.371,4.793,10.154,8.219,14.039C159.767,66.38,159.587,67.319,159.412,68.256z M160.553,62.216
			c-1.819-3.501-4.531-6.878-6.457-10.031c-3.308-5.413-6.52-10.867-9.596-16.41c0.28-1.486,0.534-2.928,0.81-4.407
			c1.614,4.085,5.44,8.284,7.612,11.599c2.891,4.416,6.263,8.931,8.697,13.715C161.261,58.526,160.903,60.372,160.553,62.216z
			 M162.265,53.428c-1.911-3.329-4.771-6.596-6.559-9.208c-2.209-3.227-4.418-6.457-6.659-9.661
			c-0.944-1.349-2.713-3.203-3.43-4.872c0.332-1.793,0.653-3.565,0.983-5.354c2.404,4.59,4.946,9.1,7.714,13.486
			c2.493,3.951,5.246,8.6,8.684,12.059C162.753,51.062,162.502,52.243,162.265,53.428z M163.597,47.007
			c-5.861-7.901-11.629-15.697-16.714-24.209c0.131-0.716,0.263-1.433,0.395-2.151c0.904,1.273,1.813,2.533,2.71,3.774
			c2.714,3.754,5.611,7.384,8.496,11.006c1.726,2.167,3.678,5.511,6.136,7.015C164.27,43.961,163.926,45.481,163.597,47.007z
			 M165.262,39.747c-2.422-4.708-8.323-9.621-11.261-13.27c-2.483-3.087-5.183-6.353-7.686-9.774
			c0.264-0.864-0.175-1.933-1.294-1.867c-0.014,0.001-0.028,0.004-0.042,0.004c-2.227-3.212-4.175-6.57-5.565-10.062
			c1.227,0.248,2.714,0.303,4.275,0.265c2.068,7.003,7.363,13.802,11.271,19.664c1.959,2.939,6.522,11.664,10.817,13.071
			C165.613,38.438,165.422,39.085,165.262,39.747z M166.259,35.941c-4.182-3.686-7.477-8.919-10.621-13.351
			c-3.795-5.348-8.417-11.322-10.894-17.59c1.425-0.072,2.849-0.214,4.207-0.364c4.983,9.381,12.681,17.127,18.016,26.242
			c0.128,0.219,0.392,0.289,0.631,0.255C167.146,32.733,166.676,34.326,166.259,35.941z M167.919,29.978
			c-0.854-3.434-5.119-7.461-7.055-10.026c-3.788-5.018-7.533-10.114-10.909-15.424c1.265-0.146,2.397-0.284,3.312-0.371
			c2.863,3.786,5.426,7.798,7.988,11.79c1.946,3.033,3.948,7.323,7.271,9.046c0.726,0.376,1.277-0.614,0.63-1.078
			c-3.233-2.326-5.722-7.162-8.005-10.355c-2.258-3.158-4.349-6.496-6.847-9.481c0.042-0.002,0.099-0.008,0.138-0.009
			c1.127-0.038,2.254-0.037,3.381-0.058c1.997,3.778,4.251,7.44,6.729,10.909c1.174,1.644,2.507,3.125,3.466,4.915
			c0.465,0.867,0.846,2.128,1.827,2.561c0.129,0.057,0.28,0.095,0.431,0.115C169.443,24.977,168.648,27.461,167.919,29.978z
			 M171.272,19.719c-0.28-0.113-0.606-0.068-0.87,0.14c-0.32-0.618-0.676-1.224-1.028-1.823c-0.913-1.554-2.248-2.838-3.383-4.223
			c-2.535-3.094-4.666-6.471-6.831-9.823c1.057-0.013,2.112,0.031,3.168,0.03c0.006,0.043-0.001,0.077,0.008,0.122
			c0.068,0.323,0.496,0.352,0.688,0.16c0.035,0.092,0.096,0.2,0.206,0.325c0.45,0.51,0.841,1.074,1.25,1.618
			c1.032,1.373,2.002,2.792,2.974,4.208c0.917,1.334,1.822,2.676,2.749,4.003c0.452,0.647,1.007,1.683,1.838,1.892
			c0.239,0.06,0.441-0.007,0.608-0.122C172.193,17.39,171.699,18.539,171.272,19.719z M172.98,15.386
			c-0.254-1.261-1.818-2.659-2.555-3.654c-1.348-1.819-2.688-3.642-4.075-5.432c-0.526-0.679-1.131-1.576-1.841-2.261
			c1.269,0.013,2.536,0.008,3.806,0.036c0.729,1.286,1.503,2.547,2.341,3.762c0.977,1.415,2.177,3.355,3.727,4.218
			C173.908,13.163,173.427,14.267,172.98,15.386z M175.037,10.499c-1.086-1.16-2.397-2.151-3.44-3.386
			c-0.812-0.961-1.549-1.977-2.275-3.001c2.652,0.157,5.568,1.063,8.245,1.143C176.656,6.971,175.825,8.724,175.037,10.499z"/>
	</g>
</g>
<g>
</g>
<g>
</g>
<g>
</g>
<g>
</g>
<g>
</g>
<g>
</g>
<g>
</g>
<g>
</g>
<g>
</g>
<g>
</g>
<g>
</g>
<g>
</g>
<g>
</g>
<g>
</g>
<g>
</g>
</svg>
