<?xml version="1.0" encoding="iso-8859-1"?>
<!-- Generator: Adobe Illustrator 16.0.0, SVG Export Plug-In . SVG Version: 6.00 Build 0)  -->
<!DOCTYPE svg PUBLIC "-//W3C//DTD SVG 1.1//EN" "http://www.w3.org/Graphics/SVG/1.1/DTD/svg11.dtd">
<svg version="1.1" id="Capa_1" xmlns="http://www.w3.org/2000/svg" xmlns:xlink="http://www.w3.org/1999/xlink" x="0px" y="0px"
	 width="191.34px" height="191.34px" viewBox="0 0 191.34 191.34" style="enable-background:new 0 0 191.34 191.34;"
	 xml:space="preserve">
<g>
	<g>
		<path d="M177.569,122.248c-0.162-0.693-1.229-0.69-1.394,0c-0.449,1.891-0.225,3.847-0.705,5.771
			c-0.225,0.896,1.057,1.225,1.363,0.376C177.525,126.482,178.041,124.264,177.569,122.248z"/>
		<path d="M177.694,97.7c-0.161-0.816-1.481-0.816-1.644,0c-0.463,2.354,0.1,5.165,0.463,7.535c0.055,0.356,0.664,0.356,0.718,0
			C177.596,102.864,178.158,100.052,177.694,97.7z"/>
		<path d="M189.852,137.463c-4.088-0.52-8.189-0.941-12.299-1.31c0.008-0.126,0.021-0.254-0.056-0.381
			c-0.651-1.091-0.217-2.302-0.553-3.459c-0.226-0.778-1.362-0.789-1.584,0c-0.351,1.251-0.103,2.61,0.582,3.711
			c-52.694-4.488-107.055,2.619-159.818,5.604c0.306-5.373,0.425-10.749,0.46-16.126c2.577,0.671,5.152,1.363,7.746,2.032
			c0.866,0.223,1.611-0.278,1.902-1.08c1.975-5.442,4.6-10.924,6.226-16.536c0.807,3.747,1.948,7.455,3.171,11.047
			c1.29,3.789,2.955,9.014,6.335,11.497c8.781,6.448,14.293-4.889,17.731-11.703c1.258,1.429,9.918,12.472,10.81,13.595
			c0.391,0.493,1.383,0.629,1.886,0.243c4.342-3.333,8.582-8.32,10.993-13.522c0.915,3.084,3.775,6.567,4.942,8.615
			c0.513,0.899,1.645,0.924,2.372,0.307c5.924-5.026,10.704-11.725,13.925-18.777c8.477,6.139,18.121,10.851,27.48,15.45
			c0.318,0.157,0.621,0.175,0.908,0.141c0.305,0.263,0.709,0.401,1.125,0.135c5.401-3.473,8.654-9.242,11.914-14.667
			c4.627,5.848,9.433,11.75,14.758,16.944c-0.456,0.981,0.895,2.044,1.662,1.169c0.053-0.059,0.108-0.112,0.16-0.171
			c0.68-0.118,1.265-0.673,1.236-1.329c3.809-4.112,7.986-7.931,11.51-12.277c0.174,0.024,0.356-0.015,0.525-0.19
			c1.723-1.802,2.244-4.802,1.805-7.193c-0.152-0.832-1.517-0.829-1.672,0c-0.306,1.647,0.076,3.409-0.428,4.973
			c-0.477-0.496-1.253-0.649-1.898,0.026c-3.807,3.992-7.979,8.005-11.238,12.538c-4.93-6.312-10.506-12.141-15.457-18.451
			c-0.664-0.847-2.053-0.48-2.543,0.328c-3.271,5.394-6.226,10.937-10.572,15.524c-0.076-0.063-0.126-0.136-0.221-0.19
			c-9.537-5.467-19.629-9.787-29.055-15.493c-0.486-0.295-0.929-0.206-1.232,0.062c-0.561-0.094-1.139,0.118-1.467,0.816
			c-3.027,6.459-7.072,12.082-12.043,17.123c-1.806-2.869-3.551-5.808-5.473-8.563c-0.166-0.969-1.476-1.614-2.218-0.759
			c-3.872,4.462-6.005,9.79-10.374,13.838c-2.504-3.28-8.711-11.33-11.753-11.335c0.005-1.244-1.551-2.362-2.495-1.169
			c-3.675,4.647-8.937,19.475-15.588,9.078c-4.199-6.564-5.759-14.728-8.399-21.969c-0.294-0.807-1.118-0.792-1.55-0.327
			c-0.484-0.083-0.984,0.021-1.269,0.604c-2.838,5.812-5.04,12.202-7.063,18.389c-2.381-0.466-4.754-1.033-7.129-1.59
			c-0.032-24.606-2.504-49.229-5.065-73.735c5.563-3.341,10.644-7.78,15.568-11.76c2.667,16.743,11.815,33.839,21.065,47.693
			c0.767,1.149,2.952,0.426,2.362-0.996c-0.045-0.109-0.097-0.213-0.143-0.321c0.23-0.106,0.435-0.318,0.618-0.498
			c0.054-0.053,0.061-0.114,0.077-0.174c0.357-0.029,0.744-0.113,1.031-0.337c1.448-1.127,2.643-2.889,3.863-4.253
			c1.868-2.087,3.788-4.135,5.72-6.168c1.405,3.505,2.663,7.07,3.965,10.613c1.087,2.957,2.086,6.607,4.257,8.965
			c0.983,1.067,2.69-0.05,2.351-1.369c-0.033-0.131-0.089-0.259-0.125-0.39c7.615-4.379,13.84-11.249,19.398-18.016
			c4.093,7.762,7.418,17.484,13.759,23.326c0.854,0.788,2.063,0.185,2.226-0.748c4.322-1.891,9.182-3.409,13.856-3.598
			c0.181-0.007,0.325-0.065,0.475-0.115c3.411,8.705,8.288,16.625,13.267,24.525c0.582,0.923,2.287,1.182,2.797,0
			c4.713-10.913,9.498-22.466,12.467-34.018c6.734,5.818,15.867,8.638,23.615,12.824c1.498,0.81,2.711-1.016,1.82-2.154
			c0.082-0.055,0.178-0.086,0.23-0.193c0.779-1.583,1.486-3.873,0.871-5.602c-0.264-0.74-1.231-0.734-1.496,0
			c-0.578,1.603-0.076,3.347-0.63,5.021c-7.498-4.922-16.397-7.461-24.083-12.151c-0.192-0.117-0.383-0.11-0.568-0.09
			c-0.551-0.396-1.336-0.444-1.718,0.311c-5.078,10.042-8.08,21.217-12.263,31.719c-4.655-7.154-9.336-14.285-13.221-21.903
			c-0.057-0.764-0.563-1.476-1.565-1.46c-4.769,0.075-10.609,1.823-14.773,4.61c-4.491-7.964-8.774-16.083-13.407-23.962
			c-0.479-0.815-1.855-1.145-2.512-0.324C84.804,75.272,78.985,82.29,71.43,87.83c-1.043-2.847-2.473-5.647-3.498-8.458
			c-1.361-3.735-2.692-7.474-4.273-11.122c-0.431-0.995-1.923-1.031-2.606-0.336c-2.561,2.608-4.928,5.42-7.309,8.191
			c-1.719,2-3.405,3.738-3.964,6.171c-6.869-15.935-16.559-29.823-21.165-46.913c0.062-1.2-1.617-2.372-2.89-1.335
			c-4.852,3.954-9.602,7.776-14.6,11.325c-0.405-3.868-0.809-7.734-1.203-11.595c-0.135-1.319-2.167-1.371-2.099,0
			c0.223,4.463,0.501,8.921,0.8,13.378c-1.95,1.315-3.948,2.583-6.022,3.787c-0.966,0.561-0.324,2.165,0.768,1.821
			c1.891-0.596,3.705-1.411,5.482-2.325c1.665,23.858,3.999,47.648,4.229,71.495c-3.526-0.734-7.074-1.265-10.697-1.105
			c-1.2,0.054-1.148,1.696,0,1.825c3.645,0.411,7.197,1.142,10.724,1.993c0.015,5.73-0.055,11.463-0.34,17.203
			c-3.951,0.21-7.894,0.395-11.826,0.548c-1.251,0.049-1.259,1.927,0,1.947c3.887,0.062,7.775,0.075,11.666,0.054
			c-0.248,4.221-0.567,8.444-1.021,12.672c-0.222,2.071,2.992,2.037,3.224,0c0.483-4.238,0.797-8.478,1.078-12.721
			c57.876-0.655,116.127-9.452,173.956-3.746C191.872,140.782,191.801,137.711,189.852,137.463z"/>
		<path d="M177.084,73.875c-0.201-0.925-1.662-0.925-1.863,0c-0.414,1.912-0.051,4.067-0.012,6.025c0.023,1.216,1.861,1.216,1.885,0
			C177.133,77.943,177.497,75.789,177.084,73.875z"/>
	</g>
</g>
<g>
</g>
<g>
</g>
<g>
</g>
<g>
</g>
<g>
</g>
<g>
</g>
<g>
</g>
<g>
</g>
<g>
</g>
<g>
</g>
<g>
</g>
<g>
</g>
<g>
</g>
<g>
</g>
<g>
</g>
</svg>
