<?xml version="1.0" encoding="iso-8859-1"?>
<!-- Generator: Adobe Illustrator 16.0.0, SVG Export Plug-In . SVG Version: 6.00 Build 0)  -->
<!DOCTYPE svg PUBLIC "-//W3C//DTD SVG 1.1//EN" "http://www.w3.org/Graphics/SVG/1.1/DTD/svg11.dtd">
<svg version="1.1" id="Capa_1" xmlns="http://www.w3.org/2000/svg" xmlns:xlink="http://www.w3.org/1999/xlink" x="0px" y="0px"
	 width="193.901px" height="193.901px" viewBox="0 0 193.901 193.901" style="enable-background:new 0 0 193.901 193.901;"
	 xml:space="preserve">
<g>
	<g>
		<path d="M161.107,57.923c3.975-5.01,7.795-10.102,11.275-15.387c0.394-0.596,0.044-1.272-0.509-1.549
			c1.077,0.17,2.07-1.134,1.11-1.994c-8.674-7.773-21.716-11.186-32.333-15.429c-16.705-6.676-32.54-15.539-49.126-22.586
			c-0.318-0.853-1.395-1.407-2.206-0.544c-15.308,16.283-26.672,35.684-40.632,53.07C34.808,70.787,19.722,87.021,10.08,107.191
			c-0.228-0.093-0.454-0.198-0.681-0.29c-0.874-0.355-1.454,1.08-0.636,1.51c0.392,0.206,0.791,0.409,1.184,0.615
			c0.164,0.17,0.345,0.263,0.57,0.297c8.308,4.359,16.694,8.672,25.112,12.945c-3.225,3.065-5.189,8.478-7.158,12.267
			c-3.213,6.186-6.523,12.291-10.35,18.121c-0.532,0.812,0.485,1.693,1.232,1.339c26.295,14.226,52.588,28.523,80.326,39.787
			c1.087,0.442,1.782-0.422,1.808-1.35c0.287,0.005,0.574-0.072,0.786-0.36c14.177-19.286,27.951-38.877,41.564-58.564
			c13.608-19.68,29.372-37.361,40.239-58.824c0.186-0.116,0.358-0.272,0.494-0.506C189.95,64.943,171.439,60.451,161.107,57.923z
			 M11.978,107.999c11.011-18.947,24.824-35.586,38.808-52.396C64.963,38.561,76.389,19.517,90.957,2.758
			c14.746,7.321,29.255,15.294,44.275,22.024c12.112,5.426,24.482,9.715,36.162,16.112c-0.097-0.001-0.187-0.041-0.284-0.015
			c-11.266,3.043-26.819,30.687-32.79,38.84c-10.126,13.825-19.193,28.186-28.233,42.724c-2.643,4.25-15.882,18.977-15.079,22.681
			c-0.314-1.444-2.415-1.037-2.477,0.335c-0.012,0.259-0.023,0.518-0.035,0.775c-0.007,0.156,0.066,0.294,0.119,0.437
			c-0.083-0.076-0.155-0.157-0.272-0.222C66.377,132.445,39.298,119.222,11.978,107.999z M100.773,191.026
			c-0.094-0.064-0.169-0.141-0.283-0.189c-27.326-11.313-53.136-25.671-79.88-38.223c3.666-4.629,6.628-9.743,9.5-14.896
			c2.475-4.442,6.23-9.391,7.859-14.275c17.514,8.852,35.221,17.426,53.077,25.221c1.127,0.492,2.145-0.586,1.909-1.482
			c0.432,0.406,1.076,0.599,1.589,0.228c14.509-10.481,23.254-32.199,32.756-46.618c9.549-14.488,21.423-27.476,32.287-40.986
			c8.103,2.535,22.602,6.872,22.757,11.572c-0.167,0.131-0.316,0.308-0.434,0.546C160.925,114.49,126.281,150.968,100.773,191.026z"
			/>
		<path d="M96.242,123.875c-20.327-8.714-40.593-20.02-62.455-24.353c-0.628-0.124-0.9,0.813-0.267,0.967
			c21.946,5.317,40.592,18.637,62.182,24.666C96.448,125.364,96.985,124.194,96.242,123.875z"/>
		<path d="M101.896,116.78C84.13,105.374,61.105,94.258,40.046,91.25c-0.466-0.067-0.684,0.617-0.2,0.725
			c22.218,4.966,40.712,17.71,61.418,26.3C102.157,118.647,102.64,117.258,101.896,116.78z"/>
		<path d="M111.058,108.968C91.285,97.702,68.931,91.76,49.301,79.974c-0.588-0.353-1.07,0.521-0.529,0.904
			c18.394,13.028,40.775,21.338,61.545,29.843C111.343,111.139,111.979,109.493,111.058,108.968z"/>
		<path d="M112.53,99.05c-10.605-6.868-22.806-12.002-34.151-17.506c-4.493-2.179-16.951-10.774-22.417-9.061
			c-0.319,0.1-0.188,0.567,0.137,0.498c2.11-0.448,7.797,3.478,9.637,4.385c5.346,2.636,10.655,5.34,15.945,8.087
			c9.849,5.114,19.556,11.075,29.733,15.506C112.697,101.52,113.754,99.843,112.53,99.05z"/>
		<path d="M120.803,90.163c-9.782-5.897-20.366-10.881-30.529-16.117C81.575,69.563,72.17,64.9,62.323,63.929
			c-0.478-0.047-0.541,0.683-0.11,0.811c20.778,6.17,37.619,20.412,57.918,27.013C121.091,92.066,121.631,90.663,120.803,90.163z"/>
		<path d="M126.567,79.382C107.093,69.329,87.4,59.124,66.684,51.858c-0.764-0.268-1.059,0.91-0.33,1.195
			c20.411,7.978,39.124,19.308,58.993,28.418C126.74,82.11,127.972,80.106,126.567,79.382z"/>
		<path d="M130.102,67.43c-18.435-8.557-36.647-17.623-55.703-24.748c-0.86-0.322-1.216,1.04-0.377,1.365
			c18.839,7.306,36.513,17.041,54.784,25.599C130.296,70.345,131.6,68.125,130.102,67.43z"/>
		<path d="M134.619,56.369c-18.474-7.33-36.729-14.332-54.586-23.182c-0.516-0.256-0.961,0.484-0.454,0.777
			c16.691,9.639,35.479,20.238,54.5,24.368C135.385,58.615,135.819,56.845,134.619,56.369z"/>
		<path d="M147.253,48.506c-21.024-4.477-37.303-18.651-56.796-26.71c-0.664-0.274-1.035,0.766-0.472,1.119
			c9.987,6.247,20.238,12.211,30.541,17.919c7.203,3.99,17.732,10.809,26.41,10.019C148.197,50.738,148.657,48.805,147.253,48.506z"
			/>
	</g>
</g>
<g>
</g>
<g>
</g>
<g>
</g>
<g>
</g>
<g>
</g>
<g>
</g>
<g>
</g>
<g>
</g>
<g>
</g>
<g>
</g>
<g>
</g>
<g>
</g>
<g>
</g>
<g>
</g>
<g>
</g>
</svg>
