<?xml version="1.0" encoding="iso-8859-1"?>
<!-- Generator: Adobe Illustrator 16.0.0, SVG Export Plug-In . SVG Version: 6.00 Build 0)  -->
<!DOCTYPE svg PUBLIC "-//W3C//DTD SVG 1.1//EN" "http://www.w3.org/Graphics/SVG/1.1/DTD/svg11.dtd">
<svg version="1.1" id="Capa_1" xmlns="http://www.w3.org/2000/svg" xmlns:xlink="http://www.w3.org/1999/xlink" x="0px" y="0px"
	 width="192.735px" height="192.735px" viewBox="0 0 192.735 192.735" style="enable-background:new 0 0 192.735 192.735;"
	 xml:space="preserve">
<g>
	<path d="M175.68,102.077c-5.368-11.684-22.303-35.242-6.487-43.909c2.911-1.595,1.937-5.986-1.012-6.656
		c-0.438-0.972-1.306-1.768-2.706-2.088C146.494,45.074,139.952,60,134.098,75.279c-1.727,4.504-4.208,8.56-7.375,12.08
		c-0.108-0.135-0.223-0.265-0.329-0.4c-1.168-1.47-3.579,0.441-2.579,1.99c0.172,0.265,0.374,0.51,0.547,0.774
		c-0.82,0.755-1.611,1.534-2.514,2.219c-10.75,8.15-9.558-10.162-8.927-15.857c1.378-12.444,10.705-22.199,11.969-34.45
		c1.869-18.14-11.031-29.643-26.321-36.073c-4.152-1.746-9.846-5.158-14.542-3.96c-0.652-0.361-1.271-0.728-1.961-1.083
		c-4.535-2.334-7.922,3.797-3.925,6.714c10.786,7.871,18.935,15.525,16.856,26.341c-0.282-0.161-0.557-0.332-0.84-0.492
		c-1.152-0.649-2.128,1.05-1.029,1.76c0.447,0.289,0.882,0.596,1.328,0.887c-0.71,2.316-1.829,4.759-3.52,7.393
		c-6.553,10.202-18.067,17.811-27.815,24.535c-17.586,12.13-37.018,20.915-46.42,41.313c-0.758,1.644-1.374,3.281-1.928,4.916
		c-0.613-0.363-1.219-0.747-1.833-1.104c-1.189-0.695-2.189,1.072-1.067,1.824c0.734,0.492,1.443,1.011,2.17,1.51
		C3.84,151.891,40.464,184.58,73.421,189.808c2.286,0.362,3.604-1.88,2.906-3.477c0.686-0.694,1.063-1.648,0.669-2.737
		c-6.735-18.585-11.743-41.472-3.765-60.134c1.832,11.506,7.571,22.19,19.696,25.483c10.805,2.936,18.652-8.106,30.292-2.936
		c15.862,7.046,0.712,28.822-7.758,34.542c-4.527,3.058-0.64,10.237,3.882,8.026c-0.074,0.08-0.153,0.156-0.226,0.235
		c-1.691,1.837,0.505,5,2.744,3.559c22.628-14.577,50.16-27.979,57.925-55.863C183.167,124.375,180.739,113.09,175.68,102.077z
		 M154.518,58.83c-2.104,5.507-0.708,13.364,1.827,21.117c-0.966-0.689-1.911-1.367-2.783-2.039
		c-3.019-2.328-6.043-4.56-9.248-6.597C147.208,65.854,150.366,61.131,154.518,58.83z M143.485,72.872
		c2.381,2.379,4.832,4.652,7.333,6.921c2.863,2.598,5.638,5.792,8.645,8.481c2.632,6.308,5.477,11.885,7.062,15.157
		c1.496,3.085,2.637,6.02,3.504,8.838c-3.373-3.246-6.578-6.676-9.809-10.057c-6.386-6.682-12.886-13.368-20.686-18.405
		c-0.507-0.327-0.971-0.298-1.35-0.1C139.987,80.125,141.696,76.382,143.485,72.872z M116.902,37.453
		c0.021,0.291,0.091,0.547,0.104,0.845c0.104,2.402-0.389,4.892-1.214,7.413c-2.742-1.878-5.859-3.372-8.644-5.032
		c-1.802-1.073-3.624-2.11-5.43-3.175c1.328-3.768,1.917-7.555,1.651-11.291c1.36,1.136,2.712,2.283,4.077,3.412
		C110.535,32.182,113.51,35.245,116.902,37.453z M115.803,31.682c-2.449-1.87-5.066-3.589-7.404-5.398
		c-1.9-1.468-3.815-2.915-5.726-4.37c-0.77-2.882-2.109-5.717-4.159-8.466C106.398,17.801,113.166,23.212,115.803,31.682z
		 M100.764,39.946c1.629,1.098,3.273,2.171,4.898,3.274c2.848,1.929,5.718,4.256,8.833,5.883c-1.228,2.883-2.736,5.776-4.205,8.606
		c-1.352-0.828-2.717-1.633-4.036-2.477c-3.461-2.216-6.933-4.404-10.468-6.496C97.792,45.852,99.483,42.91,100.764,39.946z
		 M94.174,50.975c4.717,3.16,9.421,7.113,14.412,10.088c-1.009,2.046-1.914,4.042-2.555,5.949c-0.387,1.151-0.705,2.348-0.992,3.558
		c-5.798-4.071-11.926-7.766-17.945-11.474C89.674,56.476,92.062,53.757,94.174,50.975z M85.174,60.975
		c6.272,4.508,12.591,9.16,19.176,13.225c-0.489,3.192-0.698,6.474-0.573,9.718c-3.449-2.446-7.041-4.732-10.294-7.488
		c-4.334-3.671-8.394-7.665-12.454-11.632C82.452,63.557,83.827,62.274,85.174,60.975z M79.222,66.333
		c0.017,0.02,0.021,0.042,0.039,0.062c7.116,7.275,15.381,16.949,24.862,21.708c0.21,1.722,0.483,3.42,0.867,5.048
		c0.042,0.179,0.106,0.331,0.153,0.504c-10.408-8.099-21.19-15.603-32.407-22.198C74.936,69.835,77.101,68.113,79.222,66.333z
		 M40.02,93.642c3.155,3.716,7.062,6.833,10.743,10.032c5.008,4.354,10.385,10.441,16.294,13.836
		c-1.085,2.371-2.051,4.782-2.79,7.259c-1.047-0.921-2.209-1.747-3.261-2.603c-4.854-3.948-9.745-7.849-14.675-11.701
		c-1.51-1.179-8.408-7.757-13.358-10.431C35.128,97.774,37.519,95.664,40.02,93.642z M30.25,103.112
		c1.025,0.973,2.372,1.812,3.411,2.641c4.193,3.346,8.312,6.786,12.428,10.225c4.071,3.403,8.152,6.795,12.209,10.215
		c1.516,1.28,2.985,2.722,4.71,3.699c-0.462,2.259-0.828,4.54-1.05,6.848c-4.393-4.811-10.295-8.476-15.515-12.273
		c-6.827-4.967-13.571-10.228-20.673-14.828C27.037,107.336,28.562,105.176,30.25,103.112z M24.565,112.013
		c11.948,9.809,24.279,19.539,36.636,28.705c0.175,0.129,0.345,0.197,0.512,0.249c-0.088,2.41-0.102,4.829,0.034,7.258
		c-12.218-10.953-25.582-20.938-39.456-29.724C22.827,116.222,23.619,114.076,24.565,112.013z M21.455,129.511
		c-0.221-2.79-0.062-5.394,0.284-7.904c14.194,10.507,27.278,22.153,40.706,33.694c0.4,2.902,0.923,5.795,1.582,8.66
		c-13.176-12.424-28.947-22.009-42.529-34.104C21.489,129.74,21.464,129.629,21.455,129.511z M26.381,147.798
		c-1.78-3.719-3.104-7.703-3.974-11.914c4.256,4.269,9.233,8.004,13.74,11.599c9.129,7.282,18.185,14.717,27.403,21.876
		c0.639,0.497,1.34,0.567,1.968,0.412c0.918,3.171,1.97,6.293,3.137,9.336C54.792,169.613,37.357,161.189,26.381,147.798z
		 M69.198,113.33c-4.086-4.328-9.8-7.833-14.264-11.447c-4.166-3.371-8.231-6.926-12.527-10.108
		c2.001-1.522,4.068-2.987,6.162-4.409c0.08,0.136,0.168,0.269,0.312,0.384c8.149,6.494,16.177,13.089,24.218,19.676
		C71.657,109.339,70.351,111.306,69.198,113.33z M88.029,136.45c-2.407-2.14-3.992-4.977-5.049-8.106
		c2.02,1.729,4.095,3.393,6.213,5.023c2.578,1.984,5.079,4.335,7.677,6.479C93.883,139.879,90.92,139.019,88.029,136.45z
		 M101.943,139.084c-2.439-2.594-5.683-4.6-8.522-6.578c-3.935-2.743-7.867-5.434-11.546-8.489
		c-0.604-3.327-0.781-6.791-0.71-10.038c9.196,7.592,18.341,15.264,27.478,22.956C106.422,137.673,104.183,138.499,101.943,139.084z
		 M130.709,177.921c2.787-3.687,5.024-7.8,6.364-12.067c0.81,0.671,1.618,1.345,2.434,2.005c0.576,0.468,1.158,0.957,1.754,1.44
		C137.73,172.148,134.161,174.999,130.709,177.921z M144.732,166.479c-1.247-0.721-2.505-1.427-3.666-2.24
		c-1.036-0.727-2.043-1.485-3.055-2.236c1.097-6.191,0.146-12.534-3.949-18.244c-3.81-5.31-11.584-8.738-18.306-8.402
		c-11.333-9.682-22.987-19.15-34.902-28.279c-0.573-0.944-1.529-1.636-2.61-1.975c-8.864-6.729-17.828-13.307-26.942-19.535
		c2.617-1.722,5.248-3.39,7.831-5.03c34.182,20.776,59.775,55.921,95.225,73.916c1.867,0.947,3.958-1.453,2.31-2.993
		c-28.093-26.28-61.11-54.006-95.231-72.389c2.074-1.321,4.117-2.63,6.059-3.928c0.931-0.622,1.863-1.267,2.794-1.921
		c31.502,23.91,59.744,50.553,89.02,77.103c0.596,0.541,1.249,0.732,1.882,0.743C156.526,156.513,150.771,161.532,144.732,166.479z
		 M164.085,147.438c-0.131-0.402-0.344-0.801-0.721-1.174c-15.163-15.005-31.003-30.235-47.787-44.201
		c3.522,0.155,7.333-0.917,10.566-2.771c1.161-0.666,2.225-1.54,3.249-2.5c5.55,7.201,11.84,13.892,18.071,20.43
		c6.286,6.595,13.655,16.011,22.257,20.059C168.345,140.872,166.43,144.241,164.085,147.438z M171.118,132.782
		c-6.283-6.649-13.869-12.421-20.354-18.857c-6.486-6.436-12.761-13.104-18.687-20.064c1.946-2.487,3.669-5.446,5.299-8.576
		c0.04,0.413,0.226,0.823,0.635,1.13c7.826,5.894,14.291,13.275,20.735,20.596c3.578,4.064,7.941,10.588,13.071,13.997
		C172.236,125.205,171.985,129.121,171.118,132.782z"/>
</g>
<g>
</g>
<g>
</g>
<g>
</g>
<g>
</g>
<g>
</g>
<g>
</g>
<g>
</g>
<g>
</g>
<g>
</g>
<g>
</g>
<g>
</g>
<g>
</g>
<g>
</g>
<g>
</g>
<g>
</g>
</svg>
