<?xml version="1.0" encoding="iso-8859-1"?>
<!-- Generator: Adobe Illustrator 16.0.0, SVG Export Plug-In . SVG Version: 6.00 Build 0)  -->
<!DOCTYPE svg PUBLIC "-//W3C//DTD SVG 1.1//EN" "http://www.w3.org/Graphics/SVG/1.1/DTD/svg11.dtd">
<svg version="1.1" id="Capa_1" xmlns="http://www.w3.org/2000/svg" xmlns:xlink="http://www.w3.org/1999/xlink" x="0px" y="0px"
	 width="193.881px" height="193.881px" viewBox="0 0 193.881 193.881" style="enable-background:new 0 0 193.881 193.881;"
	 xml:space="preserve">
<g>
	<path d="M191.369,136.586c-26.154-5.143-55.52,0.826-82.137,0.179c-33.623-0.819-67.919-1.16-101.559,1.009
		c0.007-0.152,0.009-0.306,0.015-0.456c5.335-6.86,10.82-13.778,16.294-20.646c0.601,0.165,1.224,0.25,1.842,0.242
		c1.012-0.013,2.131-0.404,3.183-1.027c2.793,3.597,5.517,7.622,8.581,10.976c-0.066,0.184-0.154,0.34-0.206,0.542
		c-0.805,3.169,1.105,6.772,4.09,7.988c3.546,1.442,9.89-1.005,9.816-5.346c-0.037-2.127-2.03-3.413-3.785-4.094
		c-0.275-0.105-0.569-0.121-0.853-0.19c5.696-7.879,9.402-16.858,13.508-25.679c0.378-0.024,0.748-0.093,1.112-0.207
		c3.732,5.56,7.47,11.113,11.153,16.704c-1.992,3.095-0.759,7.17,2.731,8.66c2.568,1.096,8.879,1.954,8.722-2.119
		c1.435-1.242,2.13-3.285,1.887-5.597c-0.005-0.051-0.039-0.083-0.047-0.132c13.302-8.316,24.126-20.515,36.56-30.123
		c0.662,0.597,1.479,0.924,2.363,1.009c1.74,0.603,3.672,0.668,5.325-0.212c0.265-0.141,0.41-0.388,0.628-0.574
		c1.247,0.933,2.547,1.815,3.75,2.759c5.041,3.956,9.93,8.097,14.801,12.259c6.697,5.724,13.586,14.219,21.185,19.492
		c-0.237,1.302-0.128,2.658,0.504,3.826c2.333,4.313,10.417,3.447,11.7-1.242c0.98-3.589-2.635-9.966-6.901-8.563
		c-0.768,0.252-1.323,0.76-1.778,1.352c-0.41,0.169-0.797,0.374-1.148,0.64c-5.866-6.781-14.707-12.709-20.975-18.092
		c-4.828-4.146-12.355-12.14-19.492-15.857c0.103-1.098,0.029-2.222-0.287-3.176c-1.068-3.228-4.325-5.266-7.6-3.873
		c-1.047,0.445-1.785,1.177-2.383,2.004c-1.172,0.913-2.043,2.108-2.131,3.744c-0.029,0.541,0.072,1.056,0.251,1.544
		c-12.762,9.55-24.005,20.996-36.378,31.081c-0.483-0.641-1.128-1.155-1.913-1.477c-1.385-0.565-3.416-0.64-4.636,0.338
		c-0.654-0.14-1.326-0.115-1.969,0.096c-3.621-5.495-7.295-10.957-10.976-16.413c3.275-3.464,4.335-9.786-1.155-9.378
		c-0.767,0.057-1.524,0.231-2.272,0.453c-0.177-0.108-0.387-0.164-0.61-0.127c-2.141,0.352-4.196,1.45-5.15,3.252
		c-0.181,0.256-0.272,0.512-0.327,0.788c-0.186,0.599-0.286,1.248-0.215,1.977c0.156,1.598,1.068,3.058,2.332,4.045
		c-3.94,8.656-7.49,17.411-12.651,25.393c-1.038-0.407-2.092-0.55-3.071-0.418c-2.795-3.688-6.057-7.273-9.242-10.599
		c1.508-2.064,1.885-4.575-0.561-6.288c-1.448-1.014-5.523-2.168-7.744-1.135c-0.086,0.034-0.162-0.002-0.251,0.062
		c-0.173,0.127-0.31,0.293-0.475,0.431c-0.051,0.049-0.109,0.088-0.156,0.141c-1.933,1.675-3.243,3.99-2.495,6.629
		c0.198,0.697,0.566,1.276,1.012,1.785c-2.414,3.157-4.855,6.293-7.209,9.496c-1.951,2.655-4.445,5.511-6.143,8.585
		c0.43-12.529,0.432-25.096,1.293-37.612c0.69-10.011,1.802-20.201,1.666-30.301c4.287,4.005,8.392,8.131,12.457,12.407
		c2.225,2.341,4.58,5.127,7.16,7.572c-0.079,0.22-0.209,0.389-0.265,0.63c-1.124,4.84,6.57,10.648,10.615,7.07
		c1.889-1.671,2.669-5.072,2.079-7.942c0.619-0.275,0.872-1.205,0.145-1.742c-0.004-0.003-0.009-0.005-0.013-0.008
		c4.66-6.792,10.267-12.736,15.823-18.828c1.3,0.756,2.874,1.225,4.238,1.237c1.389,0.012,2.295-0.521,2.98-1.32
		c3.287,5.088,7.02,9.908,10.932,14.539c-0.438,1.375-0.283,2.986,0.277,4.319c0.985,2.349,2.754,5.456,5.672,5.436
		c2.575-0.018,3.969-2.976,4.726-4.998c0.474-1.266,1.29-3.781,0.903-5.489c4.602-7.612,10.615-14.309,16.674-20.86
		c0.749,0.282,1.592,0.413,2.468,0.446c0.436,0.075,0.877,0.099,1.32,0.044c0.851,0.278,1.548,0.225,2.091-0.094
		c1.606,2.85,2.731,5.917,3.968,8.958c-0.412,0.205-0.799,0.444-1.145,0.716c-1.295,1.019-1.219,2.337-0.612,3.551
		c-0.406,1.97,0.798,4.432,2.752,5.189c1.388,0.538,3.063,0.384,4.567-0.232c0.809,0.11,1.61,0.113,2.35-0.203
		c0.707-0.303,1.055-0.764,1.258-1.28c1.791-0.981,2.836-2.52,1.768-4.597c-0.254-0.496-0.562-1.012-0.896-1.516
		c5.08-3.85,9.875-8.06,14.523-12.43c0.975,0.541,2.182,0.646,3.379,0.448c4.623,8.38,9.322,16.778,14.656,24.722
		c-1.563,2.348,0.016,5.686,1.852,7.439c1.833,1.75,4.443,2.373,6.533,0.719c1.88-1.489,2.641-3.78,3.886-5.74
		c0.524-0.826-0.019-1.736-0.787-2.062c2.414-2.81,4.788-5.657,7.207-8.459c2.133-2.471,4.341-4.875,6.626-7.206
		c0.746-0.761,1.609-1.437,2.467-2.116c0.141,0.012,0.29-0.035,0.436-0.036c1.783,0.657,3.914,0.019,5.361-1.082
		c1.899-1.444,2.948-3.59,2.588-5.973c-0.447-2.969-4.14-4.994-6.81-5.271c-3.308-0.342-4.612,3.33-4.817,5.935
		c-0.082,1.029-0.029,2.309,0.276,3.463c-3.011,2.515-5.714,6.341-7.67,8.656c-3.058,3.619-5.983,7.344-8.917,11.064
		c-0.072-0.024-0.146-0.041-0.219-0.065c-0.051-0.127-0.115-0.253-0.25-0.347c-1.348-0.943-3.002-1.202-4.547-0.894
		c-5.057-7.942-9.879-16.009-14.575-24.173c0.417-0.324,0.798-0.675,1.081-1.071c1.585-2.219,0.773-5.06-1.242-6.694
		c-4.002-3.244-12.578,0.007-9.277,5.662c0.129,0.222,0.32,0.413,0.481,0.621c-4.556,4.435-9.185,8.781-13.892,13.048
		c-0.35-0.259-0.725-0.478-1.14-0.618c-0.97-0.327-1.94-0.263-2.874,0.005c-1.258-3.785-3.311-7.662-5.627-10.96
		c0.104-0.133,0.221-0.264,0.311-0.398c2.194-3.294,1.191-11.568-4.162-10.528c-0.344,0.067-0.678,0.195-1.014,0.327
		c-0.677-0.2-1.236-0.014-1.714,0.388c-0.032,0.006-0.077,0.001-0.108,0.007c-2.098,0.411-3.877,1.744-4.858,3.644
		c-1.12,2.17-0.796,4.059,0.284,5.469c0.031,0.326,0.076,0.643,0.16,0.932c-6.093,6.557-12.46,13.641-16.419,21.595
		c-0.901-0.116-1.871,0.004-2.669,0.165c-1.161-0.642-2.838-0.505-4.106-0.082c-3.652-4.18-7.23-8.415-10.549-12.859
		c0.241-0.124,0.449-0.275,0.598-0.461c0.272-0.343,0.389-0.837,0.379-1.312c0.357-2.806,0.737-7.398-2.562-8.578
		c-0.133-0.047-0.267-0.028-0.4-0.055c-0.842-0.98-1.952-1.672-3.417-1.805c-2.92-0.266-5.498,1.924-6.881,4.302
		c-1.141,1.962-1.32,4.306-0.348,6.245C50.67,67.806,44.761,73.938,40.481,81c-0.218-0.152-0.401-0.345-0.649-0.461
		c-1.344-0.628-2.616-0.151-3.618,0.716c-1.091,0.062-2.116,0.316-3.038,0.763c-2.998-2.782-6.175-5.467-8.918-8.273
		c-4.191-4.288-8.632-8.581-13.599-11.996c-0.213-4.955-0.731-9.884-1.837-14.748c-0.373-1.641-3.157-1.307-2.97,0.402
		c3.271,29.89-0.835,60.373-1.058,90.551c-1.292,0.089-2.591,0.154-3.881,0.251c-1.216,0.092-1.219,1.804,0,1.891
		c1.299,0.093,2.601,0.134,3.901,0.213c-0.001,2.961-0.017,5.923,0.073,8.877c0.042,1.363,1.971,1.324,2.087,0
		c0.254-2.904,0.38-5.818,0.535-8.73c31.051,1.656,62.37-0.302,93.443-0.021c16.392,0.147,32.664,0.844,49.05-0.078
		c13.467-0.758,26.951-2.703,40.346-0.071C192.766,140.765,193.797,137.063,191.369,136.586z"/>
</g>
<g>
</g>
<g>
</g>
<g>
</g>
<g>
</g>
<g>
</g>
<g>
</g>
<g>
</g>
<g>
</g>
<g>
</g>
<g>
</g>
<g>
</g>
<g>
</g>
<g>
</g>
<g>
</g>
<g>
</g>
</svg>
