<?xml version="1.0" encoding="iso-8859-1"?>
<!-- Generator: Adobe Illustrator 16.0.0, SVG Export Plug-In . SVG Version: 6.00 Build 0)  -->
<!DOCTYPE svg PUBLIC "-//W3C//DTD SVG 1.1//EN" "http://www.w3.org/Graphics/SVG/1.1/DTD/svg11.dtd">
<svg version="1.1" id="Capa_1" xmlns="http://www.w3.org/2000/svg" xmlns:xlink="http://www.w3.org/1999/xlink" x="0px" y="0px"
	 width="191.246px" height="191.246px" viewBox="0 0 191.246 191.246" style="enable-background:new 0 0 191.246 191.246;"
	 xml:space="preserve">
<g>
	<g>
		<path d="M166.91,90.719c-7.745-49.408-51.538-79.258-99.775-73.307C22.982,22.86-5.271,61.396,0.825,104.526
			c5.531,39.136,48.146,91.553,91.496,77.525c0.325,0.302,0.754,0.513,1.333,0.503C141.807,181.742,174.008,135.998,166.91,90.719z
			 M112.203,26.1c0.022,0.077,0.014,0.156,0.074,0.228c5.805,6.836,11.909,13.394,18.142,19.841
			c5.994,6.2,12.392,13.483,19.876,17.872c0.96,0.563,1.817-0.691,1.139-1.476c-5.669-6.557-13.192-11.927-19.534-17.877
			c-5.937-5.572-11.556-11.463-17.111-17.412c19.73,9.266,35.113,26.87,43.575,48.318c-6.422-7.913-15.033-14.382-22.592-21.036
			C123.236,43.521,110.3,32.972,97.996,21.671C102.932,22.669,107.67,24.178,112.203,26.1z M31.377,37.454
			c15.216,20.825,35.589,36.298,54.83,53.231c-2.363-0.911-4.867-1.18-7.172-0.506c-1.274-0.081-2.457,0.332-3.498,1.072
			c-0.026-0.19-0.064-0.384-0.208-0.56c-8.228-10.062-20.237-16.843-28.786-26.919c-6.527-7.693-13.318-15.116-20.451-22.029
			C27.782,40.242,29.551,38.819,31.377,37.454z M89.474,97.741c3.779,3.534,2.606,8.074-0.847,11.257
			c-3.141,2.896-8.323,5.135-11.273,0.925c-2.563-3.658-3.618-13.272,0.347-16.32c0.099,0.053,0.163,0.152,0.276,0.184
			c1.944,0.529,3.945,0.299,5.929,0.779C86.022,95.078,87.9,96.271,89.474,97.741z M25.551,42.26
			c12.609,18.3,28.488,39.345,48.553,50.02c0.09,0.048,0.164,0.016,0.251,0.038c-1.06,1.149-1.901,2.653-2.401,4.317
			c-0.482,1.603-0.714,3.374-0.738,5.176C53.934,83.743,37.388,65.458,21.56,46.071C22.824,44.745,24.185,43.499,25.551,42.26z
			 M12.787,127.023c7.602,8.316,14.78,16.51,21.452,25.862c4.224,5.92,8.636,11.732,13.577,17.042
			C32.767,159.997,20.732,143.95,12.787,127.023z M57.341,175.174c-10.413-9.035-18.135-20.429-26.345-31.434
			c-5.342-7.16-11.443-15.846-19.679-19.951c-2.033-4.66-3.748-9.359-5.136-13.991c12.937,17.046,26.994,33.187,41.357,49.046
			c4.225,4.665,11.046,13.98,17.77,19.192C62.587,177.272,59.925,176.322,57.341,175.174z M73.017,179.593
			c-6.96-8.161-15.529-15.496-23.11-23.116c-15.93-16.01-30.184-33.927-44.902-51.062c-0.971-4.123-1.534-8.159-1.734-12.099
			c14.143,12.321,26.023,28.741,38.262,42.697c12.226,13.94,27.241,28.026,37.374,43.58c0.133,0.204,0.325,0.319,0.522,0.412
			C77.262,179.976,75.117,179.866,73.017,179.593z M80.48,179.992c0.373-0.174,0.677-0.49,0.67-1.009
			c-0.044-3.323-4.773-7.23-6.637-9.489c-8.464-10.252-17.196-20.282-25.932-30.303c-9.831-11.276-19.787-22.45-30.003-33.379
			c-4.641-4.965-9.529-11.219-15.363-15.06c-0.042-4.138,0.388-8.137,1.124-12.024c12.306,18.6,28.071,34.198,43.51,50.189
			c15.195,15.738,27.431,33.866,42.345,49.802c0.097,0.104,0.219,0.146,0.333,0.211C87.116,179.567,83.754,179.971,80.48,179.992z
			 M95.104,178.387c-0.295-0.157-0.657-0.227-1.096-0.113c-0.571,0.146-1.121,0.193-1.688,0.319c0.053-0.061,0.125-0.1,0.168-0.168
			c0.234-0.368,0.468-0.737,0.702-1.105c0.625-0.984-0.681-2.452-1.681-1.681c1.767-1.361-80.11-90.223-86.299-98.325
			c-0.158-0.207-0.367-0.291-0.58-0.309c0.515-2.349,1.21-4.628,1.987-6.87c30.939,35.581,62.63,71.417,92.341,107.985
			C97.686,178.236,96.404,178.339,95.104,178.387z M109.396,176.295c-2.481,0.621-5.01,1.144-7.61,1.489
			c-6.914-4.975-33.915-39.544-37.163-43.336C45.68,112.332,27.523,89.597,7.131,68.768c1.032-2.765,2.297-5.423,3.698-8.005
			c18.078,23.109,37.217,45.304,56.489,67.419c10.981,12.601,29.576,42.146,43.397,47.4
			C110.027,175.321,109.557,175.742,109.396,176.295z M116.193,171.991c0.407,0.535,0.814,1.07,1.222,1.604
			c-1.721,0.668-3.439,1.34-5.231,1.872c-6.134-13.335-21.403-25.681-30.724-36.381C58.25,112.438,34.799,86,11.545,59.391
			c1.117-1.947,2.367-3.817,3.678-5.646c36.372,36.35,61.926,85.543,102.662,116.556
			C116.918,169.562,115.457,171.023,116.193,171.991z M120.582,172.294c-17.078-21.3-36.586-40.443-53.521-61.88
			C51.07,90.173,36.335,68.743,16.314,52.227c1.315-1.734,2.77-3.369,4.247-4.985c14.275,21.17,31.145,42.587,50.735,58.906
			c0.118,0.099,0.243,0.146,0.366,0.205c0.634,2.934,1.92,5.684,3.969,7.665c0.902,0.872,1.887,1.449,2.912,1.827
			c0.256,2.403,3.625,4.467,5.076,5.942c5.917,6.021,12.273,11.608,18.248,17.577c8.378,8.37,14.334,23.139,24.689,29.231
			c0.418,0.246,0.9,0.124,1.276-0.134C125.496,169.858,123.096,171.17,120.582,172.294z M128.043,168.325
			c0.358-0.355,0.517-0.884,0.151-1.37c-6.17-8.208-12.409-16.716-19.083-24.54c-4.694-5.505-10.178-10.338-15.547-15.162
			c-2.707-2.433-5.468-4.807-8.186-7.226c-0.214-0.19-4.426-2.773-5.227-3.771c3.61,0.535,7.537-1.285,10.594-3.815
			c0.023,0.037,0.008,0.074,0.038,0.11c8.076,9.918,16.875,19.448,25.693,28.708c5.49,5.764,14.186,16.405,22.747,18.638
			C135.786,163.047,132.067,165.897,128.043,168.325z M141.21,157.964c-7.938-7.153-16.567-13.249-24.188-21.009
			c-8.297-8.448-15.971-17.958-25.063-25.567c1.047-1.013,1.947-2.094,2.632-3.161c1.962-3.062,1.768-6.463,0.342-9.51
			c9.297,8.9,18.062,18.375,26.957,27.656c3.637,3.796,19.469,24.694,25.511,22.502c-1.136,0.412-1.062,1.954,0.012,2.265
			C145.502,153.553,143.399,155.801,141.21,157.964z M152.049,144.556c-0.836,1.322-1.706,2.623-2.621,3.89
			c-19.457-16.171-35.676-36.065-53.84-53.642c-20.666-19.997-44.077-36.379-62.88-58.275c2.159-1.548,4.427-2.967,6.745-4.318
			C52.271,43.124,151.917,143.337,152.19,143.089C151.674,143.557,151.737,144.132,152.049,144.556z M163.702,109.886
			c-0.185-0.254-0.368-0.508-0.553-0.763c-0.733-1.013-2.289-0.418-2.025,0.854c-1.077-5.211-7.05-9.232-11.166-13.286
			c-8.913-8.779-17.777-17.503-26.476-26.515c-16.444-17.04-33.606-33.536-53.242-46.881c-0.36-0.245-0.812,0.335-0.467,0.606
			c20.413,15.976,38.191,34.363,55.908,53.219c10.104,10.753,23.079,28.964,36.514,35.586c0.379,0.188,0.791,0.146,1.182,0.02
			c-0.295,2.403-0.663,4.793-1.183,7.146c-5.411-6.061-13.049-11.438-18.856-16.652c-12.919-11.597-24.82-24.377-37.181-36.567
			c-9.842-9.705-19.82-19.289-29.968-28.672c-3.642-3.368-9.15-11.022-13.815-12.62c0.244,0.083,0.363-0.266,0.167-0.397
			c-0.326-0.217-0.651-0.433-0.977-0.651c-0.252-0.168-0.531,0.061-0.554,0.318c-0.662,7.317,28.424,29.932,32.104,33.581
			c14.214,14.091,28.037,28.614,42.455,42.49c6.954,6.693,18.321,19.324,26.235,20.634c-0.016,0.065-0.036,0.13-0.052,0.195
			c-0.69,0.239-0.849,1.113-0.465,1.746c-1.664,6.184-3.999,12.159-7.106,17.71c-12.459-18.95-34.307-36.229-50.396-51.812
			C83.699,69.722,63.577,47.884,41.005,31.307c9.83-5.466,20.896-9.161,32.44-10.586c8.31-1.025,16.269-0.659,23.822,0.79
			c-0.41,0.154-0.688,0.657-0.289,1.077c19.489,20.495,41.734,38.357,61.552,58.45c0.573,0.581,1.312,0.543,1.875,0.204
			c1.489,4.615,2.532,9.282,3.07,13.952c-13.46-15.099-27.321-29.284-42.527-42.684c-11.8-10.396-26.425-24.456-40.442-31.45
			c-0.58-0.289-1.096,0.179-1.011,0.777c0.088,0.614,0.176,1.229,0.263,1.843c0.03,0.209,0.313,0.157,0.372,0
			c-0.668,1.781,34.028,27.017,38.612,31.036c15.665,13.735,28.931,29.509,44.001,43.753c0.311,0.294,0.651,0.402,0.974,0.393
			C163.957,102.556,164.009,106.241,163.702,109.886z"/>
		<path d="M158.032,130.071c-15.601-22.936-41.072-41.527-60.84-60.768C87.059,59.44,76.749,49.767,66.616,39.903
			c-3.522-3.428-10.636-13.123-16.37-12.683c-0.195,0.015-0.279,0.222-0.153,0.37c13.276,15.665,30.156,29.583,44.761,44.054
			c12.176,12.064,25.205,23.195,37.047,35.573c5.158,5.392,9.849,11.759,15.646,16.456c1.755,1.57,3.472,3.182,5.149,4.835
			c0.717,1.483,1.477,2.082,2.271,1.985c0.059,0.286,0.218,0.57,0.521,0.797c0.253,0.189,0.505,0.379,0.757,0.567
			C157.297,132.647,158.744,131.118,158.032,130.071z"/>
		<path d="M150.495,27.469c-2.448-5.25-1.371-11.94-1.821-17.548c-0.153-1.907-2.759-2.356-3.363-0.455
			c-0.495,1.56-6.383,10.273-1.395,9.947c0.398-0.026,0.479-0.567,0.094-0.694c-0.37-0.122-0.392,0.24,0.162-0.561
			c0.27-0.391,0.506-0.817,0.748-1.236c-0.034,5.976,0.708,13.225,4.711,12.671C150.634,29.453,150.842,28.213,150.495,27.469z"/>
		<path d="M169.77,9.196c0.001-0.01,0.006-0.027,0.007-0.036c0.034-0.308-0.246-0.64-0.535-0.705
			c-2.577-0.577-4.369,4.614-5.316,8.364c-1.025-4.612-3.689-10.238-7.824-9.938c-1.087,0.079-1.971,1.249-1.311,2.284
			c0.234,0.369,0.554,0.653,0.855,0.953c-2.998,2.705-4.004,7.225-4.268,11.113c-0.226,3.313,0.446,9.057,4.627,9.634
			c3.556,0.491,5.99-2.188,7.292-5.293c0.699,2.998,2.618,5.443,6.387,5.286C178.399,30.496,177.648,11.309,169.77,9.196z
			 M159.715,24.696c-0.396,0.807-2.281,3.07-3.429,2.53c-2.017-0.948-1.694-5.679-1.604-7.394c0.147-2.749,0.971-5.768,2.693-8.009
			c0.038,0.041,0.082,0.072,0.12,0.113c1.482,1.649,2.217,3.972,2.739,6.074C160.777,20.198,160.715,22.654,159.715,24.696z
			 M169.247,27.227c-5.405,0.384-2.46-8.702-0.605-14.26c2.096,1.524,2.994,3.56,3.272,6.463
			C172.093,21.303,172.052,27.027,169.247,27.227z"/>
		<path d="M181.684,12.614c-0.204-0.49-0.355-0.884-0.759-1.244c-0.375-0.334-0.908-0.544-1.412-0.373
			c-0.361,0.122-0.652,0.317-0.992,0.48c-0.407,0.195-0.407,0.661-0.232,1.043c-0.013,0.037-0.021,0.05-0.034,0.094
			c-0.077,0.368-0.09,0.74-0.04,1.114c0.048,1.306,1.588,1.972,2.55,1.057c0.154-0.147,0.308-0.293,0.463-0.44
			C181.64,13.952,181.916,13.17,181.684,12.614z"/>
		<path d="M188.78,8.506c-2.354,1.081-3.908,5.641-5.077,7.757c-1.938,3.507-3.834,7.071-5.228,10.834
			c-0.505,1.365,1.675,2.258,2.334,0.984c1.787-3.453,3.801-6.788,5.853-10.089c1.358-2.188,4.525-5.382,4.584-8.071
			C191.275,8.58,189.856,8.013,188.78,8.506z"/>
		<path d="M188.94,19.88c-1.379-0.609-3.411,0.771-2.32,2.321c0.317,0.452,0.304,1.208,0.388,1.725
			c0.016,0.096,0.099,0.137,0.138,0.216c0.009,0.404,0.044,0.803,0.258,1.092c0.652,0.882,1.77,1.123,2.624,0.338
			C191.877,23.873,191.081,20.825,188.94,19.88z"/>
	</g>
</g>
<g>
</g>
<g>
</g>
<g>
</g>
<g>
</g>
<g>
</g>
<g>
</g>
<g>
</g>
<g>
</g>
<g>
</g>
<g>
</g>
<g>
</g>
<g>
</g>
<g>
</g>
<g>
</g>
<g>
</g>
</svg>
