<?xml version="1.0" encoding="iso-8859-1"?>
<!-- Generator: Adobe Illustrator 16.0.0, SVG Export Plug-In . SVG Version: 6.00 Build 0)  -->
<!DOCTYPE svg PUBLIC "-//W3C//DTD SVG 1.1//EN" "http://www.w3.org/Graphics/SVG/1.1/DTD/svg11.dtd">
<svg version="1.1" id="Capa_1" xmlns="http://www.w3.org/2000/svg" xmlns:xlink="http://www.w3.org/1999/xlink" x="0px" y="0px"
	 width="192.219px" height="192.219px" viewBox="0 0 192.219 192.219" style="enable-background:new 0 0 192.219 192.219;"
	 xml:space="preserve">
<g>
	<g>
		<path d="M191.771,86.906c0.173-1.251-1.385-2.207-2.192-1.171c0.512-3.673-7.209-8.715-9.3-10.454
			c-3.885-3.231-10.604-9.735-16.154-9.001c-4.792,0.634-9.096,7.928-11.702,11.313c-2.396,3.112-4.753,6.254-7.058,9.435
			c-0.242,0.334-1.088,1.483-1.724,2.472c-5.891-5.305-12.938-9.004-19.304-13.7c-0.588-0.434-1.617-0.262-2.087,0.27
			c-3.661,4.141-7.468,8.149-11.34,12.092c-2.263,2.304-5.406,4.597-6.888,7.554c-3.057-3.968-6.1-7.948-9.267-11.827
			c-0.606-0.742-1.866-0.63-2.491,0c-2.358,2.379-4.711,4.75-7.059,7.132c-0.477-0.215-1.067,0.23-0.811,0.819
			c-2.815,2.855-5.626,5.721-8.463,8.552c-0.026,0.033-0.066,0.047-0.086,0.086c-1.185,1.182-2.353,2.382-3.549,3.554
			c-0.358-0.165-0.716,0.188-0.55,0.543c-1.445,1.409-2.836,2.868-4.312,4.25c-0.859-2.606-2.693-5.024-3.931-7.377
			c-0.442-0.841-1.875-1.12-2.506-0.323c-1.917,2.421-4.386,4.327-6.384,6.67c-3.348-7.043-7.964-13.368-12.789-19.478
			c-0.552-0.7-1.613-0.5-2.195,0c-7.686,6.601-14.67,14.106-20.768,22.204c-4.02-2.8-7.859-7.082-12.478-8.798
			c-0.116-7.531-0.439-15.045-1.157-22.484c0.103-2.47,0.133-4.942,0.088-7.415c0.231-0.228,0.417-0.53,0.459-0.954
			c0.992-10.1,0.353-20.521,0.335-30.671c-0.003-1.936-3.078-2.458-3.452-0.467c-1.45,7.727-1.409,15.458-0.871,23.19
			c-0.328,0.145-0.6,0.394-0.56,0.815c2.71,28.337,0.009,56.431,1.104,84.726c-0.653,0.293-1.33,0.559-1.944,0.897
			c-0.797,0.439-0.249,1.665,0.609,1.443c0.512-0.132,1.048-0.224,1.567-0.342c0.475,1.115,2.258,1.021,2.339-0.419
			c0.002-0.031,0.004-0.062,0.005-0.093c22.064-4.155,50.354,2.323,72.025,3.153c37.224,1.424,74.884,0.055,112.156,0.066
			c1.11,0.001,1.654-0.868,1.641-1.727c0.14-0.186,0.279-0.378,0.284-0.687c0.167-11.692,1.445-23.382,1.167-35.075
			C191.949,105.918,190.418,96.686,191.771,86.906z M187.753,86.912c0.481,0.212,0.925,0.098,1.291-0.164
			c-0.417,0.948-0.673,1.957-0.921,2.968c-1.921-3.141-5.521-5.696-8.164-7.79c-4.944-3.916-10.188-7.422-15.107-11.377
			C172.82,68.97,181.163,83.999,187.753,86.912z M163.471,71.004c0.024,0.122,0.04,0.245,0.159,0.359
			c3.924,3.734,8.461,6.838,12.722,10.166c4.342,3.392,7.615,7.137,11.258,11.156c-0.072,0.636-0.194,1.256-0.228,1.903
			c-3.642-3.751-8.284-6.905-12.181-10.303c-4.572-3.987-9.05-8.08-13.585-12.108C162.231,71.656,162.85,71.286,163.471,71.004z
			 M157.673,76.978c4.593,4.022,9.245,7.976,13.809,12.03c5.075,4.508,9.306,9.906,14.329,14.383
			c0.428,0.382,1.194,0.021,1.006-0.585c-1.609-5.175-7.562-9.307-11.427-12.743c-5.499-4.887-11.261-9.474-17.015-14.059
			c0.961-1.331,1.742-2.391,2.182-2.876l0.001-0.001c4.386,4.217,8.817,8.391,13.325,12.475c4.13,3.74,8.473,8.402,13.445,11.071
			c0.017,3.539,0.455,7.145,0.766,10.492c-0.383-0.138-0.81-0.131-1.221,0.154c-0.327,0.227-0.653,0.442-0.98,0.667
			c-4.861-4.675-9.929-9.125-14.709-13.908c-4.944-4.947-9.508-10.697-14.897-15.173C156.774,78.231,157.239,77.583,157.673,76.978z
			 M155.778,79.606c3.43,5.435,8.704,10.145,13.069,14.758c4.4,4.652,9.642,11.673,15.613,14.597
			c-0.87,0.589-1.74,1.183-2.609,1.775c-5.69-6.668-12.829-12.478-19.613-17.955c-2.243-1.811-4.406-3.715-6.551-5.64
			c-0.944-0.847-4.495-3.349-1.612-1.898c0.146,0.074,0.275-0.141,0.129-0.221c-4.441-2.437,1.069,3.63,1.835,4.363
			c7.954,7.616,16.349,14.688,24.176,22.463c-2.229,1.516-4.457,3.056-6.694,4.553c-3.346-4.863-8.477-8.817-12.85-12.685
			c-4.807-4.25-9.708-8.391-14.584-12.561C148.887,88.916,152.7,83.854,155.778,79.606z M123.54,79.786
			c0.321-0.349,4.753,2.976,5.114,3.213c4.712,3.094,9.379,5.948,13.579,9.762c1.121,1.018,2.579,0.2,2.865-0.902
			c0.033-0.02,0.073-0.054,0.107-0.075c4.651,4.49,9.452,8.815,14.219,13.18c4.328,3.966,8.354,8.569,12.964,12.208
			c-0.832,0.554-1.647,1.143-2.483,1.689c0.103-0.276,0.108-0.576-0.181-0.81c-15.256-12.266-30.408-24.792-45.309-37.431
			c-0.252-0.214-0.627-0.013-0.553,0.322c0.435,1.971,2.919,3.589,4.276,4.842c4.516,4.168,9.169,8.191,13.817,12.209
			c8.428,7.283,17.027,15.801,26.729,21.405c0.111,0.064,0.224,0.034,0.337,0.042c-1.317,0.854-2.601,1.756-3.938,2.585
			c-12.73-15.281-31.094-24.518-45.584-37.974C120.877,82.658,122.215,81.229,123.54,79.786z M93.364,87.78
			c3.214,4.037,6.273,8.202,9.644,12.109c1.254,1.451,3.851-0.53,2.672-2.061c-0.238-0.309-0.483-0.611-0.722-0.92
			c1.853-0.557,3.685-1.807,5.449-3.33c1.39,4.28,5.535,7.725,8.744,10.584c2.098,1.869,4.312,3.602,6.532,5.321
			c1.173,0.908,2.536,2.383,4.019,2.717c0.62,0.14,1.064-0.472,0.79-1.028c-0.57-1.156-2.042-1.933-3.05-2.675
			c-2.149-1.579-4.271-3.191-6.361-4.847c-3.783-2.995-7.706-6.341-9.968-10.681c1.306-1.194,2.552-2.523,3.746-3.837
			c1.214,3.734,4.742,7.007,7.334,9.662c2.08,2.13,4.272,4.15,6.505,6.119c1.359,1.199,3.401,3.489,5.268,3.777
			c0.661,0.102,1.177-0.481,0.858-1.116c-0.744-1.488-2.706-2.493-3.97-3.547c-1.999-1.666-3.967-3.359-5.885-5.12
			c-3.325-3.053-7.184-6.509-9.395-10.552c1.199-1.339,2.3-2.584,3.316-3.651c13.492,14.323,30.805,24.3,44.757,38.204
			c-0.788,0.479-1.558,0.98-2.355,1.447c-0.127-0.254-0.31-0.495-0.628-0.682c-7.711-4.512-14.59-10.009-20.987-16.231
			c-0.716-0.695-1.738-0.629-2.461,0c-2.501,2.179-6.975,5.072-10.535,8.311c-2.221-3.753-7.057-6.743-10.304-9.46
			c-2.129-1.781-4.251-3.577-6.249-5.506c-1.235-1.193-2.238-2.814-3.608-3.82c-0.218-0.159-0.502,0.06-0.509,0.292
			c-0.103,3.347,5.138,7.055,7.312,8.97c2.221,1.956,4.516,3.828,6.774,5.739c1.83,1.55,3.508,3.455,5.456,4.857
			c-1.402,1.398-2.602,2.845-3.339,4.327c-2.08-3.243-4.468-6.322-7.522-8.698c-0.592-0.461-1.351-0.627-1.996-0.287
			c-2.705-4.233-7.551-8.11-10.992-11.478c-2.889-2.826-7.672-8.321-12.174-9.167C90.815,90.28,92.107,89.044,93.364,87.78z
			 M88.899,92.138c4.178,3.56,8.395,6.828,12.278,10.797c3.079,3.147,6.297,7.968,10.069,10.6c-0.706,0.736-1.406,1.458-2.146,2.264
			c-6.615-8.012-15.47-13.859-21.789-22.11C87.843,93.174,88.367,92.653,88.899,92.138z M86.133,94.838
			c5.515,8.689,14.678,14.975,21.764,22.297c-0.983,1.144-1.905,2.349-2.698,3.596c-0.986-1.334-2.271-2.483-3.441-3.648
			c-1.128-1.126-2.349-2.134-3.604-3.105c-2.407-4.238-4.814-8.477-7.371-12.629c-0.63-1.024-1.948-1.143-2.819-0.363
			c-0.091,0.082-0.184,0.162-0.276,0.244c-0.635-0.483-1.289-0.945-1.881-1.434c-0.862-0.712-1.761-1.372-2.637-2.062
			C84.164,96.773,85.139,95.798,86.133,94.838z M82.174,98.702c0.832,0.743,1.676,1.47,2.495,2.229
			c0.527,0.486,1.059,1.026,1.61,1.547c-0.79,0.699-1.579,1.401-2.37,2.102c-0.018-0.017-0.022-0.043-0.042-0.058
			c-0.968-0.729-2.159-1.197-3.208-1.811c-0.536-0.312-1.053-0.656-1.576-0.992C80.133,100.734,81.133,99.699,82.174,98.702z
			 M77.884,102.845c1.503,1.194,3.178,2.35,4.896,2.736c-1.156,1.023-2.309,2.05-3.465,3.074c-1.639-0.831-3.183-1.716-4.656-2.781
			C75.758,104.893,76.803,103.849,77.884,102.845z M73.741,106.688c1.259,1.214,2.682,2.396,4.199,3.188
			c-0.811,0.723-1.631,1.436-2.437,2.163c-0.039-0.112-0.11-0.218-0.247-0.294c-1.557-0.865-2.935-1.615-4.199-2.684
			C71.966,108.288,72.845,107.478,73.741,106.688z M67.255,111.943c0.246-0.018,0.495-0.084,0.727-0.271
			c0.723-0.58,1.407-1.207,2.118-1.801c1.235,1.387,2.834,2.506,4.613,2.882c-1.17,1.064-2.369,2.096-3.515,3.188
			c-1.401-1.271-2.834-2.532-4.302-3.777C67.019,112.099,67.146,112.039,67.255,111.943z M61.633,104.744
			c0.918,1.747,1.803,3.504,2.668,5.279c-1.506-1.214-3.033-2.376-4.577-3.486C60.366,105.945,60.96,105.3,61.633,104.744z
			 M58.823,107.384c3.663,3.211,6.982,7.09,10.916,9.932c-0.5,0.482-0.99,0.952-1.546,1.501c-0.944-1.599-3.254-2.727-4.678-3.691
			c-2.45-1.66-4.953-3.405-7.014-5.561C57.241,108.807,58.055,108.12,58.823,107.384z M40.489,91.685
			c3.319,4.44,6.505,8.95,9.225,13.75c-1.48-1.626-3.268-3.046-4.901-4.423c-2.54-2.143-5.189-4.154-7.787-6.227
			C38.158,93.733,39.302,92.69,40.489,91.685z M36.106,95.646c2.224,2.006,4.524,3.919,6.789,5.877
			c2.538,2.192,4.697,4.876,7.283,6.974c0.363,0.294,0.83,0.187,1.098-0.09c0.543,1.07,1.111,2.123,1.597,3.229
			c0.76,1.733,3.008,0.558,2.893-1.076c1.503,1.81,3.354,3.301,5.232,4.733c1.813,1.384,4.048,3.557,6.229,4.487
			c-1.155,1.194-2.315,2.508-3.255,3.879c-9.221-9.09-19.537-18.944-31.145-24.83C33.905,97.755,34.999,96.695,36.106,95.646z
			 M32.003,99.658c11.59,7.036,19.906,18.031,31.04,25.533c-0.383,0.724-0.712,1.453-0.899,2.187
			c-6.149-5.284-13.441-13.338-21.644-16.569c-0.193-0.105-0.384-0.21-0.573-0.323c-1.57-0.936-3.087-1.961-4.594-2.993
			c-2.08-1.426-4.148-3.392-6.347-4.795C29.977,101.668,30.998,100.671,32.003,99.658z M27.78,103.956
			c1.482,1.642,3.743,3.05,5.29,4.21c0.604,0.453,1.233,0.87,1.843,1.312c-1.859-0.155-3.752-0.042-5.689,0.489
			c-0.261,0.072-0.589,0.21-0.904,0.335c-1.442-0.776-2.706-1.617-3.883-2.858C25.534,106.259,26.671,105.124,27.78,103.956z
			 M23.748,108.194c0.794,1.099,1.813,2.092,2.987,2.837c-1.337,0.684-2.885,1.598-4.559,2.703
			c-0.667-0.549-1.317-1.117-2.015-1.635C21.358,110.788,22.552,109.491,23.748,108.194z M6.451,104.439
			c3.843,2.986,7.419,6.311,11.385,9.137c0.757,0.539,1.475,0.201,1.887-0.396c0.475,0.414,0.947,0.822,1.436,1.222
			c-1.351,0.927-2.732,1.922-4.117,3.011c-0.303-0.229-0.639-0.43-0.962-0.68c-1.258-0.974-2.394-2.115-3.531-3.224
			c-1.998-1.946-3.945-3.95-6.142-5.674C6.422,106.704,6.46,105.572,6.451,104.439z M6.389,109.298
			c1.911,1.854,3.673,3.866,5.461,5.834c0.768,0.846,2.119,2.676,3.528,3.634c-0.893,0.742-1.772,1.5-2.611,2.271
			c-0.978-0.935-1.996-1.839-2.91-2.827c-1.308-1.414-2.45-2.964-3.524-4.559C6.357,112.199,6.363,110.748,6.389,109.298z
			 M6.161,123.019c0.685,1.024,1.507,1.778,2.471,1.834c0.376,0.021,0.602-0.431,0.423-0.736c-0.552-0.942-1.508-1.647-2.14-2.562
			c-0.256-0.371-0.45-0.783-0.669-1.179c0.038-1.386,0.024-2.772,0.054-4.159c1.439,2.229,3.152,4.474,5.133,6.085
			c-2.457,2.413-4.475,4.854-5.475,6.991C6.045,127.206,6.092,125.11,6.161,123.019z M5.05,147.393
			c0.012-0.221,0.024-0.443,0.036-0.664c0.187-0.009,0.356-0.107,0.291-0.34c-0.023-0.083,1.636-1.304,3.375-2.558
			c0.732,0.715,1.573,1.458,2.479,2.085C9.069,146.278,6.985,146.743,5.05,147.393z M13.369,145.605
			c-1.135-0.886-2.374-1.662-3.542-2.543c1.273-0.912,2.408-1.716,2.735-1.953c0.084-0.062,0.173-0.115,0.258-0.175
			c1.106,1.552,2.355,3.111,3.767,4.44C15.515,145.454,14.404,145.476,13.369,145.605z M18.166,145.263
			c-1.404-1.697-2.979-3.257-4.325-5.021c0.621-0.437,1.26-0.847,1.885-1.279c2.421,2.129,5.069,4.318,7.852,6.227
			C21.749,145.17,19.929,145.172,18.166,145.263z M31.26,145.519c-1.569-1.81-3.676-3.354-5.407-4.941
			c-1.026-0.942-2.037-1.897-3.074-2.828c-0.38-0.34-0.87-0.455-1.165-0.689c-0.205-0.164-0.452,0.082-0.287,0.287
			c0.238,0.297,0.35,0.778,0.698,1.155c0.943,1.024,1.925,2.008,2.909,2.993c1.187,1.188,2.514,2.695,3.961,3.895
			c-0.847-0.046-1.702-0.11-2.542-0.14c-3.389-2.175-6.882-4.181-10.123-6.631c2.098-1.443,4.198-2.886,6.323-4.289
			c2.508,3.305,4.888,6.715,7.765,9.715c0.07,0.073,0.148,0.099,0.221,0.154c-0.067,0.724,0.712,1.509,1.407,0.972
			c0.962-0.741,1.919-1.488,2.877-2.233c1.107,1.137,2.352,2.309,3.699,3.227C36.102,145.914,33.675,145.685,31.26,145.519z
			 M43.768,146.749c-0.021-0.01-0.03-0.033-0.053-0.039c-3.133-0.9-5.498-2.569-7.787-4.62c0.996-0.77,2.012-1.51,3.021-2.261
			c-0.108,0.168-0.134,0.389,0.041,0.541c2.009,1.745,4.089,3.39,6.226,4.974c0.706,0.523,1.57,1.268,2.492,1.896
			C46.396,147.074,45.1,146.908,43.768,146.749z M51.114,147.662c-0.025-0.043,0.015-0.096-0.026-0.133
			c-1.336-1.189-3.184-1.957-4.678-2.949c-2.346-1.557-4.608-3.249-6.883-4.908c-0.096-0.069-0.198-0.079-0.292-0.059
			c1.31-0.97,2.643-1.909,3.997-2.817c0.007,0.012,0.002,0.023,0.01,0.033c2.201,2.792,4.793,5.223,7.43,7.595
			c1.297,1.166,2.623,2.477,4.011,3.686C53.505,147.963,52.326,147.816,51.114,147.662z M68.909,149.46
			c-3.207-0.12-6.872-0.484-10.774-0.938c-1.873-1.934-4.338-3.514-6.381-5.178c-2.712-2.21-5.255-4.573-7.703-7.069
			c0.702-0.456,1.393-0.926,2.117-1.353c4.035,4.188,7.884,8.551,11.968,12.692c0.665,0.675,1.486,0.551,2.059,0.096
			c0.244-0.028,0.483-0.125,0.676-0.352c1.096-1.287,2.16-2.6,3.236-3.902c1.721,1.851,3.972,4.517,6.443,6.052
			C70.003,149.488,69.455,149.48,68.909,149.46z M73.937,149.606c-0.032-0.035-0.036-0.079-0.078-0.111
			c-1.564-1.195-3.452-1.911-5.035-3.162c-1.429-1.129-2.75-2.402-4.076-3.649c0.84-1.023,1.665-2.058,2.499-3.085
			c2.219,2.371,4.493,4.696,6.871,6.909c1.012,0.942,2.198,2.117,3.469,3.164C76.371,149.639,75.152,149.646,73.937,149.606z
			 M81.256,149.738c-1.86-1.574-4.127-2.869-5.949-4.42c-2.51-2.137-4.882-4.422-7.293-6.667c1.052-1.3,2.108-2.597,3.159-3.898
			c2.012,3.059,4.267,5.922,6.789,8.604c2.012,2.14,4.234,4.504,6.675,6.426C83.51,149.759,82.382,149.766,81.256,149.738z
			 M87.89,149.825c-5.413-5.329-11.408-9.796-16.082-15.856c0.875-1.083,1.762-2.155,2.64-3.235
			c2.571,3.562,5.687,6.757,8.779,9.845c3.039,3.035,6.267,6.584,9.789,9.294C91.309,149.849,89.597,149.855,87.89,149.825z
			 M96.005,149.899c-2.944-3.54-7.17-6.384-10.562-9.491c-3.646-3.339-6.966-6.926-10.231-10.611
			c1.438-1.761,2.939-3.472,4.402-5.214c6.664,8.771,13.908,18.753,22.66,25.35C100.186,149.915,98.095,149.924,96.005,149.899z
			 M105.434,149.948c-8.184-8.879-16.74-17.481-25.003-26.332c1.215-1.434,2.386-2.903,3.637-4.308
			c5.35,8.027,10.751,16.012,16.491,23.771c1.123,1.519,3.442,0.498,3.334-0.946c1.688,1.604,3.356,3.229,5.017,4.863
			c0.962,0.948,1.959,2,3.032,2.941C109.771,149.933,107.602,149.961,105.434,149.948z M115.215,149.934
			c-1.72-1.721-3.878-3.186-5.643-4.809c-1.283-1.18-2.565-2.354-3.866-3.508c0.342-0.088,0.696-0.207,1.099-0.456
			c0.936-0.578,1.864-1.167,2.798-1.749c1.705,2.152,3.491,4.203,5.449,6.131c1.509,1.486,3.2,3.206,5.087,4.377
			C118.498,149.92,116.856,149.937,115.215,149.934z M122.756,149.912c-0.02-0.153-0.062-0.304-0.16-0.424
			c-1.681-2.059-4.214-3.506-6.196-5.292c-1.94-1.748-3.743-3.66-5.496-5.597c1.089-0.684,2.181-1.36,3.269-2.044
			c0.407-0.257,0.82-0.518,1.229-0.774c4.512,5.086,9.229,11.032,15.211,14.105C127.993,149.895,125.375,149.91,122.756,149.912z
			 M131.848,149.883c0.332-0.286,0.475-0.762,0.058-1.145c-2.66-2.445-5.656-4.506-8.337-6.943
			c-2.402-2.184-4.719-4.462-7.062-6.711c1.689-1.066,3.399-2.123,5.124-3.157c-0.135,0.191-0.182,0.446,0.029,0.665
			c3.221,3.352,6.31,6.826,9.484,10.221c2.174,2.324,4.551,5.118,7.296,7.046C136.241,149.867,134.045,149.877,131.848,149.883z
			 M141.312,149.85c-2.836-2.856-6.225-5.257-9.112-8.094c-3.312-3.255-6.459-6.676-9.774-9.929
			c-0.116-0.115-0.247-0.151-0.373-0.147c1.543-0.918,3.103-1.803,4.688-2.628c6.922,6.593,13.004,14.783,20.512,20.788
			C145.271,149.847,143.293,149.842,141.312,149.85z M151.099,149.832c-7.711-7.055-15.137-14.733-23.266-21.296
			c1.296-0.646,2.597-1.284,3.934-1.82c0.058-0.023,0.091-0.066,0.145-0.094c1.333,2.616,4.309,4.854,6.216,6.812
			c3.956,4.062,7.981,8.059,11.981,12.077c0.5,0.503,1.29,0.603,1.911,0.3c1.959,1.478,4.013,2.93,6.094,4.008
			C155.773,149.829,153.438,149.823,151.099,149.832z M158.638,149.819c0.326-0.155,0.517-0.575,0.19-0.901
			c-1.624-1.625-3.793-2.771-5.891-3.94c1.118-1.209,2.107-2.512,3.124-3.793c1.259,1.381,2.644,2.659,4.021,3.909
			c1.551,1.407,3.189,3.273,5.119,4.118c0.554,0.242,1.408-0.318,0.947-0.946c-1.166-1.588-3.021-2.631-4.576-3.82
			c-1.679-1.283-3.265-2.671-4.894-4.01c1.105-1.424,2.194-2.866,3.284-4.306c4.261,5.142,9.126,10.584,15.065,13.661
			C169.564,149.802,164.104,149.798,158.638,149.819z M160.683,135.189c0.483-0.639,0.966-1.273,1.456-1.909
			c3.102,3.129,5.393,6.865,8.036,10.352C166.855,141.036,163.703,138.265,160.683,135.189z M177.086,149.787
			c0.229-0.405,0.189-0.959-0.334-1.317c-0.608-0.417-1.183-0.849-1.779-1.271c1.512-0.958,3.449-1.88,5.435-2.871
			c1.114,1.095,2.232,2.179,3.434,3.186c0.851,0.711,1.732,1.583,2.694,2.258C183.388,149.771,180.235,149.783,177.086,149.787z
			 M184.922,146.434c-1.117-0.865-2.166-1.817-3.225-2.757c0.756-0.391,1.498-0.803,2.225-1.228
			c1.719,0.967,2.935,2.312,4.399,3.635c0.051,1.046,0.091,2.093,0.172,3.141C187.531,148.095,186.081,147.329,184.922,146.434z
			 M185.32,141.59c1.056-0.699,2.026-1.453,2.827-2.291c-0.002,1.328,0.025,2.655,0.061,3.983
			C187.36,142.593,186.31,142.022,185.32,141.59z M188.198,134.955c-0.192,0.03-0.388,0.093-0.585,0.229
			c-4.307,2.961-8.762,5.589-13.168,8.392c-3.635-4.122-6.59-8.879-10.968-12.244c0.444-1.538-1.483-3.183-2.663-1.719
			c-3.271,4.056-6.163,8.388-9.613,12.29c-3.183-3.173-6.358-6.354-9.561-9.505c-2.417-2.378-5.42-6.483-8.782-7.732
			c-0.153-0.899-0.886-1.644-1.996-1.229c-5.733,2.144-11.005,5.576-16.143,8.849c-2.684,1.709-5.338,3.462-7.956,5.267
			c-1.029,0.711-1.885,1.786-2.727,2.631c-0.251-0.209-0.488-0.435-0.743-0.64c-0.324-0.26-0.698-0.181-0.958,0.021
			c-5.753-7.824-11.224-15.837-16.625-23.908c-0.582-0.87-1.902-1.203-2.678-0.345c-1.721,1.903-3.391,3.854-5.052,5.813
			c-0.337-0.155-0.666,0.219-0.509,0.586c-6.224,7.389-12.063,15.119-17.7,22.951c-4.12-4.241-8.072-8.641-12.23-12.846
			c-0.476-0.482-1.312-0.624-1.896-0.244c-4.071,2.646-7.794,5.723-11.396,8.953c-0.071-0.069-0.141-0.128-0.212-0.198
			c-0.577-0.562-1.446,0.306-0.883,0.883c0.044,0.045,0.094,0.1,0.138,0.145c-0.203,0.185-0.42,0.353-0.622,0.539
			c-0.032-0.04-0.039-0.084-0.076-0.124c-3.119-3.351-5.757-7.082-8.591-10.668c-0.411-0.521-1.367-0.603-1.898-0.245
			c-2.157,1.453-13.785,8.143-16.854,12.816c0.19-3.461,0.365-6.942,0.528-10.432c0.043,0.004,0.055,0.065,0.102,0.058
			c2.719-0.388,4.357-3.597,6.148-5.483c4.305-4.533,9.198-8.698,14.315-12.269c13.571-9.469,23.539,9.239,34.343,14.337
			c0.474,0.225,0.976,0.148,1.388-0.076c0.283,0.475,0.922,0.601,1.413,0.197c4.097-3.362,7.171-8.653,11.11-12.433
			c4.553-4.369,9.436-8.382,14.174-12.549c4.426,7.437,8.197,15.313,13.263,22.334c0.631,0.875,1.666,0.909,2.388,0.489
			c0.491-0.084,0.966-0.322,1.147-0.854c1.459-4.254,4.782-7.785,7.976-10.967c2.475,2.272,4.512,4.896,6.294,7.78
			c0.689,1.113,1.997,0.95,2.723,0.253c2.303-1.216,4.145-3.509,6.104-5.2c3.148-2.72,6.442-5.273,9.679-7.889
			c6.085,5.913,12.796,11.642,20.432,15.37c-0.062,0.739,0.72,1.524,1.622,1.111c9.762-4.476,19.793-10.156,27.901-17.298
			C188.816,118.432,188.363,126.695,188.198,134.955z"/>
		<path d="M176.145,111.632c-7.563-8.775-17.22-15.696-25.844-23.373c-0.598-0.532-1.476,0.332-0.883,0.883
			c8.527,7.911,17.242,15.516,25.514,23.703C175.727,113.632,176.858,112.46,176.145,111.632z"/>
	</g>
</g>
<g>
</g>
<g>
</g>
<g>
</g>
<g>
</g>
<g>
</g>
<g>
</g>
<g>
</g>
<g>
</g>
<g>
</g>
<g>
</g>
<g>
</g>
<g>
</g>
<g>
</g>
<g>
</g>
<g>
</g>
</svg>
