<?xml version="1.0" encoding="iso-8859-1"?>
<!-- Generator: Adobe Illustrator 16.0.0, SVG Export Plug-In . SVG Version: 6.00 Build 0)  -->
<!DOCTYPE svg PUBLIC "-//W3C//DTD SVG 1.1//EN" "http://www.w3.org/Graphics/SVG/1.1/DTD/svg11.dtd">
<svg version="1.1" id="Capa_1" xmlns="http://www.w3.org/2000/svg" xmlns:xlink="http://www.w3.org/1999/xlink" x="0px" y="0px"
	 width="190.245px" height="190.245px" viewBox="0 0 190.245 190.245" style="enable-background:new 0 0 190.245 190.245;"
	 xml:space="preserve">
<g>
	<g>
		<path d="M188.745,52.133c-61.166-1.669-122.477-1.224-183.667-1.765c-0.951-0.008-1.268,0.784-1.107,1.486
			c-0.188,0.048-0.387,0.077-0.536,0.195c-5.079,4.025-2.997,19.315-3.093,24.762c-0.345,19.578,4.039,38.846,5.01,58.357
			c0.062,1.25,1.562,1.334,2.022,0.407c13.792-1.276,27.402,0.283,41.203,0.686c17.532,0.511,35.039-1.168,52.562-1.477
			c27.518-0.483,56.736,8.036,83.89,4.007c0.828-0.122,1.165-0.85,1.13-1.576c0.632-0.127,1.263-0.254,1.895-0.381
			c0.908-0.118,1.655-0.67,1.665-1.666c0.289-26.858-3.769-53.09-0.882-79.936C190.746,55.153,190.714,52.186,188.745,52.133z
			 M185.612,55.228c-1.212,5.39-1.757,10.861-1.959,16.36c-1.865-0.069-3.688,0.632-5.636,0.515
			c-2.732-0.164-5.419-1.336-7.782-2.622c-5.392-2.932-9.226-8.198-9.489-14.361C169.04,55.113,177.331,55.131,185.612,55.228z
			 M5.688,53.358c0.071-0.175,0.008-0.299,0.009-0.449c4.962,0.369,9.933,0.619,14.902,0.894c-0.253,1.063-0.352,2.177-0.651,3.238
			c-0.638,2.264-1.906,4.324-3.233,6.24c-3.097,4.471-7.847,7.699-13.318,7.761C3.319,64.741,3.693,58.247,5.688,53.358z
			 M7.623,133.282c0.293-6.589-0.143-13.128-0.808-19.654c5.246,1.082,9.441,3.524,13.126,7.616
			c1.843,2.047,3.231,4.579,4.141,7.163c0.41,1.167,0.467,2.38,0.679,3.555C19.067,131.948,13.375,132.234,7.623,133.282z
			 M93.632,131.318c-15.043,0.264-29.991,1.573-45.053,1.375c-6.849-0.09-13.576-0.554-20.283-0.703
			c0.682-4.121-3.082-9.607-5.235-12.344c-3.821-4.858-10.194-8.448-16.487-8.238c-1.028-9.42-2.421-18.823-2.747-28.324
			c-0.093-2.698-0.261-5.795-0.364-9.008c5.863,0.567,11.03-2.678,14.886-6.991c2.326-2.602,6.597-8.772,5.864-13.064
			c44.711,2.284,89.67,1.18,134.479,1.105c-1.082,6.716,2.59,12.259,7.898,16.29c3.342,2.537,12.41,6.51,16.977,3.725
			c-0.061,5.257,0.131,10.529,0.349,15.772c0.184,4.421,1.831,13.551,2.589,22.553c-13.378-2.648-28.415,9.607-31.335,22.083
			c-0.023,0.1,0.039,0.176,0.041,0.271C134.689,134.464,113.835,130.964,93.632,131.318z M183.281,135.739
			c-8.456,0.803-17.056,0.714-25.72,0.214c2.71-5.514,6.071-10.152,11.076-13.854c5.601-4.142,11.543-4.615,18.094-5.396
			C187.201,124.916,186.676,132.53,183.281,135.739z"/>
		<path d="M86.239,63.616c-19.316-1.423-36.36,12.096-35.984,31.779c0.41,21.488,19.439,28.969,37.409,28.812
			c0.139,0.305,0.35,0.591,0.73,0.801c15.377,8.499,28.104-19.119,29.634-29.619C120.842,76.075,103.305,64.873,86.239,63.616z
			 M109.284,109.925c-2.256,4.149-9.183,12.09-15.389,12.604c-0.088-0.506-0.425-0.976-1.127-1.036
			c-16.8-1.438-31.679-2.07-37.881-20.856c-5.522-16.729,8.152-29.485,23.152-32.78c15.25-3.348,34.554,4.947,36.477,21.767
			C115.318,96.629,112.548,103.92,109.284,109.925z"/>
		<path d="M101.466,76.756c-1.857-2.162-4.58-3.319-7.538-3.852c0.01-0.881,0.049-1.771,0.028-2.641
			c-0.035-1.402-1.867-1.535-2.332-0.315c-0.321,0.842-0.554,1.726-0.753,2.625c-1.712-0.079-3.433-0.014-5.059,0.174
			c0.183-1.285,0.377-2.567,0.52-3.864c0.124-1.124-1.294-1.368-1.976-0.819c-1.405,1.131-2.234,3.135-2.769,5.442
			c-4.387,1.162-10.617,4.533-9.575,9.836c0.819,4.164,4.44,6.76,8.48,8.547c-0.157,5.379-0.132,10.818,0.175,16.222
			c-2.911-0.414-5.768-1.514-8.042-2.917c-1.073-0.663-2.376,0.955-1.368,1.773c2.745,2.225,6.122,3.62,9.601,4.099
			c0.159,2.062,0.338,4.119,0.593,6.151c0.15,1.192,1.919,1.274,1.923,0c0.005-1.996-0.017-3.989-0.031-5.984
			c1.324,0.006,2.639-0.154,3.931-0.43c-0.185,0.646-0.298,1.306-0.51,1.948c-0.498,1.505,1.811,2.097,2.345,0.646
			c0.42-1.141,0.72-2.301,1.044-3.458c0.751-0.312,1.484-0.679,2.191-1.115c4.684-2.889,8.414-12.014,2.477-15.585
			c-0.461-0.277-1.204-0.587-2.106-0.924c0.004-0.06,0.009-0.12,0.013-0.18c0.295-4.844,0.812-9.866,1.076-14.824
			c2.229,0.597,4.354,1.336,6.147,2.052C101.535,79.993,102.374,77.812,101.466,76.756z M80.616,87.707
			c-3.943-1.99-6.508-4.431-4.04-7.411c1.251-1.51,2.757-2.51,4.404-3.159C80.581,81.062,80.712,85.181,80.616,87.707z
			 M83.328,108.288c-0.039-5.082-0.063-10.163,0.068-15.249c1.909,0.665,3.791,1.2,5.41,1.65c0.303,0.084,0.634,0.182,0.959,0.275
			c-0.25,4.137-0.697,8.25-1.562,12.292C86.682,107.938,85.023,108.258,83.328,108.288z M94.164,97.967
			c0.938,2.443-0.932,5.31-2.896,7.183c0.553-2.988,0.928-6.011,1.171-9.06C93.184,96.549,93.837,97.115,94.164,97.967z
			 M90.105,87.198c-0.039,1.379-0.1,2.76-0.155,4.14c-1.946-0.664-4.173-1.417-6.296-2.274c0.35-4.347,0.998-8.597,1.659-12.841
			c1.631-0.096,3.307,0.08,4.976,0.348C90.014,80.14,90.202,83.848,90.105,87.198z"/>
	</g>
</g>
<g>
</g>
<g>
</g>
<g>
</g>
<g>
</g>
<g>
</g>
<g>
</g>
<g>
</g>
<g>
</g>
<g>
</g>
<g>
</g>
<g>
</g>
<g>
</g>
<g>
</g>
<g>
</g>
<g>
</g>
</svg>
