<?xml version="1.0" encoding="iso-8859-1"?>
<!-- Generator: Adobe Illustrator 16.0.0, SVG Export Plug-In . SVG Version: 6.00 Build 0)  -->
<!DOCTYPE svg PUBLIC "-//W3C//DTD SVG 1.1//EN" "http://www.w3.org/Graphics/SVG/1.1/DTD/svg11.dtd">
<svg version="1.1" id="Capa_1" xmlns="http://www.w3.org/2000/svg" xmlns:xlink="http://www.w3.org/1999/xlink" x="0px" y="0px"
	 width="191.825px" height="191.826px" viewBox="0 0 191.825 191.826" style="enable-background:new 0 0 191.825 191.826;"
	 xml:space="preserve">
<g>
	<g>
		<path d="M191.798,158.74c-0.616-14.295-0.935-28.611-1.183-42.917c-0.249-14.424-0.364-28.852-0.445-43.278
			c-0.037-6.554,1.805-16.301-1.227-22.369c-0.418-0.834-1.125-1.396-1.936-1.747c1.28-2.158,0.479-5.585-2.337-6.239
			c-12.61-2.929-26.64-2.134-39.554-3.078c-13.821-1.01-27.936-1.965-41.827-1.127c-0.765-8.538-8.633-18.706-14.074-24.898
			c-7.501-8.534-25.887-3.763-35.358-3.071c-5.246,0.383-44.402-1.926-43.61,8.411c-2.066,0.05-4.122,1.488-4.439,4.312
			c-2.679,23.879-3.27,48.39-4.764,72.397c-1.59,25.556-2.167,51.881,4.27,76.851c0.55,2.131,2.825,2.798,4.637,2.292
			c0.012,0.638,0.289,1.261,0.926,1.562c8.474,4.005,18.885,2.062,28.043,1.739c16.146-0.566,32.281-1.292,48.431-1.739
			c32.726-0.905,66.219-0.727,98.046,7.73c4.314,1.146,6.828-3.128,5.824-6.376C191.742,174.359,191.895,160.978,191.798,158.74z
			 M181.15,50.666c-1.59,3.535-1.78,8.191-1.606,12.849c-0.092-0.097-0.19-0.192-0.28-0.29c-3.3-3.533-6.529-7.202-10.147-10.414
			c-1.576-1.399-3.669,0.716-2.3,2.3c3.181,3.673,6.431,7.28,9.572,10.988c1.184,1.397,2.357,2.856,3.563,4.288
			c0.09,1.306,0.174,2.579,0.215,3.755c-3.519-3.53-7.562-6.754-10.935-10.041c-4.762-4.642-9.406-9.392-14.039-14.158
			C163.839,50.879,172.773,51.764,181.15,50.666z M145.117,48.928c1.451,0.119,2.921,0.259,4.406,0.411
			c4.65,5.553,9.506,10.94,14.41,16.265c5.049,5.483,10.217,12.561,16.367,17.091c0.045,3.663,0.084,7.326,0.129,10.99
			c-5.672-7.557-15.48-13.991-21.916-20.393c-8.512-8.467-16.914-17.041-25.549-25.382C137.018,48.25,141.071,48.598,145.117,48.928
			z M128.055,47.498c9.104,9.644,18.237,19.261,27.412,28.839c6.781,7.079,14.719,19.306,23.871,23.246
			c0.385,0.165,0.779,0.203,1.162,0.181c0.057,3.984,0.071,7.971,0.141,11.956c-8.24-13.314-23.064-25.02-34.041-35.415
			c-11.054-10.47-26.529-27.076-41.916-31.018C112.458,46.116,120.256,46.826,128.055,47.498z M53.858,19.645
			c10.61-0.35,24.894-5.362,32.131,4.827c3.034,4.273,4.94,11.917,9.035,15.796c-0.713,1.695,0.187,3.965,2.693,4.258
			c2.034,0.238,4.076,0.444,6.115,0.664c-0.768,0.127-1.244,1.055-0.605,1.698c11.946,12.028,26.937,21.558,39.272,33.513
			c12.332,11.953,22.915,28.07,36.66,38.218c0.548,0.404,1.101,0.518,1.61,0.438c0.031,1.516,0.045,3.032,0.08,4.549
			c0.074,3.417-0.22,8.55-0.44,14.358C151.053,92.868,101.696,63.27,69.256,20.476c-1.053-1.39-3.417-0.121-2.401,1.404
			c13.146,19.725,28.953,37.357,45.469,54.44c-4.068-3.294-8.053-6.694-11.944-10.184c-0.014-0.041-0.018-0.087-0.032-0.128
			c-1.261-3.795-6.061-4.069-7.919-0.909c-6.992-8.052-15.848-14.891-23.424-22.372c-6.374-6.296-15.698-14.228-19.373-22.969
			C51.554,19.712,53.073,19.671,53.858,19.645z M97.717,118.195l-0.432,0.016c-1.293,0.049-2.093,0.752-2.622,1.813
			c-12.374-1.07-23.599,5.259-32.525,13.558c-3.786,3.521-9.575,10.913-11.95,18.051c-3.474-10.232,0.479-20.435,8.285-30.176
			c2.378,0.856,4.239,0.049,4.025-4.513c3.784-3.768,8.104-6.995,12.634-9.788c6.229-3.84,12.571-3.359,18.883-5.934
			c0.959-0.393,1.693-1.105,2.153-1.933c1.396-0.004,2.789-0.775,3.105-2.321c1.021-4.954,0.896-10.216,1.061-15.255
			c0.059-1.817,0.296-3.895,0.482-6.022c6.433,6.299,13.306,12.11,20.395,17.69c5.383,4.238,11.896,10.635,18.848,13.134
			c-6.098,5.14-11.201,13.822-15.969,19.259c-6.533,7.446-13.597,14.109-21.455,19.925c-0.312-1.204-0.664-2.398-0.848-3.501
			c-0.611-3.663-0.734-7.436-0.973-11.137C100.673,128.913,101.604,118.047,97.717,118.195z M64.568,98.748
			C52.69,93.557,42.756,80.279,34.264,70.97c-6.505-7.129-12.678-14.589-19.36-21.499c0.186-3.048,0.298-6.087,0.37-9.12
			c3.892,5.791,9.354,11.196,12.471,14.752C40.339,69.473,54.4,84.396,69.183,96.542c2.809,2.31,6.345-1.185,3.989-3.987
			C63.648,81.22,51.045,71.88,40.418,61.562c-8.53-8.283-19.443-17.778-25.134-28.961c-0.067-3.305-0.203-6.599-0.504-9.863
			c-0.122-1.313-0.644-2.282-1.339-2.996c2.321,0.62,22.412,0.317,33.598,0.074c1.76,7.887,8.168,14.506,13.35,20.374
			c8.978,10.169,18.699,21.086,29.186,29.718c0.576,0.474,1.179,0.651,1.754,0.674c-0.035,3.22,0.507,6.692,0.599,9.527
			c0.013,0.411,0.02,0.83,0.03,1.245c-7.261-8.95-18.038-16.609-25.205-24.84c-5.238-6.016-10.95-11.651-16.433-17.442
			c-1.768-1.867-11.58-15.531-13.486-15.51c1.08-0.012,1.037-1.545,0-1.646c-7.442-0.722,14.77,25.147,15.902,26.433
			c6.092,6.925,12.16,13.844,18.413,20.617c6.291,6.812,13.027,17.603,21.194,22.502c0.051,0.654,0.092,1.31,0.167,1.959
			c-1.911-0.679-3.943-0.886-6.032-0.781c-8.03-11.386-20.902-20.399-30.717-30.255C43.436,50.013,33.422,36.574,23.426,22.363
			c-0.473-0.672-1.583-0.279-1.36,0.573c3.609,13.817,14.872,25.803,24.046,36.33c9.855,11.307,21.287,25.791,34.1,34.588
			c-9.302,3.068-18.973,11.155-25.363,18.033c-0.516-0.636-1.029-1.275-1.54-1.896c-3.553-4.31-7.256-7.832-11.447-11.556
			c-10.03-8.913-19.238-18.727-28.725-28.228c0.547-5.47,1.072-10.959,1.481-16.44c5.729,7.583,11.471,15.198,17.761,22.451
			c6.854,7.903,19.219,26.487,30.992,26.943C65.615,103.25,66.77,99.708,64.568,98.748z M10.958,95.134
			c0.091-1.562,0.226-3.143,0.343-4.716c4.383,4.846,8.765,9.694,13.214,14.479c4.571,4.916,11.103,15.069,18.094,16.33
			c1.535,0.275,2.727-1.145,1.991-2.59c-1.529-3.004-4.716-4.739-7.249-6.899c-3.528-3.009-6.868-6.253-10.162-9.514
			c-5.309-5.257-10.357-10.758-15.576-16.097c0.332-3.903,0.719-7.835,1.113-11.776c13.054,13.13,26.895,26.107,37.831,40.694
			c0.214,0.284,0.473,0.598,0.755,0.921c-0.473,0.596-0.924,1.176-1.317,1.717c-3.47,4.771-6.431,10.505-8.175,16.406
			c-0.092-0.169-0.172-0.339-0.314-0.503c-9.938-11.462-20.844-22.014-30.748-33.563C10.84,98.392,10.864,96.767,10.958,95.134z
			 M12.203,171.888c0.041-0.274,0.112-0.53,0.075-0.846c-0.573-4.812-0.996-9.618-1.349-14.423c1.411,1.711,2.78,3.452,4.267,5.113
			c1.975,2.206,4.159,4.873,6.564,7.256C18.335,169.586,15.076,170.472,12.203,171.888z M29.211,168.131
			c-3.526-3.207-7.795-5.955-11.103-9.309c-2.633-2.67-5.153-5.471-7.59-8.342c-0.21-3.773-0.324-7.545-0.423-11.318
			c8.075,9.496,15.146,20.152,24.004,28.75C32.471,167.959,30.836,168.025,29.211,168.131z M41.986,167.775
			C31.503,156.5,21.269,144.412,9.991,133.848c-0.042-3.235,0.045-6.476,0.07-9.714c4.576,7.776,9.935,15.146,15.284,22.32
			c4.925,6.608,10.512,15.13,17.107,21.311C42.295,167.769,42.143,167.773,41.986,167.775z M51.285,167.465
			c-5.732-7.557-13.561-14.1-19.612-21.388c-7.98-9.612-14.984-19.85-21.551-30.43c0.082-3.42,0.28-6.853,0.42-10.278
			c3.816,5.022,7.863,9.885,11.89,14.704c4.488,5.371,9.743,14.108,16.418,16.957c0.823,0.351,1.621,0.244,2.227-0.121
			c-2.47,11.032-0.243,22.232,11.615,28.575c1.584,0.848,3.009,0.054,3.567-1.188c0.306-0.243,0.592-0.513,0.826-0.824
			c2.057-2.748,1.665-6.275,2.596-9.52c0.316-1.097,0.771-2.154,1.251-3.201c1.805,2.532,3.77,4.948,5.85,7.289
			c2.396,2.695,5.165,6.112,8.402,8.252C67.213,166.62,59.248,167.036,51.285,167.465z M98.691,165.681
			c-6.065,0.05-12.126,0.219-18.188,0.432c-0.024-0.194-0.014-0.389-0.116-0.573c-2.078-3.789-6.413-6.35-9.551-9.26
			c-2.947-2.734-5.586-5.762-8.07-8.914c1.67-2.687,3.663-5.202,5.664-7.49c6.359-7.272,15.066-12.598,24.596-14.241
			c-0.705,4.109-0.644,8.482-0.549,12.444c0.097,4.005-0.036,9.386,2.095,13.117c-2.862,1.809-1.003,6.962,2.412,5.68
			c2.095-0.787,4.1-1.748,6.069-2.778c2.846,2.954,5.717,5.883,8.713,8.69c0.924,0.865,1.946,1.871,3.028,2.882
			C109.403,165.63,104.025,165.637,98.691,165.681z M123.195,165.785c-2.592-2.221-5.774-4.019-8.303-6.125
			c-2.875-2.395-5.613-4.953-8.328-7.531c3.381-2.057,6.56-4.454,9.641-6.979c4.398,4.774,8.674,9.663,13.012,14.492
			c1.889,2.102,3.807,4.439,5.897,6.563C131.141,166.014,127.166,165.868,123.195,165.785z M143.307,166.695
			c-8.106-7.923-16.201-15.943-24.453-23.748c2.754-2.39,5.375-4.902,7.968-7.41c7.44,7.043,13.903,15.093,20.571,22.843
			c2.348,2.729,5.037,6.406,8.101,9.481C151.443,167.392,147.383,166.988,143.307,166.695z M166.77,169.459
			c-0.185-0.194-0.405-0.376-0.699-0.514c-6.27-2.96-11.821-10.505-16.494-15.417c-6.572-6.907-12.865-14.264-20.122-20.476
			c2.253-2.163,4.858-4.568,7.454-7.137c5.76,6.229,11.682,12.302,17.566,18.417c7.893,8.204,14.625,17.381,22.369,25.638
			c2.311,2.462,6.104-0.679,4.553-3.514c-4.918-8.992-13.67-16.352-20.965-23.397c-6.91-6.673-13.928-13.224-20.688-20.041
			c3.183-3.358,6.146-6.926,8.155-10.567c11.17,11.507,22.05,23.247,32.027,35.705c0.081,0.101,0.182,0.137,0.268,0.221
			c0.013,8.937,0.687,18.106,3.332,24.594C178.01,171.515,172.408,170.399,166.77,169.459z"/>
		<path d="M98.049,162.13c-1.295-2.366-3.587-3.836-5.584-5.603c-2.438-2.156-4.787-4.412-7.149-6.647
			c-4.271-4.042-8.533-8.07-13.219-11.632c-1.653-1.256-3.745,1.504-2.207,2.861c4.693,4.143,8.963,8.73,13.266,13.271
			c3.462,3.654,7.468,9.429,12.416,10.974C97.477,165.948,98.939,163.756,98.049,162.13z"/>
		<path d="M93.062,148.258c-0.825-1.818-2.451-3.338-3.627-4.938c-1.366-1.858-2.66-3.759-3.908-5.696
			c-1.338-2.075-2.776-4.074-4.103-6.122c-0.6-0.926-2.281-0.345-1.862,0.785c1.002,2.695,2.05,5.221,3.385,7.805
			c1.754,3.396,3.993,8.878,7.596,10.687C92.27,151.646,93.822,149.935,93.062,148.258z"/>
	</g>
</g>
<g>
</g>
<g>
</g>
<g>
</g>
<g>
</g>
<g>
</g>
<g>
</g>
<g>
</g>
<g>
</g>
<g>
</g>
<g>
</g>
<g>
</g>
<g>
</g>
<g>
</g>
<g>
</g>
<g>
</g>
</svg>
