<?xml version="1.0" encoding="iso-8859-1"?>
<!-- Generator: Adobe Illustrator 16.0.0, SVG Export Plug-In . SVG Version: 6.00 Build 0)  -->
<!DOCTYPE svg PUBLIC "-//W3C//DTD SVG 1.1//EN" "http://www.w3.org/Graphics/SVG/1.1/DTD/svg11.dtd">
<svg version="1.1" id="Capa_1" xmlns="http://www.w3.org/2000/svg" xmlns:xlink="http://www.w3.org/1999/xlink" x="0px" y="0px"
	 width="192.451px" height="192.451px" viewBox="0 0 192.451 192.451" style="enable-background:new 0 0 192.451 192.451;"
	 xml:space="preserve">
<g>
	<g>
		<path d="M190.261,154.54c0.02-0.821,0.121-2.149-0.028-3.367c1.138-0.81,0.846-2.944-0.921-3.012
			c-61.634-2.374-123.697-3.528-185.378-4.355c-1.191-0.016-1.72,0.92-1.643,1.822c-0.052,0.009-0.11-0.026-0.16-0.009
			c-1.099,0.373-1.549,1.209-1.757,2.18c-0.254,0.271-0.402,0.645-0.17,1.105c0.005,0.01,0.012,0.018,0.016,0.026
			c-0.034,0.519-0.045,1.04-0.066,1.532c-0.117,2.649-0.037,5.307,0.07,7.955c0.024,0.598,0.315,0.996,0.696,1.24
			c-0.088,0.874,0.427,1.816,1.582,1.859c28.52,1.052,57.167,1.882,85.706,1.617c26.008-0.241,51.796-2.449,77.672-1.554
			c0.074,0.034,0.137,0.097,0.212,0.127c0.27,0.106,0.537,0.039,0.785-0.085c5.354,0.202,10.711,0.557,16.075,1.065
			c0.472,0.386,0.945,0.77,1.455,1.067c0.751,0.439,1.565-0.074,1.754-0.779c0.163,0.019,0.325,0.025,0.489,0.044
			c0.515,0.569,1.5,0.635,2.16,0.168c1.687,0.025,2.039-2.011,1.073-3.136C190.158,158.226,190.22,156.336,190.261,154.54z
			 M186.572,154.54c0.012,0.343-0.021,0.683-0.019,1.026c-0.365-0.346-0.722-0.674-0.993-0.964c-0.94-1.009-1.92-1.999-2.927-2.96
			c1.199-0.022,2.402-0.026,3.6-0.065C186.326,152.628,186.543,153.729,186.572,154.54z M3.361,158.17
			c0.053-1.318,0.127-2.635,0.19-3.952c0.501,0.707,1,1.419,1.495,2.117c0.381,0.537,0.794,1.171,1.232,1.802
			C5.307,158.154,4.333,158.146,3.361,158.17z M10.046,158.095c-0.812-1.233-2.036-2.336-2.909-3.373
			c-1.17-1.391-2.262-2.838-3.338-4.297c0.126-1.101,0.268-2.226,0.162-3.16c0.435,0.026,0.874,0.049,1.31,0.074
			c-0.065,0.037-0.086,0.137,0.025,0.539c0.161,0.585,0.653,1.056,1.03,1.506c1.377,1.647,2.803,3.25,4.246,4.84
			c0.768,0.847,2.026,2.5,3.437,3.875C12.688,158.101,11.368,158.083,10.046,158.095z M18.818,158.104
			c-0.838-0.922-2.033-1.605-2.973-2.429c-1.737-1.52-3.355-3.18-4.968-4.83c-1.106-1.131-2.187-2.351-3.401-3.38
			c1.908,0.112,3.828,0.213,5.738,0.323c2.39,3.237,5.053,6.305,7.803,9.236c0.269,0.286,0.621,0.692,1.011,1.123
			C20.958,158.136,19.889,158.112,18.818,158.104z M26.287,158.207c-0.353-0.316-0.711-0.624-1.081-0.927
			c-1.272-1.042-2.421-2.221-3.56-3.403c-1.839-1.911-3.567-3.921-5.315-5.914c2.353,0.134,4.718,0.254,7.075,0.384
			c1.09,1.488,2.176,2.963,3.357,4.416c1.303,1.604,2.563,3.242,3.761,4.926c0.137,0.192,0.267,0.415,0.398,0.631
			C29.376,158.286,27.832,158.233,26.287,158.207z M34.404,158.405c-0.363-0.567-0.801-1.101-1.168-1.594
			c-1.23-1.652-2.565-3.227-3.914-4.782c-1.087-1.255-2.209-2.416-3.366-3.542c1.74,0.095,3.487,0.179,5.228,0.271
			c0.034,0.076,0.018,0.151,0.077,0.227c1.832,2.337,3.906,4.493,5.794,6.789c0.575,0.697,1.207,1.77,1.916,2.757
			C37.448,158.49,35.926,158.442,34.404,158.405z M42.559,158.63c-0.706-1.498-2.418-2.893-3.371-3.964
			c-1.766-1.983-3.607-3.996-5.603-5.784c1.262,0.067,2.528,0.124,3.791,0.189c-0.027,0.252,0.023,0.507,0.242,0.713
			c2.406,2.271,4.602,4.744,6.859,7.162c0.51,0.546,1.05,1.167,1.612,1.781C44.912,158.695,43.735,158.663,42.559,158.63z
			 M50.146,158.843c-1.362-1.438-3.025-2.681-4.424-4.076c-1.906-1.899-3.8-3.872-5.9-5.572c2.073,0.105,4.152,0.197,6.227,0.3
			c2.025,2.226,4.3,4.275,6.393,6.433c0.842,0.867,1.78,2.045,2.815,3.049C53.552,158.931,51.85,158.891,50.146,158.843z
			 M58.952,159.073c-1.411-1.954-3.651-3.543-5.369-5.211c-1.393-1.353-2.806-2.878-4.331-4.213
			c1.671,0.079,3.345,0.148,5.017,0.227c2.034,2.274,4.127,4.499,6.186,6.749c0.554,0.604,1.222,1.557,1.964,2.504
			C61.262,159.102,60.107,159.102,58.952,159.073z M66.421,159.19c-0.931-1.342-2.565-2.581-3.331-3.346
			c-1.987-1.982-4.02-3.935-6.086-5.847c1.476,0.067,2.958,0.109,4.435,0.174c2.104,2.293,4.09,4.697,6.07,7.097
			c0.456,0.554,0.95,1.239,1.466,1.947C68.124,159.203,67.272,159.206,66.421,159.19z M72.906,159.257
			c-1.016-1.169-2.238-2.263-3.115-3.249c-1.721-1.936-3.464-3.854-5.266-5.714c1.773,0.076,3.55,0.123,5.324,0.196
			c1.017,1.779,2.416,3.406,3.723,4.938c0.922,1.081,2.021,2.652,3.234,3.849C75.506,159.266,74.207,159.273,72.906,159.257z
			 M79.821,159.291c-0.859-1.786-3.157-3.295-4.513-4.697c-1.254-1.296-2.41-2.658-3.553-4.034c1.329,0.054,2.66,0.085,3.989,0.137
			c1.646,1.614,3.294,3.221,4.857,4.928c0.948,1.035,1.964,2.435,3.076,3.658C82.393,159.284,81.107,159.296,79.821,159.291z
			 M87.379,159.273c-1.271-2.004-3.502-3.714-5.104-5.322c-1.055-1.06-2.123-2.117-3.219-3.142c1.375,0.053,2.751,0.081,4.125,0.131
			c1.952,1.73,3.845,3.527,5.774,5.282c0.847,0.771,2.021,2.061,3.28,2.948C90.616,159.207,88.998,159.258,87.379,159.273z
			 M95.934,159.093c-0.04,0.001-0.08,0.001-0.12,0.002c-0.005-0.151-0.033-0.309-0.12-0.465c-0.421-0.757-1.064-1.15-1.77-1.62
			c-1.333-0.888-2.558-1.942-3.785-2.968c-1.182-0.987-2.348-1.996-3.521-2.994c1.446,0.05,2.893,0.077,4.339,0.125
			c1.728,1.682,3.475,3.337,5.151,5.076c0.793,0.823,1.52,1.792,2.262,2.746C97.558,159.027,96.746,159.063,95.934,159.093z
			 M101.668,158.865c-1.247-1.466-2.891-2.772-4.17-4.005c-1.306-1.258-2.684-2.459-4.095-3.617
			c1.503,0.047,3.006,0.073,4.509,0.117c1.156,1.679,2.435,3.278,3.763,4.818c0.545,0.631,1.301,1.73,2.165,2.595
			C103.116,158.804,102.394,158.836,101.668,158.865z M106.96,158.642c-0.546-1.399-2.442-2.474-3.437-3.476
			c-1.197-1.208-2.327-2.479-3.455-3.75c1.473,0.042,2.945,0.063,4.418,0.103c0.866,1.401,2.025,2.686,3.095,3.904
			c0.942,1.073,1.839,2.309,3.063,3.063C109.415,158.538,108.188,158.591,106.96,158.642z M111.999,158.428
			c0.314-0.304,0.451-0.79,0.19-1.248c-0.665-1.168-1.761-1.97-2.708-2.909c-0.874-0.864-1.678-1.786-2.497-2.693
			c1.537,0.039,3.072,0.058,4.608,0.094c0.943,1.333,1.944,2.626,3.009,3.858c0.665,0.771,1.524,1.857,2.507,2.684
			C115.404,158.286,113.702,158.354,111.999,158.428z M120.725,158.062c-0.046-0.109-0.07-0.223-0.161-0.322
			c-1.29-1.416-2.943-2.494-4.302-3.872c-0.671-0.683-1.296-1.412-1.921-2.141c1.333,0.029,2.665,0.042,3.998,0.068
			c1.294,1.36,2.581,2.729,3.95,4.014c0.737,0.692,1.566,1.486,2.475,2.102C123.416,157.962,122.07,158.008,120.725,158.062z
			 M128.1,157.784c0.047-0.382-0.046-0.783-0.482-1.066c-2.234-1.45-4.248-3.127-6.217-4.87c1.768,0.032,3.534,0.046,5.302,0.073
			c0.893,1.077,1.851,2.103,2.868,3.08c0.77,0.74,1.779,1.836,2.865,2.669C130.99,157.714,129.545,157.734,128.1,157.784z
			 M135.954,157.576c-0.006-0.055,0.01-0.105-0.005-0.159c-0.484-1.699-2.689-2.727-3.984-3.831
			c-0.595-0.507-1.145-1.072-1.713-1.617c1.081,0.015,2.156,0.002,3.237,0.016c1.752,1.929,3.616,3.783,5.537,5.514
			c0.008,0.008,0.02,0.019,0.027,0.026C138.021,157.547,136.988,157.549,135.954,157.576z M143.249,157.455
			c-1.044-0.656-2.035-1.418-2.979-2.19c-1.272-1.041-2.481-2.152-3.688-3.267c2.067,0.02,4.128,0,6.194,0.013
			c1.127,1.141,2.224,2.312,3.432,3.371c0.709,0.623,1.573,1.501,2.507,2.042C146.895,157.435,145.072,157.427,143.249,157.455z
			 M151.372,157.41c0.106-0.204,0.157-0.438,0.119-0.652c-0.275-1.579-2.936-2.625-4.082-3.564
			c-0.458-0.375-0.889-0.782-1.332-1.176c1.244,0.006,2.484-0.01,3.727-0.006c1.293,1.158,2.589,2.313,3.861,3.491
			c0.612,0.567,1.24,1.259,1.886,1.946C154.158,157.437,152.766,157.41,151.372,157.41z M159.402,157.486
			c-1.172-1.351-2.965-2.473-4.229-3.49c-0.848-0.684-1.73-1.321-2.591-1.989c1.24,0.001,2.476-0.015,3.714-0.016
			c1.79,1.671,3.506,3.415,5.15,5.231c0.097,0.107,0.196,0.237,0.294,0.352C160.961,157.554,160.183,157.5,159.402,157.486z
			 M165.778,157.725c-0.818-0.843-1.733-1.622-2.468-2.364c-1.148-1.163-2.327-2.293-3.541-3.384
			c1.576-0.005,3.149-0.026,4.726-0.035c1.236,1.187,2.485,2.361,3.718,3.556c0.851,0.823,1.688,1.711,2.607,2.477
			C169.14,157.892,167.458,157.785,165.778,157.725z M174.593,158.159c-0.041-0.183-0.096-0.364-0.264-0.504
			c-2.208-1.837-4.32-3.818-6.483-5.741c1.464-0.012,2.92-0.063,4.382-0.08c1.794,1.783,3.599,3.554,5.377,5.351
			c0.41,0.415,0.818,0.871,1.229,1.327C177.42,158.407,176.006,158.243,174.593,158.159z M183.348,158.886
			c-1.298-1.23-2.716-2.378-3.934-3.511c-1.311-1.219-2.64-2.43-4.002-3.6c1.448-0.022,2.892-0.06,4.34-0.079
			c1.201,1.395,2.499,2.712,3.726,4.083c0.833,0.931,1.684,2.671,2.852,3.355C185.335,159.029,184.342,158.981,183.348,158.886z"/>
		<path d="M182.561,39.942c-2.302,1.976-4.411,6.021-3.223,9.107c0.184,0.475,0.488,0.798,0.804,1.103
			c-9.539,10.034-16.477,22.243-23.342,34.296c-0.574,1.871-1.164,3.205-1.768,4.093c-0.075-0.14-0.138-0.288-0.308-0.378
			c-1.22-0.646-2.642-1.149-4.057-1.265c-0.649-1.325-1.312-3.054-1.989-5.309c-2.856-6.845-5.141-13.977-7.63-20.961
			c-2.529-7.098-5.388-13.886-8.668-20.559c2.475-1.751,2.452-5.28,1.217-7.789c-1.309-2.654-3.898-3.714-6.563-3.373
			c-0.223-0.292-0.552-0.484-0.978-0.306c-0.929,0.386-1.871,0.978-2.705,1.705c-2.149,1.436-4.217,3.906-3.542,6.412
			c0.233,0.868,0.926,1.574,1.81,2.134c-5.562,8.621-11.451,16.951-18.108,24.84c-2.296,2.721-4.48,3.583-6.564,3.258
			c-0.111-0.144-0.258-0.256-0.442-0.299c-0.265-0.062-0.512-0.008-0.773-0.029c-4.25-1.607-8.061-7.861-11.482-13.052
			c0.817-0.795,1.529-1.733,2.058-2.771c1.226-2.405,0.339-4.021-1.367-4.753c-0.176-0.379-0.369-0.733-0.591-1.017
			c-1.382-1.767-3.759-2.419-5.922-2.282c-1.747,0.111-4.047,0.812-4.811,2.564c-0.132,0.302-0.21,0.587-0.252,0.858
			c-1.509,2.346-1.341,5.437,1.226,7.899c0.314,0.301,0.645,0.491,0.971,0.716c-3.997,14.213-5.381,29.237-8.816,43.566
			c-0.995,4.149-4,18.335-8.272,21.722c-0.439-0.048-0.876-0.024-1.311,0.074c-0.833-0.458-1.766-0.661-2.817-0.462
			c-0.392-0.389-0.789-0.854-1.194-1.468c-3.747-5.669-6.45-11.959-9.618-17.989c0.603-0.651,1.115-1.393,1.472-2.171
			c1.716-3.736-0.931-7.575-4.431-8.882c-0.412-0.154-0.779-0.168-1.162-0.234c-0.204-0.114-0.429-0.182-0.656-0.139
			c-0.004,0.001-0.008,0.004-0.012,0.005c-1.957-0.089-3.477,0.992-4.326,3.015c-0.295,0.703-0.466,1.516-0.564,2.346
			c-0.213,1.174-0.185,2.369,0.13,3.513c-8.46,9.535-16.824,19.164-25.028,28.92c-0.322-0.265-0.686-0.496-1.147-0.646
			c-2.619-0.854-5.209,1.109-6.604,3.146c-3.77,5.506,1.965,13.155,8.079,9.512c3.375-2.013,4.192-7.64,2.008-10.307
			c8.332-9.009,16.504-18.173,24.601-27.394c0.544,0.476,1.189,0.863,1.937,1.128c1.197,0.425,2.366,0.303,3.424-0.149
			c3.272,6.698,6.305,13.474,10.299,19.737c-0.58,0.871-0.967,1.899-1.183,2.856c-1.12,4.955,1.782,9.94,7.291,8.867
			c4.12-0.803,7.063-4.203,6.073-8.445c-0.283-1.214-1.048-2.412-2.052-3.321c10.93-19.914,12.464-43.605,17.387-65.673
			c1.078-0.016,2.13-0.317,3.117-0.846c3.264,4.496,6.252,9.104,9.212,13.78c-0.229,0.427-0.405,0.896-0.491,1.418
			c-0.597,0.942-1.058,1.988-1.21,3.16c-0.261,2.012,1.86,2.984,3.61,3.397c0.138,0.157,0.261,0.338,0.404,0.484
			c1.725,1.774,4.269,2.769,6.59,1.595c2.588-1.308,3.572-5.29,2.46-7.792c-0.161-0.363-0.432-0.642-0.656-0.958
			c8.934-8.899,16.135-19.059,23.052-29.69c0.084,0.036,0.164,0.089,0.248,0.122c0.684,0.27,1.443,0.418,2.216,0.503
			c3.858,5.484,11.121,24.445,12.245,27.595c2.298,6.439,4.717,12.762,7.382,19.003c-0.072,0.046-0.155,0.049-0.226,0.099
			c-2.021,1.446-2.632,4.052-2.221,6.405c1.138,6.497,9.328,8.183,13.277,2.977c1.608-2.12,0.97-4.417-0.597-6.184
			c7.772-13.996,15.6-28.36,26.82-39.768c0.093,0.026,0.154,0.09,0.25,0.111c2.56,0.573,5.195-0.907,6.671-2.939
			C195.354,42.692,188.198,35.099,182.561,39.942z"/>
	</g>
</g>
<g>
</g>
<g>
</g>
<g>
</g>
<g>
</g>
<g>
</g>
<g>
</g>
<g>
</g>
<g>
</g>
<g>
</g>
<g>
</g>
<g>
</g>
<g>
</g>
<g>
</g>
<g>
</g>
<g>
</g>
</svg>
