<?xml version="1.0" encoding="iso-8859-1"?>
<!-- Generator: Adobe Illustrator 16.0.0, SVG Export Plug-In . SVG Version: 6.00 Build 0)  -->
<!DOCTYPE svg PUBLIC "-//W3C//DTD SVG 1.1//EN" "http://www.w3.org/Graphics/SVG/1.1/DTD/svg11.dtd">
<svg version="1.1" id="Capa_1" xmlns="http://www.w3.org/2000/svg" xmlns:xlink="http://www.w3.org/1999/xlink" x="0px" y="0px"
	 width="193.679px" height="193.68px" viewBox="0 0 193.679 193.68" style="enable-background:new 0 0 193.679 193.68;"
	 xml:space="preserve">
<g>
	<g>
		<path d="M52.172,61.461c-0.735-2.103-2.658-3.221-4.323-4.625c-2.596-2.19-5.169-4.404-7.691-6.68
			c-5.317-4.8-10.536-9.942-13.968-16.294c-0.44-0.815-1.533-0.683-2.044-0.113c-0.516-0.168-1.102-0.143-1.627,0.278
			c-3.258,2.617-6.648,5.041-9.996,7.531c-0.015-0.019-0.031-0.036-0.046-0.055c-0.247-0.323-0.792-0.037-0.562,0.329
			c0.025,0.04,0.057,0.076,0.082,0.116c-0.375,0.28-0.754,0.552-1.127,0.835c-0.532,0.403-0.609,1.007-0.428,1.494
			c-1.049,2.084,1.675,4.64,2.871,6.132c1.881,2.344,3.99,4.513,5.643,7.005C13.382,56.8,7.753,57.16,2.138,57.223
			c-1.009,0.011-1.573,0.768-1.69,1.69c-0.604,4.764-0.568,9.597-0.067,14.37c0.135,1.283,1.762,1.3,2.019,0.119
			c0.958,0.354,1.787,0.811,2.945,0.957c2.626,0.332,5.268,0.512,7.909,0.668c0.931,0.055,3.668,0.478,6.072,0.399
			c-0.151,0.096-0.302,0.229-0.448,0.434c-0.972,1.356-1.871,2.75-2.747,4.17c-1.851,3-3.806,6.114-5.271,9.326
			c-0.457,1.003,0.004,1.927,0.724,2.353c-0.311,0.631-0.232,1.436,0.542,1.818c2.323,1.15,4.806,1.961,7.244,2.827
			c1.594,0.567,3.674,1.766,5.387,1.171c0.298-0.104,0.537-0.327,0.714-0.587c0.432,0.625,1.394,0.933,2.013,0.253
			c5.134-5.637,10.079-11.501,14.815-17.474c3.424-4.319,9.24-10.687,9.291-16.494c0.001-0.142-0.078-0.251-0.121-0.376
			C51.999,62.616,52.394,62.096,52.172,61.461z M15.782,42.553c3.984,5.25,8.337,10.209,12.926,14.936
			c1.223,1.26,2.576,2.724,4.011,4.209c-0.809-0.679-1.603-1.351-2.341-2.016c-5.658-5.093-11.322-10.256-16.183-16.128
			C14.729,43.232,15.25,42.882,15.782,42.553z M2.582,71.844c0.156-1.657,0.294-3.314,0.437-4.971
			c1.241,1.708,2.734,3.362,4.296,4.672C5.733,71.586,4.162,71.663,2.582,71.844z M9.108,71.528
			c-1.668-2.345-4.01-4.228-5.919-6.434c0.065-0.718,0.146-1.436,0.217-2.154c1.264,1.594,2.601,3.131,4.034,4.578
			c1.343,1.356,2.972,3.082,4.817,4.054C11.197,71.548,10.145,71.527,9.108,71.528z M14.665,71.539c0,0-0.001-0.003-0.003-0.005
			c-3.987-3.141-7.824-6.148-11.122-9.932c0.037-0.34,0.062-0.681,0.102-1.022c0.78-0.009,1.559-0.024,2.338-0.038
			c3.06,3.91,6.66,7.585,10.386,10.915C15.749,71.483,15.159,71.512,14.665,71.539z M18.549,71.424
			c-3.515-3.878-7.642-7.202-11.359-10.901c1.264-0.022,2.526-0.038,3.787-0.037c3.053,4.025,6.63,7.627,10.197,11.199
			C20.384,71.531,19.496,71.439,18.549,71.424z M13.85,91.088c0.498-0.823,0.957-1.674,1.418-2.523
			c0.579,0.894,1.1,1.825,1.732,2.687c0.249,0.339,0.502,0.701,0.764,1.067C16.462,91.9,15.164,91.465,13.85,91.088z M25.482,95.573
			c-1.06-1.504-3.122-1.794-4.782-2.331c-0.234-0.075-0.469-0.145-0.702-0.221c-0.577-0.63-1.188-1.236-1.727-1.857
			c-0.928-1.07-1.719-2.248-2.559-3.388c0.631-1.185,1.243-2.382,1.862-3.569c-0.132,1.82,1.754,3.816,2.752,5.023
			c1.433,1.733,3.51,4.323,5.718,5.564C25.863,95.058,25.659,95.306,25.482,95.573z M29.586,89.951
			c-1.187-1.609-3.287-2.857-4.752-4.161c-0.427-0.381-4.79-3.969-4.531-4.485c0.135-0.269-0.245-0.496-0.406-0.237
			c-0.732,1.181,2.114,3.642,2.715,4.286c1.168,1.251,2.428,2.419,3.694,3.568c0.767,0.696,1.597,1.555,2.592,1.922
			c-0.69,0.904-1.334,1.841-1.997,2.764c-1.312-1.349-2.953-2.503-4.279-3.797c-0.988-0.963-5.393-4.699-4.561-6.4
			c0.018-0.037-0.017-0.057-0.027-0.088c0.007-0.014,0.014-0.028,0.022-0.042c0.802-1.513,1.628-3.018,2.373-4.56
			c0.27-0.558,0.759-1.223,0.885-1.834c0.038-0.16,0.06-0.323,0.082-0.485c0.049,2.543,2.16,4.681,3.803,6.497
			c1.6,1.769,3.522,4.025,5.668,5.392C30.434,88.839,30.015,89.398,29.586,89.951z M31.864,87.038
			c-1.58-1.47-3.265-2.838-4.811-4.347c-1.071-1.046-2.104-2.136-3.079-3.272c-0.645-0.753-2.058-2.261-2.263-3.311
			c-0.035-0.182-0.249-0.136-0.315,0.003c-0.063-0.679-0.469,0.03-0.826-0.427c0.218,0.28,0.686-0.022,0.582-0.339
			c-0.003-0.009-0.006-0.018-0.009-0.027c-0.011-0.035-0.048-0.057-0.07-0.089c1.069-0.211,1.891-0.621,2.189-1.347
			c3.362,3.532,6.522,7.312,9.983,10.681c0.137,0.134,0.285,0.18,0.428,0.194C33.065,85.513,32.471,86.28,31.864,87.038z
			 M34.383,83.884c-0.011-0.063,0.012-0.121-0.016-0.184c-1.974-4.388-6.773-8.137-10.172-11.404
			c-4.054-3.896-8.128-7.759-12.047-11.79c1.336,0.015,2.669,0.078,4.002,0.16c3.692,3.536,7.399,7.055,11.002,10.683
			c3.118,3.14,5.992,6.926,9.31,9.906C35.764,82.129,35.088,83.015,34.383,83.884z M39.429,77.503
			c-0.616,0.816-1.272,1.606-1.906,2.41c-2.145-3.283-5.487-6.144-8.185-8.758c-3.687-3.573-7.536-6.989-11.434-10.335
			c1.296,0.122,2.592,0.256,3.886,0.499c0.292,0.055,0.557,0.037,0.801-0.025c2.4,2.398,4.842,4.754,7.282,7.112
			c2.73,2.638,5.401,6.261,8.58,8.314c0.593,0.383,1.152-0.344,0.891-0.892c-1.593-3.351-5.652-6.098-8.37-8.525
			c-2.481-2.216-4.987-4.401-7.47-6.613c0.748-0.902,0.684-2.443-0.783-2.747c-0.179-0.037-0.36-0.041-0.539-0.076
			c-1.014-2.838-2.957-5.401-4.746-7.743c-1.135-1.486-2.328-2.932-3.403-4.461c-0.345-0.49-0.636-0.979-1.004-1.381
			c0.145-0.086,0.285-0.182,0.43-0.268c3.754,5.311,8.44,9.949,13.139,14.406c5.062,4.802,9.952,10.167,15.278,14.643
			c0.115,0.096,0.245,0.119,0.372,0.139C41.355,74.699,40.438,76.163,39.429,77.503z M29.813,56.383
			c-4.657-4.52-9.11-9.307-13.214-14.345c0.813-0.509,1.609-1.042,2.413-1.565c8.65,9.245,19.051,16.614,26.821,26.702
			c-0.371,0.596-0.754,1.174-1.113,1.784C39.889,64.629,34.521,60.951,29.813,56.383z M46.992,65.355
			c-7.514-9.97-18.176-16.879-27.22-25.375c1.701-1.127,3.38-2.284,4.989-3.53c2.52,5.324,6.567,9.862,10.742,13.944
			c2.853,2.79,5.884,5.398,8.91,7.995c1.48,1.27,3.043,3.061,4.859,4.008C48.456,63.306,47.708,64.309,46.992,65.355z"/>
		<path d="M113.818,62.194c-8.987-9.177-20.577-17.867-31.737-24.234c-1.208-0.689-2.664,0.192-2.704,1.552
			c-0.207,6.968,0.236,13.888,0.696,20.802c-0.003,0.021,0.003,0.04,0.004,0.062c0.62,9.307,1.27,18.605,0.413,27.995
			c-0.068,0.745,0.478,1.201,1.103,1.325c0.342,0.521,1.004,0.849,1.646,0.466c10.926-6.527,19.555-16.374,29.78-23.88
			c0.736-0.54,0.915-1.346,0.753-2.06C114.286,63.705,114.458,62.846,113.818,62.194z M83.575,86.555
			c0.308-1.91,0.519-3.82,0.669-5.732c0.865,0.94,1.77,1.824,2.675,2.719C85.804,84.548,84.691,85.557,83.575,86.555z
			 M87.889,82.668c-1.165-1.181-2.347-2.342-3.566-3.468c0.059-1.01,0.012-2.021,0.037-3.031c0.549,0.511,1.135,0.982,1.672,1.507
			c1.165,1.138,2.276,2.425,3.542,3.476C89.012,81.657,88.45,82.162,87.889,82.668z M90.52,80.297
			c-1.06-1.283-2.39-2.403-3.605-3.505c-0.813-0.737-1.691-1.395-2.537-2.092c0.015-1.404-0.049-2.811-0.079-4.216
			c1.261,1.112,2.479,2.278,3.669,3.437c1.436,1.396,2.742,3.046,4.433,4.136c0.449,0.29,1.026-0.286,0.735-0.736
			c-1.183-1.831-3.084-3.221-4.704-4.65c-1.337-1.18-2.725-2.34-4.155-3.438c-0.048-1.607-0.133-3.214-0.216-4.822
			c1.602,1.571,3.173,3.174,4.819,4.696c2.131,1.967,4.703,4.901,7.524,5.999C94.441,76.835,92.462,78.546,90.52,80.297z
			 M89.793,68.194c-1.987-1.67-3.879-3.448-5.796-5.197c-0.104-1.885-0.223-3.773-0.34-5.659c2.399,2.572,4.861,5.086,7.408,7.509
			c2.435,2.318,5.355,5.792,8.604,6.952c0.712,0.255,1.095-0.681,0.679-1.165c-2.468-2.869-6.197-5.04-9.054-7.562
			c-2.69-2.376-5.263-4.879-7.742-7.474c-0.095-1.547-0.176-3.095-0.257-4.642c2.668,3.105,5.564,6.04,8.449,8.901
			c2.748,2.724,6.852,8.14,10.824,8.982c0.513,0.109,0.957-0.408,0.685-0.89c-0.896-1.584-2.626-2.592-4.01-3.726
			c-2.168-1.776-4.256-3.65-6.326-5.538c-3.403-3.105-6.602-6.382-9.726-9.745c-0.054-1.173-0.073-2.346-0.108-3.52
			c4.877,4.06,9.372,8.535,13.839,13.039c2.571,2.592,5.407,6.512,8.65,8.925c-2.773,2.232-5.508,4.517-8.196,6.866
			C95.192,71.961,92.224,70.237,89.793,68.194z M107.617,65.78c-2.898-3.546-7.318-6.612-10.478-9.541
			c-4.508-4.18-9.1-8.446-14.095-12.061c-0.01-0.474-0.038-0.947-0.043-1.421c9.724,6.193,17.741,14.825,27.499,20.763
			C109.519,64.245,108.58,65.03,107.617,65.78z"/>
		<path d="M192.771,65.199c-10.503-5.887-20.954-11.51-29.708-19.917c-0.232-0.224-0.52-0.255-0.801-0.211
			c-0.053-0.17-0.052-0.348-0.129-0.515c-0.384-0.835-1.597-0.864-2.189-0.283c-1.502,1.475-1.215,3.879-1.204,5.849
			c0.011,2.276,0.313,4.57,0.803,6.806c-0.218-0.128-0.43-0.268-0.768-0.252c-3.048,0.15-6.022,0.621-9.091,0.651
			c-3.708,0.036-7.351-0.513-11.027-0.884c-0.758-0.076-1.033,0.593-0.914,1.196c-0.158,0.023-0.317,0.056-0.459,0.153
			c-1.941,1.327-1.5,4.015-1.438,6.096c0.103,3.369,0.259,6.741,0.214,10.112c-0.01,0.73,0.57,1.088,1.156,1.09
			c0.138,0.62,0.605,1.159,1.44,1.182c3.978,0.107,7.952,0.17,11.931,0.203c1.969,0.016,5.442,0.585,7.715-0.114
			c-0.036,1.299,0.17,2.702,0.208,3.649c0.094,2.384,0.184,5.01,1.235,7.193c0.232,0.484,0.796,0.719,1.299,0.745
			c0.087,0.015,0.175,0.03,0.262,0.046c0.233,0.202,0.519,0.133,0.687-0.044c3.292,0.836,7.109-2.658,9.414-4.45
			c3.824-2.975,7.829-7.064,12.151-10.284c0.1-0.055,0.184-0.105,0.251-0.195c2.701-1.984,5.526-3.615,8.517-4.401
			C193.879,68.212,194.184,65.991,192.771,65.199z M138.656,73.166c-0.029,0.001-0.047,0.015-0.075,0.017
			c0.283-1.326,0.425-2.68,0.514-4.039c0.894,1.426,1.969,2.77,3.157,3.963C141.053,73.133,139.854,73.133,138.656,73.166z
			 M144.415,73.072c-1.968-1.812-3.692-3.786-5.231-5.981c0.021-0.571,0.055-1.145,0.074-1.713c0.04-1.115,0.155-2.272,0.195-3.419
			c0.8,1.561,1.934,3.026,2.926,4.263c1.284,1.601,2.63,3.14,4.043,4.627c0.62,0.653,1.328,1.51,2.122,2.155
			C147.167,73.029,145.792,73.047,144.415,73.072z M151.617,72.954c-0.336,0.001-0.672,0.013-1.007,0.016
			c-0.512-1.088-1.771-1.85-2.636-2.665c-1.285-1.211-2.492-2.502-3.673-3.814c-1.815-2.021-3.604-4.203-4.925-6.607
			c-0.041-0.392-0.076-0.786-0.166-1.165c1.185,0.368,2.474,0.706,3.8,1.014c2.272,2.904,4.417,5.912,6.621,8.866
			c0.988,1.324,2.04,2.914,3.246,4.284C152.436,72.914,151.976,72.953,151.617,72.954z M154.991,72.762
			c-3.498-4.295-7.088-8.564-10.732-12.746c1.145,0.235,2.322,0.419,3.502,0.566l0.001,0.003c3.826,3.693,6.919,8.074,10.113,12.319
			C156.991,72.734,155.993,72.712,154.991,72.762z M162.377,84.569c-0.103-1.075-0.195-2.151-0.257-3.231
			c-0.038-0.667,0.034-1.609,0.083-2.609c1.264,1.641,2.661,3.215,4.228,4.274C165.055,83.813,163.687,84.398,162.377,84.569z
			 M167.789,82.109c-1.777-2.221-3.755-4.332-5.679-6.477c-0.135-0.809-0.385-1.512-0.88-1.931c-0.327-0.278-0.683-0.334-1.039-0.3
			c-0.218-0.261-0.449-0.512-0.661-0.776c-3.337-4.159-6.746-8.345-10.7-11.943c1.99,0.191,3.971,0.208,5.858,0.009
			c-0.263,4.493,12.755,16.212,15.447,19.6C169.361,80.928,168.579,81.563,167.789,82.109z M178.237,73.078
			c-1.914,1.523-4.454,4.113-7.182,6.458c-2.121-3.366-4.965-6.117-7.729-8.991c-1.008-1.048-7.776-7.141-8.271-9.909
			c1.452-0.179,2.854-0.47,4.122-0.981c0.006-0.002,0.009-0.008,0.016-0.011c2.16,3.757,4.869,7.238,7.66,10.529
			c1.326,1.564,4.562,6.392,7.157,5.798c0.47-0.108,0.539-0.782,0.132-1.011c-2.612-1.47-4.795-4.275-6.752-6.478
			c-2.661-2.994-5.267-6.126-7.538-9.443c0.064-0.103,0.141-0.198,0.187-0.31c0.539,0.848,2.047,0.619,2.005-0.536
			c-0.021-0.594-0.028-1.185-0.043-1.778c1.065,1.892,3.435,4.138,4.178,5.022c3.367,4.009,6.877,8.117,10.683,11.721
			c0.789,0.747,1.933-0.398,1.189-1.19c-2.864-3.049-5.916-5.929-8.806-8.957c-0.604-0.632-6.143-5.825-7.271-7.721
			c-0.021-1.425-0.02-2.85,0.05-4.281c0.016-0.336,0.072-0.679,0.117-1.02c5.594,7.176,11.459,15.204,18.328,21.3
			C179.715,71.891,178.971,72.493,178.237,73.078z M182.092,70.033c-6.157-7.303-13.535-13.777-19.834-20.979
			c0.077-0.483,0.159-0.968,0.212-1.449c3.691,4.484,8.057,8.108,12.734,11.337c1.239,1.628,2.467,3.264,3.689,4.904
			c1.23,1.652,2.346,3.681,4.02,4.903c0.524,0.383,0.987-0.327,0.788-0.788c-0.789-1.83-2.498-3.383-3.753-4.928
			c-0.558-0.687-1.122-1.366-1.682-2.051c3.009,1.924,6.107,3.734,9.231,5.518C185.595,67.47,183.812,68.72,182.092,70.033z"/>
		<path d="M161.871,133.468c-12.951-9.295-25.883-18.574-39.19-27.356c-1.024-0.677-2.3,0.944-1.321,1.714
			c0.045,0.035,0.092,0.068,0.137,0.105c-0.021,0.062-0.076,0.095-0.086,0.164c-0.658,4.238,2.483,10.071,4.009,13.914
			c1.618,4.076,3.716,8.572,6.957,11.726c-2.509,2.856-4.991,5.741-7.47,8.623c-2.959,3.44-6.419,6.997-8.4,11.13
			c-0.329,0.686-0.253,1.343,0.244,1.922c-0.099,0.042-0.193,0.081-0.292,0.123c-1.059,0.452-0.666,2.062,0.304,2.327
			c5.972,1.625,13.015-3.12,17.978-5.916c8.877-5.002,17.091-11.447,26.687-15.071C162.989,136.28,163.227,134.441,161.871,133.468z
			 M120.194,153.952c0.937-1.186,1.923-2.332,2.904-3.482c0.41,0.586,0.834,1.151,1.275,1.702
			C122.99,152.769,121.601,153.359,120.194,153.952z M125.683,151.603c-0.549-0.713-1.172-1.395-1.809-2.063
			c0.686-0.791,1.385-1.571,2.08-2.356c0.421,0.362,0.816,0.75,1.237,1.111c0.546,0.469,1.089,0.942,1.624,1.424
			c0.115,0.108,0.233,0.215,0.351,0.322C128.01,150.573,126.85,151.093,125.683,151.603z M130.369,149.464
			c-0.274-0.41-0.739-0.754-1.061-0.998c-0.892-0.681-1.807-1.338-2.71-2.011c0.421-0.474,0.834-0.953,1.255-1.427
			c0.94,0.892,1.906,1.757,2.931,2.545c0.411,0.316,0.869,0.683,1.349,1.007C131.544,148.869,130.958,149.185,130.369,149.464z
			 M133.728,147.78c-1.847-0.986-3.566-2.2-5.171-3.553c0.525-0.594,1.036-1.196,1.558-1.791c0.275,0.234,0.501,0.406,0.562,0.453
			c1.217,0.89,2.478,1.722,3.724,2.569c0.524,0.358,1.041,0.732,1.578,1.07c0.013,0.008,0.033,0.021,0.047,0.03
			C135.26,146.974,134.496,147.386,133.728,147.78z M139.88,144.343c-0.803,0.5-1.605,0.957-2.41,1.411
			c-0.661-0.791-2.13-1.44-2.647-1.747c-1.089-0.647-2.18-1.291-3.255-1.96c-0.241-0.149-0.48-0.304-0.721-0.454
			c1.128-1.301,2.187-2.652,3.267-3.988l3.07,3.322c0.975,1.055,1.965,2.211,3.066,3.187
			C140.127,144.19,140.003,144.267,139.88,144.343z M141.441,143.376c-1.005-1.208-2.269-2.261-3.399-3.306
			c-1.129-1.043-2.257-2.086-3.385-3.129c0.435-0.548,0.912-1.065,1.331-1.625c0.949-1.271-0.332-2.761-1.644-2.849
			c-0.859-1.482-1.623-2.998-2.351-4.527c4.363,4.339,8.285,9.095,12.574,13.513C143.522,142.091,142.48,142.729,141.441,143.376z
			 M146.125,140.519c-4.831-5.06-9.661-10.211-15.089-14.633c-1.058-2.402-2.008-4.857-2.917-7.367
			c-0.398-1.1-0.726-2.433-1.074-3.808c6.486,6.438,12.866,13.468,18.193,20.823c0.372,0.513,1.687,2.633,2.97,3.796
			C147.515,139.731,146.811,140.108,146.125,140.519z M149.628,138.362c0.49-0.764-8.235-9.986-8.841-10.666
			c-4.524-5.079-9.04-10.182-14.185-14.646c-0.148-0.535-0.303-1.07-0.478-1.586c4.172,3.227,8.388,6.391,12.608,9.551
			c3.948,5.771,8.42,11.345,13.554,16.117c-0.647,0.346-1.322,0.635-1.963,0.99C150.083,138.05,149.798,138.097,149.628,138.362z
			 M153.957,136.29c-4.393-4.257-8.617-8.556-12.524-13.232c5.235,3.895,10.498,7.752,15.778,11.592
			C156.096,135.138,155.041,135.742,153.957,136.29z"/>
		<path d="M83.8,126.741c-3.815-4.739-8.338-9.004-12.688-13.219c-4.201-4.07-8.89-9.729-14.321-12.09
			c-1.608-0.699-2.931,1-1.836,2.381c0.024,0.031,0.058,0.059,0.083,0.091c-0.158,0.17-0.316,0.342-0.468,0.501
			c-1.286,1.342-2.53,2.724-3.738,4.137c-2.092,2.449-4.809,5.51-5.051,8.879c-0.003,0.043,0.019,0.074,0.019,0.116
			c-0.698,0.14-1.164,1.11-0.557,1.735c3.628,3.736,7.722,6.878,11.143,10.793c-2.479,2.893-5.005,5.748-7.466,8.656
			c-1.638,1.938-4.857,4.713-4.306,7.504c0.105,0.533,0.646,0.957,1.197,1.029c0.478,2.68,3.704,6.205,4.804,7.484
			c0.912,1.059,2.44,3.12,3.9,3.439c0.221,0.049,0.471,0.06,0.718,0.068c-0.649,1.408,1.518,2.941,2.647,1.676
			c5.123-5.742,10.488-11.23,15.827-16.77c3.839-3.982,9.409-8.729,11.233-14.172c0.057-0.108,0.108-0.207,0.117-0.327
			c0.045-0.149,0.119-0.292,0.159-0.442C85.436,127.384,84.615,126.541,83.8,126.741z M58.052,154.704
			c0.103-0.273,0.075-0.604-0.242-0.824c-2.088-1.453-4.172-2.844-6.152-4.451c-0.477-0.386-0.932-0.795-1.395-1.199
			c-0.148-0.225-0.332-0.426-0.475-0.654c-0.438-0.701-0.729-1.464-1.205-2.09c0.315-0.352,0.589-0.754,0.879-1.139
			c1.883,2.223,4.278,4.103,6.568,5.825c0.855,0.645,2.361,1.935,3.82,2.482C59.259,153.343,58.632,154.003,58.052,154.704z
			 M60.711,151.679c-1.578-0.564-3.582-2.271-4.554-2.945c-2.196-1.527-4.206-3.276-6.104-5.149
			c0.482-0.679,0.944-1.321,1.403-1.901c1.284,1.222,2.56,2.451,3.979,3.52c1.875,1.411,3.949,3.283,6.203,4.016
			c0.49,0.158,0.851-0.502,0.494-0.85c-1.371-1.338-3.289-2.18-4.881-3.243c-1.852-1.237-3.592-2.627-5.272-4.086
			c0.802-0.962,1.627-1.903,2.442-2.854c1.732,1.595,3.437,3.22,5.176,4.804c0.739,0.673,3.328,3.595,4.62,2.636
			c0.477-0.354,0.216-1.279-0.438-1.039c-0.123,0.045-1.393-1.062-1.545-1.175c-1.17-0.867-2.271-1.836-3.375-2.782
			c-1.257-1.074-2.531-2.128-3.795-3.193c0.537-0.625,1.068-1.254,1.606-1.879c2.346,2.485,4.67,4.994,7.015,7.479
			c0.664,0.704,1.735,2.178,2.831,2.342C64.567,147.464,62.595,149.534,60.711,151.679z M67.224,144.611
			c-0.182-0.501-0.626-1.08-0.786-1.267c-0.181-0.211-0.428-0.184-0.608-0.055c-1.283-1.068-2.535-2.195-3.731-3.361
			c-1.668-1.625-3.307-3.278-4.958-4.92c0.671-0.781,1.338-1.563,2.007-2.346c1.718,1.53,3.45,3.042,5.107,4.633
			c1.702,1.633,3.343,3.42,5.176,4.922C68.685,143.007,67.968,143.82,67.224,144.611z M70.299,141.234
			c-1.55-1.744-3.541-3.199-5.292-4.691c-1.769-1.508-3.534-3.022-5.32-4.511c0.184-0.216,0.371-0.43,0.554-0.646
			c0.669-0.797,0.771-1.895,0-2.681c-3.686-3.758-7.917-7.04-12.292-9.989c0.814-0.481,1.103-1.52,1.579-2.345
			c0.023-0.041,0.057-0.076,0.081-0.117c4.112,3.782,8.074,7.685,11.962,11.707c3.485,3.607,6.967,7.574,11.058,10.541
			C71.857,139.438,71.086,140.37,70.299,141.234z M73.621,137.304c-3.487-3.606-7.446-6.855-11.056-10.336
			c-4.056-3.91-8.094-7.871-12.449-11.449c0.769-1.158,1.66-2.239,2.545-3.306c2.909,4.122,6.11,7.982,9.67,11.605
			c2.669,2.717,5.509,5.261,8.383,7.757c0.907,0.788,3.124,2.081,4.795,3.386C74.875,135.741,74.248,136.526,73.621,137.304z
			 M76.446,133.832c-0.06-0.044-0.128-0.086-0.186-0.13c-2.926-2.285-5.772-4.66-8.576-7.096
			c-5.256-4.564-10.198-9.584-14.433-15.127c0.812-0.955,1.678-1.864,2.534-2.781c3.859,3.423,7.674,6.878,11.312,10.544
			c3.917,3.944,7.149,8.703,11.168,12.492C77.656,132.425,77.042,133.113,76.446,133.832z M79.293,130.597
			c-2.404-4.242-6.439-7.804-9.887-11.16c-4.127-4.019-8.519-7.795-12.998-11.422c0.182-0.19,0.35-0.395,0.533-0.584
			c0.229-0.238,0.452-0.48,0.684-0.718c3.378,3.334,7.456,6.306,10.798,9.497c4.278,4.086,8.52,8.483,13.342,11.971
			C80.911,128.923,80.095,129.746,79.293,130.597z"/>
	</g>
</g>
<g>
</g>
<g>
</g>
<g>
</g>
<g>
</g>
<g>
</g>
<g>
</g>
<g>
</g>
<g>
</g>
<g>
</g>
<g>
</g>
<g>
</g>
<g>
</g>
<g>
</g>
<g>
</g>
<g>
</g>
</svg>
