<?xml version="1.0" encoding="iso-8859-1"?>
<!-- Generator: Adobe Illustrator 16.0.0, SVG Export Plug-In . SVG Version: 6.00 Build 0)  -->
<!DOCTYPE svg PUBLIC "-//W3C//DTD SVG 1.1//EN" "http://www.w3.org/Graphics/SVG/1.1/DTD/svg11.dtd">
<svg version="1.1" id="Capa_1" xmlns="http://www.w3.org/2000/svg" xmlns:xlink="http://www.w3.org/1999/xlink" x="0px" y="0px"
	 width="191.975px" height="191.975px" viewBox="0 0 191.975 191.975" style="enable-background:new 0 0 191.975 191.975;"
	 xml:space="preserve">
<g>
	<g>
		<path d="M48.901,97.806c1.69-3.02,1.342-7.244,0.016-10.276c-0.792-1.81-2.376-3.54-4.383-3.913
			c-1.433-0.266-3.615,0.393-4.658,1.681c-4.266,0.075-7.366,4.427-6.871,9.007c0.157,1.453,0.699,2.697,1.461,3.752
			c-1.58,0.436-2.727,1.765-3.958,2.913c-2.328,2.17-4.536,4.473-6.775,6.733c-2.319,2.343-4.641,4.681-7.048,6.937
			c-1.63,1.527-4.373,2.991-5.102,5.166c-0.006,0.016,0.01,0.033,0.006,0.05c-0.651-0.302-1.332-0.533-2.062-0.58
			c-2.299-0.146-5.513,1.39-6.235,3.735c-2.667,1.167-3.887,4.797-3.009,8.229c1.499,5.858,8.643,7.81,13.383,4.462
			c4.186-2.956,3.851-9.039,1.265-12.93c-0.469-0.705-1.074-1.334-1.736-1.89c4.044-0.317,8.963-6.357,11.407-8.711
			c2.375-2.284,4.652-4.672,7.006-6.978c1.562-1.531,4.113-3.064,4.942-5.158c2.748,1.836,6.564,2.172,9.678,0.46
			c0.936-0.515,1.635-1.223,2.204-2.014C48.74,98.396,48.957,98.152,48.901,97.806z M3.511,131.122
			c-0.623-1.249-0.715-2.558-0.423-3.714c0.622,1.178,1.306,2.321,2.115,3.407c0.87,1.169,1.926,2.546,3.204,3.407
			C6.416,134.132,4.452,133.005,3.511,131.122z M9.956,134.071c-0.903-1.29-2.308-2.246-3.376-3.417
			c-1.219-1.336-2.186-2.869-3.025-4.467c0.281-0.471,0.645-0.884,1.093-1.212c0.22-0.005,0.441-0.016,0.663-0.115
			c0.075-0.034,0.13-0.091,0.2-0.13c1.013,1.731,2.045,3.451,3.174,5.111c0.796,1.172,1.665,2.515,2.693,3.619
			C10.928,133.739,10.451,133.944,9.956,134.071z M12.533,132.479c-0.029,0.033-0.065,0.048-0.095,0.08
			c-0.911-1.109-1.899-2.179-2.761-3.297c-1.233-1.604-2.343-3.301-3.44-5c0.379-0.078,0.776-0.129,1.212-0.112
			c0.628,0.023,0.642-0.776,0.169-1.012c0.239-0.169,0.497-0.314,0.779-0.423c1.531,2.751,3.125,5.642,4.988,8.172
			C13.2,131.459,12.936,132.004,12.533,132.479z M13.644,128.427c-1.283-2.007-2.829-3.919-4.207-5.842
			c1.097,0.094,2.074,0.998,2.683,1.831C12.924,125.517,13.503,126.97,13.644,128.427z M43.833,86.792
			c0.991-0.002,1.715,1.359,2.095,2.081c0.795,1.513,1.062,3.513,0.732,5.328c-0.549-0.653-1.11-1.29-1.623-1.906
			c-1.244-1.494-2.632-2.862-3.996-4.25C42.02,87.697,42.731,86.792,43.833,86.792z M36.27,94.729
			c-0.332-1.07-0.35-2.057-0.163-2.956c0.497,1.158,1.313,2.23,2.011,3.198c0.753,1.045,1.717,2.388,2.812,3.45
			C38.853,98.078,36.884,96.701,36.27,94.729z M43.248,98.342c-1.073-1.338-2.544-2.491-3.633-3.799
			c-0.881-1.057-2.477-2.735-2.985-4.213c0.215-0.388,0.533-0.705,0.835-1.034c1.335,1.763,2.674,3.523,4.016,5.28
			c0.839,1.096,1.632,2.336,2.529,3.453C43.759,98.144,43.512,98.271,43.248,98.342z M45.379,97.081
			c-0.904-1.15-1.989-2.223-2.882-3.289c-1.445-1.725-2.894-3.447-4.345-5.166c0.415-0.327,0.853-0.632,1.351-0.86
			c1.396,1.532,2.768,3.075,4.018,4.736c0.849,1.126,1.592,2.44,2.414,3.661c-0.169,0.291-0.275,0.621-0.5,0.872
			C45.418,97.055,45.396,97.062,45.379,97.081z"/>
		<path d="M191.897,41.722c-0.055-0.122-0.156-0.228-0.226-0.345c0.206-1.903-0.099-3.913-0.923-5.827
			c-2.53-5.877-9.222-6.286-13.878-2.79c-0.693,0.52-0.81,1.304-0.607,1.97c-1.382,0.563-2.304,1.601-2.834,2.864
			c-0.181-0.006-0.35,0.101-0.236,0.317c0.021,0.042,0.054,0.075,0.075,0.117c-0.57,1.719-0.458,3.791,0.349,5.742
			c1.385,3.352,4.116,5.628,7.276,6.138c-10.969,30.549-22.003,62.625-30.274,93.995c-0.166-0.091-0.31-0.22-0.502-0.251
			c-0.119-0.109-0.29-0.261-0.597-0.536c-0.729-0.657-1.435-1.328-2.131-2.021c-2.065-2.06-3.98-4.276-5.888-6.481
			c-4.657-5.384-8.724-11.193-13.035-16.838c1.458-1.686,2.417-3.858,2.616-6.01c0.506-5.485-3.705-9.484-9.172-8.98
			c-0.376,0.035-0.659,0.188-0.893,0.382c-3.595-2.074-7.039,2.149-7.825,5.924c-0.295,1.413-0.28,2.79-0.037,4.085
			c-0.048,0.01-0.097-0.003-0.144,0.015c-2.054,0.708-2.619,2.474-3.798,4.224c-2.172,3.224-4.768,6.147-7.422,8.976
			c-5.106,5.441-10.989,10.573-17.771,13.794c-0.942-0.496-2.023-0.813-3.194-0.898c-2.06-0.725-3.843-0.504-5.298,0.265
			c-6.364-5.462-11.716-11.174-16.798-17.955c-4.452-5.944-10.284-13.224-12.81-20.301c-0.176-0.494-1.005-0.611-1.12,0
			c-1.516,8.05,7.259,17.662,11.692,23.647c3.018,4.075,10.097,15.577,16.397,17.146c-2.34,3.824-1.79,9.913,3.379,12.021
			c4.684,1.91,9.623-1.541,10.972-5.98c0.715-2.354,0.256-4.479-0.951-6.059c6.569-2.047,12.263-7.158,17.026-11.829
			c2.61-2.561,9.849-9.021,11.073-13.895c1.54,2.542,4.222,4.313,7.646,4.455c1.71,0.071,3.262-0.479,4.594-1.387
			c3.797,7.169,8.478,13.599,13.82,19.749c1.691,1.948,5.775,8.104,9.229,7.699c-0.04,0.06-0.091,0.098-0.13,0.161
			c-0.629,0.248-1.229,0.632-1.711,1.278c-1.694,2.271-1.821,5.459-0.771,8.028c1.682,4.12,7.885,6.299,12.073,4.439
			c0.119-0.009,0.222-0.059,0.32-0.128c0.742-0.376,1.434-0.845,1.99-1.509c2.833-3.382,1.521-8.846-0.928-12.052
			c-2.016-2.64-5.261-3.689-7.954-2.602c15.322-28.276,23.11-63.293,31.822-94.078c0.069-0.244,0.075-0.464,0.058-0.671
			c0.57-0.152,1.145-0.34,1.718-0.615c2.854-1.37,4.569-3.716,5.23-6.387C191.833,42.664,192.122,42.21,191.897,41.722z
			 M77.117,151.047c-2.389-0.763-2.834-3.899-2.4-5.985c0.074-0.355,0.227-0.664,0.358-0.984c0.862,0.935,3.656,5.021,5.363,6.975
			C79.459,151.388,78.334,151.437,77.117,151.047z M82.743,149.446c-0.645-0.561-1.317-1.099-1.9-1.725
			c-1.4-1.505-2.579-3.24-3.551-5.045c-0.32-0.595-1.2-0.07-0.899,0.524c0.785,1.555,1.752,2.981,2.807,4.359
			c-0.67-0.729-1.339-1.458-1.953-2.215c-0.279-0.345-1.168-1.509-1.939-1.863c0.721-1.304,1.947-2.191,3.38-2.569
			c0.005,0.021-0.007,0.035,0.002,0.055c1.112,2.474,2.251,5.986,4.383,8.019C82.958,149.139,82.868,149.304,82.743,149.446z
			 M83.879,147.495c-0.802-0.828-1.592-1.659-2.266-2.679c-0.534-0.809-0.995-1.662-1.444-2.522c0.086,0.018,0.155,0.056,0.25,0.06
			C83.937,142.496,84.738,145.123,83.879,147.495z M122.971,117.608c-4.12,0.956-6.917-2.983-6.97-6.607
			c-0.002-0.133,0.018-0.275,0.023-0.413c2.072,2.417,4.235,5.061,7.023,6.383c0.555,0.263,1.253-0.474,0.704-0.912
			c-1.447-1.159-2.998-2.118-4.369-3.385c-1.115-1.028-2.165-2.127-3.235-3.204c0.166-0.937,0.534-1.847,1.008-2.664
			c1.155,1.891,2.643,3.633,4.089,5.271c1.258,1.425,2.487,3.141,3.954,4.418C124.535,116.999,123.806,117.414,122.971,117.608z
			 M126.331,115.421c-0.05-0.004-0.086,0.05-0.135,0.055c-1.034-1.187-2.3-2.241-3.399-3.333c-1.894-1.88-3.587-3.964-5.176-6.104
			c0.599-0.753,1.396-1.225,2.322-1.399c1.025,1.845,2.308,3.465,3.838,4.955c1.134,1.104,2.446,2.477,3.835,3.534
			C127.326,113.96,126.892,114.742,126.331,115.421z M127.993,111.047c-0.954-0.658-1.957-1.271-2.794-1.946
			c-1.214-0.978-2.292-2.085-3.282-3.27c3.405,0.104,6.062,1.333,6.087,5.1C128.003,110.971,127.993,111.008,127.993,111.047z
			 M150.931,156.85c-1.148-0.976-1.818-3.414-1.628-5.454c1.701,2.443,3.53,4.942,5.657,6.953
			C153.379,158.177,151.809,157.594,150.931,156.85z M157.787,148.501c1.326,1.458,2.176,3.636,2.183,5.7
			c-0.764-0.711-1.569-1.399-2.203-2.137c-1.3-1.516-2.404-3.189-3.439-4.902C155.44,146.854,156.544,147.135,157.787,148.501z
			 M152.582,148.281c0.285,0.057,0.482-0.241,0.35-0.486c0.213-0.139,0.419-0.213,0.628-0.317c1.005,1.819,2.083,3.595,3.29,5.295
			c0.756,1.063,1.686,2.492,2.807,3.446c-0.281,0.811-0.832,1.351-1.534,1.691c-0.894-0.953-1.829-1.878-2.67-2.85
			c-1.617-1.869-2.991-3.919-4.213-6.062c0.079-0.042,0.163-0.038,0.238-0.102c0.257-0.217,0.507-0.418,0.752-0.607
			C152.355,148.302,152.446,148.253,152.582,148.281z M183.157,46.58c-1.124-1.451-2.968-2.443-4.36-3.623
			c-1.062-0.9-2.075-1.862-3.039-2.871c-0.07-1.031,0.168-2.008,0.708-2.829c1.397,1.834,2.823,3.641,4.369,5.355
			c0.978,1.085,2.192,2.59,3.562,3.561C183.98,46.352,183.565,46.491,183.157,46.58z M185.975,45.21
			c-1.402-1.166-2.915-2.198-4.232-3.507c-1.646-1.635-3.17-3.398-4.688-5.156c0.241-0.222,0.488-0.441,0.806-0.613
			c0.225-0.035,0.456-0.121,0.691-0.296c0.327-0.243,0.661-0.454,0.997-0.654c1.149,1.445,2.289,2.898,3.487,4.303
			c1.217,1.428,2.557,3.25,4.114,4.552C186.807,44.331,186.463,44.824,185.975,45.21z M184.562,38.75
			c-1.365-1.384-2.632-2.86-3.916-4.32c0.778-0.334,1.553-0.471,2.314-0.502c1.036,1.376,2.151,2.686,3.288,3.985
			c0.642,0.733,1.328,1.658,2.069,2.518c-0.042,0.527-0.127,1.049-0.279,1.555C186.874,40.911,185.664,39.865,184.562,38.75z"/>
	</g>
</g>
<g>
</g>
<g>
</g>
<g>
</g>
<g>
</g>
<g>
</g>
<g>
</g>
<g>
</g>
<g>
</g>
<g>
</g>
<g>
</g>
<g>
</g>
<g>
</g>
<g>
</g>
<g>
</g>
<g>
</g>
</svg>
