<?xml version="1.0" encoding="iso-8859-1"?>
<!-- Generator: Adobe Illustrator 16.0.0, SVG Export Plug-In . SVG Version: 6.00 Build 0)  -->
<!DOCTYPE svg PUBLIC "-//W3C//DTD SVG 1.1//EN" "http://www.w3.org/Graphics/SVG/1.1/DTD/svg11.dtd">
<svg version="1.1" id="Capa_1" xmlns="http://www.w3.org/2000/svg" xmlns:xlink="http://www.w3.org/1999/xlink" x="0px" y="0px"
	 width="195.372px" height="195.372px" viewBox="0 0 195.372 195.372" style="enable-background:new 0 0 195.372 195.372;"
	 xml:space="preserve">
<g>
	<g>
		<path d="M190.735,105.041c-0.775-18.511,1.151-38.177-1.851-56.44c-0.146-0.888-0.719-1.475-1.433-1.827
			c-14.613-32.659-64.33-25.695-84.387-0.502c-6.814-14.377-32.479-19.53-45.559-21.124c-16.553-2.017-37.784,1.808-46.261,17.471
			C10,41.832,8.333,41.893,7.358,43.62c-8.772,15.568-7.373,37.86-7.133,55.066c0.316,22.711,2.602,45.406,4.098,68.059
			c0.087,1.32,0.855,2.149,1.791,2.484c0.768,1.371,2.872,2.131,4.227,0.787c24.762-24.558,58.705-20.766,86.448-4.792
			c-0.281,0.924-0.239,1.917,0.278,2.85c0.322,0.581,0.543,1.177,1.223,1.383c0.316,0.097,0.635,0.193,0.952,0.289
			c1.239,0.377,2.631-0.042,3.538-0.935c19.492-19.194,68.247-33.826,82.981-3.16c1.367,2.847,4.508,1.983,5.831-0.114
			c1.363,1.105,4.004,0.457,3.764-1.651C193.126,144.31,191.56,124.725,190.735,105.041z M9.956,162.45
			c0.52-17.842-0.992-35.717-1.699-53.534c-0.839-21.138,1.161-40.457,4.273-61.127c0.132-0.099,0.264-0.198,0.368-0.337
			c10.682-14.259,27.894-16.267,44.61-14.903c17.428,1.422,29.045,8.995,41.426,20.05c-0.321,0.764-0.328,1.475-0.079,2.078
			c-8.093,32.673-3.301,69.736,0.177,103.212C77.516,135.239,30.672,140.82,9.956,162.45z M104.124,157.983
			c3.484-34.794-3.837-69.872,2.1-104.797c0.056-0.328,0.023-0.619,0.002-0.914c17.236-20.141,62.613-32.491,74.579-1.838
			c0.361,0.925,0.961,1.567,1.664,1.983c-2.144,17.092-0.354,35.612,0.432,52.624c0.727,15.714,2.093,31.496,5.134,46.947
			C173.042,129.173,125.406,142.471,104.124,157.983z"/>
		<path d="M86.707,130.321c-3.164-10.346-19.909-13.347-29.235-13.89c-12.789-0.745-25.531,5.967-30.985,17.64
			c-1.06,2.271,1.883,5.084,3.722,2.872c7.282-8.759,15.779-12.971,27.263-12.888c5.591,0.04,11.082,1.934,16.08,4.267
			c3.683,1.719,6.045,4.463,10.13,5.025C85.419,133.584,87.313,132.307,86.707,130.321z"/>
		<path d="M82.646,102.266c-3.953-8.402-18.622-9.572-26.6-9.603c-11.462-0.043-23.351,4.339-29.994,13.968
			c-1.871,2.713,2.3,5.826,4.512,3.48c6.891-7.313,15.604-10.04,25.482-10.278c9.327-0.225,15.026,4.077,23.195,6.863
			C81.975,107.629,83.677,104.457,82.646,102.266z"/>
		<path d="M84.164,69.619c-16.352-19.255-43.959-10.478-56.542,8.477c-1.705,2.569,2.199,5.564,4.258,3.285
			C44.015,67.946,64.904,58.605,78.781,75C81.957,78.751,87.321,73.338,84.164,69.619z"/>
		<path d="M155.635,116.111c-14.532-4.178-26.331,1.172-37.814,10.468c-0.819,0.663-1.027,1.977-0.775,2.938v-0.002
			c-0.059,0.626,0.358,1.195,0.903,1.429c0.744,0.626,1.853,1.048,2.809,0.681c6.593-2.53,14.015-9.466,21.107-9.873
			c5.405-0.31,11.062,1.532,16.123,3.214c2.319,0.77,4.538,1.781,6.708,2.895c1.026,0.522,1.965,1.171,2.824,1.935
			c-0.975,2.419,1.466,5.249,4.169,3.755C184.396,126.521,159.953,117.353,155.635,116.111z"/>
		<path d="M172.246,105.445c-4.487-8.533-17.181-11.13-25.993-11.852c-11.463-0.939-22.854,4.896-30.634,12.862
			c-1.773,1.816,0.591,5.147,2.784,3.609c8.669-6.078,17.082-9.709,27.85-9.204c8.883,0.417,15.122,6.441,23.297,8.092
			C171.617,109.37,173.258,107.368,172.246,105.445z"/>
		<path d="M174.529,67.745c-14.223-20.071-44.669-10.407-57.657,5.624c-2.024,2.498,1.287,6.03,3.604,3.605
			c6.254-6.542,13.535-10.703,22.354-12.723c10.77-2.468,18.716,2.218,27.081,8.112C172.637,74.282,176.462,70.471,174.529,67.745z"
			/>
	</g>
</g>
<g>
</g>
<g>
</g>
<g>
</g>
<g>
</g>
<g>
</g>
<g>
</g>
<g>
</g>
<g>
</g>
<g>
</g>
<g>
</g>
<g>
</g>
<g>
</g>
<g>
</g>
<g>
</g>
<g>
</g>
</svg>
