<?xml version="1.0" encoding="iso-8859-1"?>
<!-- Generator: Adobe Illustrator 16.0.0, SVG Export Plug-In . SVG Version: 6.00 Build 0)  -->
<!DOCTYPE svg PUBLIC "-//W3C//DTD SVG 1.1//EN" "http://www.w3.org/Graphics/SVG/1.1/DTD/svg11.dtd">
<svg version="1.1" id="Capa_1" xmlns="http://www.w3.org/2000/svg" xmlns:xlink="http://www.w3.org/1999/xlink" x="0px" y="0px"
	 width="191.046px" height="191.045px" viewBox="0 0 191.046 191.045" style="enable-background:new 0 0 191.046 191.045;"
	 xml:space="preserve">
<g>
	<g>
		<path d="M189.81,132.717c-4.058-1.056-8.175-1.293-12.313-1.206c0.39-23.304,1.616-48.646-3.546-70.354
			c-0.285-1.199-1.952-1.649-2.792-0.737c-6.787,7.371-12.723,15.428-19.54,22.773c-2.213,2.384-14.052-16.981-16.893-20.034
			c-0.56-0.601-1.781-0.686-2.325,0c-4.86,6.136-13.206,20.994-17.911,7.691c-0.559-1.581-1.104-3.133-1.649-4.693
			c0.317-0.257,0.407-0.77-0.04-1.033c-0.146-0.086-0.276-0.19-0.421-0.279c-2.806-7.974-5.672-15.683-10.079-23.107
			c-0.772-1.302-2.443-0.854-2.944,0.385c-4.48,11.083-8.363,22.359-12.346,33.627c-7.111,20.119-14.285-3.381-18.747-11.547
			c-0.829-1.518-2.775-0.639-2.949,0.799c-2.885,23.868-6.1,47.602-12.85,70.721c-4.538,0.033-9.027-0.117-13.498-0.304
			c-3.488-9.405-7.643-18.363-12.931-26.968c-0.559-0.91-1.623-0.919-2.396-0.309c-1.526,1.204-3.029,2.401-4.517,3.606
			c-0.238-8.154-0.69-16.267-1.438-24.239c-1.752-18.678-4.991-37.133-1.374-55.722c0.066-0.343-0.315-0.773-0.664-0.51
			c-9.844,7.386-3.55,33.739-2.545,43.718c1.351,13.414,1.693,26.813,1.877,40.218c-3.497,2.995-6.858,6.126-9.989,9.654
			c-0.817,0.921,0.494,2.26,1.36,1.359c2.903-3.018,5.81-6.222,8.67-8.499c0.07,5.716,0.128,11.433,0.215,17.153
			c-4.829,0.138-9.676,0.507-14.573,1.339c-1.025,0.174-0.79,1.926,0.246,1.817c4.811-0.502,9.594-0.674,14.369-0.676
			c0.113,6.488,0.285,12.98,0.617,19.479c0.088,1.729,2.596,1.729,2.684,0c0.326-6.41,0.536-12.912,0.666-19.444
			c5.825,0.117,11.652,0.472,17.495,0.849c2.384,6.789,4.505,13.692,6.797,20.396c0.429,1.253,2.334,1.762,3.018,0.394
			c3.252-6.497,5.89-13.18,8.123-19.986c14.939,0.051,29.828-1.663,44.703-3.022c15.226-1.391,30.312-0.919,45.558-0.261
			c9.095,0.393,19.231-1.032,28.949-1.14c0.077,3.322,0.164,6.644,0.193,9.971c0.02,2.146,3.348,2.147,3.329,0
			c-0.028-3.254-0.008-6.578,0.036-9.948c3.95,0.112,7.804,0.495,11.442,1.418C191.059,136.617,191.977,133.281,189.81,132.717z
			 M19.263,134.815c0.1-6.523,0.062-13.069-0.079-19.6c0.69-0.265,1.375-0.397,2.055-0.46c0.165,0.276,0.371,0.544,0.549,0.817
			c-0.151,0.688-0.243,1.41-0.261,2.161c-0.326-0.211-0.835,0.192-0.57,0.541c0.169,0.222,0.378,0.411,0.555,0.627
			c0.048,1.278,0.189,2.535,0.269,3.557c0.262,3.365,0.732,6.718,1.18,10.062c0.088,0.659,0.078,1.529,0.166,2.363
			C21.838,134.86,20.551,134.812,19.263,134.815z M23.382,114.896c2.212,0.604,4.36,2.584,6.413,6.602
			c0.048,0.095,0.085,0.196,0.133,0.291c-0.772-0.522-1.549-1.04-2.278-1.618c-1.599-1.267-2.996-2.744-4.272-4.325
			C23.382,115.533,23.356,115.176,23.382,114.896z M23.441,117.917c2.196,2.719,4.951,5.107,7.85,6.853
			c0.436,0.966,0.911,1.91,1.322,2.89c-1.328-1.457-3.124-2.649-4.581-3.874c-1.516-1.273-2.986-2.604-4.406-3.985
			C23.543,119.162,23.494,118.539,23.441,117.917z M23.877,121.546c0.919,0.917,1.868,1.805,2.808,2.689
			c1.861,1.752,3.72,3.875,5.877,5.259c0.256,0.165,0.551,0.083,0.747-0.101c0.42,1.044,0.855,2.08,1.258,3.134
			c-1.001-0.667-2.03-1.299-2.981-1.976c-2.402-1.71-4.742-3.506-7.053-5.338C24.355,124.277,24.104,122.967,23.877,121.546z
			 M26.123,134.935c0.065-1.112-0.105-2.448-0.346-3.756c0.758,0.778,1.509,1.584,2.291,2.287c0.604,0.543,1.217,1.073,1.827,1.61
			C28.638,135.03,27.378,134.971,26.123,134.935z M32.378,135.167c-0.006-0.005-0.013-0.009-0.019-0.014
			c-1.11-0.88-2.199-1.787-3.288-2.694c-1.176-0.979-2.357-1.891-3.594-2.755c-0.281-1.28-0.557-2.385-0.69-3.118
			c1.762,1.465,3.527,2.926,5.339,4.328c1.685,1.305,3.461,2.878,5.362,3.98c0.049,0.133,0.105,0.262,0.154,0.395
			C34.552,135.243,33.466,135.211,32.378,135.167z M40.36,139.162c-0.082-0.236-0.178-0.465-0.261-0.701
			c1.677,0.109,3.345,0.218,5.027,0.32c2.125,0.13,4.248,0.206,6.371,0.25C47.066,153.843,45.941,155.253,40.36,139.162z
			 M55.751,135.62c3.467-11.333,5.873-22.993,7.904-34.779c0.333-1.933,0.592-3.876,0.887-5.814
			c-1.229,13.584-1.883,27.283,0.461,40.153C61.923,135.357,58.844,135.547,55.751,135.62z M143.538,81.788
			c-2.783-2.203-5.551-4.432-8.297-6.706c-0.052-0.922-0.118-1.869-0.163-2.781C138.442,73.347,141.245,77.494,143.538,81.788z
			 M107.211,59.492c0.273,0.708,0.498,1.431,0.763,2.141c-1.344-1.086-2.675-2.19-4.089-3.187c-0.032-0.023-0.065-0.006-0.1-0.019
			c-0.228-2.866-0.483-5.725-0.797-8.565C104.095,51.458,105.372,54.732,107.211,59.492z M68.208,71.498
			c1.497-2.816,3.395,5.395,4.666,10.13c-0.527-0.333-1.066-0.65-1.564-1.02c-1.073-0.798-2.107-1.645-3.144-2.49
			C68.191,75.912,68.248,73.706,68.208,71.498z M68.159,79.432c0.805,0.711,1.602,1.43,2.417,2.129
			c0.92,0.788,1.919,1.651,2.983,2.384c0.009,0.028,0.021,0.067,0.031,0.093c0.914,2.491,1.526,4.096,2.106,5.507
			c-1.438-1.188-3.056-2.229-4.484-3.392c-1.075-0.874-2.094-1.814-3.077-2.79C68.159,82.053,68.141,80.742,68.159,79.432z
			 M68.125,84.954c0.713,0.714,1.434,1.419,2.193,2.094c1.756,1.563,3.762,3.445,5.954,4.345c0.08,0.033,0.144,0.006,0.214,0
			c0.216,0.489,0.441,0.987,0.691,1.533c-1.057-0.76-2.124-1.503-3.126-2.352c-1.974-1.673-3.93-3.365-5.93-5.005
			C68.125,85.364,68.12,85.159,68.125,84.954z M67.31,113.73c4.026,3.572,7.939,7.979,12.569,10.527
			c-0.045,1.004-0.112,2.007-0.122,3.009c-2.147-1.509-4.409-2.884-6.434-4.573c-2.177-1.816-4.172-3.828-6.1-5.903
			C67.244,115.77,67.284,114.75,67.31,113.73z M67.202,135.074c-0.076-2.1-0.104-4.199-0.128-6.297
			c1.151,1.246,2.31,2.483,3.522,3.673c0.684,0.672,1.472,1.47,2.322,2.182C71.013,134.779,69.109,134.951,67.202,135.074z
			 M75.717,134.415c-1.53-1.15-3.101-2.229-4.538-3.542c-1.417-1.293-2.771-2.653-4.139-4c-0.006-1.297,0.044-2.591,0.053-3.888
			c2.085,2.056,4.077,4.201,6.118,6.307c1.598,1.65,3.379,3.606,5.419,4.897C77.66,134.263,76.688,134.334,75.717,134.415z
			 M73.506,127.61c-2.116-2.021-4.215-4.069-6.394-6.025c0.012-1.176,0.059-2.351,0.081-3.526c1.621,1.952,3.316,3.838,5.181,5.583
			c2.142,2.005,4.669,4.241,7.387,5.674c0.034,1.262,0.096,2.52,0.251,3.753C77.841,131.257,75.574,129.585,73.506,127.61z
			 M79.955,122.387c-2.38-1.635-4.745-3.264-6.994-5.166c-1.839-1.557-3.694-3.104-5.621-4.553c0.037-1.351,0.087-2.701,0.129-4.052
			c2.315,2.11,4.62,4.234,6.968,6.291c1.027,0.9,3.656,3.789,5.69,4.329C80.067,120.289,80.016,121.323,79.955,122.387z
			 M80.307,115.98c-0.026,0.599-0.069,1.226-0.1,1.833c-0.684-0.437-1.426-1.103-1.793-1.365c-1.912-1.369-3.714-2.9-5.517-4.408
			c-1.81-1.513-3.585-3.094-5.388-4.638c0.044-1.341,0.09-2.682,0.135-4.023c2.178,1.896,4.349,3.8,6.549,5.671
			c1.518,1.291,3.955,4.045,6.21,4.659C80.371,114.466,80.338,115.223,80.307,115.98z M80.462,112.312
			c-0.61-0.417-1.225-0.978-1.705-1.328c-1.667-1.219-3.286-2.501-4.897-3.792c-2.078-1.663-4.123-3.368-6.174-5.065
			c0.058-1.702,0.098-3.406,0.153-5.11c1.839,1.444,3.677,2.891,5.531,4.316c2.125,1.634,4.692,4.138,7.35,4.924
			C80.633,108.275,80.548,110.292,80.462,112.312z M80.782,104.781c-2.101-1.638-4.672-2.925-6.83-4.445
			c-2.038-1.435-4.058-2.895-6.083-4.348c0.046-1.418,0.07-2.836,0.112-4.254c2.102,1.913,4.259,3.77,6.452,5.566
			c1.875,1.535,4.101,3.734,6.469,4.668C80.861,102.906,80.822,103.844,80.782,104.781z M80.972,100.339
			c-1.852-1.425-3.878-2.685-5.742-4.07c-2.491-1.852-4.895-3.823-7.213-5.892c0.033-1.185,0.048-2.37,0.076-3.555
			c2.002,1.748,3.96,3.544,5.919,5.343c1.41,1.294,3.001,2.82,4.706,4.083c0.135,0.29,0.251,0.538,0.399,0.856
			c0.324,0.697,1.246,0.897,1.964,0.652C81.045,98.618,81.007,99.479,80.972,100.339z M82.294,133.885
			c0.456-2.769,0.551-5.642,0.537-8.522c0.291-0.202,0.347-0.736-0.003-0.985l-0.001-0.001c-0.037-2.829-0.157-5.659-0.15-8.397
			c0.014-5.907-0.042-11.814-0.164-17.719c0.52,0.016,0.947-0.684,0.48-1.057c-0.159-0.127-0.333-0.234-0.493-0.359
			c-0.009-0.397-0.001-0.795-0.011-1.192c5.553-12.875,10.089-26.085,14.781-39.299c1.96-5.52,3.208-7.879,4.489-7.552
			c-0.847,15.828-0.283,31.89,0.497,47.928c-0.399-0.229-0.788-0.474-1.196-0.688c-0.335-0.175-0.633,0.329-0.297,0.509
			c0.528,0.282,1.02,0.618,1.529,0.929c0.082,1.666,0.153,3.332,0.238,4.997c-0.418-0.368-0.829-0.743-1.249-1.108
			c-0.506-0.438-1.246,0.288-0.741,0.741c0.702,0.629,1.378,1.285,2.068,1.925c0.086,1.67,0.166,3.343,0.252,5.011
			c-0.137,0.065-0.227,0.198-0.091,0.359c0.036,0.043,0.08,0.081,0.115,0.124c0.392,7.589,0.768,15.157,1.005,22.672
			C96.671,132.642,89.481,133.26,82.294,133.885z M103.883,59.771c1.483,1.264,2.926,2.574,4.383,3.868
			c0.2,0.178,0.409,0.366,0.617,0.553c0.762,2.137,1.552,4.265,2.281,6.412c-0.017-0.012-0.037-0.025-0.054-0.037
			c-2.214-1.669-4.351-3.441-6.534-5.148c-0.09-0.071-0.19-0.091-0.285-0.081C104.167,63.478,104.024,61.625,103.883,59.771z
			 M104.349,66.201c1.911,1.581,3.812,3.178,5.68,4.812c0.565,0.495,1.208,1.166,1.889,1.786c0.423,1.236,0.837,2.474,1.273,3.706
			c-2.798-2.046-5.66-4.018-8.543-5.818C104.561,69.188,104.445,67.697,104.349,66.201z M104.704,71.657
			c2.291,1.636,4.485,3.395,6.654,5.193c0.915,0.758,1.856,1.575,2.828,2.354c0.483,1.309,0.958,2.621,1.48,3.918
			c0.288,0.715,1.055,1.304,1.832,1.171c-0.068,0.439-0.091,0.881-0.147,1.321c-0.303-0.062-0.652,0.093-0.646,0.477
			c-0.012-0.782-5.4-3.499-6.434-4.204c-1.775-1.211-3.477-2.529-5.192-3.826C104.978,75.921,104.825,73.792,104.704,71.657z
			 M105.153,79.483c2.463,1.97,4.959,3.901,7.537,5.706c0.32,0.224,3.192,2.007,4.493,1.92c-0.195,1.97-0.32,3.942-0.335,5.919
			c-1.293-0.826-2.693-1.554-3.916-2.441c-2.585-1.874-5.007-3.965-7.513-5.941C105.356,82.919,105.231,81.206,105.153,79.483z
			 M105.452,85.557c2.25,1.987,4.521,3.949,6.891,5.793c1.29,1.004,2.859,2.432,4.518,3.036c0.019,2.015,0.084,4.031,0.206,6.05
			c-4.07-2.656-7.815-5.685-11.405-8.968C105.606,89.497,105.524,87.527,105.452,85.557z M105.695,92.756
			c1.922,1.874,3.88,3.711,5.921,5.459c1.474,1.263,3.485,3.295,5.576,4.203c0.103,1.472,0.211,2.943,0.326,4.415
			c-2.031-1.143-4.018-2.315-5.975-3.753c-1.883-1.383-3.757-2.784-5.685-4.102C105.82,96.905,105.749,94.831,105.695,92.756z
			 M105.875,99.891c2.333,1.739,4.565,3.623,6.845,5.437c1.462,1.162,3.142,2.562,4.947,3.489c0.175,2.299,0.337,4.599,0.428,6.896
			c-2.305-1.898-4.736-3.663-6.99-5.632c-1.72-1.501-3.422-3.021-5.122-4.544C105.962,103.657,105.907,101.774,105.875,99.891z
			 M107.032,131.986c-0.324,0.017-0.646,0.048-0.97,0.066c0.025-1.447,0.011-2.921,0.029-4.373c1.822,1.517,3.701,2.979,5.688,4.214
			C110.197,131.922,108.616,131.903,107.032,131.986z M117.109,131.788c-1.374-0.005-2.75,0.063-4.125,0.081
			c0.096-0.2,0.112-0.431-0.099-0.608c-2.146-1.812-4.483-3.416-6.782-5.051c0.019-1.581-0.003-3.182,0.008-4.768
			c2.534,1.963,4.941,4.095,7.415,6.13c1.047,0.861,2.381,2.132,3.804,2.827C117.24,130.861,117.213,131.326,117.109,131.788z
			 M117.569,128.889c-1.56-0.92-3.072-2.272-4.346-3.213c-2.361-1.745-4.677-3.565-7.111-5.21c0.009-1.495-0.02-3.003-0.018-4.502
			c1.793,1.574,3.48,3.439,5.141,4.925c1.518,1.356,3.035,2.713,4.574,4.046c0.564,0.49,1.25,1.249,2.002,1.628
			C117.724,127.339,117.691,128.115,117.569,128.889z M117.996,124.758c-0.539-0.417-1.134-0.788-1.597-1.152
			c-1.645-1.295-3.273-2.609-4.907-3.917c-1.757-1.407-3.524-2.939-5.4-4.257c0-0.933-0.021-1.871-0.024-2.806
			c1.214,1.021,2.484,1.978,3.702,2.908c2.58,1.976,5.362,4.279,8.356,5.777C118.1,122.46,118.085,123.611,117.996,124.758z
			 M111.111,115.138c-1.733-1.208-3.4-2.492-5.055-3.793c-0.006-1.38-0.042-2.766-0.054-4.146c1.617,1.539,3.229,3.082,4.873,4.592
			c2.059,1.891,4.521,4.539,7.259,5.691c0.017,0.702,0.05,1.404,0.05,2.106C115.821,118.12,113.402,116.734,111.111,115.138z
			 M119.33,131.793c3.214-5.212,1.899-13.726,1.533-19.259c-0.061-0.916-0.142-1.835-0.223-2.755c0.563,0.039,0.748-0.78,0.28-1.043
			c-0.132-0.074-0.259-0.144-0.391-0.217c-0.799-8.373-2.154-16.84-1.359-25.211c2.739-1.924,4.619-3.233,6.89-6.26
			c2.716-3.621,5.181-5.004,7.423-4.995c-0.021,0.633-0.039,1.281-0.06,1.919c-0.425,0.12-0.731,0.622-0.307,1
			c0.09,0.08,0.179,0.172,0.269,0.253c-0.054,1.775-0.107,3.545-0.162,5.324c-0.249-0.124-0.484-0.268-0.738-0.384
			c-0.647-0.296-1.217,0.643-0.565,0.966c0.438,0.217,0.844,0.475,1.264,0.715c-0.048,1.54-0.1,3.055-0.142,4.602
			c-0.123,0.185-0.135,0.402-0.018,0.623c-0.407,15.115-0.521,30.5,0.895,45.18C129.059,132.052,124.196,131.857,119.33,131.793z
			 M135.922,132.332c0.445-2.677,0.745-5.406,0.97-8.162c1.155,0.839,2.336,1.643,3.549,2.403c1.634,1.026,3.63,2.353,5.62,2.847
			c-0.036,0.977-0.055,1.955-0.097,2.932c-0.006,0.133,0.084,0.203,0.114,0.314C142.693,132.582,139.309,132.471,135.922,132.332z
			 M146.123,127.515c-1.59-0.811-3.389-1.392-4.933-2.226c-1.448-0.781-2.844-1.656-4.215-2.569
			c0.147-2.162,0.233-4.346,0.278-6.541c0.021,0.053,0.03,0.11,0.082,0.153c1.648,1.365,3.345,2.68,5.038,3.986
			c1.012,0.782,2.417,2.16,3.853,2.814C146.188,124.593,146.171,126.056,146.123,127.515z M146.27,121.312
			c-1.249-0.774-2.484-1.811-3.522-2.531c-1.521-1.057-3.188-2.62-4.984-3.179c-0.224-0.069-0.422,0.08-0.508,0.271
			c0.041-2.237-0.037-4.506-0.08-6.765c1.445,1.394,3.015,2.676,4.574,3.883c0.874,0.677,3.155,2.786,4.651,2.399
			C146.357,117.364,146.318,119.339,146.27,121.312z M146.428,114.058c-0.037,0.003-0.069-0.021-0.108-0.01
			c0.25-0.068,0.039-0.054-0.177-0.177c-0.37-0.212-0.71-0.47-1.083-0.68c-1.107-0.624-2.152-1.37-3.186-2.106
			c-1.652-1.179-3.224-2.494-4.722-3.884c-0.036-1.281-0.113-2.566-0.167-3.85c1.743,1.466,3.459,2.962,5.184,4.448
			c1.279,1.102,2.748,2.5,4.321,3.542C146.471,112.246,146.448,113.152,146.428,114.058z M146.54,109.084
			c-1.371-0.957-2.757-1.899-4.037-2.936c-1.854-1.5-3.705-3.005-5.591-4.465c-0.07-1.484-0.187-2.956-0.273-4.44
			c1.647,1.55,3.341,3.051,5.09,4.485c1.477,1.211,3.114,2.708,4.925,3.532C146.624,106.537,146.568,107.81,146.54,109.084z
			 M146.705,103.51c-3.356-2.643-6.919-5.007-10.163-7.828c-0.11-1.829-0.235-3.638-0.355-5.458
			c1.562,1.517,3.102,3.057,4.704,4.532c1.754,1.616,3.683,3.861,5.931,4.819C146.79,100.887,146.736,102.198,146.705,103.51z
			 M146.876,97.7c-1.442-1.503-3.312-2.761-4.842-4.088c-2.041-1.77-4.013-3.62-5.983-5.47c-0.104-1.562-0.202-3.108-0.305-4.661
			c1.786,1.271,3.472,2.682,5.145,4.133c1.839,1.596,3.862,3.558,6.147,4.641C146.984,94.07,146.923,95.884,146.876,97.7z
			 M147.094,90.349c-1.979-1.476-4.045-2.866-5.964-4.426c-1.77-1.439-3.569-2.814-5.486-4.015
			c-0.105-1.628-0.188-3.218-0.284-4.829c3.233,3.083,6.541,6.331,10.231,8.799c0.532,1.104,1.042,2.167,1.503,3.093
			c0.011,0.019,0.029,0.025,0.039,0.044C147.114,89.459,147.111,89.905,147.094,90.349z M160.096,132.638
			c-3.937,0.156-7.871,0.159-11.806,0.089c0.008-0.025,0.035-0.029,0.042-0.055c3.305-12.33,1.594-26.925,0.566-40
			c0.272-0.226,0.398-0.633,0.079-0.906c-0.051-0.042-0.107-0.077-0.158-0.119c-0.049-0.639-0.105-1.294-0.149-1.924
			c0.378-0.045,0.751-0.166,1.036-0.417c6.044-5.319,10.968-11.248,15.98-17.531c9.031-11.323,7.281,8.455,7.223,14.171
			c-0.157,15.262,0.522,30.471,0.918,45.709C169.248,131.934,164.655,132.456,160.096,132.638z"/>
	</g>
</g>
<g>
</g>
<g>
</g>
<g>
</g>
<g>
</g>
<g>
</g>
<g>
</g>
<g>
</g>
<g>
</g>
<g>
</g>
<g>
</g>
<g>
</g>
<g>
</g>
<g>
</g>
<g>
</g>
<g>
</g>
</svg>
