<?xml version="1.0" encoding="iso-8859-1"?>
<!-- Generator: Adobe Illustrator 16.0.0, SVG Export Plug-In . SVG Version: 6.00 Build 0)  -->
<!DOCTYPE svg PUBLIC "-//W3C//DTD SVG 1.1//EN" "http://www.w3.org/Graphics/SVG/1.1/DTD/svg11.dtd">
<svg version="1.1" id="Capa_1" xmlns="http://www.w3.org/2000/svg" xmlns:xlink="http://www.w3.org/1999/xlink" x="0px" y="0px"
	 width="188.945px" height="188.944px" viewBox="0 0 188.945 188.944" style="enable-background:new 0 0 188.945 188.944;"
	 xml:space="preserve">
<g>
	<g>
		<path d="M91.279,1.092C39.619,1.976,3.512,50.599,0.185,98.638c-1.628,23.504,7.636,46.387,23.494,63.374
			c20.415,21.868,46.093,25.366,73.791,24.637c0.266,0.528,0.762,0.933,1.54,0.923c3.484-0.041,6.911-0.172,10.288-0.4
			c0.193,0.16,0.357,0.351,0.557,0.506c0.613,0.478,1.262-0.02,1.178-0.625c11.774-0.938,22.826-3.359,32.995-8.557
			c0.442,0.353,0.859,0.731,1.312,1.071c1.041,0.781,2.05-0.824,1.308-1.694c-0.156-0.183-0.303-0.369-0.459-0.553
			c4.558-2.547,8.952-5.625,13.115-9.514c18.981-17.733,27.527-48.172,29.396-73.151C192.864,38.945,143.611,0.199,91.279,1.092z
			 M184.521,85.444c-4.664-3.723-9.979-6.805-14.858-10.166c-6.849-4.718-13.481-9.694-19.997-14.854
			c1.459-0.93,2.899-1.886,4.336-2.847c9.845,6.343,19.524,12.967,29.344,19.315C183.856,79.708,184.276,82.554,184.521,85.444z
			 M182.769,73.869c-8.401-6.62-18.42-11.695-27.604-17.055c1.617-1.098,3.173-2.281,4.752-3.433
			c0.091,0.035,0.184,0.071,0.307,0.038c0.659-0.175,2.894,1.643,3.439,1.966c2.354,1.392,4.653,2.876,6.959,4.344
			c2.388,1.52,4.773,3.038,7.181,4.525c0.889,0.549,1.858,1.275,2.883,1.731C181.492,68.568,182.191,71.196,182.769,73.869z
			 M177.968,62.303c-2.751-1.646-5.48-3.328-8.228-4.98c-1.496-0.9-5.798-4.381-8.501-4.898c1.09-0.814,2.156-1.66,3.229-2.5
			c2.225,1.065,4.405,1.941,6.479,3.358c2.299,1.571,4.161,3.827,6.52,5.262c0.161,0.098,0.332,0.118,0.492,0.087
			c0.614,1.515,1.197,3.046,1.736,4.597C179.086,62.915,178.485,62.612,177.968,62.303z M176.506,55.307
			c-1.464-1.315-3.206-2.443-4.729-3.446c-1.718-1.132-4.003-2.461-6.197-2.798c1.778-1.424,3.529-2.885,5.22-4.433
			C172.96,48.027,174.838,51.609,176.506,55.307z M168.781,41.583c-22.444,19.544-51.437,29.699-73.229,50.06
			c-0.283-0.016-0.599,0.06-0.899,0.09c-0.044-16.653,4.043-31.801,9.702-47.441c3.956-10.936,12.623-25.88,12.637-37.861
			C138.413,11.209,156.628,24.089,168.781,41.583z M91.279,4.672c7.717-0.641,15.191-0.225,22.343,1.064
			c-0.618,13.991-10.089,30.072-14.777,43.064c-4.761,13.189-7.833,26.521-7.138,40.399c-5.994-15.821-14.49-30.415-23.072-45.012
			c-3.864-6.572-8.897-13.207-12.032-20.122c-1.007-2.222-1.936-5.345-3.961-6.972C64.342,10.272,77.449,5.821,91.279,4.672z
			 M75.388,183.608c-15.927-0.164-32.385-10.666-44.473-20.159C11.282,148.033,3.729,122.622,3.986,98.638
			c0.353-32.983,18.916-62.96,45.774-79.876c0.129,0.379,0.257,0.758,0.386,1.138c0.482,1.421,2.537,1.167,2.604-0.353
			c-0.132,2.954-1.383,3.829,1.354,8.026c4.958,7.603,9.537,15.381,14.152,23.193c7.859,13.303,15.105,26.887,21.665,40.864
			c-1.07,0.236-1.848,1.468-2.367,2.348c-0.568,0.963-0.74,2.023-0.704,3.074c-17.278,5.338-80.585,26.012-77.718,32.88
			c0.396,0.948,1.908,1.212,2.195,0c1.14-4.804,25.336-11.394,29.941-12.976c14.968-5.142,32.625-8.589,46.124-17.461
			c0.285,0.596,0.658,1.154,1.122,1.645c0.838,0.884,1.928,1.398,3.07,1.568c3.72,26.904,3.06,53.812,6.012,80.709
			C90.191,183.264,82.821,183.685,75.388,183.608z M102.613,183.805c-0.21-0.138-0.452-0.243-0.763-0.261
			c-0.482-0.028-0.962-0.021-1.443-0.043c0.106-1.846,0.161-3.728,0.236-5.597c1.086,1.363,2.268,2.656,3.339,3.888
			c0.557,0.641,1.13,1.252,1.697,1.873C104.656,183.716,103.634,183.771,102.613,183.805z M108.24,183.515
			c-2.323-2.594-4.77-5.09-7.006-7.773c-0.006-0.015,0.014-0.027,0.002-0.043c-0.164-0.193-0.314-0.402-0.474-0.601
			c0.06-1.866,0.075-3.755,0.104-5.638c2.023,2.549,4.019,5.121,6.04,7.67c1.419,1.789,3.106,4.322,5.055,6.086
			C110.722,183.331,109.482,183.432,108.24,183.515z M114.37,182.962c-1.643-2.152-3.944-4.063-5.68-6.074
			c-2.589-3.001-5.133-6.04-7.794-8.977c0.031-2.908,0.016-5.834-0.033-8.768c3.216,4.707,6.406,9.431,9.74,14.057
			c1.328,1.844,4.064,6.729,6.928,9.368C116.48,182.71,115.427,182.846,114.37,182.962z M120.093,182.18
			c-4.13-2.851-7.723-9.485-10.346-13.032c-2.993-4.046-5.913-8.157-8.945-12.176c-0.074-3.153-0.267-6.318-0.439-9.481
			c3.596,5.694,7.642,11.138,11.628,16.57c3.038,4.14,6.089,8.271,9.224,12.338c1.186,1.538,2.375,3.448,3.885,4.815
			C123.44,181.565,121.778,181.909,120.093,182.18z M127.205,180.753c-3.657-6.686-9.939-12.789-14.54-18.821
			c-4.044-5.304-8.012-10.704-12.362-15.746c-0.194-3.265-0.464-6.522-0.768-9.776c4.991,8.559,11.026,16.592,17.069,24.393
			c3.669,4.736,10.008,14.925,16.681,18.242C131.288,179.684,129.265,180.266,127.205,180.753z M143.928,174.593
			c-8.557-10.256-16.547-20.803-24.492-31.598c-5.635-7.654-11.98-19.033-21.093-22.758c-0.153-0.062-0.281,0.171-0.16,0.275
			c17.534,15.164,25.87,39.945,42.88,55.469c-1.605,0.74-3.232,1.438-4.899,2.05c-15.078-10.752-27.132-28.925-36.911-44.426
			c-1.103-10.591-2.813-21.058-5.377-31.081c0.303-0.085,0.595-0.207,0.886-0.328c19.897,21.986,41.3,41.622,58.144,66.246
			c0.021,0.031,0.062,0.03,0.085,0.059C150.143,170.837,147.138,172.904,143.928,174.593z M154.419,167.38
			c-4.604-12.039-15.475-22.518-24.089-31.707c-11.05-11.789-22.745-23.012-34.409-34.194c1.509-1.323,2.633-3.711,2.741-5.824
			c11.4,13.746,25.238,24.983,38.529,36.841c8.542,7.619,15.826,19.23,25.426,25.596
			C160.168,161.645,157.423,164.729,154.419,167.38z M163.956,156.087c-20.161-22.941-46.126-39.889-65.875-63.07
			c1.149-0.942,2.371-1.779,3.549-2.679c19.647,22.082,45.004,38.253,67.084,57.758
			C167.186,150.811,165.608,153.486,163.956,156.087z M169.53,146.583c-21.048-20.461-46.204-36.138-67.106-56.846
			c1.139-0.858,2.332-1.636,3.493-2.461c22.882,16.016,43.356,35.312,66.573,50.819c0.709,0.474,1.592-0.653,0.917-1.188
			c-21.747-17.225-43.533-34.824-66.63-50.236c2.017-1.415,4.085-2.756,6.155-4.095c-0.087,0.135-0.109,0.311,0.033,0.429
			c20.562,16.962,41.856,33.61,63.483,49.177C174.397,137.107,172.085,141.929,169.53,146.583z M177.05,130.698
			c-19.711-17.708-42.508-32.346-63.659-48.247c-0.069-0.051-0.141-0.053-0.209-0.043c2.357-1.521,4.747-3,7.15-4.456
			c16.001,18.521,38.143,33.981,59.194,45.987C178.761,126.212,177.947,128.47,177.05,130.698z M180.086,122.294
			c-19.784-15.108-41.28-26.944-58.805-44.908c1.673-1.006,3.358-1.996,5.043-2.985c0.031,0.086,0.059,0.174,0.146,0.24
			c18.648,13.931,35.877,29.807,54.489,43.659c0.09,0.066,0.169,0.037,0.255,0.063C180.845,119.675,180.503,120.993,180.086,122.294
			z M181.711,116.634c-14.607-16.862-36.441-30.028-54.603-42.696c1.449-0.848,2.9-1.692,4.352-2.536
			c17.092,13.571,34.244,27.068,51.343,40.629C182.467,113.57,182.115,115.107,181.711,116.634z M183.258,109.747
			c-7.46-6.369-15.187-12.449-22.961-18.424c-5.191-3.991-10.403-7.955-15.628-11.904c-2.098-1.569-4.197-3.136-6.3-4.699
			c0.091,0.068-2.01-1.01-3.619-1.793c0.053-0.104,0.087-0.229-0.018-0.326c-0.69-0.628-1.362-1.274-2.032-1.923
			c1.624-0.945,3.246-1.89,4.865-2.84c11.521,7.461,22.169,16.069,32.742,24.818c2.654,2.197,5.168,4.535,7.746,6.822
			c1.2,1.065,2.41,2.119,3.624,3.172c1.007,0.874,1.3,1.077,1.293,0.981c0.135,0.096,0.27,0.181,0.492,0.203
			c0.527,0.054,0.964-0.681,0.639-1.111c-3.911-5.169-10.088-9.499-15.067-13.567c-9.701-7.927-19.676-15.497-30.42-21.939
			c1.582-0.933,3.144-1.895,4.713-2.844c12.415,12.024,27.742,21.232,41.496,31.59C184.664,100.601,184.135,105.202,183.258,109.747
			z M144.242,63.819c1.448-0.881,2.872-1.793,4.305-2.695c5.093,4.53,10.508,8.706,16.004,12.725
			c6.392,4.676,13.037,10.026,20.15,13.665c0.127,2.05,0.201,4.113,0.188,6.192C172.698,82.18,157.068,74.705,144.242,63.819z"/>
	</g>
</g>
<g>
</g>
<g>
</g>
<g>
</g>
<g>
</g>
<g>
</g>
<g>
</g>
<g>
</g>
<g>
</g>
<g>
</g>
<g>
</g>
<g>
</g>
<g>
</g>
<g>
</g>
<g>
</g>
<g>
</g>
</svg>
