<?xml version="1.0" encoding="iso-8859-1"?>
<!-- Generator: Adobe Illustrator 16.0.0, SVG Export Plug-In . SVG Version: 6.00 Build 0)  -->
<!DOCTYPE svg PUBLIC "-//W3C//DTD SVG 1.1//EN" "http://www.w3.org/Graphics/SVG/1.1/DTD/svg11.dtd">
<svg version="1.1" id="Capa_1" xmlns="http://www.w3.org/2000/svg" xmlns:xlink="http://www.w3.org/1999/xlink" x="0px" y="0px"
	 width="192.008px" height="192.009px" viewBox="0 0 192.008 192.009" style="enable-background:new 0 0 192.008 192.009;"
	 xml:space="preserve">
<g>
	<g>
		<path d="M143.048,3.405c1.122-0.823,0.793-3-0.987-3.098C128.33-0.447,114.592,1.4,100.899,2.28
			C83.983,3.368,66.917-0.052,49.97,0c-1.508,0.005-1.674,1.98-0.54,2.516c-1.379,2.401-1.152,5.502-1.018,8.153
			c0.208,4.08,1.033,8.193,0.625,12.283c-0.083,0.832,0.806,1.703,1.63,1.631c3.564-0.315,7.138-0.32,10.711-0.395
			c0.296,0.205,0.584,0.438,0.89,0.604c0.471,0.256,0.853-0.225,0.687-0.644c1.756-0.034,3.639-0.065,5.378-0.488
			c0.017,10.634-0.021,21.229-0.266,31.822c-0.172,0.043-0.301,0.269-0.15,0.452c0.043,0.053,0.089,0.104,0.132,0.156
			c-0.2,8.415-0.521,16.828-1.12,25.258c-1.346,0.063-2.703,0.274-4.034,0.342c-2.909,0.148-5.826,0.141-8.738,0.148
			c-0.774,0.002-1.573,0.547-1.746,1.329c-0.61,2.765-0.761,5.685-0.982,8.5c-0.255,3.239-0.791,6.733-0.409,9.976
			c0.117,1.001,1.179,1.648,2.024,1.521c0.008,0.557,0.381,1.121,1.113,1.175c3.652,0.269,7.312,0.481,10.975,0.673
			c0.113,0.051,0.219,0.061,0.321,0.02c4.299,0.223,8.602,0.407,12.909,0.561c-0.387,15.199,3.271,29.798,5.632,44.764
			c2.158,13.686,0.356,28.299,7.124,40.858c0.59,1.095,2.212,1.024,2.82,0c5.561-9.387,6.239-20.119,6.896-30.793
			c1.08-17.518,1.518-35.538,5.79-52.627c0.181-0.722-0.11-1.285-0.573-1.626c10.39,0.096,20.775,0.125,31.125,0.141
			c0.371,0.001,0.657-0.118,0.904-0.276c0.587,0.345,1.51,0.081,1.434-0.755c-0.687-7.484-0.684-14.817-0.513-22.325
			c0.022-0.987-0.847-1.835-1.825-1.825c-16.398,0.17-11.417-17.252-11.35-29.221c0.045-7.956,0.196-15.91,0.364-23.865
			c0.188-8.858,9.258-6.083,14.474-6.083c0.962,0,1.817-0.817,1.795-1.795c-0.3-5.436-0.096-10.86,0.612-16.272
			C143.098,3.714,143.066,3.563,143.048,3.405z M139.525,3.789c-0.348,2.283-0.628,4.156-0.946,5.815
			c-0.701-0.58-1.409-1.148-2.081-1.715c-1.536-1.298-3.127-2.53-4.718-3.761C134.362,3.983,136.945,3.835,139.525,3.789z
			 M111.573,5.524c0,0.082-0.013,0.165,0.043,0.246c2.385,3.454,5.543,6.389,8.664,9.164c1.095,0.974,2.463,2.345,3.939,3.511
			c-0.793,0.188-1.374,0.876-1.399,1.715c-0.001,0.043-0.001,0.086-0.002,0.13c-2.467-2.094-5.467-3.85-7.868-5.796
			c-3.195-2.591-6.178-5.427-8.727-8.646C108.005,5.769,109.79,5.64,111.573,5.524z M105.223,5.883
			c2.269,3.206,4.88,6.112,7.8,8.765c2.896,2.632,6.241,5.868,9.755,7.948c-0.025,1.452-0.053,2.905-0.077,4.357
			c-0.017-0.016-0.023-0.023-0.04-0.039c-0.727-0.672-1.421-1.382-2.121-2.083c-1.493-1.494-2.936-3.039-4.441-4.521
			c-5.207-5.123-11.393-9.272-16.797-14.227C101.274,6.077,103.249,5.962,105.223,5.883z M94.619,6.024
			c1.184,0.043,2.37,0.037,3.556,0.044c5.685,5.684,12.241,10.511,17.762,16.322c1.461,1.538,4.214,5.674,6.722,7.012
			c-0.033,2.214-0.088,4.429-0.119,6.643c-0.03-0.129-0.041-0.26-0.164-0.384c-9.967-10.133-20.123-20.497-30.896-29.812
			C92.526,5.902,93.57,5.986,94.619,6.024z M90.181,5.777c10.571,9.998,19.61,22.044,31.101,30.976
			c0.504,0.393,1.09,0.091,1.251-0.358c-0.03,2.28-0.096,4.56-0.122,6.84c-12.084-12.886-25.65-24.346-37.2-37.734
			C86.865,5.62,88.524,5.686,90.181,5.777z M84.08,5.409c11.312,14.019,24.562,26.225,37.134,39.086
			c0.386,0.394,0.868,0.295,1.175,0.003c-0.011,0.952-0.041,1.905-0.052,2.857C106.66,33.448,91.71,18.765,76.141,4.769
			C78.786,5,81.433,5.212,84.08,5.409z M75.246,4.69c13.78,16.372,30.539,30.719,46.63,44.725c0.14,0.121,0.29,0.116,0.439,0.146
			c-0.02,2.094-0.05,4.188-0.065,6.283C107.144,36.181,85.884,21.208,67.956,4.053C70.385,4.271,72.816,4.475,75.246,4.69z
			 M66.497,3.929c16.844,19.408,37.967,34.919,55.598,53.64c0.04,0.043,0.095,0.033,0.141,0.059
			c-0.011,1.743-0.036,3.486-0.046,5.228c-3.141-4.721-8.38-8.665-12.4-12.564c-8.198-7.951-16.51-15.783-24.858-23.575
			C77.553,19.833,70.12,12.993,62.402,6.493c-0.698-0.589-2.139-2.079-3.61-3.216C61.362,3.475,63.928,3.7,66.497,3.929z
			 M52.338,21.219c0.022-2.347-0.246-4.701-0.515-7.042c1.45,1.725,2.908,3.444,4.447,5.089c0.494,0.528,1.012,1.099,1.544,1.677
			C55.989,21.01,54.164,21.085,52.338,21.219z M62.148,20.771c-0.863,0.043-1.725,0.071-2.586,0.103
			c-0.905-0.747-1.816-1.486-2.638-2.261c-1.818-1.718-3.533-3.531-5.206-5.389c-0.058-0.51-0.117-1.025-0.169-1.531
			c-0.219-2.167-0.611-5.224-0.134-7.665c4.572,5.702,9.452,11.117,14.511,16.365C64.667,20.533,63.406,20.709,62.148,20.771z
			 M51.586,3.274c0.049-0.162,0.057-0.355,0.115-0.508c2.03,0.113,4.055,0.286,6.082,0.438c3.37,2.251,7.498,7.437,9.495,9.253
			c6.926,6.3,13.729,12.74,20.542,19.162c11.127,10.488,21.601,22.729,33.56,32.245c0.246,0.196,0.567,0.17,0.801,0.033
			c-0.019,3.37-0.055,6.739-0.067,10.11c-14.785-18.53-32.699-34.282-50.041-50.529c-0.001-0.407-0.001-0.816-0.002-1.222
			c-0.002-0.734-0.366-1.217-0.849-1.503c-0.147-0.211-0.361-0.374-0.683-0.422c-0.646-0.096-1.295-0.12-1.945-0.116
			C62.775,14.699,57.064,9.089,51.586,3.274z M122.099,76.766c-0.006,1.409-0.02,2.817-0.024,4.226
			C106.7,63.246,88.768,47.093,72.086,31.202c-0.005-1.529-0.006-3.057-0.008-4.587c16.704,16.549,34.703,31.898,49.776,50.029
			C121.93,76.734,122.018,76.715,122.099,76.766z M69.592,81.66c0.261-1.511,0.453-3.03,0.665-4.547
			c6.682,8.612,13.108,18.39,21.594,25.155c-1.906-0.029-3.812-0.066-5.718-0.09c-2.337-2.937-5.419-5.492-7.906-8.294
			c-2.916-3.283-5.644-6.747-8.027-10.435C70.397,82.792,70.216,82.014,69.592,81.66z M70.417,76.015
			c0.319-2.398,0.574-4.802,0.792-7.211c10.559,10.252,18.257,22.84,28.151,33.584c-1.815-0.03-3.629-0.059-5.443-0.087
			C85.909,93.658,78.178,84.879,70.417,76.015z M54.157,102.026c-0.038,0.001-0.049,0.033-0.086,0.037
			c0-0.003,0.002-0.005,0.003-0.008c0.247-1.508,0.394-3.034,0.518-4.564c0.409,0.665,0.774,1.357,1.215,2.006
			c0.545,0.801,1.099,1.678,1.707,2.506C56.394,102.008,55.275,102.002,54.157,102.026z M58.931,101.993
			c-0.653-0.849-1.355-1.669-2.008-2.492c-0.787-0.993-1.498-2.044-2.242-3.07c0.104-1.453,0.188-2.909,0.285-4.364
			c2.388,3.316,4.761,6.738,7.388,9.903C61.212,101.979,60.072,101.991,58.931,101.993z M64.287,101.956
			c-0.956-1.304-2.056-2.528-3.046-3.748c-1.974-2.432-4.089-4.673-6.217-6.927c0.139-1.905,0.314-3.804,0.646-5.677
			c3.896,5.581,8.058,11.032,12.31,16.364C66.749,101.972,65.517,101.947,64.287,101.956z M69.452,101.974
			c-4.253-5.633-8.665-11.205-13.271-16.542c0.95-0.001,1.901-0.029,2.852-0.037c4.915,5.373,9.389,11.125,14.177,16.607
			C71.957,101.997,70.704,101.973,69.452,101.974z M74.918,102.015c-4.938-5.684-9.938-11.35-15.313-16.627
			c1.097-0.012,2.193-0.004,3.29-0.042c0.253-0.009,0.522-0.013,0.785-0.018c5.038,5.372,9.544,11.186,14.379,16.731
			C77.011,102.051,75.964,102.02,74.918,102.015z M64.59,85.305c1.737-0.044,3.555-0.172,5.004-1.009
			c0.051-0.029,0.067-0.085,0.112-0.119c2.079,3.318,4.339,6.52,6.771,9.591c2.095,2.646,4.561,6.053,7.389,8.376
			c-1.304-0.015-2.609-0.047-3.912-0.059C74.98,96.364,69.953,90.667,64.59,85.305z M103.544,106.942
			c-6.062,23.557-3.599,48.241-8.091,71.975c-2.768,14.624-6.497-9.445-6.571-10.225c-0.469-4.98-0.479-10.028-1.18-14.987
			c-2.274-16.089-6.517-31.807-7.423-48.062c7.925,0.261,15.855,0.421,23.79,0.504C103.839,106.332,103.64,106.573,103.544,106.942z
			 M101.835,102.428C93.388,90.054,82.92,77.251,71.292,67.731c0.205-2.427,0.304-4.864,0.429-7.298
			c12.221,14.568,25.213,28.647,38.603,42.126C107.493,102.514,104.665,102.474,101.835,102.428z M112.673,102.595
			C99.26,87.956,85.434,73.657,71.791,59.223c0.106-2.282,0.159-4.567,0.215-6.852c7.189,7.257,13.729,15.052,20.439,22.779
			c8.379,9.649,18.054,18.038,26.625,27.51C116.937,102.632,114.807,102.628,112.673,102.595z M120.972,102.681
			c-8.491-10.161-18.487-18.882-27.332-28.725c-7.011-7.8-13.621-15.964-21.597-22.774c0.058-2.722,0.044-5.445,0.057-8.168
			c17.231,20.564,33.655,44.462,55.983,59.742C125.712,102.725,123.342,102.711,120.972,102.681z M136.391,99.272
			c-3.317-4.749-6.913-9.346-10.653-13.859C135.727,85.149,135.4,91.585,136.391,99.272z M136.058,100.812
			c0.165,0.181,0.376,0.177,0.57,0.111c0.102,0.636,0.214,1.277,0.351,1.922c-2.395-0.006-4.79-0.048-7.187-0.074
			C108.325,84.5,91.14,62.595,72.107,41.967c0.009-3.176-0.008-6.338-0.018-9.509C93.698,55.049,115,77.719,136.058,100.812z
			 M127.249,18.311c-1.981-1.458-4.092-2.799-5.979-4.365c-3.089-2.565-6.037-5.361-8.565-8.49c1.781-0.122,3.562-0.259,5.342-0.395
			c0.009,0.011,0.002,0.022,0.012,0.033c3.689,4.376,8.023,9.283,12.892,12.873C129.882,18.138,128.664,18.253,127.249,18.311z
			 M125.628,5.896c2.422,2.924,5.058,5.677,7.835,8.263c0.604,0.563,1.321,1.31,2.104,1.994c-0.609,0.489-1.302,0.915-2.197,1.228
			c-1.964-1.473-3.968-2.904-5.86-4.463c-2.984-2.459-5.781-5.125-8.439-7.932c3.785-0.292,7.572-0.569,11.356-0.798
			c1.76,1.496,3.521,2.99,5.242,4.529c0.877,0.784,1.709,1.65,2.56,2.493c-0.405,1.63-0.904,2.966-1.701,3.979
			c-1.173-0.935-2.272-2.038-3.171-2.862c-2.457-2.254-4.788-4.67-6.959-7.2C125.939,4.589,125.187,5.361,125.628,5.896z"/>
	</g>
</g>
<g>
</g>
<g>
</g>
<g>
</g>
<g>
</g>
<g>
</g>
<g>
</g>
<g>
</g>
<g>
</g>
<g>
</g>
<g>
</g>
<g>
</g>
<g>
</g>
<g>
</g>
<g>
</g>
<g>
</g>
</svg>
