<?xml version="1.0" encoding="iso-8859-1"?>
<!-- Generator: Adobe Illustrator 16.0.0, SVG Export Plug-In . SVG Version: 6.00 Build 0)  -->
<!DOCTYPE svg PUBLIC "-//W3C//DTD SVG 1.1//EN" "http://www.w3.org/Graphics/SVG/1.1/DTD/svg11.dtd">
<svg version="1.1" id="Capa_1" xmlns="http://www.w3.org/2000/svg" xmlns:xlink="http://www.w3.org/1999/xlink" x="0px" y="0px"
	 width="190.79px" height="190.79px" viewBox="0 0 190.79 190.79" style="enable-background:new 0 0 190.79 190.79;"
	 xml:space="preserve">
<g>
	<g>
		<path d="M78.954,45.859c1.871-5.623-11.681-14.272-14.496-16.633c-8.942-7.494-18.998-13.966-27.211-22.295
			c-1.477-1.497-3.308-0.57-3.869,0.914C24.397,8.272,3.494,32.678,0.661,37.064c-0.986,1.527,0.128,3.237,1.555,3.73
			c-0.186,0.608-0.163,1.299,0.24,2.008c2.704,4.763,8.986,7.25,11.445,12.037c0.986,1.919,4.415,4.045,6.01,5.449
			c3.724,3.278,7.357,6.661,11,10.029c7.271,6.72,14.517,13.443,22.063,19.857c0.455,0.387,0.939,0.597,1.427,0.716
			c0.988,1.53,3.656,1.735,4.107-0.469C61.858,74.048,65.93,61.49,79.389,50.55C81.248,49.039,80.506,46.933,78.954,45.859z
			 M54.156,82.399c-5.319-4.683-10.567-9.446-15.789-14.238c-2.759-2.531-5.521-5.058-8.292-7.575
			c-2.747-2.495-9.013-6.092-10.688-9.312c-2.175-4.18-9.156-10.021-13.338-12.068c-0.141-0.069-0.285-0.088-0.428-0.132
			c1.144-1.307,2.339-2.594,3.566-3.865c6.688,8.52,14.821,15.628,23.222,22.433c7.058,5.717,14.97,12.776,23.323,16.588
			C54.997,76.891,54.421,79.603,54.156,82.399z M57.056,70.152c-5.563-5.482-13.2-9.586-19.372-14.22
			c-9.353-7.021-18.221-14.463-26.137-23.077c1.33-1.307,2.727-2.567,4.115-3.831c8.405,7.255,16.02,15.419,24.155,22.968
			c4.836,4.487,12.076,11.738,19.22,13.62C58.313,67.097,57.634,68.603,57.056,70.152z M61.415,61.237
			c-7.921-4.819-15.186-9.498-22.423-15.697c-7.123-6.102-13.94-12.575-21.316-18.373c1.518-1.341,3.057-2.655,4.605-3.943
			c6.361,7.117,13.511,13.609,20.665,19.872c5.847,5.117,12.757,12.081,20.045,15.77C62.458,59.653,61.906,60.428,61.415,61.237z
			 M47.739,41.546c-8.229-6.248-16.115-12.889-24.106-19.422c1.939-1.59,3.884-3.134,5.812-4.637
			c4.529,6.435,11.043,11.595,17.058,16.434c7.216,5.805,14.542,12.705,22.453,17.549c-1.064,1.14-2.111,2.294-3.085,3.501
			C60.564,49.93,53.469,45.896,47.739,41.546z M72.291,48.205c-4.967-5.952-12.82-10.08-19.103-14.372
			c-7.84-5.355-15.414-10.878-21.657-17.947c1.41-1.082,2.825-2.173,4.196-3.199c0.014-0.01,0.019-0.023,0.032-0.034
			C41.313,18.79,48.271,24.09,54.448,29.43c4.123,3.564,8.303,7.06,12.388,10.667c1.504,1.328,2.975,2.693,4.406,4.1
			c2.032,1.997,1.554,2.839,2.097,0.321c-0.198,0.917,0.019,1.688,0.435,2.29C73.254,47.25,72.792,47.746,72.291,48.205z"/>
		<path d="M189.999,38.262c-0.299-0.257-0.614-0.493-0.918-0.746c0.781-8.96,1.181-19.278-2.746-26.28
			c-0.258-0.46-0.607-0.753-0.984-0.972c0.152-2.057-1.574-4.42-4.266-3.906C156.335,11.08,133.296-0.091,108.756,0
			c-2.533,0.01-3.501,3.528-1.826,4.858c-0.491,0.562-0.341,1.675,0.528,1.95c0.08,0.026,2.537,4.081,3.076,4.763
			c2.369,3.002,4.728,6.005,7.174,8.948c0.986,1.187,5.621,6.728,9.22,8.36c-1.589,0.842-3.14,1.799-4.67,2.817
			c-0.104,0.049-0.199,0.116-0.277,0.196c-9.225,6.207-17.397,15.21-24.782,22.982c-8.984,9.456-17.834,19.817-22.942,31.949
			c-0.72,0.159-1.379,0.599-1.797,1.444c-6.178,12.491-5.17,27.15-4.231,40.683c1.323,19.047,3.987,37.724,2.664,56.865
			c-0.096,1.396,1.02,2.129,2.162,2.145c0.281,0.553,0.741,1.012,1.42,1.182c7.947,1.992,16.998,1.649,25.129,1.588
			c4.878-0.035,15.76,0.788,18.52-4.478c0.287-0.548,0.379-1.101,0.34-1.621c2.523-4.508,1.222-14.645,1.384-18.345
			c0.864-19.635,0.431-39.475,0.11-59.123c15.887-11.492,28.537-28.086,41.496-42.561c3.295,2.796,6.568,5.618,9.892,8.379
			c2.159,1.794,4.981,5.243,7.922,6.762c-0.003,0.058-0.009,0.117-0.013,0.175c-0.112,2.034,2.871,2.297,3.438,0.465
			c0.004-0.01,0.006-0.02,0.008-0.03c1.055-0.32,1.883-1.262,1.858-2.415c-0.015-0.763-0.258-1.466-0.589-2.142
			c2.499-9.856,3.55-20.213,4.377-30.27c0.121-1.473,0.273-3.073,0.432-4.726C190.055,40.834,191.194,39.29,189.999,38.262z
			 M181.227,13.236c-0.093,3.122-0.043,6.255,0.06,9.394c-2.679-2.922-5.643-5.672-8.611-8.369
			C175.528,14.075,178.378,13.762,181.227,13.236z M169.146,14.409c3.931,4.286,7.873,8.779,12.304,12.397
			c0.07,1.647,0.146,3.295,0.213,4.946c-2.092-1.571-4.176-3.156-6.16-4.87c-4.697-4.052-9.148-8.386-13.737-12.562
			C164.226,14.451,166.687,14.465,169.146,14.409z M78.033,89.138c1.424-1.975,2.895-3.869,4.365-5.765
			c0.023,0.034,0.009,0.068,0.038,0.102c4.007,4.681,9.299,8.519,13.966,12.505c5.051,4.316,10.635,10.632,16.897,13.12
			c0.03,0.012,0.056,0.007,0.086,0.017c-0.038,3.352-0.063,6.704-0.063,10.058c-4.507-4.055-10.106-7.216-14.943-10.812
			c-7.112-5.287-13.907-10.95-20.537-16.821c0.078-0.304,0.139-0.608,0.222-0.911C78.208,90.092,78.159,89.6,78.033,89.138z
			 M77.174,94.301c5.62,5.088,11.344,10.062,17.186,14.894c5.596,4.629,11.879,10.729,18.592,13.575
			c0.125,0.054,0.25,0.067,0.375,0.089c0.013,3.804,0.033,7.606,0.058,11.41c-7.741-5.567-14.736-11.729-21.886-18.096
			c-4.635-4.129-9.927-8.824-15.877-11.309C75.929,101.336,76.418,97.813,77.174,94.301z M75.773,184.269
			c0.489-2.025,0.877-4.058,1.196-6.093c1.25,1.213,2.505,2.421,3.839,3.552c0.77,0.653,1.606,1.348,2.485,2.018
			C80.756,183.766,78.229,183.864,75.773,184.269z M90.239,183.826c-2.562-1.438-5.316-2.512-7.784-4.232
			c-1.799-1.255-3.497-2.655-5.148-4.113c0.281-2.272,0.444-4.553,0.56-6.835c4.539,5.305,9.644,10.829,15.242,15.205
			C92.153,183.842,91.206,183.851,90.239,183.826z M99.438,183.825c-3.25-2.607-6.781-4.944-9.972-7.577
			c-4.011-3.31-7.797-6.899-11.474-10.581c0.085-3.544,0-7.1-0.172-10.659c4.509,5.29,9.508,10.101,14.659,14.788
			c4.858,4.422,9.527,9.152,14.392,13.596C104.413,183.668,101.923,183.796,99.438,183.825z M111.05,182.716
			c-4.333-5.001-10.016-9.03-14.951-13.312c-6.553-5.686-12.954-11.536-18.491-18.228c-0.168-2.572-0.374-5.146-0.595-7.725
			c5.917,5.005,11.377,10.507,16.775,16.091c5.181,5.356,10.567,13.13,17.211,16.627c0.602,0.317,1.283,0.149,1.725-0.251
			c-0.038,2.307,0.016,4.522,0.275,6.333C112.347,182.387,111.696,182.555,111.05,182.716z M112.778,173.937
			c-4.5-6.911-12.691-12.75-18.674-18.378c-5.562-5.23-11.297-10.297-17.342-14.965c-0.209-2.364-0.419-4.729-0.619-7.094
			c6.957,5.585,13.791,11.312,20.389,17.321c5.027,4.576,10.512,11.718,16.646,15.258
			C113.065,168.379,112.878,171.155,112.778,173.937z M113.3,160.939c-4.352-4.517-10.547-8.369-14.914-11.972
			c-7.431-6.129-14.783-12.359-22.458-18.184c-0.277-3.488-0.503-6.978-0.633-10.463c7.232,3.71,12.975,9.394,18.614,15.334
			c5,5.267,10.426,14.727,17.161,17.633c0.891,0.384,2.402-0.27,1.908-1.467c-1.434-3.481-4.382-5.808-6.939-8.528
			c-3.734-3.971-7.455-7.95-11.31-11.805c-5.309-5.31-11.987-11.974-19.514-14.437c-0.054-3.188,0.044-6.373,0.237-9.555
			c6.376,4.26,12.143,8.924,17.834,14.443c6.154,5.97,12.458,12.55,20.115,16.6C113.44,146.008,113.456,153.477,113.3,160.939z
			 M116.239,103.545c-1.127,0.135-2.17,0.776-2.609,1.938c-4.463-4.333-10.324-7.781-15.186-11.548
			c-4.968-3.847-9.891-7.756-14.832-11.637c-0.105-0.083-0.213-0.072-0.321-0.106c1.297-1.651,2.628-3.247,3.958-4.847
			c9.789,8.299,20.296,17.36,31.404,23.512C117.852,101.755,117.034,102.645,116.239,103.545z M120.655,98.623
			c-9.455-8.799-21.578-15.198-32.041-22.951c1.54-1.82,3.103-3.605,4.682-5.37c4.242,5.282,9.98,9.696,15.085,13.983
			c4.369,3.669,9.324,8.614,14.559,11.844C122.188,96.965,121.407,97.785,120.655,98.623z M125.976,92.816
			c-4.131-3.709-9.568-6.694-13.795-9.911c-6.002-4.57-11.529-9.525-17.169-14.477c0.952-1.045,1.946-2.041,2.912-3.07
			c2.344,3.49,6.519,6.514,9.198,8.716c6.441,5.29,13.498,9.851,20.554,14.267c1.897,1.187,3.682-1.871,1.749-2.991
			c-6.112-3.541-12.122-7.239-17.911-11.29c-4.627-3.238-8.127-6.767-11.697-10.695c2.736-2.868,5.528-5.681,8.351-8.472
			c4.846,5.315,9.701,10.609,14.947,15.548c3.809,3.584,9.705,9.589,15.482,8.69C134.368,83.674,130.146,88.228,125.976,92.816z
			 M139.651,77.986c-0.031-0.518-0.355-1.052-0.877-1.235c-11.476-4.006-20.666-14.279-29.417-23.019
			c1.374-1.35,2.796-2.681,4.188-4.022c8.08,9.597,17.996,18.952,28.463,25.781C141.226,76.329,140.433,77.147,139.651,77.986z
			 M143.761,73.637c-9.025-9.095-19.984-15.849-28.76-25.323c1.311-1.256,2.644-2.511,3.966-3.765
			c4.112,4.787,8.551,9.279,13.265,13.484c4.447,3.966,10.08,9.027,16.025,10.845C146.761,70.469,145.256,72.042,143.761,73.637z
			 M150.464,66.542c-6.152-3.864-12.233-7.021-17.949-11.729c-4.323-3.561-8.352-7.477-12.1-11.639
			c2.062-1.951,4.174-3.914,6.268-5.873c8.947,8.557,17.438,18.316,27.667,25.127C153.055,63.801,151.758,65.168,150.464,66.542z
			 M179.837,71.442c-1.278-0.93-2.592-1.766-3.627-2.521c-4.774-3.494-9.983-6.372-15.045-9.424
			c-0.058-0.035-0.116-0.035-0.174-0.062c-1.162-0.878-2.779-1.074-4.113,0.315c-0.027,0.029-0.055,0.059-0.082,0.088
			c-9.444-8.046-19.029-16.029-28.627-23.931c0.844-0.787,1.66-1.565,2.513-2.354c1.685-1.559,0.877-3.714-0.692-4.632
			c0.441-0.347,0.799-0.912,1.033-1.766c0.732-2.662-2.236-4.022-3.857-5.472c-2.768-2.476-5.281-5.288-7.834-7.982
			c-2.198-2.323-4.869-5.894-7.92-7.827c0.805,0.131,1.611,0.278,2.418,0.42c0.033,0.056,0.049,0.113,0.094,0.167
			c9.029,10.639,19.623,19.567,30.359,28.421c11.721,9.668,22.278,20.302,33.59,30.351c0.814,0.723,1.967,0.429,2.511-0.275
			C180.198,67.119,180.008,69.281,179.837,71.442z M180.51,63.456c-0.031-0.066-0.037-0.129-0.079-0.195
			c-14.783-23.252-43.456-36.831-62.932-56.3c4.386,0.828,8.789,1.753,13.201,2.665c-0.015,0.201,0.051,0.412,0.244,0.6
			c15.457,15.07,31.268,34.628,50.221,45.301C180.958,58.17,180.735,60.812,180.51,63.456z M181.434,51.639
			c-7.306-6.392-15.37-11.988-22.743-18.338c-8.688-7.483-16.953-15.421-25.42-23.146c4.133,0.843,8.273,1.649,12.418,2.337
			c5.104,6.676,10.694,12.842,16.727,18.713c5.842,5.684,12.264,12.065,19.274,16.432C181.606,48.972,181.526,50.306,181.434,51.639
			z M164.704,28.917c-5.623-5.013-10.918-10.366-15.957-15.961c3.117,0.468,6.238,0.84,9.358,1.107
			c0.062,0.134,0.147,0.266,0.28,0.389c7.473,6.944,14.82,16.092,23.436,22.308c0.049,2.121,0.084,4.242,0.031,6.366
			C176.431,38.136,170.171,33.791,164.704,28.917z"/>
	</g>
</g>
<g>
</g>
<g>
</g>
<g>
</g>
<g>
</g>
<g>
</g>
<g>
</g>
<g>
</g>
<g>
</g>
<g>
</g>
<g>
</g>
<g>
</g>
<g>
</g>
<g>
</g>
<g>
</g>
<g>
</g>
</svg>
