<?xml version="1.0" encoding="iso-8859-1"?>
<!-- Generator: Adobe Illustrator 16.0.0, SVG Export Plug-In . SVG Version: 6.00 Build 0)  -->
<!DOCTYPE svg PUBLIC "-//W3C//DTD SVG 1.1//EN" "http://www.w3.org/Graphics/SVG/1.1/DTD/svg11.dtd">
<svg version="1.1" id="Capa_1" xmlns="http://www.w3.org/2000/svg" xmlns:xlink="http://www.w3.org/1999/xlink" x="0px" y="0px"
	 width="190.736px" height="190.736px" viewBox="0 0 190.736 190.736" style="enable-background:new 0 0 190.736 190.736;"
	 xml:space="preserve">
<g>
	<g>
		<path d="M189.174,125.106c-26.882-1.814-54.05-0.358-80.974,0.942c0.003-0.021,0.012-0.035,0.015-0.056
			c0.248-1.653,0.095-3.717-0.477-5.572c9.373-14.572,21.74-27.487,31.238-42.036c2.988-4.576,5.804-9.272,8.674-13.923
			c1.184-1.92,2.083-3.301,2.864-4.218c1.338,0.194,2.76-0.025,4.087-0.712c1.061,0.661,2.345,1.749,4.182,3.285
			c6.168,5.156,12,10.344,17.665,15.996c-0.936,1.401-1.822,2.833-2.622,4.293c-0.612,1.117,0.975,2.479,1.829,1.411
			c0.163-0.203,0.318-0.404,0.479-0.607c0.926,1.223,2.394,1.62,3.817,2.191c2.63,1.056,5.288,2.167,8.03,2.9
			c1.182,0.315,2.746-0.885,2.196-2.196c-1.97-4.691-3.435-9.463-3.546-14.586c-0.026-1.239-1.512-2.321-2.649-1.521
			c-0.616,0.434-1.158,0.952-1.726,1.442c-0.454,0.139-0.862,0.429-1.058,0.885c-0.95,0.916-1.841,1.895-2.673,2.926
			c-4.594-7.794-13.901-13.62-21.294-19.521c0.327-1.083,0.317-2.267-0.009-3.398c1.129-1.96,1.395-4.443-0.142-5.847
			c-1.373-1.255-3.103-1.346-4.675-0.788c-0.205-0.174-0.456-0.283-0.773-0.176c-1.85,0.627-3.594,1.853-4.818,3.402
			c-0.473,0.346-0.88,0.766-1.102,1.366c-0.074,0.2-0.081,0.405-0.095,0.61c-0.608,1.524-0.682,3.229,0.088,4.97
			c0.34,0.77,0.812,1.401,1.352,1.941c-6.92,11.065-13.71,22.248-21.31,32.856c-1.285-3.017-3.434-5.803-5.621-8.193
			c-0.567-0.62-1.582,0.181-1.152,0.889c1.777,2.927,3.772,5.798,5.711,8.621c0.017,0.023,0.046,0.022,0.062,0.042
			c-1.546,2.125-3.045,4.283-4.674,6.349c-4.473,5.673-10.33,11.457-14.245,17.99c-1.414-1.272-2.583-1.068-3.521-0.186
			c-2.919-11.409-5.365-22.941-9.903-33.799c2.004-1.963,1.989-4.942,0.045-7.316c-1.556-1.901-3.851-2.309-5.933-1.683
			c-0.639-0.545-1.402-0.813-2.36-0.366c-1.72,0.804-2.258,3.003-2.441,4.708c-0.077,0.719-0.011,1.468,0.123,2.207
			c-4.347,3.543-8.697,7.083-13.104,10.547c-0.324-0.668-1.447-0.606-1.631,0.164c-0.1,0.419-0.133,0.847-0.185,1.271
			c-6.02,4.724-12.038,9.45-18.009,14.236c-0.161-0.357-0.314-0.684-0.444-0.963c-0.279-0.601-1.088-0.851-1.689-0.688
			c-0.143,0.039-0.252,0.11-0.39,0.153c-0.821-0.188-1.803-0.38-2.783-0.415c-1.415-2.69-2.652-5.467-3.833-8.276
			c0.359-0.415,0.652-0.889,0.857-1.418c1.259-3.247-1.422-7.454-4.204-8.973c-3.453-1.885-5.493,0.633-6.505,3.544
			c-1.459,1.735-2.085,4.059-0.949,6.144c-3.719,3.531-7.705,6.839-11.612,10.212c-1.323-22.292-2.521-44.586-3.351-66.94
			c-0.06-1.616-2.468-1.621-2.511,0c-0.62,23.436,0.341,46.956,1.958,70.415c-1.686,1.546-3.298,3.154-4.854,4.809
			c-0.749-0.627-1.416-1.335-1.898-2.311c-0.236-0.479-1.017-0.142-0.857,0.362c0.352,1.107,0.974,2.139,1.789,2.977
			c-2.182,2.42-4.191,4.983-5.889,7.809c-0.641,1.066,0.956,2.368,1.758,1.356c2.122-2.679,4.486-5.092,6.922-7.427
			c0.009,0.002,0.016,0.008,0.024,0.011c0.413,0.123,0.786-0.32,0.694-0.69c0.882-0.831,1.737-1.691,2.641-2.498
			c0.38,5.252,0.753,10.506,1.185,15.75c-4.573,0.313-9.14,0.667-13.693,1.089c-1.107,0.103-1.114,1.631,0,1.725
			c4.643,0.389,9.31,0.606,13.986,0.751c0.499,5.924,1.013,11.843,1.546,17.75c0.192,2.129,3.508,2.175,3.358,0
			c-0.404-5.894-0.782-11.782-1.167-17.671c24.693,0.468,49.729-1.829,74.219-2.979c32.016-1.505,63.912-1.976,95.951-2.113
			C191.28,128.335,191.236,125.245,189.174,125.106z M35.76,128.694c0.618-0.112,1.217-0.295,1.766-0.586
			c0.656-0.347,0.382-1.505-0.389-1.438c-2.433,0.213-4.569,0.782-7.037,0.282c-0.65-0.132-0.872,0.742-0.269,0.978
			c1.139,0.446,2.461,0.782,3.782,0.873c-4.959,0.226-9.92,0.444-14.864,0.756c-0.097-1.498-0.176-2.995-0.267-4.493
			c1.481,1.057,3.147,1.773,5.03,1.653c0.757-0.049,1.021-1.249,0.189-1.396c-1.988-0.354-3.72-1.17-5.336-2.232
			c-0.244-4.134-0.486-8.269-0.736-12.402c4.758-4.04,9.591-7.998,14.064-12.351c1.532,0.613,3.342,0.655,4.967,0.192
			c1.078,2.582,2.205,5.129,3.476,7.613c-0.24,0.295-0.445,0.637-0.575,1.075c-0.342,1.147,0.082,2.319,0.778,3.354
			c-0.064,0.116-0.141,0.209-0.203,0.329c-0.49,0.942-0.02,1.84,0.903,2.22c0.954,0.392,2.128,0.825,3.296,0.992
			c1.439,0.792,3.113,1.263,4.535,0.413c1.698-1.015,1.601-3.057,1.041-5.007c5.386-3.788,10.721-7.658,15.978-11.636
			c-0.245,0.709-0.516,1.409-0.772,2.112c-0.293,0.803,0.923,1.256,1.341,0.564c0.811-1.341,1.568-2.981,2.04-4.674
			C73.57,92.006,78.557,88.02,83.512,84c0.06,0.059,0.097,0.138,0.16,0.193c1.578,1.41,3.625,1.329,5.499,0.716
			c2.528,5.324,5.253,15.61,5.718,17.384c1.417,5.399,2.738,10.814,4.135,16.212c-0.564,0.459-1.094,0.987-1.526,1.674
			c-1.432,2.271-0.356,4.535,1.253,6.307C77.841,127.411,56.76,127.778,35.76,128.694z"/>
		<path d="M4.736,108.453c-1.335-1.887-2.765-3.521-3.69-5.676c-0.253-0.589-1.205-0.165-1.023,0.433
			c0.672,2.207,1.793,4.617,3.644,6.069C4.222,109.714,5.222,109.141,4.736,108.453z"/>
		<path d="M50.924,118.998c-2.404,2.231-4.011,4.759-6.947,6.441c-0.745,0.427-0.091,1.499,0.664,1.136
			c2.92-1.399,5.993-3.702,7.519-6.625C52.575,119.155,51.588,118.382,50.924,118.998z"/>
		<path d="M61.486,107.641c-1.992,2.588-2.658,5.967-4.75,8.563c-0.542,0.674,0.303,1.567,0.963,0.964
			c2.389-2.189,4.551-5.723,5.378-8.856C63.346,107.287,62.057,106.899,61.486,107.641z"/>
		<path d="M72.46,75.272c-2.509,1.949-3.712,5.321-3.664,8.424c0.013,0.803,1.155,0.774,1.226,0c0.28-3.06,1.944-5.093,3.626-7.507
			C74.184,75.421,73.078,74.793,72.46,75.272z"/>
		<path d="M85.453,66.431c-2.482,1.052-4.918,2.865-7.065,4.486c-0.683,0.516-0.102,1.611,0.687,1.176
			c2.437-1.349,5.411-2.341,7.459-4.26C87.337,67.081,86.319,66.063,85.453,66.431z"/>
		<path d="M103.566,68.583c-2.192-1.113-4.998-1.658-7.405-2.169c-0.86-0.183-1.511,1.085-0.63,1.492
			c2.29,1.061,5.047,2.262,7.584,2.339C103.983,70.272,104.362,68.986,103.566,68.583z"/>
		<path d="M109.871,70.988c-0.562-0.377-1.237,0.494-0.725,0.939c1.368,1.183,2.642,2.44,3.873,3.765
			c1.12,1.204,1.998,2.667,3.352,3.618c0.517,0.364,1.29-0.239,1.078-0.828C116.295,75.271,112.597,72.813,109.871,70.988z"/>
		<path d="M135.916,107.054c-1.451-2.646-3.904-4.771-5.692-7.198c-0.496-0.675-1.609-0.075-1.148,0.672
			c1.59,2.577,3.305,5.797,6.002,7.365C135.619,108.206,136.209,107.587,135.916,107.054z"/>
		<path d="M149.364,116.085c-2.231-1.226-4.865-1.697-7.318-2.295c-0.992-0.242-1.309,1.12-0.41,1.487
			c2.345,0.957,4.858,1.783,7.377,2.104C149.72,117.472,149.935,116.397,149.364,116.085z"/>
		<path d="M165.991,115.84c-2.846,0.747-5.4,1.92-8.373,2.256c-0.939,0.105-0.969,1.413,0,1.482c3.044,0.218,6.538-0.28,9.048-2.135
			C167.436,116.876,167.011,115.571,165.991,115.84z"/>
		<path d="M181.116,111.053c-2.513,0.84-4.673,2.525-7.223,3.403c-1.005,0.346-0.604,1.809,0.438,1.59
			c2.579-0.541,5.639-1.92,7.402-3.933C182.125,111.669,181.761,110.837,181.116,111.053z"/>
		<path d="M189.555,101.768c-2.1,0.915-3.455,3.381-3.501,5.595c-0.026,1.276,1.8,1.209,1.937,0
			c0.227-2.022,1.738-2.972,2.475-4.684C190.737,102.047,190.188,101.491,189.555,101.768z"/>
	</g>
</g>
<g>
</g>
<g>
</g>
<g>
</g>
<g>
</g>
<g>
</g>
<g>
</g>
<g>
</g>
<g>
</g>
<g>
</g>
<g>
</g>
<g>
</g>
<g>
</g>
<g>
</g>
<g>
</g>
<g>
</g>
</svg>
