<?xml version="1.0" encoding="iso-8859-1"?>
<!-- Generator: Adobe Illustrator 16.0.0, SVG Export Plug-In . SVG Version: 6.00 Build 0)  -->
<!DOCTYPE svg PUBLIC "-//W3C//DTD SVG 1.1//EN" "http://www.w3.org/Graphics/SVG/1.1/DTD/svg11.dtd">
<svg version="1.1" id="Capa_1" xmlns="http://www.w3.org/2000/svg" xmlns:xlink="http://www.w3.org/1999/xlink" x="0px" y="0px"
	 width="190.949px" height="190.949px" viewBox="0 0 190.949 190.949" style="enable-background:new 0 0 190.949 190.949;"
	 xml:space="preserve">
<g>
	<g>
		<path d="M190.609,87.288c-0.066-0.196-0.197-0.367-0.342-0.522c5.659-42.943-84.736-34.533-107.263-31.515
			C58.305,58.56,30.848,58.785,9.73,73.56C3.361,78.017-0.598,86.396,0.774,93.286c-1.497,3.641-0.456,8.234,0.086,12.117
			c0.488,3.495,1.115,6.971,1.552,10.475c0.084,0.67,0.07,1.55,0.113,2.426c-0.514,0.32-0.711,1.102-0.045,1.571
			c0.098,0.069,0.203,0.126,0.302,0.194c0.145,0.493,0.355,0.936,0.705,1.252c0.413,0.373,0.984,0.475,1.481,0.19
			c0.009-0.005,0.012-0.017,0.021-0.022c30.105,19.615,71.58,18.187,105.844,15.133c25.315-2.256,60.762-2.48,78.099-24.164
			c0.259-0.324,0.348-0.675,0.347-1.015c0.42-0.229,0.719-0.649,0.676-1.286c-0.277-4.123-0.228-8.223,0.016-12.348
			C190.149,94.777,191.592,90.211,190.609,87.288z M185.033,75.47c2.025,4.498,2.351,9.96,0.368,16.591
			c-0.11,0.367-0.081,0.684-0.001,0.974c-1.091,7.56-16.407,12.602-26.943,15.291c0.21-0.622,0.085-1.353-0.586-1.648
			c-7.824-3.452-16.71-5.085-24.859-7.737c-10.678-3.474-21.005-7.559-31.106-12.446c0.152-0.184,0.3-0.368,0.474-0.582
			c0.126-0.156,0.153-0.316,0.222-0.474c26.39-3.042,56.729,0.673,81.471-8.888C184.626,76.336,184.919,75.919,185.033,75.47z
			 M150.48,110.178c-14.735,3.184-30.255,3.235-45.268,3.141c-11.431-0.073-22.764-0.502-34.018-1.392
			c4.041-3.245,7.698-7.577,11.264-10.913c4.622-4.322,10.186-8.591,14.394-13.541c0.391,0.104,0.83,0.056,1.22-0.286
			c0,0,0.002-0.001,0.004-0.003c0.351,0.255,0.747,0.45,1.275,0.499c0.275,0.026,0.479-0.01,0.696-0.034
			c0.048,0.046,0.043,0.107,0.105,0.148c8.859,5.776,18.938,9.692,28.815,13.367c8.148,3.031,17.312,6.712,26.099,7.875
			c-0.016,0.04-0.034,0.077-0.041,0.121C153.198,109.587,151.598,109.937,150.48,110.178z M66.2,111.499
			c-19.393-1.792-38.539-5.087-57.463-10.798c-3.671-3.246-5.339-6.417-5.621-9.431c29.479-2.771,58.639,1.632,88.026-2.923
			c-3.384,2.815-6.548,6.043-9.633,8.826C76.64,101.566,70.208,106.122,66.2,111.499z M93.582,57.58
			c17.28-2.172,77.143-6.528,90.468,16.078c-0.23-0.057-0.482-0.076-0.776-0.003c-26.438,6.649-55.921,0.449-81.621,9.348
			c-0.124-0.091-0.237-0.201-0.369-0.275c-0.032-0.405-0.212-0.76-0.482-1.008c-3.322-7.847-6.662-15.555-8.182-24.018
			C92.939,57.661,93.261,57.62,93.582,57.58z M89.244,58.129c1.501,8.435,4.91,16.502,9.038,24.02
			c-0.111,0.095-0.22,0.191-0.328,0.289c-5.697-3.643-11.382-7.296-16.993-11.07c-3.219-2.165-6.397-4.417-9.435-6.83
			c-1.024-0.813-3.161-2.299-4.194-3.631C74.636,59.976,81.94,59.044,89.244,58.129z M26.653,68.541
			c9.417-3.797,20.381-5.014,30.308-6.32c2.521-0.331,5.049-0.636,7.573-0.96c0.118,4.129,8.747,8.839,11.178,10.517
			c6.367,4.397,13.176,8.816,20.347,11.89c-0.156,0.375-0.227,0.799-0.246,1.229c-0.039,0.024-0.075,0.057-0.114,0.081
			c-14.947-0.127-29.723,3.181-44.763,2.978c-16.037-0.217-32.102-2.396-47.829,1.615C3.891,79.365,19.996,71.224,26.653,68.541z
			 M6.134,119.504c0.691-3.274-1.044-9.138-1.369-11.149c-0.536-3.32-1.703-7.216-2.343-10.903C3,98.362,3.693,99.222,4.558,99.992
			c-0.127,0.255-0.105,0.58,0.205,0.719c0.639,0.287,1.288,0.533,1.93,0.81c0.464,0.274,0.915,0.558,1.436,0.796
			c0.182,0.082,0.373,0.08,0.55,0.038c18.179,7.55,37.312,11.358,56.763,13.187c-0.026,3.753,0.225,7.512,0.525,11.249
			c0.145,1.798-0.012,5.312,1.074,7.322C46.099,132.884,25.582,128.611,6.134,119.504z M106.92,133.247
			c-12.524,1.136-25.038,1.578-37.414,0.994c-0.004-0.036,0.017-0.061,0.01-0.099c-1.074-5.943-1.602-12.306-1.927-18.411
			c17.281,1.494,34.795,1.483,52.106,1.133c11.89-0.241,23.843-1.35,35.405-4.084c0.062,2.522,0.066,5.043,0.005,7.579
			c-0.045,1.868-0.437,4.764,0.279,6.839C139.474,131.276,121.955,131.883,106.92,133.247z M186.786,110.312
			c-7.696,8.074-17.634,12.947-28.446,16.067c-0.069-0.575-0.197-1.161-0.274-1.812c-0.249-2.119-0.249-4.276-0.307-6.407
			c-0.053-1.957-0.094-3.965-0.407-5.912c4.447-1.143,8.836-2.523,13.128-4.229c3.59-1.427,11.834-5.521,15.913-10.279
			c-0.328,4.055-0.767,8.658,0.46,12.526C186.83,110.288,186.808,110.292,186.786,110.312z"/>
	</g>
</g>
<g>
</g>
<g>
</g>
<g>
</g>
<g>
</g>
<g>
</g>
<g>
</g>
<g>
</g>
<g>
</g>
<g>
</g>
<g>
</g>
<g>
</g>
<g>
</g>
<g>
</g>
<g>
</g>
<g>
</g>
</svg>
