<?xml version="1.0" encoding="iso-8859-1"?>
<!-- Generator: Adobe Illustrator 16.0.0, SVG Export Plug-In . SVG Version: 6.00 Build 0)  -->
<!DOCTYPE svg PUBLIC "-//W3C//DTD SVG 1.1//EN" "http://www.w3.org/Graphics/SVG/1.1/DTD/svg11.dtd">
<svg version="1.1" id="Capa_1" xmlns="http://www.w3.org/2000/svg" xmlns:xlink="http://www.w3.org/1999/xlink" x="0px" y="0px"
	 width="195.14px" height="195.14px" viewBox="0 0 195.14 195.14" style="enable-background:new 0 0 195.14 195.14;"
	 xml:space="preserve">
<g>
	<g>
		<path d="M133.344,41.685c5.368-21.117-29.447-23.114-40.951-5.086C88.248,25.964,62.736,25.12,64.13,42.814
			c-5.807-3.451-12.656-5.983-18.972-2.663c-6.038,3.174-7.527,11.312-7.615,17.444c-0.141,9.862,6.516,28.675,18.663,25.2
			c-4.634,6.868-3.428,15.441,4.023,21.023c9.837,7.369,19.987,0.174,25.637-8.38c2.256,7.784,7.681,13.956,16.79,13.958
			c7.227,0.002,11.45-6.104,10.913-12.365c6.928,7.814,18.103,10.531,26.38,2.039c3.228-3.312,5.159-8.265,4.483-12.888
			c-0.071-0.494-0.203-1.001-0.345-1.507c9.259,0.857,18.094-9.482,18.581-21.812C163.371,45.158,147.588,34.322,133.344,41.685z
			 M142.393,80.817c-1.465-2.371-3.577-4.389-6.042-5.287c-0.148-0.199-0.296-0.375-0.443-0.585
			c-1.375-1.951-4.602-0.124-3.235,1.891c0.089,0.131,0.186,0.223,0.275,0.351c0.067,0.178,0.11,0.369,0.246,0.511
			c0.202,0.212,0.409,0.393,0.615,0.587c1.679,2.136,3.448,3.716,5.27,4.756c0.694,0.915,1.258,1.996,1.57,3.468
			c0.808,3.815-1.312,7.786-3.867,10.435c-8.195,8.495-18.327,1.435-24.39-5.549c-0.478-0.55-1.134-0.419-1.567-0.02
			c-0.83,0.103-1.614,0.973-1.478,1.98c0.911,6.685-0.117,12.225-8.087,12.225c-8.144,0-11.971-8.674-12.667-15.479
			c-0.171-1.672-2.671-2.869-3.551-0.962c-3.964,8.589-11.409,16.968-21.607,12.251c-9.261-4.282-7.738-14.69-2.373-21.284
			c0.761-0.935-0.392-2.11-1.325-1.325c-0.049,0.042-0.081,0.091-0.13,0.133c-0.272-0.158-0.608-0.207-0.989-0.068
			c-12.192,4.45-16.874-10.925-17.267-20.272c-0.213-5.058,0.728-11.496,5.08-14.739c5.913-4.406,14.515,1.202,19.404,4.566
			c1.408,0.969,3.224-0.621,2.791-2.146c-2.091-7.357,0.616-13.284,8.648-13.934c6.367-0.515,11.899,2.866,11.939,9.466
			c0.004,0.6,0.288,1.033,0.677,1.32c0.357,0.571,1.271,0.692,1.845,0.2c0.404-0.187,0.745-0.522,0.893-1.058
			c0.075-0.27,0.051-0.51,0.103-0.774c9.059-17.836,47.323-19.03,34.937,4.32c-1.032,1.946,1.384,3.776,3.001,2.316
			c11.765-10.624,26.773-3.507,28.305,11.613C159.731,67.197,152.188,84.939,142.393,80.817z"/>
		<path d="M79.196,75.199c-2.31,0.733-3.402,4.636-6.34,3.223c-2.73-1.314-4.184-4.937-5.038-7.621
			c-1.034-3.252-1.365-6.88-0.296-10.158c1.216-3.725,5.138-4.169,8.507-3.784c1.785,0.204,2.114-2.68,0.418-3.091
			c-11.825-2.868-14.999,8.77-12.303,18.045c1.147,3.945,3.55,8.673,7.605,10.271c3.339,1.316,9.713-1.27,9.286-5.484
			C80.946,75.705,80.171,74.89,79.196,75.199z"/>
		<path d="M86.488,55.66C86.146,54.291,83.9,54.556,84,55.996c0.337,4.87,0.21,9.738-0.032,14.609
			c-0.175,3.514-1.526,8.43,0.024,11.714c0.465,0.985,2.072,0.943,2.549,0c1.622-3.206,0.921-8.201,1.031-11.714
			C87.73,65.603,87.706,60.54,86.488,55.66z"/>
		<path d="M97.795,69.995c-0.829-0.288-1.459,0.09-1.797,0.675c-3.083,0.38-6.168,2.662-6.681,5.849
			c-0.558,3.466,3.178,6.251,6.372,6.195C102.461,82.595,104.266,72.245,97.795,69.995z M98.321,76.406
			c-0.258,1.229-1.192,2.338-2.39,2.716c-1.395,0.441-3.469-1.07-3.12-2.538c0.355-1.493,2.085-2.806,3.543-3.626
			c0.049,0.041,0.079,0.095,0.136,0.132C97.77,73.928,98.664,74.775,98.321,76.406z"/>
		<path d="M114.083,70.929c-0.146-0.525-0.632-1.126-1.209-1.209c-0.718-0.104-1.134-0.058-1.684,0.445
			c-0.447,0.41-0.607,1.111-0.445,1.684c0.636,2.255,0.693,6.38-2.785,5.905c-3.586-0.489-2.454-4.107-1.158-6.292
			c0.624-1.053-0.841-2.199-1.694-1.308c-1.803,1.88-3.13,4.302-2.566,6.962c0.445,2.1,2.5,3.579,4.505,3.952
			c2.181,0.406,4.493-0.256,5.981-1.937C115.027,76.87,114.844,73.65,114.083,70.929z"/>
		<path d="M124.659,54.982c-1.248,4.821-1.738,9.761-1.954,14.72c-3.691-1.596-7.538-0.235-7.793,4.395
			c-0.303,5.507,5.542,7.394,9.915,6.386c0.784-0.181,1.33-0.969,1.333-1.751c0.026-7.845,0.124-15.622,0.752-23.446
			C127.015,53.977,124.978,53.751,124.659,54.982z M118.558,74.764c-0.829-2.744,1.892-2.457,3.532-1.712
			c0.163,0.074,0.319,0.091,0.478,0.117c-0.025,1.333-0.027,2.666-0.028,3.997C120.759,77.305,119.168,76.782,118.558,74.764z"/>
		<path d="M108.113,147.228c-0.067-0.481-0.392-0.754-0.773-0.93c0.022-0.6-0.243-1.209-0.82-1.56
			c-0.772-0.47-1.862-0.497-2.929-0.461c1.134-3.974,0.854-9.578,1.04-12.826c0.293-5.067,1.102-11.666-1.233-16.396
			c-0.227-0.458-0.79-0.74-1.285-0.736c-0.027-0.025-0.054-0.051-0.08-0.077c-0.63-0.388-1.433,0.248-1.233,0.948
			c-0.227-0.798,0.165,2.876,0.247,3.71c0.32,3.235,0.173,6.542,0.033,9.782c-0.215,4.979-1.676,10.413-1.809,15.445
			c-1.469-0.158-2.926-0.377-4.385-0.708c-0.922-0.209-1.594,0.495-1.729,1.26c-1.607,2.702-0.3,7.156,0.22,10.047
			c0.895,4.978,2.175,9.881,3.583,14.735c0.48,1.653,2.508,1.737,3.423,0.447c2.627-3.705,4.238-7.989,5.635-12.281
			C107.042,154.483,108.579,150.577,108.113,147.228z"/>
		<path d="M32.71,59.011c-2.096-1.229-5.033-0.651-7.387-0.669c-3.341-0.026-6.68-0.126-10.018-0.229
			c0.044-1.182,0.065-2.364,0.07-3.537c0.005-1.267-1.191-2.053-2.364-1.801C9.484,53.533,4.408,54.88,1.812,57.09
			c-0.106,0.09-0.156,0.222-0.222,0.341c-1.397-0.231-2.285,2.004-0.883,2.643c3.755,1.712,7.509,3.405,11.169,5.314
			c1.013,0.528,2.393,0.101,2.683-1.091c0.195-0.803,0.341-1.616,0.453-2.434c0.146,0.005,0.326,0.007,0.442,0.014
			c3.284,0.196,6.582,0.211,9.87,0.249c2.35,0.027,5.291,0.61,7.387-0.619C33.648,60.959,33.647,59.561,32.71,59.011z"/>
		<path d="M194.599,63.894c-3.533-3.144-7.594-4.608-12.199-5.473c-1.201-0.226-2.416,0.521-2.414,1.839
			c0.003,1.401,0.05,2.789,0.087,4.18c-4.366,0.047-8.737-0.208-13.102-0.743c-1.719-0.21-2.101,2.703-0.407,3.017
			c4.572,0.849,9.137,1.276,13.707,1.318c0.116,1.605,0.231,3.209,0.503,4.811c0.195,1.161,1.842,1.793,2.787,1.134
			c1.821-1.272,3.56-2.664,5.322-4.016c1.058-0.811,2.123-1.607,3.208-2.378c0.23-0.164,0.456-0.298,0.646-0.408
			c0.343-0.048,0.684-0.063,1.026-0.115C195.165,66.847,195.59,64.776,194.599,63.894z"/>
	</g>
</g>
<g>
</g>
<g>
</g>
<g>
</g>
<g>
</g>
<g>
</g>
<g>
</g>
<g>
</g>
<g>
</g>
<g>
</g>
<g>
</g>
<g>
</g>
<g>
</g>
<g>
</g>
<g>
</g>
<g>
</g>
</svg>
