<?xml version="1.0" encoding="iso-8859-1"?>
<!-- Generator: Adobe Illustrator 16.0.0, SVG Export Plug-In . SVG Version: 6.00 Build 0)  -->
<!DOCTYPE svg PUBLIC "-//W3C//DTD SVG 1.1//EN" "http://www.w3.org/Graphics/SVG/1.1/DTD/svg11.dtd">
<svg version="1.1" id="Capa_1" xmlns="http://www.w3.org/2000/svg" xmlns:xlink="http://www.w3.org/1999/xlink" x="0px" y="0px"
	 width="193.536px" height="193.536px" viewBox="0 0 193.536 193.536" style="enable-background:new 0 0 193.536 193.536;"
	 xml:space="preserve">
<g>
	<path d="M191.526,107.204c-0.252-0.229-0.534-0.372-0.815-0.514c-0.037-2.08-1.401-4.143-4.104-4.196
		c-13.104-0.257-26.388-1.16-39.29,1.597c-0.167-0.527-0.449-1.052-0.871-1.553c-9.036-10.732-15.043-22.827-20.743-35.561
		c-1.068-2.386-4.955-2.775-6.604-0.851c-8.45,9.86-16.221,20.952-21.926,32.778c-0.205-0.098-0.411-0.151-0.615-0.149
		c-5.214-26.421-7.298-52.506-10.804-79.402c-0.442-3.397-5.665-6.173-7.484-2.027c-5.469,12.468-10.97,24.922-16.487,37.369
		C58.064,63.083,51.06,73.258,49.545,82.27c-1.467,8.727-8.024,17.155-8.699,25.987c-4.429-0.668-9.072-0.604-13.477-1.077
		c-7.882-0.846-15.727-2-23.613-2.818c-2.05-0.213-3.696,1.858-3.729,3.729c-0.172,9.922,0.412,19.554,3.554,29.022
		c0.607,1.828,2.208,2.369,3.573,1.99c0.165,1.89,1.771,3.719,4.243,3.245c8.97-1.719,18.053-1.811,27.153-1.917
		c6.268-0.074,13.799,0.803,19.113-2.932c0.708-0.496,1.135-1.22,1.299-1.975c1.317-0.041,2.629-0.743,3.203-2.328
		c2.051-5.66,4.568-11.094,7.143-16.508c1.454,10.916,1.773,22.028,2.742,32.962c0.775,8.746,0.895,21.358,7.527,27.822
		c1.49,1.453,4.334,0.874,5.039-1.002c0.582-0.019,1.166-0.204,1.657-0.653c14.799-13.512,23.854-32.975,33.49-50.404
		c0.683,0.655,1.345,1.328,2.033,1.977c2.021,1.896,4.605,4.636,7.47,7.253c1.495,2.483,2.874,5.054,4.068,7.775
		c0.636,1.446,1.801,2.051,3.032,2.064c0.51,0.373,1.104,0.646,1.837,0.645c7.844-0.021,15.698-0.685,23.529-1.116
		c7.921-0.437,16.833,0.647,24.402-1.826c0.906-0.296,1.521-0.888,1.904-1.585c1.254-0.002,2.488-0.645,2.839-2.124
		c1.409-5.941,1.849-12.072,2.194-18.153C193.285,116.619,194.608,109.995,191.526,107.204z M185.273,110.99
		c-0.393,2.533,0.03,5.487,0.002,7.668c-0.026,1.897-0.076,3.793-0.108,5.689c-1.662-1.744-3.554-3.318-5.085-4.698
		c-3.63-3.269-7.574-6.185-11.627-8.917C174.055,110.781,179.665,110.986,185.273,110.99z M79.118,34.634
		c0.468,7.351,0.799,14.968,1.289,22.598c-1.04-1.196-2.098-2.375-3.093-3.558c-1.528-1.817-3.119-3.574-4.754-5.289
		C74.75,43.788,76.95,39.201,79.118,34.634z M70.998,51.706c1.023,1.19,2.086,2.346,3.073,3.568c2.271,2.81,4.286,6.043,6.803,8.673
		c0.266,3.224,0.58,6.439,0.974,9.622c-1.572-1.343-3.143-2.681-4.554-4.106c-3.517-3.552-6.51-7.471-9.169-11.66
		C69.065,55.764,70.039,53.738,70.998,51.706z M66.771,60.731c1.61,3.036,3.589,5.868,5.724,8.593
		c2.899,3.699,6.419,8.074,10.378,11.181c1.07,6.386,2.502,12.608,4.626,18.454c-8.337-9.535-16.721-19.032-24.895-28.665
		C63.932,67.095,65.333,63.909,66.771,60.731z M9.561,135.679c-0.101,0.03-0.156,0.093-0.251,0.128c-0.01-0.095,0.018-0.173,0-0.271
		c-0.686-3.667-1.073-7.339-1.318-11.019c0.897,1.479,1.919,2.901,3.035,4.289c1.348,1.677,2.848,3.626,4.455,5.458
		C13.502,134.646,11.529,135.105,9.561,135.679z M20.129,133.511c-1.48-1.575-3.241-2.988-4.647-4.382
		c-3.307-3.277-6.391-6.891-7.808-11.389c-0.04-1.432-0.066-2.867-0.092-4.303c6.31,6.365,12.35,12.948,18.441,19.508
		C24.052,133.097,22.083,133.25,20.129,133.511z M35.417,132.454c-1.215,0.033-2.409,0.106-3.614,0.155
		c-6.223-7.123-13.297-13.777-20.603-19.88c3.354,0.411,6.707,0.836,10.06,1.259c4.249,3.802,8.501,7.602,12.675,11.486
		c2.234,2.079,4.376,4.398,6.589,6.625C38.775,132.265,37.059,132.409,35.417,132.454z M46.369,131.572
		c-2.627-2.611-5.648-4.937-8.394-7.288c-3.812-3.265-7.698-6.441-11.574-9.631c4.306,0.606,8.855,1.342,13.234,1.181
		c2.254,2.794,4.622,5.489,7.127,8.071c2.566,2.646,5.276,5.951,8.517,7.926C52.466,131.311,49.431,131.352,46.369,131.572z
		 M56.932,127.452c-2.313-2.231-5.182-4.129-7.443-6.272c-1.971-1.87-3.837-3.839-5.673-5.837c0.367-0.075,0.738-0.13,1.101-0.226
		c1.895-0.497,2.553-2.383,2.069-3.934c0.04-0.062,0.089-0.116,0.126-0.179c0.008,0.011,0.017,0.021,0.025,0.032
		c0.079-0.132,0.147-0.276,0.226-0.409c1.872,1.829,3.784,3.616,5.777,5.327c1.926,1.653,3.927,3.738,6.2,5.053
		C58.487,123.134,57.678,125.279,56.932,127.452z M60.959,117.157c-1.492-1.216-3.214-2.223-4.743-3.326
		c-2.559-1.848-4.992-3.862-7.371-5.939c1.326-2.658,2.441-5.535,3.485-8.451c1.44,1.391,2.92,2.743,4.419,4.078
		c2.205,1.965,4.206,4.374,6.71,5.942c0.257,0.16,0.526,0.204,0.79,0.199C63.132,112.153,62.026,114.647,60.959,117.157z
		 M67.63,102.099c-0.73,1.649-1.47,3.291-2.208,4.934c-1.632-2.346-4.168-4.027-6.356-5.834c-1.905-1.572-3.784-3.176-5.662-4.78
		c1.056-3.17,2.017-6.317,2.973-9.321c4.647,4.183,9.014,8.653,13.197,13.301C68.756,100.66,68.036,101.185,67.63,102.099z
		 M84.082,169.813c-0.396-2.559-0.877-5.116-1.379-7.676c1.062,1.586,2.237,3.119,3.572,4.337
		C85.545,167.588,84.831,168.707,84.082,169.813z M88.017,163.823c-0.708-0.578-1.423-1.149-2.059-1.805
		c-1.652-1.701-3.017-3.684-4.39-5.617c-0.877-4.479-1.689-8.989-2.117-13.565c2.28,2.586,4.565,5.166,6.767,7.824
		c1.564,1.891,3.5,5.233,5.916,6.592C90.784,159.452,89.414,161.643,88.017,163.823z M94.133,153.912
		c-1.471-2.123-4.095-4.038-5.587-5.581c-3.119-3.226-6.182-6.529-9.453-9.604c-0.341-4.604-0.655-9.21-1.062-13.805
		c2.079,3.463,4.679,6.609,7.442,9.6c2.342,2.535,4.831,4.934,7.26,7.385c1.718,1.732,3.29,4.064,5.474,5.202
		C96.878,149.392,95.497,151.647,94.133,153.912z M100.197,143.679c-2.029-3.771-7.062-6.94-9.955-9.587
		c-5.069-4.638-9.865-9.584-12.879-15.833c-0.014-0.029-0.037-0.043-0.053-0.069c-0.43-3.634-0.933-7.258-1.648-10.852
		c1.229,1.439,2.464,2.875,3.68,4.323c6.699,7.98,13.719,19.843,22.825,25.169c0.648,0.381,1.313,0.354,1.874,0.103
		C102.769,139.189,101.485,141.435,100.197,143.679z M105.347,134.606c-0.037-0.236-0.118-0.474-0.247-0.707
		c-5.196-9.336-15.099-17.818-22.312-25.682C74.874,99.59,66.63,91.322,57.343,84.189c1.272-3.799,2.702-7.579,4.219-11.346
		c13.84,20.147,29.449,39.807,46.052,57.711C106.862,131.903,106.102,133.262,105.347,134.606z M110.263,125.824
		c-4.238-5.218-8.551-10.384-12.938-15.498c0.48-0.457,0.84-1.047,0.973-1.736c0.18-0.153,0.362-0.302,0.5-0.516
		c0.501-0.777,1.013-1.534,1.516-2.306c4.498,4.583,8.946,9.213,13.469,13.771C112.605,121.637,111.435,123.729,110.263,125.824z
		 M142.901,137.607c-1.622-0.985-3.244-1.971-4.804-3.057c-4.544-7.157-9.938-13.65-17.284-18.151
		c-0.779-0.477-1.596-0.439-2.32-0.146c-0.593-0.108-1.195-0.05-1.773,0.127c-4.821-4.559-9.622-9.123-14.574-13.398
		c1.455-2.204,2.923-4.386,4.408-6.551c5.498,8.647,13.306,16.251,20.207,23.608c4.763,5.076,11.283,13.968,18.419,17.298
		C144.42,137.434,143.658,137.501,142.901,137.607z M151.069,136.635c0.202-0.81-0.03-1.685-1.01-2.19
		c-7.302-3.769-14.075-12.127-19.905-17.8c-7.526-7.324-14.523-15.165-21.925-22.602c1.994-2.858,4.027-5.684,6.111-8.478
		c13.419,17.619,29.201,36.232,46.443,49.693c0.272,0.214,0.552,0.353,0.829,0.45C158.098,135.954,154.582,136.268,151.069,136.635z
		 M163.463,135.555c1.113-0.62,1.667-2.142,0.565-3.542c-7.283-9.257-16.984-16.958-25.442-25.145
		c-7.818-7.566-15.256-15.486-22.394-23.691c1.583-2.075,3.161-4.151,4.818-6.187c5.065,11.279,10.726,22.761,19.709,31.275
		c1.076,1.019,2.255,1.311,3.327,1.141c0.714,1.637,2.39,2.923,4.632,2.54c1.461-0.249,2.924-0.448,4.387-0.611
		c2.603,5.622,7.615,10.364,11.953,14.408c3.16,2.947,6.488,5.712,9.771,8.521c0.149,0.128,0.297,0.265,0.445,0.398
		C171.279,134.76,167.272,135.232,163.463,135.555z M182.96,135.148c-1.477-4.425-9.014-8.226-12.197-10.776
		c-4.764-3.815-10.24-8.121-13.842-13.377c2.113-0.147,4.229-0.213,6.348-0.252c-0.023,0.626,0.196,1.27,0.838,1.726
		c4.093,2.913,7.963,6.08,11.611,9.534c1.67,1.581,3.219,3.29,4.724,5.025c1.562,1.802,2.641,4.086,4.459,5.623
		c0.034,0.029,0.072,0.039,0.106,0.065c-0.021,0.944-0.027,1.89-0.053,2.835C184.299,135.384,183.63,135.265,182.96,135.148z"/>
</g>
<g>
</g>
<g>
</g>
<g>
</g>
<g>
</g>
<g>
</g>
<g>
</g>
<g>
</g>
<g>
</g>
<g>
</g>
<g>
</g>
<g>
</g>
<g>
</g>
<g>
</g>
<g>
</g>
<g>
</g>
</svg>
