<?xml version="1.0" encoding="iso-8859-1"?>
<!-- Generator: Adobe Illustrator 16.0.0, SVG Export Plug-In . SVG Version: 6.00 Build 0)  -->
<!DOCTYPE svg PUBLIC "-//W3C//DTD SVG 1.1//EN" "http://www.w3.org/Graphics/SVG/1.1/DTD/svg11.dtd">
<svg version="1.1" id="Capa_1" xmlns="http://www.w3.org/2000/svg" xmlns:xlink="http://www.w3.org/1999/xlink" x="0px" y="0px"
	 width="190.247px" height="190.246px" viewBox="0 0 190.247 190.246" style="enable-background:new 0 0 190.247 190.246;"
	 xml:space="preserve">
<g>
	<g>
		<path d="M163.509,31.96c0.275-3.999,1.173-9.215-1.807-12.256c-0.169-0.172-0.402-0.262-0.612-0.385
			c-0.413-1.11-1.354-2.013-2.704-2.13c-15.681-1.353-31.746-1.738-47.587-2.294c-2.779-0.097-5.583-0.237-8.398-0.393
			c0.443-1.752,0.473-3.798,0.716-5.332c0.239-1.506,0.896-3.146,0.896-4.671c0-2.395-1.451-4.192-3.605-4.466
			c-4.245-0.541-4.405,5.565-4.409,8.617c-0.002,1.574-0.116,3.664,0.226,5.491c-21.988-1.368-44.704-3.246-65.874,2.115
			c-1.208,0.306-1.771,1.394-1.834,2.533c-2.393,2.81-1.994,7.725-2.096,11.352c-0.161,5.729,0.422,11.422,1.406,17.04
			c0.135,0.769,0.514,1.305,0.975,1.725c-0.061,1.166,0.472,2.38,1.636,2.591c3.885,0.703,7.811,1.146,11.754,1.481
			c-8.812,42.674-2.226,87.327-1.862,130.594c0.021,2.43,1.743,4.004,3.849,4.194c31.703,2.863,64.041,4.308,95.515-1.679
			c0.955-0.182,1.626-0.651,2.067-1.268c1.524,0.617,3.438-0.232,3.606-2.68c1.495-21.68,1.306-43.553,2.077-65.281
			c0.722-20.375,3.53-42.125,1.003-62.395c3.312,0.176,6.627,0.331,9.938,0.547c1.676,0.11,2.819-0.711,3.438-1.896
			c1.138-0.388,2.032-1.583,1.729-3.374C162.557,43.866,163.103,37.874,163.509,31.96z M139.697,110.873
			c-0.884,22.313-2.401,45.152-0.171,67.435c-0.551-0.181-1.159-0.243-1.829-0.114c-29.515,5.629-59.95,4.355-89.711,1.532
			c-0.427-42.196-4.747-84.267-0.509-126.369c7.199,0.376,14.452,0.326,21.693,0.177c-4.812,24.153-2.867,49.8-3.964,74.339
			c-0.318,7.121-4.781,29.902,2.617,34.436c1.166,0.715,2.72,0.566,3.666-0.516c0.922-1.055,1.16-1.789,1.389-3.243
			c0.187-1.187-0.277-2.242-1.003-2.882c0.21-0.053,0.229-0.811,0.155-3.527c-0.081-2.975,0.028-5.964,0.095-8.938
			c0.148-6.566,0.517-13.123,0.682-19.688c0.587-23.416-0.695-46.702,0.675-70.084c5.616-0.138,11.22-0.292,16.769-0.322
			c-1.708,17.654,0.441,35.936,1.581,53.551c0.669,10.322,1.004,20.647,0.891,30.994c-0.086,7.858-2.563,15.336-2.659,23.022
			c-0.032,2.511,2.973,3.931,4.583,2.069c9-10.408,5.833-34.019,5.204-46.828c-1.03-20.981-3.58-41.816-4.623-62.799
			c7.511,0.01,15.02,0.085,22.527,0.229c-1.049,16.95-1.146,33.99-1.891,50.961c-0.755,17.182-4.219,36.477-2.319,53.508
			c0.377,3.377,4.502,4.303,5.565,0.82c4.538-14.881,3.202-33.366,3.738-48.912c0.645-18.636,1.077-37.596,0.02-56.232
			c6.412,0.155,12.823,0.329,19.232,0.62C139.547,72.614,140.438,92.172,139.697,110.873z M91.672,44.347
			c-18.904,0.03-38.485-1.147-57.29,1.699c-0.499-4.696-0.705-9.413-0.647-14.14c0.039-3.232,1.079-6.929,0.67-10.187
			c26.449-1.597,53.148,0.913,79.588,2.106c10.39,0.469,20.774,1.022,31.169,1.374c3.674,0.124,7.585,0.697,11.138-0.258
			c-0.184,2.854,0.14,5.867,0.132,8.585c-0.011,4.076,0,8.333,0.677,12.409C135.307,44.641,113.501,44.312,91.672,44.347z"/>
	</g>
</g>
<g>
</g>
<g>
</g>
<g>
</g>
<g>
</g>
<g>
</g>
<g>
</g>
<g>
</g>
<g>
</g>
<g>
</g>
<g>
</g>
<g>
</g>
<g>
</g>
<g>
</g>
<g>
</g>
<g>
</g>
</svg>
