<?xml version="1.0" encoding="iso-8859-1"?>
<!-- Generator: Adobe Illustrator 16.0.0, SVG Export Plug-In . SVG Version: 6.00 Build 0)  -->
<!DOCTYPE svg PUBLIC "-//W3C//DTD SVG 1.1//EN" "http://www.w3.org/Graphics/SVG/1.1/DTD/svg11.dtd">
<svg version="1.1" id="Capa_1" xmlns="http://www.w3.org/2000/svg" xmlns:xlink="http://www.w3.org/1999/xlink" x="0px" y="0px"
	 width="188.077px" height="188.077px" viewBox="0 0 188.077 188.077" style="enable-background:new 0 0 188.077 188.077;"
	 xml:space="preserve">
<g>
	<g>
		<path d="M172.784,11.907c-0.604-0.934-1.643-1.196-2.576-1.016C151.248-1.789,19.942,5.083,3.437,9.521
			c-0.639,0.172-1.076,0.577-1.338,1.073c-1.186,0.239-2.223,1.106-2.087,2.524c5.046,52.851,2.933,105.49,2.881,158.463
			c-0.005,4.506,6.204,4.93,7.502,1.35c-0.006,0.085,0.012,0.174,0.073,0.259c0.348,0.487,0.213,0.149,0.414,1.14
			c0.33,1.627,1.857,2.334,3.318,2.526c27.307,3.608,55.248,3.626,82.734,4.726c15.188,0.608,30.375,1.18,45.565,1.701
			c5.985,0.205,15.612,2.254,22.062,0.379c4.427,0.301,8.156-0.326,12.629-1.568c1.75-0.486,2.648-1.965,2.804-3.682
			c2.623-28.922,6.744-57.666,7.83-86.716C188.809,65.341,187.537,34.762,172.784,11.907z M179.552,96.762
			c-0.482,15.062-2.004,30.092-3.541,45.074c-0.648,6.312-1.334,12.621-1.993,18.931c-0.942,9.034,0.993,15.565-8.494,15.468
			c-5.812-2.309-14.748-0.973-20.569-1.169c-16.009-0.537-32.015-1.157-48.02-1.798c-27.58-1.104-55.148-2.41-82.734-3.293
			c-1.112-0.035-2.489,0.66-2.972,1.705c-0.073,0.269-0.146,0.537-0.219,0.808c-0.268-0.062-0.553,0.14-0.604,0.394
			c0.137-0.396,0.267-0.803,0.269-1.297c0.251-52.41,5.067-105.835-5.122-157.614c28.25-2.082,57.042-1.372,85.332-1.293
			c17.082,0.048,34.182,0.347,51.24,1.305c6.131,0.344,12.286,0.79,18.358,1.718c1.931,0.295,8.505,2.485,6.646,1.004
			c0.773,0.616,1.637,0.862,2.443,0.816C177.888,43.532,180.429,69.303,179.552,96.762z"/>
		<path d="M142.024,43.179c-4.899-0.04-9.798-0.173-14.697-0.067c-3.525,0.076-8.124,0.086-11.629,1.603
			c-0.774-0.1-1.569-0.077-2.247,0.044c-2.271,0.404-4.082,1.592-5.564,3.203c-0.188,0.053-0.37,0.055-0.56,0.137
			C96.01,52.978,86.332,62.49,77.768,71.089c-9.45,9.488-19.28,20.224-25.791,32.026c-0.762,1.383-0.223,2.875,0.777,3.793
			c-4.448,8.613-5.929,18.665-7.329,28.137c-0.454,3.074,1.646,5.197,4.729,4.729c10.637-1.611,21.192-4.936,31.391-8.301
			c0.387-0.129,0.712-0.307,1.008-0.502c1.04,0.32,2.184,0.176,3.021-0.811c8.071-9.507,16.42-18.709,25.049-27.716
			c7.526-7.858,18.751-15.838,24.111-25.451c1.29,0.852,2.954,0.827,4.248-0.375c2.603-2.417,2.622-8.544,3.325-11.811
			c1.183-5.491,2.455-10.962,3.662-16.447C146.541,45.764,144.786,43.202,142.024,43.179z M137.075,51.228
			c-0.39,1.924-0.79,3.845-1.189,5.767c-2.231-2.176-4.735-4.176-7.268-6.044C131.442,50.961,134.287,51.11,137.075,51.228z
			 M53.685,131.213c0.341-2.301,0.706-4.59,1.086-6.875c0.883,1.136,1.805,2.242,2.788,3.285c0.587,0.625,1.303,1.385,2.089,2.125
			C57.67,130.269,55.685,130.77,53.685,131.213z M65.669,128.094c-0.291-0.172-0.595-0.334-0.92-0.496
			c-1.531-0.771-2.915-1.846-4.226-2.938c-1.784-1.488-3.452-3.158-4.942-4.966c0.411-2.259,0.852-4.515,1.321-6.772
			c2.662,3.326,5.399,6.584,8.368,9.654c1.327,1.371,2.825,2.94,4.454,4.364C68.373,127.326,67.02,127.709,65.669,128.094z
			 M81.892,124.375c-0.66-0.263-1.446-0.33-2.334-0.108c-1.279,0.319-2.544,0.675-3.815,1.019c-2.491-1.875-5.005-3.701-7.313-5.869
			c-3.733-3.506-7.154-7.365-10.469-11.269c0.114-0.497,0.213-0.994,0.331-1.492c0.138-0.581,0.046-1.099-0.157-1.548
			c0.444-0.537,0.893-1.076,1.337-1.613c3.406,3.651,6.95,7.176,10.795,10.364c3.208,2.661,7.311,6.119,11.65,6.163
			c1.402,0.014,2.396-1.941,1.213-2.926c-3.085-2.562-7.146-3.982-10.466-6.344c-4.018-2.859-7.582-6.312-11.203-9.658
			c2.319-2.801,4.659-5.588,7.017-8.36c3.976,3.763,7.885,7.597,11.899,11.317c2.876,2.666,7.024,7.431,11.366,7.928
			C88.337,116.016,85.021,120.127,81.892,124.375z M94.359,108.905c-0.229-0.294-0.539-0.547-0.993-0.68
			c-4.414-1.292-8.94-5.933-12.379-8.745c-3.584-2.93-7.107-5.935-10.674-8.885c2.193-2.545,4.43-5.046,6.696-7.517
			c1.577,3.76,7.11,7.376,9.718,9.603c3.588,3.065,9.408,9.21,14.654,8.42C99.024,103.689,96.65,106.258,94.359,108.905z
			 M105.123,96.944c-0.727,0.779-1.418,1.593-2.14,2.377c-0.038-0.849-0.565-1.739-1.413-2.058
			c-4.031-1.506-7.965-4.913-11.382-7.441c-2.375-1.757-4.636-3.649-6.937-5.499c-0.737-0.593-3.97-2.635-4.208-3.238
			c-0.021-0.053-0.055-0.084-0.08-0.132c1.667-1.774,3.37-3.508,5.093-5.22c5.21,2.675,9.613,6.282,14.025,10.096
			c2.951,2.551,6.345,6.121,10.167,7.623C107.191,94.668,106.148,95.844,105.123,96.944z M119.154,81.131
			c-3.094,0.313-7.434-3.492-9.572-5.035c-3.923-2.83-7.625-5.948-11.729-8.521c-2.011-1.261-3.632,1.76-1.815,3.108
			c5.222,3.877,10.08,8.245,15.468,11.898c1.33,0.901,2.753,1.753,4.204,2.245c-1.634,1.831-3.229,3.694-4.785,5.515
			c-3.486-3.193-8.093-5.644-11.863-8.447c-4.13-3.071-8.361-5.985-13.069-8.071c4.902-4.724,10.11-9.102,15.678-13.066
			c4.225,3.362,8.581,6.613,13.008,9.699c3.125,2.179,7.334,5.611,11.418,4.457c0.021-0.006,0.038-0.021,0.059-0.028
			C123.732,76.708,121.397,78.825,119.154,81.131z M132.816,71.487c-0.623-0.079-1.293,0.006-1.964,0.353
			c-1.329,0.688-2.618,1.534-3.889,2.442c0.603-0.809,0.619-2.103-0.45-2.564c-3.392-1.466-6.741-2.578-9.937-4.511
			c-4.253-2.573-8.176-5.675-12.44-8.227c2.269-1.526,4.602-2.98,7.014-4.339c0.817-0.46,1.307-1.049,1.589-1.681
			c3.088,4.404,7.272,8.077,11.255,11.618c2.418,2.149,5.632,5.287,9.089,5.024C132.971,70.236,132.863,70.873,132.816,71.487z
			 M134.707,62.71c-0.177,0.862-0.481,1.977-0.794,3.166c-6.729-3.533-12.055-8.246-17.436-13.456
			c0.032-0.009,0.06-0.006,0.09-0.016c2.23-0.691,4.559-1.066,6.93-1.266c3.878,3.59,7.344,7.677,11.302,11.124
			C134.769,62.412,134.737,62.562,134.707,62.71z"/>
	</g>
</g>
<g>
</g>
<g>
</g>
<g>
</g>
<g>
</g>
<g>
</g>
<g>
</g>
<g>
</g>
<g>
</g>
<g>
</g>
<g>
</g>
<g>
</g>
<g>
</g>
<g>
</g>
<g>
</g>
<g>
</g>
</svg>
