<?xml version="1.0" encoding="iso-8859-1"?>
<!-- Generator: Adobe Illustrator 16.0.0, SVG Export Plug-In . SVG Version: 6.00 Build 0)  -->
<!DOCTYPE svg PUBLIC "-//W3C//DTD SVG 1.1//EN" "http://www.w3.org/Graphics/SVG/1.1/DTD/svg11.dtd">
<svg version="1.1" id="Capa_1" xmlns="http://www.w3.org/2000/svg" xmlns:xlink="http://www.w3.org/1999/xlink" x="0px" y="0px"
	 width="190.544px" height="190.544px" viewBox="0 0 190.544 190.544" style="enable-background:new 0 0 190.544 190.544;"
	 xml:space="preserve">
<g>
	<g>
		<path d="M188.991,106.043c-6.321-25.485-33.259-42.525-57.494-30.729c2.449-26.062-19.091-41.43-43.339-27.815
			c-5.061,2.841-8.847,7.407-12.107,12.088c-1.892,2.719-2.562,9.34-7.685,8.146c-2.633-0.614-7.293-0.638-9.935,0.152
			c-14.611,4.37-20.819,16.589-18.51,30.464c-16.189-14.083-37.99,4.083-39.836,23.668c-1.157,12.278,9.785,19.279,19.939,22.423
			c12.744,3.945,27.884,2.836,41.037,3.294c21.048,0.731,42.145,0.252,63.194-0.189C153.37,146.934,199.605,148.828,188.991,106.043
			z M180.76,134.697c-10.811,12.501-34.212,9.043-48.667,9.388c-18.422,0.439-36.838,0.844-55.266,0.832
			c-19.792-0.012-44.584,2.082-63.06-5.905c-26.806-11.591,3.513-58.367,26.95-37.022c0.108,0.402,0.193,0.8,0.314,1.204
			c0.236,0.78,1.113,0.617,1.359,0.026c0.703,0.03,1.306-0.87,0.72-1.58c-0.273-0.331-0.565-0.564-0.843-0.873
			c-1.964-19.231,9.589-33.521,30.226-28.771c0.896,0.206,1.685-0.268,1.98-1.124c11.052-32.127,59.895-34.791,53.679,6.068
			c-0.219,1.439,1.263,2.271,2.266,1.928c0.444,0.226,0.979,0.282,1.543-0.016c22.672-11.975,44.335,3.502,52.838,25.154
			C188.866,114.369,188.181,126.115,180.76,134.697z"/>
		<path d="M121.646,108.083c-4.845-11.565-7.916-24.095-17.73-32.622c-0.72-0.625-1.717-0.681-2.431,0
			c-9.828,9.37-18.216,20.078-27.714,29.767c-1.166,1.188-0.2,2.773,1.228,2.966c3.816,0.513,7.638,0.843,11.468,0.589
			c-0.769,6.546-1.09,13.258-0.623,19.835c0.028,0.391,0.24,0.604,0.494,0.74c0.022,0.553,0.387,1.095,1.126,1.136
			c4.379,0.242,8.772,0.322,13.157,0.397c0.825,0.014,1.628-0.73,1.58-1.58c-0.37-6.553,1.117-12.838,2.531-19.176
			c5.094-0.566,10.184-0.487,15.279,0.092C121.029,110.342,122.047,109.04,121.646,108.083z M101.702,80.006
			c1.579-1.584,4.285,2.069,7.068,7.27c-0.893-0.911-1.787-1.822-2.677-2.736c-1.498-1.54-2.975-2.989-4.624-4.288
			C101.55,80.17,101.622,80.086,101.702,80.006z M100.705,81.058c1.077,1.609,2.296,3.075,3.618,4.558
			c1.178,1.321,2.359,2.64,3.545,3.953c0.747,0.827,1.716,2.407,2.86,2.674c0.184,0.043,0.357,0.029,0.519-0.011
			c2.01,4.257,3.896,8.76,5.24,12.067c-4.622-7.648-11.342-14.888-18.253-20.638C99.057,82.791,99.88,81.922,100.705,81.058z
			 M78.634,105.12c0.998-1.055,1.966-2.136,2.948-3.205c0.627,0.796,1.251,1.594,1.909,2.368c0.459,0.541,0.972,1.162,1.513,1.77
			C82.915,105.58,80.782,105.333,78.634,105.12z M93.959,127.921c-0.922-0.469-1.881-1.222-2.722-1.815
			c-0.688-0.486-1.336-1.031-1.931-1.626c-0.234-0.234-0.456-0.51-0.642-0.784c-0.3-0.44-0.383-0.062-0.161-0.416
			c0.142-0.226-0.001-0.453-0.2-0.548c0.06-0.575,0.123-1.15,0.185-1.726c1.348,1.403,2.745,2.759,4.189,4.083
			c0.724,0.664,1.777,1.833,2.906,2.781C95.042,127.89,94.501,127.906,93.959,127.921z M99.021,127.762
			c-0.118,0.002-0.236,0.009-0.354,0.011c-0.475-0.427-1.035-0.782-1.547-1.14c-1.303-0.916-2.527-1.95-3.752-2.969
			c-1.387-1.152-2.989-2.925-4.793-3.48c0.172-1.59,0.338-3.183,0.511-4.772c1.119,1.479,2.848,2.768,4.103,3.912
			c1.171,1.067,2.328,2.154,3.561,3.148c0.437,0.351,0.887,0.679,1.346,0.998c0.178,0.123,0.341,0.24,0.506,0.381
			c0.094,0.079,0.103,0.091,0.12,0.105c0.067,0.153,0.207,0.255,0.368,0.312C99.038,125.432,98.971,126.593,99.021,127.762z
			 M99.174,122.369c-0.929-1.166-2.599-2.346-3.214-2.855c-1.375-1.138-2.745-2.279-4.114-3.423c-0.813-0.68-1.914-1.41-2.529-2.288
			c-0.015-0.022-0.038-0.019-0.054-0.037c0.088-0.82,0.174-1.642,0.263-2.461c0.93,0.913,1.99,1.747,2.955,2.591
			c1.347,1.178,2.693,2.356,4.051,3.521c0.9,0.772,1.854,1.787,2.968,2.247C99.375,120.563,99.253,121.464,99.174,122.369z
			 M99.808,117.623c-0.709-0.636-1.53-1.209-2.234-1.782c-1.399-1.142-2.787-2.3-4.176-3.454c-0.703-0.585-2.258-2.263-3.659-3.077
			c0.027-0.259,0.057-0.518,0.083-0.777c0.113-1.119-0.728-1.607-1.593-1.555c-1.136-1.272-2.676-2.364-3.889-3.545
			c-0.731-0.712-1.452-1.435-2.196-2.131c0.556-0.608,1.1-1.228,1.652-1.839c2.91,2.725,5.705,5.573,8.508,8.405
			c2.039,2.061,4.579,5.982,7.422,6.944c0.232,0.079,0.466-0.002,0.649-0.146C100.181,115.652,99.974,116.636,99.808,117.623z
			 M101.793,108.093c-0.426,1.848-0.837,3.703-1.223,5.565c-1.005-2.543-4.396-4.748-6.286-6.531
			c-3.131-2.956-6.318-5.863-9.625-8.625c0.609-0.676,1.217-1.353,1.824-2.03c2.334,2.44,4.842,4.724,7.348,6.982
			c1.886,1.7,4.075,4.36,6.591,5.112c0.707,0.211,1.295-0.748,0.731-1.258c-4.476-4.05-9.408-7.629-13.955-11.635
			c0.725-0.812,1.459-1.614,2.185-2.426c3.243,3.293,6.542,6.545,9.87,9.751c1.014,0.979,2.483,2.812,4.087,3.943
			C102.663,106.906,101.994,107.223,101.793,108.093z M106.554,106.483c-2.086-2.221-5.03-3.858-7.3-5.93
			c-2.997-2.735-5.859-5.7-9.096-8.162c1.225-1.366,2.465-2.721,3.701-4.076c1.602,3.028,4.712,5.75,6.98,8.052
			c3.353,3.405,6.809,6.813,10.461,9.915C109.708,106.274,108.118,106.307,106.554,106.483z M114.143,106.387
			c-0.01-0.229-0.075-0.468-0.3-0.686c-3.505-3.392-7.256-6.533-10.795-9.894c-2.799-2.659-5.363-5.944-8.321-8.449
			c0.865-0.943,1.768-1.851,2.643-2.785c6.823,6.426,11.65,14.171,17.812,21.174c0.649,0.739,1.701-0.036,1.545-0.863
			c0.251,0.618,0.481,1.193,0.686,1.702C116.331,106.483,115.234,106.446,114.143,106.387z"/>
	</g>
</g>
<g>
</g>
<g>
</g>
<g>
</g>
<g>
</g>
<g>
</g>
<g>
</g>
<g>
</g>
<g>
</g>
<g>
</g>
<g>
</g>
<g>
</g>
<g>
</g>
<g>
</g>
<g>
</g>
<g>
</g>
</svg>
