<?xml version="1.0" encoding="iso-8859-1"?>
<!-- Generator: Adobe Illustrator 16.0.0, SVG Export Plug-In . SVG Version: 6.00 Build 0)  -->
<!DOCTYPE svg PUBLIC "-//W3C//DTD SVG 1.1//EN" "http://www.w3.org/Graphics/SVG/1.1/DTD/svg11.dtd">
<svg version="1.1" id="Capa_1" xmlns="http://www.w3.org/2000/svg" xmlns:xlink="http://www.w3.org/1999/xlink" x="0px" y="0px"
	 width="195.271px" height="195.272px" viewBox="0 0 195.271 195.272" style="enable-background:new 0 0 195.271 195.272;"
	 xml:space="preserve">
<g>
	<g>
		<path d="M81.202,13.428C33.939,11.823,0.294,49.748,0.001,95.137c-0.26,40.207,38.377,91.011,82.109,83.328
			c4.263,2.35,9.096,2.796,14.066,2.078c0.751,0.551,1.527,1.007,2.335,1.286c1.113,0.385,1.673-1.044,1.047-1.8
			c-0.037-0.046-0.093-0.075-0.132-0.119c9.804-2.332,19.772-8.524,26.66-13.14c11.128-7.455,19.896-17.489,26.521-28.853
			c1.021,0.124,2.164-1.085,1.457-2.128c-0.052-0.075-0.111-0.143-0.162-0.217c5.153-9.408,8.934-19.62,11.197-30.11
			C175.516,57.209,125.063,14.916,81.202,13.428z M161.829,90.056c-21.687-20.754-48.36-35.211-74.984-48.732
			c0.066-2.21,0.028-4.379-0.096-6.512c5.654,1.813,11.452,6.604,15.738,9.517c8.555,5.813,16.766,12.123,25.027,18.34
			c6.552,4.93,13.495,9.157,20.28,13.761c3.367,2.285,8.596,7.537,13.171,7.815C161.353,86.176,161.662,88.111,161.829,90.056z
			 M155.308,67.94c1.806,3.917,3.399,7.939,4.605,12.1c-11.187-9.706-26.65-16.932-38.554-25.629
			c-5.272-3.851-24.22-20.82-34.842-21.882c-0.146-1.501-0.365-2.971-0.625-4.42c5.908,4.773,14.497,7.946,20.637,11.233
			c16.11,8.626,33.54,16.594,47.631,28.29C154.536,67.946,154.942,68.012,155.308,67.94z M80.661,175.211
			c-40.641,0.795-71.576-35.308-76.292-74.144C-0.462,61.29,25.918,27.854,63.817,19.063c31.399-7.283,61.919,7.116,80.668,31.188
			C128.609,36.877,105.9,29.376,87.822,19.675c-0.639-0.343-1.185,0.59-0.567,0.971c18.476,11.374,37.907,23.504,57.485,32.809
			c0.679,0.323,1.367-0.076,1.643-0.636c2.146,2.963,4.159,6.026,5.938,9.235c-10.1-9.134-24.505-14.87-36.26-21.021
			c-6.509-3.406-13.087-6.679-19.613-10.05c-2.741-1.416-7.588-3.077-11.017-5.134c-0.59-2.534-1.385-4.973-2.488-7.262
			c-0.845-1.753-3.332-0.461-2.981,1.256c4.884,23.9-3.559,47.29-2.801,71.198c-0.457,0.104-0.903,0.168-1.396,0.408
			c-2.812,1.368-4.686,4.063-5.557,7.008c-0.93,3.14-0.315,6.423,1.723,8.96c1.92,2.392,5.029,3.152,8.082,3.224
			c-3.632,21.293,0.464,42.751,1.002,64.161C80.887,174.928,80.757,175.056,80.661,175.211z M73.786,99.443
			c0.453-2.025,1.88-4.105,3.702-5.229c0.13,0.249,0.28,0.432,0.513,0.541c0.007,0.022,0.006,0.043,0.014,0.065
			c0.331,0.95,1.905,1.453,2.402,0.314c0.05-0.114,0.059-0.156,0.078-0.216c0.228,0.028,0.643,0.233,1.047,0.47
			c1.449,0.852,2.695,2.207,3.682,3.548c0.988,1.345,1.902,2.953,1.948,4.657c0.058,2.098-2.499,2.651-4.097,2.956
			C78.03,107.51,72.471,105.324,73.786,99.443z M87.253,176.209c-0.02-0.66-0.422-1.293-1.216-1.214
			c-0.347,0.035-0.686,0.035-1.027,0.041c-0.031-2.295-0.12-4.583-0.22-6.87c1.882,2.235,3.735,4.497,5.721,6.642
			c0.57,0.617,1.182,1.318,1.824,2.039C90.574,176.827,88.857,176.667,87.253,176.209z M95.592,176.674
			c-1.494-1.283-2.935-2.63-4.348-4c-2.265-2.197-4.411-4.512-6.558-6.824c-0.156-3.004-0.361-6.002-0.578-8.998
			c4.18,6.379,9.486,11.895,14.279,17.773c0.306,0.375,0.647,0.859,1.012,1.347C98.113,176.275,96.838,176.529,95.592,176.674z
			 M103.133,174.899c-0.384-0.338-0.949-0.329-1.27,0.097c-0.024-0.02-0.032-0.029-0.059-0.05c-0.614-0.627-1.163-1.338-1.731-2.007
			c-1.523-1.79-3.289-3.321-4.853-5.082c-3.779-4.256-7.316-8.691-10.985-13.036c-0.083-0.098-0.186-0.113-0.285-0.14
			c-0.153-2.04-0.306-4.079-0.461-6.117c4.271,4.063,8.68,7.99,12.871,12.151c2.427,2.409,4.846,4.826,7.245,7.262
			c1.417,1.439,2.86,3.626,4.951,3.901c0.418,0.055,0.903-0.429,0.848-0.847c-0.279-2.111-2.478-3.498-3.918-4.936
			c-2.743-2.736-5.607-5.369-8.468-7.98c-4.096-3.739-8.508-8.455-13.632-10.913c-0.281-3.73-0.523-7.459-0.726-11.191
			c4.351,6.567,11.196,12.139,16.747,17.668c3.221,3.208,6.474,6.385,9.77,9.517c1.973,1.874,4.247,4.588,6.892,5.578
			C111.844,171.27,107.455,173.458,103.133,174.899z M138.899,150.2c-1.593-5.068-7.773-9.3-11.468-12.707
			c-4.47-4.125-9.21-7.888-14.043-11.571c-2.84-2.165-21.754-18.961-25.29-15.879c-0.176,0.154-0.037,0.469,0.19,0.46
			c1.926-0.082,7.522,5.476,8.95,6.54c5.368,4.002,10.638,8.14,15.866,12.322c8.468,6.775,16.725,14.08,23.867,22.258
			c0.136,0.154,0.306,0.186,0.467,0.243c-4.304,4.712-11.563,10.873-19.708,15.917c-0.02-0.088-0.008-0.177-0.052-0.261
			c-1.31-2.525-4.416-4.435-6.505-6.324c-3.374-3.054-6.7-6.156-10.007-9.279c-5.735-5.417-11.299-12.197-17.901-16.562
			c-0.243-0.159-0.514-0.006-0.628,0.22c-0.153-2.896-0.247-5.792-0.303-8.692c7.253,6.144,14.023,12.84,20.892,19.405
			c5.463,5.222,12.994,14.388,20.777,16.114c1.039,0.231,2.129-1.173,1.141-1.958c-7.393-5.866-14.812-11.296-21.788-17.768
			c-6.474-6.007-12.862-12.225-19.945-17.529c-0.022-0.1-0.074-0.192-0.17-0.259c-0.323-0.212-0.629-0.446-0.947-0.664
			c-0.016-3.017,0.077-6.04,0.235-9.066c14.521,14.741,29.357,31.968,47.141,42.727c1.238,0.749,2.684-1.051,1.564-2.027
			c-16.178-14.104-32.478-28.005-48.498-42.324c-0.033-0.03-0.07-0.017-0.104-0.037c0.064-0.985,0.094-1.967,0.183-2.953
			c0.449-0.044,0.893-0.092,1.315-0.152c3.123-0.446,6.335-2.268,6.941-5.59c0.267-1.465,0.022-2.925-0.48-4.314
			c13.579,8.871,26.622,19.047,38.984,29.445c4.591,3.862,9.263,7.393,13.182,11.935c0.39,0.45,0.864,1.036,1.397,1.525
			C142.454,145.756,140.695,148.038,138.899,150.2z M151.311,132.101c-8.321-10.494-19.887-18.481-30.854-25.875
			c-11.935-8.045-25.198-16.947-38.851-21.773c-0.245-0.087-0.476,0.284-0.262,0.45c22.659,17.583,48.911,28.272,68.295,50.101
			c-1.18,1.974-2.403,3.912-3.681,5.788c-1.131-1.304-2.253-2.613-3.374-3.925c-3.809-4.46-9.725-8.771-14.474-12.223
			c-12.786-9.291-25.058-19.166-38.871-26.875c-0.334-0.529-0.678-1.053-1.046-1.53c-1.669-2.161-3.762-4.201-6.376-5.141
			c-0.654-0.235-1.265-0.227-1.821-0.096c0.425-5.458,1.425-11.44,2.535-17.655c6.485,9.787,18.508,16.573,28.064,22.857
			c15.039,9.889,29.186,19.757,42.935,31.352c0.031,0.026,0.072,0.015,0.104,0.037C152.885,129.11,152.132,130.626,151.311,132.101z
			 M154.72,125.37c-7.655-10.77-21.26-18.115-32.125-25.007c-13.821-8.766-26.811-17.943-39.954-27.624
			c0.327-1.822,0.661-3.666,0.993-5.519c22.936,19.507,50.043,33.932,73.378,52.782C156.306,121.81,155.541,123.602,154.72,125.37z
			 M157.976,117.271c-8.295-9.077-20.922-14.212-30.637-21.605c-13.811-10.511-28.166-21.668-43.39-30.22
			c0.413-2.342,0.805-4.699,1.173-7.058c8.996,10.249,21.822,17.263,33.304,24.262c14.568,8.881,28.001,18.17,41.339,28.752
			C159.237,113.374,158.658,115.334,157.976,117.271z M160.502,108.537c-8.651-10.187-21.445-17.155-32.699-23.884
			c-14.698-8.789-28.716-17.601-42.457-27.801c0.235-1.57,0.446-3.139,0.639-4.703c0.249,0.128,0.498,0.256,0.748,0.384
			c0.101,0.051,0.203-0.052,0.152-0.152c1.286,2.506,11.866,5.781,14.518,7.133c7.891,4.022,15.522,8.532,23.012,13.251
			c8.508,5.362,16.476,11.507,23.929,18.25c3.973,3.594,6.829,9.69,11.496,12.102c0.626,0.322,1.223,0.169,1.635-0.194
			C161.214,104.799,160.922,106.674,160.502,108.537z M161.724,100.961c-0.109-0.129-0.239-0.251-0.423-0.348
			c-0.603-0.313-1.196-0.643-1.785-0.98c-0.193-0.923-0.541-1.875-0.978-2.387c-2.536-2.972-5.16-5.742-7.957-8.47
			c-6.281-6.129-13.629-11.231-20.876-16.125c-13.524-9.133-28.316-16.803-43.459-22.91c0.247-2.307,0.414-4.59,0.52-6.852
			c26.318,15.699,53.221,30.093,75.256,51.844C162.019,96.811,161.944,98.888,161.724,100.961z"/>
		<path d="M165.549,22.774c-2.443-2.046-5.367-1.391-7.752,0.146c-0.713-1.181-1.264-2.404-1.553-3.766
			c1.591-0.419,3.196-0.692,4.854-0.912c1.391-0.184,1.399-1.993,0-2.169c-2.454-0.309-4.778-0.289-7.204,0.208
			c-0.697,0.143-1.277,0.92-1.238,1.627c0.183,3.22,1.455,5.718,3.196,8.379c0.633,0.965,1.859,1.117,2.716,0.35
			c4.038-3.616,7.539,0.288,5.295,4.606c-0.861,1.657-2.723,3.356-4.651,3.441c-2.027,0.09-2.271-3.085-2.744-4.395
			c-0.456-1.265-2.372-1.449-2.748,0c-0.869,3.348,1.094,6.803,4.396,7.788c3.89,1.161,7.632-2.835,9.197-5.862
			C168.927,29.088,168.251,25.038,165.549,22.774z"/>
		<path d="M173.778,16.669c0.22-0.535-0.295-1.142-0.868-0.98c-1.213,0.345-2.117,1.231-2.822,2.353
			c-0.008,0.006-0.015,0.008-0.022,0.014c-0.479,0.363-0.665,0.842-0.677,1.309c-1.088,2.558-1.383,5.802-1.291,7.841
			c0.225,4.915,3.411,8.293,8.443,7.281C185.977,32.589,181.236,16.523,173.778,16.669z M174.338,31.527
			c-3.146,0.112-3.402-4.496-3.344-6.652c0.04-1.507,0.32-2.865,0.777-4.159C178.125,17.594,181.665,31.269,174.338,31.527z"/>
		<path d="M183.616,16.68c-0.25,0.002-0.5,0.005-0.751,0.008c-2.542,0.027-2.542,3.916,0,3.943c0.251,0.003,0.501,0.005,0.751,0.008
			C186.169,20.666,186.169,16.652,183.616,16.68z"/>
		<path d="M192.512,16.814c-4.852-2.992-8.724,15.295-9.32,18.033c-0.279,1.283,1.639,2.26,2.228,0.94
			c1.287-2.884,2.157-5.941,3.219-8.911c0.631-1.764,1.312-3.509,2.116-5.202c0.316-0.665,0.669-1.33,1.138-1.901
			c0.339-0.413,1.062-0.869,0.316-0.643C193.267,18.81,193.455,17.396,192.512,16.814z"/>
		<path d="M193.374,29.457l-0.197-0.092c-1.819-1.513-4.193,0.802-2.608,2.609c0.818,0.934,1.563,1.334,2.806,1.41
			C195.89,33.536,195.919,29.436,193.374,29.457z"/>
	</g>
</g>
<g>
</g>
<g>
</g>
<g>
</g>
<g>
</g>
<g>
</g>
<g>
</g>
<g>
</g>
<g>
</g>
<g>
</g>
<g>
</g>
<g>
</g>
<g>
</g>
<g>
</g>
<g>
</g>
<g>
</g>
</svg>
