<?xml version="1.0" encoding="iso-8859-1"?>
<!-- Generator: Adobe Illustrator 16.0.0, SVG Export Plug-In . SVG Version: 6.00 Build 0)  -->
<!DOCTYPE svg PUBLIC "-//W3C//DTD SVG 1.1//EN" "http://www.w3.org/Graphics/SVG/1.1/DTD/svg11.dtd">
<svg version="1.1" id="Capa_1" xmlns="http://www.w3.org/2000/svg" xmlns:xlink="http://www.w3.org/1999/xlink" x="0px" y="0px"
	 width="188.886px" height="188.886px" viewBox="0 0 188.886 188.886" style="enable-background:new 0 0 188.886 188.886;"
	 xml:space="preserve">
<g>
	<g>
		<path d="M173.66,44.191c-11.836-18.468-29.907-30.687-50.161-37.149c-0.099-0.166-0.216-0.319-0.313-0.487
			c-0.367-0.63-1.05-0.482-1.412-0.06c-9.241-2.782-18.904-4.391-28.624-4.841c-0.424-0.508-0.888-0.972-1.305-1.488
			c-0.375-0.464-1.146,0.142-0.822,0.634c0.182,0.277,0.391,0.532,0.576,0.807c-3.498-0.118-7-0.132-10.488,0.044
			c-0.278-0.318-0.684-0.223-0.87,0.056c-4.024,0.232-8.034,0.607-11.991,1.227C26.844,9.428,4.891,51.661,1.051,89.356
			c-4.275,41.971,16.038,77.116,55.501,91.974c38.213,14.388,89.625,9.526,114.282-25.877c0.249-0.356,0.313-0.701,0.309-1.031
			c0.809-0.833,1.015-2.335-0.282-3.055c-29.146-16.16-57.983-29.63-81.483-53.779c0.326,0.001,0.654-0.115,0.925-0.393
			c12.614-12.871,29.888-18.206,44.815-27.72c11.592-7.39,22.464-18.883,35.93-22.729c0.028-0.008,0.031-0.033,0.058-0.041
			C172.587,47.528,174.78,45.938,173.66,44.191z M63.602,8.009c1.048-0.343,2.133-0.58,3.199-0.875
			c8.939,10.765,18.076,21.909,27.755,32.521C84.244,28.351,73.517,17.535,60.365,9.267C61.449,8.852,62.486,8.375,63.602,8.009z
			 M10.406,131.496c9.223,14.987,23.411,27.495,34.76,40.731C28.259,163.11,16.726,148.797,10.406,131.496z M62.993,179.354
			c-4.721-1.284-9.125-2.911-13.263-4.806c-9.793-20.502-31.711-32.46-42.271-52.839c-0.776-3.213-1.351-6.522-1.819-9.875
			c17.016,24.955,39.674,46.539,60.517,68.3C65.103,179.873,64.033,179.637,62.993,179.354z M69.854,181.049
			c-18.257-26.525-45.201-46.227-64.619-72.073c-0.382-3.42-0.554-6.919-0.613-10.455c0.053,0.249,0.227,0.463,0.529,0.425
			c4.105-0.522,14.383,14.697,16.605,17.282c8.32,9.677,16.444,19.525,24.695,29.262c8.899,10.502,20.774,29.21,34.001,37.483
			C76.88,182.444,73.332,181.822,69.854,181.049z M87.161,183.797c-18.26-14.782-33.034-33.638-48.261-51.439
			c-4.441-5.191-25.468-36.618-33.902-34.545c-0.262,0.064-0.366,0.297-0.379,0.532c-0.016-1.036-0.07-2.06-0.057-3.104
			c0.032-2.559,0.172-5.109,0.387-7.648c9.624,6.557,16.901,16.665,24.441,25.383c12.576,14.54,25.807,28.369,37.999,43.288
			c4.954,6.062,20.658,27.854,29.121,27.348c1.214-0.072,1.469-1.741,0.286-2.116c-5.154-1.639-11.275-10.327-14.969-14.017
			c-7.757-7.749-14.498-16.111-21.507-24.534c-10.788-12.966-22.791-24.722-33.923-37.35c-6.012-6.82-12.375-15.528-20.886-19.35
			c-0.147-0.066-0.275-0.041-0.404-0.027c0.369-3.77,0.978-7.494,1.743-11.173C25,93.404,42.816,112.017,59.986,131.303
			c8.486,9.531,16.557,19.427,25.201,28.812c6.143,6.67,18.887,15.443,22.409,24.061C100.826,184.609,93.963,184.471,87.161,183.797
			z M120.759,182.512c-3.589,0.699-7.232,1.217-10.919,1.529c0.003-0.028,0.026-0.039,0.027-0.068
			c0.192-3.529-2.962-5.462-5.336-7.832c-9.385-9.368-18.449-19.213-27.033-29.321C55.597,121.028,32.271,96.249,7.13,73.588
			c0.576-2.584,1.285-5.123,2.054-7.64c19.37,19.401,37.379,39.989,55.616,60.443c17.093,19.171,35.184,42.381,57.491,54.389
			C121.197,180.189,119.947,181.604,120.759,182.512z M124.329,181.741c-41.182-36.05-74.268-79.838-114.39-116.935
			c-0.113-0.104-0.235-0.113-0.356-0.132c0.817-2.552,1.761-5.05,2.774-7.514c40.674,39.745,76.099,84.584,118.21,122.867
			C128.516,180.675,126.434,181.244,124.329,181.741z M133.619,178.932c-0.61-0.489-1.22-0.977-1.83-1.466
			c-1.074-0.86-2.363,0.429-1.502,1.502c-16.119-20.111-36.497-39.451-54.474-59.137C55.584,97.68,35.353,75.498,13.092,55.354
			c0.947-2.178,2.027-4.281,3.127-6.373c45.998,37.215,75.309,93.254,123.684,127.345
			C137.843,177.274,135.757,178.164,133.619,178.932z M142.681,175.003c-0.77-0.603-1.539-1.203-2.309-1.806
			c-1.015-0.794-2.199,0.391-1.405,1.406c-18.253-23.348-41.567-43.407-60.979-65.978C59.13,86.7,40.501,64.513,16.959,47.473
			c1.527-2.782,3.238-5.442,5.037-8.038c1.469,8.908,9.193,16.102,15.225,22.278c12.738,13.045,26.951,24.376,39.617,37.586
			c17.674,18.434,35.917,36.323,53.928,54.426c2.684,2.698,11.681,15.643,17.514,18.013
			C146.449,172.894,144.602,174.021,142.681,175.003z M167.251,153.812c-1.253,1.777-2.597,3.417-3.979,4.997
			c-1.025-2.53-3.873-5.128-5.341-6.715c-2.113-2.284-4.353-4.45-6.599-6.611C156.734,148.247,162.092,150.99,167.251,153.812z
			 M146.277,142.881c2.657,3.175,5.598,6.14,8.397,9.182c1.674,1.817,3.268,3.701,4.705,5.71c0.734,1.026,1.19,2.174,1.938,3.119
			c-1.1,1.151-2.188,2.316-3.346,3.375c-6.051-4.384-10.488-11.533-15.482-16.982c-4.413-4.814-9.175-9.329-13.916-13.857
			C134.391,136.735,140.344,139.835,146.277,142.881z M121.704,129.352c6.437,7.705,13.951,14.446,20.663,21.913
			c4.095,4.556,7.914,11.742,13.538,14.854c-1.657,1.396-3.354,2.726-5.111,3.947c-0.024-0.007-0.032-0.032-0.059-0.037
			c-5.922-1.151-19.444-20.188-23.255-24.035c-14.365-14.5-28.977-28.762-43.176-43.424c-9.707-10.022-19.157-20.153-29.825-29.16
			c-10.526-8.887-28.577-21.211-31.131-35.83c0.801-1.094,1.665-2.138,2.515-3.193c6.607,12.267,18.442,20.702,29.099,29.304
			c11.773,9.503,21.03,22.854,33.834,30.909c-0.224,0.307-0.47,0.589-0.685,0.905c-0.141,0.206-0.192,0.413-0.207,0.616
			c-0.87-0.836-2.414,0.326-1.708,1.37C95.252,110.896,107.879,120.862,121.704,129.352z M90.239,92.694
			C79.56,83.824,70.633,73.165,60.074,64.15c-5.076-4.333-10.469-8.312-15.658-12.509c-3.108-2.514-6.023-5.211-8.906-7.976
			c-1.592-1.526-8.179-10.683-6.693-9.914c0.164,0.085,0.307-0.155,0.145-0.249c-0.537-0.346-1.124-0.599-1.686-0.898
			c0.873-1.028,1.794-2.014,2.715-3c5.483,11.922,16.107,21.26,25.629,29.873C67.525,70.246,79.359,81.093,92.3,90.596
			C91.617,91.3,90.872,91.935,90.239,92.694z M94.069,88.794c-11.509-9.214-22.414-19-33.616-28.593
			c-10.886-9.322-22.3-19.11-29.447-31.707c1.451-1.5,2.979-2.925,4.543-4.315c0.38,0.309,0.761,0.618,1.141,0.928
			c0.16,0.13,0.355-0.065,0.225-0.225c16.949,20.852,38.929,44.623,61.544,60.346C96.93,86.345,95.457,87.521,94.069,88.794z
			 M100.118,84.111c-0.023-0.032-0.011-0.072-0.04-0.102c-9.42-10.145-20.444-19.06-30.509-28.583
			C58.426,44.883,47.755,33.711,36.207,23.607c1.835-1.595,3.757-3.099,5.74-4.533c8.851,13.838,22.266,24.3,34.663,34.805
			c6.175,5.232,12.291,10.478,17.447,16.73c2.64,3.202,5.859,8.348,9.803,10.02c0.887,0.376,2.278-0.508,1.525-1.526
			c-17.437-23.571-43.962-37.978-61.898-61.07c1.446-0.996,2.933-1.943,4.451-2.852c26.168,14.434,42.512,38.745,61.445,60.962
			c0.827,0.971,2.477-0.307,1.765-1.361C95.75,52.004,74.974,26.207,49.412,14.354c2.815-1.605,5.795-2.997,8.858-4.274
			c16.155,10.452,28.898,24.774,41.634,39.063c5.668,6.359,13.415,19.083,21.493,22.224c1.044,0.406,1.817-1.108,1.062-1.826
			c-9.7-9.224-18.392-19.429-27.367-29.296c9.873,10.781,20.315,20.986,31.699,29.637C117.991,74.63,108.301,78.533,100.118,84.111z
			 M128.653,68.824c0.007-0.289-0.095-0.576-0.358-0.802c-21.841-18.73-39.532-41.168-59.889-61.327
			c1.263-0.32,2.557-0.534,3.84-0.789c4.023,7.52,13.693,13.754,19.66,19.57c13.602,13.257,25.072,28.447,39.009,41.364
			c0.155,0.144,0.318,0.228,0.483,0.28C130.473,67.679,129.601,68.289,128.653,68.824z M135.251,64.728
			c-0.746,0.526-1.578,0.967-2.355,1.462c0.07-0.335,0.011-0.702-0.296-1.034c-11.804-12.734-23.405-25.776-35.687-38.057
			c-7.5-7.5-16.059-13.905-23.508-21.431c2.7-0.494,5.447-0.8,8.211-1.02c7.318,12.35,19.988,21.047,30.865,29.995
			c4.984,4.101,9.647,8.469,14.11,13.127c1.754,1.831,10.86,9.329,10.743,11.754c-0.044,0.917,1.225,1.185,1.668,0.452
			c2.414-3.991-12.202-15.996-14.873-18.684c-13.02-13.102-29.395-22.054-40.757-36.75c3.42-0.202,6.878-0.161,10.342,0.029
			c10.074,13.719,23.607,24.56,35.627,36.505c2.21,2.196,12.167,16.23,16.021,12.634c0.647-0.605-0.022-1.921-0.908-1.56
			c-1.838,0.75-18.938-18.547-20.73-20.214c-9.581-8.904-19.288-17.483-27.927-27.26c3.784,0.291,7.572,0.823,11.336,1.551
			c3.745,7.882,13.025,14.868,18.959,20.938c4.838,4.949,9.681,9.892,14.438,14.918c1.038,1.097,7.662,6.717,7.607,8.088
			c-0.032,0.856,1.248,1.23,1.641,0.445c2.113-4.235-13.188-16.286-15.564-18.661c-8.247-8.242-18.292-16.167-25.554-25.403
			c5.098,1.065,10.114,2.589,15.022,4.391c4.137,6.846,9.339,13.046,14.593,19.038c5.402,6.162,11.166,13.666,17.788,18.593
			C148.218,53.636,140.393,61.101,135.251,64.728z M161.126,45.715c0.226-0.276,0.353-0.658,0.19-1.038
			c-1.71-4.023-5.293-7.522-8.103-10.814c-3.762-4.409-7.581-8.704-10.901-13.468c-0.409-0.587-1.375-0.039-0.971,0.567
			c2.633,3.934,5.474,7.741,8.39,11.469c3.385,4.329,6.379,9.379,10.154,13.349c0.173,0.181,0.357,0.243,0.537,0.263
			c-0.878,0.447-1.761,0.933-2.646,1.461c-4.029-6.48-10.924-11.835-16.116-17.408c-5.333-5.725-10.506-11.614-14.939-18.048
			c16.854,6.761,31.897,17.672,41.789,31.406C166.175,43.636,163.678,44.485,161.126,45.715z"/>
		<path d="M181.022,60.583c-0.266-0.904-0.619-1.782-1.055-2.663c-0.517-1.044-1.092-2.36-2.139-2.952
			c-0.102-0.635-0.601-1.208-1.471-1.308c-10.016-1.152-23.61,12.459-31.122,17.783c-6.117,4.336-12.337,7.891-19.091,11.171
			c-7.495,3.64-18.351,6.453-23.645,13.115c-0.103,0.129-0.151,0.269-0.168,0.403c-1.678-0.116-2.207,2.375-0.479,3.011
			c25.978,9.566,48.617,23.188,72.992,35.831c1.125,0.583,2.449-0.442,2.435-1.477C188.864,128.979,193.394,75.766,181.022,60.583z
			 M174.83,130.985c-0.031,0.018-0.031,0.05-0.06,0.068c-20.076-15.213-46.359-27.654-70.543-34.433
			c12.436-2.49,27.711-11.621,38.111-18.472c10.168-6.698,19.493-14.349,30.414-19.63c0.098,0.325,0.305,0.642,0.665,0.902
			c10.973,7.921,10.281,24.039,9.887,36.328C183.068,103.154,182.921,126.521,174.83,130.985z"/>
	</g>
</g>
<g>
</g>
<g>
</g>
<g>
</g>
<g>
</g>
<g>
</g>
<g>
</g>
<g>
</g>
<g>
</g>
<g>
</g>
<g>
</g>
<g>
</g>
<g>
</g>
<g>
</g>
<g>
</g>
<g>
</g>
</svg>
