<?xml version="1.0" encoding="iso-8859-1"?>
<!-- Generator: Adobe Illustrator 16.0.0, SVG Export Plug-In . SVG Version: 6.00 Build 0)  -->
<!DOCTYPE svg PUBLIC "-//W3C//DTD SVG 1.1//EN" "http://www.w3.org/Graphics/SVG/1.1/DTD/svg11.dtd">
<svg version="1.1" id="Capa_1" xmlns="http://www.w3.org/2000/svg" xmlns:xlink="http://www.w3.org/1999/xlink" x="0px" y="0px"
	 width="192.27px" height="192.27px" viewBox="0 0 192.27 192.27" style="enable-background:new 0 0 192.27 192.27;"
	 xml:space="preserve">
<g>
	<g>
		<path d="M175.338,36.855c-0.063-0.66-0.443-1.291-1.247-1.556c-20.754-6.854-44.373-2.824-65.648-0.88
			c-30.354,2.773-60.659,2.282-91.087,2.46c-0.001-2.134-3.396-2.059-3.618,0.181c-3.175,31.98-8.759,65.482-1.689,97.29
			c0.148,0.67,0.576,0.983,1.055,1.057c0.212,0.328,0.558,0.578,1.079,0.595c27.704,0.933,55.425-1.334,83.148-0.892
			c13.732,0.22,27.496-0.586,41.229-0.689c10.562-0.079,23.402-3.301,33.467,1.059c1.281,0.556,2.474-0.385,2.673-1.416
			c0.524,0.174,1.222-0.186,1.158-0.797c-1.586-15.223-1.106-29.742-1.091-45.082c0.016-13.709-3.73-36.364,2.296-48.933
			C177.685,37.953,176.521,36.606,175.338,36.855z M117.945,131.076c-34.358,0.824-68.683,0.609-103.036,2.174
			c-4.319-31.305-0.805-62.024,2.183-93.237c28.726,1.439,57.601,0.708,86.27-1.456c22.667-1.711,47.592-6.801,69.759,0.264
			c0.113,0.036,0.207,0.019,0.312,0.034c-1.866,3.607-1.401,9.52-1.619,12.923c-0.718,11.307-0.698,22.681-0.739,34.007
			c-0.035,9.487-5.65,36.551,1.176,45.98C157.264,125.521,133.375,130.706,117.945,131.076z"/>
		<path d="M189.575,25.575c0.482-0.946,0.274-2.287-1.047-2.666c-8.357-2.396-16.813-1.467-25.404-0.918
			c-16.422,1.051-33.173-0.102-49.646,0.117c-36.019,0.479-72.251-0.465-108.229,1.148c-0.044,0.002-0.074,0.023-0.116,0.028
			c-0.66-1.128-2.643-0.894-2.736,0.72c-2.316,40.012-3.13,80.889-1.657,120.942c0.024,0.651,0.343,1.094,0.765,1.372
			c0.033,0.927,0.629,1.863,1.683,1.742c25.271-2.924,50.857-2.621,76.401-1.646c-1.868,6.928-4.377,13.622-6.999,20.29
			c-7.096-0.02-14.196,0.023-21.3,0.264c-1.731,0.06-1.726,2.609,0,2.682c6.846,0.291,13.72,0.564,20.606,0.789
			c0.396,0.311,0.925,0.36,1.333,0.047c23.407,0.736,46.954,0.781,70.142-1.774c2.248-0.248,2.28-3.792,0-3.551
			c-7.265,0.767-14.527,1.19-21.79,1.438c-1.146-3.77-2.055-7.594-2.923-11.438c-0.482-2.136-0.814-4.97-1.852-7.165
			c2.678,0.107,5.362,0.234,8.034,0.328c7.209,0.25,52.745,5.84,61.188-1.219c0.282-0.112,0.506-0.34,0.652-0.676
			c0.273-0.351,0.498-0.717,0.608-1.119c0.112-0.412-0.005-0.754-0.199-1.047c3.639-22.199,2.167-44.473,3.077-66.869
			C190.836,60.901,194.876,41.612,189.575,25.575z M115.741,157.327c0.836,3.18,1.798,6.312,2.969,9.374
			c-14.481,0.396-28.963,0.082-43.458,0.007c3.128-6.498,5.816-13.181,7.713-20.153c10.106,0.407,20.192,0.871,30.257,1.293
			C113.416,150.921,114.979,154.436,115.741,157.327z M186.771,71.955c-1.446,24.35,0.292,48.574-2.975,72.84
			c-6.049,3.072-23.521,0.637-28.709,0.594c-13.909-0.117-27.816-0.664-41.716-1.162c-36.15-1.297-73.137-4.479-109.114,0.246
			C3.502,105.094,7.175,65.439,5.422,26.131c30.705,1.366,61.67,0.361,92.395-0.132c15.754-0.253,31.516-0.518,47.271-0.385
			c13.152,0.111,28.772-2.697,41.604,0.672C188.438,41.597,187.686,56.576,186.771,71.955z"/>
		<path d="M127.189,62.173c-0.351-0.384-0.77-0.473-1.159-0.4c-5.46-7.747-14.937-13.704-25.265-14.871
			C88.551,45.522,51.644,57.82,62.863,74.75c-0.146,0.133-0.309,0.25-0.371,0.469c-0.662,2.336-0.813,4.877-0.89,7.293
			c-0.037,1.17-0.1,2.731,0.644,3.729c-0.091,0.049-0.188,0.094-0.27,0.15c-0.543-0.217-1.336,0.164-1.284,0.831
			c0.06,0.779,0.229,1.473,0.365,2.193c-0.578-0.063-1.196,0.188-1.313,0.827c-0.482,2.628-0.405,5.402-0.415,8.061
			c-0.01,2.5-0.067,5.237,0.344,7.769c-0.584,0.384-0.882,1.321-0.3,1.931c8.566,8.947,23.257,10.667,35.069,11.189
			c8.642,0.384,11.301-5.166,11.446-12.62c0.171-0.229,0.296-0.495,0.321-0.775c0.836,0.037,1.535-0.933,1.389-1.762
			c-0.873-4.94-7.262-9.642-10.458-13.207c-1.722-1.92-3.441-4.918-5.532-7.222c1.378-0.115,2.802-0.36,3.791-0.985
			c0.072,0.069,0.174,0.092,0.256,0.149c0.025,0.069-0.012,0.137,0.031,0.204c6.107,9.471,14.49,16.821,22.44,24.685
			c1.14,1.128,2.721,0.137,2.859-1.078C137.038,97.857,139.711,75.877,127.189,62.173z M131.074,85.017
			c-0.556-0.64-1.099-1.286-1.655-1.925c0.54-1.31,0.931-2.637,1.155-3.973C130.941,81.114,131.094,83.082,131.074,85.017z
			 M63.077,107.609c0.114-0.227,0.189-0.479,0.159-0.788c-0.155-1.642-0.205-3.316-0.264-4.988c0.84,2.487,1.795,4.935,2.827,7.342
			C64.874,108.688,63.964,108.171,63.077,107.609z M68.548,110.493c-1.656-4.938-4.087-9.579-5.869-14.476
			c-0.036-0.623-0.039-1.251-0.093-1.87c1.372,2.691,3.429,4.802,5.9,6.5c0.77,2.556,2.05,5,3.393,7.265
			c0.875,1.476,1.784,3.244,2.851,4.774C72.623,112.068,70.545,111.373,68.548,110.493z M77.221,113.367
			c-0.567-1.971-2.349-3.934-3.434-5.557c-1.303-1.951-2.461-3.953-3.494-6.025c1.868,1.049,3.957,1.854,6.13,2.537
			c0.77,2.658,1.963,5.244,3.202,7.703c0.261,0.52,0.6,1.3,1.008,2.047C79.494,113.848,78.348,113.646,77.221,113.367z
			 M83.151,114.574c-0.273-0.295-0.602-0.997-0.759-1.227c-0.695-1.02-1.311-2.096-1.92-3.168c-1-1.758-1.86-3.574-2.698-5.41
			c1.209,0.336,2.485,0.543,3.741,0.791c0.677,1.927,1.46,3.806,2.394,5.631c0.625,1.225,1.36,2.602,2.268,3.783
			C85.168,114.846,84.158,114.74,83.151,114.574z M88.844,115.324c-1.071-1.707-2.44-3.23-3.479-4.984
			c-0.842-1.42-1.555-2.918-2.223-4.435c1.136,0.192,2.286,0.321,3.432,0.462c1.152,1.727,2.092,3.58,3.013,5.438
			c0.592,1.194,1.147,2.869,2.161,3.851C90.737,115.543,89.747,115.419,88.844,115.324z M93.094,115.781
			c0.107-0.176,0.179-0.375,0.145-0.582c-0.229-1.432-1.516-2.973-2.208-4.238c-0.815-1.49-1.676-2.954-2.627-4.357
			c0.992,0.099,1.976,0.17,2.958,0.237c1.099,1.556,2.126,3.156,3.151,4.761c0.837,1.31,1.576,2.907,2.725,3.986
			C95.927,115.832,94.528,115.895,93.094,115.781z M98.682,115.264c-0.006-0.02,0.007-0.031-0.001-0.049
			c-0.632-1.613-1.942-2.917-2.932-4.336c-0.926-1.328-1.868-2.642-2.836-3.938c1.317,0.072,2.588,0.107,3.852,0.142
			c1.357,2.279,2.379,4.748,3.792,6.966C100.06,114.534,99.458,114.956,98.682,115.264z M101.641,112.516
			c-0.85-1.888-2.007-3.703-3.258-5.388c1.434,0.024,2.833,0.033,4.132,0.025C102.528,109.029,102.394,110.948,101.641,112.516z
			 M95.981,95.041c2.404,2.703,4.729,5.969,7.386,8.59c-0.008,0.004-0.016,0.01-0.024,0.014c-3.936-1.129-9.649-0.233-12.997-0.387
			c-10.95-0.501-21.099-4.461-26.638-14.079c6.959-1.537,13.889-5.137,21.041-5.472C88.892,83.514,93.671,92.445,95.981,95.041z
			 M82.055,80.208c-0.855,0.078-1.723,0.188-2.61,0.354c-0.995-1.396-2.448-2.625-3.811-3.775c0.963-0.177,1.92-0.387,2.881-0.576
			C79.637,77.471,80.799,78.919,82.055,80.208z M80.148,75.886c0.976-0.197,1.951-0.394,2.926-0.593
			c0.014,0.017,0.004,0.037,0.02,0.054c1.752,1.894,3.66,4.232,5.824,5.896c-0.021,0.009-0.045,0.013-0.066,0.022
			c-0.486-0.286-0.991-0.52-1.521-0.681c-0.831-0.254-1.731-0.366-2.658-0.42C83.385,78.599,81.695,77.21,80.148,75.886z
			 M77.345,80.979c-1.159,0.29-2.329,0.631-3.491,1.007c-0.502-1.027-1.961-1.889-2.737-2.717c-0.411-0.438-0.785-0.913-1.172-1.377
			c1.363-0.195,2.687-0.491,3.926-0.748C74.953,78.369,76.08,79.824,77.345,80.979z M69.978,80.406
			c0.463,0.596,1.177,1.612,1.988,2.222c-1.005,0.352-2.001,0.712-2.968,1.077c-0.004-0.022,0.009-0.041,0.002-0.063
			c-0.63-2.031-2.543-3.522-3.373-5.514c-0.16-0.383-0.556-0.465-0.858-0.354c0.003-0.056,0.001-0.113,0.004-0.169
			c1.053,0.409,2.255,0.458,3.486,0.401C68.798,78.827,69.372,79.626,69.978,80.406z M67.984,84.085
			c-1.075,0.409-2.122,0.81-3.104,1.177c-0.2-1.99-0.21-4.018-0.147-6.044C65.402,80.972,66.504,83.081,67.984,84.085z
			 M91.114,80.576c-0.994-0.933-2.117-1.759-3.139-2.654c-1.102-0.965-2.171-1.969-3.246-2.965c1.188-0.242,2.384-0.438,3.572-0.673
			c0.016,0.104-0.014,0.206,0.056,0.307c1.159,1.655,2.389,3.248,3.699,4.786c0.22,0.258,0.46,0.554,0.714,0.855
			C92.228,80.337,91.675,80.443,91.114,80.576z M95.322,76.838c-0.068,0.88-0.196,1.779-0.3,2.676
			c-0.562-0.497-1.145-0.979-1.615-1.486c-1.201-1.294-2.293-2.689-3.401-4.064c0.971-0.186,1.944-0.361,2.915-0.548
			c0.898,1.006,1.743,1.993,2.347,3.216c0.015,0.031,0.047,0.025,0.064,0.052C95.327,76.735,95.326,76.787,95.322,76.838z
			 M98.11,82.424c0.104-0.165,0.235-0.3,0.281-0.528c0.354-1.755,0.315-3.659,0.354-5.44c0.003-0.11-0.003-0.248-0.001-0.363
			c0.311,1.812,0.678,3.613,1.121,5.404c0.334,1.347,0.673,2.835,1.14,4.269C100.032,84.66,99.035,83.574,98.11,82.424z
			 M109.411,94.499c-1.366-5.515-3.895-11.294-6.214-16.424c-0.203-0.448-0.916-0.127-0.782,0.329
			c1.254,4.246,2.461,8.957,4.154,13.249c-0.786-0.796-1.602-1.565-2.372-2.375c0.004-0.064,0.039-0.123,0.023-0.188
			c-0.629-2.708-2.035-5.329-2.899-7.994c-0.896-2.758-1.596-5.585-2.184-8.423c-0.038-0.181-0.18-0.257-0.335-0.286
			c0.186-0.038,0.36-0.091,0.514-0.17c1.364,3.655,4.675,6.445,7.446,9.291c0.583,0.598,1.173,1.261,1.763,1.913
			c0.599,3.513,1.798,6.811,3.024,10.148c0.523,1.421,0.987,2.939,1.487,4.447C111.827,96.846,110.614,95.678,109.411,94.499z
			 M116.36,101.242c-0.457-2.413-1.655-4.795-2.54-7.003c-1.152-2.873-2.293-5.751-3.341-8.664c2.237,2.507,4.565,5.04,7.143,6.801
			c-0.084,0.542,0.07,1.102,0.371,1.531c-0.197,0.626-0.234,1.299-0.227,1.981c-0.934-2.041-2.073-4.001-3.605-5.567
			c-0.436-0.444-1.086,0.22-0.676,0.676c2.293,2.553,3.239,5.822,4.636,8.879c0.087,1.084,0.156,2.167,0.182,3.251
			C117.656,102.499,117.008,101.87,116.36,101.242z M119.676,90.13c-0.586-1.144-1.599-2.039-2.493-2.963
			c-2.255-2.33-4.55-4.627-6.872-6.89c-0.966-0.941-8.401-8.805-10.252-8.811c0.562-1.037,0.168-2.516-1.354-2.423
			c-5.986,0.367-11.912,1.933-17.758,3.178c-4.321,0.92-9.021,1.379-13.399,2.355c-0.289-0.469-0.858-0.22-0.936,0.213
			c-0.359,0.088-0.734,0.151-1.088,0.248C58.918,58.696,85.576,51.287,97.53,50.5C118.238,49.134,138.525,74.801,119.676,90.13z
			 M120.716,103.8c0.133-1.112,0.291-2.22,0.302-3.347c0.019-2.004,0.303-4.541-0.348-6.479c0.067-0.05,0.124-0.103,0.19-0.154
			c0.334,0.766,0.719,1.512,1.144,2.254c0.678,1.185,1.35,2.595,2.499,3.37c0.487,0.327,1.02-0.21,0.916-0.704
			c-0.234-1.109-1.057-1.955-1.688-2.881c-0.648-0.951-1.199-1.958-1.684-2.996c0.601-0.498,1.062-1.027,1.595-1.54
			c0.568,0.937,1.119,1.883,1.701,2.812c0.662,1.057,1.304,2.163,2.02,3.206C125.739,99.699,123.604,101.891,120.716,103.8z
			 M128.467,95.682c-0.539-0.814-1.145-1.595-1.7-2.38c-0.702-0.993-1.375-2.004-2.061-3.007c0.547-0.582,0.999-1.182,1.47-1.778
			c0.591,1.099,1.19,2.196,1.757,3.301c0.273,0.532,0.672,1.539,1.22,2.256C128.914,94.606,128.754,95.163,128.467,95.682z
			 M128.89,90.191c-0.561-0.97-1.12-1.991-1.718-2.981c0.568-0.823,1.046-1.661,1.481-2.504c0.706,1.004,1.445,1.982,2.252,2.878
			c-0.17,1.531-0.433,3.042-0.905,4.496C129.627,91.452,129.256,90.823,128.89,90.191z"/>
	</g>
</g>
<g>
</g>
<g>
</g>
<g>
</g>
<g>
</g>
<g>
</g>
<g>
</g>
<g>
</g>
<g>
</g>
<g>
</g>
<g>
</g>
<g>
</g>
<g>
</g>
<g>
</g>
<g>
</g>
<g>
</g>
</svg>
