<?xml version="1.0" encoding="iso-8859-1"?>
<!-- Generator: Adobe Illustrator 16.0.0, SVG Export Plug-In . SVG Version: 6.00 Build 0)  -->
<!DOCTYPE svg PUBLIC "-//W3C//DTD SVG 1.1//EN" "http://www.w3.org/Graphics/SVG/1.1/DTD/svg11.dtd">
<svg version="1.1" id="Capa_1" xmlns="http://www.w3.org/2000/svg" xmlns:xlink="http://www.w3.org/1999/xlink" x="0px" y="0px"
	 width="187.837px" height="187.836px" viewBox="0 0 187.837 187.836" style="enable-background:new 0 0 187.837 187.836;"
	 xml:space="preserve">
<g>
	<g>
		<path d="M144.883,143.397c-0.029-0.026-0.023-0.062-0.058-0.088c-10.429-7.715-20.334-15.656-29.507-24.854
			c-8.952-8.977-15.765-19.254-23.738-28.966c-0.09-0.109-0.188-0.166-0.283-0.24c7.031-8.891,14.048-17.81,21.229-26.633
			c9.178-11.276,9.241-23.932,5.236-37.305c-0.368-1.23-1.576-1.477-2.495-1.099c-0.358-0.112-0.734-0.134-1.076,0.082
			c-0.092-0.03-0.142-0.11-0.254-0.11c-0.811,0-1.024,0.835-0.731,1.381c-4.76,7.72-11.792,14.247-17.777,20.992
			C85.747,57.463,77.67,70.602,69.66,82.755c-1.293,1.961,1.822,3.737,3.125,1.826c8.87-13.009,17.439-26.755,27.946-38.524
			c4.854-5.438,10.441-10.936,14.152-17.34c0.836,3.351,1.251,6.454,1.311,9.377c-7.35,3.955-12.096,12.778-17.671,18.654
			c-9.455,9.966-20.083,19.041-25.736,31.848c-0.938-1.297-1.483-2.295-1.263-2.685c0.137-0.243-0.094-0.633-0.394-0.512
			c-5.399,2.162,7.609,14.944,9.094,16.611c5.955,6.685,12.41,12.993,18.586,19.472c3.374,3.539,6.831,6.999,10.273,10.473
			c-0.092,0.107-0.197,0.202-0.289,0.311c-0.374,0.451,0.187,1.002,0.638,0.638c0.107-0.087,0.212-0.18,0.319-0.267
			c1.041,1.051,2.066,2.115,3.106,3.165c2.97,3.002,14.812,11.276,9.796,14.486c-0.847,0.542-0.975,1.422-0.716,2.164
			c-32.153,7.729-59.477,15.245-88.669-7.769c-9.151-7.213-16.011-16.528-20.78-26.88c0.261-0.44,0.062-1.025-0.451-1.053
			c-5.741-12.922-8.295-27.373-7.976-41.35c1.165-51.208,69.125-85.546,108.584-51.76c1.777,1.522,4.372-1.054,2.579-2.579
			C74.323-13.747,14.092,17.576,1.926,65.421C-0.46,74.805-0.515,84.49,1.133,93.972c-2.35,13.413,4.443,30.828,9.551,42.208
			c7.269,16.194,23.799,29.278,40.221,36.698c-0.003,0.003-0.006,0.006-0.008,0.009c-0.411,0.479,0.209,1.094,0.689,0.689
			c0.105-0.089,0.21-0.178,0.315-0.268c1.678,0.735,3.35,1.402,5.011,2.019c0.04,0.438,0.556,0.792,0.931,0.372
			c0.004-0.004,0.008-0.008,0.012-0.012c21.095,7.535,40.103,8.466,60.635-0.787c10.97-4.943,27.847-15.991,27.51-29.916
			C145.98,144.137,145.491,143.609,144.883,143.397z M132.746,138.827c0.753,0.531,1.477,1.115,2.244,1.617
			c-2.136,1.958-4.132,4.193-6.037,6.584c-0.828-0.866-1.654-1.746-2.48-2.616c1.065-0.265,2.209-1.613,2.857-2.257
			C130.354,141.14,131.771,140.042,132.746,138.827z M75.035,91.427c-0.51-0.594-0.964-1.149-1.388-1.682
			c0.09-0.059,0.189-0.085,0.256-0.207c6.11-11.14,15.345-19.828,24.215-28.749c6.265-6.301,11.245-13.989,18.008-19.773
			c-0.233,3.621-1.034,6.976-2.305,10.193C99.533,63.056,90.014,79.966,75.047,91.408C75.04,91.413,75.041,91.422,75.035,91.427z
			 M75.835,92.346c11.911-7.263,21.97-18.344,31.23-29.427c-2.044,2.777-4.341,5.577-6.849,8.502
			c-2.201,2.569-5.867,6.16-8.419,9.993c-1.612,1.431-3.061,3.145-4.292,4.491c-2.919,3.19-5.787,6.595-9.513,8.828
			C77.236,93.917,76.518,93.12,75.835,92.346z M78.867,95.663c2.941-1.425,5.44-3.489,7.798-5.814
			c0.824-0.812,1.641-1.63,2.456-2.451c-0.156,0.902-0.196,1.798-0.048,2.676c0.01,0.058,0.057,0.097,0.083,0.147
			c-0.102,0.353-0.101,0.738,0.051,1.097c0.011,0.026,0.026,0.052,0.037,0.078c-1.302,0.987-2.453,2.339-3.55,3.408
			c-1.318,1.287-2.618,2.595-3.942,3.875C80.792,97.698,79.822,96.678,78.867,95.663z M82.599,99.553
			c1.037-0.899,2.054-1.822,3.065-2.757c1.409-1.303,2.943-2.419,4.444-3.573c0.563,1.138,1.163,2.268,1.827,3.381
			c-2.12,2.017-4.384,3.812-6.768,5.541C84.371,101.35,83.497,100.468,82.599,99.553z M89.193,106.088
			c-0.454-0.431-1.634-1.574-3.155-3.079c2.486-1.335,4.798-2.979,6.949-4.81c0.649,1.007,1.269,2.022,1.982,3.008
			c-1.902,1.66-3.808,3.306-5.759,4.898C89.204,106.1,89.199,106.094,89.193,106.088z M90.211,107.099
			c2.007-1.392,3.904-2.962,5.808-4.489c0.587,0.772,1.17,1.548,1.786,2.308c-1.066,0.834-2.104,1.715-3.118,2.559
			c-0.686,0.573-1.479,1.215-2.154,1.93C91.76,108.635,90.986,107.867,90.211,107.099z M93.491,110.359
			c1.625-1.541,3.66-2.708,5.527-4.002c0.626,0.742,1.235,1.498,1.88,2.227c-1.451,1.59-2.789,3.325-4.303,4.857
			C95.566,112.404,94.521,111.392,93.491,110.359z M97.384,114.224c1.666-1.242,3.311-2.678,4.772-4.228
			c0.848,0.936,1.704,1.862,2.564,2.773c-0.985,0.745-1.859,1.721-2.721,2.537c-0.602,0.571-1.231,1.111-1.841,1.675
			C99.245,116.046,98.301,115.154,97.384,114.224z M101.007,117.848c0.469-0.366,0.954-0.709,1.419-1.082
			c1.114-0.893,2.438-1.716,3.52-2.703c0.722,0.755,1.446,1.507,2.162,2.243c-0.771,0.65-1.465,1.471-2.083,2.114
			c-0.74,0.771-1.354,1.652-2.031,2.48C103.003,119.875,102.001,118.868,101.007,117.848z M104.669,121.598
			c0.597-0.61,1.146-1.266,1.772-1.85c0.85-0.792,1.921-1.463,2.836-2.237c1.176,1.203,2.333,2.386,3.448,3.535
			c0.038,0.039,0.082,0.078,0.12,0.117c-0.33,0.416-0.652,0.842-1.014,1.219c-1.078,1.127-2.337,2.034-3.688,2.799
			C106.992,123.979,105.825,122.795,104.669,121.598z M108.979,126.049c1.706-0.857,3.628-2.143,5.104-3.682
			c0.787,0.764,1.568,1.528,2.358,2.292c-1.075,0.963-2.09,2.02-3.121,3.002c-0.483,0.459-0.966,0.927-1.45,1.391
			C110.913,128.044,109.939,127.055,108.979,126.049z M112.837,130.061c0.522-0.44,1.048-0.877,1.572-1.312
			c1.099-0.914,2.251-1.85,3.276-2.882c0.715,0.679,1.379,1.371,2.104,2.046c-0.629,0.858-1.24,1.734-1.978,2.516
			c-0.773,0.818-1.64,1.517-2.535,2.179C114.468,131.754,113.646,130.915,112.837,130.061z M116.186,133.559
			c1.891-1.16,3.785-2.614,5.037-4.321c0.545,0.498,1.069,1.006,1.62,1.499c-0.921,0.863-1.638,2.056-2.448,2.964
			c-0.655,0.733-1.413,1.364-2.125,2.041C117.579,135.011,116.877,134.291,116.186,133.559z M119.262,136.791
			c0.779-0.627,1.601-1.202,2.338-1.884c0.884-0.819,2.019-1.761,2.718-2.859c0.81,0.705,1.574,1.45,2.401,2.135
			c-1.801,1.525-3.528,3.306-5.035,5.168C120.876,138.498,120.067,137.643,119.262,136.791z M122.769,140.498
			c1.816-1.724,3.842-3.25,5.521-5.069c0.864,0.689,1.713,1.401,2.598,2.061c-0.743,0.766-1.403,1.711-2.031,2.428
			c-0.612,0.698-1.232,1.39-1.835,2.095c-0.116,0.137-0.505,0.729-0.769,1.118c-0.089,0.014-0.18,0.043-0.256,0.138
			c-0.092,0.115-0.189,0.234-0.266,0.363C124.744,142.589,123.755,141.542,122.769,140.498z M4.732,107.743
			c1.277,3.615,2.8,7.148,4.504,10.588c-0.548,0.513-1.024,1.101-1.409,1.743C6.488,116.034,5.432,111.91,4.732,107.743z
			 M8.287,121.475c0.441-0.692,1.021-1.241,1.678-1.738c0.679,1.317,1.439,2.586,2.173,3.87c-0.804,0.573-1.517,1.3-2.134,2.148
			C9.418,124.333,8.796,122.924,8.287,121.475z M10.647,127.358c0.258-0.321,0.487-0.665,0.761-0.977
			c0.459-0.521,0.987-0.952,1.506-1.392c0.525,0.888,1.093,1.742,1.642,2.611c-0.698,0.521-1.263,1.225-1.824,1.893
			c-0.233,0.277-0.412,0.585-0.635,0.864C11.615,129.357,11.091,128.375,10.647,127.358z M12.725,131.656
			c0.347-0.377,0.664-0.78,1.023-1.146c0.535-0.547,1.12-1.049,1.62-1.616c0.706,1.086,1.499,2.083,2.239,3.138
			c-1.039,0.953-1.955,2.147-2.832,3.362C14.075,134.156,13.365,132.925,12.725,131.656z M15.533,136.775
			c1.101-1.044,2.185-2.155,3.094-3.316c0.546,0.751,1.124,1.463,1.683,2.2c-1.204,0.911-2.315,2.173-3.266,3.498
			C16.539,138.364,16.012,137.584,15.533,136.775z M17.839,140.413c1.153-1.182,2.365-2.335,3.343-3.612
			c0.809,1.042,1.63,2.065,2.466,3.07c-1.316,1.042-2.512,2.323-3.642,3.628C19.269,142.483,18.533,141.463,17.839,140.413z
			 M20.861,144.68c1.337-1.151,2.658-2.374,3.736-3.717c0.686,0.795,1.37,1.593,2.088,2.345c0.066,0.068,0.136,0.123,0.201,0.191
			c-1.428,1.114-2.656,2.493-3.976,3.765C22.216,146.413,21.523,145.559,20.861,144.68z M23.789,148.332
			c1.548-1.1,3.024-2.382,4.154-3.828c1.03,1.03,2.099,1.924,3.155,2.864c-1.688,0.929-3.178,2.416-4.548,3.944
			C25.624,150.324,24.666,149.369,23.789,148.332z M27.638,152.487c0.309-0.278,0.611-0.564,0.924-0.838
			c1.226-1.074,2.647-1.98,3.741-3.188c0.838,0.713,1.705,1.317,2.557,1.978c-1.152,0.797-2.163,2-3.202,2.861
			c-0.548,0.454-1.125,0.926-1.707,1.39C29.178,153.958,28.384,153.25,27.638,152.487z M30.838,155.535
			c0.399-0.239,0.798-0.463,1.202-0.729c1.314-0.866,3.172-1.949,4.174-3.32c0.782,0.574,1.589,1.057,2.383,1.589
			c-0.518,0.562-1.031,1.13-1.584,1.656c-1.135,1.076-2.365,2.048-3.547,3.071C32.579,157.058,31.692,156.318,30.838,155.535z
			 M34.568,158.731c1.968-1.24,4.135-2.737,5.686-4.554c1.091,0.686,2.206,1.277,3.317,1.888c-0.216,0.224-0.418,0.432-0.584,0.584
			c-1.659,1.525-3.339,3.073-5.102,4.5C36.771,160.353,35.636,159.59,34.568,158.731z M39.206,162.111
			c1.528-1.036,2.998-2.16,4.422-3.335c0.507-0.418,1.329-0.951,2.117-1.537c0.668,0.334,1.351,0.604,2.025,0.914
			c-0.696,0.343-1.346,0.876-1.861,1.287c-1.55,1.238-3.066,2.63-4.251,4.247C40.834,163.171,40.01,162.657,39.206,162.111z
			 M45.959,166.15c-0.81-0.409-1.59-0.867-2.374-1.319c1.769-2.031,3.851-3.697,6.049-5.284c0.15-0.108,0.259-0.25,0.331-0.404
			c1.483,0.613,2.979,1.166,4.488,1.664c-1.1,0.876-2.115,2.081-3.1,2.928c-1.266,1.087-2.579,2.115-3.878,3.162
			C46.971,166.647,46.458,166.402,45.959,166.15z M48.826,167.561c1.166-0.857,2.334-1.71,3.509-2.553
			c1.343-0.963,3.468-2.068,4.369-3.546c1.747,0.509,3.514,0.922,5.29,1.29c-1.561,0.924-3.005,2.366-4.281,3.459
			c-1.355,1.16-2.668,2.377-3.94,3.634C52.103,169.104,50.447,168.344,48.826,167.561z M55.231,170.49
			c0.831-0.707,1.655-1.422,2.499-2.115c2.041-1.676,4.675-3.007,6.514-4.877c0.082-0.083,0.093-0.189,0.131-0.287
			c1.475,0.254,2.973,0.371,4.464,0.537c-3.642,1.755-6.852,5.123-9.572,8.4C57.91,171.612,56.562,171.064,55.231,170.49z
			 M64.979,174.201c-1.402-0.471-2.806-0.94-4.188-1.464c0.963-0.971,1.869-1.997,2.895-2.907c2.126-1.886,4.591-3.178,6.814-4.898
			c0.384-0.297,0.353-0.658,0.176-0.964c1.696,0.148,3.408,0.188,5.119,0.23c-2.547,1.387-4.724,3.64-6.778,5.627
			c-1.059,1.024-2.093,2.072-3.12,3.128C65.733,173.124,65.347,173.696,64.979,174.201z M66.321,174.669
			c0.97-0.671,1.835-1.552,2.694-2.322c2.601-2.332,5.232-4.686,8.294-6.398c0.73-0.408,0.671-1.183,0.258-1.67
			c2.512,0.012,5.04-0.117,7.575-0.31c-4.742,3.869-9.643,7.644-13.709,12.193C69.717,175.712,68.013,175.212,66.321,174.669z
			 M73.168,176.561c5.184-4.596,10.899-8.474,16.167-12.977c2.173-0.254,4.353-0.656,6.532-1.038
			c-1.944,2.088-3.773,4.357-5.644,6.257c-3.48,3.533-7.142,6.389-11.254,8.907C77.029,177.39,75.091,177.023,73.168,176.561z
			 M88.32,178.616c-2.042-0.046-4.086-0.189-6.125-0.43c2.483-1.406,4.773-3.474,6.651-5.086c3.833-3.291,8.404-7.209,11.589-11.412
			c3.004-0.642,6.002-1.42,8.993-2.255c-0.542,0.604-1.064,1.226-1.596,1.786c-2.38,2.518-4.787,5.011-7.235,7.459
			c-2.804,2.804-5.742,5.508-8.888,7.923C90.718,177.365,89.491,177.964,88.32,178.616z M92.92,178.524
			c2.901-2.073,5.648-4.829,7.277-6.287c2.988-2.676,5.8-5.54,8.576-8.433c1.573-1.639,3.867-3.328,4.702-5.478
			c0.006-0.017-0.004-0.033,0.001-0.049c3.152-0.971,6.278-2.065,9.389-3.215c-1.531,2.027-3.072,4.001-4.668,5.802
			c-5.412,6.104-11.364,12.233-18.264,16.77C97.607,178.088,95.268,178.387,92.92,178.524z M115.452,172.246
			c-2.731,1.221-5.344,2.271-7.639,3.151c-0.507,0.193-1.02,0.339-1.529,0.514c4.549-3.422,8.571-7.823,12.166-11.678
			c6.133-6.574,14.129-14.486,18.469-22.593c1.424,0.865,2.89,1.636,4.36,2.387c-0.26,0.049-0.507,0.173-0.677,0.436
			C133.621,155.241,123.811,162.79,115.452,172.246z M120.013,170.075c3.649-3.095,7.247-6.249,10.709-9.565
			c4.343-4.161,9.858-9.265,11.739-15.181C141.964,156.524,130.855,164.622,120.013,170.075z"/>
		<path d="M169.235,48.307c-0.179-0.27-0.399-0.452-0.633-0.586c-4.171-9.476-10.249-17.916-19.002-19.699
			c-0.61-0.702-1.654-0.967-2.497-0.06c-7.229,7.778-12.6,17.706-18.528,26.459c-4.181,6.173-8.434,12.309-13,18.205
			c-1.719,2.22-6.699,9.931-9.907,9.923c-1.243-0.004-1.552,1.929-0.297,2.198c0.168,0.036,0.336,0.025,0.504,0.045
			c0.036,0.199,0.123,0.397,0.185,0.595c-4.766,9.121,0.718,16.941,7.478,23.518c-0.257,0.444,0.237,0.931,0.679,0.644
			c1.121,1.066,2.266,2.08,3.398,3.08c0.021,0.246,0.244,0.451,0.491,0.445c0.069,0.061,0.141,0.13,0.21,0.19
			c2.017,1.764,3.99,3.59,5.98,5.39c-0.158,0.13-0.309,0.268-0.468,0.397c-0.549,0.45,0.176,1.383,0.757,0.981
			c0.232-0.161,0.441-0.352,0.67-0.516c0.916,0.832,1.817,1.685,2.729,2.522c-0.196,0.416,0.242,0.838,0.661,0.611
			c2.153,1.983,4.268,4.008,6.405,6.012c-0.043,0.036-0.081,0.075-0.123,0.11c-0.45,0.375,0.143,1.139,0.625,0.81
			c0.092-0.063,0.177-0.135,0.269-0.198c8.846,8.306,17.611,16.689,26.456,24.783c0.856,0.784,1.897,0.487,2.454-0.246
			C202.013,134.305,187.082,75.18,169.235,48.307z M183.113,96.116c-1.119,0.889-2.208,1.832-3.293,2.7
			c-1.299,1.039-2.493,2.192-3.712,3.319c0.237-1.362,0.345-2.752,0.512-4.129c0.137,0.004,0.282-0.034,0.42-0.148
			c1.354-1.129,2.617-2.371,3.949-3.527c0.512-0.444,1.077-0.854,1.63-1.275C182.774,94.077,182.993,95.093,183.113,96.116z
			 M182.272,90.9c-0.673,0.55-1.288,1.188-1.915,1.792c-1.216,1.172-2.413,2.397-3.533,3.672c0.157-1.573,0.226-3.164,0.297-4.755
			c1.45-1.295,3.071-2.689,4.422-4.216C181.789,88.562,182.068,89.726,182.272,90.9z M181.091,85.215
			c-0.667,0.803-1.301,1.643-1.97,2.424c-0.612,0.714-1.263,1.393-1.899,2.085c0.036-1.705,0.015-3.423-0.052-5.15
			c0.899-1.197,1.91-2.081,3.013-2.892C180.495,82.857,180.816,84.03,181.091,85.215z M179.782,80.129
			c-1.037,0.74-1.939,1.641-2.723,2.666c-0.242-4.147-0.753-8.354-1.628-12.643c-0.314-1.542-0.693-3.254-1.13-5.058
			C176.493,69.914,178.325,74.965,179.782,80.129z M175.734,104.125c1.61-1.445,3.291-2.794,5.034-4.081
			c0.812-0.599,1.698-1.161,2.564-1.747c0.102,1.082,0.209,2.164,0.27,3.244c-2.945,3.28-6.054,6.205-9.386,8.97
			C174.822,108.403,175.307,106.27,175.734,104.125z M123.627,67.982c8.79-12.009,16.148-25.203,25.517-36.776
			c15.312,6.739,20.506,29.047,23.512,43.818c4.339,21.313-2.219,40.062-12.495,58.274c-0.138-0.002-0.277-0.048-0.41-0.015
			c-2.781-1.566-7.015-7.247-8.733-8.948c-6.133-6.069-12.52-11.879-18.647-17.96c-4.896-4.86-10.112-9.322-15.251-13.921
			c-2.514-2.25-5.085-5.795-7.945-8.148C115.207,81.863,120.792,71.856,123.627,67.982z M107.871,88.553
			c1.16,1.421,2.592,2.721,3.743,3.773c-0.856,0.604-1.466,1.619-2.132,2.39c-0.218,0.253-0.434,0.524-0.653,0.783
			C108.059,93.248,107.663,90.936,107.871,88.553z M109.394,97.016c0.382-0.412,0.74-0.847,1.143-1.245
			c0.741-0.736,1.762-1.374,2.355-2.262c0.613,0.586,1.252,1.141,1.872,1.72c-0.82,0.512-1.528,1.36-2.154,1.975
			c-0.686,0.671-1.328,1.381-1.993,2.07C110.198,98.523,109.724,97.784,109.394,97.016z M113.565,103.721
			c-0.85-1.087-1.644-2.189-2.336-3.314c0.648-0.588,1.288-1.188,1.946-1.764c0.846-0.737,2.066-1.375,2.844-2.261
			c0.891,0.823,1.79,1.635,2.686,2.452c-0.103,0.006-0.205-0.002-0.31,0.057c-1.143,0.644-1.899,1.737-2.749,2.713
			C114.993,102.351,114.3,103.06,113.565,103.721z M114.49,104.826c1.974-1.324,3.898-3.104,4.889-4.949
			c0.066-0.124,0.066-0.248,0.062-0.368c0.591,0.538,1.179,1.081,1.77,1.618c-1.02,0.767-1.914,1.747-2.817,2.624
			c-0.871,0.846-1.68,1.752-2.514,2.633C115.415,105.865,114.931,105.354,114.49,104.826z M116.722,107.324
			c0.738-0.672,1.475-1.35,2.223-2.012c1.125-0.995,2.507-1.886,3.598-2.97c0.901,0.822,1.77,1.687,2.667,2.513
			c-1.287,0.788-2.434,1.985-3.506,2.974c-0.774,0.714-1.53,1.465-2.241,2.254C118.523,109.177,117.602,108.26,116.722,107.324z
			 M120.416,110.976c0.584-0.565,1.126-1.176,1.755-1.709c1.324-1.121,2.992-2.05,4.221-3.3c0.956,0.888,1.895,1.796,2.85,2.685
			c-2.308,0.688-4.367,2.835-6.079,4.787C122.241,112.625,121.315,111.82,120.416,110.976z M124.186,114.357
			c0.61-0.53,1.217-1.065,1.831-1.593c1.334-1.145,2.96-1.943,4.228-3.143c0.005-0.005,0.004-0.012,0.009-0.017
			c0.627,0.592,1.265,1.173,1.884,1.773c-1.407,1.042-2.489,2.593-3.767,3.806c-0.511,0.486-1.075,0.913-1.611,1.372
			C125.906,115.833,125.048,115.106,124.186,114.357z M131.435,120.511c1.679-1.236,3.387-2.511,4.43-4.13
			c0.362-0.562-0.348-1.244-0.905-0.905c-1.657,1.012-3.223,2.526-4.686,4.054c-0.797-0.673-1.566-1.327-2.396-2.026
			c0.523-0.416,1.08-0.79,1.591-1.222c1.328-1.123,2.888-2.375,3.618-3.991c1.897,1.883,3.838,3.722,5.765,5.574
			c-0.998,0.78-1.761,1.854-2.669,2.748c-0.733,0.722-1.534,1.36-2.369,1.956C133.055,121.899,132.255,121.21,131.435,120.511z
			 M135.922,124.498c-0.39-0.373-0.836-0.767-1.263-1.154c2.079-1.159,4.182-2.701,5.099-4.6c0.931,0.892,1.86,1.785,2.792,2.675
			c-1.141,1.005-2.088,2.347-3.168,3.4c-0.505,0.493-1.058,0.931-1.581,1.403C137.173,125.648,136.532,125.081,135.922,124.498z
			 M138.832,127.168c0.552-0.417,1.135-0.791,1.67-1.23c1.145-0.942,2.498-2.003,3.319-3.303c0.567,0.542,1.131,1.086,1.699,1.628
			c-1.662,1.491-3.111,3.217-5.281,4.137C139.771,127.99,139.294,127.582,138.832,127.168z M141.325,129.35
			c2.028-0.694,4.159-2.014,5.719-3.626c0.583,0.558,1.163,1.117,1.747,1.675c-1.51,1.42-2.792,3.179-4.083,4.826
			C143.577,131.267,142.438,130.313,141.325,129.35z M148.762,135.675c-0.92-0.783-1.835-1.57-2.758-2.349
			c1.492-1.406,2.976-2.937,4.23-4.546c0.875,0.837,1.753,1.671,2.623,2.513c0.202,0.196,0.433,0.438,0.685,0.707
			C152.614,132.367,149.86,134.11,148.762,135.675z M149.901,136.648c1.244-0.988,4.126-3.127,4.546-3.682
			c0.777,0.824,1.68,1.715,2.618,2.437c-0.947,0.66-1.806,1.493-2.668,2.226c-0.573,0.486-1.071,1.043-1.612,1.556
			C151.83,138.333,150.873,137.484,149.901,136.648z M164.549,150.892c-0.238-0.234-0.533-0.387-0.875-0.393
			c-0.477-0.62-0.993-1.214-1.506-1.81c2.182-0.719,4.341-2.414,6.021-3.515c1.021-0.669,2.752-1.636,4.345-2.761
			C170.264,145.427,167.633,148.276,164.549,150.892z M175.835,137.425c-0.266-0.222-0.654-0.297-1.045-0.123
			c-1.021,0.457-1.767,1.469-2.594,2.2c-1.416,1.254-2.938,2.39-4.465,3.502c-1.845,1.342-4.33,3.454-6.677,4.409
			c-0.574-0.63-1.15-1.258-1.744-1.875c4.604-1.921,8.798-4.745,12.851-7.621c1.618-1.147,3.73-2.461,5.597-3.966
			C177.176,135.134,176.507,136.281,175.835,137.425z M180.051,128.535c-3.536,2.261-6.642,5.643-10.012,8.168
			c-3.73,2.795-7.668,5.534-11.802,7.744c-0.443-0.446-0.867-0.905-1.318-1.346c5.554-4.797,11.659-8.933,17.386-13.522
			c1.873-1.501,4.954-3.645,7.361-6.104C181.214,125.189,180.657,126.87,180.051,128.535z M182.97,117.358
			c-1.947,4.872-8.777,9.201-12.451,12.22c-4.918,4.041-10.311,7.815-14.719,12.44c-0.662-0.629-1.288-1.284-1.969-1.901
			c0.52-0.401,1.02-0.828,1.547-1.218c1.102-0.814,2.314-1.558,3.307-2.509c0.57,0.249,1.14,0.402,1.691,0.353
			c0.596,0.172,1.285,0.038,1.738-0.627c2.35-3.453,4.327-6.972,6.134-10.523c2.438-1.961,4.897-3.893,7.355-5.836
			c2.536-2.005,5.762-4.271,7.875-7.024C183.338,114.281,183.212,115.832,182.97,117.358z M183.586,109.225
			c-3.183,2.974-5.912,6.395-9.201,9.314c-1.555,1.38-3.137,2.742-4.694,4.128c1.457-3.145,2.642-6.341,3.683-9.564
			c3.773-2.301,7.386-5.127,10.358-8.388c0.025,1.489,0.043,2.978-0.017,4.454C183.672,109.199,183.628,109.187,183.586,109.225z"/>
	</g>
</g>
<g>
</g>
<g>
</g>
<g>
</g>
<g>
</g>
<g>
</g>
<g>
</g>
<g>
</g>
<g>
</g>
<g>
</g>
<g>
</g>
<g>
</g>
<g>
</g>
<g>
</g>
<g>
</g>
<g>
</g>
</svg>
