<?xml version="1.0" encoding="iso-8859-1"?>
<!-- Generator: Adobe Illustrator 16.0.0, SVG Export Plug-In . SVG Version: 6.00 Build 0)  -->
<!DOCTYPE svg PUBLIC "-//W3C//DTD SVG 1.1//EN" "http://www.w3.org/Graphics/SVG/1.1/DTD/svg11.dtd">
<svg version="1.1" id="Capa_1" xmlns="http://www.w3.org/2000/svg" xmlns:xlink="http://www.w3.org/1999/xlink" x="0px" y="0px"
	 width="187.328px" height="187.328px" viewBox="0 0 187.328 187.328" style="enable-background:new 0 0 187.328 187.328;"
	 xml:space="preserve">
<g>
	<g>
		<path d="M166.758,81.353C157.616,33.003,115.201-0.332,66.135,9.63C23.053,18.378-7.832,70.533,1.752,112.871
			c8.7,38.432,48.826,80.67,90.795,68.493c0.451,0.341,1.049,0.48,1.779,0.19C133.808,165.878,175.763,128.98,166.758,81.353z
			 M163.428,99.335c-2.321-1.031-4.832-1.864-7.021-3.087c-2.233-1.245-4.372-2.638-6.508-4.04c3.55-0.067,7.093-0.085,10.619,0
			c1.019,0.202,2.144,0.355,3.21,0.285C163.777,94.812,163.653,97.086,163.428,99.335z M7.225,117.282
			C-5.802,76.053,23.135,29.887,61.276,15.585c45.502-17.061,88.392,18.279,100.085,60.786c1.124,4.085,1.812,8.098,2.15,12.039
			c-0.621-0.006-1.256,0.05-1.891,0.05c-0.298,0-0.59-0.045-0.886-0.057c-5.862-3.155-21.396-0.199-26.644-0.088
			c-0.973,0.02-1.954,0.029-2.93,0.045c-0.104-0.058-0.205-0.121-0.31-0.178c-0.379-0.21-0.708-0.058-0.909,0.197
			c-12.061,0.185-24.281,0.168-36.259,1.453c-0.514-1.525-1.204-2.96-2.033-4.146c-1.407-2.014-3.358-3.579-5.885-3.729
			c-2.266-0.133-4.581,1.529-5.533,3.614c-1.3,0.032-2.589,0.582-3.827,1.933c-2.537,2.768-2.53,7.048-0.98,10.268
			c1.409,2.927,5.004,5.013,8.692,5.586c-4.352,10.134-1.943,23.231-1.559,33.91c0.46,12.761-0.928,28.4,2.593,41.059
			C48.854,181.488,17.979,151.322,7.225,117.282z M81.051,97.669c-3.618-2.014-3.068-7.215-0.169-8.906
			c0.484,0.169,1.032,0.194,1.502-0.05c0.229-0.119,0.394-0.288,0.587-0.435c0.522,0.006,1.057,0.04,1.649,0.249
			c0.489,0.173,0.935-0.557,0.52-0.892c-0.261-0.21-0.524-0.393-0.788-0.578c0.083-0.083,0.16-0.163,0.246-0.244
			c0.357-0.336,0.96-0.49,0.945-0.489c0.724-0.056,1.573,0.537,2.334,1.569c1.772,2.404,2.767,5.92,2,8.848
			C88.903,100.461,83.672,99.127,81.051,97.669z M93.998,176.973c-1.492,0.351-2.961,0.528-4.438,0.767
			c0.082-2.067-0.315-4.291-0.626-6.365c1.398,1.274,2.815,2.528,4.288,3.713c0.483,0.389,1.087,0.941,1.748,1.462
			C94.646,176.683,94.32,176.841,93.998,176.973z M97.769,175.332c-0.151-0.066-0.279-0.136-0.442-0.211
			c-1.216-0.554-2.322-1.357-3.385-2.155c-1.805-1.352-3.535-2.797-5.314-4.18c-0.099-1.041-0.141-2.085-0.232-3.126
			c2.101,2.087,4.476,4.037,6.462,5.868c0.863,0.795,2.262,2.233,3.803,3.384C98.361,175.046,98.065,175.201,97.769,175.332z
			 M101.477,173.589c-0.752-0.513-1.494-1.112-1.784-1.318c-2.134-1.514-4.108-3.282-6.078-5c-1.544-1.347-3.455-3.661-5.48-5.123
			c-0.214-2.775-0.37-5.554-0.537-8.333c3.519,3.664,7.36,7.138,11.136,10.478c2.179,1.929,6.537,6.739,9.915,5.606
			C106.27,171.199,103.879,172.448,101.477,173.589z M108.877,169.772c0.989-0.533,0.709-1.899-0.441-2.048
			c-3.879-0.504-8.403-5.472-11.2-7.818c-3.211-2.695-6.299-5.869-9.776-8.257c-0.09-1.627-0.119-3.257-0.194-4.885
			c4.454,3.814,9.189,7.322,13.931,10.755c3.964,2.868,8.865,7.058,13.856,8.644C113.01,167.417,110.953,168.631,108.877,169.772z
			 M117.769,164.429c-4.106-3.12-9.376-5.188-13.756-7.952c-5.835-3.684-11.268-7.904-16.838-11.955
			c-0.094-2.302-0.221-4.604-0.276-6.908c4.668,4.432,9.848,8.304,15.111,11.998c6.062,4.252,12.83,9.162,19.781,12.097
			C120.463,162.636,119.125,163.551,117.769,164.429z M123.983,160.132c-4.808-4.022-10.913-6.756-16.263-9.969
			c-7.391-4.437-14.376-9.251-20.912-14.842c-0.083-2.697-0.216-5.392-0.346-8.087c2.164,2.594,5.888,4.643,8.229,6.459
			c4.37,3.391,8.564,7.433,13.291,10.284c5.066,3.058,9.945,6.436,14.967,9.567c1.625,1.014,3.924,2.838,6.075,2.711
			C127.371,157.584,125.697,158.887,123.983,160.132z M130.805,154.793c-0.086-0.434-0.391-0.844-0.832-0.982
			c-6.899-2.163-14.098-8.905-20.357-12.626c-4.634-2.755-8.843-6.556-13.229-9.688c-2.984-2.132-6.466-5.799-10.034-7.056
			c-0.106-2.326-0.216-4.653-0.267-6.981c-0.003-0.163,0.026-0.346,0.027-0.511c0.742,0.586,1.485,1.172,2.228,1.756
			c2.495,1.959,5.026,3.873,7.529,5.823c5.535,4.311,11.116,8.564,16.77,12.722c4.277,3.146,15.828,14.235,22.72,13.533
			C133.871,152.15,132.36,153.497,130.805,154.793z M137.44,148.833c-0.131-0.445-0.41-0.843-0.888-0.919
			c-8.989-1.427-18.943-11.16-26.016-16.278c-7.354-5.324-15.658-13.519-24.289-17.299c0.266-2.728,0.785-5.627,0.83-8.298
			c6.935,6.112,15.474,10.563,23.355,15.413c6.322,3.891,12.635,7.8,18.885,11.806c3.145,2.017,10.33,5.192,12.323,8.443
			c0.608,0.994,2.435,0.666,2.325-0.63c-0.596-7.102-18.967-14.597-24.014-17.609c-10.468-6.246-23.018-11.339-32.917-18.211
			c-0.014-0.604-0.016-1.217-0.096-1.788c2.42-0.184,4.652-1.103,6.028-3.084c0.182-0.262,0.294-0.556,0.443-0.835
			c1.496,7.285,47.772,29.642,55.692,35.041c0.09,0.113,0.134,0.255,0.264,0.336l0.074,0.048
			C145.899,139.88,141.891,144.535,137.44,148.833z M157.976,120.049c-1.345-1.513-3.579-2.52-5.177-3.464
			c-5.914-3.492-11.965-6.767-17.979-10.082c-8.275-4.562-17.095-10.7-26.32-13.009c-0.31-0.077-0.41,0.353-0.129,0.465
			c2.139,0.86,4.51,3.219,6.557,4.423c5.553,3.266,11.137,6.484,16.721,9.694c5.271,3.03,10.527,6.087,15.762,9.182
			c2.594,1.533,6.895,3.096,9.027,5.197c0.107,0.105,0.236,0.089,0.354,0.151c-0.442,0.908-0.881,1.817-1.36,2.712
			c-7.614-6.145-19.478-9.619-28.021-14.028c-6.301-3.253-12.508-6.69-18.562-10.381c-3.914-2.385-7.389-6.111-11.748-7.522
			c-0.239-0.077-0.534,0.184-0.434,0.434c3.135,7.89,16.688,13.4,23.521,17.317c9.599,5.503,22.493,14.641,33.728,16.933
			c-0.771,1.312-1.562,2.617-2.406,3.894c-2.168-1.842-5.969-3.075-7.947-4.222c-6.602-3.826-13.08-7.713-19.824-11.275
			c-6.247-3.3-12.385-6.794-18.482-10.361c-2.371-1.389-10.217-4.761-11.272-7.547c-0.011-0.029-0.044-0.029-0.062-0.053
			c0.656-1.773,0.771-3.767,0.488-5.74c9.38,0.856,18.859,0.763,28.353,0.436c6.35,6.026,14.029,10.151,21.714,14.373
			c4.222,2.319,10.917,5.279,14.959,8.695C158.957,117.534,158.522,118.813,157.976,120.049z M160.66,112.931
			c-2.451-1.679-5.847-2.971-7.673-3.954c-9.466-5.103-19.862-9.154-28.349-15.839c3.449-0.13,6.902-0.281,10.35-0.43
			c4.834,3.202,9.672,6.394,14.643,9.388c2.703,1.628,8.213,5.757,12.382,6C161.619,109.725,161.17,111.337,160.66,112.931z
			 M159.922,104.051c-3.606-1.317-7.027-3.295-10.385-5.131c-3.736-2.042-7.408-4.199-11.08-6.354
			c2.685-0.11,5.361-0.185,8.039-0.26c2.812,2.132,5.729,4.141,8.672,6.062c2.086,1.362,4.961,3.564,7.771,4.435
			c-0.113,0.721-0.172,1.457-0.307,2.172C161.744,104.65,160.83,104.382,159.922,104.051z"/>
		<path d="M156.198,26.089c-1.176-0.297-1.979,0.042-3.135,0.346c-1.136,0.298-2.301,0.491-3.474,0.628
			c1.634-5.331,1.83-11.579,0.908-16.783c-0.369-2.091-1.285-4.497-3.519-5.132c-2.767-0.786-5.19,2.623-6.243,4.637
			c-0.693,1.325,1.034,2.794,2.123,1.638c0.413-0.439,2.801-3.455,3.29-2.76c1.065,1.509,0.956,4.017,1.017,5.763
			c0.152,4.425-0.154,9.75-2.06,13.826c-0.597,1.277,0.092,3.001,1.694,2.952c2.871-0.087,8.715-0.023,10.339-2.799
			C157.646,27.539,157.188,26.338,156.198,26.089z"/>
		<path d="M171.494,19.392c-1.089-6.992-6.496-9.912-11.9-7.171c-0.162-1.261-0.266-2.534-0.288-3.818
			c1.11-0.504,2.174-1.082,3.386-1.448c1.492-0.45,1.282-3.022-0.382-2.824c-1.884,0.224-3.522,1.014-5.39,1.285
			c-0.801,0.116-1.359,1.04-1.359,1.785c0,2.946,0.104,5.803,0.859,8.662c0.379,1.434,2.104,1.734,3.136,0.828
			c4.001-3.516,7.188-1.685,8.147,3.164c0.35,1.773,0.062,3.731-0.875,5.27c-1.377,2.258-4.176,0.707-6.15,0.866
			c-1.336,0.107-2.234,1.718-1.145,2.763c2.358,2.261,7.02,2.058,9.389-0.183C171.388,26.233,172,22.641,171.494,19.392z"/>
		<path d="M183.459,4.453c-3.248,3.282-5.594,8.323-7.617,12.409c-1.03,2.079-1.992,4.271-2.451,6.552
			c-0.418,2.079,0.143,2.434,1.117,3.882c0.723,1.074,2.283,0.151,1.725-1.009c0.45,0.935,0.629-1.705,0.875-2.546
			c0.676-2.31,1.889-4.46,3.059-6.548c1.965-3.509,4.717-6.689,6.525-10.248C187.729,4.908,185.16,2.734,183.459,4.453z"/>
		<path d="M183.004,20.262c0.004,0.272,0.006,0.544,0.01,0.816c0.029,2.775,4.275,2.775,4.305,0c0.003-0.272,0.006-0.544,0.01-0.816
			C187.355,17.475,182.976,17.475,183.004,20.262z"/>
		<path d="M172.922,4.947c-1.854,0-1.854,2.875,0,2.875C174.775,7.822,174.775,4.947,172.922,4.947z"/>
	</g>
</g>
<g>
</g>
<g>
</g>
<g>
</g>
<g>
</g>
<g>
</g>
<g>
</g>
<g>
</g>
<g>
</g>
<g>
</g>
<g>
</g>
<g>
</g>
<g>
</g>
<g>
</g>
<g>
</g>
<g>
</g>
</svg>
