<?xml version="1.0" encoding="iso-8859-1"?>
<!-- Generator: Adobe Illustrator 16.0.0, SVG Export Plug-In . SVG Version: 6.00 Build 0)  -->
<!DOCTYPE svg PUBLIC "-//W3C//DTD SVG 1.1//EN" "http://www.w3.org/Graphics/SVG/1.1/DTD/svg11.dtd">
<svg version="1.1" id="Capa_1" xmlns="http://www.w3.org/2000/svg" xmlns:xlink="http://www.w3.org/1999/xlink" x="0px" y="0px"
	 width="196.633px" height="196.632px" viewBox="0 0 196.633 196.632" style="enable-background:new 0 0 196.633 196.632;"
	 xml:space="preserve">
<g>
	<path d="M147.283,67.732c4.385-9.863-0.925-22-11.643-26.205c-12.196-4.786-24.659-0.429-31.442,9.512
		C102.518,29.795,75.753,21.011,55.824,27c-24.178,7.266-41.093,39.946-27.01,61.542C6.258,81.527-2.785,112.701,0.739,132.519
		c5.035,28.31,41.396,40.278,54.553,14.217c11.785,30.774,78.282,34.788,76.089,0.931c5.357,3.986,18.178,5.453,20.989,5.75
		c18.019,1.903,33.05-6.703,40.854-23.055C206.619,102.3,178.306,56.349,147.283,67.732z M190.874,125.178
		c-3.804,14.323-18.186,25.007-32.886,24.727c-5.262-0.1-25.437-0.977-27.083-8.021c-0.094-0.401-0.514-0.563-0.875-0.486
		c-1.175-1.119-3.582-0.076-3.207,1.949c3.504,18.895-14.236,24.636-29.801,24.331c-16.824-0.33-33.644-8.865-40.115-24.69
		c0.277-0.746,0.553-1.492,0.797-2.287c0.085-0.274-0.152-0.633-0.459-0.602c-0.801,0.08-1.161,0.182-1.518,0.428
		c-0.753-0.672-2.086-0.127-1.878,1.114c0.032,0.194,0.097,0.374,0.133,0.565c-4.948,5.138-4.961,11.039-13.284,14.31
		c-15.638,6.144-31.223-6.068-35.261-20.616c-5.254-18.928,2.028-54.937,28.314-41.12c2.096,1.101,3.913-1.974,1.858-3.179
		c-0.775-0.454-1.533-0.855-2.283-1.229c-14.679-21.739,0.411-50.602,23.545-59.569c9.794-3.796,21.12-2.543,30.398,1.952
		c11.463,5.553,13.44,16.633,12.7,28.093c-0.122,1.883,2.78,2.215,3.241,0.439c0.319-1.231,0.472-2.393,0.649-3.564
		c5.577-10.871,15.861-16.832,28.395-13.23c4.895,1.407,9.027,4.729,11.393,9.212c3.3,6.256-0.387,11.931-3.138,17.413
		c-0.015,0.009-0.029,0.016-0.043,0.025c-2.174,1.404-0.157,4.894,2.034,3.48C173.212,54.798,197.691,99.5,190.874,125.178z"/>
</g>
<g>
</g>
<g>
</g>
<g>
</g>
<g>
</g>
<g>
</g>
<g>
</g>
<g>
</g>
<g>
</g>
<g>
</g>
<g>
</g>
<g>
</g>
<g>
</g>
<g>
</g>
<g>
</g>
<g>
</g>
</svg>
