<?xml version="1.0" encoding="iso-8859-1"?>
<!-- Generator: Adobe Illustrator 16.0.0, SVG Export Plug-In . SVG Version: 6.00 Build 0)  -->
<!DOCTYPE svg PUBLIC "-//W3C//DTD SVG 1.1//EN" "http://www.w3.org/Graphics/SVG/1.1/DTD/svg11.dtd">
<svg version="1.1" id="Capa_1" xmlns="http://www.w3.org/2000/svg" xmlns:xlink="http://www.w3.org/1999/xlink" x="0px" y="0px"
	 width="193.907px" height="193.908px" viewBox="0 0 193.907 193.908" style="enable-background:new 0 0 193.907 193.908;"
	 xml:space="preserve">
<g>
	<g>
		<path d="M191.677,74.631c0.005-0.005,0.011-0.008,0.017-0.013c2.228-2.196,0.453-5.603-2.402-5.799
			c2.229,0.153,1.059-0.188-0.562-1.299c-1.842-1.263-3.486-2.742-5.137-4.242c-4.856-4.412-9.406-9.173-14.05-13.804
			c-7.516-7.496-16.607-18.606-27.419-21.246c-0.312-0.076-0.592-0.05-0.882-0.055c-0.103-1.45-1.143-2.865-2.594-3.348
			c-7.81-2.601-19.722,0.045-28.088-0.236c-13.174-0.443-26.316-1.292-39.505-1.246c-8.406,0.029-17.347,0.287-25.063,3.926
			c-0.716,0.338-1.486,1.109-2.093,2.027c-0.081,0.002-0.161-0.02-0.243-0.009c-8.374,1.12-15.034,11.433-20.21,17.46
			c-7.806,9.09-15.476,18.434-22.708,27.987c-2.83,3.739,3.164,7.989,6.323,4.879c7.631-7.509,14.034-16.277,20.919-24.456
			c3.396-4.034,6.914-7.954,10.578-11.746c2.759-2.856,5.918-4.898,7.772-8.251c3.153,0.352,6.867-1.344,9.756-1.853
			c11.213-1.974,23.237-0.879,34.535-0.421c11.257,0.456,35.536,5.769,47.03-0.452c0.152,0.942,0.642,1.849,1.65,2.489
			c11.811,7.489,21.435,18.587,31.253,28.405c2.789,2.788,9.145,10.747,14.927,12.568c-0.027,0.041-0.06,0.069-0.087,0.111
			c-14.484,22.597-37.861,40.184-57.217,58.565c-6.639,6.305-27.099,18.657-28.968,29.34c-0.214-0.286-0.465-0.567-0.784-0.833
			C66.86,136.995,34.957,112.774,7.25,82.584c-1.973-2.149-6.486-0.618-6.112,2.531c1.883,15.855,26.109,31.484,37.064,40.807
			c17.585,14.964,36.042,28.842,53.842,43.538c2.828,2.335,6.442,0.619,7.555-1.892c0.743,0.979,2.141,1.252,3.266,0.264
			c8.872-7.791,23.786-19.393,34.131-29.112c19.281-18.117,41.985-35.579,56.188-58.16C194.73,78.108,193.594,75.772,191.677,74.631
			z"/>
		<path d="M154.131,81.365c0.605-1.19,0.353-2.825-0.527-3.802c1.06,1.176-0.547-0.937-0.484-0.857
			c-0.296-0.371-1.155-1.496-1.803-2.038c-2.243-1.882-4.414-3.84-6.561-5.829c-4.235-3.92-7.757-8.495-11.854-12.488
			c-0.628-0.612-1.329-0.87-2.012-0.893c-0.529-1.458-1.79-2.623-3.795-2.637c-7.944-0.059-20.296-3.089-27.235,2.038
			c-0.497,0.368-0.819,0.842-1.066,1.346c-2.599-1.144-6.39,0.141-6.479,3.874c-0.608,25.734-8.378,53.084-0.163,78.219
			c0.938,2.871,5.368,2.932,6.17,0.357c0.893,0.491,1.986,0.667,3.153,0.161c12.438-5.392,22.446-15.043,31.587-24.815
			c6.837-7.31,20.01-20.1,21.494-30.287C154.675,82.897,154.49,82.077,154.131,81.365z M128.263,61.125
			c1.933,5.392,7.65,10.525,11.337,14.281c1.939,1.976,4.602,5.071,7.554,6.639c-0.634,0.636-1.197,1.323-1.74,2.031
			c-1.461-1.046-3.218-1.785-4.729-2.703c-3.947-2.395-7.609-5.249-11.209-8.126c-5.007-4-9.557-8.477-14.107-12.963
			c3.976,0.339,7.962,0.919,11.728,0.983C127.521,61.276,127.902,61.215,128.263,61.125z M98.136,133.023
			c-0.253-3.613-0.343-7.207-0.363-10.793c1.453,1.326,2.942,2.615,4.5,3.826c0.945,0.733,1.975,1.595,3.071,2.346
			C103.021,130.047,100.637,131.613,98.136,133.023z M109.491,125.285c-1.813-1.091-3.991-1.934-5.593-2.983
			c-2.116-1.388-4.128-2.928-6.093-4.525c0.064-4.119,0.256-8.226,0.498-12.329c2.315,2.826,4.747,5.556,7.298,8.177
			c2.254,2.318,5.561,6.26,9.079,7.243C112.994,122.392,111.27,123.871,109.491,125.285z M129.193,105.553
			c-3.596,4.308-7.399,8.449-11.417,12.352c-2.746-2.691-6.409-4.555-9.364-7.092c-3.54-3.038-6.814-6.454-9.81-10.042
			c0.544-7.842,1.229-15.682,1.769-23.557c4.816,6.26,10.879,11.808,16.482,17.165c2.071,1.979,8.125,9.278,12.833,10.566
			C129.521,105.146,129.361,105.353,129.193,105.553z M133.107,100.735c-0.528-0.45-1.241-0.702-2.102-0.501
			c1.367-0.319,1.175-0.103-0.215-0.974c-1.018-0.64-2.06-1.236-3.077-1.875c-3.621-2.27-6.915-5.226-10.194-7.953
			c-5.922-4.924-11.951-10.21-16.884-16.208c0.133-2.22,0.194-4.455,0.29-6.683c6.506,5.854,12.677,12.109,18.924,18.23
			c3.176,3.112,6.325,6.306,9.348,9.567c1.237,1.334,3.46,3.454,5.515,3.276c0.453-0.039,0.819-0.178,1.146-0.36
			C134.943,98.416,134.036,99.584,133.107,100.735z M136.948,95.873c0.07-0.214,0.146-0.424,0.176-0.672
			c0.062-0.489-0.144-1.021-0.411-1.419c-0.219-0.324-0.531-0.549-0.872-0.725c0.802,0.258-0.372-0.529-0.892-1.14
			c-0.921-1.084-2.251-1.85-3.342-2.753c-3.683-3.046-7.256-6.226-10.77-9.465c-6.092-5.615-12.048-11.537-18.698-16.497
			c-0.351-0.26-0.716-0.312-1.062-0.247c0.017-0.555,0.062-1.104,0.072-1.659c0.412,0.026,0.861-0.023,1.347-0.178
			c2.9-0.92,5.974-1.146,9.101-1.062c4.693,6.404,10.664,11.943,16.401,17.372c3.453,3.267,8.797,9.34,14.014,11.578
			c-0.081,0.119-0.157,0.236-0.24,0.356C140.226,91.579,138.603,93.738,136.948,95.873z"/>
		<path d="M122.624,104.656c-1.444-2.563-4.25-3.658-6.553-5.297c-4.926-3.505-9.285-7.415-13.585-11.638
			c-1.328-1.304-3.699,0.408-2.626,2.026c3.255,4.903,8.279,8.816,12.817,12.472c2.571,2.071,4.926,4.789,8.347,5.223
			C122.486,107.627,123.243,105.754,122.624,104.656z"/>
	</g>
</g>
<g>
</g>
<g>
</g>
<g>
</g>
<g>
</g>
<g>
</g>
<g>
</g>
<g>
</g>
<g>
</g>
<g>
</g>
<g>
</g>
<g>
</g>
<g>
</g>
<g>
</g>
<g>
</g>
<g>
</g>
</svg>
