<?xml version="1.0" encoding="iso-8859-1"?>
<!-- Generator: Adobe Illustrator 16.0.0, SVG Export Plug-In . SVG Version: 6.00 Build 0)  -->
<!DOCTYPE svg PUBLIC "-//W3C//DTD SVG 1.1//EN" "http://www.w3.org/Graphics/SVG/1.1/DTD/svg11.dtd">
<svg version="1.1" id="Capa_1" xmlns="http://www.w3.org/2000/svg" xmlns:xlink="http://www.w3.org/1999/xlink" x="0px" y="0px"
	 width="189.91px" height="189.91px" viewBox="0 0 189.91 189.91" style="enable-background:new 0 0 189.91 189.91;"
	 xml:space="preserve">
<g>
	<g>
		<path d="M153.231,55.167c-0.669,0.254-1.292,0.58-1.897,0.935c-9.805-0.783-19.959-0.383-29.87-0.288
			c-0.894-0.824-1.815-1.622-2.727-2.432c0.733-8.309,1.34-16.638,1.96-24.954c0.545-7.299,2.588-17.02-1.004-23.728
			c-0.69-1.289-1.989-1.647-3.171-1.361c-3.726-3.195-9.782-2.854-14.5-3.15c-8.16-0.514-16.544,0.091-24.659,0.968
			c-0.956,0.103-1.573,0.606-1.918,1.229c-2.238-0.398-4.827,0.876-4.862,3.832c-0.168,13.9-0.856,27.823-0.89,41.731
			c-0.032-0.014-0.06-0.031-0.091-0.044c-1.049-0.452-1.97,0.981-0.919,1.573c0.35,0.198,0.681,0.438,1.028,0.645
			c0.008,2.647-0.011,5.295,0.061,7.941c-3.772-1.249-8.588-0.931-12.036-1.017c-6.089-0.151-12.328-0.033-18.391,0.605
			c-1.829,0.192-2.843,1.461-3.098,2.835c-0.063-0.031-0.123-0.067-0.186-0.099c-2.699-1.336-4.793,2.301-2.343,4.008
			c23.953,16.685,42.566,39.024,61.523,60.955c2.811,3.254,7.223-0.488,6.133-3.944c0.542-0.281,1.033-0.68,1.349-1.351
			c5.841-12.411,18.664-22.932,28.159-32.507c5.891-5.94,11.859-11.804,17.785-17.71c3.093-3.081,7.56-6.247,8.537-10.699
			C157.688,56.957,155.689,54.231,153.231,55.167z M97.06,6.535c5.233,0.222,11.049,2.62,16.336,2.549
			c-0.646,4.421-0.302,9.355-0.124,13.993c-3.375-2.095-6.823-4.092-10.044-6.46c-4.635-3.407-9.122-6.996-13.842-10.286
			C91.945,6.381,94.505,6.426,97.06,6.535z M87.341,6.284c-0.669,0.669-0.838,1.976,0.152,2.73
			c8.179,6.228,16.285,15.253,25.824,19.802c-0.072,2.084-0.158,4.173-0.244,6.26c-3.992-4.342-9.115-7.911-13.706-11.413
			c-6.87-5.241-13.755-10.457-20.717-15.575c0.001-0.623,0.017-1.246,0.014-1.869c0-0.118-0.025-0.219-0.034-0.332
			C81.529,6.121,84.434,6.216,87.341,6.284z M78.622,11.815c5.469,4.361,11.058,8.569,16.544,12.911
			c6.075,4.808,11.418,10.82,17.745,15.246c-0.094,2.756-0.183,5.511-0.179,8.265c-10.794-8.879-22.504-16.754-34.381-23.388
			C78.492,20.505,78.577,16.159,78.622,11.815z M96.865,115.613C81.214,97.133,64.084,76.93,43.194,64.337
			c3.075,0.025,6.152,0.014,9.228,0.028c0.077,0.232,0.196,0.456,0.4,0.65c8.848,8.453,17.403,17.164,26.063,25.807
			c6.279,6.267,13.568,13.964,22.022,17.469C99.339,110.665,97.926,113.093,96.865,115.613z M103.148,105.104
			c-7.012-7.238-15.848-13.163-23.202-20.117c-7.327-6.929-14.388-14.15-22.224-20.5c4.096,0.327,8.744,1.376,12.771,0.863
			c4.59,8.91,29.923,30.842,36.326,35.299C105.557,102.113,104.293,103.582,103.148,105.104z M109.81,97.301
			c-4.978-4.338-30.607-25.374-37.336-32.346c0.035-0.01,0.074-0.014,0.109-0.025c1.661-0.506,2.178-2.153,1.59-3.565
			c1.33-0.353,2.477-1.401,2.58-3.208c0.057-1.008,0.112-2.019,0.169-3.028C84.843,61.49,91.8,69.607,98.69,76.624
			c3.595,3.661,10.462,12.958,16.913,14.693C113.667,93.261,111.715,95.249,109.81,97.301z M123.162,83.731
			c-1.359,1.391-2.802,2.83-4.268,4.29c-16.199-8.575-26.421-25.968-41.797-36.038c0.188-3.338,0.368-6.678,0.539-10.019
			c7.992,7.439,16.006,14.856,23.987,22.306c6.202,5.789,14.427,15.923,23.191,17.758c0.013,0.003,0.023-0.001,0.036,0.001
			C124.291,82.599,123.722,83.16,123.162,83.731z M127.131,79.734c-0.102-0.438-0.366-0.855-0.857-1.162
			c-17.805-11.114-31.731-27.299-48.482-39.763c0.164-3.347,0.274-6.697,0.402-10.046c12.368,7.845,23.983,16.445,34.734,26.114
			c0.037,0.679,0.032,1.358,0.084,2.036c0.105,1.405,0.946,2.217,1.933,2.494c0.253,0.577,0.726,1.052,1.508,1.214
			c1.059,0.219,2.156,0.394,3.235,0.592c4.132,4.033,8.139,8.226,11.991,12.631c0.238,0.274,0.5,0.442,0.763,0.581
			C130.672,76.195,128.894,77.956,127.131,79.734z M142.851,64.022c-2.323,2.32-4.642,4.645-6.965,6.962
			c-0.11-0.293-0.249-0.584-0.486-0.859c-2.232-2.585-4.583-5.103-7-7.577c4.952,0.596,9.981,0.96,14.935,0.973
			C143.174,63.686,143.015,63.858,142.851,64.022z"/>
		<path d="M152.942,148.618c-3.269-3.125-4.915-2.66-9.861-3.259c-11.533-1.399-23.092-2.535-34.675-3.432
			c-2.92-0.226-5.856-0.402-8.802-0.546c-0.21-0.193-0.433-0.372-0.643-0.566c-0.854-0.802-1.953-0.336-2.361,0.455
			c-17.643-0.675-35.582,0.233-52.78,3.667c-0.968,0.192-1.498,0.903-1.683,1.72c-1.067-0.876-2.77-1.062-3.709,0.108
			c-3.169,3.949-3.298,9.16-3.427,14.154c-1.317-0.028-2.481,1.527-1.239,2.623c0.394,0.348,0.766,0.722,1.156,1.075
			c-0.156,7.022,0.273,14.065,0.32,21.087c0.018,2.531,2.382,4.169,4.766,3.63c2.103-0.475,4.168-0.695,6.203-0.976
			c0.556,1.05,1.654,1.812,3.145,1.468c32.553-7.505,65.555-4.719,98.619-4.626c1.053,0.426,2.235,0.277,2.783-0.761
			c1.414-1.128,1.671-3.268,0.767-4.799c0.626-5.041,1.133-10.104,1.664-15.149c0.299-2.843,0.954-7.136-0.318-10.165
			C154.361,152.837,154.61,150.213,152.942,148.618z M143.226,152.479c0.362,0.843,0.992,1.584,1.837,1.906
			c0.159,0.061,0.297,0.111,0.45,0.169c0.006,0.163-0.011,0.318,0.015,0.486c0.652,4.288,0.589,8.589,0.444,12.889
			c-4.084-4.27-8.99-8.017-13.324-11.998c-1.791-1.644-3.595-3.273-5.434-4.859C132.45,151.179,138.842,151.36,143.226,152.479z
			 M54.303,182.852c-0.4-0.447-0.941-0.771-1.599-0.786c-3.417-0.078-6.699-0.542-10.013-0.49c-0.06-3.285-0.132-6.57-0.188-9.856
			c1.352,1.298,2.698,2.604,4.074,3.877c2.452,2.269,5.412,5.248,8.629,7.095C54.906,182.751,54.603,182.789,54.303,182.852z
			 M60.287,181.778c-3.247-3.868-8.449-6.508-12.271-9.883c-1.877-1.658-3.717-3.352-5.571-5.029
			c-0.002-0.479-0.017-0.957-0.017-1.438c0.001-3.629,0.763-7.433,0.985-11.142c3.925,4.421,7.982,8.717,12.33,12.737
			c4.037,3.732,10.293,10.354,16.141,10.448c1.247,0.021,1.714-1.464,0.96-2.318c-1.727-1.957-4.226-3.04-6.402-4.448
			c-3.403-2.202-6.51-4.85-9.563-7.503c-4.801-4.173-9.259-8.749-13.561-13.439c-0.008-0.062-0.007-0.125-0.016-0.187
			c0.338,0.181,0.716,0.303,1.179,0.257c2.002-0.2,3.984-0.31,5.977-0.47c0.035,0.041,0.052,0.088,0.096,0.126
			c11.416,9.716,23.917,21.888,37.479,29.102C78.735,179.19,69.472,180.148,60.287,181.778z M94.195,178.23
			c-0.098-0.225-0.244-0.443-0.495-0.642c-6.215-4.903-13.264-8.783-19.763-13.32c-6.919-4.83-13.553-10.062-20.278-15.157
			c4.422-0.31,8.828-0.497,13.232-0.628c6.561,5.938,13.316,11.646,20.164,17.251c4.739,3.879,9.656,8.704,14.97,12.252
			C99.414,178.058,96.802,178.109,94.195,178.23z M109.17,177.814c-0.075-0.129-0.131-0.26-0.24-0.384
			c-4.705-5.265-11.623-9.104-17.251-13.348c-6.743-5.084-13.365-10.328-19.877-15.705c3.661-0.055,7.327-0.036,10.999,0.021
			c7.713,5.563,15.318,11.273,22.689,17.283c4.682,3.817,9.001,8.068,13.48,12.114C115.704,177.798,112.437,177.769,109.17,177.814z
			 M126.173,177.784c-9.938-11.459-23.854-20.857-36.997-29.196c2.454,0.083,4.901,0.137,7.371,0.275
			c2.376,0.133,4.751,0.338,7.125,0.521c5.492,4.995,11.226,9.725,16.896,14.524c5.081,4.301,9.608,9.255,14.302,13.953
			C131.971,177.834,129.074,177.802,126.173,177.784z M142.418,177.928c-4.217-5.983-11.213-10.848-16.55-15.178
			c-5.398-4.379-10.935-8.569-16.347-12.914c3.554,0.315,7.105,0.651,10.654,0.987c0.595,0.056,1.312,0.096,2.114,0.128
			c3.203,2.816,6.351,5.688,9.37,8.727c4.239,4.265,8.192,9.305,13.223,12.647c0.32,0.214,0.633,0.284,0.935,0.299
			c-0.051,1.78-0.081,3.558-0.038,5.334C144.659,177.948,143.536,177.939,142.418,177.928z"/>
	</g>
</g>
<g>
</g>
<g>
</g>
<g>
</g>
<g>
</g>
<g>
</g>
<g>
</g>
<g>
</g>
<g>
</g>
<g>
</g>
<g>
</g>
<g>
</g>
<g>
</g>
<g>
</g>
<g>
</g>
<g>
</g>
</svg>
