<?xml version="1.0" encoding="iso-8859-1"?>
<!-- Generator: Adobe Illustrator 16.0.0, SVG Export Plug-In . SVG Version: 6.00 Build 0)  -->
<!DOCTYPE svg PUBLIC "-//W3C//DTD SVG 1.1//EN" "http://www.w3.org/Graphics/SVG/1.1/DTD/svg11.dtd">
<svg version="1.1" id="Capa_1" xmlns="http://www.w3.org/2000/svg" xmlns:xlink="http://www.w3.org/1999/xlink" x="0px" y="0px"
	 width="193.818px" height="193.818px" viewBox="0 0 193.818 193.818" style="enable-background:new 0 0 193.818 193.818;"
	 xml:space="preserve">
<g>
	<path d="M192.802,100.548c-1.928-5.638-5.485-11.132-9.247-15.709c-3.205-3.898-6.651-11.111-12.131-12.373
		c-5.591-1.287-10.087,1.355-14.562,4.56c-1.727,1.236-8.375,9.375-10.684,9.683c0.672-6.38,1.466-12.764,2.234-19.169
		c0.106-0.896-0.685-1.603-1.431-1.877c-14.259-5.253-29.548-4.143-44.478-3.26c-19.095,1.129-38.164-0.364-56.797,4.708
		c-0.831,0.226-1.443,1.017-1.435,1.883c0.043,3.982,0.123,7.957,0.208,11.929C38.969,73.655,31,65.473,21.804,69.732
		c-11.573,5.36-17.929,19.326-21.225,30.98c-1.587,5.613-0.263,17.28,8.345,14.266c4.011-1.406,7.031-5.457,9.469-10.022
		c0.167,2.883,1.251,5.301,4.13,6.381c5.68,2.13,9.289-2.92,11.455-8.387c1.918,4.964,5.956,7.575,10.709,4.206
		c-0.042,2.639-0.069,5.275-0.185,7.918c-0.157,3.611-1.223,10.057,1.763,13.043c-0.013-0.001-0.025,0-0.038-0.001
		c-2.447-0.142-2.413,3.61,0,3.785c13.638,0.99,27.228-1.09,40.825-1.978c18.691-1.22,37.777-0.151,56.507-0.15
		c0.968,0,2.065-0.889,1.944-1.943c-0.618-5.386-0.855-10.744-0.85-16.092c5.392,4.267,10.704,1.013,13.51-4.289
		c2.438,4.733,6.766,9.765,11.728,7.407c3.452-1.64,4.599-4.402,4.651-7.536c2.604,3.726,5.734,6.932,9.363,8.273
		C194.094,119.356,195.082,107.214,192.802,100.548z M36.603,101.017c-0.489-2.195-0.568-4.395-0.24-6.601
		c0.156-1.974-3.076-2.408-3.452-0.467c-0.368,1.897-0.885,3.727-1.471,5.568c-0.136,0.426-6.131,14.683-9.265,6.696
		c-1.663-4.235,1.447-10.756,2.447-14.976c0.429-1.809-2.239-3.107-3.107-1.31c-2.179,4.511-4.205,9.07-6.654,13.447
		c-1.521,2.722-3.3,5.257-5.545,7.426c-5.487,5.302-6.184-4.824-5.829-7.168c0.316-2.087,1.084-4.128,1.766-6.114
		c2.778-8.11,7.247-15.7,13.497-21.574c9.165-8.614,19.128,1.05,25.799,8.311c0.121,5.74,0.217,11.475,0.211,17.214
		C42.042,101.318,39.322,101.169,36.603,101.017z M125.393,65.647c3.479,0.037,9.343-0.494,13.524,0.885
		c-3.12,5.206-12.185,9.348-16.874,13.237c-6.893,5.716-11.049,14.571-16.873,21.239c-11.45,13.108-42.868-20.151-54.537-28.889
		C62.428,63.685,115.055,65.538,125.393,65.647z M48.768,74.09c9.146,8.418,18.761,16.174,28.567,23.863
		c-1.674,1.567-3.08,3.611-4.571,5.252c-2.86,3.147-5.893,6.14-8.936,9.107c-2.999,2.925-6.14,5.688-9.32,8.409
		c-1.481,1.267-3.932,2.494-5.563,4.029c1.762-8.45-0.648-47.212-0.688-48.783C48.238,75.298,48.441,74.679,48.768,74.09z
		 M129.222,125.887c-26.664,0.001-54.11,3.562-80.664,2.311c0.103-0.142,0.205-0.284,0.307-0.427
		c0.881,0.104,1.853-0.58,2.569-0.943c3.701-1.881,7.003-4.871,10.143-7.542c4.134-3.519,8.054-7.279,11.839-11.168
		c2.156-2.216,5.27-4.875,6.896-7.819c4.797,3.784,14.277,12.053,21.047,8.211c4.647-2.637,8.114-6.414,11.281-10.504
		c0.798,1.236,2.324,2.381,3.15,3.172c3.038,2.911,6.143,5.752,9.208,8.635c3.258,3.065,6.546,6.094,9.726,9.24
		c1.197,1.183,2.372,2.388,3.508,3.63c0.014,0.014,0.023,0.03,0.036,0.044C136.417,124.7,133.57,125.886,129.222,125.887z
		 M140.428,118.985c-3.194-3.64-8.278-7.464-9.44-8.529c-3.821-3.503-7.729-6.92-11.672-10.285c-1.185-1.012-3.253-3.382-5.11-4.203
		c3.382-4.585,6.547-9.411,10.593-13.445c2.896-2.887,15.582-8.784,17.258-14.207c1.299,1.249,2.005,3.041,1.693,5.644
		c-0.81,6.757-1.608,13.505-2.295,20.275C140.643,102.231,142.727,112.366,140.428,118.985z M186.13,112.588
		c-6.664-1.001-12.43-13.048-14.701-18.646c-0.841-2.074-4.077-1.328-3.443,0.949c0.718,2.576,1.534,5.119,2.252,7.694
		c1.663,4.118-1.06,5.67-8.167,4.654c-1.121-1.63-1.868-3.401-2.239-5.314c-0.442-1.685-3.106-1.779-3.492,0
		c-0.375,4.565-3.721,6.718-10.039,6.456c-0.497-0.478-1.064-0.564-1.584-0.449c0.152-6.64,0.643-13.265,1.32-19.889
		c1.462,0.849,4.206-1.496,5.103-2.174c2.885-2.18,5.504-4.7,8.53-6.692c8.315-5.475,13.164-2.706,18.477,4.459
		c2.453,3.308,4.953,6.544,7.161,10.027C186.22,95.1,196.312,114.116,186.13,112.588z"/>
</g>
<g>
</g>
<g>
</g>
<g>
</g>
<g>
</g>
<g>
</g>
<g>
</g>
<g>
</g>
<g>
</g>
<g>
</g>
<g>
</g>
<g>
</g>
<g>
</g>
<g>
</g>
<g>
</g>
<g>
</g>
</svg>
