<?xml version="1.0" encoding="iso-8859-1"?>
<!-- Generator: Adobe Illustrator 16.0.0, SVG Export Plug-In . SVG Version: 6.00 Build 0)  -->
<!DOCTYPE svg PUBLIC "-//W3C//DTD SVG 1.1//EN" "http://www.w3.org/Graphics/SVG/1.1/DTD/svg11.dtd">
<svg version="1.1" id="Capa_1" xmlns="http://www.w3.org/2000/svg" xmlns:xlink="http://www.w3.org/1999/xlink" x="0px" y="0px"
	 width="192.648px" height="192.648px" viewBox="0 0 192.648 192.648" style="enable-background:new 0 0 192.648 192.648;"
	 xml:space="preserve">
<g>
	<g>
		<path d="M190.669,72.453c-4.632-11.38-17.416-18.293-28.638-21.362c-4.096-1.12-12.385-1.804-17.918,0.415
			c0.76-22.683-20.666-39.717-41.9-41.986C75.55,6.669,47.671,26.215,44.037,52.682C23.285,48.858-3.034,65.486,0.285,87.895
			c1.883,12.714,8.71,21.831,21.078,25.7c5.417,1.694,18.799,3.221,26.803,0.593c2.216,9.646,12.72,17.98,22.742,14.619
			c2.193-0.735,2.779-4.666,0-5.043c-5.677-0.771-10.297-2.114-13.612-7.155c-1.372-2.085-1.377-5.333-3.106-7.062
			c-0.568-0.568-1.169-0.886-1.78-1.026c-4.71-2.821-13.365-0.403-18.56-0.505c-11.892-0.233-21.477-4.825-25.324-16.62
			C4.771,79.88,10.41,70.035,20.392,64.534c9.208-5.074,18.664-3.275,28.477-4.245c3.49-0.345,4.026-4.611,0.895-5.954
			c5.409-22.636,25.066-35.243,48.069-37.122c11.74-0.959,23.607,4.352,30.71,13.567c6.325,8.206,5.732,18.08,9.182,27.224
			c0.243,0.645,0.702,1.151,1.251,1.507c0.349,0.529,0.913,0.927,1.544,0.868c6.257-0.587,10.337-3.654,17.23-2.503
			c8.735,1.459,16.984,6.496,22.88,12.959c8.307,9.104,3.379,22.207-3.646,30.272c-7.991,9.172-17.488,9.974-28.335,8.674
			c-0.989-1.694-3.237-2.509-5.094-0.705c-2.973,2.887-5.857,5.535-9.401,7.731c-1.485,0.92-3.061,1.786-4.675,2.46
			c-0.667,0.278-1.327,0.511-1.935,0.91c-0.416,0.245-0.748,0.575-1.04,0.944c-0.025,0.017-0.034,0.02-0.067,0.041
			c-2.45,1.447-1.598,4.589,0.722,5.528c3.564,1.441,7.136-0.908,10.17-2.664c3.203-1.854,6.729-4.287,9.229-7.314
			c11.059,5.633,25.301-0.844,33.971-8.209C190.592,99.956,195.744,84.919,190.669,72.453z"/>
		<path d="M127.104,139.702c-2.387-2.545-6.933-1.475-9.99-1.21c-3.447,0.299-7.284,0.427-10.85,1.135
			c0.092-0.239,0.178-0.487,0.194-0.788c0.993-17.124,1.948-34.318,1.901-51.474c-0.009-3.588-5.067-3.794-5.832-0.717
			c-4.565,1.808-9.714,1.786-14.763,1.711c-0.259-0.172-0.528-0.324-0.785-0.5c-0.494-0.339-1.057,0.009-1.263,0.473
			c-1.008-0.012-2.011-0.017-2.998,0.001c-1.376-2.11-5.425-1.623-5.407,1.543c0.037,6.655,0.274,13.303,0.578,19.949
			c-0.022,0.136-0.014,0.275,0.02,0.418c0.136,2.922,0.253,5.845,0.424,8.765c-0.573,0.402-0.86,1.227-0.223,1.893
			c0.118,0.122,0.24,0.243,0.357,0.365c0.183,2.984,0.376,5.969,0.585,8.951c-0.699-0.628-1.405-1.247-2.105-1.876
			c-0.621-0.557-1.471,0.293-0.913,0.913c1.06,1.181,2.135,2.344,3.199,3.519c0.116,1.604,0.221,3.209,0.341,4.812
			c0.018,0.235,0.09,0.428,0.162,0.618c-2.572-1.32-5.111-0.85-7.978-0.85c-3.662,0-7.353-0.216-10.982-0.715
			c-2.822-0.389-4.161,3.716-1.214,4.404c0.27,0.063,0.54,0.091,0.81,0.15c5.918,14.928,17.305,27.293,25.955,40.667
			c1.087,1.681,3.472,2.137,4.944,0.637c10.262-10.451,20.818-22.576,28.935-34.788c0.647-0.974,0.37-2.224-0.343-3.075
			c2.628,0.182,5.515,0.206,7.239-1.634C127.993,142.049,127.994,140.651,127.104,139.702z M102.289,91.771
			c-0.039,1.802-0.099,3.607-0.147,5.41c-1.894-1.715-4.232-2.87-6.466-4.088c-0.631-0.345-1.245-0.71-1.87-1.062
			C96.63,92.053,99.456,91.989,102.289,91.771z M89.517,91.922c1.003,0.717,2.011,1.427,3.013,2.149
			c2.71,1.95,5.362,4.336,8.323,5.87c0.423,0.219,0.843,0.206,1.21,0.069c-0.045,1.521-0.079,3.043-0.125,4.564
			c-1.637-1.052-3.698-1.831-5.099-2.712c-3.734-2.349-7.245-5.06-10.536-7.993c-1.391-1.24-3.334,0.677-2.049,2.05
			c2.706,2.892,5.751,5.351,8.937,7.692c2.097,1.54,5.692,4.854,8.629,5.267c-0.067,2.333-0.141,4.666-0.191,7
			c-2.601-1.644-5.133-4.277-6.851-5.774c-3.728-3.248-7.274-6.72-11.164-9.778c-0.071-0.056-0.148-0.075-0.223-0.114
			c-0.069-2.886-0.138-5.772-0.167-8.658C85.327,91.722,87.423,91.836,89.517,91.922z M89.97,121.907
			c3.158,2.674,7.403,6.917,11.601,8.038c0.034,2.712,0.055,5.425,0.175,8.135c-6.081-4.991-12.076-10.075-17.91-15.379
			c-0.002-2.101-0.035-4.201-0.069-6.301C85.784,118.291,87.86,120.12,89.97,121.907z M83.696,112.617
			c-0.069-3.071-0.154-6.141-0.233-9.212c4.282,3.83,8.236,8.026,12.526,11.852c1.483,1.323,3.455,3.325,5.583,4.393
			c-0.03,2.036-0.062,4.071-0.063,6.105c-2.657-1.928-5.892-3.453-8.43-5.339C89.81,117.988,86.735,115.323,83.696,112.617z
			 M89.335,175.253c-7.923-11.34-16.754-22.018-24.803-33.287c1.475,0.219,2.966,0.359,4.46,0.495
			c-0.012,0.145,0.001,0.301,0.051,0.468c1.898,6.274,7.478,11.851,11.765,16.584c3.412,3.767,7.548,9.312,12.544,11.104
			C92.036,172.183,90.702,173.732,89.335,175.253z M95.549,167.948c-0.065-0.087-0.112-0.181-0.2-0.258
			c-8.604-7.53-17.23-15.362-23.576-24.954c1.812,0.173,3.611,0.304,5.349,0.04c4.418,5.297,8.444,10.952,12.816,16.272
			c1.875,2.281,3.635,4.758,6.364,5.806c0.647,0.248,1.243,0.215,1.729-0.002C97.201,165.884,96.387,166.924,95.549,167.948z
			 M99.149,163.456c0.081-0.346,0.097-0.725,0.006-1.126c-0.177-0.787-0.791-1.026-1.396-0.93c-0.143-0.122-0.331-0.27-0.595-0.461
			c-0.854-0.624-1.618-1.317-2.377-2.054c-2.414-2.345-4.64-4.892-6.872-7.407c-2.761-3.113-5.361-6.412-8.147-9.524
			c0.085-0.044,0.175-0.056,0.258-0.104c0.914-0.519,1.151-1.63,0.799-2.521c1.095,0.404,2.523-0.172,2.624-1.745
			c0.004-0.056,0.004-0.111,0.008-0.167c3.144,3.414,6.321,6.796,9.588,10.101c2.768,2.799,7.005,8.494,11.427,9.297
			C102.697,159.024,100.922,161.239,99.149,163.456z M106.679,154.025c-0.206-0.26-0.468-0.487-0.829-0.611
			c-1.379-0.474-3.381-2.737-4.513-3.638c-2.68-2.135-5.255-4.407-7.826-6.671c-3.317-2.923-6.604-5.88-9.901-8.827
			c0.116-2.525,0.136-5.052,0.168-7.578c5.531,5.604,11.235,11.076,17.204,16.22c0.086,0.858,0.71,1.623,1.874,1.639
			c0.018,0,0.035,0,0.052,0c2.236,1.881,4.508,3.713,6.822,5.484C108.666,151.36,107.666,152.731,106.679,154.025z M112.59,146.927
			c-0.993-0.809-1.984-1.614-2.978-2.421c2.099-0.037,4.199-0.075,6.301-0.046C114.704,145.108,113.613,145.966,112.59,146.927z"/>
	</g>
</g>
<g>
</g>
<g>
</g>
<g>
</g>
<g>
</g>
<g>
</g>
<g>
</g>
<g>
</g>
<g>
</g>
<g>
</g>
<g>
</g>
<g>
</g>
<g>
</g>
<g>
</g>
<g>
</g>
<g>
</g>
</svg>
