<?xml version="1.0" encoding="iso-8859-1"?>
<!-- Generator: Adobe Illustrator 16.0.0, SVG Export Plug-In . SVG Version: 6.00 Build 0)  -->
<!DOCTYPE svg PUBLIC "-//W3C//DTD SVG 1.1//EN" "http://www.w3.org/Graphics/SVG/1.1/DTD/svg11.dtd">
<svg version="1.1" id="Capa_1" xmlns="http://www.w3.org/2000/svg" xmlns:xlink="http://www.w3.org/1999/xlink" x="0px" y="0px"
	 width="196.512px" height="196.512px" viewBox="0 0 196.512 196.512" style="enable-background:new 0 0 196.512 196.512;"
	 xml:space="preserve">
<g>
	<g>
		<path d="M193.625,109.302c-0.386-1.026-1.069-1.768-1.874-2.244c0.164-0.442,0.278-0.918,0.278-1.471
			c0-6.885-13.056-4.634-17.104-4.611c-9.445,0.055-18.91,0.011-28.35,0.342c-5.052,0.178-5.409,6.984-1.19,8.266
			c0.157,0.232,0.364,0.438,0.678,0.562c7.268,2.843,13.858,6.676,20.322,11.007c5.871,3.934,11.38,9.271,17.996,11.818
			c0.163,0.063,0.316,0.072,0.469,0.083c-0.474,9.895-1.052,19.781-1.385,29.695c-0.257-0.05-0.519-0.067-0.78-0.026
			c-2.614,0.405-14.412-12.631-16.513-14.42c-7.067-6.016-15.197-11.148-22.621-16.74c-15.576-11.73-31.02-23.597-46.923-34.883
			c11.859-0.979,23.722-1.23,35.624-1.272c0.897,3.278,1.049,6.67,0.438,10.179c-0.564,4.619,7.444,5.697,8.13,1.1
			c0.95-6.368,0.433-10.251-1.529-16.632c-0.553-1.801-2.146-3.092-4.063-3.093c-14.454-0.008-28.835,0.174-43.232,1.546
			c-2.353,0.224-4.22,1.774-4.269,4.269c-0.463,23.519-6.983,48.313-3.968,71.681c-0.314,2.279,2.37,3.931,4.452,3.597
			c11.994,7.835,29.526,7.613,43.254,7.976c18.873,0.498,37.741-1.378,56.606-1.54c2.689-0.023,4.796-2.191,4.854-4.854
			C193.333,151.042,200.318,127.104,193.625,109.302z M90.959,162.195c0.62-4.038,1.124-8.148,1.625-12.257
			c1.481,1.636,2.99,3.241,4.509,4.796c3.3,3.377,7.375,8.594,12.131,9.894c1.359,0.371,2.496-1.419,1.407-2.418
			c-5.714-5.238-12.102-9.995-17.613-15.547c0.229-2.001,0.403-4.021,0.606-6.03c5.405,5.189,11.001,10.16,16.705,15.034
			c4.075,3.481,7.969,7.251,11.975,10.862C111.803,166.071,101.347,164.846,90.959,162.195z M128.541,166.714
			c-4.778-4.953-10.591-9.139-15.9-13.359c-6.378-5.069-12.697-10.176-18.722-15.651c0.397-4.199,0.644-8.414,0.937-12.625
			c5.249,6.98,12.32,12.96,18.615,18.799c8.457,7.844,17.082,15.733,26.265,22.757C136,166.711,132.266,166.775,128.541,166.714z
			 M145.826,166.474c0.112-0.702-0.045-1.445-0.589-1.938c-1.47-1.326-2.777-2.518-4.066-4.041c-0.546-0.646-1.25-0.622-1.805-0.282
			c-2.748-2.445-6.34-5.203-7.073-5.8c-4.619-3.763-9.171-7.607-13.695-11.484c-8.021-6.874-15.477-14.418-23.486-21.278
			c0.124-1.975,0.21-3.939,0.318-5.91c18.547,11.676,37.518,25.269,52.663,40.908c2.72,2.808,14.731,14.651,14.808,3.382
			c0.017-2.428-3.256-2.639-4.024-0.544c0.695-1.894-18.928-15.668-22.687-18.342c-13.538-9.63-26.067-20.523-40.583-28.671
			c0.216-4.354,0.356-8.679,0.462-12.986c20.336,16.056,39.977,32.968,60.418,48.896c2.506,1.952,10.913,12.159,18.48,16.835
			C165.242,165.61,155.521,166.139,145.826,166.474z M185.574,110.444c-0.021,2.972-0.089,5.938-0.18,8.904
			c-2.438-1.854-5.105-3.505-7.527-5.134c-2.124-1.43-4.335-2.825-6.629-4.05c0.688,0.006,1.378,0.015,2.066,0.02
			C175.6,110.205,181.117,110.976,185.574,110.444z M168.308,117.866c-4.755-3.031-9.648-5.688-14.778-7.876
			c3.22,0.055,6.44,0.068,9.661,0.096c0.027,0.018,0.041,0.043,0.07,0.059c3.815,2.106,7.488,4.231,11.025,6.792
			c3.683,2.667,7.024,6.197,10.875,8.669c-0.046,1.124-0.08,2.248-0.129,3.371C180.105,124.625,173.811,121.375,168.308,117.866z"/>
		<path d="M192.083,50.038c-0.901-3.109-4.58-3.747-6.696-1.986c-0.618-0.708-1.508-1.165-2.656-1.216
			c-6.567-2.337-14.557-2.47-21.42-3.275c-19.373-2.271-38.599-3.221-58.106-2.199c-0.165,0.009-0.281,0.08-0.434,0.105
			c1.701-4.712,0.292-12.28,0.3-15.945c0.004-1.899-1.41-4.185-3.43-4.503c-28.693-4.524-57.595-2.222-86.449-0.741
			c-1.648-0.44-3.627,0.059-4.66,1.655C-2.45,38.897,0.235,67.029,0.42,86.238c0.258,26.751,2.074,53.48-0.13,80.197
			c-0.183,2.208,1.716,3.447,3.611,3.518c0.14,1.299,0.877,2.539,2.325,2.96c10.267,2.984,21.09,3.847,31.709,4.625
			c7.054,0.517,19.43,2.172,24.665-3.67c0.53-0.591,0.88-1.409,0.997-2.254c0.047,0.407,0.078,0.819,0.127,1.227
			c0.41,3.411,4.892,3.41,5.303,0c1.877-15.557,1.921-31.392,2.588-47.037c0.534-12.509,5.488-28.869,3.046-41.078
			c2.483-3.515,10.51-4.565,18.562-4.868c0.97,0.309,1.931,0.653,2.913,0.911c1.153,0.303,2.089-0.226,2.629-1.025
			c4.826-0.028,9.177,0.078,11.705-0.082c13.272-0.845,26.564-1.05,39.855-1.346c-0.304,4.394,0.337,8.805-0.494,13.192
			c-0.576,3.042,1.314,6.022,4.613,6.054c7.521,0.076,26.892,3.102,33.628-3.788c1.236-0.001,2.473-0.866,2.69-2.596
			c0.918-7.319,1.147-14.65,1.454-22.014C192.473,63.007,193.81,56.006,192.083,50.038z M182.007,56.103
			c0.447-0.028,0.848-0.12,1.228-0.241c-0.152,4.427,0.516,9.061,0.691,13.3c0.059,1.379,0.122,2.755,0.183,4.132
			c-0.035-0.489-0.259-0.977-0.779-1.393c-8.746-6.995-19.066-13.959-29.416-19.43c1.729,0.182,3.453,0.356,5.188,0.541
			C166.56,53.803,174.49,56.566,182.007,56.103z M81.568,28.214c4.601,0.286,12.163-3.048,12.173,2.165
			c0.006,3.081,0.011,6.163,0.017,9.243c0,0.149,0.051,0.314,0.066,0.469c-8.274-4.646-16.676-8.919-25.3-12.385
			C72.873,27.802,77.221,27.943,81.568,28.214z M10.566,74.929c5.289,4.697,13.705,8.856,16.598,10.699
			c6.938,4.42,14.05,8.575,21.174,12.685c3.772,2.177,8.713,6.391,13.234,6.04c0.584-0.046,1.076-0.357,1.441-0.764
			c-0.196,4.465-0.157,8.814-0.339,12.413c-0.352,6.945-0.593,13.962-0.648,20.993c-0.715-0.822-1.464-1.606-2.251-2.391
			c-0.428-0.427-0.944-0.568-1.447-0.534c-0.229-0.187-0.465-0.369-0.688-0.559c-2.452-2.083-4.882-4.341-7.659-5.993
			c-14.021-8.337-27.451-18.71-39.374-30.044c-0.028-1.857-0.041-3.713-0.059-5.569c17.31,8.208,31.25,20.917,48.134,30.295
			c2.879,1.599,5.425-2.755,2.576-4.406c-10.411-6.032-20.176-13.002-30.241-19.577c-5.851-3.823-13.126-8.731-20.515-10.541
			C10.479,83.427,10.512,79.178,10.566,74.929z M62.058,153.933c0.091,0.055,0.185,0.059,0.278,0.098
			c0.051,1.262,0.078,2.527,0.149,3.788c-6.019-6.444-17.68-11.237-24.342-15.611c-9.086-5.966-18.863-11.94-27.361-18.975
			c0.022-2.591-0.034-5.182-0.043-7.771C24.528,131.449,44.423,143.463,62.058,153.933z M10.72,111.948
			c-0.025-3.343-0.007-6.685-0.056-10.023c8.444,8.379,17.787,15.732,27.388,22.862c4.929,3.662,10.031,7.025,14.616,11.116
			c2.073,1.85,4.132,4.352,6.725,5.486c0.946,0.414,1.843,0.397,2.659-0.172c0.008,2.391,0.043,4.779,0.093,7.168
			C45.482,135.319,25.205,127.679,10.72,111.948z M7.604,166.292c0.77-4.461,1.327-8.94,1.787-13.425
			c0.019,0.016,0.024,0.037,0.045,0.054c6.739,5.231,13.635,10.291,20.478,15.385C22.458,167.983,15.017,166.986,7.604,166.292z
			 M37.935,168.35c-0.878,0.035-1.754-0.014-2.632-0.007c-2.666-3.124-6.553-5.3-9.915-7.594c-4.803-3.276-9.68-6.446-14.416-9.819
			c-0.477-0.339-1.001-0.205-1.386,0.118c0.235-2.493,0.35-4.994,0.511-7.492c5.576,3.923,11.063,7.97,16.515,12.068
			c4.911,3.693,10.564,9.067,16.512,12.225C41.322,168.083,39.568,168.286,37.935,168.35z M61.847,168.031
			c-3.336-1.429-7.349-1.449-11.441-1.069c-0.08-0.107-0.14-0.218-0.252-0.316c-5.727-4.978-13.244-8.528-19.552-12.779
			c-6.768-4.562-13.445-9.283-20.272-13.764c0.222-4.265,0.335-8.536,0.407-12.811c5.373,5.122,11.647,9.442,17.61,13.739
			c6.446,4.644,13.013,9.122,19.58,13.591c4.341,2.953,9.47,7.962,14.77,8.734c0.072,0.012,0.141,0.002,0.212,0.004
			c0.165,2.112,0.266,4.238,0.488,6.339C63.134,168.987,62.645,168.373,61.847,168.031z M63.166,101.262
			c-1.708-2.646-4.482-3.595-7.266-5.064c-6.137-3.24-12.214-6.597-18.256-10.014c-5.882-3.327-11.709-6.762-17.435-10.352
			c-1.297-0.814-6.405-3.468-9.542-5.827c0.091-4.046,0.2-8.091,0.4-12.136c9.927,6.994,20.064,13.67,30.537,19.823
			c5.956,3.498,11.902,6.372,17.013,11.126c1.439,1.338,2.784,2.718,4.857,2.705c0.397-0.003,0.771-0.128,1.12-0.307
			C63.795,94.379,63.39,97.823,63.166,101.262z M71.72,74.519c-1.846,0.309-2.766,2.204-2.928,3.846
			c-0.141,1.524-0.31,3.045-0.475,4.567c-1.036,1.352-1.847,2.908-2.516,4.582c-0.124-0.488-0.311-0.969-0.594-1.703
			c-0.555-1.442-2.334-1.808-3.37-1.085c-0.701-0.712-1.378-1.437-1.829-1.771c-5.023-3.724-10.695-6.106-16.18-9.068
			c-11.15-6.023-21.74-13.018-32.483-19.725c0.473-4.802,1.359-9.527,2.235-14.245c8.568,6.073,17.618,11.604,26.374,17.286
			c8.134,5.278,17.937,14.392,27.532,16.539c1.535,0.343,2.96-1.265,2.087-2.715c-4.625-7.682-17.104-12.041-24.543-16.379
			c-10.335-6.025-20.56-12.195-30.796-18.366c0.513-2.89,0.993-5.784,1.31-8.697c1.516,0.039,3.031,0.051,4.547,0.074
			c0.106,0.311,0.294,0.607,0.647,0.835c18.971,12.209,37.301,33.022,58.117,44.933C76.474,73.78,74.09,74.123,71.72,74.519z
			 M90.538,71.88c-9.65-5.57-19.02-11.135-28.115-18.002c-11.997-9.055-23.596-18.619-36.62-26.154
			c6.634,0.029,13.267-0.039,19.899-0.097c-1.207-0.056-1.746,1.34-0.732,2.105c11.496,8.683,24.815,15.601,36.743,23.797
			c6.914,4.75,14.662,11.685,22.718,16.997C99.79,70.914,95.154,71.341,90.538,71.88z M116.562,69.707
			c-9.598-7.883-22.26-13.971-32.296-20.547c-11.022-7.222-24.945-19.256-38.291-21.535c7.147-0.062,14.294-0.08,21.439,0.058
			c-0.654,0.42-0.867,1.607-0.024,2.05c20.438,10.755,38.972,28.437,59.681,39.562C123.568,69.425,120.065,69.508,116.562,69.707z
			 M172.643,88.107c-4.757,0.32-9.552,0.092-14.331-0.038c-0.711-3.558-1.175-7.402-1.019-10.949
			c0.703-0.598,1.174-1.398,1.417-2.264c6.171,4.174,12.286,8.479,18.611,12.338C175.725,87.616,174.143,88.006,172.643,88.107z
			 M148.375,61.511c-7.527-4.25-20.445-13.489-29.472-9.909c-1.146,0.454-1.125,2.449,0.314,2.329
			c8.532-0.72,22.085,9.998,28.961,14.126c0.464,0.279,0.919,0.576,1.381,0.86c-2.972,0.003-5.939-0.007-8.916,0.028
			c-10.781-6.625-21.605-13.74-32.629-20.518c12.608,0.78,25.034,1.91,37.534,3.175c5.355,3.254,10.55,6.655,15.616,10.367
			c6.267,4.595,12.329,10.173,19.314,13.622c1.659,0.819,3.604-0.621,3.636-2.139c0.152,3.502,0.321,7,0.583,10.492
			C173.523,75.373,160.542,68.383,148.375,61.511z"/>
		<path d="M183.415,143.872c-3.872-3.303-9.277-5.152-13.648-7.823c-7.831-4.786-15.272-10.226-22.672-15.645
			c-10.43-7.639-20.438-16.853-32.204-22.037c-1.106-0.488-1.964,0.923-0.953,1.631c10.472,7.326,20.14,17.242,30.397,25.128
			c8.891,6.836,25.18,23.507,37.333,22.965C183.652,148.001,185.16,145.361,183.415,143.872z"/>
	</g>
</g>
<g>
</g>
<g>
</g>
<g>
</g>
<g>
</g>
<g>
</g>
<g>
</g>
<g>
</g>
<g>
</g>
<g>
</g>
<g>
</g>
<g>
</g>
<g>
</g>
<g>
</g>
<g>
</g>
<g>
</g>
</svg>
