<?xml version="1.0" encoding="iso-8859-1"?>
<!-- Generator: Adobe Illustrator 16.0.0, SVG Export Plug-In . SVG Version: 6.00 Build 0)  -->
<!DOCTYPE svg PUBLIC "-//W3C//DTD SVG 1.1//EN" "http://www.w3.org/Graphics/SVG/1.1/DTD/svg11.dtd">
<svg version="1.1" id="Capa_1" xmlns="http://www.w3.org/2000/svg" xmlns:xlink="http://www.w3.org/1999/xlink" x="0px" y="0px"
	 width="188.904px" height="188.904px" viewBox="0 0 188.904 188.904" style="enable-background:new 0 0 188.904 188.904;"
	 xml:space="preserve">
<g>
	<g>
		<path d="M173.428,58.817c-0.521-2.379-4.149-1.368-3.64,1.004c0.094,0.439,0.125,0.882,0.211,1.321
			c-0.121-0.175-0.234-0.358-0.452-0.469c-0.127-0.065-0.254-0.129-0.382-0.194c-0.964-0.489-2.52,0.336-2.031,1.562
			c-0.692-1.738-5.64-2.557-12.481-2.852c-2.888-28.438-16.389-57.6-49.966-59.127c-32.504-1.479-61.102,23.742-61.94,56.565
			c-7.68-0.143-15.318,0.083-22.851,1.101c-0.062,0.008-0.074,0.057-0.126,0.075c-0.008-0.278-0.003-0.561-0.012-0.839
			c-0.055-1.569-2.313-1.546-2.417,0c-1.634,24.143-3.979,48.318-3.894,72.53c0.043,12.543,0.099,33.327,8.862,43.363
			c19.145,21.927,65.286,14.868,90.824,15.283c25.734,0.418,56.052,2.765,58.64-29.137c1.307-16.098,0.481-32.245,1.729-48.37
			C174.839,93.32,177.183,75.968,173.428,58.817z M109.919,4.489c16.927,2.992,32.566,16.626,38.068,32.661
			c2.412,7.03,1.936,14.703,3.494,21.939c-4.108-0.083-8.694-0.022-13.372,0.12c-4.024-19.895-16.116-45.82-39.618-45.922
			C74.57,13.183,56.51,34.013,55.555,57.147c-3.64-0.238-7.272-0.393-10.898-0.491C48.191,24.467,76.803-1.363,109.919,4.489z
			 M134.637,59.326c-13.533,0.509-26.901,1.531-30.354,1.444c-15.405-0.389-31.171-2.393-46.875-3.498
			c4.433-21.972,19.796-43.416,44.942-39.851C122.126,20.225,130.358,42.139,134.637,59.326z M168.669,132.219
			c-0.183,12.192,0.324,24.1-2.621,36.066c-5.255,21.354-45.081,16.06-61.265,15.809c-24.538-0.381-74.002,6.587-83.603-23.244
			c-10.349-32.154-0.719-68.551-1.39-101.648c0.105,0.066,0.198,0.155,0.328,0.168c27.829,2.899,56.199,4.35,84.165,5.353
			c19.742,0.708,45.557,3.968,64.896-1.233c0.544-0.146,0.875-0.604,1.018-1.108C174.379,85.37,169.014,109.084,168.669,132.219z"/>
		<path d="M127.895,98.649c-1.672-11.121-11.119-20.715-22.38-22.137c-8.427-1.062-15.652,1.953-20.888,7.443
			c-0.358-0.098-0.758,0.257-0.593,0.685c-2.53,2.835-4.604,6.217-6.003,10.086c-3.664,10.133,0.842,20.966,12.057,20.804
			c-3.174,15.731-10.096,30.339-12.922,46.111c-0.224,1.247,0.518,2.319,1.822,2.391c14.389,0.804,28.761,1.474,43.171,0.818
			c0.982-0.045,2.006-0.842,1.922-1.922c-1.243-16.107-7.634-31.023-12.753-46.19C121.181,115.842,129.558,109.718,127.895,98.649z
			 M123.171,96.667c-1.579-1.864-3.29-3.647-4.822-5.48c-2.485-2.973-4.807-6.066-7.103-9.182
			C117.193,84.985,121.618,90.824,123.171,96.667z M104.04,80.002c1.711,0.107,3.353,0.473,4.918,1.023
			c2.208,3.441,4.612,6.75,7.054,10.03c2.375,3.19,4.784,6.83,7.752,9.554c0.045,1.45-0.097,2.86-0.489,4.175
			c-3.103-3.983-6.783-7.631-9.869-11.626c-3.351-4.342-6.521-8.817-9.893-13.143C103.691,80.021,103.859,79.991,104.04,80.002z
			 M95.801,81.133c4.454,5.601,8.807,11.283,13.271,16.875c1.166,1.461,7.639,11.824,10.186,10.846
			c1.075-0.412,0.609-2.157-0.48-1.74c0.856-0.328,0.634-0.081-0.259-1.315c-0.663-0.918-1.489-1.744-2.232-2.597
			c-2.481-2.838-4.918-5.714-7.359-8.586c-3.962-4.658-7.967-9.292-12.034-13.861c1.634-0.452,3.359-0.648,5.121-0.706
			c3.486,5.248,7.137,10.384,10.815,15.498c2.79,3.88,5.637,8.539,9.345,11.727c-1.512,2.489-4.07,4.449-8.033,5.347
			c-6.778-10.387-17.117-18.438-23.023-29.319C92.569,82.376,94.155,81.686,95.801,81.133z M90.29,83.815
			c4.353,10.912,14.434,19.48,21.173,29.164c-0.629,0.063-1.183,0.188-1.865,0.207c-0.194,0.005-0.347,0.068-0.51,0.118
			c-0.649-0.082-1.304,0.189-1.714,0.684c-3.282-4.274-7.432-7.971-10.694-12.347c-3.527-4.731-6.834-9.655-9.97-14.666
			C87.793,85.784,88.993,84.726,90.29,83.815z M85.85,87.95c2.999,5.556,6.281,10.951,9.922,16.113
			c2.697,3.822,6.457,10.453,11.265,11.736c0.026,0.007,0.052-0.01,0.079-0.005c1.018,3.85,2.244,7.628,3.529,11.388
			c-2.9-4.889-6.89-9.385-10.394-13.671c-5.641-6.901-11.736-13.417-17.716-20.023C83.394,91.434,84.527,89.592,85.85,87.95z
			 M80.819,100.112c-0.011,0.14,0.019,0.286,0.124,0.421c1.815,2.329,3.737,4.565,5.629,6.831c1.538,1.841,2.94,3.809,4.542,5.596
			C83.069,111.971,80.165,106.65,80.819,100.112z M81.316,160.377c0.315-1.476,0.711-2.936,1.106-4.396
			c0.968,1.328,1.966,2.634,3.068,3.858c0.234,0.259,0.481,0.524,0.73,0.788C84.586,160.541,82.95,160.466,81.316,160.377z
			 M104.201,161.299c-0.289-0.003-0.577-0.024-0.865-0.03c-0.014-0.182-0.056-0.368-0.183-0.53
			c-2.209-2.835-5.175-5.159-7.529-7.915c-2.968-3.474-5.531-7.254-7.568-11.343c-0.296-0.593-1.123-0.074-0.872,0.51
			c1.835,4.265,4.261,8.202,7.046,11.908c1.867,2.485,4.027,5.335,6.594,7.284c-1.573-0.057-3.146-0.101-4.72-0.161
			c-0.033-0.07-0.035-0.147-0.092-0.208c-1.917-2.021-4.161-3.632-5.998-5.776c-1.667-1.945-3.304-4.11-4.429-6.427
			c-0.156-0.323-0.737-0.18-0.694,0.188c0.297,2.558,1.936,4.9,3.482,6.899c1.298,1.68,2.865,3.82,4.738,5.222
			c-1.167-0.053-2.333-0.062-3.5-0.12c-2.465-1.96-4.683-4.113-6.757-6.478c1.882-6.525,4.356-12.947,6.357-19.446
			c3.23,5.105,6.456,10.22,9.779,15.264c2.223,3.374,4.728,7.815,7.805,11.154C105.932,161.285,105.065,161.308,104.201,161.299z
			 M115.035,161.281c-1.479,0.045-2.957,0.005-4.437,0.007c-3.468-4.669-7.478-9.016-10.824-13.82
			c-3.293-4.729-6.54-9.541-10.136-14.058c0.578-1.958,1.078-3.93,1.529-5.908c4.683,5.762,9.082,11.698,13.402,17.741
			c3.767,5.267,7.348,11.322,12.049,15.871C116.149,161.198,115.641,161.264,115.035,161.281z M111.333,132.151
			c0.345,0.407,0.769,0.354,1.068,0.1c2.459,6.989,4.934,13.974,6.581,21.237c0.718,3.161,1.094,5.475-0.319,6.729
			c-3.943-6.342-9.184-12.088-13.681-18.051c-4.222-5.599-8.587-11.18-13.495-16.196c0.604-2.943,0.948-5.93,1.083-8.952
			c7.486,11.26,16.239,21.447,23.269,33.046c0.487,0.804,1.777,0.479,1.773-0.479c-0.014-5.142-5.478-10.518-8.445-14.298
			c-5.299-6.747-11.006-13.202-16.5-19.795c-0.007-0.008-0.017-0.004-0.024-0.012c0.004-0.391,0.064-0.773,0.056-1.167
			c0.005-0.122-0.081-0.225-0.111-0.344c0.238-0.154,0.387-0.47,0.247-0.789c-2.261-5.151-7.377-9.338-11.099-13.445
			c-0.368-0.406-0.855-0.081-0.915,0.34c0.173-1.698,0.53-3.462,1.166-5.273c5.057,6.061,10.104,12.13,15.058,18.274
			C102.023,119.251,106.223,126.13,111.333,132.151z"/>
	</g>
</g>
<g>
</g>
<g>
</g>
<g>
</g>
<g>
</g>
<g>
</g>
<g>
</g>
<g>
</g>
<g>
</g>
<g>
</g>
<g>
</g>
<g>
</g>
<g>
</g>
<g>
</g>
<g>
</g>
<g>
</g>
</svg>
