<?xml version="1.0" encoding="iso-8859-1"?>
<!-- Generator: Adobe Illustrator 16.0.0, SVG Export Plug-In . SVG Version: 6.00 Build 0)  -->
<!DOCTYPE svg PUBLIC "-//W3C//DTD SVG 1.1//EN" "http://www.w3.org/Graphics/SVG/1.1/DTD/svg11.dtd">
<svg version="1.1" id="Capa_1" xmlns="http://www.w3.org/2000/svg" xmlns:xlink="http://www.w3.org/1999/xlink" x="0px" y="0px"
	 width="187.272px" height="187.272px" viewBox="0 0 187.272 187.272" style="enable-background:new 0 0 187.272 187.272;"
	 xml:space="preserve">
<g>
	<g>
		<path d="M64.987,75.556C63.003,62.823,51.338,57.41,39.663,53.758c0.437-8.517,1.057-17.144,1.293-25.739
			c4.171,2.831,8.249,5.807,12.454,8.146c1.466,0.815,3.118-0.513,2.745-2.111c-0.181-0.779-0.456-1.127-0.938-1.835
			c-0.57-0.836-1.461-0.956-2.195-0.684c-3.839-2.447-7.833-5.331-11.969-8.011c0.06-7.787-0.312-15.517-1.637-23.065
			c-0.134-0.765-1.167-0.479-1.245,0.169c-0.793,6.658-1.225,13.412-1.496,20.198c-3.678-2.124-7.466-3.922-11.372-4.937
			c-0.426-5.314-1.186-10.484-2.552-15.316c-0.056-0.199-0.347-0.2-0.403,0c-1.268,4.611-1.862,9.493-2.13,14.48
			c-2.253-0.152-4.538-0.035-6.864,0.5C0.938,18.409-0.37,35.797,6.693,43.812c3.868,4.389,8.865,7.007,14.303,8.945
			c-0.073,12.244-0.891,24.328-1.856,36.432C10.29,83.178,3.978,73.583,5.772,63.26c0.359-2.065-2.681-2.984-3.191-0.88
			c-3.409,14.059,4.781,24.737,16.252,30.785c-0.404,4.949-0.816,9.906-1.201,14.885c-0.123,1.587,2.329,1.852,2.723,0.368
			c1.158-4.36,1.971-8.815,2.573-13.318c3.591,1.466,7.387,2.499,11.173,3.089c0.431,2.397,1.118,4.271,2.163,5.336
			c-0.968-0.986-2.761,0.011-2.342,1.363c0.101,0.328,0.203,0.655,0.304,0.983c0.499,1.613,2.656,1.533,3.187,0
			c0.762-2.201,1.241-4.649,1.609-7.186C54.177,99.448,67.627,92.503,64.987,75.556z M9.373,41.134
			c-9.9-8.817-0.072-21.653,10.669-22.047c-0.169,9.667,0.729,19.61,0.925,28.917C16.755,46.33,12.801,44.188,9.373,41.134z
			 M25.556,19.97c3.859,1.138,7.474,3.004,10.97,5.157c-0.282,9.184-0.347,18.399-0.608,27.51
			c-3.851-1.111-7.593-2.098-10.859-3.155C25.467,39.913,26.014,29.767,25.556,19.97z M23.33,91.704
			c1.212-11.103,1.224-22.446,1.434-33.439c0.026-1.383,0.084-2.823,0.132-4.245c3.571,1.065,7.254,1.961,10.884,2.951
			c-0.012,0.326-0.019,0.654-0.032,0.978c-0.308,7.744-3.005,25.952-2.039,37.17C30.196,94.544,26.658,93.401,23.33,91.704z
			 M60.071,86.378c-3.437,7.57-13.344,8.958-20.639,9.153c0.947-10.372-0.311-22.294-0.162-31.298
			c0.034-2.051,0.116-4.121,0.2-6.191c5.673,1.733,11.062,3.94,15.446,7.763C60.812,70.945,63.375,79.104,60.071,86.378z"/>
		<path d="M114.671,119.623c-4.583,7.555-5.849,15.87-4.779,24.016c-9.121-0.423-18.23-0.807-27.27-0.536
			c-1.283,0.038-1.273,1.919,0,1.983c8.817,0.443,18.297,1.55,27.951,2.488c0.627,2.777,1.486,5.52,2.61,8.181
			c-8.317,0.638-16.631,1.353-24.909,2.226c-1.197,0.126-1.256,1.906,0,1.908c8.796,0.013,17.587-0.474,26.373-0.986
			c12.308,24.477,43.994,40.698,65.485,16.271c0.693-0.788-0.23-2.21-1.183-1.534c-16.553,11.743-33.217,13.718-49.146-0.377
			c-4.421-3.912-8.082-8.984-10.751-14.609c1.695-0.098,3.393-0.198,5.087-0.29c4.238-0.226,32.994-3.961,34.818-1.435
			c1.097,1.519,3.29,0.595,2.97-1.252c-0.03-0.177-0.061-0.354-0.092-0.53c-0.093-0.536-0.68-1.133-1.22-1.22
			c-10.058-1.627-21.276,0.107-31.399,0.703c-3.849,0.226-7.703,0.536-11.556,0.811c-0.944-2.406-1.67-4.897-2.233-7.417
			c17.11,1.513,34.527,2.062,49.632-2.976c2.109-0.703,1.259-3.778-0.915-3.32c-16.251,3.419-32.854,2.89-49.451,2.132
			c-1.022-7.715-0.149-15.542,3.245-22.326c11.957-23.902,57.831-30.572,64.034,0.418c0.39,1.945,3.723,1.52,3.485-0.472
			C180.998,84.074,129.128,95.791,114.671,119.623z"/>
		<path d="M156.83,60.288c-2.708-0.043-5.443-0.224-8.169-0.274c-0.827-10.056-0.58-20.183-2.021-30.207
			c-0.108-0.761-1.073-1.468-1.824-1.39c-13.065,1.356-26.397,1.832-39.53,1.397c-5.7-0.189-13.741-1.867-19.036,0.745
			c-0.326,0.161-0.601,0.617-0.564,0.983c0.083,0.816,0.199,0.851,0.976,1.235c0.184,0.092,0.335,0.031,0.445-0.072
			c1.335,0.189,2.653,0.229,4.021,0.254c5.415,0.098,10.818,0.483,16.232,0.618c11.123,0.277,22.314-0.075,33.402-0.953
			c3.115-0.247,4.027,16.701,4.551,27.467c-1.262,0.056-2.513,0.203-3.759,0.407c-0.747-0.489-1.66-0.234-2.241,0.416
			c-0.151,0.039-0.308,0.042-0.457,0.085c-1.103,0.311-0.991,1.991,0.021,2.183c0.991,6.223,3.822,11.885,6.016,17.754
			c0.327,1.66,0.641,3.325,0.944,4.996c0.328,1.805,3.271,1.786,3.613,0c1.572-8.182,4.314-15.938,8.957-22.899
			C159.196,61.848,158.143,60.309,156.83,60.288z"/>
		<path d="M70.262,170.348c-9.482-2.182-20.75-0.014-30.485-0.189c-2.822-0.05-5.634-0.245-8.447-0.464
			c-4.992-0.387-3.481-5.668-3.581-8.822c-0.15-4.747-0.406-9.495-0.668-14.241c1.788,0.008,3.576,0.014,5.364,0.021
			c1.261,0.005,2.03-1.181,1.786-2.345c-1.474-7.032-4.037-13.714-6.328-20.504c-0.36-1.065-1.384-1.428-2.281-1.211
			c-0.658-0.142-1.367,0.058-1.773,0.817c-3.411,6.385-5.075,13.358-7.308,20.194c-0.358,1.095,0.293,1.865,1.152,2.126
			c0.044,0.046,0.086,0.09,0.136,0.129c0.013,0.009,0.017,0.021,0.031,0.03c0.025,0.017,0.058,0.019,0.083,0.034
			c0.104,0.062,0.211,0.11,0.33,0.136c1.635,0.821,3.784,0.6,5.622,0.569c-0.059,8.104,0.275,16.213,0.303,24.318
			c0.003,0.758,0.567,1.704,1.386,1.819c7.622,1.077,15.25,1.273,22.94,1.222c7.006-0.047,14.914,0.641,21.739-1.026
			C71.549,172.649,71.571,170.649,70.262,170.348z"/>
	</g>
</g>
<g>
</g>
<g>
</g>
<g>
</g>
<g>
</g>
<g>
</g>
<g>
</g>
<g>
</g>
<g>
</g>
<g>
</g>
<g>
</g>
<g>
</g>
<g>
</g>
<g>
</g>
<g>
</g>
<g>
</g>
</svg>
