<?xml version="1.0" encoding="iso-8859-1"?>
<!-- Generator: Adobe Illustrator 16.0.0, SVG Export Plug-In . SVG Version: 6.00 Build 0)  -->
<!DOCTYPE svg PUBLIC "-//W3C//DTD SVG 1.1//EN" "http://www.w3.org/Graphics/SVG/1.1/DTD/svg11.dtd">
<svg version="1.1" id="Capa_1" xmlns="http://www.w3.org/2000/svg" xmlns:xlink="http://www.w3.org/1999/xlink" x="0px" y="0px"
	 width="192.215px" height="192.215px" viewBox="0 0 192.215 192.215" style="enable-background:new 0 0 192.215 192.215;"
	 xml:space="preserve">
<g>
	<path d="M188.557,14.652c-0.273-0.459-0.731-0.645-1.197-0.656c-0.223-0.491-0.67-0.87-1.38-0.859
		c-38.944,0.563-79.075-2.06-117.842,1.094c-20.592,1.675-41.212,5.108-61.897,3.42c-0.264-0.021-0.349,0.235-0.308,0.45
		c-0.322,0.034-0.649,0.069-0.987,0.112c-0.6-0.378-1.422-0.346-1.804,0.276C2.5,18.64,2.068,19.354,2.061,19.97
		c-0.022,1.897-0.066,3.789-0.096,5.686C0.554,37.338,0.831,49.079,1.371,60.835C1.234,71.55,1.201,82.267,1.522,93.018
		c0.571,19.034-3.759,37.614,0.086,56.409c0.015,1.51,0.011,3.021,0.043,4.529c0.026,1.213,1.352,1.548,2.114,1.03
		c0.073,0.111,0.182,0.201,0.348,0.229c1.841,0.294,3.698,0.521,5.553,0.755c0.303,0.237,0.627,0.437,0.979,0.565
		c0.293,0.108,0.581-0.077,0.72-0.335c18.844,2.205,38.35,1.548,57.85,0.33c-0.247,1.567-0.529,3.302-0.519,4.934
		c-0.184,0.158-0.262,0.436-0.043,0.669c0.03,0.031,0.063,0.06,0.093,0.092c0.026,0.352,0.038,0.71,0.102,1.044
		c-0.768,0.026-1.533,0.072-2.299,0.119c-0.159-0.062-0.322-0.061-0.455,0.023c-2.746,0.177-5.492,0.409-8.301,0.273
		c-4.766-0.229-9.204-0.584-13.683,1.247c-0.619-0.439-1.716-0.132-1.651,0.792c0.444,3.48,0.488,6.967,0.13,10.458
		c-0.039,0.859,0.74,1.548,1.561,1.561c5.411,0.085,10.831,0.253,16.253,0.438c0.009,0.007,0.019,0.014,0.028,0.021
		c0.408,0.323,0.858,0.236,1.215,0.021c4.459,0.153,8.922,0.314,13.385,0.465c0.528,0.301,1.056,0.604,1.601,0.828
		c0.541,0.223,0.899-0.269,0.895-0.745c15.478,0.497,30.96,0.711,46.365-0.524c0.295,0.211,0.586,0.435,0.891,0.605
		c0.537,0.303,1.289-0.148,1.207-0.772c2.788-0.248,5.574-0.53,8.357-0.887c1.238-0.158,1.739-1.377,1.515-2.298
		c0.599,0.202,1.267,0.029,1.709-0.588c1.352-1.884,0.469-5.897,1.055-8.123c0.289-1.097-0.536-2.165-1.663-2.184
		c-7.229-0.115-14.431,0.051-21.633,0.666c0.025-0.071,0.104-0.102,0.115-0.184c0.487-3.398,0.123-7.198-0.368-10.677
		c3.019-0.103,6.043-0.217,9.031-0.246c13.427-0.129,52.706,9.663,62.134-1.955c0.068-0.084,0.069-0.175,0.111-0.262
		c0.309-0.183,0.477-0.529,0.347-0.905c0.74,0.377,1.814,0.056,1.872-1.052c1.558-29.665,2.26-59.834,2.231-89.543
		C190.791,47.512,195.174,25.737,188.557,14.652z M185.98,16.343c0.02,0,0.031-0.01,0.051-0.011c0.696,1.871,1.203,3.941,1.59,6.127
		c-1.083-0.971-2.27-1.838-3.117-2.559c-1.194-1.014-2.54-2.315-3.954-3.494C182.358,16.382,184.176,16.382,185.98,16.343z
		 M177.568,16.441c0.322,0.277,0.643,0.547,0.922,0.806c1.328,1.236,2.706,2.421,4.035,3.658c2.032,1.892,3.725,4.138,5.703,6.041
		c0.11,1.131,0.202,2.277,0.267,3.446c-1.765-1.614-3.8-3.023-5.61-4.378c-4.09-3.058-8.235-6.012-11.971-9.496
		C173.138,16.509,175.35,16.463,177.568,16.441z M155.545,16.511c3.928,4.361,8.038,8.576,12.218,12.735
		c-1.759-0.277-3.52-0.501-5.288-0.647c-0.41-0.84-1.198-1.496-1.85-2.135c-1.354-1.326-2.707-2.652-4.062-3.978
		c-2.03-1.991-4.008-3.931-6.271-5.577c-0.411-0.299-1.003,0.293-0.704,0.704c1.646,2.264,3.586,4.241,5.577,6.272
		c1.22,1.246,2.44,2.492,3.662,3.737c0.232,0.238,0.472,0.506,0.716,0.777c-0.87-0.043-1.739-0.087-2.61-0.111
		c-0.03-0.204-0.054-0.413-0.242-0.6c-4.019-3.987-8.44-7.618-12.831-11.226C147.76,16.49,151.65,16.495,155.545,16.511z
		 M141.694,16.452c3.824,4.19,8.244,7.867,12.359,11.773c-1.587-0.007-3.175,0.001-4.764,0.032
		c-2.261-2.407-4.953-4.471-7.424-6.658c-1.979-1.751-3.968-3.493-6.004-5.179C137.81,16.434,139.749,16.439,141.694,16.452z
		 M133.853,16.409c3.952,3.965,7.918,8.362,12.297,11.922c-1.763,0.048-3.526,0.099-5.291,0.142
		c0.248-0.306,0.345-0.773,0.184-1.135c-1.157-2.607-5.827-4.819-8.073-6.353c-1.824-1.246-3.655-2.487-5.445-3.782
		c-0.346-0.25-0.789-0.537-1.24-0.839C128.806,16.374,131.329,16.393,133.853,16.409z M123.906,16.358
		c1.042,1.748,3.78,3.367,4.875,4.194c2.048,1.547,4.136,3.041,6.22,4.538c1.464,1.052,2.932,2.611,4.575,3.411
		c-0.437,0.009-0.872,0.022-1.309,0.03c-2.024,0.033-4.048-0.023-6.073-0.025c0.032-0.277-0.056-0.566-0.346-0.811
		c-5.217-4.404-11.352-7.414-16.885-11.361C117.943,16.327,120.925,16.349,123.906,16.358z M112.917,16.337
		c0.027,0.052,0.018,0.113,0.065,0.158c4.932,4.671,11.074,7.773,16.352,12c-2.615-0.018-5.23,0.014-7.844-0.032
		c-1.691-2.67-4.94-4.875-7.296-6.725c-2.37-1.863-4.809-3.668-7.292-5.391C108.905,16.327,110.912,16.346,112.917,16.337z
		 M99.618,16.396c1.836,2.532,4.234,4.659,6.675,6.58c2.073,1.632,5.09,4.751,7.792,5.047c0.687,0.075,1.032-0.78,0.747-1.302
		c-1.15-2.103-4.613-3.516-6.537-4.88c-2.366-1.678-4.627-3.503-6.762-5.467c1.326-0.021,2.657-0.006,3.985-0.021
		c2.529,2.157,5.057,4.3,7.477,6.584c1.737,1.64,3.399,3.706,5.207,5.461c-3.265-0.066-6.528-0.131-9.792-0.194
		c-0.711-2.318-4.24-3.742-6.052-5.046c-2.87-2.067-5.699-4.252-8.273-6.697C95.925,16.412,97.775,16.43,99.618,16.396z
		 M91.982,16.515c2.387,2.618,5.172,4.829,7.934,7.035c1.442,1.153,2.866,2.315,4.257,3.532c0.388,0.34,0.775,0.717,1.176,1.074
		c-1.63-0.027-3.26-0.061-4.891-0.077c-0.97-2.203-3.793-3.775-5.601-5.241c-2.386-1.937-4.594-3.999-6.688-6.223
		C89.438,16.569,90.712,16.553,91.982,16.515z M86.231,16.687c1.733,2.696,4.186,4.917,6.54,7.054
		c1.362,1.236,2.911,3.029,4.57,4.309c-0.611-0.002-1.221-0.018-1.831-0.017c-0.059-0.117-0.139-0.232-0.263-0.336
		c-4.605-3.912-10.067-6.508-14.257-10.814C82.733,16.796,84.484,16.755,86.231,16.687z M70.958,17.426
		c0.013,0.131,0.048,0.266,0.184,0.388c2.385,2.135,4.783,4.252,7.24,6.305c1.518,1.268,3.537,3.728,5.638,3.824
		c0.611,0.028,0.952-0.681,0.677-1.179c-1.024-1.847-4.074-3.081-5.724-4.363c-2.146-1.667-4.242-3.397-6.377-5.078
		c2.166-0.147,4.344-0.226,6.516-0.342c3.458,4.618,8.614,7.559,13.135,11.086c-2.025,0.022-4.048-0.002-6.074,0.063
		c-1.756,0.057-3.506,0.163-5.255,0.274c-4.469-3.789-9.463-6.836-13.847-10.73C68.361,17.568,69.664,17.518,70.958,17.426z
		 M60.836,18.159c1.479-0.146,2.972-0.219,4.455-0.347c3.519,4.121,7.933,7.452,12.191,10.837c-1.337,0.105-2.674,0.204-4.009,0.324
		c0.362-0.491,0.379-1.247-0.289-1.714c-2.29-1.603-4.758-2.947-7.055-4.551c-1.686-1.178-4.247-2.659-5.928-4.472
		C60.408,18.212,60.662,18.176,60.836,18.159z M59.108,18.374c0.972,1.812,2.613,3.315,4.109,4.649
		c2.545,2.271,5.491,4.497,8.517,6.115c-2.024,0.191-4.05,0.369-6.071,0.578c-1.459-1.84-4.21-3.116-6.07-4.468
		c-2.599-1.888-5.128-3.911-7.769-5.743C54.783,19.035,57.289,18.627,59.108,18.374z M50.379,19.733
		c2.286,2.348,4.884,4.445,7.373,6.572c1.164,0.995,2.737,2.631,4.366,3.777c-0.82,0.085-1.64,0.171-2.461,0.254
		c-0.47-0.773-1.134-1.366-1.852-1.98c-1.54-1.317-3.099-2.612-4.655-3.91c-1.351-1.127-2.707-2.247-4.066-3.364
		c-0.397-0.327-0.82-0.695-1.285-0.947C48.688,19.999,49.543,19.865,50.379,19.733z M46.754,20.295
		c0.134,0.606,0.549,1.071,0.988,1.536c1.295,1.371,2.742,2.616,4.126,3.896c1.364,1.262,2.726,2.525,4.08,3.798
		c0.37,0.347,0.732,0.717,1.104,1.072c-0.558,0.055-1.115,0.116-1.674,0.168c-0.04-0.108-0.053-0.216-0.139-0.32
		c-1.441-1.738-3.404-3.026-5.144-4.469c-2.036-1.688-3.983-3.498-5.929-5.299C45.047,20.551,45.91,20.423,46.754,20.295z
		 M33.589,22.013c3.778,2.874,7.432,5.978,11.321,8.694c1.14,0.796,2.26-1.103,1.092-1.868c-3.486-2.281-6.853-4.794-10.362-7.047
		c2.182-0.247,4.334-0.53,6.437-0.821c2.122,2.22,4.318,4.366,6.552,6.474c1.078,1.017,2.34,2.581,3.76,3.583
		c-4.77,0.408-9.551,0.719-14.364,0.767c0.04-0.298-0.011-0.598-0.29-0.837c-3.286-2.815-6.704-5.835-10.312-8.179
		c-0.544-0.353-0.991,0.394-0.642,0.832c1.047,1.314,2.208,2.464,3.456,3.637c1.636,1.537,3.311,3.173,5.11,4.571
		c-1.246-0.024-2.61-0.125-4.019-0.213c-4.243-2.343-7.51-6.164-11.524-8.869C24.021,22.821,28.799,22.506,33.589,22.013z
		 M13.972,22.295c1.271,0.191,2.679,0.297,4.143,0.368c0.011,0.109,0.049,0.218,0.16,0.304c2.719,2.113,5.103,4.626,7.595,6.993
		c0.448,0.425,0.999,1.011,1.608,1.572c-0.637,0.02-1.276,0.037-1.889,0.118c-4.198-2.923-8.189-6.089-12.263-9.17
		C13.541,22.419,13.747,22.335,13.972,22.295z M5.855,32.756c3.385,2.653,6.772,5.315,10.274,7.793
		c1.192,0.844,2.301-1.106,1.137-1.945c-3.565-2.57-7.275-4.96-10.969-7.358c0.562-1.725,1.231-3.244,2.009-4.537
		c2.058,2.901,5.56,4.667,8.476,6.651c1.197,0.815,2.368-1.169,1.137-1.945c-2.86-1.802-6.509-3.337-8.699-6.044
		c0.726-0.928,1.547-1.655,2.453-2.194c2.09,2.391,4.541,4.504,6.947,6.536c1.045,0.883,2.276,2.041,3.607,2.937
		c-0.152,0.136-0.211,0.342-0.18,0.538c0.024,0.155,0.049,0.31,0.073,0.466c0.06,0.384,0.434,0.657,0.772,0.772
		c18.891,6.414,43.94-1.453,63.278-2.506c14.875-0.81,29.838-0.277,44.715,0.161c12.904,0.379,26.214-1.303,38.942,1.349
		c2.106,8.819,2.056,17.505,1.265,26.234c-0.047,0.11-0.055,0.212-0.026,0.324c-0.541,5.823-1.395,11.666-2.187,17.582
		c-2.069,15.462-2.088,31.641-2.403,47.239c-23.659,3.8-49.973-1.028-73.962-0.656c-24.03,0.372-49.088-2.293-72.79,2.165
		c-0.004-0.043,0.028-0.065,0.019-0.111c-2.594-13.34-0.811-26.755,0.57-40.13c1.792-17.352,1.422-34.961,1.33-52.382
		c-0.011-2.165-3.344-2.164-3.357,0c-0.027,4.428-0.1,8.86-0.157,13.291c-1.711-1.24-3.746-2.221-5.433-3.411
		c-2.75-1.94-5.35-4.094-7.866-6.328C5.116,35.648,5.465,34.164,5.855,32.756z M168.891,125.303
		c0.327-1.278,0.551-2.578,0.806-3.872c5.392,4.597,10.746,8.993,15.599,14.258c0.104,0.113,0.237,0.115,0.361,0.159
		c0.013,1.474,0.007,2.946,0.038,4.421c-1.674-2.014-4.104-3.749-5.833-5.123c-3.406-2.712-6.966-5.255-10.592-7.672
		C169.612,126.802,169.467,125.902,168.891,125.303z M185.631,133.019c-4.162-5.073-10.239-8.925-15.729-12.571
		c0.299-1.618,0.523-3.252,0.732-4.89c2.205,1.885,4.533,3.645,6.844,5.373c2.637,1.971,5.331,4.636,8.24,6.315
		C185.695,129.171,185.628,131.094,185.631,133.019z M180.266,120.773c-3.211-2.16-6.334-4.406-9.44-6.701
		c0.23-2.042,0.393-4.099,0.528-6.161c2.666,2.127,5.465,4.107,8.173,6.177c1.549,1.183,4.208,4.176,6.401,4.031
		c-0.055,2.109-0.132,4.218-0.167,6.327C184.025,123.064,181.967,121.919,180.266,120.773z M97.871,149.579
		c-2.396-4.862-8.006-9.084-12.044-12.545c-3.987-3.416-8.271-6.749-12.858-9.406c2.306,0.044,4.604,0.071,6.907,0.11
		c4.149,3.585,8.208,7.256,12.196,11.021c3.992,3.769,7.648,8.143,11.813,11.729c-2.066,0.067-4.133,0.086-6.199,0.166
		C97.956,150.415,98.092,150.028,97.871,149.579z M84.206,147.306c-2.723-2.406-5.268-5.027-7.828-7.603
		c-4.18-4.203-8.383-8.596-13.095-12.246c2.271,0.033,4.536,0.078,6.806,0.12c5.087,3.242,9.784,6.868,14.248,10.948
		c4.143,3.787,7.716,8.746,12.117,12.148c0.024,0.018,0.05,0.011,0.074,0.026c-0.158,0.006-0.317,0.014-0.476,0.02
		c-0.012-0.031-0.032-0.061-0.044-0.092c-0.105-0.265-0.508-0.165-0.439,0.11c-2.271,0.087-4.542,0.169-6.814,0.272
		C87.481,149.587,85.622,148.558,84.206,147.306z M84.553,151.196c-1.584,0.076-3.167,0.132-4.751,0.211
		c0.012-0.184,0.009-0.374-0.135-0.577c-6.527-9.188-16.836-17.688-26.81-23.467c2.82,0,5.643,0.04,8.466,0.076
		c5.219,4.568,9.756,9.856,14.522,14.878C77.745,144.318,81.149,148.803,84.553,151.196z M107.09,154.172
		c0.027,0.055,0.022,0.117,0.079,0.165c2.061,1.709,3.666,3.667,5.411,5.602c-0.021,0.729-0.079,1.465-0.052,2.181
		c-2.824-2.862-5.821-5.566-9.169-7.752C104.606,154.297,105.844,154.242,107.09,154.172z M108.634,154.091
		c1.486-0.08,2.979-0.179,4.453-0.234c-0.17,1.202-0.309,2.446-0.414,3.693C111.443,156.262,110.043,155.114,108.634,154.091z
		 M106.49,150.42c-0.029-0.078,0.004-0.146-0.052-0.228c-3.025-4.469-7.56-8.137-11.507-11.771
		c-4.089-3.765-8.409-7.285-12.838-10.646c2.63,0.039,5.234,0.007,7.856,0.023c4.058,3.638,8.174,7.208,12.153,10.937
		c3.92,3.674,7.415,7.873,11.356,11.499C111.135,150.288,108.812,150.353,106.49,150.42z M4.566,38.808
		c2.16,2.269,4.477,4.377,6.893,6.372c1.882,1.555,4.206,3.804,6.641,4.44c-0.029,1.962-0.033,3.922-0.069,5.884
		c-0.492-0.31-1.007-0.592-1.476-0.911c-1.676-1.138-3.226-2.457-4.787-3.743c-2.726-2.246-5.3-4.663-7.807-7.148
		C4.118,42.003,4.328,40.383,4.566,38.808z M3.513,50.887c0.065-1.873,0.165-3.714,0.302-5.508c2.067,2.399,4.269,4.692,6.545,6.879
		c1.712,1.646,4.893,5.31,7.625,5.808c-0.029,1.377-0.04,2.755-0.076,4.132c-1.945-1.73-4.27-3.302-6.143-4.804
		c-2.577-2.067-5.306-4.049-8.227-5.625C3.533,51.475,3.517,51.181,3.513,50.887z M3.732,58.374
		c-0.052-1.727-0.103-3.453-0.152-5.18c2.992,2.085,5.657,4.548,8.328,7.063c1.721,1.62,3.708,3.921,5.925,5.155
		c-0.039,1.221-0.038,2.444-0.086,3.664c-0.29-0.167-0.579-0.331-0.843-0.506c-1.803-1.199-3.529-2.537-5.238-3.866
		c-1.697-1.32-3.36-2.69-5.007-4.072C6.505,60.5,4.646,59.098,3.732,58.374z M3.795,60.512c1.546,1.845,4.151,3.798,4.82,4.386
		c2.011,1.771,4.077,3.479,6.24,5.059c0.771,0.563,1.755,1.419,2.773,1.71c-0.08,1.751-0.136,3.505-0.242,5.255
		c-4.384-3.23-9.285-5.652-12.571-10.207c-0.2-0.277-0.568-0.315-0.843-0.196C3.894,64.516,3.862,62.515,3.795,60.512z
		 M4.025,67.865c2.477,5.309,8.661,8.504,13.177,11.972c-0.089,1.267-0.132,2.536-0.239,3.801c-1.291-1.374-3.518-2.254-5.046-3.167
		c-2.531-1.513-5.047-3.05-7.572-4.573C4.24,73.222,4.132,70.543,4.025,67.865z M8.172,109.622c2.223,1.621,4.435,3.201,6.816,4.501
		c0.034,0.019,0.071,0.004,0.105,0.017c0.083,1.213,0.194,2.424,0.357,3.628c-0.997-0.755-2.26-1.359-2.932-1.773
		c-2.625-1.616-5.208-3.281-7.792-4.961c0.009-1.329,0.03-2.656,0.038-3.984C5.792,108.044,7.146,108.872,8.172,109.622z
		 M4.782,105.297c0.014-1.948,0.032-3.897,0.056-5.846c1.712,1.255,3.407,2.533,5.112,3.801c1.489,1.106,3.206,2.828,5.088,3.209
		c-0.058,1.792-0.1,3.585-0.041,5.366c-1.352-1.241-3.128-2.15-4.619-3.111c-1.401-0.902-2.807-1.797-4.198-2.717
		C6.083,105.935,5.394,105.59,4.782,105.297z M15.126,104.188c-1.268-1.047-2.733-1.912-4.099-2.784
		c-2.017-1.287-4.073-2.552-6.176-3.707c0.032-1.738-0.02-3.489-0.027-5.233c1.469,1.163,2.925,2.341,4.427,3.46
		c1.502,1.118,4.232,3.767,6.283,3.282C15.392,100.866,15.216,102.526,15.126,104.188z M13.942,96.428
		c-1.271-0.659-2.49-1.431-3.707-2.185c-1.811-1.121-3.603-2.274-5.419-3.388c-0.016-1.617-0.075-3.242-0.114-4.864
		c3.187,3.014,7.326,5.873,11.394,7.208c-0.144,1.453-0.289,2.888-0.426,4.348C15.193,97.067,14.6,96.769,13.942,96.428z
		 M11.525,88.622c-2.475-1.247-4.752-2.818-6.869-4.599c-0.062-2.172-0.166-4.353-0.25-6.529c1.943,1.421,3.888,2.838,5.851,4.232
		c1.818,1.291,4.153,3.668,6.44,3.874c0.049,0.004,0.085-0.027,0.131-0.032c-0.016,0.169-0.019,0.339-0.035,0.507
		c-0.148,1.573-0.308,3.182-0.467,4.772C14.747,90.072,13.09,89.41,11.525,88.622z M4.289,153.983c0-0.01,0.005-0.017,0.005-0.027
		c0.075-0.57,0.15-1.142,0.225-1.714c0.084-0.106,0.101-0.254,0.051-0.39c0.074-0.559,0.147-1.118,0.22-1.677
		c0.024-0.078,0.003-0.15-0.015-0.223c0.824,1.099,1.619,2.218,2.495,3.271c0.202,0.243,0.408,0.514,0.616,0.787
		C6.688,153.993,5.487,154.014,4.289,153.983z M10.382,154.032c-0.493-0.577-1.052-1.111-1.528-1.645
		c-1.391-1.559-2.798-3.105-4.153-4.695c0.058-1.679,0.218-3.362,0.336-5.034c1.557,2.041,3.268,3.942,5.155,5.703
		c1.738,1.622,4.015,4.225,6.319,4.964c0.595,0.191,1.096-0.516,0.792-1.029c-1.203-2.036-4.116-3.609-5.922-5.123
		c-2.198-1.843-4.306-3.826-6.168-6.014c0.199-1.324,0.487-2.936,0.556-4.436c5.168,6.608,12.113,12.719,18.99,17.222
		C19.966,154.036,15.173,154.078,10.382,154.032z M27.429,153.873c-0.011-0.206-0.075-0.415-0.251-0.591
		c-6.802-6.809-14.933-12.057-21.674-19.01c-0.106-0.375-0.184-0.776-0.386-1.066c-0.164-0.235-0.377-0.349-0.598-0.405
		c0.006-1.423,0.034-2.847,0.041-4.271c8.091,9.596,18.252,17.631,28.235,25.143C31.006,153.728,29.216,153.831,27.429,153.873z
		 M35.463,153.572c0.095-0.464-0.027-0.983-0.493-1.339c-10.606-8.055-20.409-16.869-30.392-25.634
		c0.009-1.695,0.039-3.389,0.048-5.083c12.828,9.473,22.737,23.636,36.334,31.813C39.128,153.404,37.295,153.509,35.463,153.572z
		 M43.879,153.2c-0.014-0.22-0.093-0.441-0.304-0.631c-12.388-11.062-24.331-24.525-38.933-32.711
		c0.014-2.417,0.054-4.833,0.069-7.25c1.819,1.563,3.821,2.941,5.729,4.374c1.154,0.867,3.779,3.858,5.516,3.79
		c0.405,2.03,0.903,4.047,1.616,6.032c0.024,0.066,0.084,0.076,0.115,0.134c-0.632,0.769-0.215,2.339,0.971,2.187
		c1.79-0.229,3.596-0.369,5.396-0.549c0.002,0.012-0.012,0.017-0.009,0.027c1.156,5.117,8.833,10.112,12.522,13.328
		c3.571,3.113,8.952,8.792,14.004,10.942C48.34,152.98,46.11,153.104,43.879,153.2z M54.31,152.69
		c0.03-0.26-0.019-0.529-0.281-0.769c-4.702-4.313-10.762-7.561-15.695-11.757c-4.138-3.52-8.173-8.888-12.874-11.731
		c2.43-0.224,4.874-0.377,7.319-0.523c4.307,4.426,8.894,8.545,13.601,12.543c4.749,4.034,9.995,8.913,15.601,11.694
		c0.927,0.46,1.906-0.686,1.13-1.465c-4.441-4.456-10.193-7.943-15.143-11.818c-4.503-3.523-8.836-7.257-13.069-11.098
		c5.057-0.26,10.14-0.368,15.234-0.397c10.485,6.776,17.985,16.171,27.325,24.149c-2.129,0.108-4.257,0.192-6.386,0.304
		c0.184-0.354,0.181-0.826-0.118-1.139c-4.609-4.832-10.538-8.927-15.54-13.407c-3.386-3.032-7.285-7.888-11.871-8.975
		c-0.165-0.039-0.291,0.162-0.167,0.287c4.059,4.093,8.336,8.03,12.532,12.021c3.843,3.654,8.396,9.063,13.43,11.301
		C64.328,152.173,59.317,152.439,54.31,152.69z M44.882,166.516c0.913,0.021,1.824,0.072,2.736,0.096
		c0.004,0.01-0.003,0.018,0.002,0.027c1.69,3.624,5.249,6.204,8.698,8.598C50.912,174.032,46.584,171.521,44.882,166.516z
		 M60.756,175.929c-3.956-2.965-8.91-5.276-11.816-9.271c2.047,0.06,4.093,0.145,6.139,0.215c-0.075,0.088-0.107,0.218-0.004,0.341
		c1.886,2.259,4.128,4.211,6.389,6.085c0.865,0.717,2.09,1.927,3.399,2.876C63.473,176.132,62.094,176.062,60.756,175.929z
		 M68.676,176.205c-1.746-1.612-4.323-2.728-6.255-4.146c-2.313-1.698-4.67-3.388-6.917-5.17c1.343,0.048,2.687,0.075,4.03,0.142
		c0.541,0.027,1.122,0.05,1.689,0.078c2.222,2.519,4.766,4.717,7.387,6.809c0.88,0.702,1.799,1.462,2.735,2.21
		C70.456,176.153,69.57,176.194,68.676,176.205z M74.644,176.006c-1.413-0.965-2.934-1.828-4.272-2.72
		c-2.736-1.823-5.334-3.829-7.688-6.117c1.811,0.049,3.656-0.039,5.395-0.41c1.324,1.514,2.79,2.913,4.249,4.28
		c1.628,1.527,3.365,3.436,5.271,4.816C76.628,175.905,75.645,175.957,74.644,176.006z M80.019,175.735
		c-1.168-2.025-3.729-3.496-5.495-4.941c-1.696-1.388-3.452-2.821-5.069-4.371c0.735-0.247,1.44-0.562,2.096-0.979
		c0.1-0.063,0.151-0.155,0.224-0.234c2.184,2.215,4.344,4.452,6.643,6.553c1.159,1.058,2.593,2.578,4.145,3.872
		C81.729,175.664,80.897,175.693,80.019,175.735z M86.631,175.577c-0.046-0.001-0.101,0.002-0.147,0.001
		c-1.974-1.919-4.926-3.479-6.846-5.038c-2.618-2.122-5.145-4.36-7.64-6.632c-0.071-0.156-0.169-0.302-0.303-0.416
		c0.26-1.152,0.239-2.442,0.116-3.74c5.061,5.797,11.257,11.014,17.4,15.855C88.351,175.593,87.494,175.596,86.631,175.577z
		 M92.787,175.649c-6.929-5.71-14.072-11.355-21.085-16.824c-0.106-0.829-0.229-1.649-0.349-2.424
		c1.188-0.077,2.368-0.161,3.556-0.24c3.513,3.337,6.994,6.702,10.448,10.103c3.289,3.238,6.909,6.892,10.962,9.394
		C95.141,175.65,93.965,175.663,92.787,175.649z M99.785,175.665c-0.037-0.048-0.023-0.1-0.073-0.146
		c-4.136-3.735-8.777-6.923-12.944-10.667c-3.275-2.941-6.483-5.956-9.816-8.828c2.181-0.146,4.348-0.29,6.525-0.438
		c3.118,4.279,8.075,7.967,11.807,11.602c2.431,2.368,5.256,5.877,8.319,8.438C102.33,175.638,101.059,175.664,99.785,175.665z
		 M107.726,175.581c-3.109-3.596-7.651-6.688-11.025-9.811c-3.326-3.08-6.931-7.608-10.921-10.34
		c1.685-0.115,3.36-0.216,5.041-0.328c3.789,4.146,7.704,8.198,11.594,12.244c2.161,2.248,4.904,5.923,7.872,8.134
		C109.433,175.504,108.58,175.565,107.726,175.581z M113.946,175.337c-2.402-3.499-7.123-6.462-10.162-9.36
		c-3.799-3.623-7.494-7.375-11.313-10.981c1.603-0.104,3.198-0.196,4.798-0.298c2.111,3.872,5.208,7.118,8.39,10.268
		c2.62,2.594,5.379,5.051,8.089,7.55c0.882,0.812,1.762,1.782,2.684,2.692C115.603,175.244,114.774,175.306,113.946,175.337z
		 M134.437,171.852c-0.446-0.42-0.911-0.812-1.26-1.144c-1.274-1.205-2.629-2.304-4.011-3.375c1.883,0.038,3.764,0.12,5.65,0.104
		C134.542,168.845,134.354,170.451,134.437,171.852z M127.26,167.299c0.033,0.062,0.027,0.137,0.091,0.188
		c1.49,1.22,2.865,2.554,4.19,3.949c0.63,0.664,1.196,1.706,1.885,2.506c-0.265,0.021-0.529,0.042-0.794,0.07
		c-1.112-1.188-2.828-1.996-4.124-2.939c-1.637-1.19-3.172-2.509-4.696-3.839C124.961,167.281,126.111,167.266,127.26,167.299z
		 M121.993,167.142c0.019,0.116,0.029,0.233,0.13,0.346c1.471,1.635,3.102,3.113,4.769,4.545c0.781,0.67,1.69,1.527,2.657,2.252
		c-1.771,0.154-3.543,0.352-5.314,0.469c-2.039-2.861-5.027-5.536-7.188-7.865C118.694,167.008,120.344,167.061,121.993,167.142z
		 M115.236,168.144c1.658,1.911,3.383,4.558,5.29,6.847c-0.174,0.01-0.347,0.024-0.521,0.034c-2.411-3.696-7.738-6.896-10.783-9.572
		c-3.543-3.113-7.995-6.682-10.955-10.815c1.461-0.09,2.903-0.146,4.36-0.229c-0.095,0.155-0.116,0.356,0.046,0.505
		c3.739,3.442,7.173,7.169,10.533,10.971c0.04,0.344,0.262,0.639,0.679,0.756C114.33,167.145,114.794,167.634,115.236,168.144z
		 M116.046,150.163c-0.1,0.001-0.199,0.008-0.298,0.009c0.031-0.206,0.021-0.427-0.121-0.656
		c-2.939-4.763-7.814-8.665-11.944-12.363c-3.681-3.295-7.557-6.408-11.545-9.349c2.466,0.006,4.949,0.056,7.4,0.021
		c3.258,3.63,6.545,7.236,9.839,10.833c3.507,3.828,7.023,8.074,11,11.502C118.933,150.163,117.496,150.15,116.046,150.163z
		 M123.49,150.158L123.49,150.158c-6.232-8.071-14.425-15.413-22.146-22.315c1.852-0.01,3.726,0.053,5.596,0.102
		c6.082,4.623,11.461,10.108,16.951,15.4c2.263,2.181,4.741,4.841,7.463,6.974C128.734,150.266,126.12,150.17,123.49,150.158z
		 M135.579,150.404c-4.336-3.663-8.692-7.195-12.814-11.189c-4.218-4.09-8.541-8.062-13.482-11.228
		c2.871,0.104,5.764,0.266,8.661,0.442c4.674,4.269,9.145,8.728,13.652,13.176c2.819,2.782,6.373,6.75,10.216,9.042
		C139.734,150.561,137.657,150.467,135.579,150.404z M154.39,151.377c-0.1-0.009-0.198-0.012-0.297-0.02
		c0.035-0.274-0.04-0.555-0.374-0.729c-4.645-2.444-8.994-7.637-12.839-11.16c-3.652-3.348-7.25-7.571-11.574-10.017
		c-0.32-0.181-0.708,0.186-0.51,0.511c2.716,4.479,7.479,8.118,11.268,11.691c2.789,2.63,5.604,5.239,8.512,7.739
		c0.558,0.479,1.255,1.165,2.014,1.74c-1.49-0.097-2.983-0.208-4.471-0.287c-0.026-0.035-0.021-0.077-0.054-0.11
		c-4.29-4.252-9.734-7.684-14.263-11.799c-3.796-3.45-7.486-7.114-11.489-10.355c5.402,0.35,10.831,0.738,16.244,1.009
		c-0.077,0.197-0.061,0.44,0.16,0.603c8.655,6.298,16.186,13.543,23.05,21.678C157.924,151.693,156.109,151.515,154.39,151.377z
		 M162.902,152.148c-6.851-8.845-15.659-16.733-25.256-22.501c2.961,0.138,5.911,0.212,8.854,0.237
		c4.051,4.951,8.687,9.463,13.203,13.982c2.821,2.824,5.605,5.844,8.571,8.603C166.478,152.413,164.678,152.298,162.902,152.148z
		 M171.708,152.479c-3.202-3.629-6.973-6.868-10.43-10.19c-4.272-4.105-8.435-8.337-12.726-12.423
		c1.975-0.007,3.942-0.06,5.903-0.142c4.389,4.138,8.239,8.865,12.348,13.268c2.161,2.315,6.592,8.353,10.409,8.953
		C175.417,152.242,173.581,152.431,171.708,152.479z M178.699,151.689c0.185-0.297,0.163-0.699-0.203-0.959
		c-8.353-5.906-14.26-14.695-22.188-21.106c2.412-0.136,4.805-0.366,7.187-0.659c-0.048,0.077-0.114,0.147-0.088,0.253
		c1.013,4.077,6.939,8.176,9.83,10.952c3.206,3.078,6.654,7.104,10.413,9.85C182.071,150.743,180.425,151.315,178.699,151.689z
		 M175.537,139.627c-2.363-2.113-4.7-4.254-6.98-6.455c-1.413-1.365-2.778-3.314-4.5-4.288c1.371-0.178,2.744-0.345,4.101-0.592
		c3.316,2.32,6.558,4.747,9.613,7.405c2.884,2.509,5.251,5.573,8.045,8.108c0.061,1.832,0.094,3.664,0.188,5.497
		C183.394,145.617,178.782,142.527,175.537,139.627z M185.973,116.42c-4.844-3.183-9.426-7.069-14.539-9.883
		c0.106-1.831,0.16-3.673,0.225-5.513c2.2,1.577,4.391,3.167,6.526,4.841c2.253,1.766,4.821,4.908,7.572,5.768
		c0.136,0.043,0.255,0.016,0.374-0.006C186.079,113.224,186.017,114.82,185.973,116.42z M186.191,109.75
		c-1.603-2.162-4.87-3.838-6.925-5.287c-2.464-1.739-4.975-3.448-7.544-5.048c0.043-1.392,0.078-2.786,0.115-4.18
		c2.34,1.511,4.637,3.076,6.867,4.771c2.106,1.601,4.963,5.001,7.631,5.633C186.288,107.009,186.237,108.381,186.191,109.75z
		 M186.412,103.475c-1.614-1.755-4.401-3.156-6.122-4.356c-2.694-1.879-5.467-3.882-8.409-5.436c0.048-1.798,0.1-3.594,0.164-5.387
		c4.71,3.644,9.197,7.572,14.035,11.052c0.157,0.113,0.313,0.165,0.466,0.182C186.5,100.845,186.46,102.159,186.412,103.475z
		 M186.631,97.074c-4.927-3.177-9.649-6.655-14.538-9.888c0.088-2.252,0.203-4.498,0.36-6.733c2.466,2.056,5.08,3.92,7.724,5.741
		c2.064,1.422,4.32,3.656,6.649,4.797C186.76,93.018,186.704,95.047,186.631,97.074z M186.912,88.379
		c-1.377-0.988-3.05-1.785-4.315-2.565c-3.395-2.093-6.772-4.323-9.867-6.842c-0.043-0.035-0.092-0.019-0.137-0.042
		c0.127-1.564,0.283-3.12,0.463-4.671c1.874,2.409,4.976,4.423,7.12,6.16c1.623,1.314,4.304,4.091,6.812,5.207
		C186.96,86.543,186.94,87.461,186.912,88.379z M187.066,82.766c-1.919-1.276-3.961-2.439-5.782-3.783
		c-2.755-2.031-5.305-4.381-8.03-6.418c0.178-1.324,0.381-2.692,0.586-4.076c2.33,2.028,4.71,4,7.086,5.973
		c1.89,1.569,3.945,3.773,6.199,4.927C187.096,80.514,187.098,81.641,187.066,82.766z M187.17,76.697
		c-1.613-1.328-3.665-2.433-5.214-3.571c-2.68-1.968-5.297-4.017-7.907-6.075c0.193-1.297,0.387-2.615,0.573-3.945
		c3.965,3.399,8.038,6.993,12.624,9.18C187.215,73.756,187.2,75.227,187.17,76.697z M187.321,67.681
		c-0.001,0.779-0.029,1.555-0.039,2.334c-4.159-2.855-8.315-5.699-12.442-8.606c0.166-1.261,0.314-2.532,0.45-3.806
		c1.773,1.346,3.543,2.699,5.334,4.019c1.951,1.437,4.325,3.575,6.73,4.523C187.346,66.651,187.323,67.195,187.321,67.681z
		 M187.404,63.804c-1.689-1.067-3.622-1.939-5.241-2.957c-2.287-1.438-4.515-2.962-6.761-4.459c0.113-1.196,0.163-2.391,0.229-3.586
		c1.57,1.433,3.182,2.822,4.833,4.161c2.176,1.764,4.468,3.74,7.042,4.878C187.476,62.482,187.428,63.185,187.404,63.804z
		 M187.606,59.883c-1.942-1.519-4.166-2.758-6.178-4.17c-2.005-1.407-3.863-2.98-5.691-4.592c0.049-1.487,0.041-2.966-0.02-4.431
		c2.963,3.523,6.724,6.254,10.141,9.348c1.211,1.096,2.694-0.967,1.329-1.722c-4.386-2.426-8.257-5.544-11.601-9.239
		c-0.266-3.551-0.887-7.004-2.172-10.21c4.893,4.805,9.792,9.601,14.488,14.551c0.094,0.098,0.211,0.093,0.317,0.138
		C188.006,53.162,187.786,56.595,187.606,59.883z M163.32,17.792c4.14,4.487,8.742,8.54,13.242,12.657
		c3.932,3.597,7.724,7.931,12.023,11.126c-0.058,1.733-0.128,3.467-0.22,5.191c-8.154-11.522-20.095-21.078-30.869-30.247
		c3.969,0.013,7.932,0.011,11.891-0.001c3.039,3.532,6.715,6.397,10.346,9.289c3.161,2.518,5.908,5.477,8.906,8.124
		c0.028,1.495,0.055,2.991,0.032,4.514c-2.67-3.156-6.274-5.85-9.279-8.404c-5.104-4.337-10.208-8.655-15.194-13.125
		C163.603,16.384,162.776,17.203,163.32,17.792z"/>
</g>
<g>
</g>
<g>
</g>
<g>
</g>
<g>
</g>
<g>
</g>
<g>
</g>
<g>
</g>
<g>
</g>
<g>
</g>
<g>
</g>
<g>
</g>
<g>
</g>
<g>
</g>
<g>
</g>
<g>
</g>
</svg>
