<?xml version="1.0" encoding="iso-8859-1"?>
<!-- Generator: Adobe Illustrator 16.0.0, SVG Export Plug-In . SVG Version: 6.00 Build 0)  -->
<!DOCTYPE svg PUBLIC "-//W3C//DTD SVG 1.1//EN" "http://www.w3.org/Graphics/SVG/1.1/DTD/svg11.dtd">
<svg version="1.1" id="Capa_1" xmlns="http://www.w3.org/2000/svg" xmlns:xlink="http://www.w3.org/1999/xlink" x="0px" y="0px"
	 width="192.562px" height="192.562px" viewBox="0 0 192.562 192.562" style="enable-background:new 0 0 192.562 192.562;"
	 xml:space="preserve">
<g>
	<g>
		<path d="M189.676,22.43c-0.183-1.301-1.708-2.815-3.004-3.004c-35.083-5.129-69.774-4.239-104.924-6.946
			c-20.225-1.558-53.19-8.31-71.103,4.662c-15.9,11.514-9.653,44.759-8.31,60.743c1.736,20.655-3.88,47.376,5.194,66.375
			c0.08,0.167,0.179,0.307,0.276,0.446c-0.892,1.759-0.342,4.464,1.939,5.076c13.122,3.523,26.786,4.176,40.48,3.583
			c-5.997,5.812-9.763,15.098-11.892,22.208c-0.559,1.864,0.653,4.414,2.702,4.759c37.548,6.322,75.317,0.346,113.067,0.143
			c2.239-0.012,3.704-1.76,3.873-3.873c0.871-10.893-3.374-21.577-11.063-28.729c8.73,0.676,17.551,1.811,26.691,3.639
			c1.498,0.299,2.828-0.293,3.699-1.261c2.081,0.835,4.709,0.209,5.377-2.611C192.254,107.286,195.463,63.557,189.676,22.43z
			 M150.247,172.812c-34.294,0.782-68.731,5.847-102.843,0.729c1.786-4.194,3.91-8.145,6.438-12.025
			c2.548-3.909,6.578-5.745,9.312-9.034c8.896-0.796,17.739-1.899,26.383-2.882c13.555-1.539,26.359-2.439,39.074-2.438
			c0.348,0.21,0.733,0.389,1.2,0.499C141.96,150.516,149.637,160.802,150.247,172.812z M183.142,82.926
			c-0.997,20.516-3.745,40.981-8.134,61.045c-22.06-10.987-51.851-6.669-75.225-4.227c-28.769,3.005-56.733,6.644-85.567,3.76
			c0.2-0.607,0.198-1.291-0.107-2.017c-4.958-11.822-2.152-28.521-1.907-41.066c0.248-12.737-1.58-25.476-2.381-38.172
			C9.049,50.014,6.258,26.725,20.767,21.66c13.512-4.716,30.434-2.621,44.429-1.824c37.676,2.146,75.474,1.769,112.905,6.964
			C188.104,28.187,183.49,75.792,183.142,82.926z"/>
		<path d="M167.387,44.059c-1.644-2.272-4.783-1.377-5.08,1.376c-0.103,0.959-0.138,1.938-0.186,2.914
			c-29.458-7.199-65.019-4.083-90.646,11.846c-19.678,12.231-46.555,35.016-42.64,61.021c0.185,1.229,1.068,1.709,2.015,1.688
			c0.437,0.323,0.957,0.57,1.648,0.592c44.116,1.369,88.399,1.362,132.535,1.029c2.685-0.021,3.91-2.2,3.76-4.267
			c1.293-14.565,2.605-29.203,2.945-43.825C171.963,66.813,173.345,52.294,167.387,44.059z M33.903,117.635
			c0.542-3.768,1.602-7.373,3.001-10.849c2.68,2.161,5.312,4.375,7.835,6.734c1.268,1.188,2.495,2.486,3.737,3.774
			C43.618,117.412,38.757,117.488,33.903,117.635z M53.463,117.18c-2.036-2.117-4.34-4.042-6.454-5.929
			c-2.858-2.551-5.831-4.976-8.974-7.161c0.898-1.914,1.933-3.77,3.046-5.591c5.698,2.738,10.208,7.078,14.697,11.473
			c2.148,2.104,4.526,4.854,7.164,7.049C59.783,117.078,56.621,117.111,53.463,117.18z M68.842,116.923
			c-1.843-1.642-4.016-2.99-5.904-4.549c-2.622-2.165-5.112-4.494-7.674-6.73c-4.011-3.501-8.373-6.532-13.278-8.6
			c1.593-2.453,3.418-4.786,5.332-7.064c5.765,5.353,11.261,10.993,17.095,16.275c3.794,3.435,10.14,10.744,15.908,10.182
			c1.456-0.142,1.829-2.119,0.351-2.593c-6.082-1.945-11.87-8.035-16.608-12.039c-5.191-4.387-10.318-8.873-15.611-13.141
			c2.146-2.447,4.464-4.776,6.875-7.015c8.282,7.756,15.495,16.579,23.799,24.338c4.205,3.93,11.881,12.052,18.282,8.947
			c1.293-0.627,0.585-2.513-0.692-2.556c-7.808-0.26-15.777-9.292-21.065-14.113c-6.418-5.852-12.494-12.121-19.177-17.677
			c2.732-2.464,5.609-4.748,8.524-6.947c11.374,8.832,21.151,19.522,31.221,29.766c3.147,3.202,7.746,9.102,12.749,13.13
			C95.592,116.597,82.215,116.707,68.842,116.923z M117.272,116.5C98.663,104.222,85.76,84.216,67.091,72.084
			c2.452-1.782,4.93-3.478,7.4-5.081c16.219,17.058,33.417,34.694,51.862,49.524C123.326,116.526,120.302,116.493,117.272,116.5z
			 M133.81,116.548C115.531,98.877,95.181,83.046,76.37,65.847c1.777-1.121,3.559-2.249,5.305-3.262
			c1.638-0.95,3.286-1.803,4.94-2.579c11.489,7.518,21.804,20.309,31.466,29.521c8.767,8.358,19.664,22.554,31.537,27.064
			C144.348,116.581,139.081,116.556,133.81,116.548z M152.669,116.602c0.804-0.741,1.09-2.084,0.119-2.901
			c-11.433-9.633-22.783-19.266-33.896-29.296c-9.277-8.372-18.867-19.145-30.125-25.305c2.628-1.115,5.279-2.005,7.943-2.751
			c16.28,15.222,33.904,28.897,50.272,44.03c4.515,4.173,8.29,12.937,14.121,16.249C158.293,116.615,155.48,116.61,152.669,116.602z
			 M163.851,83.798c-6.636-3.825-12.222-10.363-17.579-15.55c-4.082-3.952-11.623-13.404-18.129-12.997
			c-1.229,0.077-1.549,1.841-0.296,2.189c3.498,0.973,6.511,4.564,9.033,6.982c3.816,3.658,7.414,7.55,11.102,11.335
			c3.455,3.546,9.844,12.117,15.796,12.469c-0.043,2.405-0.087,4.806-0.118,7.212c-16.775-13.67-32.111-29.259-49.89-41.564
			c-1.21-0.837-2.746,1.139-1.579,2.046c17.983,13.985,33.126,31.601,51.43,45.112c-0.016,3.757-0.001,7.513,0.108,11.264
			c-0.365,0.311-0.624,0.789-0.65,1.456c0.068-1.704,1.047-0.874-1.575-3.713c-1.858-2.011-3.61-4.116-5.37-6.211
			c-4.229-5.032-8.592-9.243-13.595-13.571c-13.889-12.013-28.671-22.95-42.805-34.676c20.253-4.716,41.416-0.444,62.4-0.25
			c0.241,4.99,0.826,10.083,1.263,15.129c-1.9-2.45-4.748-4.402-7.04-6.206c-4.049-3.185-8.313-6.092-12.416-9.207
			c-1.379-1.046-3.178,1.297-1.849,2.397c3.492,2.889,7.07,5.667,10.514,8.614c3.373,2.885,6.354,7.378,10.281,9.402
			c0.28,0.144,0.581,0.188,0.87,0.165c0.092,1.791,0.166,3.577,0.14,5.334C163.884,81.904,163.867,82.852,163.851,83.798z"/>
	</g>
</g>
<g>
</g>
<g>
</g>
<g>
</g>
<g>
</g>
<g>
</g>
<g>
</g>
<g>
</g>
<g>
</g>
<g>
</g>
<g>
</g>
<g>
</g>
<g>
</g>
<g>
</g>
<g>
</g>
<g>
</g>
</svg>
