<?xml version="1.0" encoding="iso-8859-1"?>
<!-- Generator: Adobe Illustrator 16.0.0, SVG Export Plug-In . SVG Version: 6.00 Build 0)  -->
<!DOCTYPE svg PUBLIC "-//W3C//DTD SVG 1.1//EN" "http://www.w3.org/Graphics/SVG/1.1/DTD/svg11.dtd">
<svg version="1.1" id="Capa_1" xmlns="http://www.w3.org/2000/svg" xmlns:xlink="http://www.w3.org/1999/xlink" x="0px" y="0px"
	 width="191.505px" height="191.505px" viewBox="0 0 191.505 191.505" style="enable-background:new 0 0 191.505 191.505;"
	 xml:space="preserve">
<g>
	<path d="M189.379,60.119C185.59,35.202,175.724,3.34,145.103,4.816C126.94,5.692,109.296,19.488,92.786,25.85
		c-21.491,8.283-43.548,7.444-65.947,4.275c-0.313-0.044-0.593-0.002-0.871,0.042c-0.294-0.712-0.864-1.319-1.786-1.575
		C5.314,23.354,0.416,49.248,0.046,62.205C-0.5,81.421,3.673,109.166,17.914,123.45c0.362,0.362,0.775,0.519,1.187,0.562
		c0.729,0.39,1.612,0.549,2.63,0.301c3.205-0.782,6.305-1.485,9.61-1.694c1.317-0.083,2.933-0.017,4.206-0.367
		c0.465-0.128,0.749-0.262,1.011-0.382c-0.332,6.582,2.201,14.061,3.341,20.452c1.536,8.618,3.486,16.935,6.963,24.99
		c6.101,14.136,20.419,20.039,35.18,19.377c25.985-1.166,17.494-36.688,13.512-55.22c28.119,4.078,52.375,36.922,79.263,9.504
		C193.847,121.567,193.14,84.856,189.379,60.119z M180.966,53.769c-2.334-0.94-4.765-1.721-6.851-2.598
		c-2.328-0.979-4.658-1.957-6.991-2.928c-0.12-0.05-0.405-0.158-0.76-0.287c-0.187-0.504-0.374-0.997-0.559-1.456
		c3.127,1.181,6.41,2.034,9.601,3.001c1.479,0.448,3.337,1.392,5.104,1.926C180.689,52.191,180.8,52.996,180.966,53.769z
		 M183.593,71.023c-2.641-1.674-5.579-2.948-8.322-4.429c-1.462-0.79-2.908-1.609-4.354-2.426
		c-0.989-4.532-2.083-8.689-3.189-12.212c0.893,0.371,1.719,0.702,2.323,0.995c3.722,1.802,7.833,4.467,11.936,6.064
		C182.665,62.96,183.233,66.958,183.593,71.023z M163.296,59.854c-1.429-0.565-2.577,1.539-1.162,2.417
		c0.623,0.387,1.254,0.762,1.878,1.148c0.777,4.303,1.305,8.656,1.772,12.78c-1.384-0.466-1.913,1.709-0.569,2.269
		c0.291,0.121,0.579,0.246,0.869,0.368c0.025,0.225,0.052,0.461,0.078,0.684c1.479,12.793,3.153,29.123-2.816,41.031
		c-4.064,8.104-13.849,0.966-17.161-3.894c-5.226-7.667-4.671-19.023-4.181-27.821c0.742-13.313,4.888-34.243,16.269-44.068
		c-0.031,0.557,0.035,1.138,0.364,1.745C160.807,50.526,162.246,55.111,163.296,59.854z M153.994,12.595
		c5.484,0.922,9.816,3.904,13.29,7.919c-6.371-3.129-13.301-5.459-19.855-8.343C149.598,12.099,151.786,12.223,153.994,12.595z
		 M142.51,12.691c9.028,5.529,19.248,10.841,29.168,14.145c1.557,2.742,2.881,5.663,4.006,8.582
		c-7.005-3.588-15.452-5.581-22.595-8.128c-8.255-2.943-16.692-7.724-25.143-9.978C132.705,15.196,137.559,13.507,142.51,12.691z
		 M125.621,18.378c0.012,0.016,0.009,0.035,0.021,0.05c4.813,5.355,14.229,7.779,20.774,10.384
		c9.989,3.978,20.71,9.523,31.18,12.076c0.497,1.552,0.952,3.071,1.363,4.515c0.177,0.621,0.331,1.264,0.501,1.892
		c-4.267-1.121-10.292-2.086-14.737-3.226c-0.144-0.294-0.289-0.606-0.429-0.866c-0.414-0.768-0.999-1.174-1.624-1.402
		c0.389-0.205,0.756-0.447,1.159-0.627c2.149-0.964,0.575-4.162-1.544-3.662c-2.238,0.528-4.375,1.552-6.407,2.949
		c-0.053-0.029-0.077-0.072-0.134-0.099c-13.054-5.995-26.401-12.496-40.216-16.861C118.848,21.756,122.212,19.988,125.621,18.378z
		 M103.943,29.266c2.866-1.261,5.766-2.723,8.697-4.25c13.283,6.049,26.475,12.274,39.75,18.339
		c-2.38,2.309-4.582,5.138-6.555,8.402c-8.774-5.228-18.199-9.869-27.173-14.749c-5.492-2.986-11.168-5.328-17.139-6.736
		C102.331,29.939,103.138,29.62,103.943,29.266z M97.76,31.752c17.233,4.316,29.412,18.671,46.028,23.702
		c-1.229,2.397-2.357,4.945-3.365,7.615c-18.151-10.252-37.105-20.262-57.179-25.959c-1.267-0.36-1.8,1.596-0.542,1.965
		c20.507,6.01,37.769,17.885,56.375,27.818c-0.66,2.033-1.26,4.113-1.787,6.226c-0.141-0.121-0.256-0.252-0.449-0.349
		c-22.7-11.414-45.96-21.514-67.909-34.392C78.607,37.452,88.195,35.316,97.76,31.752z M23.863,34.182
		c0.302,0.481,0.791,0.878,1.566,1.051c4.401,0.98,8.763,1.761,13.096,2.369c-0.298,0.544-0.241,1.242,0.49,1.604
		c30.855,15.314,61.566,33.981,93.547,46.65c2.008,0.796,3.027-2.245,1.4-3.32c-27.581-18.224-60.858-30.647-91.036-44.385
		c7.821,0.86,15.547,1.065,23.213,0.518c0.051,0.054,0.093,0.112,0.164,0.156c21.892,13.959,44.591,27.133,68.36,37.669
		c0.657,0.292,1.288,0.245,1.824,0.014c-1.302,6.142-2.03,12.455-2.082,18.508c-0.017-0.016-0.021-0.036-0.039-0.052
		C114.72,77.72,86.642,69.538,62.953,58.942c-10.797-4.829-21.599-9.649-32.44-14.382c-4.328-1.89-8.967-4.742-13.852-4.492
		c-0.733,0.038-0.986,0.959-0.368,1.361c13.541,8.799,29.735,14.502,44.447,21.299c24.198,11.178,48.159,22.036,71.364,35.169
		c0.854,0.482,1.759,0.163,2.317-0.45c0.098,4.479,0.574,8.781,1.478,12.714c-15.459-12.88-35.471-21.298-53.413-29.111
		C58.093,70.428,33.003,61.262,9.722,48.281C12.313,41.657,16.775,36.55,23.863,34.182z M7.563,78.085
		c26.397,16.813,54.659,30.569,81.512,46.679c-1.028,0.764-1.711,2.005-1.421,3.596c0.637,3.489,1.811,8.198,2.919,13.334
		c-7.581-7.495-20.2-12.48-28.327-16.765c-16.717-8.813-34.426-16.181-50.3-26.52C10.022,91.95,8.461,84.984,7.563,78.085z
		 M77.146,179.693c-16.267-0.671-23.516-11.806-27.649-25.679c11.292,9.014,23.154,17.219,35.696,24.403
		C83.052,179.363,80.402,179.828,77.146,179.693z M88.685,176.022c-13.817-7.666-27.342-15.744-40.043-25.168
		c-0.84-3.388-1.406-7.31-2.061-11.293c4.862,5.114,10.147,9.784,15.835,14.111c8.258,6.282,19.244,13.896,29.873,15.687
		C91.582,171.99,90.439,174.28,88.685,176.022z M92.97,165.694c-8.494-4.675-17.627-7.923-25.944-13.184
		c-7.63-4.825-14.823-10.442-21.149-16.896c-1.165-6.135-2.824-12.085-6.364-16.172c-0.575-0.664-1.317-0.641-1.91-0.285
		c-0.693-0.508-1.162-1.14-2.058-1.421c-1.806-0.566-3.546-0.935-5.421-1.165c-3.455-0.424-7.013-0.329-10.416,0.404
		c-0.21,0.045-0.391,0.118-0.575,0.186c-2.058-4.173-4.13-9.283-5.978-14.895c25.539,16.721,57.24,26.177,78.998,47.719
		C93.03,155.439,93.525,160.934,92.97,165.694z M97.307,124.394C68.367,106.448,37.461,91.537,7.298,75.77
		c-0.527-4.883-0.682-9.691-0.37-14.234c41.18,37.681,97.17,63.029,149.3,82.412C138.511,146.708,116.195,128.372,97.307,124.394z
		 M163.686,141.275c-0.067-0.032-0.107-0.086-0.181-0.113c-55.71-21.17-106.999-48.251-156.428-81.335
		c0.324-3.325,0.953-6.46,1.871-9.37c42.406,25.585,90.521,38.952,130.31,69.018c3.716,7.028,9.662,11.484,18.318,11.27
		c1.039-0.025,2.01-0.169,2.94-0.373c-0.722,0.607-0.909,1.794,0.178,2.42c2.11,1.215,4.014,2.756,6.092,4.024
		c0.544,0.332,1.088,0.552,1.659,0.636C166.923,139.019,165.335,140.288,163.686,141.275z M174.946,127.901
		c-1.315,2.663-2.722,4.925-4.198,6.86c-0.265-0.391-0.649-0.622-1.096-0.641c-0.226-0.145-0.442-0.298-0.705-0.412
		c-0.741-0.323-1.452-0.728-2.161-1.116c-1.508-0.829-2.983-1.726-4.551-2.441c-0.174-0.08-0.342-0.105-0.509-0.125
		c3.903-1.241,6.769-4.131,8.822-8.116c-0.055,0.494,0.615,0.694,0.782,0.195c-0.128,0.381,4.63,1.813,4.962,1.927
		c0.114,0.039,0.239,0.092,0.356,0.134C176.109,125.428,175.552,126.68,174.946,127.901z M177.612,121.776
		c-1.243-0.339-2.489-0.669-3.764-0.874c-0.659-0.106-2.339-0.164-3.015,0.486c1.753-3.613,2.851-8.099,3.461-13.065
		c0.443,0.228,0.877,0.47,1.327,0.69c1.704,0.835,3.441,1.852,5.24,2.574C179.966,115.071,178.901,118.484,177.612,121.776z
		 M181.527,108.931c-1.515-0.762-3.138-1.352-4.681-2.012c-0.783-0.334-1.546-0.701-2.312-1.063c0.26-2.948,0.346-6.05,0.313-9.22
		c2.68,1.192,5.492,2.099,8.318,2.869C182.74,102.686,182.23,105.843,181.527,108.931z M183.387,97.702
		c-2.87-1.042-5.788-1.906-8.572-3.118c-0.11-4.089-0.438-8.279-0.91-12.431c0.522,0.226,1.05,0.438,1.57,0.666
		c2.87,1.255,5.648,2.942,8.689,3.734C184.067,90.289,183.819,94.016,183.387,97.702z M173.506,78.911
		c-0.491-3.692-1.102-7.304-1.776-10.773c0.211,0.126,0.417,0.259,0.628,0.384c3.643,2.169,7.441,4.824,11.533,6.02
		c0.195,3.112,0.314,6.236,0.297,9.363C181.069,81.777,177.297,80.249,173.506,78.911z"/>
</g>
<g>
</g>
<g>
</g>
<g>
</g>
<g>
</g>
<g>
</g>
<g>
</g>
<g>
</g>
<g>
</g>
<g>
</g>
<g>
</g>
<g>
</g>
<g>
</g>
<g>
</g>
<g>
</g>
<g>
</g>
</svg>
