<?xml version="1.0" encoding="iso-8859-1"?>
<!-- Generator: Adobe Illustrator 16.0.0, SVG Export Plug-In . SVG Version: 6.00 Build 0)  -->
<!DOCTYPE svg PUBLIC "-//W3C//DTD SVG 1.1//EN" "http://www.w3.org/Graphics/SVG/1.1/DTD/svg11.dtd">
<svg version="1.1" id="Capa_1" xmlns="http://www.w3.org/2000/svg" xmlns:xlink="http://www.w3.org/1999/xlink" x="0px" y="0px"
	 width="187.188px" height="187.188px" viewBox="0 0 187.188 187.188" style="enable-background:new 0 0 187.188 187.188;"
	 xml:space="preserve">
<g>
	<path d="M186.354,81.726c0.335-16.479,0.573-32.988-0.218-49.457c-0.224-4.677,0.123-13.182-3.104-17.946
		c0.058-2.089-1.279-3.782-2.993-4.584c-0.181-0.242-0.402-0.476-0.677-0.698c-7.117-5.719-21.432-4.361-29.98-4.941
		C129.33,2.741,109.22,2.119,89.127,1.717C70.354,1.342,51.532,1.281,32.777,2.375c-3.575,0.209-12.094,0.334-17.041,3.021
		c-1.343-1.591-4.669-1.218-5.491,1.159C1.064,33.122,0.625,63.295,0.29,91.09c-0.314,25.939-1.88,58.987,7.581,83.625
		c1.329,3.463,6.335,3.691,7.525,0.539c5.323,5.804,15.058,5.072,22.508,5.82c15.657,1.575,31.393,2.379,47.108,3.062
		c16.265,0.707,32.547,0.973,48.825,1.053c11.876,0.06,26.129,1.938,37.519-1.771c0.214-0.069,0.376-0.196,0.565-0.295
		c0.141,0.168,0.241,0.341,0.422,0.505c1.636,1.487,4.915,1.582,5.953-0.768C191.854,152.204,185.688,114.476,186.354,81.726z
		 M176.863,36.718c-0.424-0.374-0.854-0.748-1.245-1.12c-1.712-1.625-3.424-3.251-5.137-4.877c2.182-1.847,4.316-3.743,6.174-5.685
		C177.044,28.828,176.954,33.004,176.863,36.718z M15.056,160.972c-1.514-23.221-5.345-46.371-5.311-69.882
		c0.037-26.307,3.169-52.046,5.954-78.086c0.339-0.134,0.673-0.324,0.979-0.642c2.563-2.656,23.219-0.861,27.099-0.97
		c17.632-0.495,35.305-0.19,52.934,0.2c16.565,0.367,33.125,1.025,49.664,2.012c7.873,0.47,16.885,2.553,25.1,2.639
		c-5.722,7.123-21.554,18.606-26.869,23.454c-17.525,15.984-35.143,31.867-52.682,47.834c-17.49,15.924-34.934,31.901-52.011,48.268
		C31.832,143.543,22,151.64,15.056,160.972z M176.395,109.084c-7.71-7.575-15.991-14.675-23.652-22.318
		c-7.255-7.239-14.366-14.545-21.972-21.384c2.835-2.57,5.662-5.15,8.497-7.721c10.04,13.267,22.063,25.44,33.71,37.093
		c1.142,1.141,2.543,0.931,3.525,0.159C176.457,99.638,176.376,104.366,176.395,109.084z M176.586,123.566
		c0.039,1.252,0.021,2.491,0.046,3.738c-7.883-9.546-18.377-17.981-26.869-26.688c-8.388-8.601-17.612-20.417-28.319-26.758
		c2.189-1.986,4.374-3.978,6.563-5.964c16.431,15.618,30.126,35.304,48.482,48.26C176.529,118.626,176.508,121.089,176.586,123.566z
		 M19.294,170.412c2.668-3.56,5.679-6.935,8.839-10.207c1.419,1.791,2.676,3.735,3.991,5.6c1.106,1.565,2.215,3.13,3.326,4.692
		C29.834,169.632,24.035,169.057,19.294,170.412z M47.697,172.288c-1.579-0.116-3.328-0.367-5.139-0.651
		c-1.03-1.327-2.285-2.571-3.136-3.68c-2.298-2.999-4.501-6.077-6.949-8.958c-0.426-0.503-0.912-1.129-1.45-1.722
		c1.505-1.485,3.071-2.909,4.613-4.358c4.121,5.271,8.458,10.374,12.805,15.458c1.087,1.27,2.18,2.725,3.325,4.176
		C50.411,172.455,49.053,172.389,47.697,172.288z M59.238,173.034c-2.037-2.459-4.602-4.62-6.711-6.841
		c-4.874-5.134-9.739-10.3-14.353-15.673c2.057-1.904,4.106-3.793,6.136-5.674c6.559,7.025,12.814,14.347,19.307,21.432
		c1.714,1.871,3.97,4.729,6.524,7.39C66.506,173.464,62.871,173.266,59.238,173.034z M78.322,174.087
		c-5.304-3.458-10.339-9.787-14.118-13.604c-5.866-5.924-11.394-12.175-17.267-18.091c0.673-0.63,1.362-1.264,2.025-1.893
		c0.987-0.937,1.998-1.85,2.986-2.784c8.681,7.122,15.743,16.159,22.899,24.734c2.537,3.041,5.743,7.722,9.366,11.887
		C82.249,174.25,80.285,174.18,78.322,174.087z M92.349,174.649c-1.18-0.891-2.35-1.793-3.418-2.784
		c-4.684-4.346-8.82-9.265-13.037-14.053c-6.835-7.76-13.629-15.745-21.924-21.982c1.659-1.562,3.338-3.103,5.006-4.653
		c14.409,13.999,27.247,29.484,41.413,43.679C97.709,174.785,95.029,174.734,92.349,174.649z M108.329,175.057
		c-15.774-15.136-30.215-32.135-47.237-45.847c2.209-2.049,4.411-4.104,6.618-6.153c8.873,10.913,17.842,21.759,26.917,32.5
		c5.187,6.139,10.45,12.168,15.525,18.396c0.333,0.409,0.662,0.797,0.996,1.176C110.209,175.109,109.269,175.078,108.329,175.057z
		 M118.95,175.27c0.123-0.319,0.245-0.639,0.368-0.958c0.881-2.294-2.521-4.171-4.096-2.384c1.763-2.001-30.817-36.653-44.878-51.32
		c1.21-1.119,2.432-2.224,3.641-3.343c7.133,11.811,17.703,22.29,26.713,32.605c6.97,7.98,14.472,17.721,22.891,25.438
		C122.044,175.287,120.497,175.294,118.95,175.27z M138.921,175.431c-1.939,0.007-3.878-0.038-5.816-0.047
		c-8.415-8.967-18.112-17.128-26.545-26.034c-10.334-10.914-19.637-23.647-30.815-33.699c2.293-2.118,4.603-4.218,6.899-6.333
		c0.772,0.872,1.699,1.07,3.508,2.411c-1.497-0.198-0.435,1.048,3.222,3.761c3.695,3.78,7.254,7.684,10.803,11.6
		c5.924,6.54,11.57,13.335,17.245,20.091c5.681,6.763,11.346,13.538,17.077,20.259c1.966,2.306,4.06,5.173,6.297,7.953
		C140.17,175.405,139.538,175.428,138.921,175.431z M148.036,175.113c-22.195-21.199-39.462-47.83-62.028-68.883
		c2.328-2.143,4.665-4.277,6.992-6.419c22.603,24.482,44.327,49.438,65.712,74.981C155.167,174.771,151.581,174.934,148.036,175.113
		z M171.229,174.283c-0.152,0.664-0.262,1.227-0.349,1.732c-1.337-0.315-2.719-0.494-4.098-0.678
		c-0.117-0.253-0.209-0.511-0.41-0.751c-22.326-26.61-46.18-52.633-71.385-76.602c2.06-1.894,4.123-3.785,6.184-5.678
		c16.858,16.138,32.657,32.985,47.953,50.632c7.304,8.429,13.346,21.566,22.442,28.171L171.229,174.283z M175.047,157.292
		c-0.378,2.334-1.244,4.563-2.008,6.802c-0.1-0.069-0.195-0.137-0.302-0.184c-1.778-2.166-3.518-4.354-5.227-6.581
		c-3.674-4.784-7.054-9.505-11.243-13.848c-17.335-17.971-33.976-36.923-53.283-52.837c0.486-0.446,0.971-0.895,1.459-1.34
		c2.063-1.879,4.131-3.754,6.197-5.631c11.068,11.281,21.834,22.776,32.404,34.53c8.633,9.602,18.972,25.696,30.839,31.307
		c0.752,0.355,1.552,0.235,2.16-0.145C175.792,152.006,175.475,154.647,175.047,157.292z M176.283,146.037
		c-6.339-10.4-18.91-19.524-27.382-28.168c-11.891-12.129-23.556-24.743-36.393-35.893c2.373-2.155,4.744-4.314,7.119-6.467
		c8.076,9.956,18.383,18.808,27.069,28.174c9.068,9.778,18.44,23.559,30.019,30.47C176.686,138.122,176.564,142.083,176.283,146.037
		z M176.577,85.345c-0.035,1.728-0.015,3.444-0.039,5.169c-11.666-11.669-23.168-23.409-34.614-35.264
		c3.125-2.836,6.245-5.674,9.368-8.512c5.979,6.382,11.521,13.176,17.128,19.882c2.502,2.993,5.182,6.801,8.331,9.803
		C176.696,79.398,176.636,82.372,176.577,85.345z M176.855,69.71c-7.983-8.133-15.349-16.882-23.512-24.838
		c0.849-0.772,1.7-1.539,2.546-2.313c0.798-0.73,1.773-1.54,2.812-2.383c4.306,4.119,8.196,8.621,11.986,13.22
		c2.005,2.432,3.988,5.475,6.237,8.1C176.905,64.235,176.896,66.972,176.855,69.71z M173.391,50.694
		c-3.989-4.279-8.11-8.434-12.583-12.206c2.068-1.629,4.386-3.429,6.712-5.305l4.411,4.647c1.55,1.633,3.13,3.607,4.874,5.288
		c0.094,3.713,0.126,7.427,0.139,11.142C175.708,53.059,174.489,51.87,173.391,50.694z"/>
</g>
<g>
</g>
<g>
</g>
<g>
</g>
<g>
</g>
<g>
</g>
<g>
</g>
<g>
</g>
<g>
</g>
<g>
</g>
<g>
</g>
<g>
</g>
<g>
</g>
<g>
</g>
<g>
</g>
<g>
</g>
</svg>
