<?xml version="1.0" encoding="iso-8859-1"?>
<!-- Generator: Adobe Illustrator 16.0.0, SVG Export Plug-In . SVG Version: 6.00 Build 0)  -->
<!DOCTYPE svg PUBLIC "-//W3C//DTD SVG 1.1//EN" "http://www.w3.org/Graphics/SVG/1.1/DTD/svg11.dtd">
<svg version="1.1" id="Capa_1" xmlns="http://www.w3.org/2000/svg" xmlns:xlink="http://www.w3.org/1999/xlink" x="0px" y="0px"
	 width="187.679px" height="187.679px" viewBox="0 0 187.679 187.679" style="enable-background:new 0 0 187.679 187.679;"
	 xml:space="preserve">
<g>
	<g>
		<path d="M51.757,1.456c-0.479-0.114-0.915-0.111-1.325-0.053c-0.476-0.837-1.305-1.423-2.505-1.28
			C22.207,3.195-2.222,16.276,0.161,45.667c1.787,22.032,24.419,45.616,47.618,41.8C90.932,80.368,95.003,11.777,51.757,1.456z
			 M56.57,77.194c-21.431,12.43-43.381-9.086-48.694-28.593c-7.369-27.057,19.932-36.897,40.14-42.26
			c0.367,0.681,0.993,1.253,1.972,1.528C81.107,16.626,83.449,61.605,56.57,77.194z"/>
		<path d="M187.357,160.792c-4.589-10.086-18.03-19.058-26.089-26.47c-8.508-7.827-18.183-17.619-29.008-22.108
			c-1.549-0.642-2.213,1.474-1.438,2.472c1.819,2.344,3.841,4.586,5.97,6.768c-12.648-13.381-26.402-25.772-41.007-35.649
			c3.9-0.188,7.8-0.397,11.699-0.592c7.083,8.5,16.228,17.537,26.03,23.264c-0.181,0.371-0.411,0.749-0.584,1.118
			c-0.995,2.13,1.629,4.562,3.425,2.643c0.471-0.504,0.952-1.017,1.427-1.521c0.147,0.07,0.294,0.162,0.441,0.23
			c1.91,0.877,4.284-1.574,2.418-3.135c-0.024-0.021-0.054-0.039-0.078-0.06c5.866-6.251,11.82-12.662,17.063-19.291
			c1.772-0.462,2.697-2.348,1.845-4.301c-3.866-8.865-23.912-7.13-31.374-7.207c-14.544-0.151-29.04,1.219-43.557,1.903
			c-0.767-0.435-1.525-0.905-2.296-1.324c-1.003-0.545-1.739,0.794-0.932,1.476c-0.82,0.032-1.64,0.09-2.462,0.116
			c-1.95,0.061-3.601,1.587-3.592,3.591c0.119,25.532,1.027,51.077,2.256,76.578c0.068,1.401,0.909,2.246,1.918,2.562
			c0.537,1.397,2.014,2.346,3.762,1.305c9.51-5.668,18.182-12.838,26.145-20.502c0.967-0.932,1.156-2.015,0.938-3.019
			c6.688,10.021,16.43,18.86,25.05,27.054c6.312,5.998,16.119,18.756,25.255,20.308c1.037,0.176,1.942-0.129,2.567-0.693
			c0.435,0.591,1.06,1.005,1.908,0.954c0.152,0.078,0.305,0.156,0.457,0.234c0.263,0.232,0.678-0.062,0.493-0.381
			c-0.239-0.414,6.842-7.793,7.962-8.896c4.007-3.94,8.598-7.429,12.064-11.883c0.534-0.687,0.798-1.429,0.852-2.156
			C187.664,163.381,187.96,162.117,187.357,160.792z M116.847,84.803c11.231-0.366,21.199,0.752,31.665,2.439
			c-2.911,2.905-5.609,6.212-8.067,9.667c-1.339-0.906-2.71-1.77-3.935-2.674c-3.76-2.774-7.498-5.573-11.36-8.205
			c-1.192-0.811-2.66,1.077-1.546,2.002c3.256,2.704,6.534,5.377,9.811,8.057c1.528,1.25,3.09,2.786,4.733,4.179
			c-0.838,1.305-1.653,2.618-2.402,3.938c-3.378-2.276-6.913-4.37-10.204-6.731c-5.221-3.745-10.172-7.914-14.78-12.408
			C112.789,84.975,114.819,84.87,116.847,84.803z M83.222,156.165c0.099-3.148,0.087-6.298,0.12-9.447
			c0.005,0.005,0.008,0.011,0.013,0.015c1.386,1.472,3.736,3.219,6.2,4.338C87.469,152.794,85.363,154.496,83.222,156.165z
			 M93.174,148.014c-0.424-0.109-0.864-0.217-1.339-0.35c-1.862-0.52-3.553-1.424-5.161-2.473c-1.286-0.838-2.336-1.867-3.275-2.976
			c0.009-3.672-0.035-7.344-0.08-11.017c2.109,2.287,4.291,4.508,6.58,6.631c2.245,2.082,4.699,4.637,7.376,6.523
			C95.917,145.584,94.561,146.818,93.174,148.014z M104.325,137.639c-1.303,1.324-2.648,2.596-3.991,3.869
			c-2.422-2.245-5.486-4.124-7.913-6.201c-3.256-2.787-6.297-5.811-9.162-8.994c-0.055-3.235-0.137-6.47-0.208-9.705
			c3.624,3.453,7.156,7,10.695,10.539c3.292,3.293,6.921,7.529,11.087,10.146C104.664,137.415,104.486,137.475,104.325,137.639z
			 M162.853,181.898c-6.538-7.427-15.091-13.629-22.297-20.434c-9.117-8.609-18.041-17.88-27.763-25.805
			c-1.073-0.874-2.548-0.555-3.292,0.307c-3.741-4.213-9.047-7.482-13.247-11.328c-4.397-4.027-8.726-8.121-13.288-11.959
			c-0.115-5.003-0.183-10.004-0.276-15.006c25.281,28.152,50.986,59.24,83.058,79.323
			C164.52,178.518,163.404,180.189,162.853,181.898z M169.062,173.308c-0.293,0.31-0.639,0.681-0.967,1.029
			c-30.158-25.508-56.85-53.858-85.482-80.905c-0.037-2.393-0.111-4.787-0.132-7.18c2.591-0.028,5.182-0.108,7.773-0.205
			c29.862,24.611,51.613,55.826,80.149,81.837c1.391,1.269,3.935-0.437,2.728-2.104c-10.497-14.502-22.551-29.688-35.835-43.804
			c6.787,6.864,14.7,13.091,21.469,19.607c6.293,6.058,13.078,15.571,20.757,20.847C176.13,166.145,172.524,169.656,169.062,173.308
			z"/>
	</g>
</g>
<g>
</g>
<g>
</g>
<g>
</g>
<g>
</g>
<g>
</g>
<g>
</g>
<g>
</g>
<g>
</g>
<g>
</g>
<g>
</g>
<g>
</g>
<g>
</g>
<g>
</g>
<g>
</g>
<g>
</g>
</svg>
