<?xml version="1.0" encoding="iso-8859-1"?>
<!-- Generator: Adobe Illustrator 16.0.0, SVG Export Plug-In . SVG Version: 6.00 Build 0)  -->
<!DOCTYPE svg PUBLIC "-//W3C//DTD SVG 1.1//EN" "http://www.w3.org/Graphics/SVG/1.1/DTD/svg11.dtd">
<svg version="1.1" id="Capa_1" xmlns="http://www.w3.org/2000/svg" xmlns:xlink="http://www.w3.org/1999/xlink" x="0px" y="0px"
	 width="195.163px" height="195.163px" viewBox="0 0 195.163 195.163" style="enable-background:new 0 0 195.163 195.163;"
	 xml:space="preserve">
<g>
	<g>
		<path d="M193.505,110.825c0.213-0.354,0.447-0.71,0.601-1.058c0.533-1.217-0.156-2.334-1.077-2.804
			c0.146-0.397,0.188-0.82-0.084-1.185c-0.46-0.613-1.003-1.14-1.602-1.608c0.095-0.181,0.188-0.364,0.189-0.602
			c0.014-2.341-1.057-4.859-1.284-7.235c-0.257-2.697-0.095-5.376-0.117-8.074c2.863-17.051-34.25-34.866-45.604-37.544
			c-15.64-3.689-32.311-6.619-49.076-8.035c-0.173-0.527-0.403-1.039-0.56-1.571c-0.173-0.589-1.012-0.338-0.906,0.25
			c0.074,0.409,0.199,0.81,0.29,1.216c-11.851-0.948-23.737-1.147-35.338-0.209c-0.108-0.033-0.219-0.027-0.312,0.03
			c-6.175,0.511-12.273,1.318-18.233,2.498C25.288,47.884,3.54,60.503,0.84,77.201c-0.173,0.048-0.334,0.164-0.358,0.395
			c-1.746,16.643,0.724,37.373,16.249,47.371c14.791,9.523,39.841,15.903,57.306,11.885c0.895-0.206,1.108-0.957,0.902-1.632
			c0.048-0.023,0.097-0.025,0.144-0.057c6.131-4.006,10.572-9.926,14.622-15.922c2.823-4.18,7.311-9.846,9.47-15.231
			c1.812,1.106,3.681,2.146,5.585,3.023c-1.003,2.115-1.996,4.235-3.061,6.319c-3.195,6.26-7.878,11.093-11.523,16.918
			c-0.581,0.928,0.002,1.755,0.816,2.045c1.242,28.14,34.052,22.712,55.906,19.144C166.719,148.224,203.384,137.558,193.505,110.825
			z M188.074,102.456c-1.19-0.437-2.445-0.79-3.779-1.017c-0.39-0.738-0.738-1.501-1.095-2.256
			c-0.185-0.393-0.366-0.868-0.594-1.309c0.489,0.065,1.003,0.009,1.479-0.383c1.541-1.263,2.748-2.549,3.689-3.849
			c-0.07,1.205-0.107,2.409-0.122,3.574C187.633,98.688,187.586,100.755,188.074,102.456z M182.652,93.622
			c-0.161-0.241-0.423-0.421-0.704-0.584c0.101-0.103,0.215-0.196,0.261-0.339c1.818-5.749-4.508-12.261-7.906-16.143
			c-5.521-6.307-12.073-11.6-18.043-17.463C172.49,66.462,195.281,81.03,182.652,93.622z M153.294,57.795
			c0.027,0.068,0.015,0.138,0.07,0.202c9.095,10.261,24.368,20.055,26.866,34.349c-2.215-0.824-4.438-1.621-6.689-2.323
			c-7.25-12.953-19.589-22.166-27.328-34.89C148.111,55.731,150.56,56.643,153.294,57.795z M143.509,54.401
			c0.162,0.032,0.362,0.082,0.549,0.126c6.105,12.767,16.927,23.982,26.27,34.589c-1.985-0.566-3.966-1.149-5.973-1.631
			c0.069-0.226,0.066-0.476-0.075-0.728c-3.316-5.912-8.594-10.874-13.095-15.889c-4.952-5.518-9.536-11.215-13.44-17.476
			C139.665,53.729,141.594,54.029,143.509,54.401z M127.092,51.53c3.107,6.816,7.637,13.151,11.983,19.183
			c3.427,4.754,7.99,12.342,13.751,14.407c0.895,0.32,1.376-0.857,0.854-1.465c-4.933-5.728-10.368-10.643-14.925-16.841
			c-3.546-4.825-6.755-9.874-9.885-14.973c2.204,0.372,4.4,0.78,6.604,1.155c6.383,12.276,16.701,24.12,26.333,33.938
			c-5.356-1.189-10.769-2.142-16.222-2.815c-0.021-0.14-0.056-0.279-0.146-0.387c-4.525-5.475-9.008-10.688-13.001-16.625
			c-3.709-5.516-7.105-11.351-11.196-16.601C123.198,50.814,125.14,51.206,127.092,51.53z M116.937,49.811
			c1.025,0.154,2.048,0.337,3.072,0.496c0.009,0.021-0.004,0.041,0.009,0.062c4.058,7.047,8.392,14.008,12.811,20.834
			c2.469,3.813,5.583,9.609,9.69,12.557c-1.183-0.126-2.357-0.311-3.541-0.416c-0.022-0.075-0.001-0.151-0.056-0.223
			c-8.339-11.07-19.673-20.202-24.284-33.601C115.398,49.624,116.179,49.697,116.937,49.811z M113.243,49.345
			c1.482,5.889,4.678,11.209,8.078,16.245c4.021,5.957,8.979,12.996,14.875,17.467c-0.068-0.005-0.136-0.017-0.205-0.021
			c-1.941-0.14-3.946-0.284-5.98-0.428c0.253-0.353,0.354-0.834-0.001-1.256c-9.01-10.757-17.661-21.428-25.423-33.099
			C107.482,48.6,110.363,48.971,113.243,49.345z M103.316,48.092c5.371,12.67,16.127,24.18,25.08,34.405
			c-1.206-0.084-2.406-0.169-3.629-0.25c0.09-0.244,0.089-0.515-0.145-0.701c-11.065-8.84-21.776-20.776-27.488-34.234
			C99.212,47.531,101.246,47.848,103.316,48.092z M95.627,47.163c2.525,6.829,6.94,13.218,11.038,18.92
			c3.993,5.556,9.324,13.03,15.906,16.038c-2.489-0.156-4.98-0.319-7.484-0.428C104.958,70.405,94.679,59.714,87.27,46.344
			C90.065,46.551,92.842,46.88,95.627,47.163z M85.979,46.262c6.612,13.064,16.364,25.307,27.076,35.366
			c-1.567-0.058-3.14-0.122-4.687-0.148c-8.486-12.773-20.986-22.083-28.489-35.604C81.912,45.964,83.945,46.121,85.979,46.262z
			 M78.792,45.826c6.04,13.598,17.93,24.634,27.747,35.66c-2.063-0.015-4.143-0.043-6.129,0.021
			c-9.628-11.328-18.513-22.669-25.463-35.855C76.228,45.678,77.51,45.776,78.792,45.826z M73.716,45.639
			c2.792,6.894,6.649,13.339,10.68,19.566c1.066,1.647,2.245,3.545,3.517,5.493c-7.025-8.249-15.551-15.408-20.665-25.13
			C69.397,45.51,71.559,45.61,73.716,45.639z M65.838,45.626c5.793,14.246,19.472,24.206,28.019,36.79
			c-0.738,1.374-1.53,2.714-2.299,4.067c-13.079-11.687-20.99-26.166-30.279-40.661C62.795,45.721,64.317,45.681,65.838,45.626z
			 M90.894,87.657c-0.699,1.206-1.339,2.452-2.06,3.644c-2.092-3.494-4.4-6.834-6.797-10.112
			C84.606,84.07,87.535,86.49,90.894,87.657z M57.18,46.112c0.952-0.095,1.911-0.129,2.867-0.202
			c4.494,8.622,9.281,17.109,14.645,25.216c0.632,0.956,1.309,1.976,2.008,3.014c-7.154-9.1-14.71-17.922-20.735-27.863
			C56.363,46.228,56.795,46.15,57.18,46.112z M54.61,46.46c8.805,16.727,21.772,31.455,33.12,46.427
			c0.025,0.033,0.063,0.027,0.09,0.055c-0.893,1.449-1.77,2.91-2.686,4.344C73.332,80.58,61.021,64.312,49.494,47.39
			C51.282,47,52.975,46.705,54.61,46.46z M42.527,49.203c8.135,10.164,13.659,22.947,20.356,33.964
			c3.656,6.014,9.994,18.859,18.197,19.661c0.748,0.073,0.999-1.049,0.375-1.386c-10.181-5.488-16.333-18.821-22.06-28.349
			c-4.858-8.081-9.421-17.003-15.623-24.275c1.529-0.435,3.019-0.808,4.486-1.151c10.444,17.765,21.98,36.013,35.819,51.278
			c-1.603,2.485-3.219,4.963-4.836,7.44C64.57,88.949,46.723,72.276,39.04,50.281C40.214,49.887,41.37,49.547,42.527,49.203z
			 M38.16,50.6c5.869,21.671,24.187,42.353,40.073,57.298c0.006,0.006,0.012,0.002,0.018,0.007c-0.598,0.92-1.202,1.836-1.795,2.76
			C60.422,92.44,45.555,73.418,33.538,52.273C35.077,51.66,36.62,51.13,38.16,50.6z M32.468,52.689
			c5.266,10.669,11.773,22.27,19.329,32.956c-7.98-10.438-16.43-20.626-23.044-31.332C29.979,53.747,31.22,53.205,32.468,52.689z
			 M27.721,54.812c8.154,14.481,18.339,27.588,27.783,41.239c4.654,6.727,8.58,17.795,14.768,23.729
			c-1.107,0.187-2.216,0.337-3.326,0.463c-7.512-9.571-13.193-20.685-20.315-30.591c-7.819-10.876-15.133-21.815-21.228-33.72
			C26.162,55.541,26.946,55.183,27.721,54.812z M24.622,56.362c5.02,12.406,12.56,23.387,20.257,34.314
			c6.747,9.579,12.06,20.778,19.539,29.834c-1.765,0.107-3.533,0.157-5.299,0.092C41.552,103.583,32.317,79.779,20.883,58.45
			C22.091,57.72,23.351,57.034,24.622,56.362z M20.052,58.977c4.043,8.491,7.939,18.297,12.428,27.861
			c-5.805-8.22-11.267-16.661-15.194-26.103C18.166,60.119,19.122,59.557,20.052,58.977z M16.406,61.406
			c4.207,12.039,11.169,22.669,18.386,33.172c5.363,7.805,10.61,18.998,17.983,25.486c-1.804-0.263-3.602-0.586-5.384-1.008
			c0.33-0.238,0.526-0.669,0.255-1.058c-12.214-17.557-21.89-36.84-34.538-54.074C14.128,63.043,15.277,62.229,16.406,61.406z
			 M12.454,64.49c11.154,18.064,20.433,37.749,33.766,54.3c-1.172-0.301-2.338-0.634-3.495-0.998
			C32.298,100.667,16.179,86.387,9.798,67.094C10.615,66.198,11.515,65.335,12.454,64.49z M8.829,68.171
			c5.472,18.446,20.304,33.429,31.546,48.831c-2.758-0.98-5.472-2.107-8.097-3.421c-8.451-14.312-18.463-27.4-25.635-42.452
			C7.281,70.115,8.027,69.134,8.829,68.171z M6.053,72.166c5.527,14.251,14.514,27.282,23.258,39.799
			c-2.661-1.484-5.261-3.067-7.706-4.843c0.568,0.074,1.016-0.546,0.569-1.046C14.353,97.338,7.981,85.922,4.907,74.404
			C5.225,73.641,5.639,72.904,6.053,72.166z M4.321,76.07c1.385,5.248,3.542,10.315,5.841,15.199
			c1.682,3.574,4.022,8.868,7.18,12.514c-1.405-1.181-2.777-2.389-4.073-3.652C4.147,91.245,2.1,83.15,4.321,76.07z M29.008,126.939
			c-17.397-5.707-24.697-21.548-26.869-38.17c0.362,0.945,0.683,1.886,1.182,2.846c10.945,21.041,39.279,35.469,63.094,31.195
			c0.216,0.236,0.412,0.494,0.632,0.727c0.805,0.854,1.908-0.26,1.409-1.17c0.627-0.143,1.267-0.239,1.887-0.41
			c-0.156,2.065,0.422,4.622,0.64,6.252c0.183,1.369,0.394,2.771,0.962,4.041c0.273,0.612,0.57,1.265,1.048,1.752
			C57.827,132.869,43.639,131.738,29.008,126.939z M71.843,118.058c-3.672-8.95-8.967-17.306-14.833-25.416
			c5.758,7.309,12.032,13.914,18.759,19.124C74.443,113.852,73.105,115.93,71.843,118.058z M88.486,114.113
			c-3.758,6.087-7.952,12.22-13.202,17.159c-0.03-0.164-0.06-0.331-0.078-0.398c-0.355-1.321-0.477-2.665-0.563-4.025
			c-0.103-1.624,0.147-4.238-0.589-6.007c0.013-0.015,0.034-0.012,0.046-0.026c7.815-9.634,14.697-20.628,20.655-31.672
			c0.041,0.467,0.086,0.934,0.105,1.356c0.156,3.442,0.388,6.927,1.126,10.302C92.954,104.579,90.835,110.309,88.486,114.113z
			 M103.112,102.199c-0.96-0.445-1.962-0.924-2.98-1.336c0.068-0.334,0.181-0.677,0.222-1.005c0.125-1.004-0.769-1.438-1.599-1.361
			c-0.123-2.664-0.141-5.337-0.147-7.999c-0.005-1.997,0.433-4.614-0.551-6.442c5.397,4.418,17.257,2.844,23.026,2.846
			c20.752,0.007,39.914,3.194,59.684,9.551c0.007,0.002,0.012,0.001,0.018,0.002c-0.083,0.049-0.187,0.034-0.243,0.154
			c-0.04,0.085-0.207,0.327-0.324,0.613c-0.065,0.161-0.066,0.188-0.059,0.194c-0.023,0.039-0.016,0.022-0.047,0.075
			c-0.223,0.38-0.223,0.892-0.118,1.31c0.19,0.757,0.489,1.481,0.756,2.216c-3.596-0.249-7.22-0.119-9.98-0.195
			c-19.728-0.546-38.716-2.134-58.201-5.836c-0.034-0.007-0.053,0.021-0.087,0.017c-0.711-0.55-1.865-0.599-2.308,0.367
			c-1.276,2.791-2.546,5.588-3.837,8.375C105.28,103.19,104.182,102.696,103.112,102.199z M104.051,117.154
			c3.456-6.286,6.199-12.914,8.598-19.661c14.797,4.169,29.525,6.367,44.862,7.321c11.237,0.699,22.364-1.043,33.144,2.978
			c-6.159,13.951-33.125,18.611-46.225,21.782c-12.326,2.984-37.228,9.524-49.26,0.718
			C99.039,126.894,101.827,121.199,104.051,117.154z M153.889,145.917c-18.24,4.591-53.84,11.023-59.689-11.915
			c12.663,14.513,79.535-3.758,96.502-19.821C193.033,135.067,171.271,141.543,153.889,145.917z"/>
	</g>
</g>
<g>
</g>
<g>
</g>
<g>
</g>
<g>
</g>
<g>
</g>
<g>
</g>
<g>
</g>
<g>
</g>
<g>
</g>
<g>
</g>
<g>
</g>
<g>
</g>
<g>
</g>
<g>
</g>
<g>
</g>
</svg>
