<?xml version="1.0" encoding="iso-8859-1"?>
<!-- Generator: Adobe Illustrator 16.0.0, SVG Export Plug-In . SVG Version: 6.00 Build 0)  -->
<!DOCTYPE svg PUBLIC "-//W3C//DTD SVG 1.1//EN" "http://www.w3.org/Graphics/SVG/1.1/DTD/svg11.dtd">
<svg version="1.1" id="Capa_1" xmlns="http://www.w3.org/2000/svg" xmlns:xlink="http://www.w3.org/1999/xlink" x="0px" y="0px"
	 width="190.366px" height="190.367px" viewBox="0 0 190.366 190.367" style="enable-background:new 0 0 190.366 190.367;"
	 xml:space="preserve">
<g>
	<g>
		<path d="M187.176,111.933c0.455-1.002-0.032-2.399-1.508-2.497c-3.839-0.257-7.607-0.86-11.334-1.668
			c0.491-1.664,0.586-3.599,0.776-5.093c0.407-3.205,0.639-6.438,0.817-9.665c0.305-0.201,0.575-0.463,0.744-0.866
			c12.066-28.725-25.931-49.456-46.877-58.329C99.548,21.004,61.918,15.79,30.516,27.19C17.257,32.003,9.622,39.731,6.231,48.612
			C-5.573,58.708,2.258,85.925,6.464,97.466c8.898,24.414,40.885,37.853,65.373,34.972c0.346-0.041,0.609-0.185,0.843-0.351
			c0.494,0.26,1.119,0.254,1.656-0.26c5.74-5.486,10.79-11.621,15.473-18.023c3.358-4.59,8.853-11.231,10.197-17.428
			c1.778,1.262,3.733,2.324,5.663,3.127c-3.331,15.565-9.082,30.191-15.936,44.795c-0.166,0.354-0.2,0.767-0.17,1.172
			c-0.081,0.052-0.172,0.076-0.236,0.162c-0.252,0.342-0.444,0.658-0.674,0.99c-0.154-0.158-0.446,0-0.314,0.207
			c0.027,0.043,0.054,0.09,0.082,0.133c-16.818,24.946,31.841,23.317,44.152,21.717c17.507-2.277,32.517-9.936,45.63-21.68
			C186.772,139.328,195.111,122.315,187.176,111.933z M187.069,122.265c-1.415-1.344-2.952-2.594-4.483-3.747
			c0.844-1.155,1.651-2.335,2.378-3.572C186.209,117.442,186.852,119.88,187.069,122.265z M181.809,112.898
			c-1.226,1.891-2.585,3.65-4.038,5.316c-1.661-1.309-3.256-2.703-4.853-4.088c-1.09-0.945-2.229-2.115-3.433-3.195
			C173.568,111.981,177.683,112.726,181.809,112.898z M118.638,96.539c14.303,10.821,24.158,26.09,38.062,37.24
			c-0.751,0.357-1.493,0.729-2.256,1.066c-7.574-6.412-15.236-12.656-22.473-19.473c-7.912-7.455-14.26-16.334-21.968-23.86
			c0.013-0.22,0.041-0.436,0.051-0.656c6.64,3.87,14.369,5.518,21.932,7.411c2.699,6.71,9.403,12.846,14.157,17.929
			c3.498,3.74,7.147,7.352,11.038,10.684c1.454,1.246,3.118,2.772,4.967,3.615c-0.079,0.106-0.103,0.236-0.08,0.377
			c-0.835,0.502-1.649,1.031-2.517,1.487c-14.229-11.368-24.839-27.106-40.259-36.945C118.568,94.953,117.988,96.046,118.638,96.539
			z M142.094,132.636c-2.176-2.623-4.226-5.196-6.676-7.571c-8.666-8.399-18.028-15.978-26.363-24.726
			c0.37-2.332,0.629-4.697,0.814-7.084c3.94,8.305,11.793,15.555,18.049,21.915c7.309,7.43,15.138,14.645,23.488,20.961
			c-1.283,0.51-2.567,1.02-3.875,1.478c-0.341-0.666-1.061-0.873-1.627-0.563c-0.067-0.142-0.321-0.422-0.989-1.115
			C143.914,134.89,143.013,133.746,142.094,132.636z M143.442,138.986c-1.977,0.604-3.966,1.167-5.971,1.664
			c-0.041-0.206-0.096-0.414-0.258-0.57c-5.717-5.5-11.908-10.552-17.606-16.125c-2.67-2.613-5.338-5.229-7.997-7.852
			c-0.402-0.396-3.411-2.771-5.042-4.334c0.88-3.189,1.617-6.407,2.2-9.667c8.133,9.63,17.746,17.829,26.635,26.737
			C137.721,131.162,140.271,136.554,143.442,138.986z M133.417,98.626c2.712,0.695,5.394,1.443,7.982,2.36
			c0.098,0.035,0.199,0.075,0.298,0.11c0.249,1.746,3.178,3.785,4.314,4.947c3.267,3.346,6.545,6.683,9.806,10.035
			c2.866,2.945,5.722,5.902,8.641,8.795c0.774,0.766,2.368,2.369,3.616,1.739c1.216-0.612,0.146-2.433-1.065-1.821
			c1.089-0.549,1.466,0.36,0.227-1.156c-0.799-0.977-1.928-1.807-2.841-2.678c-3.061-2.922-6.082-5.883-9.114-8.832
			c-2.791-2.715-5.569-5.445-8.421-8.096c-0.375-0.35-0.945-0.98-1.588-1.611c2.353,0.889,4.742,1.824,7.147,2.754
			c0.065,0.084,0.076,0.184,0.187,0.25c5.407,3.342,9.346,8.955,13.449,13.69c1.104,1.274,2.967,3.731,5.047,5.548
			c-1.91,1.567-3.885,3.061-5.98,4.408C152.959,121.482,142.24,110.007,133.417,98.626z M158.821,107.585
			c1.985,0.719,3.985,1.396,5.993,2.023c2.283,2.521,4.979,4.792,7.45,7.129c0.902,0.854,2.145,2.301,3.501,3.532
			c-0.766,0.784-1.489,1.614-2.296,2.354C167.976,118.396,164.045,112.123,158.821,107.585z M11.87,100.082
			C7.145,91.813,1.819,73.18,4.111,59.908c-0.377,28.761,33.274,61.604,65.043,50.807c-0.697,5.893,1.391,12.56,1.794,18.354
			C47.803,128.005,24.167,121.603,11.87,100.082z M87.647,110.229c-4.436,6.457-9.324,12.704-14.582,18.526
			c0.557-2.75,0.671-5.553,0.514-8.379c-0.256-4.606-0.214-8.931-0.113-13.524c0.009-0.388-0.131-0.722-0.352-0.986
			c3.279-5.579,6.591-11.123,10.256-16.475c3.441-5.022,7.637-9.522,11.466-14.244c0.05,3.705,0.522,7.482,0.815,11.104
			c0.106,1.31-0.043,5.503,1.181,7.462C93.73,99.237,91.306,104.903,87.647,110.229z M96.768,66.69
			c-0.977-0.303-1.513,0.788-1.1,1.521c-5.625,4.532-10.005,11.398-14.15,17.137c-5.084,7.037-9.931,14.523-12.909,22.718
			c-23.264,3.473-44.343-9.512-56.708-28.909c-7.934-12.445-6.914-22.95-1.195-31.3c0.22-0.157,0.397-0.358,0.628-0.501
			c0.294-0.183,0.354-0.498,0.312-0.793c9.07-11.882,27.735-19.124,42.831-20.992c21.332-2.639,43.388,1.732,63.672,8.093
			c21.058,6.603,66.303,27.302,55.082,56.567c-10.707-4.924-22.572-7.391-33.922-10.352c-13.638-3.558-26.783-8.209-40.182-12.433
			c-0.403-0.487-1.043-0.755-1.66-0.53C97.233,66.841,97.001,66.763,96.768,66.69z M100.052,92.861
			c-0.039-0.183-0.024-0.375-0.118-0.542c0.016,0.006,0.031,0.013,0.048,0.02c0.464,0.603,0.271,0.725,0.202-0.205
			c-0.054-0.709-0.196-1.416-0.286-2.121c-0.271-2.116-0.463-4.244-0.663-6.367c-0.395-4.166-0.479-8.445-1.205-12.569
			c-0.006-0.037-0.039-0.041-0.048-0.075c0.221-0.308,0.471-0.598,0.687-0.91c21.923,12.616,50.644,16.64,74.643,23.709
			c-0.499,2.483-0.915,4.983-1.388,7.471c-0.313,1.657-1.129,3.674-1.491,5.546c-10.773-2.788-21.195-7.184-31.647-10.885
			c-5.068-1.795-10.411-2.77-15.609-4.12c-4.344-1.129-9.215-4.737-13.635-4.285c-0.271,0.028-0.455,0.195-0.474,0.474
			c-0.005,0.074-0.01,0.148-0.015,0.223c-0.666-0.155-1.403,0.075-1.512,0.876c-0.317,2.34-0.703,4.652-1.134,6.945
			C104.157,95.38,102.092,94.06,100.052,92.861z M106.063,113.437c2.468,3.425,7.884,8.021,9.002,9.184
			c5.716,5.943,12.053,14.807,19.535,18.709c-2.107,0.469-4.219,0.924-6.326,1.291c0.979-0.598,0.496-2.087-0.609-2.123
			c-4.327-0.14-9.755-6.759-12.56-9.486c-3.605-3.506-8.416-7.728-10.615-12.414C105.058,116.884,105.562,115.162,106.063,113.437z
			 M100.425,129.808c0.203-0.52,0.394-1.036,0.594-1.555c1.938,2.918,4.816,5.562,7.038,7.99c1.643,1.797,6.794,9.143,9.914,7.639
			c0.509-0.244,0.597-1.049,0.183-1.416c-3.212-2.851-6.339-5.846-9.351-8.922c-1.895-1.936-3.775-3.883-5.654-5.83
			c-0.435-0.449-0.948-0.84-1.453-1.233c0.71-1.88,1.382-3.761,2.034-5.644c1.817,4.715,7.453,9.597,10.386,12.615
			c2.005,2.061,7.839,9.016,12.109,9.53c-4.979,0.793-9.912,1.317-14.656,1.631c-1.438-1.976-3.577-3.673-5.179-5.342
			c-1.558-1.622-3.09-3.271-4.661-4.878c-0.492-0.504-2.279-1.746-2.482-2.328c0-0.001-0.001-0.001-0.001-0.001
			C99.793,131.069,100.256,130.24,100.425,129.808z M98.458,133.532c1.014,2.269,3.58,4.474,5.019,6.122
			c1.479,1.693,2.985,3.361,4.495,5.03c-0.56-0.001-1.118,0.03-1.677,0.022c-1.862-2.049-4.195-4.093-6.189-6.009
			c-0.973-0.935-1.901-1.642-3.106-2.198C97.452,135.46,97.962,134.468,98.458,133.532z M96.446,137.878
			c0.036,0.002,0.071,0.014,0.107,0.008c0.087,0.152,0.182,0.3,0.282,0.441c0.348,0.492,0.817,0.922,1.214,1.373
			c0.985,1.124,2.031,2.201,3.036,3.309c0.384,0.422,0.825,0.988,1.305,1.582c-1.205-0.061-2.409-0.105-3.612-0.184
			C95.1,144.171,95.251,141.147,96.446,137.878z M90.151,149.814c3.077,5.227,6.319,11.174,10.761,15.141
			C93.933,162.886,89.261,158.395,90.151,149.814z M102.693,165.392c-2.149-3.07-4.84-5.83-7.084-8.832
			c-1.855-2.482-3.593-5.053-5.339-7.615c0.094-0.66,0.11-1.262,0.27-1.969c0.122,0.056,0.21,0.15,0.357,0.176
			c1.11,0.195,2.269,0.348,3.421,0.506c2.924,3.834,5.726,7.754,8.572,11.646c1.637,2.24,3.271,4.695,5.114,6.888
			C106.167,166.015,104.369,165.779,102.693,165.392z M115.818,166.446c0.052-0.166,0.055-0.351-0.09-0.532
			c-4.494-5.662-8.87-11.341-13.104-17.207c-0.291-0.404-0.965-0.021-0.673,0.394c2.338,3.319,4.685,6.635,7.01,9.964
			c1.734,2.48,3.474,5.352,5.757,7.398c-1.51,0.013-3.013-0.002-4.488-0.084c-4.381-6.403-9.62-12.51-14.579-18.521
			c3.646,0.447,7.49,0.682,11.436,0.743c1.479,3.698,3.591,6.931,6.021,10.085c1.926,2.5,3.992,5.217,6.268,7.585
			C118.191,166.341,117.009,166.421,115.818,166.446z M128.976,165.333c-2.142-2.484-4.717-4.646-6.908-7.103
			c-2.641-2.959-5.148-6.035-7.761-9.019c-0.503-0.574-1.325,0.262-0.833,0.832c2.591,3.006,5.1,6.082,7.694,9.086
			c1.869,2.162,3.785,4.562,6.032,6.422c-1.801,0.221-3.657,0.426-5.575,0.58c-1.718-2.166-3.789-4.115-5.593-6.168
			c-3.056-3.477-5.873-7.213-7.953-11.359c4.045,0.029,8.217-0.229,12.415-0.622c1.503,3.248,3.812,6.062,6.157,8.737
			c2.31,2.637,4.815,5.572,7.617,7.806C132.645,164.8,130.88,165.078,128.976,165.333z M135.919,164.231
			c-4.309-5.847-10.845-9.841-14.354-16.354c1.275-0.131,2.558-0.336,3.838-0.506c2.286,2.855,4.453,5.805,6.722,8.674
			c1.851,2.338,4.028,5.899,6.81,7.201c0.536,0.252,1.317-0.308,0.899-0.9c-1.686-2.385-4.129-4.389-6.039-6.62
			c-2.426-2.833-4.804-5.705-7.27-8.503c1.659-0.236,3.315-0.541,4.972-0.844c-0.161,0.183-0.246,0.418-0.056,0.686
			c2.007,2.812,4.108,5.548,6.294,8.225c1.765,2.161,3.841,5.25,6.381,6.738C141.089,163.024,138.296,163.771,135.919,164.231z
			 M145.487,161.561c-1.505-2.134-3.761-3.892-5.507-5.839c-2.647-2.953-5.064-6.121-7.392-9.329
			c-0.067-0.095-0.165-0.108-0.252-0.155c1.524-0.289,3.038-0.635,4.551-0.982c3.793,4.828,7.601,11.129,12.746,14.76
			C148.223,160.574,146.833,161.093,145.487,161.561z M151.586,159.2c-2.3-1.853-4.53-3.702-6.575-5.938
			c-2.437-2.664-4.677-5.5-7.021-8.244c2.086-0.5,4.149-1.076,6.195-1.689c1.349,2.941,3.44,5.455,5.671,7.84
			c1.819,1.944,3.811,4.221,5.905,6.17C154.36,157.996,152.964,158.623,151.586,159.2z M157.67,156.409
			c-1.647-1.731-3.811-3.259-5.388-4.72c-2.753-2.551-5.393-5.348-7.218-8.641c1.286-0.398,2.516-0.904,3.779-1.349
			c2.302,2.247,4.594,4.503,6.875,6.772c1.842,1.832,3.847,4.191,6.129,5.744C160.461,154.98,159.068,155.72,157.67,156.409z
			 M163.369,153.359c-2.126-2.033-4.528-3.857-6.669-5.868c-2.214-2.079-4.413-4.19-6.693-6.204
			c1.307-0.479,2.561-1.039,3.838-1.566c2.368,1.971,4.467,4.195,6.525,6.488c1.657,1.846,3.481,4.162,5.662,5.557
			C165.152,152.309,164.267,152.843,163.369,153.359z M167.591,150.763c-2.031-2.245-4.566-4.2-6.662-6.406
			c-1.777-1.87-3.625-3.639-5.652-5.219c1.488-0.641,2.933-1.342,4.369-2.051c1.491,2.105,3.004,4.189,4.643,6.189
			c1.629,1.988,3.336,4.326,5.344,6.107C168.958,149.849,168.282,150.314,167.591,150.763z M171.146,148.298
			c-1.523-1.869-3.447-3.514-5.042-5.26c-1.89-2.07-3.628-4.271-5.37-6.467c1.347-0.689,2.666-1.414,3.956-2.171
			c1.505,1.937,3.026,3.856,4.641,5.708c1.572,1.801,3.425,3.833,5.539,5.254C173.676,146.371,172.438,147.355,171.146,148.298z
			 M176.355,144.056c-2.068-1.562-4.102-3.104-5.951-5.021c-1.635-1.693-3.165-3.482-4.698-5.271
			c1.291-0.785,2.52-1.639,3.743-2.495c2.197,2.049,4.317,4.182,6.477,6.269c0.969,0.934,2.248,2.399,3.66,3.313
			C178.581,141.947,177.501,143.017,176.355,144.056z M180.743,139.524c-1.76-1.049-3.427-2.88-4.759-4.075
			c-1.818-1.631-3.603-3.3-5.432-4.917c1.16-0.849,2.24-1.776,3.323-2.702c2.096,1.805,4.168,3.635,6.302,5.397
			c0.808,0.668,1.991,1.868,3.229,2.626C182.609,137.103,181.744,138.333,180.743,139.524z M184.56,133.962
			c-1.09-0.785-2.35-1.474-3.271-2.176c-2.104-1.605-4.152-3.281-6.233-4.916c0.012-0.011,0.025-0.02,0.038-0.031
			c0.483,0.062,0.965,0.039,1.434-0.104c0.717-0.22,0.965-1.116,0.529-1.67c0.58-0.579,1.097-1.208,1.627-1.828
			c1.104,1.22,2.253,2.399,3.425,3.554c0.949,0.934,2.448,2.705,4.01,3.528C185.699,131.554,185.195,132.773,184.56,133.962z
			 M186.747,128.041c-1.104-0.881-2.343-1.68-3.324-2.566c-1.094-0.989-2.153-2.021-3.19-3.077c0.623-0.233,1.025-1,0.629-1.608
			c0.324-0.402,0.62-0.822,0.934-1.23c0.999,0.863,2.017,1.705,2.956,2.637c0.812,0.807,1.596,1.658,2.408,2.475
			C187.117,125.808,186.987,126.933,186.747,128.041z"/>
	</g>
</g>
<g>
</g>
<g>
</g>
<g>
</g>
<g>
</g>
<g>
</g>
<g>
</g>
<g>
</g>
<g>
</g>
<g>
</g>
<g>
</g>
<g>
</g>
<g>
</g>
<g>
</g>
<g>
</g>
<g>
</g>
</svg>
