<?xml version="1.0" encoding="iso-8859-1"?>
<!-- Generator: Adobe Illustrator 16.0.0, SVG Export Plug-In . SVG Version: 6.00 Build 0)  -->
<!DOCTYPE svg PUBLIC "-//W3C//DTD SVG 1.1//EN" "http://www.w3.org/Graphics/SVG/1.1/DTD/svg11.dtd">
<svg version="1.1" id="Capa_1" xmlns="http://www.w3.org/2000/svg" xmlns:xlink="http://www.w3.org/1999/xlink" x="0px" y="0px"
	 width="187.437px" height="187.437px" viewBox="0 0 187.437 187.437" style="enable-background:new 0 0 187.437 187.437;"
	 xml:space="preserve">
<g>
	<g>
		<path d="M185.119,116.621c-0.003-0.06-0.002-0.117-0.012-0.177c-0.028-0.823-0.545-1.601-1.668-1.593
			c-0.451,0.003-0.904,0.026-1.356,0.031c0.011-4.942,0.008-9.885,0.004-14.824c-0.001-1.04-0.868-1.91-1.909-1.909
			c-16.483,0.015-33.312-0.676-49.688,1.518c-0.196,0.026-0.354,0.107-0.519,0.176c0.015-0.179,0.015-0.357,0.029-0.536
			c0.097-1.141-1.788-1.395-1.996-0.271c-1.122,6.061-1.603,12.162-1.755,18.284c-0.092,0.003-0.185,0.01-0.276,0.013
			c-1.021,0.04-1.025,1.561,0,1.588c0.076,0.002,0.152,0,0.229,0.002c-0.032,2.07-0.032,4.143,0,6.217
			c-1.568-6.051-4.982-12.197-10.57-18.22c-14.159-15.256-38.124-17.541-54.029-5.265c0.031-0.923,0.088-1.843,0.131-2.765
			c0.017-0.019,0.032-0.037,0.048-0.058c0.049-0.055,0.101-0.104,0.141-0.166c0.061-0.095,0.099-0.195,0.138-0.301
			c0.034-0.091,0.072-0.176,0.089-0.271c0.018-0.099,0.014-0.194,0.014-0.296c0-0.101,0.004-0.196-0.014-0.296
			c-0.017-0.094-0.055-0.179-0.088-0.27c-0.039-0.106-0.078-0.207-0.139-0.302c-0.028-0.042-0.057-0.081-0.089-0.121
			c0.173-3.188,0.401-6.371,0.634-9.551c17.009-1.647,33.687,0.943,50.651,0.652c-0.221,5.049-0.337,10.1-0.151,15.156
			c0.081,2.226,3.28,2.193,3.43,0c2.257-32.938,7.237-66.352,4.793-99.377c-0.087-1.177-0.847-1.865-1.99-1.991
			c-12.886-1.421-25.766-0.391-38.674-1.507c-4.836-0.418-11.112-0.48-14.872,3.28c-9.97,9.97-7.482,31.827-6.101,46.478
			c-15.779-0.439-31.489,0.134-47.258,0.84c-1.013,0.045-1.82,0.802-1.837,1.837c-0.159,9.759-0.556,19.556-1.042,29.357
			c-0.934-0.172-1.248,1.172-0.344,1.523c0.084,0.033,0.174,0.046,0.258,0.078C9.075,88.558,8.841,93.53,8.527,98.5
			c-0.296,0.085-0.617,0.143-0.909,0.23C7,98.916,7.088,99.988,7.776,99.9c0.222-0.029,0.445-0.044,0.667-0.071
			c-0.574,8.953-1.21,17.898-1.946,26.804c-0.327-0.03-0.653-0.03-0.98-0.068c-0.679-0.076-0.794,1.006-0.158,1.17
			c0.343,0.089,0.689,0.123,1.033,0.203c-0.165,1.981-0.309,3.974-0.48,5.951c-0.879,10.134-7.151,31.574-0.746,40.594
			c0.019,0.026,0.048,0.023,0.068,0.049c-0.016,0.53,0.324,1.077,1.036,1.146c8.245,0.805,58.877,8.943,55.228-9.188
			c9.287,7.772,22.114,10.848,36.386,4.761c0.394,0.064,0.812,0.043,1.253-0.188c14.773-7.783,25.173-19.392,27.559-32.33
			c0.212,4.236,0.438,8.474,0.609,12.708c-0.564,0.193-0.553,1.005,0.05,1.151c0.172,4.563,0.263,9.121,0.166,13.668
			c-0.233,11.06,3.692,18.824,15.689,19.696c10.802,0.786,33.877,5.926,37.123-9.069c1.488-6.877,0.932-15.34,0.901-22.948
			c0.021-0.045,0.069-0.065,0.087-0.113c0.075-0.221,0.15-0.44,0.227-0.661c0.135-0.394,0-0.972-0.313-1.274
			c0.013-1.114,0.041-2.206,0.098-3.264c0.537-10.062,0.689-20.144,0.737-30.225c0.458,0.002,0.916-0.014,1.374-0.01
			c1.123,0.007,1.64-0.771,1.668-1.594C185.117,116.738,185.116,116.682,185.119,116.621z M113.258,84.945
			c-16.437-2.021-34.269-2.635-50.646,0.271c0.326-4.43,0.615-8.857,0.815-13.286c16.86,1.225,33.802,0.182,50.656,1.89
			C113.758,77.528,113.463,81.236,113.258,84.945z M114.382,70.512c-16.91-1.647-33.9-0.424-50.862-0.546
			c0.175-4.809,0.108-9.626-0.194-14.452c9.702,0.188,19.407,0.251,29.11,0.439c2.014,0.039,21.52,0.154,23.259,1.359
			C115.248,61.713,114.793,66.113,114.382,70.512z M64.826,13.635c2.496-13.194,25.24-8.688,33.725-8.801
			c9.929-0.132,18.824-1.974,19.319,10.413c0.106,2.665,0.052,5.325,0.03,7.986c-0.034-0.034-0.023-0.079-0.064-0.112
			c-6.29-4.961-17.197-3.943-24.66-3.798c-9.85,0.191-19.754,1.37-29.517,2.799C63.943,19.288,64.293,16.456,64.826,13.635z
			 M63.491,23.892c18.017-1.337,35.348-2.939,53.108,1.352c0.504,0.122,0.987-0.145,1.306-0.525
			c-0.078,4.851-0.27,9.699-0.616,14.543c-0.209-0.419-0.569-0.764-1.104-0.751c-17.884,0.451-35.458,0.314-53.366-0.131
			C62.902,33.542,63.079,28.71,63.491,23.892z M62.775,40.261c8.986,1.31,18.1,1.891,27.154,2.335
			c7.918,0.387,19.574,2.196,26.92-1.629c0.177-0.092,0.242-0.25,0.344-0.389c-0.352,4.641-0.758,9.279-1.221,13.914
			c-5.291-2.38-14.357-1.311-19.359-1.349c-11.125-0.084-22.247,0.576-33.364,1.017c-0.057-0.763-0.052-1.523-0.127-2.286
			c-0.049-0.497-0.236-0.929-0.525-1.261C62.684,47.162,62.724,43.711,62.775,40.261z M14.049,60.632
			c0.364-10.565,25.209-7.105,31.144-7.179c14.12-0.179,15.005,4.419,14.675,16.464c-0.551-0.011-1.102-0.008-1.654-0.022
			c-0.145-0.004-0.219,0.076-0.322,0.123c0.041-0.417-0.065-0.854-0.538-1.178c-5.23-3.587-13.601-2.629-19.575-2.396
			c-8.053,0.314-16.074,1.252-24.117,1.781C13.782,65.694,13.962,63.167,14.049,60.632z M13.57,70.037
			c14.546,0.254,28.262-1.095,42.799,1.139c0.482,0.074,0.846-0.112,1.13-0.373c0.068,0.333,0.284,0.65,0.715,0.695
			c0.526,0.055,1.053,0.081,1.579,0.13c-0.116,3.025-0.316,6.044-0.536,9.063c-0.106-0.028-0.17-0.124-0.29-0.124
			c-15.535,0.002-30.603,5.183-46.042,2.121C13.19,78.474,13.36,74.254,13.57,70.037z M12.309,92.341
			c0.181-2.568,0.327-5.134,0.493-7.701c14.521,4.083,31.832,0.804,46.296-1.244c-0.323,4.181-0.675,8.361-0.925,12.548
			c-14.413-1.535-31.79-1.694-46.174,1.676C12.107,95.861,12.185,94.101,12.309,92.341z M11.889,99.462
			c7.527-0.761,15.097-1.02,22.662-1.052c7.717-0.033,15.698,1.597,23.448,1.195c-0.038,0.903-0.106,1.806-0.128,2.711
			c-0.021,0.838,0.429,1.364,1.013,1.611c-0.999,0.938-1.963,1.933-2.875,3.004c-0.89,1.046-1.639,2.144-2.397,3.238
			c-13.584-1.816-28.654,0.756-42.462,1.83C11.372,107.82,11.637,103.643,11.889,99.462z M11.056,113.624
			c13.284,0.62,27.769,0.922,40.906-0.865c-2.458,4.214-4.104,8.682-4.898,13.242c-0.234-0.201-0.517-0.358-0.894-0.388
			c-12.023-0.932-23.883,1.708-35.879,1.286C10.589,122.478,10.819,118.05,11.056,113.624z M9.363,138.439
			c0.31-3.251,0.553-6.507,0.785-9.765c11.902,1.72,23.995-0.982,36.021,0.034c0.214,0.019,0.393-0.018,0.56-0.067
			c-0.358,3.307-0.367,6.628,0.035,9.894c-12.566,0.17-25.114,1.274-37.657,2.082C9.188,139.9,9.296,139.142,9.363,138.439z
			 M8.927,142.161c12.662,0.339,25.331-0.73,37.995-0.772c0.107,0,0.187-0.04,0.281-0.059c0.74,3.938,1.996,7.756,3.712,11.315
			c-0.156-0.192-0.328-0.379-0.624-0.43c-7.886-1.316-16.214-0.721-24.167-0.503c-5.343,0.146-13.641-0.997-18.551,1.454
			c-0.007,0.004-0.004,0.017-0.011,0.021C7.999,149.421,8.498,145.738,8.927,142.161z M7.498,173.479
			c-0.745-3.849-0.848-7.954-0.648-12.13c16.695,2.725,33.512,4.654,50.439,4.868C59.326,178.145,17.845,173.495,7.498,173.479z
			 M57.748,163.341c-17.033-0.217-33.854-2.317-50.787-3.954c0.132-1.886,0.321-3.778,0.535-5.668
			c0.031,0.045,0.024,0.11,0.076,0.135c4.437,2.106,11.746,0.477,16.502,0.4c8.636-0.14,17.254-0.25,25.858,0.599
			c0.985,0.097,1.402-0.94,1.2-1.749c1.833,3.694,4.131,7.117,6.877,10.07C57.914,163.217,57.836,163.286,57.748,163.341z
			 M123.363,140.27c-2.188,12.701-15.821,21.793-26.266,27.31c-0.663,0.35-0.935,0.89-0.975,1.45
			c-15.578,3.807-29.896,2.139-39.246-12.343c-7.174-11.113-7.384-25.903-3.082-38.031c6.29-17.729,25.902-24.199,42.887-19.168
			C113.653,104.516,126.366,122.823,123.363,140.27z M129.779,103.401c0.21,0.058,0.438,0.092,0.71,0.06
			c15.176-1.771,30.637-1.444,45.893-1.495c1.335-0.005,1.887,5.333,2.006,13.003c-16.247,0.313-32.48,1.47-48.714,2.188
			C129.554,112.57,129.539,107.985,129.779,103.401z M152.104,182.609c-11.854-0.741-18.021-3.737-19.882-12.406
			c8.708-0.21,17.396,0.439,26.102,0.745c5.627,0.197,12.486,0.837,18.178-0.878C176.475,185.37,162.808,183.278,152.104,182.609z
			 M176.598,166.73c-14.901,2.042-29.847,0.109-44.775,1.397c-0.206-1.666-0.313-3.472-0.267-5.521
			c0.076-3.323,0.022-6.646-0.074-9.967c10.762-0.104,38.531-0.561,45.783,0.576C176.98,158.89,176.723,163.704,176.598,166.73z
			 M177.409,150.291c-3.494-0.607-7.671,0.16-10.783,0.239c-11.729,0.299-23.46,0.438-35.189,0.743
			c-0.169-4.933-0.472-9.864-0.784-14.794c15.239,1.328,32.94,4.61,47.345,0.421C177.822,141.496,177.615,146.071,177.409,150.291z
			 M178.097,134.196c-15.889,0.742-31.686,0.16-47.558,0.494c-0.333-5.247-0.66-10.493-0.834-15.738
			c16.237,0.266,32.469-0.458,48.708-0.525C178.413,123.236,178.287,128.676,178.097,134.196z"/>
		<path d="M104.187,137.519c-2.797-2.683-6.499-3.91-10.427-4.739c0.306-3.479,0.557-6.95,0.717-10.398
			c0.094-1.989,0.805-4.951,1.269-7.919c0.131,0.033,0.269,0.053,0.399,0.087c2.19,0.59,3.104-2.757,0.934-3.384
			c-0.316-0.091-0.65-0.147-0.973-0.229c0.081-2.035-0.13-3.889-1.022-5.157c-0.58-0.824-1.806-0.939-2.362,0
			c-0.08,0.134-0.159,0.268-0.238,0.401c-0.338,0.569-0.156,1.086,0.195,1.447c-0.316,0.24-0.405,0.729-0.243,1.492
			c-0.02,0.375-0.057,0.749-0.081,1.124c-2.36-0.283-4.778-0.323-7.149-0.009c0.52-3.837,1.459-7.062,3.16-8.638
			c0.843-0.781-0.038-2.12-1.082-1.858c-3.016,0.759-4.162,5.805-4.621,10.987c-3.074,0.732-5.981,2.039-8.426,4.065
			c-5.039,4.176-6.535,9.972-1.798,15.001c2.443,2.593,5.645,4.023,9.118,4.968c-0.25,5.578-0.47,11.157-0.739,16.733
			c-2.437-0.374-4.855-0.877-7.203-1.474c-1.604-0.408-2.246,1.968-0.68,2.465c2.355,0.747,4.997,1.461,7.73,2.01
			c-0.169,3.188-0.355,6.373-0.6,9.556c-0.066,0.855,1.22,0.972,1.451,0.196c0.886-2.982,1.433-6.107,1.815-9.288
			c1.741,0.258,3.49,0.372,5.225,0.402c-0.174,2.144-0.374,4.286-0.534,6.431c-0.088,1.189,1.913,1.47,2.09,0.283
			c0.331-2.225,0.647-4.477,0.966-6.725c2.476-0.164,4.857-0.656,7.013-1.625C103.188,151.432,109.614,142.724,104.187,137.519z
			 M82.251,121.938c-0.196,2.839-0.342,5.681-0.485,8.522c-1.058-0.297-2.083-0.643-3.054-1.064
			c-6.71-2.916-6.768-8.529-1.184-12.519c1.508-1.077,3.167-1.835,4.898-2.371C82.305,117.708,82.347,120.556,82.251,121.938z
			 M84.829,113.926c2.381-0.422,4.842-0.41,7.248-0.125c-0.249,2.861-0.557,5.717-0.774,8.58c-0.246,3.261-0.542,6.518-0.818,9.776
			c-1.965-0.333-3.941-0.638-5.853-1.027C84.693,126.953,84.399,120.105,84.829,113.926z M83.657,151.833
			c0.465-5.479,0.527-11.057,0.786-16.395c1.881,0.381,3.794,0.678,5.685,0.982c-0.448,5.179-0.858,10.359-1.294,15.539
			C87.112,152.027,85.384,151.995,83.657,151.833z M101.053,146.564c-1.668,3.627-5.833,4.725-9.472,5.204
			c0.668-4.906,1.247-9.844,1.748-14.777c1.754,0.331,3.466,0.702,5.034,1.231C102.579,139.646,102.743,142.891,101.053,146.564z"/>
	</g>
</g>
<g>
</g>
<g>
</g>
<g>
</g>
<g>
</g>
<g>
</g>
<g>
</g>
<g>
</g>
<g>
</g>
<g>
</g>
<g>
</g>
<g>
</g>
<g>
</g>
<g>
</g>
<g>
</g>
<g>
</g>
</svg>
