<?xml version="1.0" encoding="iso-8859-1"?>
<!-- Generator: Adobe Illustrator 16.0.0, SVG Export Plug-In . SVG Version: 6.00 Build 0)  -->
<!DOCTYPE svg PUBLIC "-//W3C//DTD SVG 1.1//EN" "http://www.w3.org/Graphics/SVG/1.1/DTD/svg11.dtd">
<svg version="1.1" id="Capa_1" xmlns="http://www.w3.org/2000/svg" xmlns:xlink="http://www.w3.org/1999/xlink" x="0px" y="0px"
	 width="189.015px" height="189.015px" viewBox="0 0 189.015 189.015" style="enable-background:new 0 0 189.015 189.015;"
	 xml:space="preserve">
<g>
	<path d="M181.651,155.787c0.031,34.493-50.88,31.393-73.154,25.266c-27.503-7.565-49.339-26.778-61.695-51.346
		c11.08,1.531,22.178,2.866,33.408,3.047c20.134,0.325,40.004,2.842,59.984,5.042c1.499,0.165,1.797-2.287,0.353-2.608
		c-17.465-3.907-35.69-4.756-53.518-5.509c-14.032-0.594-28.015-2.205-41.999-3.657c-2.959-6.509-5.292-13.344-6.877-20.425
		c-0.391-1.75-0.688-3.501-0.963-5.251c48.512,5.019,96.951,8.511,145.148,17.32c1.67,0.306,2.401-2.135,0.711-2.578
		c-47.363-12.395-97.22-14.385-146.229-17.455c-3.841-31.135,10.396-61.546,36.263-79.416C91.208,5.695,113.37-0.802,135.07,4.552
		c22.468,5.543,40.701,32.586,39.682,54.642c-0.105,2.298,3.309,2.219,3.521,0c4.142-43.111-43.479-66.643-79.686-57.077
		C54.812,13.683,30.398,54.16,33.518,97.422c-8.78-0.56-17.535-1.157-26.236-1.87c-0.956-0.079-0.916,1.354,0,1.467
		c8.797,1.077,17.591,2.041,26.384,2.965c0.003,0.034,0.003,0.068,0.006,0.103c0.888,9.042,3.182,17.525,6.518,25.448
		c-11.471-1.146-22.946-2.102-34.453-2.188c-0.984-0.009-0.969,1.462,0,1.516c12.082,0.676,24.029,2.448,35.981,4.145
		c13.45,28.487,41.357,48.799,72.149,57.276c23.473,6.463,72.909,3.379,69.871-30.496
		C183.619,154.469,181.65,154.421,181.651,155.787z"/>
</g>
<g>
</g>
<g>
</g>
<g>
</g>
<g>
</g>
<g>
</g>
<g>
</g>
<g>
</g>
<g>
</g>
<g>
</g>
<g>
</g>
<g>
</g>
<g>
</g>
<g>
</g>
<g>
</g>
<g>
</g>
</svg>
