<?xml version="1.0" encoding="iso-8859-1"?>
<!-- Generator: Adobe Illustrator 16.0.0, SVG Export Plug-In . SVG Version: 6.00 Build 0)  -->
<!DOCTYPE svg PUBLIC "-//W3C//DTD SVG 1.1//EN" "http://www.w3.org/Graphics/SVG/1.1/DTD/svg11.dtd">
<svg version="1.1" id="Capa_1" xmlns="http://www.w3.org/2000/svg" xmlns:xlink="http://www.w3.org/1999/xlink" x="0px" y="0px"
	 width="190.355px" height="190.355px" viewBox="0 0 190.355 190.355" style="enable-background:new 0 0 190.355 190.355;"
	 xml:space="preserve">
<g>
	<g>
		<path d="M97.567,0.109C41.676-2.648,4.41,47.288,3.373,99.069c-1.068,53.354,40.895,92.173,91.882,90.521
			c0.269,0.479,0.746,0.82,1.49,0.757c49.365-4.229,88.515-44.851,90.212-94.499C188.634,46.808,145.216,2.459,97.567,0.109z
			 M133.455,13.173c-0.059,0.196-0.077,0.412,0.022,0.64c8.468,19.587,25.837,33.056,36.671,51.144
			c-0.845,0.197-1.688,0.425-2.527,0.705c-0.396-0.451-0.786-0.907-1.144-1.39c-0.189-0.241-0.421-0.339-0.656-0.378
			c-1.801-2.972-5.812-9.171-6.303-9.79c-3.815-4.814-7.818-9.45-11.884-14.055c-8.786-9.952-16.234-20.915-24.842-30.917
			c-0.146-0.172-0.409,0.012-0.359,0.21c2.338,9.491,9.309,17.384,15.433,24.781c8.984,10.852,18.627,20.921,26.172,32.877
			c-0.146,0.061-0.298,0.116-0.444,0.177c-2.452-1.627-5.403-6.714-7.03-8.672c-5.677-6.834-11.219-13.783-16.762-20.725
			c-8.592-10.764-16.962-21.77-25.983-32.184C120.736,7.189,127.303,9.787,133.455,13.173z M111.636,5.064
			c-0.036,0.174-0.028,0.36,0.082,0.542c7.916,12.9,18.112,24.688,27.494,36.522c5.727,7.225,11.494,14.418,17.442,21.461
			c1.078,1.276,2.454,3.391,4.084,4.797c-0.426,0.179-0.854,0.361-1.266,0.525c-0.886,0.352-1.762,0.715-2.644,1.073
			c0.309-0.315,0.469-0.777,0.196-1.303c-5.622-10.79-15.933-20.471-23.62-29.86c-9.43-11.52-18.706-25.629-30.453-34.963
			C105.902,4.074,108.79,4.503,111.636,5.064z M101.692,3.77c-0.459,0.293-0.698,0.888-0.197,1.447
			c9.734,10.871,18.693,22.535,27.934,33.822c8.171,9.979,15.9,22.753,25.801,31.03c0.227,0.188,0.477,0.259,0.719,0.273
			c-1.368,0.557-2.739,1.11-4.105,1.667c0.021-0.34-0.048-0.681-0.327-0.954c-8.102-7.883-13.817-18.6-20.474-27.688
			c-10.656-14.546-24.68-27.186-37.808-39.579C96.094,3.613,98.913,3.617,101.692,3.77z M131.289,49.117
			c4.241,5.926,10.797,20.601,18.209,23.819c-2.062,0.83-4.122,1.664-6.207,2.438c-4.646-11.206-13.178-21.68-20.575-31.158
			c-8.885-11.384-18.375-22.246-29.81-31.104c0.025-2.543-0.141-5.033-0.53-7.414C105.317,20.167,119.974,33.306,131.289,49.117z
			 M100.884,148.704c-0.174-0.733-0.841-1.361-1.812-1.152c-31.008,6.669-52.972-22.322-54.64-50.62
			c-1.575-26.737,27.232-43.982,50.137-46.586C156.02,43.362,152.532,149.772,100.884,148.704z M112.505,48.729
			c-0.968-0.792-2.143-2.977-2.963-4.047c-1.907-2.485-3.806-4.978-5.729-7.451c-3.506-4.508-6.983-9.301-11.059-13.327
			c-0.009-0.466-0.012-0.931-0.021-1.395c-0.045-2.386,0.063-4.958,0.127-7.546c15.563,14.307,27.053,31.525,39.064,48.548
			c-4.817-6.171-11.175-11.061-19.15-13.874C112.849,49.318,112.821,48.987,112.505,48.729z M99.249,42.982
			c-1.839-2.054-3.529-4.24-5.418-6.247c-0.26-0.275-0.623-0.234-0.883-0.053c-0.029-3.375-0.093-6.749-0.152-10.123
			c3.687,4.431,6.833,9.415,10.238,14.03c1.264,1.713,3.209,5.338,5.378,7.736c-1.623-0.39-3.247-0.776-4.988-0.998
			c-0.316-0.475-0.725-0.847-1.209-1.275C101.149,45.109,100.196,44.042,99.249,42.982z M99.816,47
			c-2.235-0.127-4.533-0.158-6.95-0.003c0.012-0.079,0.048-0.141,0.05-0.228c0.069-2.969,0.044-5.938,0.026-8.909
			c1.527,2.254,3.176,4.429,4.875,6.555C98.357,45.091,99.04,46.095,99.816,47z M133.962,66.39c2.336,3.28,4.702,6.545,7.139,9.771
			c-0.599,0.211-1.188,0.439-1.79,0.641C137.919,73.09,136.106,69.614,133.962,66.39z M7.346,105.618
			C1.332,54.096,39.303,9.646,89.071,4.155c-1.249,5.712-0.093,12.6,0.045,18.354c0.194,8.087,0.322,16.176,0.552,24.262
			c0.005,0.175,0.059,0.312,0.103,0.458c-0.022,0.003-0.043,0.002-0.065,0.006c-27.53,3.123-50.275,26.891-48.628,54.741
			c0.268,4.542,1.259,9.077,2.764,13.479c-5.089-0.093-11.324,2.188-16.245,2.774c-6.067,0.722-11.883,0.519-17.922,0.597
			C8.638,114.373,7.851,109.938,7.346,105.618z M98.976,186.461c-0.236-0.147-0.511-0.256-0.868-0.252
			c-19.005,0.187-36.403-1.677-52.902-11.818c-18.257-11.22-29.588-32.17-34.931-53.1c4.159,2.306,11.549,1.009,15.564,0.7
			c5.269-0.406,14.447-0.393,19.199-3.355c8.42,20.485,28.997,36.831,50.996,32.662c0.285,0.454,0.735,0.813,1.392,0.885
			c1.191,0.131,2.332,0.149,3.479,0.184c-0.009,0.128-0.025,0.254,0.002,0.398c1.226,6.497,1.654,13.042,1.957,19.635
			c0.174,3.789-0.863,9.502,0.394,13.39C101.831,186.021,100.409,186.3,98.976,186.461z M106.732,185.225
			c0.481-1.946,0.453-4.28,0.287-6.572c1.837,2.099,4.143,4.143,6.581,4.88C111.326,184.181,109.037,184.754,106.732,185.225z
			 M114.168,183.35c0.146-0.188,0.185-0.448-0.034-0.623c-1.139-0.909-2.443-1.576-3.636-2.422c-1.331-0.943-2.52-2.072-3.626-3.273
			c-0.068-0.726-0.137-1.43-0.201-2.114c1.819,1.539,3.631,3.085,5.515,4.546c1.276,0.99,2.682,2.25,4.176,3.173
			C115.628,182.869,114.904,183.134,114.168,183.35z M118.217,182.031c-1.567-1.364-3.563-2.439-5.21-3.635
			c-2.183-1.584-4.318-3.234-6.444-4.896c-0.027-0.369-0.065-0.766-0.078-1.103c-0.044-1.08-0.115-2.176-0.18-3.269
			c4.979,3.413,9.636,8.08,15.492,9.773c0.659,0.19,1.128-0.846,0.477-1.131c-5.901-2.581-10.683-6.36-16.033-9.825
			c-0.126-1.867-0.319-3.738-0.555-5.603c3.776,2.732,7.459,5.601,11.174,8.412c3.22,2.438,7.179,6.241,11.262,7.286
			C124.884,179.549,121.577,180.884,118.217,182.031z M129.315,177.45c-0.038-0.121-0.112-0.238-0.245-0.327
			c-7.797-5.261-15.58-10.8-23.531-15.888c-0.201-1.413-0.45-2.817-0.743-4.206c9.558,5.721,17.827,13.142,27.218,18.999
			C131.11,176.495,130.23,177.009,129.315,177.45z M133.419,175.286c-8.005-7.84-18.789-14.306-28.889-19.349
			c-0.282-1.202-0.577-2.403-0.959-3.571c0.104-0.004,0.203-0.022,0.309-0.027c-0.035,0.158-0.008,0.328,0.162,0.411
			c11.577,5.643,21.576,13.928,33.152,19.499c1.011,0.487,1.9-1.007,0.885-1.514c-11.303-5.648-21.438-13.836-33.209-18.483
			c1.969-0.14,3.847-0.465,5.674-0.883c10.271,6.351,20.698,13.789,31.803,18.493C139.451,171.802,136.484,173.637,133.419,175.286z
			 M143.438,168.851c-9.926-6.686-21.164-11.817-31.618-17.767c1.699-0.454,3.327-1.038,4.896-1.718
			c10.301,4.372,19.474,10.853,29.36,16.029c0.95,0.497,1.784-0.913,0.842-1.439c-9.609-5.371-19.199-10.804-29.388-14.99
			c1.417-0.658,2.761-1.43,4.069-2.256c10.414,4.646,19.299,11.294,29.192,16.811c-2.332,1.938-4.722,3.807-7.218,5.531
			C143.528,168.984,143.511,168.901,143.438,168.851z M152.053,162.442c-8.408-6.964-19.364-12.324-29.663-16.262
			c2.621-1.751,5.039-3.799,7.176-6.187c7.418,7.542,16.914,13.112,24.678,20.342c0.05,0.046,0.103,0.062,0.154,0.101
			C153.642,161.136,152.832,161.771,152.053,162.442z M156.641,158.3c-1.886-3.8-6.641-6.639-9.882-9.139
			c-4.983-3.847-10.085-7.897-15.477-11.179c11.952-15.104,15.283-39.28,8.8-58.938c6.263-1.261,12.28-3.53,18.215-5.859
			c4.701-1.846,10.112-3.023,14.832-5.021c0.364-0.04,0.704-0.198,0.987-0.443c0.549-0.254,1.138-0.46,1.66-0.744
			c0.917-0.499,0.831-2.208-0.312-2.378c-0.559-0.083-1.125-0.103-1.692-0.103c-10.399-18.24-27.329-31.542-37.714-49.766
			c25.942,15.558,43.852,45.504,47.051,75.454C185.898,116.271,174.697,140.57,156.641,158.3z"/>
		<path d="M134.018,93.114c-2.315-22.758-23.885-34.809-44.993-32.439c-21.58,2.422-38.286,21.38-37.362,42.985
			c1.017,23.803,25.871,44.048,48.938,38.003c0.254,0.165,0.545,0.291,0.915,0.309C124.78,143.101,135.965,112.266,134.018,93.114z
			 M101.516,138.307c-0.707-0.035-1.177,0.286-1.458,0.732c-23.811,3.53-43.903-15.233-44.899-38.908
			c-0.844-20.053,18.863-34.106,36.752-36.114c17.953-2.015,33.099,9.133,37.841,26.141
			C134.617,107.607,122.591,139.329,101.516,138.307z"/>
		<path d="M148.475,156.819c-2.776-3.637-8.371-6.243-12.224-8.596c-3.047-1.86-7.286-5.021-10.951-4.244
			c-0.296,0.063-0.214,0.497,0.069,0.509c3.244,0.124,7.443,3.448,10.075,5.117c3.92,2.485,7.909,6.625,12.227,8.26
			C148.229,158.076,148.848,157.309,148.475,156.819z"/>
	</g>
</g>
<g>
</g>
<g>
</g>
<g>
</g>
<g>
</g>
<g>
</g>
<g>
</g>
<g>
</g>
<g>
</g>
<g>
</g>
<g>
</g>
<g>
</g>
<g>
</g>
<g>
</g>
<g>
</g>
<g>
</g>
</svg>
