<?xml version="1.0" encoding="iso-8859-1"?>
<!-- Generator: Adobe Illustrator 16.0.0, SVG Export Plug-In . SVG Version: 6.00 Build 0)  -->
<!DOCTYPE svg PUBLIC "-//W3C//DTD SVG 1.1//EN" "http://www.w3.org/Graphics/SVG/1.1/DTD/svg11.dtd">
<svg version="1.1" id="Capa_1" xmlns="http://www.w3.org/2000/svg" xmlns:xlink="http://www.w3.org/1999/xlink" x="0px" y="0px"
	 width="191.913px" height="191.913px" viewBox="0 0 191.913 191.913" style="enable-background:new 0 0 191.913 191.913;"
	 xml:space="preserve">
<g>
	<g>
		<path d="M191.219,138.571c-7.042-5.352-19.312-6.178-31.863-5.639c-0.049-1.034-0.181-2.067-0.265-3.103
			c-0.037-0.46-0.677-0.46-0.714,0c-0.086,1.057-0.221,2.108-0.266,3.163c-2.926,0.146-5.854,0.337-8.729,0.583
			c-0.085-0.329-0.213-0.642-0.28-0.988c-0.086-0.448-0.828-0.456-0.908,0c-0.065,0.374-0.102,0.741-0.11,1.102
			c-3.394,0.302-6.702,0.636-9.808,0.941c0.092-0.077,0.172-0.168,0.195-0.304c0.266-1.535-0.039-2.956-0.174-4.497
			c-0.052-0.587-0.859-0.587-0.912,0c-0.135,1.541-0.439,2.961-0.174,4.497c0.033,0.189,0.16,0.303,0.312,0.377
			c-4.447,0.434-8.482,0.792-11.748,0.871c-9.189,0.224-18.42,0.298-27.664,0.33c-0.018-0.103-0.039-0.213-0.051-0.312
			c-0.091-0.724-1.035-0.724-1.125,0c-0.013,0.104-0.036,0.218-0.055,0.326c-9.89,0.028-19.8-0.002-29.71-0.005
			c2.151-6.268,4.15-12.601,6.035-19.024c2.894-9.865,5.836-19.677,9.272-29.369c7.771-21.921,9.744-7.172,12.6,5.316
			c0.507,2.216,3.906,1.276,3.4-0.938c-0.043-0.186-0.096-0.36-0.14-0.546c0.142-2.182,13.812-34.141,14.426-35.886
			c2.425-6.885,5.101-13.521,8.229-20.136c0.017-0.035,0.318,0.77,0.779,2.054c-0.17-0.446-0.979-0.433-1.051,0.079
			c-0.328,2.391-0.803,6.511,0.846,8.501c0.375,0.452,0.972,0.031,1.024-0.424c0.156-1.335-0.349-2.727-0.479-4.062
			c-0.129-1.314-0.112-2.627-0.285-3.937c1.846,5.159,6.168,17.78,6.501,19.518c2.495,13,3.86,25.964,7.774,38.669
			c0.422,1.37,1.976,1.667,3.012,0.794c4.343-3.655,7.19-8.008,9.809-12.704c-0.939,4.348-1.718,9.38-0.943,13.774
			c0.117,0.663,1.217,0.662,1.334,0c0.797-4.496,0.062-9.306,0.473-13.872c0.029-0.337-0.346-0.47-0.604-0.36
			c0.18-0.327,0.371-0.64,0.551-0.97c1.095,7.771,2.832,15.303,5.799,22.707c0.375,0.938,1.162,1.367,1.988,1.253
			c-0.119,2.527-0.344,5.112-0.07,7.627c0.08,0.724,1.047,0.724,1.125,0c0.285-2.613,0.031-5.304-0.084-7.924
			c-0.002-0.037-0.03-0.051-0.038-0.084c0.042-0.03,0.088-0.032,0.13-0.066c8.916-7.158,16.414-16.257,22.492-25.975
			c-0.041,2.705-0.078,5.409-0.109,8.114c-0.012,1.059,1.653,1.059,1.641,0c-0.039-3.362-0.076-6.724-0.137-10.086
			c-0.001-0.05-0.04-0.068-0.049-0.111c0.079-0.132,0.173-0.258,0.252-0.39c1.229-2.07-1.996-3.945-3.215-1.879
			c-4.938,8.362-11.033,15.814-17.766,22.783c-7.606,7.876-8.668-17.793-9.074-21.843c-0.168-1.654-2.453-2.643-3.373-0.913
			c-1.231,2.315-9.256,20.495-11.301,13.872c-2.207-7.149-3.164-14.757-4.336-22.123c-2.125-13.357-4.535-26.171-10.051-38.579
			c-0.56-1.26-2.525-1.106-3.131,0c-8.363,15.262-12.242,32.095-19.544,47.775c-0.84,1.804-2.969,5.287-4.175,8.62
			c-1.662-5.609-3.805-10.875-7.043-16.03c-0.659-1.05-2.456-1.254-3.063,0c-9.982,20.601-15.317,42.699-22.234,64.424
			c-0.255,0.8-0.583,1.568-0.851,2.363c-6.66,0.005-13.316,0.027-19.965,0.104c-2.987-8.298-5.753-16.523-10.121-24.362
			c-0.444-0.798-1.58-1.119-2.361-0.619c-3.704,2.37-7.295,4.895-10.867,7.446c0.441-7.734,0.838-15.479,0.569-23.247
			c-0.721-20.888-1.344-41.786-2.085-62.677c-0.053-1.489-2.258-1.489-2.31,0c-0.808,23.267,0.227,46.283,1.035,69.523
			c0.218,6.278-0.061,12.492-0.423,18.684c-3.373,2.447-6.729,4.917-10.106,7.365c-1.142,0.828-0.125,2.696,1.127,1.929
			c2.976-1.82,5.877-3.729,8.761-5.668c-0.251,4.091-0.502,8.178-0.641,12.269c-5.066,0.211-10.124,0.472-15.167,0.805
			c-1.285,0.085-1.28,1.897,0,1.991c5.022,0.367,10.059,0.646,15.102,0.883c-0.087,6.223,0.141,12.463,1.179,18.77
			c0.375,2.278,3.83,1.309,3.458-0.952c-0.969-5.897-1.296-11.789-1.33-17.682c7.451,0.312,14.921,0.481,22.395,0.565
			c2.827,7.769,5.935,15.163,10.959,22.1c0.735,1.016,2.423,1.298,3.096,0c3.741-7.219,6.845-14.623,9.601-22.162
			c12.564-0.176,25.116-0.539,37.596-1.033c16.31-0.645,32.607-0.819,48.922-1.191c11.879-0.271,26.793-3.285,37.707,2.493
			C191.469,142.227,192.781,139.76,191.219,138.571z M19.391,136.566c0.079-4.78,0.332-9.562,0.603-14.346
			c0.881-0.602,1.765-1.191,2.646-1.795c11.672-7.998,12.901,2.995,16.383,12.885c0.331,0.939,0.657,1.869,0.983,2.8
			C33.125,136.212,26.244,136.312,19.391,136.566z M55.547,155.884c-0.415,0.903-0.887,1.342-1.39,1.443
			c0.183-1.953,0.297-3.958,0.253-5.884c-0.025-1.106-1.692-1.106-1.717,0c-0.041,1.794,0.061,3.654,0.218,5.481
			c-3.489-2.504-7.642-16.155-6.755-13.891c-0.258-0.659-0.5-1.316-0.75-1.975c5.419,0.037,10.839,0.063,16.258,0.006
			C59.796,146.064,57.788,151.006,55.547,155.884z"/>
		<path d="M31.216,120.663c0.265-0.799-0.983-1.329-1.361-0.573c-0.858,1.712-1.413,4.265-0.25,5.94
			c0.683,0.983,2.098,0.367,1.889-0.796C31.19,123.54,30.633,122.422,31.216,120.663z"/>
		<path d="M32.591,130.011c0.211-0.74-0.855-1.188-1.236-0.521c-0.827,1.447-1.167,3.004-1.2,4.664
			c-0.027,1.371,2.142,1.372,2.127,0C32.267,132.708,32.186,131.431,32.591,130.011z"/>
		<path d="M89.78,84.754c-0.128-1.119-0.162-2.243-0.319-3.359c-0.086-0.604-1.132-0.605-1.217,0
			c-0.262,1.877-0.844,5.807,0.77,7.21c0.531,0.461,1.306,0.149,1.349-0.559C90.429,86.972,89.905,85.839,89.78,84.754z"/>
		<path d="M90.609,95.164c-0.045-0.314-0.585-0.313-0.63,0c-0.184,1.275-0.367,2.549-0.566,3.822
			c-0.199,1.274-0.755,2.384-0.557,3.667c0.085,0.551,0.896,0.717,1.244,0.328C91.759,101.129,90.93,97.427,90.609,95.164z"/>
		<path d="M89.277,110.263c-0.212-0.509-0.991-0.334-0.85,0.233c0.527,2.117,0.85,4.192,0.999,6.367
			c0.076,1.104,1.745,1.127,1.732,0C91.134,114.518,90.166,112.391,89.277,110.263z"/>
		<path d="M89.21,125.509c-0.045-0.459-0.671-0.46-0.714,0c-0.181,1.907-1.015,4.797,0.562,6.278
			c0.468,0.441,1.227,0.127,1.245-0.516C90.356,129.43,89.395,127.397,89.21,125.509z"/>
		<path d="M53.656,143.158c-0.666,1.349-0.69,3.208-0.636,4.684c0.026,0.7,0.987,0.667,1.064,0c0.17-1.467,0.869-2.855,0.903-4.323
			C55.003,142.83,53.975,142.513,53.656,143.158z"/>
		<path d="M98.068,96.85c0.148-0.762-0.861-1.018-1.143-0.315c-1.037,2.593-1.244,5.896-0.111,8.481
			c0.322,0.736,1.498,0.348,1.472-0.399C98.199,101.938,97.545,99.549,98.068,96.85z"/>
		<path d="M97.74,113.119c-0.135-0.314-0.562-0.071-0.514,0.217c0.365,2.191-0.033,4.419,0.369,6.58c0.115,0.617,1.133,0.62,1.246,0
			C99.264,117.603,98.654,115.246,97.74,113.119z"/>
		<path d="M98.007,126.949c-0.075-0.654-0.942-0.654-1.018,0c-0.175,1.515-0.403,2.992-0.114,4.494c0.119,0.619,1.126,0.619,1.246,0
			C98.41,129.941,98.182,128.463,98.007,126.949z"/>
		<path d="M121.705,54.907c-0.059-0.557-0.809-0.557-0.866,0c-0.228,2.175-0.632,4.486-0.131,6.639c0.13,0.56,0.998,0.56,1.129,0
			C122.337,59.393,121.934,57.082,121.705,54.907z"/>
		<path d="M121.758,71.477c-0.061-0.626-0.913-0.626-0.973,0c-0.202,2.129-0.706,4.561-0.071,6.638c0.169,0.551,0.946,0.551,1.114,0
			C122.464,76.038,121.96,73.606,121.758,71.477z"/>
		<path d="M122.562,86.606c-0.069-0.734-1.072-0.734-1.141,0c-0.208,2.22-0.371,4.437-0.023,6.647c0.094,0.59,1.095,0.59,1.188,0
			C122.934,91.042,122.77,88.826,122.562,86.606z"/>
		<path d="M122.393,100.78c-0.334-0.489-1.09-0.062-0.801,0.468c1.264,2.323,0.874,4.485,1.172,6.971
			c0.104,0.858,1.236,0.86,1.338,0C124.4,105.685,123.837,102.891,122.393,100.78z"/>
		<path d="M123.857,113.145c-0.199-0.528-0.967-0.328-0.85,0.234c0.471,2.24,0.15,3.983-0.249,6.181
			c-0.164,0.899,1.011,1.199,1.349,0.372C124.992,117.762,124.666,115.29,123.857,113.145z"/>
		<path d="M123.72,126.949c-0.282,2.108-1.223,4.358-0.964,6.484c0.085,0.695,1.165,0.993,1.328,0.18
			c0.424-2.107,0.625-4.519,0.501-6.664C124.554,126.376,123.793,126.408,123.72,126.949z"/>
		<path d="M138.057,97.992c-0.777,2.669-1.144,5.294-0.816,8.064c0.092,0.771,1.109,0.771,1.201,0
			c0.311-2.6,0.168-5.197,0.625-7.785C139.184,97.615,138.248,97.333,138.057,97.992z"/>
		<path d="M138.229,113.981c-0.033-0.499-0.74-0.499-0.774,0c-0.196,2.85-0.574,5.794-0.319,8.645c0.081,0.91,1.332,0.91,1.413,0
			C138.803,119.775,138.425,116.831,138.229,113.981z"/>
		<path d="M148.883,104.616c-0.021-0.308-0.438-0.298-0.471,0c-0.293,2.626-1.406,5.41-0.954,8.055c0.082,0.477,0.839,0.454,0.938,0
			C148.949,110.123,149.061,107.211,148.883,104.616z"/>
		<path d="M148.391,121.186c-0.033-0.597-0.893-0.597-0.927,0c-0.124,2.176-0.459,4.475-0.063,6.629
			c0.096,0.524,0.959,0.524,1.055,0C148.85,125.661,148.516,123.361,148.391,121.186z"/>
		<path d="M159.251,120.466c-0.052-0.665-0.983-0.665-1.034,0c-0.146,1.938-0.49,3.995-0.003,5.906c0.131,0.517,0.909,0.517,1.04,0
			C159.74,124.461,159.398,122.404,159.251,120.466z"/>
		<path d="M181.591,93.81c-0.043-0.676-1.005-0.675-1.049,0c-0.188,2.906-0.578,5.754-0.849,8.645
			c-0.074,0.783,1.045,0.818,1.283,0.175C181.988,99.899,181.771,96.667,181.591,93.81z"/>
		<path d="M181.842,111.82c-0.048-0.999-1.502-0.999-1.55,0c-0.095,1.96-0.247,3.993,0.239,5.911c0.136,0.53,0.936,0.53,1.07,0
			C182.089,115.813,181.936,113.78,181.842,111.82z"/>
		<path d="M180.643,124.787c-0.039-0.381-0.552-0.381-0.593,0c-0.2,1.883-0.618,3.874-0.409,5.765c0.1,0.909,1.313,0.909,1.412,0
			C181.26,128.661,180.843,126.67,180.643,124.787z"/>
	</g>
</g>
<g>
</g>
<g>
</g>
<g>
</g>
<g>
</g>
<g>
</g>
<g>
</g>
<g>
</g>
<g>
</g>
<g>
</g>
<g>
</g>
<g>
</g>
<g>
</g>
<g>
</g>
<g>
</g>
<g>
</g>
</svg>
