<?xml version="1.0" encoding="iso-8859-1"?>
<!-- Generator: Adobe Illustrator 16.0.0, SVG Export Plug-In . SVG Version: 6.00 Build 0)  -->
<!DOCTYPE svg PUBLIC "-//W3C//DTD SVG 1.1//EN" "http://www.w3.org/Graphics/SVG/1.1/DTD/svg11.dtd">
<svg version="1.1" id="Capa_1" xmlns="http://www.w3.org/2000/svg" xmlns:xlink="http://www.w3.org/1999/xlink" x="0px" y="0px"
	 width="192.515px" height="192.515px" viewBox="0 0 192.515 192.515" style="enable-background:new 0 0 192.515 192.515;"
	 xml:space="preserve">
<g>
	<g>
		<path d="M153.178,48.33c0.016-0.275-0.046-0.555-0.244-0.793c-0.146-0.176-0.336-0.326-0.487-0.499
			c-7.184-12.141-17.229-22.436-30.272-29.279C96.407,4.241,66.112,10.721,42.368,27.04c-0.009-0.009-0.018-0.019-0.027-0.029
			c-0.55-0.561-1.259,0.134-0.992,0.749C25.417,38.99,12.548,54.645,6.193,71.607c-9.008,24.042-9.429,52.429,7.098,73.661
			c18.85,24.216,42.562,31.312,69.984,35.809c0.224,0.977,0.999,1.327,1.791,1.233c0.626,0.074,1.235-0.129,1.58-0.703
			c2.715,0.422,5.452,0.832,8.236,1.229c0.293,0.599,0.857,1.037,1.753,0.973C161.779,179.03,181.718,98.501,153.178,48.33z
			 M132.846,29.557c3.212,2.528,6.116,5.336,8.779,8.334c-1.923-1.335-3.844-2.639-5.675-3.906
			c-6.724-4.651-13.452-9.274-20.099-14.035C121.761,22.186,127.476,25.33,132.846,29.557z M115.211,19.695
			c-0.704-0.048-1.333,0.916-0.691,1.468c5.712,4.921,11.914,9.244,18.016,13.66c5.409,3.915,10.562,8.293,15.976,12.206
			c3.412,5.342,6.196,11.098,8.304,17.155c-17.254-16.396-36.324-30.732-53.197-47.563
			C107.539,17.287,111.414,18.305,115.211,19.695z M101.229,16.229c16.703,19.312,36.711,35.859,56.098,52.368
			c0.3,0.255,0.625,0.344,0.94,0.349c0.86,2.991,1.628,6.016,2.196,9.098c-22.511-22.672-47.419-41.503-71.54-62.388
			C93.039,15.485,97.151,15.687,101.229,16.229z M87.097,15.708c12.408,12.413,26.242,23.164,39.72,34.367
			c11.868,9.865,21.946,21.662,33.75,31.479c0.19,0.158,0.394,0.158,0.593,0.197c0.438,3.021,0.748,6.064,0.91,9.122
			c-11.622-14.397-28.746-26.074-42.096-38.72c-13.072-12.382-26.878-23.839-40.494-35.582
			C82.01,16.147,84.553,15.877,87.097,15.708z M36.587,36.601c14.006,19.304,29.393,38.46,45.537,55.963
			c-2.477,0.399-4.323,2.146-5.402,4.592c-11.965-20.23-28.61-39.589-45.74-55.5C32.778,39.895,34.655,38.216,36.587,36.601z
			 M29.783,42.8C46.527,60.579,59.971,80.616,74.95,99.771c-2.612-0.153-5.222-0.125-7.828-0.002
			c-6.564-7.601-14.426-14.261-20.815-22.27c-7.541-9.452-14.611-19.281-21.529-29.196C26.368,46.402,28.042,44.57,29.783,42.8z
			 M18.963,56.099c6.58,8.623,12.672,17.609,19.219,26.258c4.236,5.595,10.734,16.081,18.049,17.933
			c1.116,0.283,1.845-1.051,1.092-1.876c-6.066-6.653-12.59-12.596-18.318-19.71c-6.391-7.94-12.394-16.26-19.206-23.855
			c1.256-1.821,2.6-3.584,3.992-5.31c6.755,10.968,14.133,21.582,21.938,31.822c3.599,4.724,9.578,14.231,15.99,18.745
			c-3.076,0.254-6.153,0.544-9.238,0.751c-0.565,0.038-1.134,0.045-1.7,0.076C39.537,88.122,28.298,73.409,14.989,62.679
			C16.205,60.426,17.543,58.237,18.963,56.099z M12.526,67.589c0.543-1.194,1.129-2.369,1.73-3.536
			c6.675,6.421,12.567,13.414,18.379,20.641c4.428,5.506,8.927,11.727,14.417,16.403c-2.418,0.07-4.839,0.105-7.262,0.097
			c-0.031-0.076-0.003-0.145-0.058-0.223c-3.661-5.205-9.484-9.615-13.877-14.268c-4.889-5.177-9.648-10.562-14.837-15.457
			C11.505,70.021,11.98,68.789,12.526,67.589z M10.394,72.756c4.571,5.231,9.144,10.461,13.701,15.705
			c3.354,3.86,7.287,9.539,11.847,12.668c-2.181-0.036-4.36-0.049-6.542-0.111c-1.889-3.633-5.886-6.87-8.575-9.734
			c-4.048-4.312-8.148-8.599-12.424-12.691C9.002,76.625,9.669,74.679,10.394,72.756z M7.896,80.387
			c3.443,3.811,6.852,7.65,10.175,11.57c2.189,2.583,4.491,6.258,7.153,8.947c-2.789-0.089-5.578-0.18-8.366-0.248
			c-0.002-0.083,0.025-0.155,0.009-0.241c-0.199-1.027-1.522-1.951-2.218-2.665c-1.373-1.406-2.721-2.838-4.08-4.258
			c-1.341-1.403-2.641-2.842-3.961-4.264c-0.221-0.239-0.458-0.466-0.68-0.708C6.455,85.783,7.135,83.074,7.896,80.387z
			 M5.392,91.209c0.066,0.086,0.109,0.168,0.177,0.255c1.665,2.125,3.458,4.155,5.267,6.156c0.639,0.706,1.561,1.998,2.548,3.01
			c-3.005-0.048-6.01-0.102-9.007-0.039C4.523,97.458,4.892,94.328,5.392,91.209z M84.441,168.426
			c-0.157,2.556-0.89,5.581-1.195,8.439c-21.362-4.397-40.372-8.079-58.709-24.745c-14.36-13.05-20.312-30.509-20.199-48.353
			c0.375-0.039,0.75-0.078,1.124-0.116c0.769,0.115,1.079-0.908,0.324-1.177c13.247,4.717,32.222,2.898,46.694,2.53
			c6.341-0.161,16.077,0.491,23.217-0.732c0.599,5.338,4.123,9.649,8.958,10.692c-2.59,9.613,0.053,22.518,0.256,32.01
			C85.064,154.135,84.88,161.28,84.441,168.426z M79.737,104.457c-0.094-0.406-0.14-0.839-0.181-1.271
			c0.825-0.708,0.835-2.068,0.11-2.771c0.514-3.116,2.36-5.964,5.697-6.026c0.263,0.099,0.557,0.123,0.856,0.039
			c7.311-2.046,8.851,12.445,4.012,15.816C85.505,113.535,80.758,108.867,79.737,104.457z M96.636,179.661
			c-0.077,0.006-0.13,0.044-0.203,0.058c-3.079-0.722-6.1-1.372-9.08-1.998c0.729-4.936,1.141-9.874,1.377-14.828
			c1.106,3.803,3.146,7.353,5.262,10.649c1.134,1.766,2.52,4.008,4.097,5.942C97.598,179.531,97.132,179.625,96.636,179.661z
			 M101.545,179.064c-1.741-2.289-3.993-4.411-5.632-6.646c-2.634-3.587-4.953-7.438-6.292-11.7
			c-0.131-0.413-0.474-0.533-0.79-0.479c0.104-3.08,0.167-6.164,0.157-9.261c3.703,5.706,7.526,11.303,11.585,16.787
			c1.152,1.556,4.93,8.036,8.072,9.87C106.356,178.244,103.976,178.697,101.545,179.064z M111.427,176.776
			c-0.078-0.287-0.25-0.545-0.639-0.641c-0.342-0.084-2.574-2.985-3.214-3.745c-2.474-2.946-4.856-5.962-7.208-9.006
			c-3.729-4.831-7.438-9.634-11.382-14.277c-0.006-0.712,0.004-1.419-0.006-2.131c-0.049-3.281,0.052-6.971,0.106-10.742
			c5.033,6.92,9.521,14.255,14.512,21.2c3.886,5.408,9.697,14.173,16.757,15.82C117.525,174.653,114.525,175.793,111.427,176.776z
			 M122.323,172.243c-0.04-0.168-0.102-0.337-0.288-0.481c-7.513-5.873-13.184-11.576-18.889-19.388
			c-4.604-6.304-8.886-12.954-14.024-18.86c0.014-4.85-0.157-9.788-0.98-14.303c4.784,8.441,12.125,16.02,18.342,23.194
			c4.446,5.131,8.928,10.23,13.376,15.359c2.665,3.072,6.942,6.833,8.716,10.649C126.58,169.808,124.487,171.076,122.323,172.243z
			 M130.574,166.929c-1.673-6.752-12.019-15.121-15.838-19.419c-8.975-10.102-19.731-20.06-26.688-31.725
			c-0.2-0.335-0.502-0.377-0.782-0.312c-0.027-0.094-0.042-0.197-0.07-0.29c1.007-0.022,2.043-0.156,3.111-0.464
			c0.989-0.285,1.833-0.724,2.572-1.258c0.004,0.007-0.001,0.014,0.004,0.02c8.606,11.857,19.439,21.763,29.042,32.774
			c3.671,4.21,8.881,14.073,14.311,15.939C134.447,163.886,132.539,165.442,130.574,166.929z M137.801,160.682
			c-0.005-0.021-0.01-0.039-0.015-0.06c-0.245-1.003-1.884-1.067-2.087,0c0.357-1.878,2.23,0.027,0.441-2.104
			c-1.101-1.312-2.181-2.639-3.256-3.973c-2.863-3.551-5.891-6.939-8.826-10.426c-9.361-11.111-20.664-20.387-29.961-31.577
			c-0.058-0.068-0.137-0.06-0.205-0.098c1.61-1.684,2.554-3.939,2.89-6.406c10.96,8.863,18.812,22.096,27.535,32.966
			c3.437,4.28,10.23,15.011,17.108,17.8C140.271,158.152,139.046,159.428,137.801,160.682z M143.44,154.43
			c-9.202-3.837-17.378-18.031-22.94-24.936c-6.608-8.199-13.972-19.657-23.57-24.851c0.134-2.359-0.141-4.758-0.702-6.772
			c-1.245-4.47-7.479-11.968-11.53-5.701c-0.013-0.178,0.021-0.353-0.099-0.532C71.143,71.628,53.09,54.335,37.631,35.784
			c2.057-1.671,4.202-3.224,6.386-4.717c19.981,24.039,40.113,47.968,60.329,71.806c12.773,15.062,33.893,27.29,42.189,45.514
			c0.199,0.438,0.544,0.545,0.896,0.536C146.187,150.829,144.839,152.653,143.44,154.43z M148.569,147.141
			c-3.115-14.658-23.465-27.846-33.633-37.436c-25.404-23.957-45.418-54.068-69.604-79.5c1.682-1.109,3.397-2.161,5.142-3.158
			c-0.212,0.292-0.28,0.684,0.058,1.029c20.49,20.911,43.544,39.233,63.753,60.385c13.771,14.412,24.198,33.136,41.079,44.271
			c0.096,0.063,0.19,0.015,0.287,0.047C153.705,137.817,151.346,142.639,148.569,147.141z M116.576,86.169
			c-19.201-21.655-43.231-40.101-64.848-59.29c-0.179-0.159-0.375-0.198-0.562-0.201c2.631-1.476,5.338-2.787,8.082-3.994
			c19.543,21.369,43.253,38.254,63.999,58.396c9.795,9.509,20.062,19.087,29.118,29.301c1.857,2.094,3.81,6.06,7.059,5.388
			c1.149-0.238,1.108-2.011,0-2.275c-3.686-0.878-12.26-13.014-14.99-15.716c-9.573-9.478-18.874-19.25-28.779-28.379
			C97.843,52.983,78.24,38.721,60.617,22.068c5.781-2.429,11.77-4.228,17.833-5.325c0.005,0.022-0.009,0.037-0.001,0.06
			c3.666,10.485,22.407,21.658,30.208,28.933c17.638,16.45,36.32,32.03,53.476,48.907c0.02,0.019,0.047,0.009,0.066,0.026
			c0.195,12.155-1.712,24.373-5.696,35.615C141.115,117.62,129.727,100.998,116.576,86.169z"/>
		<path d="M161.556,102.161c-19.101-20.06-40.404-38.162-60.869-56.829c-4.133-3.77-24.989-27.411-31.961-24.271
			c-0.196,0.088-0.176,0.398,0,0.492c14.407,7.689,26.899,23.143,38.656,34.223c17.266,16.271,35.032,31.99,52.367,48.191
			C160.952,105.092,162.693,103.357,161.556,102.161z"/>
		<path d="M156.18,10.664c-2.91,2.325-6.824,2.428-10.019,4.205c-1.185,0.659-0.382,2.622,0.929,2.201
			c2.685-0.863,5.473-1.255,8.147-2.046c-0.209,1.786-0.361,3.575-0.529,5.364c-1.086-0.02-2.181,0.001-3.178,0.299
			c-1.513,0.453-1.018,2.641,0.371,2.582l-0.02,0.019c0.835-0.084,1.681,0.012,2.524,0.139c-0.015,0.161-0.032,0.322-0.048,0.483
			c-0.259,2.762-1.472,6.791-0.479,9.345c0.346,0.889,1.209,1.292,2.091,0.851c2.52-1.26,2.089-5.862,2.312-8.237
			c0.434-4.605,0.784-9.215,1.246-13.817C159.723,10.146,157.348,9.731,156.18,10.664z"/>
		<path d="M166.821,18.256c-0.658-1.227-0.964-2.66-1.122-4.066c0.89-0.213,1.785-0.394,2.691-0.552
			c0.689-0.119,1.565-0.983,1.748-1.028c0.611-0.152,0.468-0.901-0.015-1.06c0.005-0.018,0.01-0.036,0.015-0.054
			c-0.036-0.007-0.837-0.804-1.403-0.842c-1.854-0.124-3.67,0.007-5.482,0.409c-0.798,0.177-1.327,0.978-1.342,1.761
			c-0.054,3.203,0.766,6.541,2.804,9.05c0.544,0.669,1.597,0.665,2.291,0.296c3.512-1.865,4.347,1.49,3.702,4.431
			c-0.321,1.466-1.168,3.102-2.642,3.685c-1.01,0.399-3.388,0.024-4.767-0.706c0.142-0.312,0.245-0.652,0.346-0.93
			c0.483-1.328-1.134-2.257-2.211-1.699c-0.649,0.337-1.334,0.132-1.968,0.569c-0.693,0.479-1.17,1.317-0.887,2.181
			c1.068,3.278,6.456,5.21,9.688,4.519c3.148-0.674,5.112-3.231,6.031-6.181C176.107,22.239,172.485,16.561,166.821,18.256z"/>
		<path d="M187.147,9.238c-2.499,2.747-3.879,6.722-5.531,10.02c-1,1.996-2.031,3.976-3.055,5.96
			c-0.894,1.733-2.389,3.558-2.696,5.505c-0.257,1.622,1.39,2.606,2.679,1.559c0.03-0.025,0.062-0.05,0.092-0.074
			c0.086-0.07,0.102-0.184,0.159-0.275v0.025c2.1-3.569,4.27-7.049,6.206-10.722c1.729-3.28,4.105-6.687,5.15-10.249
			C190.649,9.296,188.372,7.893,187.147,9.238z"/>
		<path d="M181.187,10.801c-1.102-0.877-2.564-1.666-4.045-1.259c-1.174,0.323-1.669,1.741-2.045,2.754
			c-0.605,1.63-0.188,5.486,2.459,4.049c0.066-0.036,0.086-0.119,0.144-0.167c0.213,0.13,0.424,0.266,0.635,0.378
			c0.96,0.51,2.087,0.056,2.415-0.983c0.317-1.011,0.598-2.034,0.893-3.051C181.802,11.971,181.66,11.177,181.187,10.801z"/>
		<path d="M189.835,22.854c-1.605,1.182-4.049,3.935-3.756,6.166c0.08,0.616,0.45,1.288,1.065,1.494
			c0.521,0.615,1.253,1.093,1.995,1.457c0.941,0.462,2.094,0.093,2.396-0.975c0.628-2.215,0.942-4.307,0.979-6.604
			C192.534,23.143,190.943,22.036,189.835,22.854z"/>
	</g>
</g>
<g>
</g>
<g>
</g>
<g>
</g>
<g>
</g>
<g>
</g>
<g>
</g>
<g>
</g>
<g>
</g>
<g>
</g>
<g>
</g>
<g>
</g>
<g>
</g>
<g>
</g>
<g>
</g>
<g>
</g>
</svg>
