<?xml version="1.0" encoding="iso-8859-1"?>
<!-- Generator: Adobe Illustrator 16.0.0, SVG Export Plug-In . SVG Version: 6.00 Build 0)  -->
<!DOCTYPE svg PUBLIC "-//W3C//DTD SVG 1.1//EN" "http://www.w3.org/Graphics/SVG/1.1/DTD/svg11.dtd">
<svg version="1.1" id="Capa_1" xmlns="http://www.w3.org/2000/svg" xmlns:xlink="http://www.w3.org/1999/xlink" x="0px" y="0px"
	 width="190.003px" height="190.003px" viewBox="0 0 190.003 190.003" style="enable-background:new 0 0 190.003 190.003;"
	 xml:space="preserve">
<g>
	<path d="M153.041,93.11c28.644-30.509-10.021-89.731-46.385-92.86C57.409-3.989,9.518,46.555,33.287,94.767
		c0.678,1.375,2.064,1.577,3.196,1.087c0.997,10.471,2.498,20.926,3.827,31.315c1.708,13.351,1.572,27.194,4.131,40.366
		c0.382,1.965,2.629,2.688,4.331,2.134c14.349,34.063,105.561,20.274,101.782-4.46c0.151-0.1,0.313-0.181,0.45-0.311
		c8.324-7.924,5.582-27.327,5.091-37.449C155.543,116.057,154.535,104.518,153.041,93.11z M148.604,132.236
		c-2.867-2.923-6.096-5.529-9.417-7.789c4.29-0.237,7.251-2.876,9.242-6.399c0.104,1.781,0.217,3.563,0.286,5.343
		C148.832,126.391,148.755,129.325,148.604,132.236z M39.011,74.198c-1.287,0.977-1.726,2.36-1.594,3.65
		c-0.16,0.361-0.242,0.745-0.222,1.142c-0.511,0.204-0.957,0.539-1.27,0.982c-3.45-39.231,25.394-71.479,67.577-71.557
		c31.601-0.058,57.068,42.873,47.621,71.737c-0.037-0.219-0.064-0.443-0.102-0.661c-0.254-1.498-1.638-1.886-2.818-1.516
		c-1.703-18.101-26.808-22.736-41.201-23.357C84.561,53.65,57.076,60.487,39.011,74.198z M99.945,89.623
		c-18.5,0.553-38.205-1.629-54.704-10.407c24.489-14.399,67.737-26.732,91.277-6.82C150.932,84.589,104.387,89.491,99.945,89.623z
		 M45.231,86.486c17.368,11.362,42.881,12.008,62.265,11.066c8.297-0.404,32.055-2.503,38.943-12.288
		c0.018,1.367,0.104,2.738,0.151,4.107c-0.502,1.046-0.384,2.095,0.11,2.974c0.186,3.857,0.461,7.721,0.748,11.582
		c-0.744,0.288-1.369,0.902-1.615,2.004c-0.909,4.073-1.613,11.238-6.467,12.606c-2.931,0.826-6.912-1.237-9.601-2.194
		c-2.7-0.961-5.368-1.418-7.624-0.935c-0.395-2.494-4.55-2.718-5.285-0.066c-1.834,6.603-1.748,36.972-12.768,26.818
		c-7.169-6.604,4.273-21.808-9.381-25.095c-7.683-1.849-9.455,3.835-10.716,10.381c-0.062,0.323-0.172,0.612-0.295,0.892
		c-0.206-0.271-0.436-0.521-0.639-0.792c-0.753-1.01-2.412-0.126-1.731,1.012c0.307,0.514,0.67,0.977,0.986,1.482
		c-3.788,2.808-12.595,1.552-15.467,0.992c-6.391-1.244-11.532-6.409-15.302-11.313C44.328,110.33,43.889,97.735,45.231,86.486z
		 M52.352,165.435c-0.339-0.497-0.8-0.792-1.29-0.957c0.318-3.029,0.379-6.096,0.294-9.174c3.495,3.589,6.875,7.296,10.231,11.001
		c3.17,3.499,6.343,7.947,9.881,11.746C63.608,175.626,56.627,171.696,52.352,165.435z M79.846,180.073
		c-3.975-6.049-10.713-11.334-15.667-16.358c-4.109-4.169-8.317-8.153-12.953-11.651c-0.277-4.516-0.849-9.038-1.464-13.507
		c5.851,8.519,12.488,16.466,19.615,23.956c5.533,5.815,12.063,13.384,19.187,18.631C85.67,180.903,82.75,180.588,79.846,180.073z
		 M108.188,181.261c-7.833-6.415-16.85-11.633-24.396-18.641c-10.178-9.449-19.488-19.721-28.833-29.975
		c-0.919-1.009-2.273,0.445-1.465,1.465c8.614,10.88,17.766,21.418,27.505,31.303c4.594,4.662,10.661,11.366,17.214,16.127
		c-0.4-0.002-0.786,0.005-1.189,0c-6.263-7.197-15.523-12.858-22.525-19.349c-9.379-8.694-18.054-18.126-25.419-28.589
		c-0.106-0.761-0.215-1.53-0.318-2.286c-0.314-2.318-0.675-4.639-0.998-6.958c3.407,4.515,7.854,8.344,13.393,11.058
		c3.658,1.794,7.53,2.413,11.409,2.302c6.048,8.61,13.437,16.144,20.912,23.518c4.437,4.376,9.029,8.596,13.566,12.865
		c2.237,2.104,4.421,4.729,6.922,6.721C112.035,181.012,110.1,181.151,108.188,181.261z M119.523,180.094
		c-3.762-7.703-14.734-14.338-20.955-19.997c-7.926-7.21-15.591-14.659-22.731-22.642c3.32-0.441,6.604-1.351,9.725-2.531
		c5.513,7.75,11.957,14.68,18.759,21.443c7.338,7.297,14.824,15.224,22.912,21.833C124.791,179.03,122.195,179.644,119.523,180.094z
		 M132.197,175.983c-6.304-7.631-14.979-13.865-22.344-20.388c-7.809-6.918-15.373-14.216-22.091-22.218
		c0.46-0.55,0.837-1.184,1.171-1.906c0.371-0.778,0.615-1.599,0.732-2.461c0.119-0.664,0.237-1.329,0.357-1.993
		c0.103-4.046,2.338-3.58,6.705,1.397c0.122,8.42-2.707,11.091,3.257,17.853c2.564,2.907,8.498,7.351,12.641,4.596
		c0.924-0.612,1.732-1.357,2.468-2.183c4.446,3.984,8.513,8.393,12.614,12.726c2.781,2.938,6.334,7.917,10.453,9.855
		C136.466,173.18,134.457,174.738,132.197,175.983z M142.832,161.772c-0.512,2.389-1.332,4.454-2.37,6.278
		c-1.106-1.098-2.394-2.014-3.609-3.043c-2.704-2.292-5.256-4.771-7.829-7.207c-4.025-3.805-8.078-7.621-12.486-10.98
		c1.563-2.399,2.596-5.346,3.332-8.495c4.572,4.75,9.39,9.258,14.119,13.851c2.783,2.704,5.803,6.386,9.354,8.477
		C143.113,160.972,142.926,161.334,142.832,161.772z M146.054,157.59c-8.634-7.337-17.237-14.704-25.556-22.431
		c0.423-2.525,0.693-5.12,0.894-7.646c0.239,0.283,0.606,0.429,1.043,0.254c1.244-0.499,4.478,2.736,5.364,3.473
		c2.68,2.226,5.115,4.758,7.512,7.28c3.139,3.302,5.989,8.134,10.35,9.837c0.514,0.2,1.026,0.016,1.44-0.305
		C146.723,151.22,146.348,154.39,146.054,157.59z M135.562,132.688c-2.944-2.655-9.405-9.628-13.963-6.905
		c-0.037,0.023-0.056,0.057-0.089,0.081c0.145-2.042,0.262-4.036,0.38-5.867c4.29-1.263,11.097,3.91,15.185,4.392
		c0.055,0.006,0.104,0.001,0.158,0.006c-0.543,0.517-0.761,1.399-0.084,1.975c4.176,3.56,7.577,7.502,11.045,11.611
		c-0.229,2.493-0.49,4.977-0.781,7.452C145.205,140.372,139.513,136.25,135.562,132.688z"/>
</g>
<g>
</g>
<g>
</g>
<g>
</g>
<g>
</g>
<g>
</g>
<g>
</g>
<g>
</g>
<g>
</g>
<g>
</g>
<g>
</g>
<g>
</g>
<g>
</g>
<g>
</g>
<g>
</g>
<g>
</g>
</svg>
