<?xml version="1.0" encoding="iso-8859-1"?>
<!-- Generator: Adobe Illustrator 16.0.0, SVG Export Plug-In . SVG Version: 6.00 Build 0)  -->
<!DOCTYPE svg PUBLIC "-//W3C//DTD SVG 1.1//EN" "http://www.w3.org/Graphics/SVG/1.1/DTD/svg11.dtd">
<svg version="1.1" id="Capa_1" xmlns="http://www.w3.org/2000/svg" xmlns:xlink="http://www.w3.org/1999/xlink" x="0px" y="0px"
	 width="193.922px" height="193.922px" viewBox="0 0 193.922 193.922" style="enable-background:new 0 0 193.922 193.922;"
	 xml:space="preserve">
<g>
	<g>
		<path d="M193.922,51.188c0.024-2.354-1.772-3.522-3.586-3.514c-4.459-9.988-19.965-12.209-29.643-13.377
			c-8.854-1.069-17.753-1.567-26.666-1.725c1.269-5.772,0.077-12.933,0.065-18.606c-0.005-2.071-1.651-3.503-3.627-3.627
			c-17.296-1.089-34.425,1.388-51.437,4.27c-1.53,0.259-2.506,1.917-2.547,3.345c-0.147,5.147-0.269,10.18,0.582,15.203
			c-23.685-1.394-64.332-4.315-70.799,12.955c-1.036,0.22-1.95,1.001-2.03,2.417C2.761,74.4,3.877,100.316,3.087,126.197
			c-0.395,12.977-7.135,33.196,0.637,45.121c8.077,12.394,21.813,12.677,35.445,12.499c25.62-0.334,51.031-1.045,76.641-2.253
			c17.284-0.816,33.997,1.427,51.215,1.646c8.416,0.107,20.281-0.596,22.829-10.521c3.546-13.814-0.534-27.815-1.051-41.741
			C187.809,104.204,193.636,77.886,193.922,51.188z M83.198,20.938c14.427-2.259,28.914-4.068,43.519-3.507
			c-0.271,4.934-0.835,10.452,0.172,15.094c-12.181,0.017-24.376,0.555-36.514,1.078c-2.008,0.087-4.743,0.007-7.992-0.152
			C82.263,29.246,82.833,25.117,83.198,20.938z M183.154,150.69c0.766,6.938,1.625,14.985-1.268,21.576
			c-2.188,4.981-14.418,3.501-18.559,3.462c-13.873-0.127-27.415-2.062-41.333-1.681c-20.52,0.563-40.95,2.58-61.487,2.796
			c-16.573,0.176-49.877,5.748-52.297-17.42c-1.458-13.957,2.292-28.431,2.269-42.462c-0.035-20.372,0.136-40.809-0.741-61.173
			c0.595-0.44,1.031-1.083,1.031-1.942c-0.013-22.434,63.943-11.677,79.606-12.329c16.078-0.67,32.145-1.252,48.24-0.866
			c8.234,0.198,43.763-0.644,45.108,11.866c0.196,1.823,1.375,2.989,2.76,3.478C185.221,87.923,179.612,118.546,183.154,150.69z"/>
		<path d="M9.496,51.205c0.021,0,0.021-0.034,0-0.034"/>
		<path d="M162.656,52.411c-2.093-1.131-4.852,0.267-4.817,2.765c0.122,9.057-1.046,19.118-2.41,28.16
			c-0.642,4.257-12.879,1.468-18.039,1.534c-9.007,0.113-18.015,0.969-26.98,1.765c-17.991,1.597-35.87,3.533-53.961,3.315
			c-10.322-0.124-21.473,2.135-21.53-10.54c-0.045-9.87,0.41-19.694-0.238-29.552c-0.221-3.356-4.869-3.301-5.17,0
			c-1.249,13.682-2.599,27.473-2.905,41.21c-0.039,1.758,1.287,3.642,3.055,4.012c16.595,3.472,33.22,3.561,49.869,2.583
			c-0.147,1.462-0.308,2.924-0.554,4.367c-0.409,2.388,1.003,4.761,3.636,4.771c9.336,0.041,18.64-0.017,27.916-1.198
			c2.197-0.28,3.782-1.567,3.901-3.901c0.066-1.304,0.244-2.601,0.405-3.896c0.069-0.558,0.339-2.037,0.503-3.044
			c14.338-1.161,28.688-1.916,43.047-0.792c1.816,0.142,3.661-1.391,4.081-3.107C164.284,83.415,171.189,57.021,162.656,52.411z
			 M107.002,95.466c-0.132,0.928-0.209,1.863-0.256,2.767c-6.932,0.771-13.903,0.952-20.874,1.002
			c-0.075-0.656-0.156-1.31-0.221-1.966C92.765,96.753,99.881,96.095,107.002,95.466z"/>
	</g>
</g>
<g>
</g>
<g>
</g>
<g>
</g>
<g>
</g>
<g>
</g>
<g>
</g>
<g>
</g>
<g>
</g>
<g>
</g>
<g>
</g>
<g>
</g>
<g>
</g>
<g>
</g>
<g>
</g>
<g>
</g>
</svg>
