<?xml version="1.0" encoding="iso-8859-1"?>
<!-- Generator: Adobe Illustrator 16.0.0, SVG Export Plug-In . SVG Version: 6.00 Build 0)  -->
<!DOCTYPE svg PUBLIC "-//W3C//DTD SVG 1.1//EN" "http://www.w3.org/Graphics/SVG/1.1/DTD/svg11.dtd">
<svg version="1.1" id="Capa_1" xmlns="http://www.w3.org/2000/svg" xmlns:xlink="http://www.w3.org/1999/xlink" x="0px" y="0px"
	 width="188.011px" height="188.011px" viewBox="0 0 188.011 188.011" style="enable-background:new 0 0 188.011 188.011;"
	 xml:space="preserve">
<g>
	<path d="M183.455,50.228c-0.119-0.121-0.256-0.227-0.376-0.346c-0.144-2.28-0.375-4.543-0.658-6.796
		c1.008-0.688,1.313-2.464,0.451-3.487c-0.367-0.435-0.771-0.846-1.168-1.262c-1.366-7.702-3.708-15.173-7.544-22.213
		c2.76-1.833,2.644-7.145-1.241-8.141c-34.754-8.906-72.091,2.067-107.614-3.356C53.704,2.855,20.385-6.396,14.081,7.65
		c-1.862-0.487-4.136,0.507-4.227,3.052c-1.175,33.095-1.294,66.212-2.863,99.3c-0.876,18.487-8.729,45.77,3.792,61.646
		c1.303,1.654,3.034,1.316,4.247,0.218c12.971,13.903,43.069,14.479,60.049,14.98c0.092,0.104,0.189,0.202,0.28,0.308
		c1.237,1.404,2.869,0.905,3.766-0.234c28.932,0.633,58.04-3.325,86.529-7.989c0.212,0.19,0.415,0.396,0.627,0.585
		c3.132,2.797,6.948-1.319,4.49-4.49c-0.118-0.152-0.247-0.301-0.366-0.453c1.259-0.625,2.286-1.834,2.502-3.708
		c3.238-28.057,6.058-56.372,8.754-84.508c1.006-10.504,1.917-21.269,1.629-31.849C184.336,53.381,184.724,51.509,183.455,50.228z
		 M169.584,16.651c1.079,4.529,1.852,9.141,2.434,13.797c-1.989-1.426-3.962-2.844-5.769-4.338
		c-3.948-3.266-7.75-6.711-11.762-9.896C159.53,16.222,164.567,16.313,169.584,16.651z M149.452,16.248
		c0.074,0.149,0.156,0.296,0.291,0.426c4.911,4.728,10.032,9.246,15.011,13.904c2.57,2.404,5.204,5.118,8.036,7.518
		c0.083,1.045,0.183,2.087,0.248,3.136c-3.803-2.966-7.686-5.848-11.322-8.904c-5.9-4.96-11.297-10.3-16.327-16.053
		C146.744,16.245,148.097,16.265,149.452,16.248z M15.946,164.688c-0.849-6.355-1.179-12.633-1.251-18.891
		c7.963,10.244,17.076,20.935,27.823,27.828C33.3,171.574,24.951,166.874,15.946,164.688z M51.841,175.189
		c-0.084-0.283-0.232-0.562-0.541-0.813c-6.92-5.607-14.297-10.392-20.845-16.507c-5.683-5.309-10.832-11.182-15.784-17.187
		c0.055-4.753,0.265-9.509,0.511-14.276c16.138,17.39,33.989,33.091,50.437,50.227C61.013,176.29,56.415,175.84,51.841,175.189z
		 M86.844,177.221c-4.449,0.097-8.897,0.021-13.341-0.146c-17.537-19.501-37.517-37.836-58.163-53.795
		c0.328-5.87,0.688-11.791,0.969-17.781c3.91,11.804,17.197,23.038,24.998,30.696c14.926,14.652,31.23,27.915,47.564,40.956
		C88.195,177.17,87.52,177.206,86.844,177.221z M94.155,176.974c0.736-1.019,0.847-2.361-0.446-3.366
		c-27.488-21.325-58.583-43.3-76.364-73.782c-0.178-0.305-0.48-0.427-0.796-0.473c0.189-4.991,0.293-9.993,0.412-14.992
		c24.614,31.673,50.98,70.942,85.949,92.091C99.991,176.627,97.079,176.857,94.155,176.974z M112.669,175.837
		c-36.659-27.825-66.27-60.093-95.6-95.425c0.117-5.767,0.189-11.537,0.22-17.307c37.83,34.935,68.273,78.158,107.231,111.627
		C120.574,175.14,116.625,175.517,112.669,175.837z M132.209,173.856C95.508,134.756,58.506,93.318,17.284,58.956
		c0.011-5.561-0.06-11.122-0.12-16.682C62.907,83.234,102.981,128.94,146.39,172.02
		C141.667,172.677,136.942,173.301,132.209,173.856z M154.197,170.865c-5.305-6.597-10.81-13.124-16.459-19.589
		c6.16,6.588,12.425,13.032,18.867,19.22C155.801,170.616,154.999,170.744,154.197,170.865z M163.954,166.578
		c-25.071-30.659-54.699-58.723-81.819-87.286C66.274,62.586,50.527,45.699,34.076,29.567c-2.268-2.224-12.044-14.94-16.356-12.891
		c-0.368,0.175-0.282,0.672,0,0.867c6.415,4.446,13.052,15.337,18.541,21.249C51.986,55.73,67.527,72.845,83.103,89.918
		c12.47,13.669,24.72,28.032,37.225,42.177C88.46,98.208,52.81,66.564,17.425,38.48c-0.093-0.074-0.192-0.101-0.289-0.15
		c-0.127-9.217-0.326-18.43-0.65-27.627c-0.007-0.195-0.086-0.335-0.118-0.512c3.987-0.561,8.092-0.688,12.242-0.61
		c17.813,24.72,38.444,47.53,59.428,69.556c22.999,24.143,46.279,50.161,72.062,71.321c1.487,1.221,3.144,0.83,4.07-0.214
		C163.833,155.723,163.69,161.179,163.954,166.578z M171.393,92.013c-0.988,10.312-2.683,20.873-4.222,31.492
		c-38.366-37.284-74.3-82.057-119.577-110.951c-1.75-1.117-3.137,1.518-1.582,2.707c44.257,33.82,75.357,81.453,119.339,115.05
		c0.27,0.206,0.545,0.297,0.818,0.389c-0.721,5.391-1.36,10.786-1.785,16.163c-0.09-0.146-0.131-0.295-0.248-0.438
		c-19.873-24.045-45.02-44.561-67.22-66.473C74.212,57.541,52.877,34.233,32.544,9.714c13.824,0.779,28.116,4.043,41.269,6.005
		c10.686,17.886,25.375,32.609,40.761,46.735c16.228,14.897,33.017,32.429,51.031,45.002c2.156,1.505,4.97-1.437,3.574-3.574
		c-10.839-16.607-31.394-28.996-46.484-41.569c-16.435-13.691-32.603-28.357-44.731-46.046c4.133,0.507,8.285,0.818,12.449,1.027
		c0.018,0.368,0.187,0.715,0.606,0.895c19.018,8.144,34.447,23.127,49.203,37.244c9.647,9.231,19.731,23.779,31.678,30.946
		C171.731,88.258,171.571,90.15,171.393,92.013z M172.628,77.25c-9.475-10.452-21.787-19.802-31.779-28.859
		c-13.232-11.992-27.841-24.404-44.728-30.932c7.866,0.19,15.774-0.009,23.693-0.295c9.881,8.862,19.645,17.859,29.43,26.828
		c7.353,6.74,15.194,16.088,24.031,21.49C173.116,69.421,172.908,73.351,172.628,77.25z M153.139,40.099
		c-9.164-7.809-18.347-15.576-27.707-23.139c4.982-0.2,9.967-0.388,14.948-0.545c8.812,12.465,20.876,23.966,33.029,33.588
		c0.041,2.152,0.104,4.303,0.086,6.458C167.087,50.602,159.425,45.456,153.139,40.099z"/>
</g>
<g>
</g>
<g>
</g>
<g>
</g>
<g>
</g>
<g>
</g>
<g>
</g>
<g>
</g>
<g>
</g>
<g>
</g>
<g>
</g>
<g>
</g>
<g>
</g>
<g>
</g>
<g>
</g>
<g>
</g>
</svg>
