<?xml version="1.0" encoding="iso-8859-1"?>
<!-- Generator: Adobe Illustrator 16.0.0, SVG Export Plug-In . SVG Version: 6.00 Build 0)  -->
<!DOCTYPE svg PUBLIC "-//W3C//DTD SVG 1.1//EN" "http://www.w3.org/Graphics/SVG/1.1/DTD/svg11.dtd">
<svg version="1.1" id="Capa_1" xmlns="http://www.w3.org/2000/svg" xmlns:xlink="http://www.w3.org/1999/xlink" x="0px" y="0px"
	 width="190.319px" height="190.319px" viewBox="0 0 190.319 190.319" style="enable-background:new 0 0 190.319 190.319;"
	 xml:space="preserve">
<g>
	<g>
		<path d="M188.248,159.439c-0.45,0.078-0.9,0.156-1.35,0.234c-0.556,0.096-0.823,0.555-0.915,1.053
			c-1.829,0.294-3.663,0.527-5.502,0.71c-25.152-3.379-55.545-2.315-81.935-2.318c-19.146-0.002-38.167,1.717-57.293,2.22
			c-2.096,0.055-15.154-2.113-25.472-2.906c-0.017-1.773-0.074-3.547-0.105-5.319c3.826,3.151,16.529,2.048,20.161,2.158
			c3.178,0.099,13.464,1.399,18.188-0.816c0.722,0.138,1.486-0.224,1.568-1.079c0.243-0.262,0.447-0.546,0.588-0.865
			c0.219-0.493,0.193-0.994-0.026-1.382c0.01-3.542,0.035-7.086,0.016-10.628c-0.008-1.494-1.774-2.198-2.87-1.661
			c-6.2-1.209-13.11-0.925-19.348-1.117c-6.464-0.199-12.643,0.065-18.624,2.113c-0.118-3.772-0.256-7.543-0.396-11.314
			c21.01,3.134,42.505,0.586,63.877-0.091c0.016,0.006,0.032,0.016,0.048,0.021c0.215,0.074,0.39,0.045,0.529-0.038
			c12.781-0.384,25.515-0.076,38.073,2.546c0.599,0.125,1.104-0.023,1.491-0.312c0.031,0.05,0.068,0.083,0.098,0.135
			c0.184,0.308,0.689,0.185,0.682-0.186c-0.012-0.491,0.38-1.37,0.658-1.741c0.429-0.567,0.303-1.684,0.314-2.334
			c0.036-1.988,0.203-3.968,0.312-5.953c0.07-1.258,0.154-4.211-1.097-5.211c0.584-0.765,0.627-1.978-0.415-2.479
			c-11.092-5.332-25.13-3.451-37.031-2.985c-22.588,0.884-45.198,0.091-67.794,0.649c-0.158,0.004-0.279,0.056-0.414,0.092
			c-0.113-3.111-0.217-6.222-0.311-9.332c0.008,0,0.011,0.007,0.018,0.006c15.006-0.929,30.078,1.139,45.015-0.153
			c6.907-0.598,14.299-1.578,21.384-0.99c0.375,0.224,0.734,0.481,1.128,0.662c0.434,0.198,0.876-0.06,1.046-0.416
			c2.033,0.271,4.041,0.658,5.988,1.283c0.288,0.093,0.557,0.023,0.816-0.059c0.659,2.035,3.94,1.031,3.542-1.247
			c-0.917-5.255-0.173-10.51,0.079-15.767c0.051-1.061-0.903-1.864-1.899-1.899c-13.787-0.48-27.591-0.281-41.388-0.072
			c-0.204-0.197-0.411-0.392-0.614-0.589c-0.493-0.474-1.135,0.08-0.978,0.612c-2.557,0.039-5.114,0.079-7.67,0.112
			c-6.264,0.081-20.689-2.724-26.024,0.645c-0.194,0.123-0.352,0.397-0.257,0.632c0.286,0.707,0.836,1.277,1.589,1.734
			c-0.107,0.124-0.163,0.283-0.034,0.473c2.462,3.621,5.565,7.975,9.249,11.037c-0.69,0.063-1.384,0.1-2.071,0.18
			c-1.436-1.686-3.46-2.997-5.049-4.56c-1.815-1.787-3.343-3.852-4.041-6.326c-0.028-0.097-0.093-0.133-0.146-0.192
			c-0.066-5.116-0.088-10.232-0.022-15.349c0.115,0.042,0.222,0.095,0.357,0.11c17.468,1.97,35.21,0.836,52.75,0.42
			c3.289-0.078,6.688-0.362,10.128-0.656c0.197,0.08,0.381,0.206,0.58,0.274c0.371,0.127,0.698-0.089,0.858-0.393
			c9.255-0.783,18.743-1.425,27.204,1.942c0.531,0.212,0.969,0.106,1.307-0.146c0.813,0.281,1.838,0.007,2.067-1.009
			c1.304-5.802,0.668-11.399-0.424-17.188c-0.156-0.824-1.025-1.359-1.81-1.377c-29.823-0.685-59.969-1.74-89.786-0.071
			c-0.407-0.373-0.769-0.795-1.191-1.151c-0.369-0.312-0.903,0.202-0.538,0.538c0.23,0.211,0.436,0.45,0.66,0.667
			c-0.514,0.03-1.03,0.045-1.545,0.077c0.236-4.258,0.524-8.516,0.932-12.775c1.959,0.078,3.917,0.18,5.88,0.186
			c1.213,0.004,2.114-1.191,1.796-2.357c-1.99-7.295-4.123-14.517-5.663-21.926c-0.313-1.507-2.73-1.897-3.396-0.444
			c-3.132,6.834-3.629,14.551-7.048,21.235c-0.834,1.631,0.606,2.9,1.962,2.621c0.72,0.453,1.55,0.523,2.572,0.564
			c0.348,0.014,0.696,0.018,1.044,0.033c-4.872,33.535-1.934,67.452-0.6,101.292c-0.106,0.231-0.099,0.48,0.029,0.716
			c0.207,5.327,0.375,10.65,0.461,15.972c-5.06-0.218-8.874,0.077-9.303,1.455c0.05-0.161-0.084-0.318-0.245-0.321
			c-0.464-0.009-0.928-0.017-1.392-0.025c-1.431-0.027-1.78,2.231-0.342,2.524c3.76,0.768,7.546,1.354,11.346,1.837
			c0.018,3.357,0.009,6.712-0.055,10.065c-0.043,2.271,3.477,2.268,3.521,0c0.063-3.218,0.085-6.436,0.085-9.651
			c29.991,3.182,60.997-1.184,90.916-1.188c17.363-0.002,34.853-0.799,52.147,0.917c1.594,0.158,3.284,0.367,5.007,0.581
			c0.157,0.214,0.39,0.386,0.746,0.431c4.516,0.577,9.029,0.736,13.53,0.513c0.223-0.01,0.443-0.027,0.665-0.042
			c2.986-0.177,5.968-0.486,8.937-1.072c0.971-0.191,1.353-0.893,1.333-1.629c0.132-0.072,0.277-0.109,0.407-0.185
			C191.195,161.441,189.996,159.136,188.248,159.439z M88.971,88.753c-0.086,1.786-0.174,3.463-0.211,5.114
			c-0.887-0.857-1.746-1.745-2.598-2.635c-1.777-1.858-3.563-3.695-5.573-5.297C84.695,85.948,89.083,86.457,88.971,88.753z
			 M73.824,86.204c0.611-0.005,2.805-0.2,5.337-0.255c-0.039,0.188-0.025,0.382,0.143,0.533c2.035,1.833,3.828,3.922,5.625,5.982
			c1.022,1.171,2.374,3.202,3.892,4.278c0.019,0.529-0.01,1.055,0.034,1.591c-0.786-0.489-1.643-0.873-2.542-1.192
			c-0.194-0.14-0.394-0.278-0.571-0.423c-1.787-1.446-3.472-3.015-5.179-4.554c-1.673-1.507-4.013-4.652-6.332-5.213
			c-0.652-0.158-0.895,0.774-0.274,0.993c0.745,0.262,1.71,1.81,2.268,2.363c1.53,1.518,3.037,3.061,4.599,4.547
			c0.407,0.386,0.874,0.868,1.369,1.376c-1.336-0.169-2.703-0.276-4.101-0.281c-1.317-1.109-2.633-2.222-3.904-3.393
			c-2.571-2.368-5.229-4.567-8.295-6.267C68.537,86.258,71.181,86.225,73.824,86.204z M65.376,86.294
			c-0.31,0.183-0.444,0.662-0.041,0.911c3.196,1.972,5.843,4.521,8.469,7.177c0.517,0.523,1.043,1.071,1.578,1.619
			c-0.755,0.035-1.508,0.081-2.253,0.137c-1.857-2.158-4.371-3.91-6.462-5.786c-1.456-1.306-2.877-2.65-4.267-4.026
			C63.392,86.315,64.384,86.306,65.376,86.294z M51.502,86.443c3.675,3.901,7.658,7.915,12.294,10.17
			c0.751,0.365,1.677-0.631,0.949-1.231c-2.473-2.035-5.169-3.769-7.62-5.848c-1.183-1.004-2.326-2.057-3.464-3.115
			c2.286-0.027,4.571-0.047,6.857-0.073c1.617,1.764,3.277,3.486,5.014,5.14c1.633,1.555,3.335,3.39,5.202,4.846
			c-1.94,0.18-3.781,0.377-5.399,0.487c-2.788,0.19-5.607,0.252-8.436,0.274c0.231-0.272,0.309-0.687,0.007-0.945
			c-2.309-1.979-4.978-3.539-7.316-5.519c-1.561-1.322-3.06-2.713-4.548-4.118C47.195,86.484,49.349,86.469,51.502,86.443z
			 M35.979,86.872c3.151,3.736,6.753,7.604,10.852,9.722c0.754,0.39,1.556-0.568,0.922-1.195c-2.142-2.119-4.729-3.812-6.957-5.863
			c-0.985-0.907-1.925-1.862-2.857-2.823c0.998-0.079,1.885-0.142,2.48-0.15c1.013-0.014,2.027-0.019,3.04-0.033
			c1.683,1.728,3.351,3.471,5.12,5.112c2.101,1.948,4.526,4.289,7.211,5.46c-4.858,0.013-9.751-0.113-14.641-0.182
			c-3.964-3.117-7.814-6.252-11.562-9.591C31.878,87.215,34.093,87.031,35.979,86.872z M28.09,87.385
			c3.188,3.417,6.574,6.91,10.453,9.523c-1.383-0.009-2.769-0.035-4.149-0.019c-1.921-2.264-4.297-4.241-6.44-6.273
			c-1.12-1.061-2.236-2.126-3.356-3.188C25.744,87.449,26.918,87.425,28.09,87.385z M23.058,93.441
			c-2.251-2.171-4.204-4.6-6.111-7.069c1.631,0.618,3.804,0.909,6.168,1.024c1.311,1.376,2.626,2.748,3.927,4.134
			c1.667,1.775,3.306,3.72,5.101,5.425c-1.558,0.042-3.126,0.031-4.673,0.132C25.952,95.945,24.453,94.787,23.058,93.441z
			 M105.572,68.748c-1.899-2.547-4.479-4.733-6.691-6.984c-1.842-1.873-3.734-3.693-5.66-5.479
			C99.895,57.668,104.903,61.08,105.572,68.748z M90.196,55.809c2.199,2.125,4.337,4.308,6.445,6.527
			c1.538,1.618,3.037,3.436,4.638,5.113c-1.07-0.307-2.153-0.588-3.285-0.766c0.28-0.381,0.207-1.014-0.357-1.181
			c-0.64-0.189-1.445-1.031-2.004-1.41c-1.51-1.024-2.936-2.172-4.355-3.317c-2.151-1.735-4.241-3.533-6.325-5.344
			C86.756,55.468,88.499,55.609,90.196,55.809z M82.833,55.415c2.484,2.756,5.34,5.236,8.191,7.601
			c1.214,1.008,2.78,2.595,4.444,3.419c-1.997-0.171-4.027-0.251-6.08-0.192c-1.484-1.735-3.383-3.148-5.143-4.569
			c-2.53-2.041-5.105-4.026-7.633-6.071C78.675,55.498,80.765,55.426,82.833,55.415z M74.818,55.702
			c0.014,0.141,0.05,0.285,0.194,0.412c2.367,2.094,4.813,4.089,7.24,6.112c1.568,1.306,3.055,2.784,4.626,4.129
			c-1.322,0.076-2.638,0.168-3.93,0.278c-1.742-1.282-3.622-2.442-5.268-3.79c-2.582-2.113-4.976-4.454-7.265-6.883
			C71.842,55.878,73.322,55.788,74.818,55.702z M63.538,56.2c1.577,0.01,3.311-0.057,5.117-0.148
			c0.01,0.013,0.002,0.028,0.013,0.041c2.371,2.878,4.984,5.514,7.753,8.009c0.987,0.89,2.082,1.887,3.233,2.82
			c-1.675,0.153-3.309,0.299-4.823,0.393c-2.041-1.528-4.111-3.029-6.031-4.722c-2.383-2.102-4.697-4.277-7.054-6.406
			C62.342,56.191,62.94,56.197,63.538,56.2z M59.507,56.172c3.024,2.802,5.932,5.727,8.953,8.533
			c0.961,0.893,1.993,1.842,3.061,2.762c-0.747,0.03-1.494,0.065-2.24,0.102c-2.463-2.245-5.414-3.974-7.882-6.279
			c-1.774-1.657-3.466-3.4-5.16-5.141C57.329,56.157,58.418,56.164,59.507,56.172z M37.505,56.008
			c3.011,3.199,5.793,6.616,9.027,9.599c1.248,1.151,5.169,4.088,5.545,0.621c0.081-0.744-0.987-0.769-1.216-0.165
			c-0.421,1.114-6.078-4.276-6.648-4.838c-1.712-1.688-3.336-3.461-4.999-5.196c2.498,0.029,4.997,0.033,7.495,0.053
			c2.046,2.341,4.059,4.711,6.192,6.973c1.392,1.476,4.102,4.763,6.508,3.792c0.688-0.277,0.561-1.172-0.171-1.26
			c-2.542-0.305-5.121-3.52-6.796-5.201c-1.398-1.402-2.746-2.854-4.106-4.293c2.08,0.015,4.159,0.029,6.238,0.044
			c1.902,2.088,3.783,4.197,5.74,6.236c1.695,1.765,3.721,3.893,5.964,5.332c-7.294,0.315-14.602,0.532-21.92,0.623
			c-0.003-0.157-0.06-0.321-0.191-0.469c-2.345-2.637-5.437-4.753-7.999-7.209c-1.626-1.56-3.234-3.139-4.84-4.719
			C33.388,55.978,35.447,55.98,37.505,56.008z M29.662,55.89c1.799,1.957,3.595,3.918,5.432,5.837
			c2.178,2.275,4.549,4.949,7.299,6.633c-1.791,0.018-3.58,0.076-5.37,0.083c-0.436-0.396-0.909-0.769-1.339-1.163
			c-1.513-1.383-2.956-2.844-4.435-4.264c-2.506-2.407-4.999-5.06-7.915-6.979c-0.368-0.242-0.679,0.329-0.339,0.58
			c4.106,3.025,7.298,7.353,10.789,11.03c0.077,0.081,0.401,0.414,0.836,0.824c-1.058,0.002-2.118,0.039-3.176,0.036
			c0.071-0.3-0.151-0.677-0.499-0.678c-0.564-0.002-2.084-2.005-2.455-2.388c-1.479-1.53-2.876-3.141-4.284-4.736
			c-1.535-1.739-3.089-3.476-4.694-5.161C22.896,55.699,26.278,55.805,29.662,55.89z M14.107,55.302
			c1.353,0.082,2.706,0.114,4.059,0.181c2.461,2.744,4.702,5.724,7.038,8.533c0.727,0.875,2.418,3.463,4.107,4.483
			c-1.671-0.009-3.343,0.002-5.013-0.017c-1.275-1.445-2.901-2.696-4.165-4.127c-2.106-2.385-3.935-5.143-4.982-8.161
			c-0.206-0.593-1.127-0.355-0.949,0.262c0.86,2.99,2.454,5.592,4.311,8.066c0.909,1.212,2.033,2.706,3.289,3.937
			c-1.021-0.014-2.045-0.01-3.065-0.028c-0.863-0.938-1.774-1.841-2.629-2.749c-0.746-0.792-1.522-1.555-2.277-2.338
			C13.915,60.663,13.975,57.983,14.107,55.302z M13.773,65.036c0.456,0.537,0.935,1.054,1.388,1.593
			c0.482,0.573,0.969,1.178,1.463,1.771c-0.883-0.018-1.771-0.016-2.654-0.038c-0.12-0.003-0.21,0.034-0.313,0.052
			C13.678,67.288,13.743,66.162,13.773,65.036z M13.892,99.049c-0.088-3.102-0.134-6.204-0.189-9.306
			c0.571,1.12,1.307,2.163,2.111,3.166c1.304,1.627,3.015,3.498,4.841,4.821C18.38,98.06,16.121,98.478,13.892,99.049z
			 M117.466,115.755c-0.249,0.409-0.354,0.921-0.393,1.407c-0.121,1.54,0.2,3.237,0.112,4.826c-0.035,0.634-0.07,1.269-0.103,1.902
			c-0.507-0.519-1.095-0.994-1.499-1.415c-1.467-1.529-2.915-3.079-4.373-4.618c-0.969-1.024-2.279-2.817-3.709-4.039
			C110.864,114.191,114.196,114.775,117.466,115.755z M105.573,113.609c0.479,0.53,1.047,1.463,1.316,1.767
			c1.2,1.348,2.368,2.726,3.549,4.091c1.261,1.458,2.515,2.921,3.78,4.374c0.737,0.845,1.635,2.376,2.801,2.611
			c0.007,0.002,0.014-0.002,0.021-0.001c0.004,0.227-0.012,0.454-0.002,0.68c-1.304-0.279-2.613-0.513-3.923-0.734
			c-0.795-0.656-1.664-1.238-2.47-1.892c-1.647-1.332-3.111-2.891-4.526-4.461c-1.88-2.084-3.54-4.373-5.116-6.714
			C102.532,113.382,104.055,113.479,105.573,113.609z M99.315,113.252c1.669,2.801,3.472,5.508,5.539,8.056
			c1.028,1.269,2.414,3.016,3.982,4.461c-0.33-0.042-0.659-0.099-0.989-0.138c-2.46-1.555-4.969-2.896-7.299-4.78
			c-2.908-2.351-5.541-5.013-8.268-7.563C94.631,113.217,96.977,113.208,99.315,113.252z M91.326,113.318
			c-0.143,0.204-0.191,0.478,0.034,0.719c2.835,3.032,5.805,5.952,8.955,8.657c0.973,0.836,2.059,1.744,3.197,2.58
			c-1.581-0.131-3.156-0.311-4.741-0.391c-2.081-2.123-4.579-4.003-6.753-5.935c-2.119-1.883-4.313-3.671-6.563-5.389
			C87.41,113.465,89.368,113.383,91.326,113.318z M83.23,113.667c2.525,2.159,4.987,4.388,7.421,6.65
			c1.501,1.395,2.986,2.976,4.549,4.44c-1.103-0.033-2.206-0.082-3.31-0.097c-2.297-2.12-4.919-4.012-7.25-6.025
			c-1.87-1.616-3.763-3.209-5.682-4.768C80.378,113.807,81.803,113.737,83.23,113.667z M73.489,114.039
			c1.006-0.018,2.021-0.062,3.032-0.095c2.292,1.975,4.58,3.952,6.832,5.979c1.685,1.517,3.38,3.194,5.164,4.729
			c-1.124,0-2.246-0.022-3.37-0.011c-2.243-2.015-4.837-3.698-7.17-5.605c-2.001-1.636-3.953-3.328-5.929-4.991
			C72.528,114.039,73.009,114.046,73.489,114.039z M70.466,114.05c2.135,2.031,4.27,4.062,6.447,6.048
			c1.696,1.547,3.518,3.248,5.504,4.582c-2.109,0.038-4.218,0.084-6.326,0.141c-2.438-1.689-4.882-3.365-7.191-5.29
			c-2.184-1.821-4.344-3.66-6.547-5.448C65.058,114.082,67.762,114.069,70.466,114.05z M60.613,114.089
			c3.749,3.474,7.584,7.689,11.849,10.828c-0.698,0.019-1.396,0.038-2.093,0.056c-0.622,0.017-1.255,0.008-1.88,0.018
			c-2.21-1.797-4.594-3.409-6.755-5.29c-2.197-1.913-4.4-3.799-6.688-5.589C56.903,114.114,58.757,114.088,60.613,114.089z
			 M53.635,114.118c2.737,2.333,5.348,4.812,7.983,7.258c1.262,1.171,2.608,2.502,4.057,3.641c-1.535,0.01-3.064,0.033-4.599,0.041
			c-4.425-3.907-9.354-7.432-14.177-10.913C49.146,114.156,51.389,114.114,53.635,114.118z M45.124,114.135
			c4.477,3.619,8.778,7.646,13.492,10.944c-1.766,0.006-3.517,0.047-5.286,0.048c-2.166-2.185-4.908-4.02-7.305-5.895
			c-2.457-1.923-5.014-3.672-7.768-5.129C40.545,114.125,42.834,114.122,45.124,114.135z M36.725,114.092
			c-0.131,0.278-0.107,0.622,0.248,0.815c3.176,1.724,5.994,3.898,8.768,6.205c1.545,1.283,3.067,2.753,4.699,4.018
			c-1.13,0.001-2.258,0.001-3.389,0.005c0.056-0.167,0.094-0.352,0.004-0.518c-0.601-1.108-2.176-1.766-3.182-2.465
			c-1.78-1.239-3.526-2.527-5.274-3.812c-1.863-1.368-3.828-3.095-5.937-4.275C34.016,114.083,35.371,114.079,36.725,114.092z
			 M30.906,114.05c2.5,1.917,4.909,3.967,7.398,5.901c1.569,1.22,3.145,2.433,4.739,3.621c0.646,0.481,1.375,1.139,2.159,1.568
			c-1.562,0.01-3.124-0.007-4.685,0.019c-2.073-2.59-5.189-4.629-7.749-6.73c-1.851-1.519-3.764-2.957-5.665-4.413
			C28.37,114.038,29.638,114.034,30.906,114.05z M25.176,113.997c2.226,1.777,4.438,3.57,6.602,5.424
			c2.169,1.858,4.282,4.108,6.649,5.794c-1.876,0.041-3.753,0.064-5.624,0.145c-1.824-1.962-4.218-3.663-6.124-5.525
			c-2.12-2.071-4.283-4.089-6.632-5.894C21.755,113.974,23.467,113.967,25.176,113.997z M18.623,113.92
			c0.026,0.034,0.025,0.077,0.063,0.106c2.847,2.158,5.306,4.752,7.798,7.3c1.24,1.268,2.619,2.902,4.158,4.125
			c-0.971,0.052-1.948,0.058-2.917,0.124c-1.709-1.9-3.862-3.506-5.744-5.175c-2.306-2.046-4.451-4.209-6.467-6.52
			C16.548,113.906,17.587,113.899,18.623,113.92z M14.395,114.235c1.75,2.348,3.797,4.474,5.895,6.507
			c1.684,1.632,3.373,3.428,5.17,5.026c-1.133,0.094-2.267,0.171-3.396,0.29c-1.173-1.554-2.78-2.757-4.16-4.127
			c-1.126-1.118-2.227-2.259-3.346-3.384C14.503,117.11,14.448,115.671,14.395,114.235z M14.618,120.129
			c1.834,2.248,3.772,4.668,6.139,6.088c-1.966,0.227-3.928,0.474-5.879,0.792C14.792,124.715,14.706,122.422,14.618,120.129z
			 M52.212,142.29c-0.239,2.334-0.227,4.652,0.018,6.961c-1.346-1.631-3.206-2.956-4.818-4.262c-1.217-0.986-2.477-1.917-3.728-2.86
			C46.549,142.372,49.431,142.553,52.212,142.29z M41.543,141.945c1.595,1.375,3.197,2.741,4.769,4.145
			c1.695,1.512,3.238,3.393,5.092,4.709c-0.661,0.116-1.324,0.234-1.978,0.341c-1.892-1.614-4.031-2.963-6.049-4.399
			c-2.197-1.565-4.261-3.283-6.23-5.113C38.586,141.689,40.061,141.812,41.543,141.945z M35.5,141.58
			c1.903,2.043,3.94,3.927,6.141,5.676c1.722,1.368,3.469,2.833,5.301,4.125c-1.629,0.104-3.259,0.182-4.894,0.19
			c-0.007-0.012,0-0.025-0.008-0.036c-1.688-2.271-4.171-4.043-6.317-5.87c-1.777-1.512-3.654-2.876-5.621-4.112
			C31.904,141.519,33.703,141.541,35.5,141.58z M29.349,141.58c2.04,1.42,3.989,2.942,5.83,4.628
			c1.825,1.671,3.363,3.711,5.224,5.341c-1.356-0.011-2.712-0.019-4.065-0.054c-0.019-0.025-0.014-0.058-0.038-0.079
			c-1.952-1.812-4.466-3.088-6.573-4.745c-2.02-1.589-3.957-3.281-5.971-4.879C25.619,141.686,27.484,141.623,29.349,141.58z
			 M22.708,141.853c-0.03,0.13-0.014,0.268,0.125,0.393c2.206,1.98,4.382,3.995,6.643,5.912c1.32,1.119,2.748,2.363,4.298,3.274
			c-1.05-0.044-2.561-0.248-4.306-0.491c-1.366-1.398-2.994-2.613-4.433-3.885c-1.919-1.694-3.858-3.36-5.825-4.997
			C20.373,141.949,21.542,141.929,22.708,141.853z M17.898,142.198c1.871,1.675,3.709,3.384,5.531,5.111
			c1.091,1.034,2.197,2.203,3.37,3.272c-1.5-0.192-3.052-0.365-4.538-0.448c-2.385-2.395-4.606-4.835-6.368-7.728
			C16.559,142.319,17.23,142.27,17.898,142.198z M15.442,143.97c1.265,2.243,2.88,4.289,4.689,6.131
			c-1.828,0.03-3.44,0.253-4.497,0.867C15.586,148.635,15.512,146.302,15.442,143.97z"/>
	</g>
</g>
<g>
</g>
<g>
</g>
<g>
</g>
<g>
</g>
<g>
</g>
<g>
</g>
<g>
</g>
<g>
</g>
<g>
</g>
<g>
</g>
<g>
</g>
<g>
</g>
<g>
</g>
<g>
</g>
<g>
</g>
</svg>
