<?xml version="1.0" encoding="iso-8859-1"?>
<!-- Generator: Adobe Illustrator 16.0.0, SVG Export Plug-In . SVG Version: 6.00 Build 0)  -->
<!DOCTYPE svg PUBLIC "-//W3C//DTD SVG 1.1//EN" "http://www.w3.org/Graphics/SVG/1.1/DTD/svg11.dtd">
<svg version="1.1" id="Capa_1" xmlns="http://www.w3.org/2000/svg" xmlns:xlink="http://www.w3.org/1999/xlink" x="0px" y="0px"
	 width="194.729px" height="194.729px" viewBox="0 0 194.729 194.729" style="enable-background:new 0 0 194.729 194.729;"
	 xml:space="preserve">
<g>
	<g>
		<path d="M192.712,29.075c-0.059-0.44-0.283-0.82-0.584-1.125c0.343-0.874-0.026-2.006-1.291-2.1
			c-30.531-2.257-61.836,1.066-92.529-0.097c-30.751-1.166-66.112,5.618-95.692-3.677c-1.034-0.325-1.637,0.555-1.536,1.378
			c-0.505,0.528-0.764,1.311-0.388,2.145c2.636,5.84,1.323,12.934,1.437,19.173c-1.051,0.142-1.217,1.718-0.135,2.024
			c0.958,0.271,1.916,0.542,2.874,0.813c0.574,0.162,0.794-0.578,0.377-0.895c8.016,6.097,28.05,2.676,37.316,2.666
			c16.304-0.019,32.621-1.157,48.889-2.12c16.311-0.965,32.601-1.794,48.938-2.039c16.366-0.246,32.929,3.394,49.086,2.999
			c1.601-0.039,2.05-1.729,1.396-2.755c1.225-2.067,1.374-5.003,1.572-7.302C192.696,35.265,193.093,31.974,192.712,29.075z
			 M99.62,42.931c-31.663,1.794-62.793,2.444-94.454,1.821C5.507,38.306,6.53,31.599,4.45,25.398
			c27.015,9.159,57.657,1.978,85.653,3.609c32.619,1.9,66.243,2.357,98.884,0.052c-0.371,3.242-0.146,6.612-0.377,9.872
			c-0.059,0.828-0.809,3.761-0.744,5.711C158.232,43.848,129.531,41.236,99.62,42.931z"/>
		<path d="M193.784,64.215c0.112-1.62,0.577-3.643-0.174-5.152c0.67-1.042,0.216-2.806-1.411-2.82
			c-31.751-0.283-63.433-2.046-95.177-0.455c-30.991,1.554-61.598,3.856-92.364-1.71c-0.228-0.041-0.388,0.064-0.575,0.117
			c-1.086-0.219-2.369,0.36-2.371,1.793c-0.009,6.169-0.937,12.68,0.353,18.767c-1.11,0.3-1.077,1.983,0.212,2.046
			c62.956,3.104,126.172-4.077,189.242-1.962c1.495,0.05,2.035-1.376,1.643-2.466c0.002-0.018,0.012-0.03,0.013-0.049
			C193.333,69.619,193.597,66.919,193.784,64.215z M48.229,68.144c-0.915-1.216-2.252-2.342-3.064-3.247
			c-1.063-1.184-2.14-2.361-3.202-3.551c2.237,0.091,4.475,0.169,6.719,0.179C48.661,63.733,48.478,65.942,48.229,68.144z
			 M5.009,74.507c0.008-0.058,0.062-0.087,0.062-0.148c0.022-1.535,0.079-3.069,0.123-4.604c0.975,1.605,2.031,3.157,3.248,4.575
			C7.302,74.393,6.147,74.443,5.009,74.507z M12.15,74.139c-2.763-2.409-4.841-5.23-6.85-8.317c0.02-0.608,0.029-1.217,0.049-1.826
			c1.281,2.183,2.883,4.203,4.445,6.16c0.635,0.796,1.859,2.625,3.218,3.938C12.725,74.11,12.437,74.123,12.15,74.139z
			 M16.883,73.895c-0.014-0.037,0.011-0.069-0.006-0.105c-0.45-0.973-1.61-1.693-2.352-2.425c-1.408-1.389-2.705-2.894-3.976-4.407
			C9.249,65.41,8,63.822,6.813,62.186c-0.381-0.525-0.668-1.261-1.124-1.716c-0.066-0.066-0.166-0.058-0.243-0.101
			c0.031-1.165,0.077-2.33,0.095-3.496c0.934,0.229,1.879,0.367,2.816,0.575c0.01,0.101-0.017,0.2,0.041,0.3
			c2.173,3.711,4.928,7.139,7.532,10.552c0.949,1.243,2.428,3.984,4.106,5.432C18.987,73.79,17.932,73.839,16.883,73.895z
			 M22.992,73.581c-0.112-2.306-3.864-5.038-5.234-6.689c-2.453-2.955-4.75-6.052-7.215-8.997c1.626,0.336,3.262,0.573,4.894,0.855
			c-0.354,0.266-0.525,0.775-0.144,1.24c3.056,3.737,5.735,7.759,8.695,11.571c0.271,0.349,0.849,1.106,1.544,1.89
			C24.686,73.496,23.837,73.535,22.992,73.581z M29.346,73.254c-0.058-0.043-0.171-0.115-0.427-0.282
			c-0.615-0.403-1.122-0.96-1.631-1.484c-1.285-1.321-2.45-2.764-3.617-4.188c-2.258-2.757-4.339-5.946-7.01-8.336
			c2.099,0.347,4.205,0.626,6.312,0.898c-0.077,0.145-0.135,0.312-0.032,0.465c1.785,2.638,3.756,5.328,5.601,7.991
			c1.108,1.6,2.204,3.208,3.314,4.807C31.021,73.169,30.182,73.209,29.346,73.254z M35.142,72.955
			c-0.353-0.421-0.731-0.826-1.021-1.205c-1.333-1.741-2.642-3.501-3.969-5.247c-1.491-1.961-3.286-5.04-5.555-6.411
			c1.903,0.228,3.818,0.336,5.728,0.506c0.003,0.004,0.001,0.008,0.004,0.011c2.597,3.087,4.844,6.532,7.18,9.82
			c0.465,0.655,0.98,1.487,1.531,2.324C37.741,72.823,36.44,72.886,35.142,72.955z M42.718,72.565
			c-3.227-4.005-6.325-8.171-10.027-11.757c2.123,0.165,4.25,0.288,6.378,0.403c1.125,1.488,2.29,2.95,3.434,4.414
			c0.985,1.261,1.946,2.539,2.886,3.834c0.655,0.905,1.034,1.739,2.15,2.082c0.082,0.025,0.163,0.003,0.246,0.01
			c-0.039,0.251-0.058,0.507-0.099,0.758C46.024,72.385,44.373,72.479,42.718,72.565z M190.046,63.61
			c-0.147,2.497-0.241,5-0.189,7.502c-45.696-2.059-92.059-1.06-138.078,1.003c0.073-0.161,0.205-0.262,0.219-0.472
			c0.066-0.985,0.07-1.985,0.089-2.982c0.261-2.398,0.411-4.81,0.436-7.168c12.546-0.095,25.124-0.86,37.602-1.555
			c33.451-1.863,66.789-0.282,100.249-0.137C190.022,61.001,190.117,62.418,190.046,63.61z"/>
		<path d="M193.367,90.704c0.043-0.418-0.061-0.733-0.217-1.001c-0.134-0.741-0.661-1.406-1.632-1.428
			C128.476,86.823,65.91,88.514,2.957,83.798c-0.981-0.074-1.499,0.882-1.412,1.714c-0.003,0.014-0.017,0.018-0.019,0.033
			c-0.451,2.823,0.249,5.689,0.444,8.539c0.248,3.632,0.173,7.3,0.588,10.916c0.044,0.388,0.226,0.642,0.455,0.812
			c3.599,9.781,49.571,4.617,55.262,4.291c8.621-0.496,17.142-0.989,25.683-1.328c0.075,0.101,0.158,0.193,0.233,0.291
			c0.758,1.018,2.22,0.552,2.443-0.385c5.424-0.19,10.858-0.328,16.343-0.306c13.468,0.052,26.936,0.204,40.403,0.334
			c8.03,0.078,16.062,0.147,24.093,0.208c2.672,0.016,5.345,0.032,8.017,0.049c3.651,0.809,7.028,0.491,10.169-0.793
			c1.508,0.559,3.03,0.721,4.62,0.586c0.18,0.062,0.335,0.154,0.556,0.164c0.228,0.01,0.454,0.021,0.682,0.03
			c2.023,0.091,2.36-2.521,1.046-3.464C192.665,100.548,192.859,95.625,193.367,90.704z M99.193,96.982
			c-0.696-0.631-1.418-1.219-1.938-1.706c-1.001-0.939-2.024-1.864-3.076-2.754c1.823,0.024,3.645,0.062,5.471,0.053
			C99.567,94.048,99.378,95.515,99.193,96.982z M4.766,104.653c0.243-1.814,0.587-3.948,0.845-6.169
			c0.918,1.983,2.244,3.856,3.488,5.478c0.601,0.782,1.266,1.537,1.979,2.238C8.94,105.769,6.825,105.275,4.766,104.653z
			 M15.433,106.956c0.433-0.759,0-1.773-0.924-1.723c-0.162-0.163-0.349-0.316-0.493-0.405c-0.468-0.288-0.866-0.629-1.27-1.001
			c-1.253-1.152-2.32-2.512-3.342-3.867c-0.882-1.17-1.683-2.401-2.418-3.668c-0.262-0.451-0.536-0.928-0.721-1.418
			c-0.071-0.187-0.186-0.325-0.34-0.443c0-0.012,0.001-0.023,0.001-0.035c0.163-0.159,0.15-0.402,0.024-0.561
			c0.048-2.433-0.155-4.797-0.872-6.804c0.418,0.064,0.838,0.11,1.255,0.173c-0.048,3.073,2.091,6.185,3.76,8.575
			c2.842,4.067,6.297,7.784,9.837,11.251c0.37,0.363,0.921,0.523,1.426,0.377c0.594-0.172,0.854-0.428,1.023-1.023
			c0.143-0.502-0.01-1.059-0.377-1.426c-4.715-4.712-12.282-10.589-14.15-17.543c2.353,0.344,4.716,0.63,7.075,0.932
			c-0.091,0.071-0.158,0.17-0.155,0.316c0.104,4.154,4.9,9.568,7.392,13.01c0.648,0.893,3.167,4.586,5.491,6.25
			C23.519,107.802,19.418,107.536,15.433,106.956z M30.962,108.007c0.133-0.184,0.26-0.387,0.37-0.648
			c0.551-1.312-1.462-1.959-2.173-0.916c0.535-0.784,0.807-0.151-0.316-1.081c-0.8-0.663-1.506-1.444-2.205-2.209
			c-1.762-1.929-3.355-4.017-4.911-6.111c-1.398-1.881-2.739-3.808-4.041-5.757c-0.454-0.679-1.905-2.206-2.057-2.738
			c-0.016-0.056-0.061-0.079-0.092-0.12c1.985,0.251,3.978,0.459,5.968,0.682c-0.078,0.154-0.107,0.332-0.005,0.536
			c2.055,4.097,4.48,8.021,7.012,11.837c1.144,1.726,3.076,5.494,5.397,6.445C32.929,107.94,31.94,108.011,30.962,108.007z
			 M52.416,106.915c-1.886-2.885-4.499-5.488-6.661-8.124c-2.227-2.715-4.33-5.793-7.176-7.788
			c-0.376-0.264-0.819,0.241-0.606,0.606c1.859,3.181,4.064,6.207,6.337,9.214c1.417,1.876,2.888,4.363,4.612,6.357
			c-4.42,0.324-8.861,0.602-13.294,0.703c0.393-0.332,0.563-0.91,0.284-1.402c-0.53-0.936-1.395-1.539-2.144-2.291
			c-1.6-1.605-2.982-3.467-4.346-5.27c-2.373-3.135-4.582-6.397-6.746-9.678c2.319,0.255,4.654,0.406,6.978,0.626
			c1.732,3.385,3.769,6.623,5.893,9.772c1.42,2.106,3.27,5.812,5.937,6.363c1.036,0.213,1.715-0.945,1.013-1.74
			c-1.86-2.108-3.921-4.031-5.639-6.333c-1.903-2.551-3.629-5.226-5.358-7.897c4.922,0.447,9.858,0.797,14.799,1.114
			c-0.082,0.229-0.085,0.476,0.095,0.712c2.27,2.971,4.578,5.909,6.904,8.835c1.364,1.717,2.806,4.295,4.692,5.742
			C56.129,106.599,54.296,106.763,52.416,106.915z M60.341,106.235c-0.006-0.039,0.012-0.08,0-0.118
			c-0.834-2.513-3.312-4.479-5.001-6.494c-2.326-2.775-4.654-5.547-6.982-8.32c2.529,0.153,5.064,0.261,7.597,0.383
			c1.805,3.238,3.812,6.366,5.949,9.39c0.844,1.194,2.032,3.276,3.455,4.728C63.693,105.946,62.03,106.087,60.341,106.235z
			 M68.973,105.507c-1.469-2.231-3.919-4.136-5.544-6.283c-1.812-2.394-3.49-4.893-5.12-7.418c1.572,0.07,3.151,0.086,4.724,0.146
			c2.814,2.745,5.078,6.022,7.365,9.202c0.762,1.061,1.702,2.689,2.814,4.029C71.812,105.285,70.402,105.392,68.973,105.507z
			 M76.896,104.956c-0.451-0.604-1.033-1.123-1.544-1.688c-1.436-1.588-2.726-3.313-4.049-4.992
			c-1.697-2.153-3.439-4.385-5.493-6.239c1.624,0.056,3.251,0.077,4.875,0.125c3.251,4.301,6.717,8.431,10.097,12.634
			C79.489,104.865,78.188,104.875,76.896,104.956z M84.272,104.65c-3.305-4.478-7.331-8.579-11.298-12.429
			c1.947,0.053,3.896,0.081,5.845,0.124c1.657,2.098,3.281,4.245,5.034,6.273c1.584,1.833,3.204,3.639,4.922,5.348
			c0.148,0.148,0.312,0.315,0.471,0.479C87.59,104.522,85.93,104.571,84.272,104.65z M92.922,104.291
			c-0.507-1.063-1.887-1.862-2.687-2.597c-1.641-1.508-3.178-3.131-4.706-4.75c-1.438-1.522-2.86-3.051-4.311-4.548
			c1.981,0.039,3.967,0.029,5.95,0.058c1.833,2.722,3.791,5.385,5.763,8.002c0.654,0.868,1.654,2.456,2.802,3.721
			C94.795,104.218,93.858,104.253,92.922,104.291z M98.112,102.737c-1.287-1.064-2.37-2.355-3.439-3.628
			c-1.82-2.165-3.498-4.489-5.356-6.636c0.775,0.01,1.551,0.011,2.326,0.023c1.266,1.192,2.544,2.369,3.723,3.652
			c0.783,0.852,1.531,1.734,2.267,2.626c0.424,0.515,0.79,1.062,1.208,1.551c-0.104,0.917-0.236,1.834-0.29,2.753
			C98.408,102.97,98.265,102.863,98.112,102.737z M189.133,105.099c-28.494-0.297-57.299-1.609-85.908-1.162
			c0.201-3.785,0.334-7.593,0.35-11.386c28.785-0.2,57.592-1.157,85.995-0.795C189.083,96.188,189.07,100.644,189.133,105.099z"/>
		<path d="M191.004,132.405c-0.128,0.031-0.26,0.042-0.387,0.072c0.114-2.551,0.116-5.121,0.206-7.67
			c0.068-1.939,0.998-4.567,0.054-6.332c-0.107-0.205-0.289-0.369-0.496-0.508c-0.021-0.787-0.556-1.588-1.586-1.682
			c-1.826-0.164-3.616-0.625-5.446-0.727c-0.776-0.043-1.326,0.517-1.553,1.179c-7.413-1.394-18.857-0.511-23.293-0.644
			c-22.132-0.668-44.316,0.582-66.469,0.17c-20.743-0.385-41.456,1.475-62.143,1.084c-5.996-0.113-17.455-2.988-24.081-0.68
			c-0.038-0.074-0.051-0.16-0.09-0.234c-0.826-1.529-2.895-0.686-3.026,0.818c-0.236,2.719,0.181,5.545,0.039,8.307
			c-0.174,3.367-0.506,6.695-0.292,10.074c0.022,0.351,0.171,0.592,0.353,0.783c-0.388,0.631-0.136,1.625,0.843,1.665
			c36.177,1.493,72.199-0.762,108.335-2.133c16.775-0.638,33.547-0.946,50.324-0.213c9.887,0.433,19.987,3.007,29.735,0.399
			C194.442,135.492,193.422,131.787,191.004,132.405z M142.64,119.907c-0.135,1.357,0.047,2.848,0.104,4.062
			c0.117,2.453,0.188,4.932,0.494,7.369c-0.058,0-0.116,0.004-0.175,0.004c-3.295-4.174-7.124-8.037-11.269-11.414
			C135.41,119.923,139.024,119.923,142.64,119.907z M4.719,135.864c0.028-0.09,0.104-0.13,0.115-0.232
			c0.18-1.716,0.592-3.654,0.998-5.674c0.781,1.354,1.734,2.639,2.599,3.877c0.376,0.538,0.782,1.196,1.218,1.84
			C8.007,135.746,6.361,135.791,4.719,135.864z M13.007,135.548c-0.63-1.012-1.602-1.914-2.306-2.797
			c-1.487-1.867-2.792-3.847-4.203-5.766c-0.027-0.037-0.074-0.038-0.105-0.069c0.406-2.433,0.647-4.878,0.328-7.106
			c2.252,5.562,6.757,10.631,10.612,15.072c0.42,0.484,1.098,0.445,1.624,0.209c0.227-0.103,0.374-0.259,0.481-0.482
			c0.26-0.539,0.25-1.184-0.209-1.623c-3.939-3.768-7.452-8.145-10.332-12.803c1.514,0.258,3.122,0.351,4.715,0.401
			c1.862,2.968,4.201,5.687,6.443,8.341c1.513,1.791,3.169,4.256,5.036,6.17C21.063,135.253,17.033,135.378,13.007,135.548z
			 M28.68,134.959c-1.212-2.378-4.057-4.512-5.74-6.262c-2.504-2.604-4.938-5.278-7.248-8.058c1.965,0.015,3.817-0.016,5.262,0.076
			c0.517,0.031,1.035,0.034,1.552,0.062c1.93,2.578,3.881,5.143,5.777,7.746c1.435,1.971,2.757,4.355,4.398,6.289
			C31.348,134.865,30.014,134.907,28.68,134.959z M35.607,134.708c-1.401-2.322-3.522-4.389-5.216-6.484
			c-2.005-2.479-3.966-4.994-6.09-7.371c1.476,0.063,2.953,0.078,4.43,0.109c2.161,2.866,4.469,5.641,6.766,8.389
			c1.204,1.441,2.648,3.586,4.288,5.211C38.392,134.612,36.999,134.655,35.607,134.708z M43.463,134.431
			c-0.689-0.885-1.589-1.619-2.406-2.39c-1.415-1.334-2.755-2.747-4.093-4.157c-2.15-2.269-4.233-4.617-6.399-6.877
			c2.396,0.03,4.794-0.043,7.191-0.078c1.439,2.92,3.645,5.521,5.73,7.957c1.212,1.414,2.88,3.771,4.718,5.379
			C46.624,134.321,45.042,134.372,43.463,134.431z M51.909,134.134c-1.377-2.328-4.499-4.271-6.365-6.139
			c-2.181-2.186-4.343-4.51-6.093-7.086c1.687-0.031,3.376-0.102,5.064-0.152c0.015,0.131,0.054,0.262,0.18,0.365
			c2.475,2.035,4.686,4.329,6.783,6.746c1.279,1.475,2.507,2.996,3.668,4.564c0.398,0.537,0.743,1.067,1.135,1.545
			C54.823,134.032,53.366,134.08,51.909,134.134z M58.966,133.884c-0.821-2.472-3.83-4.785-5.553-6.677
			c-2.173-2.386-4.511-4.625-7.138-6.502c2.526-0.083,5.053-0.183,7.58-0.28c-0.072,0.219-0.076,0.457,0.052,0.69
			c1.574,2.866,3.937,5.415,6.112,7.828c1.235,1.368,2.793,3.489,4.57,4.743C62.715,133.753,60.841,133.817,58.966,133.884z
			 M68.014,133.565c0.001-0.254-0.07-0.516-0.294-0.75c-1.866-1.956-4.186-3.518-6.102-5.471c-2.159-2.199-4.044-4.615-5.999-6.986
			c1.913-0.075,3.827-0.124,5.741-0.194c0.066,0.054,0.112,0.134,0.223,0.11c0.337-0.07,1.814,1.67,2.3,2.169
			c1.511,1.551,2.868,3.274,4.218,4.964c1.478,1.85,2.906,3.738,4.363,5.604c0.089,0.114,0.19,0.262,0.283,0.387
			C71.167,133.455,69.591,133.511,68.014,133.565z M76.375,133.271c-0.814-0.959-1.805-1.871-2.457-2.645
			c-1.836-2.176-3.655-4.365-5.547-6.492c-0.824-0.928-2.447-2.984-4.09-4.068c1.758-0.057,3.516-0.088,5.274-0.133
			c1.225,2.824,3.659,5.224,5.775,7.355c1.308,1.318,4.408,5.12,6.923,5.777C80.292,133.134,78.334,133.202,76.375,133.271z
			 M91.146,132.751c0.399-0.072,0.675-0.402,0.688-1.203c0.009-0.562-0.355-0.867-0.776-0.967c-0.034-0.056-0.094-0.148-0.218-0.342
			c-0.29-0.452-0.768-0.824-1.152-1.193c-1.07-1.027-2.108-2.09-3.15-3.146c-1.945-1.971-3.992-4.506-6.488-5.805
			c-0.894-0.467-1.914,0.713-1.112,1.441c2.787,2.533,5.241,5.4,7.744,8.209c0.359,0.402,2.856,2.934,4.236,3.016
			c-2.373,0.084-4.746,0.166-7.119,0.25c0.263-0.146,0.44-0.494,0.432-0.781c-0.037-1.284-1.117-1.811-2.051-2.479
			c-1.605-1.148-3.105-2.449-4.581-3.755c-2.06-1.823-4.405-3.858-6.2-6.106c3.961-0.084,7.923-0.127,11.884-0.039
			c1.609,0.035,3.215,0.039,4.823,0.066c2.32,2.274,4.449,4.758,6.62,7.17c1.501,1.666,3.12,3.969,5.081,5.362
			C96.917,132.548,94.033,132.649,91.146,132.751z M102.781,132.341c0.041-0.305-0.01-0.627-0.29-0.941
			c-3.529-3.963-7.39-7.956-11.495-11.445c2.567,0.034,5.131,0.01,7.697,0.025c1.376,2.525,3.086,4.828,4.874,7.109
			c1.173,1.494,2.53,3.441,4.039,5.082C105.999,132.228,104.39,132.284,102.781,132.341z M111.972,132.017
			c-0.116,0.004-0.233,0.01-0.351,0.014c-1.48-2.191-3.925-4.119-5.617-6.02c-1.704-1.912-3.308-3.938-4.828-6.021
			c2.087,0.01,4.172-0.015,6.259-0.013c-0.38,0.195-0.63,0.623-0.359,1.096c1.474,2.566,3.565,4.917,5.409,7.227
			c0.702,0.879,1.74,2.463,2.915,3.613C114.259,131.951,113.115,131.978,111.972,132.017z M118.967,131.804
			c-0.279-0.92-1.114-1.447-1.806-2.088c-1.052-0.976-2.025-2.039-2.997-3.095c-1.955-2.125-3.672-4.593-5.794-6.547
			c-0.073-0.067-0.161-0.062-0.242-0.099c1.735,0.002,3.472-0.01,5.208-0.01c-0.291,0.129,0.002,0.406,0.303,0.773
			c0.496,0.605,0.998,1.206,1.498,1.807c1.381,1.659,2.737,3.338,4.101,5.012c0.818,1.006,1.939,2.742,3.229,4.149
			C121.3,131.742,120.133,131.765,118.967,131.804z M126.311,131.601c-2.399-2.617-4.831-5.256-7.202-7.918
			c-0.458-0.514-1.831-2.389-3.252-3.723c1.557-0.001,3.114-0.008,4.671-0.009c-0.014,0.401,0.165,0.812,0.63,0.916
			c0.649,0.146,1.648,1.42,2.155,1.912c1.317,1.276,2.611,2.577,3.897,3.885c1.435,1.457,3.475,4.485,5.766,4.587
			c1.028,0.047,1.497-1.523,0.537-1.982c-0.114-0.055-1.401-1.61-1.875-2.043c-1.34-1.223-2.658-2.469-3.993-3.697
			c-1.039-0.956-2.471-2.575-3.994-3.583c1.803-0.002,3.606-0.009,5.41-0.011c3.647,3.683,7.107,7.438,10.342,11.463
			C135.037,131.433,130.674,131.485,126.311,131.601z M158.162,131.624c-4.1-0.179-8.202-0.263-12.306-0.294
			c0.306-2.438,0.358-4.909,0.494-7.36c0.066-1.213,0.246-2.713,0.104-4.076c1.712-0.004,3.421-0.019,5.134-0.018
			c11.441,0.008,24.057,2.37,35.595,1.314c-0.079,0.93-0.061,1.892-0.069,2.775c-0.032,2.92,0.236,6.113,1.044,8.979
			C178.417,134.524,167.85,132.048,158.162,131.624z"/>
		<path d="M193.381,144.022c-10.027-2.143-19.822-1.115-29.975-0.153c-17.998,1.706-36.277,0.44-54.339,0.673
			c-19.64,0.254-39.214,2.156-58.872,2.361c-15.845,0.165-31.476-3.205-47.24-2.669c-0.085,0.003-0.146,0.038-0.224,0.052
			c-0.26,0.037-0.484,0.145-0.717,0.305c-0.076,0.06-0.167,0.105-0.228,0.178c-0.091,0.086-0.209,0.113-0.287,0.223
			c-1.912,2.723-1.443,7.561-1.461,10.699c-0.025,4.255,0.412,8.879,1.733,12.941c0.119,0.366,0.392,0.58,0.704,0.711
			c0.105,0.107,0.16,0.26,0.331,0.297c2.43,0.504,4.883,0.916,7.349,1.283c0.238,0.121,0.461,0.289,0.71,0.362
			c0.307,0.09,0.562-0.007,0.774-0.161c2.563,0.355,5.165,0.555,7.76,0.785c0.273,0.191,0.546,0.387,0.828,0.532
			c0.418,0.216,0.957,0.06,1.173-0.329c27.658,2.127,56.83-2.016,83.979-1.783c3.03,0.025,6.039,0.023,9.052,0.025
			c0.104,0.074,0.184,0.191,0.292,0.26c0.438,0.277,1.001,0.102,1.352-0.254c13.862-0.014,27.589-0.309,41.523-1.193
			c7.461-0.472,14.945-0.062,22.407-0.431c1.866-0.093,3.146-0.228,4.09-0.419c0.573,1.221,1.556,2.171,3.174,2.076
			c1.575-0.09,2.561-1.32,3.249-2.676c0.015-0.002,0.024,0.01,0.04,0.008c0.171-0.029,0.342-0.059,0.513-0.088
			c1.478-0.252,1.414-1.949,0.508-2.748c1.692-5.518,2.221-11.934,2.456-17.683C195.033,146.291,195.069,144.384,193.381,144.022z
			 M189.499,153.409c-0.696-1.247-1.609-2.438-2.206-3.398c-0.646-1.041-1.362-2.203-2.192-3.25c1.69,0.135,3.38,0.28,5.051,0.561
			C189.762,149.284,189.618,151.349,189.499,153.409z M4.17,168.077c-0.146-1.747-0.246-3.49-0.312-5.236
			c0.577,1.287,1.248,2.532,2.061,3.707c0.495,0.713,1.09,1.531,1.743,2.303C6.168,168.675,4.962,168.425,4.17,168.077z
			 M11.433,169.116c-0.955-1.219-2.415-2.201-3.439-3.322c-1.62-1.773-2.726-3.865-3.699-6.039
			c-0.104-0.234-0.284-0.326-0.478-0.355c-0.003-0.823-0.035-1.643-0.018-2.469c0.027-1.308,0.182-2.645,0.332-3.979
			c2.4,3.823,5.455,7.243,8.322,10.71c1.247,1.51,2.622,3.654,4.146,5.516C14.767,169.193,13.017,169.179,11.433,169.116z
			 M20.556,169.101c-1.313-2.106-3.682-4.066-5.05-5.51c-3.712-3.914-7.377-7.854-10.692-12.115
			c-0.152-0.195-0.345-0.226-0.538-0.193c0.144-1.27,0.298-2.54,0.338-3.787c0.457,0.01,0.908,0.029,1.364,0.039
			c0.057,0.141,0.16,0.254,0.211,0.398c0.053,0.188,0.378,0.158,0.351-0.047c-0.017-0.09,0.009-0.181-0.005-0.27
			c3.095,4.076,6.438,7.975,9.812,11.811c2.754,3.131,5.58,6.658,8.814,9.494C23.617,168.991,22.074,169.056,20.556,169.101z
			 M28.897,168.728c-3.266-3.922-7.265-7.385-10.741-11.111c-3.067-3.288-6.028-6.678-9.066-9.994
			c2.027,0.055,4.041,0.137,6.06,0.209c3.156,4.566,6.929,8.663,10.655,12.771c1.96,2.162,4.21,4.267,5.777,6.73
			c0.241,0.379,0.456,0.791,0.682,1.193C31.164,168.597,30.043,168.664,28.897,168.728z M35.608,168.31
			c-0.066-0.314-0.157-0.627-0.281-0.975c-0.176-0.494-0.578-0.693-0.983-0.721c-0.398-0.721-0.783-1.458-1.249-2.096
			c-1.226-1.672-2.988-3.11-4.441-4.592c-3.89-3.967-7.777-7.861-11.428-12.022c2.837,0.108,5.666,0.231,8.492,0.358
			c-0.136,0.149-0.207,0.353-0.065,0.566c0.384,0.58,0.055,0.383,0.531-0.023c-0.322,0.274-0.402,0.879-0.158,1.226
			c2.928,4.155,6.28,8.036,9.498,11.967c1.436,1.755,2.955,4.022,4.653,5.996C38.788,168.091,37.289,168.195,35.608,168.31z
			 M50.765,167.507c-2.241-2.691-4.984-6.088-7.354-8.936c-2.514-3.02-4.905-6.872-8.248-9.006
			c-0.302-0.193-0.735,0.125-0.616,0.474c1.31,3.826,4.63,7.134,7.091,10.306c1.847,2.381,3.708,4.75,5.629,7.071
			c0.042,0.052,0.104,0.132,0.15,0.188c-0.569,0.015-1.14,0.039-1.709,0.051c-0.371,0.009-0.892,0.033-1.538,0.072
			c-1.752-2.523-4.154-4.791-6.09-7.034c-3.441-3.987-6.772-8.13-10.467-11.888c-0.294-0.299-0.865-0.42-1.225-0.158
			c0.398-0.291,0.516-0.075,0.2-0.348c5.064,0.23,10.114,0.477,15.164,0.701c-0.086,0.197-0.112,0.413,0.029,0.631
			c2.719,4.159,5.693,8.162,8.57,12.215c1.123,1.58,2.272,3.672,3.587,5.558C52.88,167.437,51.822,167.476,50.765,167.507z
			 M57.729,167.283c-1.532-2.394-3.867-4.667-5.366-6.612c-2.995-3.887-5.925-7.855-9.096-11.602
			c1.724,0.074,3.45,0.129,5.175,0.197c3.696,3.149,6.396,7.506,9.019,11.51c1.087,1.66,2.46,4.58,4.241,6.373
			C60.379,167.194,59.054,167.239,57.729,167.283z M64.991,167.04c-0.652-1.355-1.727-2.453-2.622-3.664
			c-1.558-2.105-3.035-4.271-4.567-6.396c-1.889-2.621-3.936-5.473-6.482-7.604c2.24,0.081,4.484,0.136,6.728,0.196
			c2.4,3.527,4.595,7.203,6.918,10.781c1.23,1.896,2.754,5.299,4.97,6.529C68.287,166.935,66.639,166.984,64.991,167.04z
			 M71.833,166.819c0.211-0.368,0.212-0.879-0.091-1.27c-4.027-5.188-7.564-10.947-11.962-15.929
			c2.334,0.056,4.673,0.091,7.015,0.116c3.647,5.377,6.476,12.488,11.577,16.67c0.206,0.169,0.456,0.219,0.703,0.23
			C76.663,166.704,74.249,166.743,71.833,166.819z M79.296,166.634c0.8-0.095,1.52-0.83,0.908-1.638
			c-2.012-2.657-4.189-5.123-6.041-7.914c-1.64-2.471-3.239-4.95-5.004-7.329c2.213,0.012,4.441-0.037,6.663-0.061
			c1.918,3.63,3.506,7.417,5.58,10.967c1.08,1.85,2.643,4.561,4.7,5.84C83.833,166.546,81.565,166.574,79.296,166.634z
			 M105.379,166.423c-2.529-0.051-5.06,0.006-7.589,0.01c-0.002-0.004,0-0.006-0.002-0.008c-1.867-2.654-4.14-4.91-5.87-7.709
			c-1.749-2.834-3.281-5.795-5.142-8.559c-0.639-0.947-2.106-0.116-1.543,0.902c1.774,3.207,3.394,6.498,5.231,9.67
			c1.091,1.883,2.395,4.095,4.068,5.707c-1.85,0.015-3.7-0.023-5.55,0.007c0.053-0.206,0.048-0.427-0.111-0.66
			c-1.734-2.55-4.126-4.519-5.797-7.218c-1.828-2.953-3.481-5.998-5.405-8.889c4.794-0.08,9.604-0.223,14.461-0.541
			c0.183-0.012,0.366-0.014,0.548-0.025c1.657,3.273,3.335,6.549,5.166,9.725c1.587,2.754,3.667,6.244,6.929,7.125
			c0.984,0.266,1.97-1.123,1.066-1.83c-5.097-3.988-7.361-9.841-10.652-15.138c1.568-0.088,3.137-0.122,4.706-0.19
			c2.991,3.908,5.579,8.049,8.062,12.303c0.938,1.605,1.881,3.545,2.996,5.33C109.095,166.433,107.234,166.462,105.379,166.423z
			 M114.797,166.44c-1.646-2.672-3.803-5.24-5.411-7.775c-2.192-3.453-4.445-6.958-7.25-9.953c2.714-0.104,5.43-0.094,8.144-0.15
			c1.738,3.847,3.915,7.511,6.132,11.093c1.278,2.065,2.63,4.524,4.224,6.644C118.689,166.353,116.741,166.416,114.797,166.44z
			 M124.232,166.206c-1.744-2.664-4.019-5.125-5.811-7.727c-2.221-3.221-4.185-6.594-6.176-9.955
			c1.342-0.023,2.683-0.021,4.023-0.038c-0.05,0.329,0.029,0.646,0.257,0.883c-0.006,0.003-0.012,0.005-0.018,0.009
			c3.137,3.149,5.39,6.993,7.732,10.738c1.104,1.764,2.48,4.322,4.283,5.908C127.094,166.087,125.662,166.155,124.232,166.206z
			 M131.884,165.884c-0.022-0.051-0.006-0.104-0.039-0.152c-1.979-2.946-4.354-5.633-6.304-8.655
			c-1.968-3.052-4.018-6.128-6.686-8.616c2.506-0.027,5.013,0.002,7.519-0.011c0.21,3.17,3.024,7.233,4.338,9.255
			c1.203,1.852,4.062,6.633,6.861,7.883C135.677,165.685,133.78,165.794,131.884,165.884z M139.912,165.464
			c0.173-0.248,0.269-0.545,0.172-0.83c-0.403-1.205-1.526-1.683-2.455-2.492c-1.868-1.627-3.45-3.625-4.921-5.604
			c-1.264-1.701-2.415-3.479-3.443-5.331c-0.489-0.881-0.864-1.825-1.251-2.76c2.25-0.009,4.5-0.001,6.749-0.011
			c-0.45,0.187-0.794,0.688-0.529,1.27c1.772,3.898,3.908,7.657,6.022,11.379c0.438,0.77,1.274,2.893,2.355,4.236
			C141.71,165.369,140.812,165.416,139.912,165.464z M145.33,165.177c-0.865-2.271-2.677-4.354-3.913-6.455
			c-1.928-3.279-3.763-6.61-5.614-9.934c-0.115-0.207-0.279-0.285-0.442-0.352c1.569-0.006,3.139-0.004,4.708-0.008
			c2.229,4.08,4.466,8.144,6.632,12.256c0.473,0.896,1.242,2.789,2.255,4.307C147.747,165.054,146.539,165.11,145.33,165.177z
			 M152.264,164.822c-1.297-2.313-3.255-4.504-4.625-6.729c-1.962-3.187-3.692-6.692-6.009-9.666
			c0.563,0.002,1.129-0.006,1.692-0.002c1.441,0.012,2.896-0.039,4.35-0.086c1.412,4.196,3.526,8.266,5.649,12.11
			c0.517,0.935,1.478,2.888,2.69,4.206C154.763,164.712,153.514,164.761,152.264,164.822z M159.629,164.49
			c-0.111-0.222-0.274-0.416-0.538-0.485c-0.533-0.143-1.699-2.041-2.006-2.447c-1.22-1.621-2.264-3.383-3.299-5.125
			c-1.584-2.666-3.001-5.424-4.502-8.135c1.813-0.084,3.636-0.203,5.461-0.341c-0.286,0.296-0.438,0.707-0.151,1.103
			c2.657,3.66,4.663,7.799,6.896,11.721c0.414,0.727,1.165,2.355,2.125,3.604C162.285,164.431,160.959,164.437,159.629,164.49z
			 M167.134,164.291c-0.119-0.179-0.286-0.319-0.536-0.354c0.01,0.002-1.226-1.881-1.456-2.213c-1.08-1.56-2.034-3.211-3.011-4.836
			c-1.849-3.076-3.611-6.312-5.998-9.015c-0.016-0.017-0.038-0.009-0.054-0.024c2.471-0.195,4.948-0.416,7.428-0.627
			c-0.295,0.299-0.463,0.717-0.177,1.224c1.986,3.509,3.711,7.142,5.476,10.765c0.648,1.333,1.556,4.018,3.116,5.008
			C170.324,164.245,168.731,164.248,167.134,164.291z M173.926,164.188c0.371-0.48,0.391-1.229-0.243-1.578
			c-0.42-0.232-1.146-1.881-1.414-2.338c-0.833-1.411-1.576-2.879-2.321-4.336c-1.47-2.877-2.791-5.99-4.7-8.611
			c-0.094-0.129-0.227-0.143-0.341-0.221c1.23-0.1,2.458-0.176,3.688-0.264c2.185,3.397,4.141,6.949,6.106,10.473
			c1.076,1.93,2.299,4.875,4.021,6.861C177.124,164.175,175.526,164.169,173.926,164.188z M182.139,164.202
			c-0.502-1.096-1.316-1.977-2.053-2.951c-1.455-1.924-2.747-3.975-4.057-5.998c-1.863-2.877-3.708-5.759-5.711-8.535
			c1.587-0.098,3.172-0.172,4.754-0.222c1.086,0.427,2.62,4.247,3.15,5.156c1.51,2.592,2.952,5.222,4.501,7.792
			c0.553,0.917,1.74,3.203,3.173,4.857C184.645,164.265,183.393,164.22,182.139,164.202z M188.274,162.86
			c-0.865-1.055-1.833-2.6-2.095-2.975c-1.575-2.236-3.001-4.582-4.458-6.896c-0.965-1.532-2.432-4.729-4.285-6.518
			c1.747-0.017,3.484,0.041,5.218,0.119c0.197,0.318,0.38,0.627,0.529,0.855c0.876,1.352,1.636,2.788,2.367,4.223
			c0.89,1.746,1.567,4.969,3.428,5.916c0.064,0.033,0.142,0.037,0.213,0.057c-0.048,0.502-0.081,1.015-0.148,1.506
			C188.872,160.399,188.567,161.63,188.274,162.86z"/>
	</g>
</g>
<g>
</g>
<g>
</g>
<g>
</g>
<g>
</g>
<g>
</g>
<g>
</g>
<g>
</g>
<g>
</g>
<g>
</g>
<g>
</g>
<g>
</g>
<g>
</g>
<g>
</g>
<g>
</g>
<g>
</g>
</svg>
