<?xml version="1.0" encoding="iso-8859-1"?>
<!-- Generator: Adobe Illustrator 16.0.0, SVG Export Plug-In . SVG Version: 6.00 Build 0)  -->
<!DOCTYPE svg PUBLIC "-//W3C//DTD SVG 1.1//EN" "http://www.w3.org/Graphics/SVG/1.1/DTD/svg11.dtd">
<svg version="1.1" id="Capa_1" xmlns="http://www.w3.org/2000/svg" xmlns:xlink="http://www.w3.org/1999/xlink" x="0px" y="0px"
	 width="193.171px" height="193.171px" viewBox="0 0 193.171 193.171" style="enable-background:new 0 0 193.171 193.171;"
	 xml:space="preserve">
<g>
	<g>
		<path d="M114.474,166.949c0.899-0.494,0.717-2.177-0.374-2.62c-8.247-3.349-18.097-1.384-26.695-0.457
			c-15.174,1.636-30.394,0.489-45.602,1.322c0.269-4.588-1.22-9.835-1.3-14.538c-0.099-5.855,0.249-11.748-0.082-17.6
			c0.504,0.21,1.018,0.396,1.636,0.388c0.468-0.006,0.843-0.333,1.009-0.74c9.812,0.109,19.698-0.337,29.504-0.663
			c1.685-0.056,2.312-1.916,1.297-3.13c-0.747-0.894-1.322-1.896-2.084-2.732c0.373-0.466,0.504-1.108,0.1-1.78
			c-12.85-21.376-22.549-44.555-37.557-64.603c-0.756-1.01-2.267-1.21-2.986,0C19.748,79.332-1.508,103.947,0.085,128.076
			c0.057,0.866,1.439,1.174,1.602,0.217c0.085-0.495,0.235-0.971,0.328-1.463c3.511,2.059,7.888,2.293,11.877,2.834
			c5.638,0.765,10.084-1.201,10.183,5.661c0.189,13.015,0.035,26.678,1.672,39.584c0.071,0.556,0.368,0.881,0.722,1.095
			c-0.133,1.761-0.225,3.523-0.252,5.291c-0.032,0.679,0.521,1.467,1.209,1.589c28.043,5.002,56.611,3.936,84.823,0.886
			c0.793,0.553,2.053,0.14,2.119-1.055c0.275-4.868-0.526-9.784,0.286-14.642C114.729,167.641,114.632,167.274,114.474,166.949z
			 M111.236,166.921c-0.019,0.069-0.061,0.113-0.073,0.189c-0.407,2.43-0.608,5.129-0.562,7.823
			c-1.433-1.447-3.117-2.753-4.611-4.086c-1.67-1.489-3.406-2.898-5.256-4.156C104.212,166.59,107.697,166.623,111.236,166.921z
			 M36.711,68.969c1.525,2.186,2.95,4.443,4.339,6.723c-1.413-1.159-2.898-2.246-4.255-3.321c-2.039-1.615-4.197-3.006-6.475-4.226
			C32.834,63.868,32.828,63.403,36.711,68.969z M29.431,69.631c0.113-0.183,0.19-0.32,0.295-0.494
			c2.377,1.503,4.62,3.189,6.754,5.033c2.396,2.07,4.569,4.728,7.321,6.314c0.035,0.02,0.062,0.003,0.095,0.017
			c1.635,2.856,3.228,5.736,4.807,8.609c0.019,0.035,0.037,0.07,0.056,0.104c-2.902-2.411-6.18-4.516-9.062-6.879
			c-4.024-3.299-7.916-6.756-11.699-10.329C28.476,71.217,28.95,70.41,29.431,69.631z M27.397,73.001
			c3.598,3.62,7.304,7.126,11.141,10.493c3.524,3.092,7.375,7.026,11.641,9.066c0.136,0.065,0.267,0.047,0.398,0.04
			c1.956,3.617,3.903,7.237,5.835,10.864c-10.684-8.379-20.988-17.54-32.253-25.1C25.236,76.567,26.318,74.788,27.397,73.001z
			 M23.512,79.436c11.704,8.764,21.963,19.76,34.446,27.359c0.095,0.059,0.171,0.022,0.26,0.043
			c2.85,5.321,5.739,10.621,8.802,15.832c-11.194-16.147-30.317-27.943-45.605-39.762C22.107,81.737,22.816,80.602,23.512,79.436z
			 M20.749,84.042c16.457,13.587,32.623,26.605,46.976,42.493c0.159,0.176,0.349,0.25,0.539,0.252
			c0.06,0.463,0.318,0.907,0.712,1.163c0.063,0.041,0.186,0.223,0.308,0.403c-1.75-0.014-3.504,0.072-5.256,0.101
			C48.863,114.996,33.341,101.9,18.173,88.426C19.016,86.952,19.89,85.505,20.749,84.042z M17.625,89.372
			c13.923,13.144,27.41,27.811,42.941,39.148c-1.528,0.042-3.054,0.033-4.582,0.088c-13.516-11.945-28.275-22.559-40.051-36.315
			C16.477,91.307,17.069,90.352,17.625,89.372z M15.439,93.201c10.517,13.698,24.456,24.319,37.503,35.522
			c-1.197,0.048-2.394,0.085-3.59,0.135c-12.55-10.086-24.229-20.745-36.077-31.675C13.972,95.844,14.714,94.527,15.439,93.201z
			 M12.762,98.177c4.845,6.272,11.087,11.711,16.812,17.104c3.935,3.706,9.689,10.424,15.47,13.752
			c-0.701,0.028-1.406,0.06-2.106,0.085c-0.34,0.013-0.615,0.113-0.853,0.254c-3.374-4.312-8.62-7.826-12.651-11.214
			c-6.31-5.302-12.687-10.555-18.535-16.373C11.488,100.568,12.144,99.379,12.762,98.177z M10.376,102.887
			c5.042,5.477,10.62,10.385,16.217,15.285c4.057,3.554,7.988,7.694,12.188,11.24c-0.091-0.009-0.181-0.017-0.272-0.025
			c-1.779-0.178-1.915,2.312-0.472,2.916c-0.032,0.364-0.038,0.732-0.067,1.099c-3.971-3.868-8.614-7.304-12.709-10.969
			c-5.638-5.047-11.229-10.131-17.074-14.939C8.854,105.934,9.648,104.422,10.376,102.887z M2.363,125.281
			c0.234-1.103,0.53-2.186,0.814-3.273c0.603,1.064,1.401,2.156,2.337,3.116C4.45,125.125,3.397,125.167,2.363,125.281z
			 M7.859,125.213c-0.242-0.146-0.492-0.285-0.724-0.445c-1.488-1.027-2.728-2.3-3.693-3.825c0.502-1.825,1.051-3.635,1.661-5.426
			c3.173,3.854,6.99,7.493,10.989,10.597C13.332,125.729,10.569,125.369,7.859,125.213z M27.451,128.786
			c-0.01-0.944-0.773-1.701-1.715-1.715c-1.99-0.028-4.038-0.226-6.111-0.483c-4.411-4.393-9.8-7.669-14.116-12.234
			c0.677-1.909,1.389-3.807,2.167-5.681c5.436,5.006,10.74,10.157,16.111,15.233c4.293,4.058,8.827,9.097,14.024,12.127
			c-0.119,1.847-0.265,3.692-0.337,5.544c-1.463-1.701-3.233-3.19-4.789-4.814c-1.705-1.778-3.377-3.613-5.142-5.342
			C27.52,130.544,27.461,129.657,27.451,128.786z M27.598,133.018c1.354,1.59,2.714,3.175,4.047,4.784
			c1.453,1.755,3.044,4.337,5.244,5.195c0.224,0.088,0.404,0.044,0.553-0.049c-0.073,2.245-0.141,4.49-0.155,6.734
			c-0.941-1.464-2.153-2.83-3.149-4.125c-2.007-2.606-4.058-5.238-6.368-7.589C27.683,136.306,27.655,134.667,27.598,133.018z
			 M27.868,139.621c3.489,4.075,6.026,8.8,9.373,12.959c0.006,1.15-0.019,2.619,0.004,4.165c-2.612-3.755-5.676-7.304-8.979-10.393
			C28.125,144.101,27.994,141.861,27.868,139.621z M28.362,147.917c3.143,3.891,5.932,8.035,9.059,11.929
			c0.122,1.251,0.299,2.48,0.642,3.58c-3.061-3.134-6.133-6.255-9.144-9.438c-0.067-0.071-0.14-0.073-0.212-0.096
			C28.605,151.901,28.485,149.908,28.362,147.917z M35.537,179.014c-0.813-0.935-1.672-1.838-2.435-2.774
			c-1.475-1.811-2.863-3.692-4.226-5.588c0.106-1.732,0.173-3.471,0.196-5.219c2.634,3.462,5.178,6.979,7.924,10.369
			c1.474,1.818,3.074,3.945,4.892,5.712C39.503,180.85,37.377,180.017,35.537,179.014z M45.555,182.378
			c-6.058-5.364-10.876-12.2-16.487-18.024c0.005-1.251-0.064-2.514-0.09-3.771c2.838,4.258,5.984,8.325,9.218,12.282
			c2.59,3.169,5.453,6.865,8.727,9.74C46.472,182.527,45.995,182.466,45.555,182.378z M50.801,183.179
			c-3.171-3.591-6.963-6.771-10.182-10.329c-4.036-4.464-7.728-9.214-11.676-13.75c-0.038-1.258-0.113-2.522-0.172-3.783
			c3.749,4.658,7.767,9.076,11.798,13.49c4.398,4.814,8.501,10.263,13.304,14.676C52.836,183.392,51.801,183.299,50.801,183.179z
			 M55.501,183.612c0.052-0.165,0.051-0.351-0.058-0.546c-2.98-5.349-7.837-9.758-12.052-14.142c-0.418-0.436-0.839-0.865-1.259-1.3
			c1.162,0.08,2.335,0.137,3.5,0.211c5.379,5.368,10.629,11.607,16.885,16.069C60.13,183.864,57.777,183.774,55.501,183.612z
			 M65.719,183.927c-6.174-5.264-12.16-10.792-18.39-15.989c2.581,0.156,5.172,0.282,7.763,0.392
			c-0.074,0.142-0.105,0.298,0.002,0.453c2.267,3.285,5.05,6.173,7.886,8.968c1.888,1.861,4.237,4.583,6.776,6.1
			C68.407,183.88,67.055,183.925,65.719,183.927z M72.397,183.8c-1.941-2.818-5.742-4.881-8.317-7.15
			c-2.872-2.533-5.598-5.265-7.98-8.268c1.932,0.076,3.865,0.126,5.799,0.165c2.212,2.981,4.725,5.729,7.302,8.396
			c2.085,2.159,4.408,4.858,7.008,6.68C74.939,183.686,73.672,183.755,72.397,183.8z M78.565,183.505
			c-2.053-2.629-5.13-4.688-7.577-6.924c-2.746-2.509-5.326-5.171-7.732-8.002c1.647,0.026,3.29-0.022,4.935-0.03
			c2.767,2.755,5.756,5.254,8.768,7.735c2.624,2.162,5.036,4.526,7.53,6.81C82.54,183.246,80.568,183.388,78.565,183.505z
			 M86.748,182.91c-4.47-5.685-11.219-9.603-16.68-14.372c2.373-0.032,4.743-0.095,7.108-0.201
			c3.951,5.166,8.88,9.986,13.976,14.178C89.711,182.65,88.248,182.784,86.748,182.91z M93.88,182.249
			c-4.986-4.803-10.482-8.935-15.245-14.008c1.688-0.091,3.376-0.178,5.056-0.332c0.105-0.01,0.207-0.018,0.311-0.028
			c0.006,0.139,0.054,0.273,0.186,0.378c2.984,2.354,5.733,4.966,8.483,7.585c2.032,1.935,4.103,4.244,6.491,5.851
			C97.479,181.877,95.717,182.065,93.88,182.249z M101.37,181.448c-2.445-2.745-5.739-4.972-8.464-7.464
			c-2.38-2.176-4.806-4.284-7.368-6.241c1.86-0.171,3.701-0.334,5.538-0.487c4.302,4.955,10.111,10.143,16.152,13.532
			C105.463,180.986,103.503,181.21,101.37,181.448z M110.855,180.393c-2.506-1.83-5.342-3.294-7.924-4.99
			c-3.693-2.426-7.126-5.208-10.306-8.269c2.222-0.174,4.436-0.299,6.65-0.388c0.015,0.014,0.012,0.031,0.026,0.042
			c2.241,1.697,4.237,3.63,6.196,5.639c1.529,1.566,3.041,3.533,4.979,4.6c0.066,0.036,0.121,0.011,0.185,0.029
			c0.085,1.125,0.225,2.235,0.429,3.312C111.021,180.375,110.93,180.385,110.855,180.393z"/>
		<path d="M191.396,88.366c-1.435,0.409-2.631,1.927-3.638,3.733c-1.444-1.237-3.158-2.301-4.816-3.306
			c2.621,0.061,5.319,0.123,7.819-0.422c1.44-0.314,1.44-2.588,0-2.901c-3.294-0.716-6.9-0.273-10.246-0.205
			c-4.387,0.09-8.875,0.379-13.165,1.388c-0.031-0.251-0.06-0.512-0.101-0.769c0.381-0.327,0.615-0.835,0.471-1.503
			c-1.607-7.413-1.3-14.997-0.874-22.545c0.184-0.234,0.21-0.539,0.048-0.84c0.115-2.014,0.234-4.026,0.323-6.029
			c0.505-11.412-0.544-22.93-1.578-34.359c0.09,0.055,0.17,0.128,0.263,0.18c0.576,0.321,1.233-0.321,0.901-0.901
			c-0.369-0.645-0.854-1.232-1.383-1.794c-0.21-2.34-0.426-4.683-0.611-7.012c0.581-0.933,0.42-2.271-0.948-2.485
			c-18.866-2.951-37.916-1.66-56.927-0.115c-0.019-0.014-0.038-0.028-0.057-0.042c-0.204-0.142-0.42-0.059-0.571,0.092
			c-3.211,0.262-6.42,0.526-9.627,0.781c-0.389-0.277-0.782-0.572-1.17-0.847c-0.429-0.303-0.978,0.405-0.562,0.728
			c0.095,0.074,0.183,0.158,0.278,0.233c-4.677,0.365-9.351,0.707-14.014,0.943c-0.157-0.152-0.321-0.292-0.477-0.445
			c-0.399-0.39-0.929,0.062-0.808,0.496c-11.949,0.56-23.842,0.479-35.621-1.278c-0.424-0.063-0.774,0.401-0.437,0.751
			c0.097,0.101,0.215,0.176,0.315,0.273c-0.01,0.045-0.05,0.07-0.051,0.119c-0.123,5.074-0.959,10.157-1.191,15.241
			c-0.124,2.733-0.633,7.568,1.98,9.345c0.155,0.105,0.314,0.117,0.472,0.144c0.126,0.219,0.332,0.389,0.63,0.449
			c25.877,5.2,51.871-1.896,77.793-0.945c0.213,0.169,0.411,0.358,0.626,0.526c0.604,0.471,1.287,0.108,1.454-0.434
			c4.459,0.241,8.917,0.707,13.37,1.562c0.097,0.205,0.245,0.387,0.483,0.486c4.54,1.887,3.27,22.597,3.421,26.613
			c0.2,5.333-1.299,15.584,1.09,21.277c-3.654,0.226-7.291,0.634-10.934,1.036c-4.402,0.486-8.849,0.104-13.217,0.646
			c-0.663,0.082-0.962,0.883-0.348,1.283c0.004,0.002,0.008,0.003,0.011,0.005c-0.503,0.223-0.877,0.774-0.491,1.303
			c14.652,20.084,24.639,42.77,36.942,64.251c0.549,0.958,1.942,1.147,2.715,0.351c7.803-8.04,12.414-20.313,17.394-30.151
			c3.439-6.796,6.787-13.639,10.172-20.463c1.293-2.607,3.733-10.263,6.002-11.805C193.824,90.112,193.038,87.899,191.396,88.366z
			 M162.932,11.973c0.165,0.024,0.308-0.008,0.459-0.022c-0.065,1.415-0.036,2.827-0.062,4.241c-0.77-0.621-1.547-1.221-2.263-1.802
			c-1.36-1.106-2.775-2.147-4.218-3.148C158.891,11.456,160.932,11.676,162.932,11.973z M153.885,10.945
			c2.278,1.667,4.514,3.37,6.658,5.209c0.934,0.801,1.82,1.733,2.746,2.606c-0.012,1.474-0.076,2.95-0.066,4.424
			c-2.153-1.989-4.594-3.746-6.837-5.566c-2.95-2.394-5.902-4.786-8.859-7.172C149.661,10.583,151.775,10.758,153.885,10.945z
			 M145.762,10.353c3.051,2.919,6.246,5.691,9.452,8.438c2.657,2.276,5.217,4.804,8.043,6.889c0.022,1.603,0.027,3.206,0.065,4.808
			c-3.324-3.68-7.424-6.904-11.042-10.062c-4.254-3.715-8.727-7.183-13.347-10.438C141.231,10.054,143.487,10.225,145.762,10.353z
			 M137.292,9.935c4.705,3.77,9.308,7.655,13.805,11.674c4.223,3.773,8.029,8.168,12.293,11.898
			c0.065,2.454,0.134,4.908,0.195,7.362c-9.055-12.507-22.801-21.057-34.448-31.012C131.863,9.845,134.583,9.874,137.292,9.935z
			 M46.959,33.358c0.104-2.206-0.206-4.544-0.415-6.861c1.783,2.414,3.914,5.241,6.417,7.206
			C50.958,33.634,48.957,33.522,46.959,33.358z M56.259,33.749c-1.556-1.17-3.162-2.254-4.602-3.617
			c-1.76-1.666-3.338-3.536-4.919-5.37c-0.088-0.102-0.2-0.126-0.311-0.143c-0.025-0.523-0.064-1.049-0.057-1.563
			c0.024-1.69,0.023-3.35-0.013-5.007c2.419,3.302,5.319,6.251,8.271,9.069c2.294,2.19,4.985,5.01,7.947,6.572
			C60.469,33.745,58.362,33.773,56.259,33.749z M64.707,33.619c-0.013-0.146-0.064-0.29-0.166-0.405
			c-2.458-2.761-5.938-4.836-8.723-7.284c-3.499-3.076-6.811-6.417-9.595-10.162c-0.08-1.4-0.15-2.797-0.367-4.201
			c0.601,0.421,1.237,0.797,1.904,1.132c6.333,7.878,14.477,16.104,23.563,20.583C69.117,33.418,66.911,33.54,64.707,33.619z
			 M73.319,33.154c0.08-0.306,0.036-0.646-0.327-0.886c-8.343-5.526-15.796-11.42-22.642-18.535
			c2.156,0.704,4.559,1.044,7.048,1.215c6.311,6.314,13.136,12.449,20.27,17.868C76.219,32.929,74.768,33.055,73.319,33.154z
			 M80.264,32.613c-6.731-6.156-14.231-11.467-21.068-17.547c2.15,0.059,4.363-0.028,6.574-0.196
			c3.302,3.266,6.698,6.432,10.172,9.516c2.9,2.575,6.032,5.596,9.423,7.788C83.664,32.322,81.964,32.472,80.264,32.613z
			 M88.09,31.939c-3.352-3.171-7.511-5.72-11.087-8.615c-3.362-2.721-6.569-5.622-9.71-8.593c2.186-0.204,4.325-0.483,6.414-0.774
			c6.769,5.473,12.908,12.684,20.22,17.488C91.982,31.605,90.037,31.77,88.09,31.939z M97.051,31.204
			c-3.96-3.091-8.007-6.039-11.833-9.331c-3.267-2.811-6.575-5.575-10.051-8.121c2.529-0.366,4.837-0.705,6.966-0.984
			c6.393,6.444,13.059,12.84,20.497,18.048C100.771,30.931,98.913,31.061,97.051,31.204z M105.507,30.667
			c-7.634-5.761-14.964-11.591-21.922-18.086c0.244-0.028,0.542-0.075,0.777-0.1c2.01-0.213,4.071-0.403,6.119-0.6
			c6.216,6.58,13.405,12.933,20.691,18.57C109.284,30.501,107.396,30.569,105.507,30.667z M114.498,30.389
			c-6.771-6.846-15.264-12.34-22.556-18.651c1.81-0.169,3.651-0.315,5.484-0.468c7.434,6.11,14.298,12.897,21.552,19.183
			C117.484,30.424,115.993,30.377,114.498,30.389z M122.504,30.545c-7.06-7.135-15.174-13.546-23.324-19.424
			c2.858-0.228,5.742-0.428,8.637-0.606c3.945,3.228,7.87,6.481,11.674,9.875c3.689,3.292,6.821,7.325,10.373,10.734
			C127.417,30.863,124.964,30.656,122.504,30.545z M143.941,37.717c-0.06-0.078-0.141-0.098-0.217-0.13
			c-0.163-0.282-0.304-0.6-0.492-0.843c1.472-0.415,1.863-2.808,0.042-3.276c-3.557-0.913-7.132-1.572-10.721-2.046
			c-2.152-4.429-7.005-8.061-10.57-11.209c-3.951-3.488-8.136-6.703-12.406-9.791c2.555-0.147,5.129-0.213,7.697-0.311
			c15.597,13.42,31.575,26.035,44.832,41.913c0.601,0.718,1.816-0.228,1.293-0.998c-11.29-16.619-28.463-29.021-44.452-40.982
			c2.881-0.097,5.763-0.13,8.641-0.157c11.933,11.404,25.036,21.102,35.938,33.622c0.037,0.043,0.088,0.029,0.128,0.06
			c0.076,3.798,0.114,7.597,0.042,11.399c-0.016,0.868-0.062,1.751-0.103,2.633C156.919,51.073,149.691,45.198,143.941,37.717z
			 M147.212,58.304c-0.171-0.112-0.388-0.283-0.607-0.257c-0.041,0.005-0.051,0.052-0.087,0.066
			c-0.082-1.752-0.14-3.504-0.257-5.255c-0.026-0.394-0.048-0.91-0.07-1.47c2.945,2.453,5.717,5.085,8.36,7.894
			c2.55,2.71,5.134,6.53,8.43,8.362c-0.082,1.632-0.119,3.261-0.113,4.885c-0.544-0.423-1.099-0.823-1.531-1.2
			c-2.038-1.772-4.048-3.576-6.048-5.392c-1.906-1.73-3.814-3.455-5.682-5.227c-0.534-0.507-1.136-1.241-1.784-1.602
			c-0.214-0.119-0.385-0.276-0.561-0.431C147.354,58.565,147.376,58.41,147.212,58.304z M152.631,65.621
			c2.145,2.084,4.356,4.103,6.566,6.118c1.03,0.939,2.364,2.541,3.757,3.354c0.071,1.475,0.228,2.934,0.442,4.381
			c-1.811-1.391-3.695-2.703-5.485-4.06c-3.838-2.908-7.541-5.973-11.069-9.25c-0.083-2.233-0.16-4.468-0.257-6.701
			C147.67,61.606,151.764,64.778,152.631,65.621z M163.095,65.562c-2.433-2.964-5.612-5.62-8.278-8.29
			c-2.689-2.694-5.521-5.404-8.696-7.564c-0.121-2.669-0.357-6.132-1.142-9.044c5.277,7.175,11.907,13.292,18.488,19.294
			C163.35,61.811,163.212,63.684,163.095,65.562z M162.236,142.427c-4.055-3.177-8.238-6.139-12.036-9.669
			c-0.382-0.355-0.93,0.191-0.57,0.571c3.578,3.779,7.426,7.612,11.724,10.641c-0.265,0.45-0.512,0.913-0.78,1.361
			c-1.021,1.712-2.126,3.38-3.381,4.933c1.887-2.334-5.62-12.836-6.754-14.996c-1.965-3.741-3.917-7.474-5.888-11.189
			c2.482,1.648,4.917,3.376,7.326,5.127c2.896,2.105,5.765,4.254,8.58,6.469c1.222,0.961,2.492,2.345,3.979,2.913
			C163.723,139.878,162.972,141.149,162.236,142.427z M165.147,137.259c-0.795-1.305-2.336-2.236-3.504-3.125
			c-2.909-2.215-5.896-4.326-8.912-6.394c-2.114-1.449-6.166-5.114-9.656-6.444c-2.37-4.413-4.798-8.783-7.382-13.052
			c10.829,7.849,21.085,16.523,32.146,23.993C166.961,133.922,166.055,135.592,165.147,137.259z M168.589,130.761
			c-10.361-9.334-22.445-17.379-34.295-24.813c-3.873-6.197-8.106-12.167-13.031-17.724c1.139,0.531,2.385,0.849,3.671,1.085
			c-0.312,0.116-0.525,0.497-0.22,0.815c12.667,13.211,29.679,27.496,47.096,34.268
			C170.742,126.517,169.673,128.643,168.589,130.761z M172.608,122.813c-16.737-10.105-32.596-20.045-47.157-33.414
			c2.144,0.332,4.423,0.374,6.759,0.217c13.168,11.023,28.781,18.719,42.456,29.129
			C173.985,120.105,173.289,121.455,172.608,122.813z M175.515,117.067c-10.812-12.086-28.871-18.1-41.906-27.548
			c2.567-0.235,5.153-0.619,7.607-0.936c0.011,0.01,0.009,0.025,0.021,0.034c6.419,4.805,12.701,9.798,18.982,14.784
			c5.128,4.07,10.218,9.12,15.996,12.282C175.983,116.145,175.746,116.604,175.515,117.067z M176.878,114.372
			c-4.479-4.68-10.469-8.443-15.603-12.341c-6.229-4.728-12.549-9.305-19.109-13.559c1.726-0.21,3.396-0.385,4.91-0.412
			c2.095-0.038,2.347-2.901,0.757-3.559c0.01-0.182-0.006-0.372,0-0.555c10.074,8.774,20.147,18.666,31.299,25.971
			C178.388,111.405,177.622,112.883,176.878,114.372z M180.002,108.179c-9.701-9.442-21.446-17.544-32.169-25.779
			c-0.08-2.678-0.477-5.455-0.646-8.063c2.043,4.198,10.208,9.489,12.27,11.16c7.045,5.707,15.174,12.911,23.807,16.17
			C182.168,103.833,181.089,106.008,180.002,108.179z M184.627,98.955c-0.209,0.41-0.411,0.824-0.619,1.234
			c-6.219-3.854-12.227-7.975-18.137-12.294c-4.102-2.997-8.108-6.116-12.028-9.346c-1.221-1.006-6.651-4.593-6.467-6.528
			c0.02-0.207-0.148-0.267-0.318-0.245c-0.055-1.424-0.112-2.848-0.164-4.273c5.097,5.21,10.944,10.497,17.078,14.618
			c0.208,0.889,0.358,1.79,0.656,2.659c-0.176,0.336-0.17,0.73,0.078,1.09c0.274,0.649,0.823,1.086,1.417,1.706
			c-0.005,0.446,0.276,0.907,0.821,0.932c2.784,0.128,5.564,0.182,8.347,0.212c2.52,3.154,6.38,6.588,10.404,7.805
			C185.296,97.48,184.938,98.344,184.627,98.955z M186.273,95.167c-1.7-0.782-3.438-1.441-5.07-2.413
			c-1.817-1.082-3.396-2.487-4.83-4.029c1.38,0.011,2.76,0.027,4.143,0.028c0.096,0,0.198,0.005,0.295,0.005
			c0.021,0.02,0.018,0.049,0.042,0.067c2.019,1.434,4.025,3.346,6.248,4.542C186.81,93.965,186.53,94.573,186.273,95.167z"/>
	</g>
</g>
<g>
</g>
<g>
</g>
<g>
</g>
<g>
</g>
<g>
</g>
<g>
</g>
<g>
</g>
<g>
</g>
<g>
</g>
<g>
</g>
<g>
</g>
<g>
</g>
<g>
</g>
<g>
</g>
<g>
</g>
</svg>
