<?xml version="1.0" encoding="iso-8859-1"?>
<!-- Generator: Adobe Illustrator 16.0.0, SVG Export Plug-In . SVG Version: 6.00 Build 0)  -->
<!DOCTYPE svg PUBLIC "-//W3C//DTD SVG 1.1//EN" "http://www.w3.org/Graphics/SVG/1.1/DTD/svg11.dtd">
<svg version="1.1" id="Capa_1" xmlns="http://www.w3.org/2000/svg" xmlns:xlink="http://www.w3.org/1999/xlink" x="0px" y="0px"
	 width="188.847px" height="188.847px" viewBox="0 0 188.847 188.847" style="enable-background:new 0 0 188.847 188.847;"
	 xml:space="preserve">
<g>
	<g>
		<path d="M154.853,20.175c-0.145-4.53-0.283-10.999-3.533-14.6c0.121-1.429-0.575-2.959-2.133-3.245
			c-16.977-3.125-35.582-1.927-52.833-2.245C78.087-0.252,59.571,0.28,41.651,4.088c-2.256,0.479-2.299,3.494-0.77,4.619
			c-1.176,2.865-0.798,6.917-0.693,9.467c0.279,6.763,1.472,13.778,3.623,20.248c-0.28,0.29-0.582,0.552-0.811,0.903
			c-0.186,0.288-0.114,0.692,0.12,0.928c3.771,3.796,10.626,1.896,15.548,1.892c10.769-0.009,21.534,0.275,32.3,0.471
			c18.893,0.343,42.551,4.926,60.943,0.287c2.471-0.624,2.979-3.627,1.61-5.323C154.771,31.901,155.037,25.941,154.853,20.175z
			 M148.268,20.175c0.155,1.16,0.267,2.321,0.354,3.483c-3.597-5.081-8.162-9.872-12.738-14.347c3.312-0.089,6.6-0.288,9.839-0.695
			C146.026,12.455,147.763,16.384,148.268,20.175z M58.669,35.363c-3.125,0.191-7.373-0.122-10.836,0.802
			c-0.439-3.821-0.498-7.611-0.455-11.391c2.221,1.957,4.416,3.945,6.589,5.959c1.557,1.444,3.128,3.09,4.78,4.626
			C58.722,35.361,58.695,35.362,58.669,35.363z M63.48,35.127c-2.381-2.247-5.197-4.23-7.589-6.318
			c-2.784-2.43-5.592-4.829-8.464-7.154c0.059-2.713,0.101-5.428,0.096-8.147c4.816,4.95,9.672,9.852,14.87,14.411
			c2.615,2.293,5.549,4.872,8.696,6.98C68.551,34.97,66.015,35.008,63.48,35.127z M93.036,34.672c0.08-0.53-0.043-1.091-0.442-1.472
			c-4.557-4.362-11.68-7.35-16.922-11.042c-6.319-4.45-12.466-9.309-19.483-12.628c-1.358-0.642-2.527,1.264-1.192,2.039
			c7.195,4.182,13.733,9.392,20.286,14.493c3.298,2.568,7.357,6.512,11.609,8.635c-2.658-0.003-5.315-0.014-7.974,0.016
			c-5.16-3.67-10.838-6.545-15.867-10.578c-5.476-4.391-10.54-9.282-15.582-14.158c-0.012-0.374,0.001-0.747-0.017-1.122
			c6.174-0.373,12.335-0.632,18.496-0.83c5.828,6.894,12.954,12.485,20.111,17.937c3.567,2.717,7.245,5.762,11.029,8.643
			C95.729,34.632,94.356,34.669,93.036,34.672z M104.812,34.392c-4.037-2.934-8.518-5.484-12.432-8.196
			c-8.095-5.609-15.738-11.65-22.98-18.283c3.523-0.094,7.048-0.139,10.575-0.176c4.886,5.635,10.075,10.999,15.436,16.183
			c3.51,3.394,7.406,7.174,11.577,10.392C106.265,34.339,105.531,34.367,104.812,34.392z M113.827,34.07
			c-5.31-4.195-11.081-7.899-16.2-12.366c-5.006-4.369-9.57-9.18-14.115-14.012c2.915-0.014,5.839,0.02,8.761,0.047
			c6.101,5.103,11.831,10.595,17.586,16.08c3.405,3.245,6.941,6.972,10.801,10.078C118.378,33.938,116.098,33.994,113.827,34.07z
			 M127.41,33.857c-5.322-4.972-11.623-9.211-17.091-14.004c-4.703-4.124-9.419-8.21-14.315-12.093c0.116,0.002,0.231,0,0.349,0.002
			c3.116,0.054,6.282,0.207,9.466,0.384c5.922,5.564,11.344,11.615,16.993,17.45c2.409,2.488,5.167,5.691,8.198,8.353
			C129.812,33.913,128.618,33.869,127.41,33.857z M138.696,34.374c-1.735-1.568-3.769-2.818-5.601-4.306
			c-3.261-2.651-6.301-5.58-9.335-8.483c-4.64-4.438-9.239-8.918-14.008-13.215c2.755,0.172,5.524,0.352,8.297,0.514
			c5.806,3.733,10.344,10.016,14.711,15.092c2.308,2.683,5.341,7.301,8.728,10.715C140.559,34.584,139.64,34.457,138.696,34.374z
			 M142.918,29.2c-3.324-3.332-6.475-6.84-9.691-10.272c-2.792-2.979-5.993-6.832-9.603-9.755c2.736,0.119,5.467,0.173,8.187,0.18
			c1.934,2.164,3.832,4.356,5.674,6.602c3.175,3.868,5.993,8.34,9.628,11.772c0.514,0.485,1.157,0.56,1.729,0.394
			c0.062,2.228,0.078,4.457,0.109,6.686C147.197,32.768,144.761,31.048,142.918,29.2z"/>
		<path d="M136.313,96.502c-9.722-11.604-19.494-25.049-31.526-34.405c-1.711-1.331-3.924-1.658-5.602,0
			C86.15,74.976,72.388,87.118,59.108,99.742c-4.701,4.47-20.862,15.543-23.294,23.794c-0.469,0.054-0.978,0.108-1.431,0.159
			c-2.803,0.319-2.801,4.037,0,4.358c5.901,0.675,11.847,0.758,17.761,1.311c6.392,0.598,12.971,2.439,19.355,2.304
			c0.188-0.004,0.352-0.068,0.527-0.105c-1.017,0.902-1.574,2.011-2.169,4.665c-1.299,5.789-0.694,12.128-0.328,17.98
			c0.418,6.688-0.124,25.622,5.779,29.896c0.681,0.493,1.431,0.533,2.13,0.319c0.079,0.848,0.554,1.645,1.463,1.779
			c7.289,1.085,14.847,1.027,22.195,1.448c5.863,0.337,13.163,2.129,18.893,0.563c1.804-0.272,2.222-1.74,1.847-3.103
			c3.662-4.864,2.146-15.046,2.267-20.511c0.243-11.049,0.549-22.103,1.42-33.122c4.074-0.136,8.147-0.281,12.229-0.319
			c4.44-0.042,9.511,0.561,13.781-0.872c1.41-0.472,2.08-1.572,2.194-2.723c1.621-0.172,3.099-2.028,2.799-3.8
			C154.911,114.204,142.169,103.491,136.313,96.502z M45.103,122.636c2.306-1.715,4.544-3.613,6.735-5.596
			c1.89,1.729,3.714,3.533,5.549,5.332C53.312,122.178,49.121,122.329,45.103,122.636z M60.204,122.563
			c-2.226-2.343-4.59-4.61-7.085-6.71c1.618-1.499,3.219-3.023,4.793-4.554c3.244,4.535,6.856,8.758,10.684,12.797
			C65.978,123.317,63.141,122.833,60.204,122.563z M102.815,181.972c-1.752-0.026-3.526-0.084-5.311-0.142
			c-3.287-3.175-6.783-6.012-9.774-9.629c-1.793-2.169-3.443-4.456-4.98-6.81c-0.66-1.01-2.447-2.744-2.706-3.891
			c-0.155-0.688-1.206-0.521-1.208,0.164c-0.014,4.662,3.695,8.91,6.325,12.52c1.525,2.093,3.552,5.082,5.915,7.479
			c-3.762-0.056-7.521,0.009-11.19,0.446c2.549-5.704-2.269-20.346-2.857-25.517c-0.368-3.227-0.632-6.455-0.83-9.688
			c10.17,11.801,19.871,24.177,31.168,34.929C105.771,181.915,104.213,181.992,102.815,181.972z M112.759,181.687
			c-0.051-0.059-0.068-0.122-0.128-0.177c-12.931-11.907-24.517-24.907-36.402-37.83c-0.058-0.062-0.12-0.088-0.181-0.131
			c-0.034-0.918-0.111-1.833-0.125-2.754c-0.025-1.663-0.693-7.127-0.292-9.667c13.708,13.133,28.882,25.05,39.799,40.715
			c-0.364,3.563-0.497,7.102,0.068,9.962C114.607,181.718,113.684,181.696,112.759,181.687z M117.18,158.351
			c-0.101,1.428-0.35,3.203-0.639,5.165c-4.545-7.497-12.985-14.021-18.529-18.993c-12.722-11.409-27.456-21.583-38.325-34.949
			c1.663-1.623,3.302-3.198,4.934-4.729c15.788,15.972,33.801,30.013,50.549,44.964c0.906,0.81,1.973,0.622,2.662,0.014
			C117.597,152.665,117.381,155.51,117.18,158.351z M119.718,125.525c-2.655,0.903-3.27,5.436,0,6.001
			c0.096,0.017,0.236,0.011,0.353,0.018c-0.938,5.166-1.533,10.387-2.007,15.618c-0.04-0.05-0.051-0.103-0.096-0.151
			c-15.32-16.449-35.015-28.583-51.483-43.896c0.145-0.132,0.293-0.277,0.439-0.407c2.095-1.877,4.189-3.759,6.284-5.641
			c13.229,13.374,26.958,27.813,42.429,38.357c1.728,1.178,3.834-1.542,2.237-2.9c-14.377-12.222-28.616-24.753-43.096-36.868
			c2.32-2.088,4.617-4.204,6.927-6.306c0.202,0.16,0.46,0.246,0.783,0.071c0.524-0.284,19.069,15.601,21.072,17.182
			c4.355,3.439,8.688,6.91,13.002,10.399c2.448,1.98,5.64,5.88,8.851,6.469c1.089,0.2,2.498-0.737,2.005-2.005
			c-1.28-3.294-5.717-5.548-8.413-7.627c-5.929-4.574-11.895-9.103-17.891-13.591c-1.81-1.354-13.083-11.401-17.823-12.343
			c3.15-2.874,6.291-5.76,9.408-8.669c17.047,13.271,30.277,29.114,44.964,44.454C131.912,123.938,125.223,123.652,119.718,125.525z
			 M144.714,123.378c-13.615-17.429-31.766-33.893-50.261-45.806c2.609-2.451,5.212-4.907,7.775-7.403
			c17.625,14.699,32.612,35.579,46.962,53.451C147.729,123.402,146.223,123.363,144.714,123.378z"/>
	</g>
</g>
<g>
</g>
<g>
</g>
<g>
</g>
<g>
</g>
<g>
</g>
<g>
</g>
<g>
</g>
<g>
</g>
<g>
</g>
<g>
</g>
<g>
</g>
<g>
</g>
<g>
</g>
<g>
</g>
<g>
</g>
</svg>
