<?xml version="1.0" encoding="iso-8859-1"?>
<!-- Generator: Adobe Illustrator 16.0.0, SVG Export Plug-In . SVG Version: 6.00 Build 0)  -->
<!DOCTYPE svg PUBLIC "-//W3C//DTD SVG 1.1//EN" "http://www.w3.org/Graphics/SVG/1.1/DTD/svg11.dtd">
<svg version="1.1" id="Capa_1" xmlns="http://www.w3.org/2000/svg" xmlns:xlink="http://www.w3.org/1999/xlink" x="0px" y="0px"
	 width="195.523px" height="195.524px" viewBox="0 0 195.523 195.524" style="enable-background:new 0 0 195.523 195.524;"
	 xml:space="preserve">
<g>
	<g>
		<path d="M194.871,105.78C172.04,67.725,140.537,23.525,90.043,29.975C54.542,34.511,1.298,65.11,0.192,105.598
			c-0.206,0.493-0.278,1.053-0.056,1.679c14.368,40.606,55.426,59.131,96.25,58.901c33.976-0.192,86.601-18.164,98.338-54.339
			c0.186-0.57,0.167-1.111,0.071-1.629C195.63,109.018,195.863,107.434,194.871,105.78z M152.644,142.106
			c-15.91,9.228-34.418,13.668-52.63,14.919c-40.116,2.755-75.18-16.052-94.442-50.987c9.535-36.768,52.308-62.996,88.148-67.608
			c44.934-5.782,73.124,38.695,93.338,71.327C176.095,122.196,167.649,133.403,152.644,142.106z"/>
		<path d="M94.599,61.931c-2.806,1.076-3.073,4.928-0.79,6.181c-0.616,1.474-0.301,3.334,1.35,4.36
			c3.782,2.352,7.014,2.976,6.865,8.149c-0.138,4.772-3.771,9.152-7.103,12.176c-8.379,7.605-16.713,2.272-25.716,1.009
			c0.043-0.665-0.568-1.326-1.275-0.864c-0.136,0.088-0.224,0.211-0.35,0.306c-0.399-1.616-2.689-2.408-3.923-0.627
			c-22.898,33.042,37.84,53.766,60.875,37.209C154.505,108.292,133.452,47.039,94.599,61.931z M127.743,82.854
			c2.553,4.583,3.672,9.634,3.652,14.702c-2.64-3.523-7.217-6.634-10.095-9.381c-4.016-3.831-7.964-7.722-11.786-11.74
			c-0.731-3-2.476-5.757-4.883-7.692C114.261,69.492,121.985,72.518,127.743,82.854z M65.456,106.968
			c1.432,3.843,3.946,7.374,6.448,10.531c0.826,1.044,1.719,2.037,2.636,3.012C69.82,116.865,66.422,112.261,65.456,106.968z
			 M90.34,127.954c-3.225-3.541-8.303-6.469-11.482-9.351c-6.043-5.478-10.628-11.374-12.156-19.504
			c-0.083-0.443-0.348-0.653-0.656-0.765c0.053-0.175,0.08-0.344,0.139-0.519c0.112,0.175,0.233,0.344,0.383,0.476
			c2.975,2.618,6.348,4.326,9.866,5.257c6.371,9.645,14.877,18.76,24,25.805C97.083,129.25,93.671,128.799,90.34,127.954z
			 M106.154,129.114c-0.036-0.45-0.188-0.896-0.555-1.269c-8.034-8.186-16.985-14.889-24.399-23.512
			c2.674,0.174,5.36-0.118,7.976-0.749c4.792,5.326,9.417,10.797,14.15,16.175c1.93,2.192,5.194,6.899,8.681,8.085
			C110.135,128.417,108.197,128.881,106.154,129.114z M115.63,126.454c-0.009-0.252-0.071-0.501-0.21-0.723
			c-2.311-3.673-7.132-6.541-10.221-9.605c-4.435-4.396-8.575-9.099-13.076-13.426c2.005-0.725,3.919-1.71,5.73-2.871
			c4.064,3.071,7.622,6.678,11.056,10.491c3.799,4.22,7.216,9.165,11.558,12.866C119.016,124.469,117.423,125.591,115.63,126.454z
			 M123.507,119.992c-3.541-4.409-7.983-8.337-11.974-12.297c-3.511-3.485-7.202-6.811-11.258-9.629
			c1.361-1.095,2.66-2.277,3.805-3.639c0.377-0.449,0.734-0.927,1.088-1.407c4.139,3.099,7.685,7.121,11.075,10.919
			c2.743,3.075,5.816,7.882,10.162,8.644c0.942,0.166,1.659-0.278,2.007-0.91C127.132,114.65,125.479,117.463,123.507,119.992z
			 M128.553,111.338c0.213-0.689,0.032-1.505-0.754-2.061c-7.64-5.411-13.095-13.688-20.826-19.038
			c1.652-2.908,2.785-6.154,2.967-9.44c2.512,2.979,5.058,5.93,7.634,8.851c3.437,3.896,7.768,10.731,12.626,12.854
			c0.262,0.113,0.516,0.166,0.762,0.188C130.501,105.651,129.713,108.568,128.553,111.338z"/>
	</g>
</g>
<g>
</g>
<g>
</g>
<g>
</g>
<g>
</g>
<g>
</g>
<g>
</g>
<g>
</g>
<g>
</g>
<g>
</g>
<g>
</g>
<g>
</g>
<g>
</g>
<g>
</g>
<g>
</g>
<g>
</g>
</svg>
