<?xml version="1.0" encoding="iso-8859-1"?>
<!-- Generator: Adobe Illustrator 16.0.0, SVG Export Plug-In . SVG Version: 6.00 Build 0)  -->
<!DOCTYPE svg PUBLIC "-//W3C//DTD SVG 1.1//EN" "http://www.w3.org/Graphics/SVG/1.1/DTD/svg11.dtd">
<svg version="1.1" id="Capa_1" xmlns="http://www.w3.org/2000/svg" xmlns:xlink="http://www.w3.org/1999/xlink" x="0px" y="0px"
	 width="190.891px" height="190.891px" viewBox="0 0 190.891 190.891" style="enable-background:new 0 0 190.891 190.891;"
	 xml:space="preserve">
<g>
	<path d="M173.935,185.038c-10.26-43.674-12.957-93.056-1.017-136.672c0.668-2.44-0.399-4.324-2.046-5.362
		c-0.225-0.376-0.494-0.745-0.856-1.095c-12.12-11.719-26.562-20.945-37.263-34.116c-0.18-0.22-0.398-0.315-0.596-0.478
		c0.838-2.33-0.477-5.113-3.526-5.225c-17.906-0.653-36.297,3.887-54.659,3.197C62.841,4.867,51.79,3.734,40.774,2.098
		C34.999,1.24,30.098-1.196,24.771,0.711c-2.417-1.122-5.711,0.096-6.124,3.738c-3.349,29.517-1.019,60.819-0.385,90.496
		c0.6,28.074,1.849,56.49,6.89,84.174c-1.716,0.496-2.289,2.458-2.07,4.019c0.011,0.081,0.023,0.162,0.034,0.242
		c0.11,0.782,0.665,1.292,1.323,1.624c-0.013,0.016-0.025,0.031-0.037,0.049c0.168,0.072,0.348,0.109,0.517,0.178
		c0.017,0.006,0.033,0.011,0.049,0.017c8.891,3.587,19.774,1.519,29.063,1.586c18.1,0.134,36.202,0.743,54.307,0.913
		c16.499,0.155,43.304,6.603,59.628,0.574c0.507,0.024,0.96-0.088,1.368-0.271C171.049,189.734,174.556,187.683,173.935,185.038z
		 M125.67,12.1c0.103,0.297,0.155,0.598,0.347,0.889c9.413,14.293,24.352,23.752,36.45,35.557
		c-5.517,21.464-8.298,45.465-7.614,69.257c-2.73-2.504-5.883-4.688-8.975-6.198c-8.852-4.322-18.881-4.936-29.21-3.575
		c-2.638-4.232-4.856-8.11-6.49-10.76c-5.885-9.538-12.987-18.184-19.177-27.425c1.56-5.336,2.913-10.742,3.978-16.246
		c1.182-6.102,1.819-29.669-4.838-37.188C102.58,16.908,115.988,16.361,125.67,12.1z M145.964,133.354
		c-8.518,1.091-16.908-7.482-23.711-16.931c4.441-0.593,8.908-0.696,13.281,0.165C139.447,117.357,167.564,130.59,145.964,133.354z
		 M69.95,122.712c1.227-2.821,2.458-5.64,3.731-8.43c5.248-11.496,10.225-23.082,14.295-34.976
		c4.181,5.381,8.447,10.665,11.849,16.199c2.453,3.991,5.244,8.904,8.389,14.005C94.984,112.479,81.649,117.98,69.95,122.712z
		 M88.375,34.928c0.784,8.408-0.894,17.143-3.069,25.513c-1.462-2.673-2.847-5.398-4.024-8.263
		c-2.389-6.236-2.871-12.74-1.447-19.512C82.094,18.448,87.658,27.232,88.375,34.928z M68.745,14.873
		c3.38,0.275,7.307,0.634,11.516,0.952c-0.793,0.487-1.61,1.045-2.482,1.761c-8.089,6.651-7.224,22.423-5.749,31.468
		c1.358,8.33,5.345,15.594,10.145,22.459c-5.756,19.245-14.912,37.461-23.264,55.73c-0.363,0.239-0.681,0.497-0.932,0.808
		c-10.483,2.862-21.092,8.31-27.452,16.439c-1.049-16.49-1.921-32.983-2.296-49.546c-0.646-28.52,2.058-58.077-0.576-86.514
		C38.096,14.716,59.126,14.09,68.745,14.873z M54.411,136.783c-4.805,9.712-10.87,18.642-18.397,26.561
		c-3.076,3.3-3.828,3.698-2.256,1.197c-0.057-9.667,4.639-17.418,12.261-23.074C48.574,139.571,51.422,138.049,54.411,136.783z
		 M121.65,177.989c-28.659-1.214-59.981-3.529-88.821,0.029c-0.078-1.075-0.152-2.148-0.229-3.223
		c7.507-1.661,17.969-16.021,20.646-19.785c4.8-6.749,8.538-14.098,11.969-21.609c0.218-0.069,0.434-0.141,0.653-0.21
		c1.769-0.409,3.534-0.779,5.265-1.099c0.806-0.148,1.359-0.593,1.731-1.153c11.477-3.825,22.858-7.918,34.523-11.191
		c2.097-0.588,4.237-1.167,6.399-1.695c9.105,13.032,20.699,24.69,35.344,22.811c2.967-0.38,5.357-0.996,7.273-1.784
		c1.709,14.004,4.75,27.64,9.309,40.315C153.261,176.007,133.488,178.491,121.65,177.989z"/>
</g>
<g>
</g>
<g>
</g>
<g>
</g>
<g>
</g>
<g>
</g>
<g>
</g>
<g>
</g>
<g>
</g>
<g>
</g>
<g>
</g>
<g>
</g>
<g>
</g>
<g>
</g>
<g>
</g>
<g>
</g>
</svg>
