<?xml version="1.0" encoding="iso-8859-1"?>
<!-- Generator: Adobe Illustrator 16.0.0, SVG Export Plug-In . SVG Version: 6.00 Build 0)  -->
<!DOCTYPE svg PUBLIC "-//W3C//DTD SVG 1.1//EN" "http://www.w3.org/Graphics/SVG/1.1/DTD/svg11.dtd">
<svg version="1.1" id="Capa_1" xmlns="http://www.w3.org/2000/svg" xmlns:xlink="http://www.w3.org/1999/xlink" x="0px" y="0px"
	 width="186.844px" height="186.843px" viewBox="0 0 186.844 186.843" style="enable-background:new 0 0 186.844 186.843;"
	 xml:space="preserve">
<g>
	<path d="M185.604,94.488c-0.541-9.478-1.466-18.937-2.633-28.355c-0.388-3.132-0.312-7.443-1.636-10.682
		c0.055-0.602-0.035-1.245-0.332-1.889c-1.179-2.552-4.721-2.987-9.193-2.327c0.624-1.115,0.778-2.527,0.129-3.705
		c-2.681-4.867-12.813-10.356-17.772-12.343C131.729,26.192,110.423,15,87.497,6.984c-0.702-0.245-1.336-0.158-1.901,0.074
		c-0.227-0.12-0.401-0.293-0.675-0.364c-4.083-1.059-8.546,2.005-12.292,3.436c-8.601,3.287-17.255,6.429-25.852,9.725
		c-13.044,5.002-28.436,9.77-39.152,19.072c-1.2,1.041-1.391,2.891-0.815,4.323c-1.384,0.057-2.709,0.951-2.53,2.604
		c0.025,0.236,0.04,0.477,0.063,0.714c-0.159,0.604-0.129,1.252,0.165,1.87c2.315,31.025-12.711,68.997,2.121,97.442
		c0.934,1.791,2.794,2.057,4.289,1.402c5.554,18.852,72.566,38.838,85.378,31.547c0.822-0.467,1.295-1.17,1.487-1.931
		c0.049-0.034,0.1-0.042,0.148-0.08c14.862-11.631,37.373-14.528,55-20.047c8.839-2.767,29.221-7.411,29.713-19.296
		c0.003-0.084-0.025-0.163-0.03-0.246C189.23,125.837,186.279,106.32,185.604,94.488z M86.047,13.165
		c18.167,8.812,36.78,16.711,54.957,25.484c8.307,4.01,16.019,8.842,24.22,12.984c0.456,0.263,0.924,0.508,1.37,0.724
		c-9.4,2.519-20.311,7.658-23.205,8.683c-0.126,0.045-0.251,0.092-0.377,0.137c-0.291-0.505-0.708-0.973-1.309-1.355
		c-15.28-9.706-31.638-18.064-48.389-24.919c-9.479-3.879-21.161-9.057-32.614-10.975C69.062,21.567,81.834,18.321,86.047,13.165z
		 M129.579,94.893c-0.964-6.316-1.792-12.687-3.073-18.942c4.264-1.532,8.523-3.073,12.792-4.586
		c2.473-0.875,4.953-1.725,7.431-2.585c-1.211,4.389-0.882,10.112-1.365,13.586C144.137,91.174,137.304,93.748,129.579,94.893z
		 M93.077,126.406c-0.278,9.609-0.861,19.217-1.646,28.797c-0.431,5.261-2.038,11.269-1.294,16.578
		c-4.005-0.416-8.229-0.336-12.056-1.018c-9.382-1.671-18.568-4.581-27.538-7.742c-8.491-2.992-16.706-6.82-24.44-11.422
		c-4.701-2.797-8.443-8.365-13.406-10.227c-0.031-0.01-0.06,0-0.091-0.01c-7.197-29.201,2.947-58.658-1.353-87.774
		C35.221,69.136,64.17,75.98,89.909,87.901c0.869,0.402,1.716,0.49,2.494,0.361c0.136,2.688,0.188,5.341,0.32,6.714
		C93.724,105.371,93.379,115.985,93.077,126.406z M95.167,80.075c-0.397-0.16-0.811-0.269-1.208-0.263
		c-0.596-0.047-1.19-0.093-1.787-0.14c-0.213-0.051-0.388,0.002-0.54,0.092C64.806,67.728,36.884,59.032,10.574,45.739
		c0.689-0.007,1.37-0.165,1.885-0.546c10.375-7.653,23.178-12.341,35.446-16.839c30.792,5.817,59.508,20.14,86.428,35.982
		c-8.249,3.002-16.471,6.079-24.595,9.406C105.613,75.431,99.54,77.267,95.167,80.075z M176.752,135.753
		c-13.081,9.135-27.247,13.371-42.617,17.939c-10.722,3.187-25.486,6.363-35.322,13.696c3.08-10.374,1.716-25.69,2.07-34.163
		c0.603-14.368,2.582-33.04-2.39-47.448c3.67-0.967,7.449-2.686,10.618-3.744c4.06-1.356,8.093-2.79,12.126-4.224
		c-0.533,7.358,0.601,14.984,1.711,22.139c0.229,1.481,2.078,2.857,3.554,2.707c9.604-0.983,21.082-3.149,24.859-13.376
		c1.349-3.653,1.671-7.545,2.028-11.395c0.334-3.59,2.047-8.163,1.254-11.818c3.604-1.218,7.214-2.428,10.836-3.59
		c1.477-0.474,4.9-1.557,7.842-2.501c0.355,2.18,0.965,4.379,1.204,6.159c1.109,8.259,1.826,16.573,2.444,24.881
		C178.008,104.931,180.397,121.914,176.752,135.753z"/>
</g>
<g>
</g>
<g>
</g>
<g>
</g>
<g>
</g>
<g>
</g>
<g>
</g>
<g>
</g>
<g>
</g>
<g>
</g>
<g>
</g>
<g>
</g>
<g>
</g>
<g>
</g>
<g>
</g>
<g>
</g>
</svg>
