<?xml version="1.0" encoding="iso-8859-1"?>
<!-- Generator: Adobe Illustrator 16.0.0, SVG Export Plug-In . SVG Version: 6.00 Build 0)  -->
<!DOCTYPE svg PUBLIC "-//W3C//DTD SVG 1.1//EN" "http://www.w3.org/Graphics/SVG/1.1/DTD/svg11.dtd">
<svg version="1.1" id="Capa_1" xmlns="http://www.w3.org/2000/svg" xmlns:xlink="http://www.w3.org/1999/xlink" x="0px" y="0px"
	 width="192.405px" height="192.405px" viewBox="0 0 192.405 192.405" style="enable-background:new 0 0 192.405 192.405;"
	 xml:space="preserve">
<g>
	<g>
		<path d="M192.099,131.921c1.37-3.345-1.994-4.879-7.497-5.377c5.344-23.639,5.353-49.826,0.839-73.543
			c-0.316-1.667-2.157-1.645-3.094-0.684c-4.413-0.24-9.677-0.667-13.892,0.513c-1.586,0.444-1.272,2.878,0.388,2.868
			c4.418-0.024,8.881,0.464,13.296,0.362c3.939,23.3,2.567,47.003-0.58,70.316c-9.055-0.235-21.766,1.479-30.01,2.736
			c1.817-4.865,2.438-9.964,2.657-15.125c0.337-0.402,0.422-0.998,0.035-1.46c0.037-1.259,0.073-2.52,0.083-3.782
			c0.061-8.036,0.307-17.583-1.554-25.426c-0.34-1.436-2.639-1.488-2.944,0c-0.016,0.072-0.02,0.148-0.033,0.222
			c-0.171-0.119-0.368-0.213-0.606-0.258c-3.306-0.629-6.861-0.687-10.2-0.346c-1.739,0.177-3.229,0.464-3.913,1.76
			c-0.933-1.029-2.869-1.079-3.17,0.634c-2.653,15.063-4.03,30.946-2.188,46.214c-3.132,0.211-6.266,0.409-9.411,0.557
			c1.617-28.23,0.046-56.654,1.245-84.93c0.095-2.236-3.05-2.378-3.641-0.506c-5.906-0.688-11.828-1.16-17.646,0.375
			c-0.08,0.021-0.128,0.067-0.199,0.096c-0.995-0.489-2.446-0.027-2.488,1.441c-0.241,8.469-1.675,75.445,2.219,84.189
			c-2.599,0.056-5.199,0.116-7.796,0.168c-0.129-1.096-0.211-2.188-0.321-3.281c0.09-0.349,0.108-0.738-0.031-1.163
			c-0.02-0.06-0.069-0.075-0.095-0.125c-0.376-3.992-0.616-7.976-0.791-11.958c0.531-0.347,0.733-1.109,0.204-1.631
			c-0.081-0.08-0.202-0.119-0.292-0.19c-0.55-14.477-0.06-28.919-0.073-43.517c-0.001-1.589-1.603-2.103-2.705-1.587
			c-1.795-0.387-4.087,0.211-5.793,0.356c-2.288,0.196-4.744,0.228-6.959,0.893c-0.189,0.057-0.266,0.203-0.4,0.306
			c-0.233-1.888-2.702-1.836-2.95,0.032c-1.493,11.209-1.76,22.807-2.451,34.103c-0.566,9.266-1.259,19.322,1.635,28.286
			c-2.178,0.075-4.357,0.145-6.525,0.242c-1.349,0.062-2.76,0.128-4.13,0.193c2.768-13.521,1.331-27.018,0.152-40.686
			c-1.484-17.217-0.913-34.41-0.773-51.662c0.011-1.326-1.1-1.904-2.121-1.788c-2.344-1.276-6.021-1.131-8.552-1.234
			c-1.697-0.07-3.4-0.115-5.099-0.093c-0.674,0.009-1.339,0.002-1.99,0.198c-0.151,0.046-0.421,0.259-0.656,0.472
			c-0.62-0.532-1.733-0.527-2.319,0.295c-6.58,9.229-3.081,26.291-2.491,36.726c1.094,19.344,2.516,39.37,0.994,58.689
			c-3.07,0.066-6.146,0.098-9.213,0.077c3.361-13.89-0.065-27.558,0.742-41.638c0.41-7.141,3.997-20.256-0.764-26.484
			c-0.7-0.915-1.93-0.867-2.54-0.191c-0.077-0.009-0.134-0.044-0.217-0.044l-12.653-0.023c-0.825-0.002-1.341,0.47-1.563,1.062
			c-0.821-0.333-1.868-0.091-2.054,0.975c-3.579,20.523-4.996,44.167-3.321,64.928c-1.601-0.213-3.212-0.399-4.783-0.671
			c-0.7-0.12-1.399,0.566-0.971,1.264c0.153,0.25,0.358,0.421,0.531,0.64c-1.06,2.102-0.409,6.328-0.377,8.241
			c0.031,1.877-0.018,5.729,1.745,7.132c3.777,7.31,46.253,2.153,53.43,1.867c10.194-0.407,20.377-0.688,30.558-0.921
			c0.448,0.27,0.892,0.452,1.316,0.404c0.292-0.033,0.556-0.219,0.735-0.466c5.006-0.11,10.009-0.183,15.013-0.268
			c0.052,0.016,0.103,0.048,0.155,0.061c0.246,0.062,0.466,0.017,0.659-0.075c28.204-0.47,56.395-0.622,84.659-1.228
			c1.503-0.032,1.992-1.529,1.509-2.562c0.162-0.479,0.273-0.987,0.375-1.456c0.451-2.094,0.685-4.245,0.954-6.367
			c0.222-1.738,0.921-4.731,0.697-7.133C192.091,131.933,192.096,131.928,192.099,131.921z M148.699,86.89
			c0.266,0.025,0.502-0.012,0.712-0.092c-0.072,1.227-0.001,2.49,0.047,3.748c-0.729-0.445-1.448-0.884-2.092-1.328
			c-1.306-0.901-2.667-1.974-4.079-2.915C145.091,86.488,146.889,86.708,148.699,86.89z M135.548,86.337
			c0.023-0.13-0.007-0.238-0.007-0.359c0.004-0.012,0.016-0.014,0.019-0.025c0.006-0.026,3.252,0.056,4.689,0.102
			c1.763,1.746,4,3.2,5.931,4.7c1.056,0.82,2.211,1.925,3.428,2.858c0.116,1.367,0.239,2.737,0.384,4.092
			c-1.811-0.768-5.183-3.842-5.847-4.352c-2.506-1.926-5.079-4.302-8.177-5.192c-0.635-0.183-0.866,0.748-0.268,0.972
			c4.131,1.551,7.367,5.245,10.646,8.059c0.661,0.566,2.411,2.148,3.842,2.458c0.133,1.319,0.25,2.623,0.315,3.885
			c0.019,0.369,0.016,0.739,0.032,1.108c-0.115,0.011-0.207,0.039-0.308,0.09c-1.021-0.813-2.074-1.941-2.652-2.414
			c-2.11-1.732-4.217-3.469-6.312-5.218c-2.024-1.69-4.577-3.437-6.544-5.412C134.96,89.904,135.227,88.121,135.548,86.337z
			 M134.471,93.743c1.858,1.982,4.291,3.721,6.1,5.33c2.226,1.982,4.469,3.945,6.711,5.909c1.049,0.919,2.073,2.232,3.345,2.795
			c0.01,0.543,0.041,1.085,0.047,1.628c-0.137-0.104-0.263-0.214-0.402-0.318c-0.254-0.188-0.544-0.109-0.774,0.058
			c-2.76-2.086-5.413-4.332-8.119-6.461c-1.998-1.573-4.658-4.36-7.348-5.135C134.16,96.28,134.317,95.011,134.471,93.743z
			 M133.928,98.634c1.069,0.624,2.104,1.722,2.91,2.394c1.871,1.562,3.711,3.161,5.558,4.752c2.688,2.314,5.401,4.636,8.243,6.773
			c-0.023,1.528-0.033,3.058-0.127,4.58c-3.238-2.92-6.781-5.666-10.117-8.443c-1.392-1.16-2.921-2.033-4.478-2.953
			c-0.842-0.498-1.672-1.017-2.492-1.55c-0.003-0.001-0.009-0.005-0.012-0.008C133.547,102.331,133.749,100.482,133.928,98.634z
			 M133.33,105.511c1.107,0.924,2.233,1.732,2.468,1.894c3.024,2.075,5.588,4.51,8.269,7.013c1.635,1.526,3.868,4.327,6.261,5.07
			c-0.104,1.161-0.203,2.321-0.362,3.477c-0.28-0.02-0.545,0.066-0.726,0.284c-2.773-2.121-8.161-6.602-8.714-7.034
			c-2.403-1.878-4.825-4.396-7.488-6.061C133.122,108.605,133.224,107.059,133.33,105.511z M132.94,112.04
			c0.743,0.729,1.562,1.396,2.299,2.057c2.407,2.158,4.94,4.188,7.447,6.229c1.081,0.88,4.238,4.241,6.773,5.481
			c-0.167,0.917-0.278,1.842-0.488,2.754c-0.441-0.371-0.876-0.752-1.335-1.106c-0.204-0.158-0.415-0.214-0.606-0.2
			c-4.9-3.601-9.329-7.809-14.286-11.339C132.801,114.623,132.875,113.332,132.94,112.04z M132.337,125.026
			c1.317,0.964,2.682,1.874,4.049,2.724c1.254,0.78,3.215,2.351,4.776,1.662c0.601-0.265,0.445-1.091,0-1.396
			c-1.288-0.881-2.973-1.33-4.355-2.088c-1.51-0.825-2.942-1.765-4.39-2.685c0.085-1.903,0.17-3.8,0.253-5.699
			c4.974,3.899,9.474,8.361,14.447,12.264c-1.772,0.281-3.038,0.485-3.553,0.543c-3.836,0.43-7.691,0.774-11.56,1.059
			C132.132,129.279,132.239,127.151,132.337,125.026z M101.868,99.544c0.001-16.466-0.199-32.973-0.838-49.429
			c0.028-0.004,0.053,0.006,0.083,0.001c5.513-0.998,11.042-0.432,16.552,0.268c-1.154,27.146-1.708,54.717-0.03,81.826
			c-5.744,0.24-11.499,0.418-17.259,0.545C99.092,127.808,101.867,102.887,101.868,99.544z M88.878,130.21
			c0.201,0.925,0.348,1.859,0.578,2.779c-0.452,0.009-0.902,0.021-1.354,0.032c0.035-0.294-0.035-0.606-0.344-0.82
			c-5.089-3.518-10.065-7.039-14.668-11.177c-0.041-1.592-0.058-3.187-0.084-4.779c3.743,3.311,7.639,6.453,11.263,9.89
			C85.467,127.271,87.126,129.323,88.878,130.21z M79.663,132.292c-1.169,1.122-4.044-3.056-6.414-4.785
			c-0.03-1.44-0.069-2.88-0.107-4.318c2.068,1.976,4.191,3.893,6.397,5.713c1.743,1.438,3.663,3.183,5.789,4.187
			c-1.387,0.035-2.775,0.067-4.163,0.101c0.003-0.007,0.007-0.01,0.009-0.017C81.545,132.286,80.262,131.717,79.663,132.292z
			 M76.545,133.297c-1.072,0.029-2.151,0.044-3.221,0.077c0.003-1.188-0.029-2.373-0.045-3.56c0.907,0.996,1.776,2.024,2.726,2.981
			C76.17,132.965,76.354,133.133,76.545,133.297z M82.101,73.4c1.319-0.05,3.146,0.052,4.728-0.239
			c-0.025,1.273-0.066,2.565-0.099,3.848c-1.977-1.472-4.335-2.652-6.335-3.573C80.964,73.415,81.534,73.422,82.101,73.4z
			 M75.521,73.536c1.181,0.025,2.364-0.039,3.547-0.073c-0.275,0.316-0.332,0.797,0.154,1.068c1.439,0.804,2.854,1.646,4.224,2.565
			c1.149,0.77,2.166,1.722,3.214,2.618c-0.025,0.919-0.045,1.832-0.07,2.751c-1.747-0.775-3.557-2.181-5.032-3.137
			c-2.3-1.491-4.539-3.117-6.635-4.896c-0.018-0.381,0.008-0.766-0.017-1.145C75.096,73.395,75.262,73.531,75.521,73.536z
			 M86.538,84.456c-0.039,1.412-0.072,2.811-0.109,4.225c-0.276,0.085-0.508,0.291-0.532,0.629
			c-0.047-0.028-0.058-0.052-0.133-0.083c-0.554-0.234-1.062-0.593-1.558-0.926c-1.36-0.91-2.622-1.982-3.849-3.062
			c-1.833-1.611-3.579-3.315-5.35-4.993c0.038-1.333-0.031-2.653-0.057-3.979c1.821,1.638,3.724,3.189,5.68,4.652
			C82.212,82.102,84.384,84.063,86.538,84.456z M74.903,82.085c2.402,2.462,4.89,4.86,7.534,7.037
			c0.652,0.537,2.664,1.816,3.937,1.89c-0.032,1.373-0.078,2.742-0.099,4.116c-1.679-0.984-3.473-1.867-5.012-2.874
			c-2.302-1.508-4.522-3.151-6.668-4.883C74.737,85.605,74.822,83.845,74.903,82.085z M74.431,89.469
			c1.483,1.243,3.132,2.35,4.556,3.397c1.963,1.445,4.627,3.848,7.266,5.013c-0.015,1.99-0.028,3.981,0,5.97
			c-4.464-2.002-8.271-6.046-12.362-8.656C74.075,93.288,74.26,91.379,74.431,89.469z M73.104,105.176
			c0.138-2.874,0.388-5.777,0.664-8.693c2.848,1.983,5.516,4.234,8.24,6.378c1.239,0.975,2.716,2.193,4.307,2.882
			c0.051,2.213,0.084,4.428,0.216,6.631c-0.318-0.242-0.623-0.476-0.879-0.647c-1.808-1.215-3.559-2.517-5.272-3.862
			c-2.089-1.641-4.408-3.431-6.209-5.353c-0.19-0.201-0.533,0.008-0.459,0.268c0.892,3.131,4.222,5.429,6.686,7.438
			c1.794,1.462,3.657,2.841,5.554,4.164c0.226,0.157,0.481,0.353,0.738,0.546c0.139,1.799,0.303,3.594,0.516,5.382
			c-2.838-1.696-7.199-5.28-7.618-5.629c-2.254-1.875-4.452-3.876-6.542-5.965C73.07,107.535,73.048,106.359,73.104,105.176z
			 M73.016,110.601c3.863,4.086,10.378,10.401,14.521,11.97c0.186,1.336,0.349,2.676,0.585,4.004
			c-0.546-0.472-1.096-0.941-1.631-1.422c-1.554-1.4-3.08-2.812-4.756-4.065c-2.702-2.022-5.609-5.375-8.772-7.272
			C72.956,112.745,73.008,111.67,73.016,110.601z M41.444,41.411c0.039,0.037,0.094,0.097,0.116,0.111
			c0.461,0.27,0.989,0.305,1.504,0.37c1.557,0.193,3.163,0.17,4.728,0.263c2.748,0.164,5.459,0.364,8.138,0.966
			c-0.097,30.274,3.617,60.713,2.278,90.874c-5.881,0.278-11.865,0.559-17.941,0.731C45.928,104.42,33.224,71.164,41.444,41.411z
			 M25.684,71.458c0.104,0.017,0.207-0.01,0.311-0.008c0.236,1.832,0.301,3.691,0.31,5.558c-0.556-0.329-1.112-0.652-1.608-1.013
			c-1.94-1.409-3.61-3.155-5.02-5.088C21.667,70.997,23.66,71.15,25.684,71.458z M18.685,70.882
			c-0.061,0.129-0.079,0.28,0.015,0.453c1.035,1.908,2.384,3.526,3.927,5.046c0.939,0.926,2.282,2.272,3.661,3.113
			c-0.005,0.148,0.002,0.295-0.003,0.444c-0.202-0.091-0.404-0.178-0.605-0.282c-1.748-0.911-3.356-2.152-4.909-3.353
			c-2.264-1.75-4.434-3.629-6.569-5.538C15.707,70.79,17.195,70.83,18.685,70.882z M12.257,70.73
			c0.039,0.001,0.076,0.001,0.115,0.002c2.645,2.815,5.402,5.513,8.389,7.971c1.348,1.109,3.41,3.081,5.415,3.635
			c-0.085,1.35-0.189,2.698-0.308,4.045c-0.889,0.072-2.779-1.379-3.442-1.789c-1.744-1.08-3.382-2.335-5.016-3.573
			c-1.765-1.338-3.465-2.782-5.203-4.17C12.246,74.8,12.271,72.757,12.257,70.73z M12.153,79.183c1.85,1.704,3.89,3.27,5.731,4.748
			c1.591,1.276,5.211,4.853,7.822,4.407c-0.162,1.736-0.329,3.465-0.465,5.174c-0.075-0.046-0.131-0.118-0.224-0.136
			c-2.94-0.518-5.619-3.102-7.888-4.862c-1.674-1.3-3.365-2.663-5.146-3.869C12.054,82.819,12.104,81,12.153,79.183z M11.906,86.441
			c2.21,1.761,4.293,3.74,6.42,5.49c1.69,1.391,4.393,4.096,6.802,3.166c-0.023,0.335-0.053,0.673-0.072,1.006
			c-0.086,1.485-0.054,2.965-0.061,4.446c-0.471-0.143-0.967,0.039-1.042,0.558c-0.112-0.047-0.228-0.086-0.337-0.133
			c-0.764-0.322-1.481-0.77-2.188-1.198c-1.707-1.037-3.332-2.214-4.948-3.385c-1.342-0.973-3.079-2.702-4.841-3.769
			C11.748,90.558,11.817,88.501,11.906,86.441z M11.523,94.756c0.552,0.46,1.101,0.925,1.649,1.386
			c2.046,1.719,4.177,3.36,6.348,4.918c1.308,0.938,3.054,2.397,4.771,2.336c0.267-0.011,0.472-0.095,0.665-0.189
			c0.054,2.628,0.179,5.252,0.341,7.875c-2.095-1.452-4.287-2.797-6.332-4.309c-2.67-1.976-5.2-4.122-7.751-6.243
			C11.345,98.602,11.414,96.684,11.523,94.756z M11.097,102.238c2.229,2.02,4.445,4.058,6.765,5.968
			c2.324,1.914,4.822,4.016,7.586,5.319c0.146,2.224,0.292,4.449,0.41,6.677c-1.846-2.169-4.771-3.762-6.903-5.645
			c-2.739-2.418-5.412-4.914-8.211-7.264C10.871,105.61,10.979,103.923,11.097,102.238z M9.605,121.345
			c2.362,2.977,5.267,5.73,7.83,8.388c1.311,1.358,2.87,3.416,4.648,4.179c0.86,0.369,2.329,0.335,2.223-0.979
			c-0.047-0.593-0.478-0.882-0.924-0.886c-0.007-0.053-0.142-0.164-0.543-0.461c-0.667-0.494-1.285-1.038-1.9-1.595
			c-1.541-1.393-3.009-2.868-4.475-4.339c-2.128-2.134-4.231-4.776-6.653-6.678c0.085-0.968,0.157-1.944,0.239-2.913
			c1.92,1.954,3.865,3.873,5.899,5.727c2.338,2.132,4.864,5.229,7.881,6.378c0.812,0.31,1.558-0.939,0.866-1.487
			c-4.903-3.872-9.589-8.104-14.537-11.95c0.159-1.895,0.297-3.799,0.446-5.697c2.399,2.226,4.787,4.462,7.193,6.681
			c2.088,1.926,4.652,5.255,7.452,6.078c0.233,0.069,0.462-0.018,0.662-0.153c0.199,4.383,0.255,8.778-0.145,13.216
			c-2.39-0.04-4.764-0.138-7.133-0.251c0.115-0.396,0.07-0.847-0.374-1.153c-3.372-2.332-6.204-4.861-9.037-7.729
			C9.356,124.272,9.476,122.799,9.605,121.345z M8.502,133.634c0.183-1.95,0.358-3.957,0.54-5.928
			c1.991,2.571,4.407,5.019,7.064,6.762c-2.588-0.158-5.163-0.352-7.698-0.639C8.428,133.751,8.495,133.72,8.502,133.634z
			 M3.854,149.418c0.572-1.615,0.283-4.042,0.146-5.936c1.511,1.708,3.073,3.383,4.645,5.018c0.26,0.271,0.532,0.581,0.815,0.896
			C7.592,149.395,5.724,149.431,3.854,149.418z M12.647,149.382c-1.274-0.603-2.61-2.089-3.534-2.963
			c-1.729-1.636-3.359-3.404-5.138-4.99c0.09-1.198,0.325-2.783,0.318-4.253c0.14,0.047,0.3,0.056,0.443,0.096
			c1.795,3.254,4.236,6.302,6.581,9.081c0.508,0.603,1.497,1.867,2.645,3.018C13.523,149.369,13.085,149.381,12.647,149.382z
			 M18.446,149.32c-0.627-0.487-1.322-0.909-1.932-1.39c-1.454-1.145-2.736-2.52-3.992-3.87c-1.863-2.005-3.536-4.139-5.176-6.305
			c1.577,0.159,3.189,0.157,4.767,0.142c1.742,3.172,4.343,6.265,6.768,9.14c0.385,0.456,1.068,1.333,1.877,2.249
			C19.988,149.293,19.217,149.315,18.446,149.32z M24.556,149.232c-0.508-0.456-0.983-0.938-1.203-1.14
			c-1.556-1.422-2.969-3.007-4.374-4.574c-1.68-1.877-3.231-4.05-5.162-5.624c0.37-0.001,0.774-0.012,1.129-0.003
			c1.368,0.028,2.741,0.027,4.11,0.05c1.548,2.745,4.131,4.991,6.382,7.139c1.46,1.395,2.963,2.743,4.496,4.056
			C28.143,149.162,26.349,149.211,24.556,149.232z M34.134,149.06c-0.524-0.478-1.2-0.854-1.751-1.261
			c-1.842-1.356-3.588-2.851-5.324-4.34c-1.641-1.407-3.269-2.835-4.868-4.29c-0.422-0.384-0.995-0.787-1.525-1.209
			c1.941,0.027,3.889-0.021,5.832-0.008c2.632,3.359,5.463,6.572,8.357,9.705c0.258,0.28,0.673,0.787,1.161,1.36
			C35.388,149.027,34.761,149.048,34.134,149.06z M39.924,148.926c-1.326-1.12-2.612-2.296-3.867-3.488
			c-2.542-2.414-4.975-4.948-7.395-7.489c1.284,0.005,2.569-0.026,3.854-0.025c0.012,0.153,0.035,0.312,0.156,0.463
			c2.498,3.151,5.106,6.257,7.839,9.206c0.351,0.378,0.788,0.841,1.277,1.286C41.166,148.893,40.544,148.913,39.924,148.926z
			 M46.739,148.753c-0.223-0.529-0.798-0.918-1.396-0.538c-1.082,0.688-4.756-3.562-5.396-4.246c-1.861-1.99-3.585-4.22-5.616-6.059
			c1.956-0.002,3.912-0.045,5.868-0.057c0.387,2.096,2.114,4.19,3.284,5.66c1.114,1.398,2.808,3.763,4.722,5.197
			C47.717,148.725,47.228,148.741,46.739,148.753z M52.121,148.604c-0.022-0.028-0.025-0.067-0.051-0.092
			c-1.874-1.783-4.028-3.28-5.858-5.187c-0.931-0.97-3.42-3.413-4.392-5.487c1.644-0.013,3.286-0.051,4.929-0.069
			c0.608,2.629,3.516,5.197,5.16,7.038c1.145,1.281,2.358,2.503,3.596,3.696C54.376,148.535,53.249,148.573,52.121,148.604z
			 M59.09,148.397c-0.461-0.377-0.92-0.82-1.286-1.132c-1.362-1.162-2.644-2.424-3.911-3.688c-1.319-1.316-2.588-2.681-3.837-4.063
			c-0.34-0.378-1.175-1.117-1.707-1.771c1.725-0.021,3.448-0.063,5.172-0.093c0.959,2.546,3.361,5.011,5.023,6.878
			c0.865,0.971,2.38,2.855,3.999,3.76C61.392,148.324,60.241,148.363,59.09,148.397z M65.615,148.193
			c0.375-0.567-0.043-1.385-0.776-1.457c-0.663-0.065-1.768-1.07-2.265-1.461c-1.158-0.91-2.209-1.963-3.235-3.018
			c-1.432-1.471-2.712-3.091-4.06-4.639c1.521-0.028,3.036-0.1,4.556-0.135c1.896,2.104,3.757,4.241,5.626,6.368
			c1.129,1.284,2.276,2.998,3.654,4.227C67.949,148.117,66.782,148.157,65.615,148.193z M71.959,147.988
			c-0.007-0.019,0.001-0.034-0.008-0.053c-1.005-2.179-3.334-3.892-4.995-5.577c-1.65-1.674-3.348-3.302-5.04-4.936
			c1.743-0.045,3.485-0.106,5.227-0.154c2.013,2.638,3.952,5.324,6.091,7.87c0.722,0.858,1.544,1.847,2.452,2.726
			C74.445,147.905,73.202,147.948,71.959,147.988z M86.077,147.521c-0.192-0.181-0.39-0.361-0.55-0.534
			c-1.579-1.708-3.066-3.499-4.623-5.227c-0.562-0.624-4.627-5.855-5.883-4.271c-0.405,0.511,0.314,1.24,0.724,0.723
			c-0.289,0.364,4.941,6.398,5.484,7.095c0.38,0.486,0.954,1.375,1.619,2.319c-1.114,0.037-2.228,0.073-3.342,0.11
			c-1.762-1.556-3.563-3.009-5.193-4.757c-1.744-1.87-3.392-3.834-5.06-5.775c0.868-0.029,1.738-0.038,2.604-0.077
			c3.129-0.142,6.261-0.252,9.391-0.375c1.735,2.959,4.488,5.436,6.875,7.875c0.698,0.714,1.602,1.755,2.611,2.741
			C89.183,147.422,87.628,147.469,86.077,147.521z M94.661,147.243c-0.483-0.412-0.947-0.86-1.28-1.13
			c-1.569-1.271-3.032-2.671-4.51-4.043c-1.91-1.773-3.731-3.847-5.864-5.385c1.715-0.066,3.432-0.124,5.148-0.187
			c0.007,0.127,0.052,0.254,0.17,0.362c2.791,2.536,5.541,5.094,8.201,7.769c0.655,0.659,1.383,1.568,2.168,2.488
			C97.348,147.16,96.004,147.198,94.661,147.243z M102.396,147c-1.469-1.348-3.258-2.582-4.5-3.743
			c-2.553-2.387-5.146-4.922-8.114-6.817c1.403-0.051,2.806-0.104,4.209-0.153c2.65,3.312,5.601,6.417,8.768,9.236
			c0.493,0.439,1.047,0.938,1.642,1.417C103.732,146.961,103.064,146.979,102.396,147z M110.269,146.765
			c-0.211-0.114-0.457-0.172-0.727-0.102c-2.173,0.562-6.255-3.334-7.688-4.507c-2.195-1.8-4.228-3.836-6.156-5.932
			c2.35-0.083,4.698-0.179,7.05-0.262c0.827,2.22,2.354,4.083,4.109,5.771c1.373,1.319,2.936,2.459,4.507,3.53
			c0.628,0.429,1.354,0.986,2.12,1.409C112.413,146.707,111.34,146.731,110.269,146.765z M116.339,146.595
			c0.102-0.25,0.123-0.529-0.052-0.798c-0.636-0.975-1.697-1.294-2.697-1.838c-1.358-0.738-2.657-1.579-3.918-2.471
			c-2.057-1.455-4.139-3.314-5.363-5.582c1.414-0.05,2.828-0.113,4.241-0.164c-0.001,0.137,0.034,0.284,0.146,0.426
			c1.5,1.886,3.122,3.662,4.795,5.435c1.37,1.451,2.751,2.893,4.13,4.337c0.155,0.162,0.34,0.388,0.524,0.608
			C117.544,146.565,116.942,146.577,116.339,146.595z M121.586,146.457c-0.528-0.73-1.391-1.377-1.912-1.874
			c-1.429-1.366-2.854-2.734-4.292-4.092c-1.768-1.669-3.551-3.287-5.419-4.804c1.639-0.061,3.277-0.136,4.916-0.197
			c-0.126,0.228-0.15,0.505,0.103,0.72c2.501,2.131,4.914,4.318,7.287,6.596c1.03,0.987,2.255,2.432,3.595,3.549
			C124.437,146.391,123.011,146.418,121.586,146.457z M129.346,146.269c-1.849-1.943-4.31-3.476-6.317-5.278
			c-2.144-1.925-4.329-4.076-6.835-5.553c2.172-0.084,4.342-0.186,6.514-0.275c2.155,1.455,3.945,3.37,5.672,5.34
			c1.519,1.732,3.006,4.007,4.81,5.685C131.909,146.215,130.627,146.236,129.346,146.269z M136.294,146.119
			c-1.946-2.749-4.91-5.179-7.26-7.556c-1.286-1.302-2.665-2.489-4.164-3.493c1.998-0.086,3.993-0.215,5.99-0.31
			c1.955,2.935,4.367,5.621,6.778,8.146c0.941,0.986,2.009,2.134,3.181,3.147C139.311,146.083,137.802,146.086,136.294,146.119z
			 M161.105,145.84c-2.283-1.78-4.442-3.797-6.583-5.711c-2.34-2.093-5.011-5.044-8.069-6.064c-0.258-0.086-0.494,0.291-0.274,0.471
			c2.879,2.351,5.392,5.291,8.018,7.917c0.897,0.898,1.974,2.218,3.153,3.415c-1.075,0.012-2.149,0.01-3.225,0.024
			c-1.901-1.8-4.155-3.31-6.144-5.019c-2.503-2.151-4.903-4.482-7.607-6.385c-0.606-0.426-1.271,0.5-0.773,1.002
			c2.471,2.484,5.069,4.854,7.62,7.257c0.994,0.938,2.104,2.156,3.312,3.185c-1.905,0.027-3.811,0.03-5.716,0.063
			c-2.252-1.56-4.449-3.107-6.495-5.01c-2.124-1.977-4.039-4.136-5.952-6.304c3.731-0.182,7.467-0.338,11.194-0.577
			c1.356-0.087,5.427-0.64,10.578-1.312c1.672,3.629,5.317,6.751,8.071,9.259c0.9,0.82,2.47,2.422,4.188,3.766
			C164.637,145.828,162.872,145.825,161.105,145.84z M171.548,145.796c-2.958-1.762-5.753-3.549-8.424-5.8
			c-2.472-2.083-5.366-4.57-7.256-7.427c1.674-0.217,3.44-0.442,5.248-0.666c-0.149,0.304-0.181,0.662,0.123,0.927
			c3.052,2.686,5.847,5.595,8.734,8.452c1.536,1.519,3.348,3.271,5.33,4.542C174.052,145.822,172.8,145.794,171.548,145.796z
			 M179.552,145.857c-0.076-0.167-0.148-0.339-0.315-0.467c-3.113-2.385-6.312-4.359-9.203-7.09
			c-2.412-2.276-4.751-4.661-7.473-6.574c1.378-0.168,2.773-0.333,4.165-0.491c-0.129,0.35-0.099,0.768,0.302,1.039
			c3.803,2.574,7.065,5.71,10.366,8.879c1.574,1.511,3.208,3.199,4.953,4.726C181.417,145.875,180.484,145.864,179.552,145.857z
			 M187.296,145.916c-0.292-0.006-0.584-0.002-0.876-0.007c-2.878-2.321-5.773-4.584-8.504-7.136
			c-2.995-2.799-6.064-5.576-9.577-7.714c1.65-0.182,3.268-0.345,4.854-0.494c-0.104,0.248-0.124,0.534,0.096,0.76
			c2.647,2.727,5.454,5.338,8.21,7.956c1.56,1.481,3.625,4.046,5.844,4.904c-0.019,0.274-0.043,0.55-0.062,0.825
			C187.262,145.311,187.292,145.613,187.296,145.916z M187.724,139.071c-0.054,0.684-0.1,1.368-0.152,2.052
			c-1.626-1.391-3.513-2.619-5.085-3.97c-2.626-2.257-5.194-4.708-8.032-6.707c1.826-0.164,3.557-0.294,5.169-0.389
			c1.467,1.294,2.933,2.589,4.354,3.933c1.26,1.191,2.363,2.989,3.835,3.903C187.784,138.286,187.754,138.682,187.724,139.071z
			 M188.071,134.531c-0.787-0.802-1.715-1.514-2.471-2.163c-0.992-0.852-2.025-1.652-3.075-2.434
			c2.783-0.073,4.932,0.034,5.973,0.429C188.315,131.733,188.185,133.129,188.071,134.531z"/>
		<path d="M149.892,121.026c0.058,0,0.058-0.089,0-0.089"/>
		<path d="M164.626,54.771c-3.687,5.649-2.317,72.388,0.028,72.36c0.423-0.005,0.744-0.594,0.371-0.898
			c-0.589-0.481,1.992-21.474,2.159-24.899c0.722-14.811-4.365-30.874,0.477-45.284C168.287,54.191,165.617,53.253,164.626,54.771z"
			/>
	</g>
</g>
<g>
</g>
<g>
</g>
<g>
</g>
<g>
</g>
<g>
</g>
<g>
</g>
<g>
</g>
<g>
</g>
<g>
</g>
<g>
</g>
<g>
</g>
<g>
</g>
<g>
</g>
<g>
</g>
<g>
</g>
</svg>
