<?xml version="1.0" encoding="iso-8859-1"?>
<!-- Generator: Adobe Illustrator 16.0.0, SVG Export Plug-In . SVG Version: 6.00 Build 0)  -->
<!DOCTYPE svg PUBLIC "-//W3C//DTD SVG 1.1//EN" "http://www.w3.org/Graphics/SVG/1.1/DTD/svg11.dtd">
<svg version="1.1" id="Capa_1" xmlns="http://www.w3.org/2000/svg" xmlns:xlink="http://www.w3.org/1999/xlink" x="0px" y="0px"
	 width="193.052px" height="193.051px" viewBox="0 0 193.052 193.051" style="enable-background:new 0 0 193.052 193.051;"
	 xml:space="preserve">
<g>
	<path d="M186.74,16.299c-1.224-1.491-2.986-1.297-4.275-0.35c-0.449-0.147-0.887-0.31-1.434-0.326
		c-36.587-1.077-73.067-3.884-109.693-3.976C58.57,11.615,1.444,6.738,0.018,28.515c-0.066,1.009,0.803,1.811,1.745,2.003
		C-2.18,52.92,1.443,75.882,3.435,98.417c1.868,21.136-4.603,45.984,3.25,66.112c0.359,0.921,0.979,1.591,1.707,2.012
		c-0.189,1.178,0.246,2.436,1.673,3.273c23.58,13.855,50.409,13.269,76.849,10.473c30.309-3.202,58.734-6.968,89.237-5.683
		c5.245,0.221,5.99-7.454,1.205-8.902c-21.562-6.522-46.543-1.352-68.366,1.612c-31.428,4.27-65.221,10.205-95.23-3.414
		c0.011-0.12,0.061-0.21,0.063-0.336c0.396-21.246,0.479-43.948-1.131-65.147c-1.843-24.243-6.153-47.562-5.401-71.922
		c0.03-0.027,0.059-0.055,0.089-0.082c2.133-0.155,4.716-0.614,6.369-1.044c5.59-1.456,11.325-2.169,17.068-2.712
		c-1.18,3.171-0.801,6.889-0.921,10.362c-0.177,5.13-0.409,10.264-0.577,15.395c-7.106,0.02-14.029,0.756-19.707,3.52
		c-0.751,0.366-0.742,1.606,0,1.975c10.75,5.347,25.732,3.439,37.501,3.914c17.524,0.709,35.027,1.363,52.565,1.48
		c26.352,0.176,52.802-2.416,79.101-2.634c0.213,0.032,0.395,0.113,0.627,0.11c0.749-0.011,1.439-0.033,2.124-0.076
		c-0.018,3.163-0.124,6.335-0.402,9.521c-1.235,14.068-2.772,28.107-4.305,42.145c-1.871,17.15-8.972,47.204,4.755,61.159
		c1.259,1.278,3.189-0.341,2.405-1.855c-3.903-7.541,0.017-23.597,0.519-31.622c0.832-13.287,2.466-26.541,3.974-39.765
		c1.578-13.852,2.909-27.758,3.83-41.669C193.106,42.495,194.915,26.255,186.74,16.299z M55.269,49.433
		c-0.722-0.008-1.445-0.024-2.166-0.031c-5.704-0.055-12.276-0.669-18.886-0.908c0.809-3.768,1.261-7.621,1.772-11.434
		c0.589-4.397,2.832-10.457,1.764-14.94c6.355-0.464,12.734-0.684,19.117-0.814c-1.665,2.245-1.792,5.836-2.032,8.479
		C54.252,36.218,54.509,43.02,55.269,49.433z M60.802,34.157c0.468-4.093,2.573-8.088,2.582-12.15
		c0.001-0.309-0.11-0.562-0.197-0.828c6.879-0.055,13.755,0.024,20.615,0.132c-0.284,0.25-0.559,0.522-0.786,0.873
		c-2.206,3.415-1.572,8.972-1.596,12.845c-0.031,4.992,0.217,9.925,1.025,14.815c-7.661-0.083-15.323-0.24-22.975-0.351
		C60.077,44.398,60.217,39.259,60.802,34.157z M164.074,47.86c-19.035,0.724-38.101,1.287-57.144,1.84
		c-6.422,0.187-12.854,0.204-19.289,0.169c0.634-3.818,0.931-7.64,1.21-11.549c0.329-4.603,1.679-9.564,1.553-14.135
		c-0.033-1.196-0.54-2.115-1.252-2.778c30.449,0.621,61.03,4.102,91.46,3.729c-0.057,7.467,0.462,14.954,0.747,22.486
		C175.845,46.463,169.443,47.656,164.074,47.86z"/>
</g>
<g>
</g>
<g>
</g>
<g>
</g>
<g>
</g>
<g>
</g>
<g>
</g>
<g>
</g>
<g>
</g>
<g>
</g>
<g>
</g>
<g>
</g>
<g>
</g>
<g>
</g>
<g>
</g>
<g>
</g>
</svg>
