<?xml version="1.0" encoding="iso-8859-1"?>
<!-- Generator: Adobe Illustrator 16.0.0, SVG Export Plug-In . SVG Version: 6.00 Build 0)  -->
<!DOCTYPE svg PUBLIC "-//W3C//DTD SVG 1.1//EN" "http://www.w3.org/Graphics/SVG/1.1/DTD/svg11.dtd">
<svg version="1.1" id="Capa_1" xmlns="http://www.w3.org/2000/svg" xmlns:xlink="http://www.w3.org/1999/xlink" x="0px" y="0px"
	 width="186.189px" height="186.189px" viewBox="0 0 186.189 186.189" style="enable-background:new 0 0 186.189 186.189;"
	 xml:space="preserve">
<g>
	<g>
		<path d="M103.652,18.036C56.281,5.587,10.912,46.342,1.453,90.058c-5.369,24.814,4.812,49.286,19.48,68.799
			c17.52,23.308,38.556,21.627,64.157,23.672c0.032,0.014,0.05,0.038,0.082,0.05c36.309,13.606,63.426-40.198,70.781-67.814
			C166.549,74.989,143.826,28.594,103.652,18.036z M151.983,113.671c-5.196,25.899-33.319,77.078-65.715,64.938
			c-0.745-0.279-1.341-0.091-1.774,0.295c-20.654-3.123-37.893-0.279-55.789-17.395C10.02,143.638,1.98,116.229,5.425,91.153
			c6.214-45.227,53.527-76.409,97.134-69.146C143.112,28.763,159.094,78.222,151.983,113.671z"/>
		<path d="M90.164,94.615c-1.862-6.16-8.254-8.564-14.169-7.081c-1.198,0.3-1.565,1.233-1.397,2.114
			c-0.686,0.426-1.308,0.957-1.854,1.558c-2.254,2.48-2.476,6.234-1.485,9.284c1.816,5.586,9.56,10.313,15.099,7.107
			C90.654,105.11,91.479,98.96,90.164,94.615z M84.948,103.521c-2.679,2.902-7.592-0.552-9.198-2.961
			c-1.3-1.95-1.381-4.53-0.229-6.545c0.612-1.073,2.146-2.138,3.617-2.743c2.962-0.041,5.693,0.906,6.924,4.056
			C87.073,97.916,86.902,101.403,84.948,103.521z"/>
		<path d="M148.37,3.716c-0.866,0.44-1.013,1.357-0.73,2.122c-3.582,4.119-2.92,15.239-2.427,19.227
			c0.616,4.985,5.455,13.906,11.631,8.678C164.771,27.034,163.053-3.735,148.37,3.716z M154.507,30.677
			c-4.355,4.54-5.672-9.951-5.663-11.403c0.025-4.307,1.228-8.31,1.75-12.464C159.909,4.907,158.966,26.03,154.507,30.677z"/>
		<path d="M181.208,2.194c-0.238-0.463-0.801-0.76-1.311-0.752c-3.484,0.055-5.564,9.087-6.597,11.552
			c-1.645,3.926-3.273,7.856-4.969,11.761c-0.561,1.293-1.711,5.505-2.788,6.325c-1.168,0.889-0.206,2.525,1.142,1.952
			c4.636-1.969,6.967-10.977,8.799-15.106c1.512-3.408,2.947-6.85,4.437-10.267C180.631,6.029,182.136,4,181.208,2.194z"/>
		<path d="M166.149,5.422c-1.074-0.613-2.28,0.245-2.338,1.312c-0.312,0.292-0.54,0.673-0.427,1.152
			c0.364,1.52-0.174,2.873,0.593,4.3c0.24,0.449,0.848,0.844,1.373,0.787c1.782-0.193,4.84-0.629,4.651-3.089
			C169.865,8.088,167.584,6.241,166.149,5.422z"/>
		<path d="M184.94,23.538c-1.579-0.317-2.859-0.2-4.109,0.739c-0.062,0.048-0.134,0.031-0.189,0.1
			c-0.014,0.016-0.028,0.039-0.041,0.055c-0.02,0.016-0.039,0.022-0.059,0.039c-0.888,0.764-2.044,2.518-1.938,3.71
			c-0.613,1.985-0.441,3.976,2.101,4.535c4.163,0.915,5.637-4.525,5.474-7.55C186.141,24.452,185.696,23.69,184.94,23.538z"/>
	</g>
</g>
<g>
</g>
<g>
</g>
<g>
</g>
<g>
</g>
<g>
</g>
<g>
</g>
<g>
</g>
<g>
</g>
<g>
</g>
<g>
</g>
<g>
</g>
<g>
</g>
<g>
</g>
<g>
</g>
<g>
</g>
</svg>
