<?xml version="1.0" encoding="iso-8859-1"?>
<!-- Generator: Adobe Illustrator 16.0.0, SVG Export Plug-In . SVG Version: 6.00 Build 0)  -->
<!DOCTYPE svg PUBLIC "-//W3C//DTD SVG 1.1//EN" "http://www.w3.org/Graphics/SVG/1.1/DTD/svg11.dtd">
<svg version="1.1" id="Capa_1" xmlns="http://www.w3.org/2000/svg" xmlns:xlink="http://www.w3.org/1999/xlink" x="0px" y="0px"
	 width="194.506px" height="194.506px" viewBox="0 0 194.506 194.506" style="enable-background:new 0 0 194.506 194.506;"
	 xml:space="preserve">
<g>
	<g>
		<path d="M194.502,87.925c0.042-0.473-0.227-0.819-0.584-1.045c0.041-0.283,0.134-0.554,0.16-0.84
			c2.071-22.178-31.172-31.4-57.231-35.434c-0.561-0.516-1.399-0.722-2.175-0.327c-9.062-1.326-17.082-2.034-22.166-2.459
			C81.168,45.198,24.982,39.822,4.59,70.34c-3.299,4.937-4.563,9.718-4.271,14.27c-0.104,0.117-0.204,0.211-0.313,0.357
			c-0.02,0.028,0.013,0.048,0.015,0.076c0,0.001,0,0.001,0,0.001c0.007,0.071,0.034,0.102,0.107,0.111
			c0.006,0.001,0.003,0.01,0.01,0.01c0.007,0,0.004-0.01,0.01-0.011c0.034-0.001,0.069,0.027,0.097-0.003
			c0.045-0.048,0.072-0.011,0.112-0.033c0.105,1.16,0.336,2.3,0.637,3.428c-0.011,1.3-0.076,2.539-0.083,2.879
			c-0.073,3.486,0.485,7.064,0.68,10.548c0.27,4.83-0.854,15.841,3.332,19.343c0.516,0.433,1.111,0.452,1.583,0.208
			c1.642,1.086,3.313,2.129,5.002,3.142c0.176,0.227,0.378,0.358,0.647,0.381c1.616,0.955,3.311,1.773,4.966,2.663
			c0.071,0.25,0.098,0.545,0.175,0.789c0.258,0.807,1.221,0.76,1.57,0.146c25.092,13.03,54.235,18.831,82.099,20.027
			c16.161,0.693,32.279-1.562,47.858-5.71c7.649-2.037,14.89-5.303,21.971-8.771c4.188-2.052,14.44-12.548,18.785-12.718
			c1.315-0.052,1.881-1.137,1.747-2.122c2.754-4.569,2.278-11.237,2.313-16.264C193.675,97.945,194.048,93.014,194.502,87.925z
			 M19.461,61.56c15.12-9.379,35.143-11.728,54.67-11.743c1.31,6.398,5.679,12.892,8.704,18.383
			c3.977,7.22,8.651,14.131,14.438,20.022c-0.29,0.192-0.601,0.364-0.792,0.654c-0.185,0.142-0.256,0.332-0.39,0.497
			c-12.94-2.253-25.924-2.017-39.049-1.944c-7.445,0.041-14.812-0.847-22.165-1.944c-0.027-0.006-0.051-0.008-0.079-0.012
			c-6.512-0.973-13.013-2.105-19.546-2.913c-0.136-0.291-0.379-0.532-0.709-0.52c-0.317,0.011-0.635,0.144-0.95,0.321
			c-2.923-0.334-5.851-0.62-8.792-0.759C4.68,74.968,8.863,68.133,19.461,61.56z M82.972,125.2c3.402-0.41,6.119-5.174,8.023-7.559
			c2.39-2.993,5.374-6.288,7.739-9.699c-0.004,1.954,0.018,3.904,0.063,5.85c-0.437,0.581-0.779,1.27-1.146,1.849
			c-1.024,1.613-2.086,3.201-3.175,4.772c-1.009,1.453-2.046,2.893-3.112,4.306c-0.224,0.297-0.494,0.626-0.668,0.985
			c-4.564-0.008-9.19-0.026-13.976,0.007c0.482-0.084,0.98-0.157,1.426-0.266c0.889-0.214,0.704-1.638-0.216-1.597
			c-0.595,0.027-1.245,0.015-1.889,0.008c-0.025-0.603-0.327-1.177-0.883-1.479c4.285-3.838,7.829-8.424,11.306-13.008
			c3.763-4.963,8.376-9.923,11.879-15.155c0.094-0.021,0.188-0.032,0.282-0.057c0.123,2.904,0.134,5.837,0.125,8.777
			c-3.015,3.002-5.295,7.42-7.724,10.806c-1.633,2.276-3.267,4.556-5.004,6.753c-0.63,0.798-2.122,3.366-3.194,3.647
			C82.254,124.292,82.357,125.274,82.972,125.2z M98.992,118.315c0.153,2.475,0.378,4.934,0.776,7.354
			c-2.106,0.03-4.265,0.02-6.401,0.022c0.152-0.195,0.294-0.38,0.423-0.53c1.728-2.012,3.282-4.194,4.824-6.349
			C98.723,118.662,98.853,118.493,98.992,118.315z M75.979,109.812c2.764-3.484,5.428-7.05,8.152-10.565
			c1.666-2.15,4.086-4.361,5.297-6.855c1.851,0.18,3.707,0.445,5.564,0.735c-2.914,2.985-5.254,7.258-7.319,10.287
			c-4.837,7.094-9.668,14.166-16.053,19.979c-0.057,0.051-0.044,0.121-0.079,0.18c-2.589-0.277-5.414-0.776-8.384-1.449
			C68.236,121.539,73.219,113.29,75.979,109.812z M62.503,121.479c-0.105,0.133-0.131,0.318-0.082,0.469
			c-2.251-0.526-4.56-1.126-6.931-1.833c0.032-0.036,0.076-0.031,0.105-0.078c3.784-6.005,8.472-11.213,13.406-16.288
			c3.57-3.674,8.658-7.264,11.333-11.658c0.055-0.091,0.028-0.182,0.054-0.275c1.863,0.056,3.73,0.188,5.596,0.311
			c-3.646,3.14-6.833,9.308-9.198,12.523C72.383,110.637,67.017,115.721,62.503,121.479z M33.853,98.501
			c2.471-3.154,5.429-5.645,8.176-8.422c2.051,0.275,4.11,0.502,6.168,0.728c-2.236,2.087-4.152,4.863-5.877,6.939
			c-3.518,4.232-6.972,8.545-10.349,12.893c-1.694-0.892-3.365-1.808-4.974-2.766C29.218,104.703,31.463,101.551,33.853,98.501z
			 M25.812,107.108c-1.546-0.951-3.088-1.907-4.52-2.914c2.256-2.516,4.45-5.088,6.596-7.697c2.021-2.459,4.47-4.885,6.368-7.532
			c1.378,0.208,2.759,0.395,4.139,0.594c-1.774,1.708-3.309,3.819-4.642,5.544C30.816,98.904,28.195,102.936,25.812,107.108z
			 M42.879,100.144c2.749-3.095,6.162-5.854,8.875-8.984c1.515,0.129,3.026,0.207,4.535,0.28c-2.926,1.088-6.416,6.62-7.526,8.031
			c-2.138,2.718-4.169,5.514-6.148,8.349c-1.226,1.757-2.935,3.745-3.286,5.919c-0.054,0.334,0.297,0.752,0.647,0.498
			c3.534-2.563,6.09-7.464,8.755-10.85c2.132-2.708,6.362-9.229,9.275-10.254c0.704-0.247,0.887-1.143,0.29-1.602
			c2.2,0.078,4.395,0.106,6.588,0.123c-6.913,8.182-12.886,17.096-20.584,24.623c-3.813-1.518-7.61-3.208-11.257-5.08
			C36.47,107.659,39.611,103.823,42.879,100.144z M9.003,90.688c0.845-1.03,1.717-2.036,2.606-3.03
			c0.458-0.513,1.242-1.183,1.98-1.912c1.172,0.174,2.341,0.365,3.512,0.546c-0.87,1.122-1.657,2.328-2.424,3.403
			c-1.297,1.817-2.508,3.695-3.7,5.585c-1.066-1.233-2.054-2.479-2.867-3.752C8.453,91.239,8.893,90.822,9.003,90.688z
			 M7.481,89.515C7.346,89.693,7.328,89.8,7.245,89.94c-0.962-1.771-1.746-3.561-2.128-5.384c1.882,0.231,3.754,0.525,5.63,0.79
			c-0.347,0.475-0.657,0.908-0.915,1.217C9.025,87.529,8.239,88.511,7.481,89.515z M15.096,92.06
			c1.401-1.841,3.11-3.547,4.587-5.366c1.455,0.229,2.911,0.463,4.366,0.695c-1.255,1.137-2.331,2.567-3.245,3.778
			c-2.01,2.663-3.721,5.619-5.284,8.593c-1.269-1.116-2.483-2.246-3.562-3.407C12.997,94.917,14.023,93.471,15.096,92.06z
			 M7.268,118.871c0.008-4.182-1.357-8.859-1.634-13.001c-0.207-3.096-0.501-6.167-0.772-9.244c1.05,1.506,2.31,2.954,3.657,4.374
			c-0.381,6.521,0.689,12.981,1.941,19.389C9.399,119.875,8.324,119.394,7.268,118.871z M16.135,123.027
			c-0.98-0.454-1.971-0.877-2.947-1.34c-1.127-6.228-2.301-12.386-2.689-18.685c1.864,1.742,3.947,3.399,6.168,4.981
			C15.716,112.514,15.47,118.022,16.135,123.027z M16.625,100.704c3.026-4.765,5.966-9.472,10.595-12.81
			c1.366,0.217,2.735,0.411,4.102,0.624c-1.51,1.793-2.859,3.776-4.246,5.578c-2.349,3.052-4.722,6.084-7.104,9.11
			C18.843,102.375,17.657,101.566,16.625,100.704z M18.75,124.216c-0.237-1.599-0.554-3.196-0.737-4.749
			c-0.419-3.547-0.502-7.083-0.101-10.62c1.651,1.125,3.398,2.191,5.186,3.224c-0.166,0.054-0.305,0.216-0.271,0.444
			c0.483,3.339,0.816,6.646,0.978,10.015c0.06,1.234,0.025,2.576,0.068,3.909C22.166,125.699,20.447,124.985,18.75,124.216z
			 M32.613,130.041c-0.005-0.118,0.016-0.215,0.007-0.338c-0.026-0.364-0.234-0.55-0.476-0.653c-0.061-4.187-0.338-8.416-1.074-12.5
			c-0.141-0.783-1.454-0.604-1.388,0.188c0.343,4.103,0.347,8.175,0.361,12.264c-1.325-0.539-2.658-1.052-3.975-1.609
			c-0.21-2.018-0.612-4.069-0.842-6.005c-0.362-3.047-0.739-6.125-1.677-9.054c4.208,2.396,8.735,4.521,13.353,6.354
			c-0.168,3.112-0.068,6.227,0.366,9.315c0.18,1.281,0.35,2.719,0.724,4.068C36.196,131.403,34.397,130.747,32.613,130.041z
			 M45.578,134.756c-1.536-0.516-3.075-1.021-4.603-1.566c-1.568-4.536-2.205-9.176-2.603-13.966
			c2.037,0.777,4.083,1.474,6.127,2.131c0.635,2.728,1.008,5.486,1.159,8.296C45.74,131.163,45.557,133.007,45.578,134.756z
			 M67.633,92.485c0.415,0.113,0.875,0.038,1.112-0.433c0.067-0.134,0.15-0.253,0.228-0.377c2.707,0.004,5.412,0.018,8.117,0.058
			c-4.038,3.049-7.57,7.793-10.815,11.368c-4.357,4.799-9.469,10.085-12.11,16.099c-0.082,0.188-0.057,0.355-0.028,0.52
			c-2.761-0.858-5.554-1.794-8.367-2.875C54.091,109.791,60.525,100.736,67.633,92.485z M48.308,135.68
			c0.129-2.317-0.417-5.045-0.621-7.008c-0.235-2.26-0.584-4.552-1.275-6.727c2.415,0.733,4.81,1.369,7.16,1.921
			c0.197,3.262,0.285,6.524,0.632,9.776c0.126,1.185,0.255,2.687,0.655,4.032C52.667,137.044,50.482,136.38,48.308,135.68z
			 M57.513,138.4c-0.421-1.962-1.13-3.901-1.432-5.904c-0.419-2.773-0.677-5.561-1.15-8.322c2.505,0.554,4.91,0.956,7.252,1.285
			c0.083,3.175,0.195,6.356,0.396,9.522c0.098,1.548,0.174,3.271,0.63,4.82C61.309,139.338,59.399,138.917,57.513,138.4z
			 M65.812,140.441c-1.516-4.701-1.16-9.882-1.966-14.762c2.825,0.335,5.417,0.438,7.838,0.401c0.106,2.627,0.123,5.26,0.187,7.886
			c0.059,2.41-0.315,5.588,0.838,7.787c0.04,0.077,0.106,0.085,0.154,0.144C70.504,141.446,68.149,140.978,65.812,140.441z
			 M73.971,142.125c0.337-0.177,0.626-0.492,0.678-0.898c0.327-2.563-0.536-5.643-0.777-8.228c-0.218-2.334-0.522-4.64-0.931-6.939
			c0.359-0.017,0.771,0.011,1.117-0.017c2.483,1.064,5.006,1.892,7.546,2.608c-0.055,0.103-0.13,0.193-0.119,0.331
			c0.241,3.1,0.385,6.204,0.591,9.307c0.107,1.615,0.173,3.47,0.536,5.187C79.718,143.087,76.834,142.653,73.971,142.125z
			 M83.027,129.006c2.421,0.623,4.864,1.094,7.319,1.459c1.164,4.624,1.365,9.307,1.944,14.017c-2.372-0.179-4.736-0.4-7.087-0.679
			C84.474,138.883,83.926,133.889,83.027,129.006z M95.045,144.633c-0.514-4.629-0.931-9.493-2.558-13.885
			c2.407,0.283,4.823,0.47,7.252,0.511c-0.201,2.961-0.329,5.926-0.349,8.896c-0.009,1.373,0.098,3.553,1.092,4.728
			C98.66,144.848,96.854,144.736,95.045,144.633z M100.153,85.85c-0.104,0.024-0.21,0.047-0.315,0.088
			c-0.159,0.045-0.344,0.051-0.468,0.13c-0.01,0.006-0.017,0.017-0.025,0.023c-4.852-6.328-9.285-12.862-13.208-19.822
			c-2.854-5.063-4.808-11.355-7.938-16.415c10.155,0.15,20.076,0.839,28.981,1.418c7.572,0.493,15.846,1.196,24.255,2.383
			c-6.647,7.669-13.488,15.158-20.591,22.41C107.973,78.997,102.266,82.031,100.153,85.85z M102.587,93.133
			c0.078-0.052,0.152-0.071,0.23-0.133c0.317-0.25,0.467-0.612,0.561-1.003c6.755,4.921,14.257,8.35,22.109,11.386
			c9.44,3.649,18.797,7.874,28.259,11.426c-2.052,0.918-3.834,1.675-5.17,2.228c-15.637,6.453-30.082,8.136-45.05,8.55
			c0.295-3.613-0.066-7.44-0.511-10.958c-0.888-7.028-0.58-14.058-1.388-21.066C101.995,93.471,102.356,93.365,102.587,93.133z
			 M104.475,89.259c9.281,4.739,27.343-0.088,37.421-0.629c15.679-0.843,30.703-0.486,46.241,1.588
			c0.328,0.044,0.58-0.021,0.796-0.126c-5.278,9.313-20.54,17.831-31.399,22.974c-6.098-4.944-14.562-7.34-21.814-9.988
			C124.987,99.155,114.217,95.261,104.475,89.259z M163.667,133.39c-17.408,8.525-37.52,11.01-56.624,11.472
			c-1.135,0.027-2.26,0.008-3.39,0.011c0.484-0.719,0.541-1.693-0.431-2.135c0.417,0.189,0.134,0.109-0.092-0.426
			c-0.191-0.452-0.286-0.949-0.395-1.426c-0.308-1.358-0.373-2.749-0.438-4.135c-0.085-1.818-0.094-3.639-0.142-5.457
			c16.128-0.196,32.493-4.956,47.445-10.536c1.407-0.525,2.984-1.126,4.672-1.794c-0.533,2.162-0.594,4.53-0.736,6.698
			c-0.167,2.566-1.669,9.268,0.756,11.017c0.368,0.266,1.049,0.266,1.419,0c2.18-1.571,1.042-6.828,1.053-9.176
			c0.012-2.368,0.123-4.729,0.228-7.092c0.03-0.674-0.008-1.649,0.026-2.56c10.931-4.513,25.277-11.627,32.51-21.142
			c-0.516,7.401-0.071,16.794,0.008,21.059C183.584,117.59,170.106,130.236,163.667,133.39z M189.602,88.795
			c-0.028-0.673-0.381-1.387-1.046-1.666c-12.484-5.255-29.061-3.1-42.196-2.577c-11.438,0.454-32.004-2.152-42.092,3.556
			c-0.373,0.211-0.377,0.762-0.036,1.012c-0.388-0.241-0.797-0.437-1.184-0.68c-0.032-0.11-0.112-0.198-0.205-0.282
			c-0.014-0.03-0.032-0.057-0.046-0.086c0.011-0.011,0.014-0.015,0.024-0.026c1.07-1.138,2.291-2.044,3.544-2.975
			c2.623-1.949,4.877-3.985,7.185-6.299c7.808-7.829,15.241-16.022,22.431-24.42c18.114,2.949,36.395,8.396,49.285,19.26
			C191.193,78.607,191.904,83.797,189.602,88.795z"/>
	</g>
</g>
<g>
</g>
<g>
</g>
<g>
</g>
<g>
</g>
<g>
</g>
<g>
</g>
<g>
</g>
<g>
</g>
<g>
</g>
<g>
</g>
<g>
</g>
<g>
</g>
<g>
</g>
<g>
</g>
<g>
</g>
</svg>
