<?xml version="1.0" encoding="iso-8859-1"?>
<!-- Generator: Adobe Illustrator 16.0.0, SVG Export Plug-In . SVG Version: 6.00 Build 0)  -->
<!DOCTYPE svg PUBLIC "-//W3C//DTD SVG 1.1//EN" "http://www.w3.org/Graphics/SVG/1.1/DTD/svg11.dtd">
<svg version="1.1" id="Capa_1" xmlns="http://www.w3.org/2000/svg" xmlns:xlink="http://www.w3.org/1999/xlink" x="0px" y="0px"
	 width="195.467px" height="195.467px" viewBox="0 0 195.467 195.467" style="enable-background:new 0 0 195.467 195.467;"
	 xml:space="preserve">
<g>
	<g>
		<path d="M192.529,102.845c-3.168-18.14-1.738-37.568-6.573-55.317c-0.657-2.416-2.735-3.213-4.632-2.863
			c0.039-0.651-0.061-1.315-0.366-1.915c-6.48-12.778-44.521-6.098-55.494-5.628c-38.363,1.647-76.516,0.26-114.762,4.775
			c-1.903,0.225-2.738,1.973-2.473,3.408C4.818,51.661,5.495,62.731,4.99,68.94C3.677,85.073,2.185,101,0.48,117.097
			c-1.515,14.316,0.012,29.53,12.502,38.451c12.327,8.805,39.371,3.278,53.009,2.903c28.718-0.788,57.3-3.209,86.053-2.282
			c11.162,0.358,28.471,5.724,36.569-5.214C198.896,137.072,195.299,118.699,192.529,102.845z M102.218,80.95
			c-4.026-0.816-8.297-4.971-11.396-7.394c-4.355-3.404-8.725-7.366-13.805-9.662c2.032-0.119,4.066-0.252,6.098-0.362
			c3.078-0.167,6.166-0.319,9.255-0.467c-0.208,0.492-0.191,1.077,0.246,1.507c5.661,5.573,11.839,12.68,18.74,17.987
			c-2.821,0.357-5.586,0.693-8.246,0.969C103.687,82.601,103.476,81.205,102.218,80.95z M84.279,80.826
			c-0.37-1.629-2.621-1.429-3.091,0c-0.079,0.24-0.135,0.371-0.179,0.474c-0.804-0.234-1.583-0.72-2.272-1.139
			c-2.684-1.632-5.064-3.833-7.396-5.92c-3.401-3.042-6.597-6.302-9.924-9.42c4.514-0.272,9.027-0.535,13.54-0.804
			c-0.573,0.574-0.679,1.563,0.259,2.163c6.009,3.848,11.08,8.917,16.502,13.514c1.482,1.257,3.59,3.241,5.814,4.318
			c-4.665,0.353-9.344,0.574-14.034,0.684C84.362,83.705,84.601,82.244,84.279,80.826z M13.996,68.445
			c4.737,4.91,10.152,11.381,16.254,16.195c-1.601-0.043-3.193-0.095-4.799-0.113c-2.243-2.061-5.194-3.668-7.484-5.603
			c-1.694-1.433-3.313-2.946-4.925-4.467c0.059-2.775-0.076-6.507-0.101-10.432c0.051,0.061,0.036,0.147,0.109,0.194
			c3.885,2.49,9.136,2.863,14.452,2.642c0.036,0.068,0.056,0.138,0.108,0.202c4.649,5.692,11.834,14.002,19.622,17.724
			c-1.422,0.01-2.845,0.015-4.265,0.039c-1.669,0.028-3.421-0.025-5.147-0.053c-2.908-1.875-5.917-3.635-8.645-5.756
			c-4.8-3.732-9.239-7.925-13.612-12.138C14.533,65.885,13.002,67.415,13.996,68.445z M41.709,77.105
			c-4.278-2.91-8.023-6.563-11.499-10.387c3.384-0.246,6.683-0.625,9.601-0.776c0.047,0.043,0.073,0.096,0.128,0.135
			c5.373,3.824,10.383,8.098,15.422,12.344c2.134,1.798,4.72,4.498,7.476,6.386c-2.477-0.015-4.955-0.03-7.429-0.039
			c-0.104-0.248-0.268-0.474-0.519-0.631C50.665,81.477,45.905,79.96,41.709,77.105z M57.516,75.627
			c-4.466-3.295-8.849-6.722-13.413-9.884c4.579-0.187,9.157-0.466,13.734-0.732c5.139,5.975,10.276,12.147,16.296,17.252
			c0.967,0.82,2.121,1.801,3.375,2.531c-2.729,0.026-5.458,0.034-8.188,0.028c-0.044-0.101-0.078-0.201-0.152-0.302
			C66.426,80.794,61.21,78.352,57.516,75.627z M107.927,74.225c-4.336-3.742-8.43-7.746-12.929-11.291
			c4.502-0.205,9.017-0.359,13.533-0.483c0.043,0.255,0.149,0.513,0.408,0.75c4.844,4.444,9.189,9.399,13.939,13.942
			c1.096,1.047,2.367,2.266,3.738,3.455c-2.847,0.348-5.667,0.715-8.438,1.078C114.675,79.347,111.195,77.046,107.927,74.225z
			 M124.34,73.282c-4.111-3.571-7.95-7.428-12.129-10.919c3.652-0.076,7.307-0.099,10.96-0.093
			c5.176,3.79,9.744,8.242,14.266,12.804c1.271,1.283,2.562,2.682,3.906,4.053c-2.721,0.201-5.442,0.433-8.154,0.72
			c-0.059-0.031-0.119-0.058-0.178-0.09C129.83,78.056,127.046,75.633,124.34,73.282z M137.659,69.717
			c-2.817-2.599-5.705-5.09-8.726-7.411c2.924,0.046,5.843,0.169,8.762,0.288c4.555,4.816,9.163,9.561,14.062,14.04
			c0.668,0.611,1.406,1.315,2.176,2.042c-1.891-0.009-3.789,0.009-5.703,0.077C144.854,75.593,140.913,72.718,137.659,69.717z
			 M153.609,72.283c-3.569-3.034-7.015-6.22-10.438-9.425c4.311,0.251,8.609,0.624,12.899,1.073
			c4.341,4.805,9.041,9.368,13.563,14.006c0.656,0.674,1.396,1.514,2.204,2.438c-2.825-0.581-5.728-1.005-8.698-1.275
			C160.028,76.715,156.387,74.644,153.609,72.283z M181.057,81.712c-0.287-0.23-0.596-0.459-0.853-0.69
			c-3.113-2.789-6.072-5.751-9.081-8.654c-2.192-2.117-4.826-5.139-7.712-7.554c4.519,0.614,9.023,1.326,13.499,2.24
			c1.467,0.3,2.62-0.261,3.409-1.135C180.695,71.167,180.838,76.457,181.057,81.712z M15.213,47.757
			c0.13-0.211,0.155-0.426,0.233-0.641c33.54-0.936,67.091-0.342,100.625-1.128c19.644-0.46,41.929-4.513,60.845,2.022
			c0.317,0.11,0.617,0.138,0.912,0.157c-0.055,0.488-0.038,1.009,0.105,1.574c0.897,3.543,1.485,7.163,1.898,10.821
			c-0.306-0.174-0.601-0.357-1.007-0.447c-28.045-6.204-57.207-5.409-85.728-4.152c-16.005,0.706-31.981,1.905-47.96,3.03
			c-9.355,0.658-24.101-1.315-32.085,3.958c-0.073,0.048-0.061,0.137-0.112,0.199C12.934,57.097,13.284,50.891,15.213,47.757z
			 M12.828,78.753c0.908,0.863,1.804,1.738,2.736,2.572c1.11,0.994,2.355,2.163,3.679,3.259c-2.297,0.078-4.574,0.22-6.8,0.492
			C12.575,82.978,12.701,80.864,12.828,78.753z M185.717,137.963c-3.389,17.217-33.996,9.61-46.092,9.476
			c-20.45-0.228-40.917,1.257-61.333,2.237c-16.848,0.809-33.938,1.562-50.808,1.18c-23.998-0.546-19.189-29.979-16.9-45.929
			c0.673-4.688,1.114-9.336,1.464-13.992c8.139,0.953,17.017,0.103,24.944,0.235c19.274,0.321,38.819,1.25,58.071,0.223
			c29.451-1.571,57.05-3.688,86.458-1.642c0.061,0.79,0.097,1.588,0.172,2.373C183.164,107.604,188.822,122.18,185.717,137.963z"/>
		<path d="M71.861,104.698c-7.981-0.504-15.915-1.105-23.877-1.89c-7.063-0.696-14.795-2.43-21.867-1.354
			c-1.021,0.155-1.852,1.194-2.121,2.121c-0.125,0.431-0.197,0.814-0.087,1.262c0.029,0.117,0.058,0.235,0.087,0.353
			c0.248,1.011,1.122,1.859,2.121,2.121c6.184,1.623,13.007,1.804,19.343,2.633c8.68,1.136,17.625,2.544,26.4,2.224
			C76.701,111.99,76.645,105.001,71.861,104.698z"/>
		<path d="M107.59,107.648c1.27-0.223-0.205,0.029-0.448,0.061c-0.584,0.074-1.189,0.062-1.777,0.089
			c-1.729,0.077-3.458,0.154-5.188,0.231c-2.944,0.132-6.065,0.038-8.936,0.743c-0.505,0.124-1.048,0.512-1.391,0.992
			c-0.469,0.338-0.664,0.854-0.643,1.385c-0.021,0.53,0.173,1.047,0.643,1.386c0.343,0.48,0.885,0.868,1.391,0.992
			c2.871,0.705,5.991,0.611,8.936,0.743c1.559,0.07,3.116,0.139,4.675,0.209l1.891,0.085c0.296,0.013,2.126,0.312,0.847,0.088
			C113.45,115.679,113.45,106.623,107.59,107.648z"/>
	</g>
</g>
<g>
</g>
<g>
</g>
<g>
</g>
<g>
</g>
<g>
</g>
<g>
</g>
<g>
</g>
<g>
</g>
<g>
</g>
<g>
</g>
<g>
</g>
<g>
</g>
<g>
</g>
<g>
</g>
<g>
</g>
</svg>
