<?xml version="1.0" encoding="iso-8859-1"?>
<!-- Generator: Adobe Illustrator 16.0.0, SVG Export Plug-In . SVG Version: 6.00 Build 0)  -->
<!DOCTYPE svg PUBLIC "-//W3C//DTD SVG 1.1//EN" "http://www.w3.org/Graphics/SVG/1.1/DTD/svg11.dtd">
<svg version="1.1" id="Capa_1" xmlns="http://www.w3.org/2000/svg" xmlns:xlink="http://www.w3.org/1999/xlink" x="0px" y="0px"
	 width="186.972px" height="186.973px" viewBox="0 0 186.972 186.973" style="enable-background:new 0 0 186.972 186.973;"
	 xml:space="preserve">
<g>
	<path d="M100.324,96.229c0.586-18.913,1.289-37.927,0.93-56.84c11.742,7.488,21.21,19.461,23.976,30.792
		c0.54,2.211,3.953,1.273,3.405-0.939c-3.564-14.4-14.221-26.496-27.462-33.486c-0.313-11.608-1.031-23.173-2.566-34.633
		c-0.196-1.457-2.477-1.537-2.349,0c0.912,10.97,1.359,21.979,1.535,33.005c-7.313-3.277-15.25-5.048-23.146-4.81
		c0.085-9.567,0.467-19.029,1.406-28.195c0.086-0.835-1.332-1.027-1.467-0.199c-1.496,9.254-2.145,18.85-2.375,28.559
		c-0.554,0.046-1.111,0.047-1.663,0.113c-18.75,2.238-33.718,29.097-21.065,44.995c6.532,8.207,15.075,13.35,24.442,17.262
		c0.52,18.737-0.39,37.917-0.421,56.939c-18.353-8.222-37.667-22.661-26.126-42.455c0.636-1.093-0.962-1.977-1.666-0.975
		c-14.417,20.541,3.391,38.832,27.838,48.817c0.09,10.543,0.494,21.023,1.693,31.321c0.226,1.942,3.292,1.98,3.08,0
		c-1.063-9.937-1.279-19.939-1.207-29.967c5.563,2.04,11.394,3.64,17.21,4.764c-0.111,11.247,0.971,21.661,5.44,24.781
		c1.113,0.777,2.119-0.675,1.671-1.671c-2.669-5.939-1.669-15.519-1.673-22.216c24.419,3.426,47.031-2.257,46.664-22.156
		C145.943,112.843,122.658,103.26,100.324,96.229z M54.078,74.807c-13.482-13.322-1.454-35.288,13.254-41.024
		c1.574-0.614,3.179-1.052,4.798-1.376c-0.263,18.421,1.004,37.194,1.661,55.004C66.541,84.344,59.753,80.413,54.078,74.807z
		 M76.882,88.664c-1.125-18.445-2.291-37.7-2.25-56.591c7.767-0.875,15.812,1.298,23.181,5.286
		c0.212,19.245-0.36,38.542-0.905,57.805c-5.709-1.752-11.278-3.386-16.294-5.134C79.361,89.595,78.117,89.139,76.882,88.664z
		 M88.589,154.397c-3.405-1.017-7.338-2.372-11.427-4.041c0.292-17.641,1.279-35.346,0.249-52.92
		c-0.083-1.414-0.173-2.864-0.259-4.29c6.348,2.428,13.006,4.396,19.638,6.422c-0.262,9.496-0.498,18.983-0.59,28.447
		c-0.047,4.825-1.393,16.406-1.785,27.962C92.479,155.506,90.541,154.98,88.589,154.397z M140.117,147.531
		c-4.23,9.438-18.059,10.086-26.498,10.516c-4.777,0.242-9.354-0.176-13.879-0.975c-0.222-12.376-0.1-24.763,0.031-37.138
		c0.068-6.413,0.232-12.855,0.42-19.306c11.627,3.628,22.997,7.713,32.249,15.13C142.001,123.639,144.561,134.229,140.117,147.531z"
		/>
</g>
<g>
</g>
<g>
</g>
<g>
</g>
<g>
</g>
<g>
</g>
<g>
</g>
<g>
</g>
<g>
</g>
<g>
</g>
<g>
</g>
<g>
</g>
<g>
</g>
<g>
</g>
<g>
</g>
<g>
</g>
</svg>
