<?xml version="1.0" encoding="iso-8859-1"?>
<!-- Generator: Adobe Illustrator 16.0.0, SVG Export Plug-In . SVG Version: 6.00 Build 0)  -->
<!DOCTYPE svg PUBLIC "-//W3C//DTD SVG 1.1//EN" "http://www.w3.org/Graphics/SVG/1.1/DTD/svg11.dtd">
<svg version="1.1" id="Capa_1" xmlns="http://www.w3.org/2000/svg" xmlns:xlink="http://www.w3.org/1999/xlink" x="0px" y="0px"
	 width="192.41px" height="192.41px" viewBox="0 0 192.41 192.41" style="enable-background:new 0 0 192.41 192.41;"
	 xml:space="preserve">
<g>
	<g>
		<path d="M189.77,40.028c-0.798-1.032-2.05-0.894-2.665-0.174c-0.161-0.654-0.651-1.24-1.498-1.319
			c-29.068-2.698-58.133,3.293-87.239,3.31C67.79,41.86,37.102,41.146,6.542,42.291c-0.106,0.005-0.146,0.086-0.239,0.108
			c-0.897-0.88-2.916-0.029-2.668,1.625c3.576,23.83-1.321,47.835-2.061,71.708c-0.264,8.538-3.878,28.854,0.826,36.779
			c0.012,0.02,0.038,0.021,0.052,0.039c0.025,0.024,0.053,0.037,0.08,0.06c0.077,0.063,0.148,0.134,0.237,0.177
			c-0.339,0.73,0.064,1.882,1.03,1.78c33.778-3.518,67.563-0.614,101.411-2.229c25.66-1.226,51.458,1.922,76.968,0.402
			c0.496-0.029,0.834-0.247,1.062-0.537c1.006,0.051,2.017,0.041,3.055,0.01c0.881-0.027,1.56-0.7,1.584-1.584
			c0.671-24.194-0.067-48.515,1.591-72.662C190.065,69.261,195.587,47.561,189.77,40.028z M91.294,45.355
			c29.401,0.016,58.708-4.686,88.059-3.759c-4.927,2.47-9.332,7.396-12.553,10.757c-8.417,8.781-15.883,17.571-25.738,24.755
			c-8.346-13.644-25.552-22.585-42.746-24.229c-10.278-0.983-20.184,0.873-28.782,4.959c-0.066-0.063-0.132-0.127-0.198-0.19
			c-0.462-0.443-1.113,0.197-0.747,0.673c-4.173,2.09-8.052,4.663-11.445,7.78c-0.062-0.063-0.119-0.132-0.182-0.195
			c-0.437-0.435-1.104,0.233-0.675,0.676c0.055,0.058,0.105,0.119,0.161,0.177c-2.871,2.745-5.423,5.822-7.536,9.243
			c-8.061-3.978-15.499-8.389-22.777-13.723c-7.129-5.226-12.674-11.649-19.171-17.356C35.033,45.956,63.21,45.34,91.294,45.355z
			 M109.156,58.992c11.762,12.097,21.713,25.836,33.597,37.783c-0.011,1.906-0.156,3.819-0.457,5.718
			c-7.938-18.033-25.72-34.328-41.353-45.961c5.451,0.657,10.801,1.998,15.825,3.902c0.005,0.004,0.004,0.01,0.009,0.014
			c5.646,3.839,10.274,8.649,14.421,14.048c3.42,4.453,6.378,9.691,10.547,13.497c0.425,1.87,0.759,3.762,0.904,5.681
			c-10.49-12.1-21-24.587-32.9-35.275C109.35,58.038,108.776,58.602,109.156,58.992z M123.294,104.183
			c1.076-0.767,5.611,5.465,6.244,6.294c1.199,1.568,2.351,3.174,3.522,4.764c0.147,0.201,0.302,0.406,0.448,0.613
			c-0.817,0.618-1.685,1.182-2.568,1.718c-0.88-1.869-2.729-3.584-3.974-5.104c-1.834-2.241-3.665-4.523-5.604-6.688
			c0.772-1.084,1.429-2.359,1.929-3.73c0.693-1.901,1.194-3.783,1.528-5.637c3.762,5.655,7.748,11.193,12.218,16.305
			c-0.643,0.683-1.345,1.332-2.075,1.961c-1.521-2.46-3.713-4.791-5.44-6.876c-1.148-1.384-4.339-5.89-6.518-3.993
			C122.802,103.984,123.073,104.341,123.294,104.183z M76.341,133.656c-2.954-3.122-5.863-6.248-8.699-9.417
			c1.997,1.228,4.182,2.151,6.42,2.959c-0.038,0.141-0.038,0.29,0.073,0.432c1.749,2.229,3.673,4.24,5.737,6.179
			c1.65,1.55,3.411,3.418,5.394,4.598c-6.737-1.438-13.249-3.574-19.288-6.809c-8.948-9.046-14.713-20.204-21.294-31.091
			c0.001-3.688,0.582-7.404,1.643-11.026c0.392,1.505,1.032,2.933,1.849,4.311c0.984,1.659,2.5,3.814,4.296,4.794
			c0.063,2.987,0.472,5.826,1.29,8.484c-2.778-3.899-5.403-7.935-7.782-12.206c-0.244-0.437-0.872-0.054-0.662,0.388
			c3.983,8.37,9.148,16.067,14.768,23.42c4.338,5.674,9.251,12.271,15.388,16.11C76.181,135.225,76.891,134.236,76.341,133.656z
			 M100.994,134.778c0.912,1.368,1.939,2.926,3.2,4.074c-0.125,0.615-0.276,1.253-0.483,1.944c-0.05,0.01-0.061,0.056-0.104,0.07
			c-0.241-0.017-0.481-0.05-0.723-0.068c-1.746-1.261-3.504-2.442-5.091-3.995c-1.854-1.812-3.613-3.851-5.029-6.066
			c2.056,0.137,4.108,0.32,6.152,0.589C99.554,132.51,100.25,133.662,100.994,134.778z M100.376,131.477
			c2.901,0.339,4.288,2.104,4.102,5.352c-0.783-0.904-1.593-1.795-2.307-2.738C101.531,133.245,100.943,132.367,100.376,131.477z
			 M96.103,137.395c0.798,0.896,1.805,2.021,2.925,3.035c-0.909-0.093-1.822-0.156-2.729-0.261c-0.027-0.091-0.05-0.184-0.137-0.262
			c-1.688-1.52-4.009-2.476-5.87-3.821c-2.493-1.804-4.689-4.009-6.637-6.389c0.913,0.171,1.836,0.375,2.734,0.514
			c1.582,0.243,3.228,0.279,4.82,0.376c0.008,0,0.016,0.002,0.024,0.002C92.534,133.065,94.237,135.299,96.103,137.395z
			 M88.823,136.609c1.184,0.993,2.584,2.186,4.059,3.098c-2.147-0.302-4.296-0.603-6.409-1.025c0.221-0.156,0.345-0.419,0.14-0.687
			c-1.531-2.008-3.884-3.481-5.787-5.14c-1.843-1.607-3.578-3.346-5.26-5.124c2.199,0.708,4.439,1.241,6.672,1.702
			c0.009,0.06-0.009,0.118,0.032,0.176C84.124,132.262,86.347,134.534,88.823,136.609z M44.833,103.894
			c-0.032-0.319-0.031-0.642-0.053-0.963c3.205,5.963,6.273,11.995,9.841,17.761C51.007,115.324,47.917,109.662,44.833,103.894z
			 M53.793,122.672c-4.281-4.303-6.968-9.22-8.227-14.421C47.899,113.264,50.628,118.128,53.793,122.672z M46.915,87.855
			c0.404-1.204,0.868-2.392,1.372-3.566c0.714,2.769,2.084,5.888,4.653,7.089c0.046,0.021,0.084,0.006,0.129,0.015
			c-0.116,0.599-0.268,1.188-0.346,1.798c-0.155,1.221-0.245,2.415-0.282,3.585c-0.92-0.989-1.998-1.898-2.801-2.951
			C48.298,92.069,47.289,90.035,46.915,87.855z M53.28,90.287c-0.874-1.01-1.867-1.846-2.625-2.998
			c-0.867-1.317-1.347-2.845-1.725-4.366c0.505-1.08,1.055-2.141,1.637-3.184c0.635,0.869,1.272,1.737,1.902,2.61
			c0.822,1.14,1.514,2.363,2.259,3.547C54.147,87.325,53.635,88.779,53.28,90.287z M53.752,82.377
			c-0.856-1.188-1.773-2.329-2.68-3.479c0.589-1.007,1.273-1.95,1.929-2.912c0.679,0.963,1.408,1.898,2.128,2.815
			c0.654,0.834,1.282,1.642,2.026,2.348c-0.675,1.098-1.309,2.218-1.848,3.382C54.812,83.793,54.262,83.085,53.752,82.377z
			 M53.597,75.087c0.681-0.954,1.418-1.86,2.158-2.761c0.732,0.901,1.431,1.828,2.225,2.681c0.608,0.652,1.324,1.486,2.109,2.181
			c-0.818,0.997-1.651,1.985-2.353,3.054C56.459,78.477,55.007,76.778,53.597,75.087z M95.975,60.168
			c0.473,0.459,0.97,0.949,1.479,1.443c-0.688-0.086-1.374-0.177-2.078-0.226c-0.797-0.055-1.606-0.014-2.411-0.005
			c-1.068-0.89-2.181-1.741-3.236-2.583c-1.102-0.88-2.287-1.636-3.472-2.393c1.963-0.231,3.943-0.327,5.926-0.359
			C93.353,57.503,94.635,58.87,95.975,60.168z M93.851,56.048c1.746,0.018,3.487,0.197,5.228,0.357
			c3.137,2.757,6.19,5.562,9.176,8.412c-2.293-1.101-4.712-2.032-7.326-2.618c-1.251-1.086-2.687-2.05-3.895-3.09
			C95.909,58.145,94.894,57.082,93.851,56.048z M89.375,60.148c0.471,0.41,0.937,0.851,1.403,1.287
			c-1.207,0.09-2.417,0.215-3.629,0.416c-0.836-0.554-1.721-1.043-2.553-1.609c-1.249-0.849-2.335-1.901-3.348-3.019
			c1.198-0.256,2.417-0.418,3.633-0.592C86.458,57.704,87.936,58.897,89.375,60.148z M84.888,62.261
			c-1.218,0.272-2.431,0.597-3.635,0.978c-1.904-1.366-3.733-2.746-5.319-4.604c1.327-0.438,2.692-0.75,4.052-1.077
			C81.301,59.242,82.981,61.05,84.888,62.261z M79.384,63.93c-0.818,0.299-1.646,0.56-2.45,0.906
			c-0.819-0.811-1.726-1.562-2.518-2.32c-0.847-0.812-1.694-1.624-2.541-2.438c0.911-0.396,1.871-0.659,2.805-0.998
			C75.921,60.715,77.562,62.493,79.384,63.93z M72.978,62.926c0.774,0.807,1.544,1.742,2.365,2.607
			c-0.956,0.454-1.9,0.938-2.825,1.454c-1.108-0.97-2.337-1.853-3.475-2.741c-0.734-0.573-1.54-1.039-2.308-1.561
			c1.298-0.779,2.639-1.462,3.999-2.099C71.481,61.366,72.229,62.146,72.978,62.926z M68.721,65.506
			c0.811,0.704,1.612,1.511,2.469,2.218c-1.122,0.676-2.22,1.393-3.278,2.161c-0.568-0.983-1.742-1.745-2.538-2.516
			c-0.757-0.731-1.52-1.456-2.281-2.183c0.89-0.69,1.805-1.334,2.741-1.938C66.802,63.992,67.796,64.702,68.721,65.506z
			 M64.613,68.131c0.727,0.751,1.45,1.832,2.354,2.431c-1.087,0.831-2.141,1.7-3.138,2.624c-0.824-0.865-1.673-1.711-2.471-2.587
			c-0.666-0.732-1.357-1.439-2.028-2.165c0.97-0.943,1.982-1.825,3.019-2.668C63.104,66.556,63.854,67.347,64.613,68.131z
			 M60.128,70.801c0.928,1.059,1.854,2.192,2.838,3.253c-0.692,0.679-1.411,1.337-2.049,2.06c-0.594-0.466-1.216-0.908-1.748-1.389
			c-1.041-0.943-1.955-2.017-2.894-3.063c0.747-0.877,1.525-1.723,2.327-2.538C59.106,69.687,59.63,70.231,60.128,70.801z
			 M74.475,69.52c2.657-1.516,5.512-2.677,8.462-3.505c0.096,0.034,0.186,0.104,0.282,0.135c0.374,0.119,0.617-0.085,0.701-0.361
			c8.114-2.05,16.884-1.516,24.439,2.044c5.1,2.403,8.613,6.827,11.276,11.63c1.687,3.037,2.419,6.209,2.606,9.46
			c-3.802,1.752-7.391,4.192-10.652,6.798c0.636-5.404,5.453-15.258,1.753-18.959c-4.189-4.19-7.854-2.184-9.984,1.477
			c-0.271-0.05-0.577,0.23-0.399,0.542c0.021,0.036,0.039,0.073,0.061,0.11c-0.12,0.237-0.259,0.458-0.366,0.705
			c-3.472-8.35-11.503-9.146-19.611-4.785c-6.076,3.267-11.727,8.638-15.103,14.967c-2.995-1.691-6.075-3.25-9.155-4.782
			C62.415,78.51,68.304,73.038,74.475,69.52z M122.262,92.189c-0.062,1.055-0.134,2.111-0.298,3.182l-0.771,3.019
			c-1.233,7.112-4.387,6.871-9.438-0.653C115.216,95.742,118.71,93.921,122.262,92.189z M110.705,83.293
			c-0.329,1.802-0.695,3.597-1.087,5.387c-0.923-1.877-1.949-3.707-3.045-5.502C107.951,83.216,109.328,83.254,110.705,83.293z
			 M92.681,76.026c0.998,1.685,2.08,3.315,3.15,4.954c1.134,1.737,2.104,3.602,3.24,5.335c-0.571-0.198-1.171-0.354-1.809-0.437
			c-2.159-3.573-4.574-7.006-7.232-10.306c1.028-0.153,2.034-0.166,3.016-0.064C92.79,75.477,92.508,75.735,92.681,76.026z
			 M79.542,97.393c-2.466,3.057,7.74,8.449,13.97,8.227c-2.594,2.598-5.78,4.759-9.2,5.012c-2.966,0.219-4.804-2.153-6.023-4.521
			c-2.131-4.136,0.072-8.214,2.99-11.219c2.832-2.916,6.696-4.761,10.564-5.823c2.063-0.565,3.809-0.354,5.573-0.052
			c1.052,1.997,2.082,4.007,3.068,6.04c-0.607,2.33-2.497,4.981-3.396,6.275c-0.169,0.243-0.365,0.494-0.547,0.742
			c-0.047,0-0.072-0.035-0.123-0.028c-1.457,0.157-2.712,0.688-4.223,0.649c-1.783-0.045-3.547-0.689-5.207-1.28
			c-1.557-0.553-3.048-1.345-4.453-2.21c-0.57-0.35-1.816-1.695-2.084-1.111C80.705,97.543,79.985,96.843,79.542,97.393z
			 M70.562,91.305c0.865-1.587,1.93-3.131,3.116-4.608c0.722,2.634,1.859,5.847,3.685,7.865c-1.354,1.706-2.262,3.793-2.625,5.999
			c-1.104-2.756-2.339-5.449-3.848-8.005C70.98,92.122,70.942,91.66,70.562,91.305z M74.362,85.88
			c1.182-1.387,2.463-2.709,3.83-3.909c0.716,1.324,1.489,2.619,2.283,3.897c0.735,1.186,1.421,2.719,2.399,3.762
			c-0.458,0.301-0.871,0.655-1.31,0.981c-1.353-2.638-3.162-4.752-3.366-7.905c-0.025-0.388-0.615-0.395-0.608,0
			c0.046,2.44,1.148,6.814,3.339,8.382c-0.981,0.772-1.897,1.604-2.739,2.486C76.612,91.138,75.24,88.717,74.362,85.88z
			 M88.236,82.34c0.789,0.958,1.551,1.938,2.286,2.938c0.187,0.255,0.47,0.573,0.732,0.899c-0.06,0.011-0.143,0.018-0.201,0.028
			c-0.913,0.166-1.803,0.478-2.694,0.772c-2.388-2.489-4.188-5.307-5.697-8.388c0.456-0.281,0.894-0.636,1.355-0.883
			C85.604,79.039,86.93,80.754,88.236,82.34z M84.842,77.32c1.438-0.702,2.885-1.273,4.311-1.579
			c2.404,3.219,4.569,6.564,6.518,10.029c-1.082-0.011-2.115,0.088-3.078,0.212c-0.553-1.403-2.096-2.825-2.91-3.777
			C88.238,80.519,86.681,78.646,84.842,77.32z M84.576,83.982c0.667,1.148,1.474,2.486,2.553,3.374
			c-1.195,0.478-2.338,1.093-3.449,1.762c-0.345-1.177-1.401-2.327-2.054-3.283c-0.985-1.446-1.955-2.907-2.841-4.417
			c1.085-0.91,2.208-1.748,3.355-2.489C82.83,80.671,83.633,82.358,84.576,83.982z M68.186,97.772
			c1.867,6.619,4.742,12.932,8.719,18.543c-5.093-3.588-8.903-9.322-9.023-15.83C67.866,99.616,68.011,98.697,68.186,97.772z
			 M68.595,96.132c0.235-0.81,0.454-1.618,0.803-2.442c0.429,0.106,0.784-0.087,1.072-0.364c1.575,3.577,2.846,7.278,4.135,10.958
			c0.213,2.153,0.943,4.196,2.19,5.851c1.207,2.951,2.61,5.806,4.412,8.473c-0.424-0.177-0.859-0.309-1.275-0.515
			c-0.016-0.03,0.004-0.061-0.018-0.089C74.923,111.309,71.175,104.04,68.595,96.132z M79.688,112.668
			c0.879,0.479,1.872,0.834,2.987,1.029c0.686,0.121,1.362,0.097,2.036,0.07c0.776,1.389,1.724,2.651,2.786,3.845
			c0.684,0.769,1.507,1.699,2.421,2.408c-1.993,0.196-4.049,0.038-6.079-0.504C82.19,117.37,80.836,115.071,79.688,112.668z
			 M88.795,117.196c-1.092-1.062-2.058-2.259-2.912-3.526c1.225-0.191,2.413-0.636,3.57-1.195c0.78,1.037,1.547,2.084,2.389,3.075
			c0.906,1.065,1.919,2.274,3.163,2.977c-1.073,0.578-2.199,1.008-3.368,1.269C90.78,118.858,89.701,118.077,88.795,117.196z
			 M93.154,115.197c-0.972-1.009-1.848-2.107-2.708-3.218c0.944-0.538,1.848-1.188,2.723-1.887c1.363,2.166,2.958,4.709,4.98,6.017
			c-0.687,0.7-1.402,1.339-2.172,1.846C95.174,116.919,94.072,116.15,93.154,115.197z M96.604,112.575
			c-0.916-1.027-1.721-2.154-2.526-3.275c1.231-1.078,2.379-2.261,3.414-3.45c0.512,1.403,1.074,2.784,1.761,4.13
			c0.407,0.798,0.893,1.727,1.469,2.579c-0.551,1-1.143,1.924-1.804,2.714C98.286,114.264,97.395,113.463,96.604,112.575z
			 M100.467,109.27c-0.86-1.394-1.555-2.896-2.198-4.411c0.709-0.869,1.429-1.749,1.993-2.563c0.021-0.03,0.052-0.089,0.073-0.12
			c0.862,2.385,1.838,4.819,2.944,7.198c-0.615,0.02-1.233,0.334-1.514,1.047c-0.056,0.139-0.13,0.244-0.187,0.38
			C101.181,110.302,100.794,109.799,100.467,109.27z M101.157,100.762c0.334-0.627,0.685-1.382,1.022-2.173
			c3.535,7.487,6.966,15.038,11.203,22.158c-0.247-0.076-0.503-0.13-0.744-0.222C108.339,114.016,104.278,107.891,101.157,100.762z
			 M103.007,96.387c0.997-3.106,1.271-6.336-1.225-7.154c0.11-0.204,0.124-0.468,0.018-0.688c-0.354-0.745-0.919-1.276-1.582-1.688
			c0.002-0.045,0.024-0.082,0.007-0.135c-1.394-4.022-4.68-7.478-6.931-11.052c-0.059-0.095-0.14-0.142-0.225-0.158
			c3.468,0.363,6.567,2.407,8.685,6.92c-0.269,1.869,2.576,2.625,3.046,0.697l0.563,0.016c1.204,2.234,2.393,4.476,3.598,6.714
			c0.09,0.167,0.217,0.252,0.354,0.278c-0.362,1.648-0.747,3.372-0.864,5.011c-0.009,0.122-0.007,0.259-0.014,0.385
			c-2.722-4.834-5.471-9.645-8.198-14.422c-0.291-0.508-1.023-0.062-0.775,0.453c2.978,6.191,6.048,12.4,9.221,18.561
			c0.425,2.634,1.37,5.243,3.118,6.917c0.312,0.299,0.618,0.505,0.926,0.731c2.466,4.578,5.017,9.097,7.675,13.531
			c-1.659,0.19-3.291,0.169-4.865-0.064C111.004,113.106,107.189,104.635,103.007,96.387z M115.753,109.005
			c0.488,0.03,0.967,0.004,1.433-0.109c2.522,3.844,4.955,7.794,7.693,11.475c-1.04,0.337-2.088,0.602-3.133,0.79
			C119.858,117.069,117.851,113.021,115.753,109.005z M117.986,108.636c0.964-0.413,1.863-1.101,2.66-2.01
			c1.436,1.877,2.93,3.715,4.38,5.574c1.418,1.818,2.887,4.465,4.734,6.071c-1.143,0.624-2.323,1.172-3.524,1.632
			C123.617,116.066,120.84,112.312,117.986,108.636z M124.984,95.252c0.219-1.538,0.349-3.061,0.337-4.548
			c0.375-0.174,0.734-0.359,1.105-0.536c4.047,6.476,8.492,13.035,13.663,18.543c-0.578,0.989-1.295,1.939-2.067,2.867
			C133.462,106.289,129.028,100.943,124.984,95.252z M127.286,89.007c0.002-0.642-0.428-1.303-1.063-1.466
			c-0.397-0.562-0.828-1.103-1.215-1.673c-0.077-0.113-0.183-0.156-0.289-0.191c-0.373-1.855-0.876-3.663-1.576-5.383
			c6.756,7.707,12.983,15.878,18.554,24.771c0.007,0.012,0.022,0.011,0.031,0.022c-0.198,0.688-0.491,1.368-0.8,2.046
			C136.7,100.901,131.751,95.106,127.286,89.007z M120.951,62.221c0.463,0.214,0.95,0.393,1.405,0.618
			c8.549,4.219,14.68,11.617,17.875,20.149c-2.803-3.731-6.027-7.259-9.026-10.713C128.039,68.631,124.76,65.122,120.951,62.221z
			 M3.545,150.337c-1.482-9.49,3.2-78.639,3.353-100.933c3.651,5.561,11.645,10.66,15.783,13.879
			c7.016,5.456,15.945,12.994,24.886,15.078c-2.785,5.162-4.702,10.943-5.423,17.295c-0.863,7.599,0.293,14.084,2.905,19.604
			c-0.008,0.004-0.014-0.001-0.022,0.004C30.044,124.581,16.268,138.059,3.545,150.337z M181.286,149.817
			c-25.247-2.207-50.817-3.075-76.078-1.057c-33.622,2.685-67.283-1.865-100.78,3.328c13.844-11.352,28.934-22.191,41.78-34.613
			c10.38,18.176,37.287,25.021,57.754,26.418c0.939,0.063,1.409-0.614,1.434-1.341c3.448-0.434,6.801-2.256,5.469-6.723
			c-1.815-6.083-8.099-7.407-13.911-7.957c-16.563-1.565-34.337-4-40.565-22.2c-2.278-6.657-1.303-13.208,1.537-19.041
			c2.833,2,5.893,3.7,8.859,5.517c-1.13,2.668-1.864,5.465-2.013,8.336c-1.047,20.248,27.586,30.768,38.154,14.256
			c0.019,0.01,0.032,0.028,0.052,0.038c0.145,0.075,0.283,0.087,0.409,0.062c2.251,5.479,6.838,8.395,12.14,9.342
			c0.303,0.464,0.565,0.95,0.879,1.409c0.493,0.724,1.647,0.074,1.187-0.694c-0.095-0.158-0.176-0.322-0.27-0.48
			c4.22,0.389,8.757-0.343,12.919-2.111c6.818,5.206,16.087,8.603,23.562,12.355c6.225,3.125,12.451,6.25,18.636,9.455
			c1.427,0.74,8.685,3.716,9.752,5.218C181.898,149.505,181.646,149.716,181.286,149.817z M185.163,90.255
			c-0.354,15.104-0.351,30.235-0.566,45.345c-0.044,3.096,0.896,8.561-0.612,11.799c-5.664-7.057-40.091-20.825-51.296-26.245
			c4.741-2.562,8.703-6.431,10.61-11.248c4.808-12.138,3.413-23.017-1.747-31.96c8.209-0.805,14.789-9.268,19.937-14.875
			c7.403-8.063,14.483-18.198,25.833-20.279c0.011-0.002,0.013-0.013,0.022-0.015C192.101,55.108,185.464,77.499,185.163,90.255z"/>
	</g>
</g>
<g>
</g>
<g>
</g>
<g>
</g>
<g>
</g>
<g>
</g>
<g>
</g>
<g>
</g>
<g>
</g>
<g>
</g>
<g>
</g>
<g>
</g>
<g>
</g>
<g>
</g>
<g>
</g>
<g>
</g>
</svg>
