<?xml version="1.0" encoding="iso-8859-1"?>
<!-- Generator: Adobe Illustrator 16.0.0, SVG Export Plug-In . SVG Version: 6.00 Build 0)  -->
<!DOCTYPE svg PUBLIC "-//W3C//DTD SVG 1.1//EN" "http://www.w3.org/Graphics/SVG/1.1/DTD/svg11.dtd">
<svg version="1.1" id="Capa_1" xmlns="http://www.w3.org/2000/svg" xmlns:xlink="http://www.w3.org/1999/xlink" x="0px" y="0px"
	 width="192.321px" height="192.322px" viewBox="0 0 192.321 192.322" style="enable-background:new 0 0 192.321 192.322;"
	 xml:space="preserve">
<g>
	<g>
		<path d="M188.815,154.671c-5.739-2.861-11.485-5.709-17.234-8.552c-1.106-0.547-2.609,0.101-2.566,1.472
			c0.05,1.584,0.177,3.168,0.261,4.754c-4.276-0.609-8.55-0.603-12.845-0.385c-0.136-1.181-0.396-2.378-1.215-3.201
			c-1.153-1.158-2.884,0.307-2.185,1.687c0.228,0.45,0.354,1.065,0.449,1.704c-2.722,0.191-5.451,0.414-8.207,0.625
			c-8.013,0.611-16.068,0.703-24.128,0.634c0.071-1.228,0.125-2.454,0.165-3.666c0.064-1.921-3.042-1.921-2.979,0
			c0.04,1.22,0.05,2.424,0.071,3.631c-7.424-0.095-14.847-0.288-22.238-0.329c-5.316-0.031-10.594,0.133-15.858,0.35
			c0.014-1.229,0.063-2.479,0.014-3.652c-0.073-1.754-2.648-1.754-2.722,0c-0.051,1.213-0.002,2.505,0.015,3.775
			c-10.409,0.484-20.751,1.197-31.075,1.531c0.181-1.679,0.361-3.479-0.149-4.9c-0.398-1.106-1.848-1.106-2.246,0
			c-0.516,1.439-0.327,3.265-0.143,4.959c-9.479,0.242-18.956,0.111-28.484-0.956c1.602-9.584,1.193-19.55,0.453-29.421
			c0.312,0.002,0.626,0.045,0.938,0.037c1.922-0.047,3.941-0.541,4.347-2.686c0.227-1.199-1.394-2.025-2.045-0.861
			c-0.576,1.028-2.102,1.176-3.423,1.178c-0.419-5.282-0.891-10.532-1.168-15.668c-0.403-7.488-0.196-14.921-0.019-22.324
			c1.903,0.14,3.798,0.175,5.575-0.055c1.643-0.212,1.642-2.342,0-2.556c-1.813-0.235-3.661-0.251-5.515-0.244
			c0.225-10.544,0.222-21.033-1.902-31.523c2.071,0.128,4.139,0.174,5.983,0.274c1.272,0.069,2.003-1.435,1.416-2.467
			c-3.356-5.895-4.773-12.423-6.219-18.982c-0.396-1.797-2.743-1.453-3.296,0C8.382,34.789,5.813,40.62,4.18,46.771
			c-0.155,0.585,0.011,1.081,0.317,1.459c0.012,0.03,0.045,0.049,0.063,0.077c0.377,0.413,0.933,0.633,1.488,0.587
			c1.37,0.437,2.833,0.736,4.369,0.91c1.434,10.587,1.475,21.15,1.289,31.738c-1.484-0.006-2.966-0.04-4.433-0.214
			c-1.152-0.137-1.405,1.805-0.274,2.02c1.484,0.281,3.064,0.537,4.662,0.753c-0.154,7.522-0.377,15.058-0.266,22.628
			c0.077,5.238,0.338,10.414,0.608,15.57c-1.338-0.062-2.677-0.115-4.014-0.035c-1.236,0.076-1.218,1.803,0,1.906
			c1.369,0.115,2.749,0.266,4.131,0.389c0.509,9.73,0.965,19.394,0.202,29.213c-3.749-0.502-7.506-1.143-11.276-1.98
			c-1.071-0.238-1.482,1.282-0.45,1.633c3.781,1.285,7.603,2.278,11.451,3.076c-0.111,1.092-0.187,2.18-0.332,3.276
			c-0.195,1.474,2.172,1.714,2.54,0.344c0.27-1.009,0.429-2.04,0.647-3.06c9.655,1.728,19.483,2.109,29.351,1.929
			c0.066,1.759,0.139,3.522,0.417,5.254c0.095,0.595,1.1,0.595,1.196,0c0.28-1.744,0.352-3.521,0.418-5.292
			c10.498-0.275,21.026-1.139,31.449-1.8c0.108,1.692,0.232,3.394,0.455,4.989c0.108,0.769,1.438,0.769,1.545,0
			c0.23-1.646,0.362-3.396,0.469-5.144c0.901-0.054,1.808-0.118,2.707-0.168c11.804-0.647,23.641-0.304,35.462-0.103
			c-0.038,1.49-0.079,2.979-0.265,4.484c-0.139,1.133,1.694,1.336,1.96,0.266c0.383-1.537,0.616-3.121,0.793-4.713
			c1.504,0.022,3.009,0.056,4.512,0.067c9.253,0.074,18.939-1.166,28.491-1.502c0.294,2.192,0.451,4.401,0.706,6.599
			c0.162,1.402,2.049,1.42,2.192,0c0.226-2.205,0.114-4.439-0.057-6.656c4.312-0.059,8.591,0.089,12.77,0.709
			c0.094,1.505,0.149,3.012,0.247,4.515c0.032,0.485,0.333,0.728,0.675,0.847c0.087,1.094,1.155,1.887,2.233,1.596
			c5.332-1.445,10.301-4.094,15.765-5.041C189.887,157.638,190.127,155.325,188.815,154.671z"/>
		<path d="M192.26,110.294c-0.358-2.654-3.108-4.426-5.667-4.381c0.021-0.033,0.037-0.072,0.057-0.105
			c0.617-1.026-0.752-1.967-1.591-1.229c-2.111,1.861-2.9,4.408-2.446,6.758c-6.689,4.518-11.963,9.934-17.38,16.11
			c-1.004,1.146-1.936,1.955-2.836,2.619c-2.853-1.989-6.262-2.455-8.517-0.595c-3.75-3.994-6.337-12.399-9.054-17.861
			c-8.016-16.111-15.483-32.342-27.476-45.642c0.779-1.749,0.792-4.043,0.255-5.978c-0.816-2.94-3.343-4.277-6.224-3.533
			c-0.338,0.087-0.641,0.251-0.958,0.386c-0.127-0.211-0.318-0.385-0.638-0.396c-3.864-0.125-8.198,2.057-6.232,6.469
			c0.58,1.302,1.601,2.418,2.819,3.323c-6.869,14.853-14.784,29.141-22.554,43.553c-4.951,9.184-7.1,10.963-15.407,3.873
			c-6.682-5.703-13.124-11.453-19.262-17.684c0.106-0.571,0.191-1.134,0.267-1.66c0.228-1.574,0.696-3.234-0.764-4.313
			c-0.191-0.141-0.438-0.16-0.662-0.231c-0.121-0.158-0.301-0.28-0.573-0.3c-2.432-0.181-5.381-0.126-6.699,2.31
			c-0.189,0.349-0.226,0.722-0.297,1.09c-0.38,0.519-0.67,1.077-0.658,1.711c0.021,1.154,0.639,1.915,1.482,2.45
			c-4.79,6.441-9.574,12.641-13.345,19.734c-0.449,0.138-0.861,0.324-1.242,0.56c-0.031,0.005-0.061-0.005-0.092,0
			c-1.55,0.245-2.046,1.933-1.865,3.257c0.002,0.014,0.008,0.029,0.01,0.043c-0.01,0.691,0.102,1.428,0.496,2.234
			c0.36,0.738,0.924,1.363,1.605,1.787c0.797,0.771,1.756,1.242,2.801,0.975c0.89-0.229,1.508-1.105,1.916-2.095
			c0.664-0.847,1.154-1.881,1.53-2.794c0.244-0.592-0.154-1.365-0.675-1.658c-0.454-0.256-0.923-0.516-1.404-0.758
			c0.856-0.165,1.186-1.445,0.177-1.682c-0.16-0.037-0.318-0.03-0.477-0.055c3.035-5.584,8.357-14.342,13.264-16.369
			c1.015,0.75,2.194,1.069,3.322,0.002c0.042-0.039,0.064-0.097,0.104-0.139c0.625,0.248,1.235,0.619,1.813,1.238
			c7.118,7.634,15.561,14.145,23.549,20.951c-1.752,1.351-2.64,3.463-1.366,5.971c2.185,4.303,7.722,3.809,10.907,1.158
			c1.525-1.27,2.879-3.1,2.48-5.168c-0.268-1.385-1.635-2.16-2.933-2.588c5.334-10.48,10.935-20.812,16.536-31.156
			c3.752-6.927,7.248-13.959,10.643-21.067c0.264-0.552,0.549-0.987,0.846-1.354c0.892,0.306,1.789,0.51,2.639,0.597
			c1.135,0.116,2.043-0.095,2.803-0.483c4.153,3.274,8.346,11.368,8.762,11.97c11.21,16.259,18.031,35.091,28.005,52.116
			c-0.062,0.182-0.155,0.32-0.209,0.515c-0.974,3.556-0.078,9.116,3.514,10.979c2.081,1.078,4.208,0.207,5.884-1.174
			c2.115-1.746,5.183-5.587,4.645-8.512c-0.111-0.604-0.373-1.044-0.706-1.395c5.84-6.59,11.69-13.064,19.016-18.149
			c0.455,0.511,0.973,0.991,1.61,1.394C189.996,118.573,192.776,114.128,192.26,110.294z"/>
	</g>
</g>
<g>
</g>
<g>
</g>
<g>
</g>
<g>
</g>
<g>
</g>
<g>
</g>
<g>
</g>
<g>
</g>
<g>
</g>
<g>
</g>
<g>
</g>
<g>
</g>
<g>
</g>
<g>
</g>
<g>
</g>
</svg>
