<?xml version="1.0" encoding="iso-8859-1"?>
<!-- Generator: Adobe Illustrator 16.0.0, SVG Export Plug-In . SVG Version: 6.00 Build 0)  -->
<!DOCTYPE svg PUBLIC "-//W3C//DTD SVG 1.1//EN" "http://www.w3.org/Graphics/SVG/1.1/DTD/svg11.dtd">
<svg version="1.1" id="Capa_1" xmlns="http://www.w3.org/2000/svg" xmlns:xlink="http://www.w3.org/1999/xlink" x="0px" y="0px"
	 width="190.785px" height="190.784px" viewBox="0 0 190.785 190.784" style="enable-background:new 0 0 190.785 190.784;"
	 xml:space="preserve">
<g>
	<path d="M164.963,129.46c-0.556-1.403-1.296-2.766-2.15-4.098c0.577-15.173,1.286-30.355,1.445-45.692
		c0.019-1.752-1.222-3.369-2.91-3.822c-5.425-1.456-10.874-2.461-16.345-3.14c0.012-0.029,0.032-0.046,0.043-0.076
		c11.248-31.045-12.583-75.079-47.379-72.526C79.359,1.449,63.903,13.715,57.423,30.65c-3.255,8.505-13.116,40.515-3.525,47.06
		c0.221,0.151,0.585,0.148,0.806,0c1.572-1.056,2.598-3.038,3.287-5.487c1.485,1.061,2.999,2.085,4.529,3.068
		c1.008,0.648,2.154,1.489,3.355,2.135c-10.971,1.445-21.911,2.714-32.773,3.165c-1.324,0.055-1.812,1.103-1.594,2.035
		c-0.246,0.345-0.395,0.731-0.395,1.137c-0.523-0.352-1.197-0.413-1.672,0.196c-3.254,4.174-3.028,10.623-3.351,15.643
		c-0.876,13.631-0.245,27.388,0.523,41.008c0.643,11.39-1.32,40.112,12.628,45.086c20.7,7.38,46.55,4.816,68.036,3.933
		c11.371-0.469,22.782-1.269,34.062-2.797c5.637-0.764,14.538-0.784,18.631-5.466c0.536-0.615,0.779-1.374,0.808-2.138
		c0.945-0.51,1.635-1.448,1.58-2.841c-0.581-14.919-0.287-29.688,0.221-44.447C164.008,132.127,165.633,131.149,164.963,129.46z
		 M124.649,64.351c1.376,1.313,2.79,2.585,4.258,3.814c1.335,1.117,2.681,2.389,4.08,3.576c-2.612-0.108-5.226-0.174-7.844-0.165
		C125.545,69.414,125.112,66.811,124.649,64.351z M138.308,71.239c-2.016-1.828-4.543-3.195-6.706-4.827
		c-2.587-1.953-5.082-4.038-7.512-6.183c-0.044-0.039-0.092-0.05-0.137-0.082c-0.384-3.911-0.797-7.813-1.359-11.696
		c1.637,1.659,3.224,3.419,4.877,4.975c2.049,1.927,4.161,3.792,6.271,5.651c1.257,1.107,2.666,2.57,4.315,3.153
		C138.107,65.209,138.166,68.21,138.308,71.239z M137.954,57.8c-0.781-0.614-1.604-1.182-2.307-1.748
		c-2.21-1.786-4.374-3.627-6.573-5.426c-2.304-1.885-4.562-3.91-7.03-5.595c-0.172-0.983-0.335-1.966-0.537-2.946
		c-0.735-3.564-1.895-7.124-3.567-10.308c6.393,5.532,12.772,11.109,19.493,16.333C137.75,51.312,137.872,54.545,137.954,57.8z
		 M130.299,25.623c-3.167-2.457-6.598-4.67-9.736-7.029c-4.247-3.192-8.312-6.6-12.279-10.123
		C117.367,10.57,124.939,16.862,130.299,25.623z M104.24,7.851c4.097,4.094,8.351,8.008,12.762,11.77
		c4.99,4.256,10.212,9.274,16.048,12.306c0.187,0.097,0.373,0.152,0.555,0.172c1.178,2.832,2.056,5.681,2.678,8.55
		C122.483,29.452,109.221,16.862,93.498,8.7C97.241,7.781,100.826,7.545,104.24,7.851z M88.999,10.143
		c5.535,3.205,10.729,6.812,15.702,10.686c-0.442-0.101-0.881-0.209-1.345-0.281c-2.974-0.462-5.814-0.344-8.479,0.253
		c-2.051-1.335-4.297-2.472-6.261-3.852c-1.861-1.308-3.65-2.718-5.424-4.147C85.005,11.796,86.955,10.923,88.999,10.143z
		 M80.484,14.413c1.694,1.471,3.39,2.94,5.115,4.377c1.402,1.168,2.93,2.493,4.551,3.668c-2.54,1.209-4.862,2.86-6.895,4.872
		c-1.264-0.973-2.666-1.822-3.892-2.716c-1.973-1.439-3.86-2.988-5.705-4.586C75.679,17.929,77.975,16.071,80.484,14.413z
		 M71.854,22.015c1.57,1.453,3.169,2.875,4.8,4.273c1.324,1.135,2.726,2.544,4.248,3.687c-1.518,1.93-2.829,4.061-3.875,6.352
		c-1.336-0.82-2.706-1.602-3.94-2.503c-2.11-1.541-4.032-3.338-5.854-5.228C68.583,26.251,70.128,24.056,71.854,22.015z
		 M65.751,31.411c1.417,1.535,2.911,2.999,4.514,4.376c1.562,1.341,3.368,2.944,5.307,4.114c-0.892,2.46-1.723,5.209-2.397,8.095
		c-1.753-1.273-3.791-2.305-5.426-3.625c-1.882-1.522-3.644-3.225-5.26-5.051C63.386,36.55,64.502,33.931,65.751,31.411z
		 M59.938,49.86c0.42-2.476,0.947-4.896,1.58-7.25c1.222,1.429,2.517,2.8,3.897,4.096c1.757,1.65,4.352,4.233,7.011,4.912
		c-0.578,3.275-0.915,6.638-0.87,9.891c-2.069-1.434-4.176-2.832-6.092-4.429c-1.994-1.663-3.902-3.431-5.75-5.262
		C59.772,51.095,59.842,50.427,59.938,49.86z M60.82,70.747c-0.23-0.134-1.124-0.705-2.198-1.41c0.739-4.4,0.78-9.593,0.912-13.823
		c1.248,1.248,2.493,2.497,3.808,3.69c2.58,2.339,5.451,5.125,8.586,7.067c0.445,2.98,1.292,5.766,2.695,8.16
		c1.049,1.791,3.986,1.058,3.941-1.068c-0.203-9.706-0.042-18.73,2.809-28.164c3.12-10.324,12.734-22.193,24.822-15.94
		c7.584,3.923,8.592,16.891,9.432,24.234c0.499,4.358-0.204,13.372,2.291,18.237c-15.876,0.629-31.833,2.973-47.737,5.12
		c-0.023-0.17-0.043-0.341-0.158-0.498C68.089,73.714,63.597,72.37,60.82,70.747z M152.704,157.32
		c-9.311-13.211-23.005-23.916-34.979-34.292c-14.487-12.555-29.042-24.872-41.65-39.276c4.311-0.411,8.622-0.881,12.932-1.352
		c0.018,0.332,0.155,0.665,0.488,0.911c23.741,17.546,40.668,42.125,63.352,60.684C152.651,148.418,152.549,152.889,152.704,157.32z
		 M91.827,82.093c5.211-0.568,10.423-1.112,15.636-1.558c-0.216,0.46-0.207,1,0.255,1.365c9.728,7.685,19.204,15.632,28.427,23.916
		c6.3,5.66,11.894,12.57,17.879,18.745c-0.11,1.652-0.232,3.305-0.334,4.958c-0.156,2.538-0.324,5.145-0.486,7.777
		C132.8,118.815,115.19,96.904,91.827,82.093z M48.079,180.403c-9.28-1.605-12.447-10.543-13.569-20.482
		c4.282,4.944,8.666,9.795,13.151,14.561c1.789,1.9,3.776,4.356,5.916,6.725C51.737,180.958,49.898,180.718,48.079,180.403z
		 M61.315,182.067c-0.574-0.466-1.152-0.93-1.712-1.409c-3.245-2.785-6.394-5.683-9.526-8.594
		c-5.488-5.104-10.771-10.439-15.909-15.898c-0.322-4.825-0.295-9.664-0.353-13.896c8.242,9.414,16.789,18.539,25.455,27.581
		c4.014,4.188,7.852,8.279,11.401,12.796C67.542,182.515,64.419,182.34,61.315,182.067z M78.312,182.856
		c-0.425-0.515-1.02-0.684-1.622-0.575c-1.075-1.458-2.528-3.345-3.032-3.975c-3.377-4.219-7.429-7.784-11.311-11.531
		c-9.624-9.287-19.166-18.661-28.634-28.108c-0.019-0.463-0.023-0.983-0.049-1.42c-0.266-4.457-0.419-8.923-0.525-13.392
		c19.43,20.086,40.54,38.436,59.676,58.829C87.991,182.831,83.149,182.912,78.312,182.856z M100.055,182.414
		c-20.583-22.458-44.553-41.636-66.989-62.194c-0.133-7.061-0.213-14.125-0.443-21.176c13.669,17.262,29.641,32.462,44.909,48.275
		c9.219,9.547,19.68,27.991,32.599,34.59C106.794,182.096,103.433,182.264,100.055,182.414z M117.366,181.529
		c-0.016-0.473-0.196-0.943-0.626-1.334c-12.632-11.495-23.667-24.258-35.655-36.43c-15.499-15.732-32.488-29.793-47.347-46.182
		c-0.386-0.426-0.86-0.342-1.167-0.046c-0.15-4.115-0.345-8.227-0.672-12.327c34.617,30.135,64.027,66.353,99.472,95.417
		C126.684,181.038,121.985,181.293,117.366,181.529z M137.706,179.957c-0.077-0.486-0.27-0.978-0.74-1.439
		c-32.38-31.806-64.243-65.662-99.753-94.051c5.181,0.505,10.357,0.672,15.531,0.637c25.737,22.478,49.794,46.27,72.807,71.559
		c1.527,1.678,10.516,15.648,18.037,22.412C141.64,179.409,139.681,179.712,137.706,179.957z M149.813,177.802
		c-3.322-6.031-35.466-40.411-36.625-41.57c-17.842-17.868-36.383-35.312-56.042-51.203c5.286-0.157,10.569-0.527,15.851-0.994
		c9.782,13.171,21.472,24.51,33.597,35.637c16.117,14.793,30.902,30.787,46.706,45.788c0.441,3.693,1.11,7.318,2.135,10.804
		C153.591,176.854,151.709,177.348,149.813,177.802z M155.687,98.887c-0.072,1.357-0.179,2.714-0.259,4.071
		c-4.016-3.458-8.937-6.273-12.985-9.411c-5.443-4.219-10.702-8.714-15.738-13.409c-1.144-1.067-2.804,0.585-1.716,1.716
		c4.779,4.969,9.826,9.605,15.066,14.082c4.661,3.982,9.53,9.14,15.05,12.113c-0.174,2.674-0.323,5.35-0.51,8.023
		c-4.423-4.021-9.318-7.65-13.17-10.927c-10.178-8.664-20.884-16.753-31.555-24.799c9.045-0.711,18.094-1.038,27.158-0.509
		c1.998,2.566,4.2,4.924,6.58,7.15c2.849,2.664,5.733,5.577,9.188,7.425c1.727,0.923,3.486-1.283,2.096-2.715
		c-2.394-2.463-5.36-4.292-8.036-6.444c-1.917-1.542-3.689-3.275-5.378-5.083c2.562,0.235,5.128,0.522,7.693,0.922
		C159.426,82.689,156.126,90.531,155.687,98.887z"/>
</g>
<g>
</g>
<g>
</g>
<g>
</g>
<g>
</g>
<g>
</g>
<g>
</g>
<g>
</g>
<g>
</g>
<g>
</g>
<g>
</g>
<g>
</g>
<g>
</g>
<g>
</g>
<g>
</g>
<g>
</g>
</svg>
