<?xml version="1.0" encoding="iso-8859-1"?>
<!-- Generator: Adobe Illustrator 16.0.0, SVG Export Plug-In . SVG Version: 6.00 Build 0)  -->
<!DOCTYPE svg PUBLIC "-//W3C//DTD SVG 1.1//EN" "http://www.w3.org/Graphics/SVG/1.1/DTD/svg11.dtd">
<svg version="1.1" id="Capa_1" xmlns="http://www.w3.org/2000/svg" xmlns:xlink="http://www.w3.org/1999/xlink" x="0px" y="0px"
	 width="191.11px" height="191.11px" viewBox="0 0 191.11 191.11" style="enable-background:new 0 0 191.11 191.11;"
	 xml:space="preserve">
<g>
	<g>
		<path d="M189.391,146.183c-6.393-0.781-12.512-2.749-18.066-6.02c-1.099-0.647-2.557,0.178-2.545,1.46
			c0.017,1.771,0.113,3.517,0.266,5.249c-2.751-0.147-5.504-0.226-8.26-0.262c-0.116-0.978-0.288-1.958-0.339-2.885
			c-0.034-0.629-0.941-0.629-0.975,0c-0.052,0.927-0.224,1.907-0.34,2.886c-17.425-0.112-34.931,1.605-52.396,2.096
			c-0.084-0.428-0.196-0.856-0.274-1.3c-0.253-1.438-0.328-2.929-0.442-4.382c-0.073-0.924-1.362-0.925-1.434,0
			c-0.111,1.439-0.543,3.889-0.141,5.738c-4.361,0.094-8.721,0.129-13.074-0.003c-26.048-0.792-52.417-4.212-78.163,0.21
			c-0.002-0.096-0.007-0.191-0.008-0.287c6.645-9.713,15.889-16.988,24.431-24.964c0.979,0.705,2.097,1.225,3.21,1.434
			c1.849,0.346,3.04-0.106,3.796-0.996c2.35-0.669,4.842-2.45,4.626-5.164c-0.197-2.484-2.276-4.369-4.275-5.584
			c-0.147-0.089-0.325-0.16-0.48-0.246c-0.182-0.612-0.383-1.211-0.984-1.563c-0.222-0.13-0.45-0.191-0.675-0.217
			c0.281-6.337,0.292-12.693,0.284-19.04c0.917-0.069,1.781-0.418,2.556-0.958c4.841,4.351,9.48,8.927,13.894,13.708
			c3.96,4.288,7.129,9.067,10.472,13.712c-0.099,0.264-0.118,0.53-0.199,0.798c-0.117-0.438-0.469-0.804-0.993-0.76
			c-2.33,0.196-4.662,0.668-7.008,0.894c-1.112,0.106-1.114,1.624,0,1.729c2.362,0.222,5.38,0.504,7.541-0.653
			c0.113-0.061,0.15-0.174,0.224-0.264c-0.058,0.281-0.179,0.566-0.209,0.84c-0.426,3.808,1.719,6.966,4.794,7.866
			c-0.109,2.071-0.134,4.396,1.106,5.919c0.487,0.598,1.285,0.04,1.35-0.559c0.102-0.943-0.147-1.851-0.304-2.781
			c-0.13-0.771-0.191-1.555-0.232-2.341c0.987-0.025,2.012-0.207,3.068-0.726c3.836-1.883,4.617-7.485,2.512-10.794
			c6.734-8.902,12.135-20.777,18.049-29.371c1.522-2.211,3.063-4.408,4.601-6.608c0.235,0.151,0.502,0.224,0.752,0.343
			c-0.157,2.425-0.276,5.167,0.887,7.144c0.438,0.744,1.464,0.369,1.528-0.414c0.105-1.292-0.273-2.535-0.421-3.822
			c-0.09-0.789-0.114-1.585-0.16-2.38c1.508,0.181,3.111-0.172,4.636-1.423c0.456-0.374,0.846-0.785,1.204-1.211
			c1.062,0.614,2.085,1.224,2.948,1.553c11.189,4.267,22.753,7.358,34.08,11.177c-1.432,0.026-2.85,0.16-4.045,0.363
			c-0.646,0.11-0.645,1.187,0,1.297c1.367,0.234,2.745,0.307,4.129,0.401c0.83,0.057,1.664,0.214,2.499,0.339
			c-0.021,0.85,0.024,1.699,0.202,2.517c0.514,2.376,2.104,4.713,4.443,5.573c0.729,0.268,1.46,0.373,2.183,0.356
			c-0.867,2.521-1.121,5.503,0.049,7.386c0.346,0.556,1.307,0.513,1.459-0.191c0.302-1.398-0.034-2.869-0.005-4.302
			c0.021-1.078,0.214-2.177,0.488-3.252c1.484-0.479,2.87-1.383,4.022-2.414c4.314-3.862,2.728-9.594-2.097-12.045
			c-3.391-1.722-7.22-1.162-8.972,1.543c-0.016,0.017-0.035,0.029-0.051,0.046c-13.188-4.693-26.864-7.811-39.793-13.184
			c0.491-1.695,0.373-3.541-0.486-5.355c-1.297-2.743-4.293-4.005-7.054-3.233c-3.123-0.251-5.394,1.894-5.914,4.921
			c-1.721-0.821-4.46-0.322-6.076-0.174c-1.028,0.094-1.027,1.5,0,1.596c1.334,0.125,2.699,0.26,4.022,0.475
			c0.732,0.119,1.339,0.311,2.017,0.329c0.03,0.29,0.034,0.572,0.093,0.869c0.191,0.955,0.566,1.805,1.018,2.589
			c-6.433,8.558-19.352,25.711-24.236,36.094c-0.262-0.026-0.517-0.062-0.798-0.055c-0.099,0.003-0.201,0.03-0.301,0.042
			c-1.144-0.503-2.395-0.579-3.76,0.036c-2.897-4.154-6.857-8.075-9.596-11.166c-4.801-5.419-9.925-10.628-15.35-15.461
			c1.097-1.96,1.463-4.436,0.55-6.591c-2.305-5.439-9.685-4.592-12.186-0.311c-0.041-0.015-0.058-0.059-0.104-0.067
			c-1.86-0.309-3.951,0.115-5.834,0.265c-0.723,0.057-0.723,1.066,0,1.123c1.706,0.135,3.574,0.469,5.295,0.306
			c-0.159,0.651-0.243,1.342-0.179,2.092c0.135,1.577,1.132,2.802,2.425,3.627c0.329,0.465,0.713,0.882,1.12,1.273
			c-0.085,0.005-0.167,0.013-0.252,0.017c-0.686,0.03-0.686,1.034,0,1.064c0.408,0.018,0.811,0.049,1.214,0.081
			c-0.003,6.706,0.004,13.425,0.316,20.12c-0.709-0.02-1.409,0.042-2.06,0.295c-1.835,0.712-2.451,2.241-2.411,3.888
			c-0.229,0.395-0.495,0.757-0.656,1.21c-0.15,0.42-0.224,0.831-0.26,1.237c-1.213,0.315-2.369,0.868-3.474,1.513
			c-0.616,0.359-0.204,1.431,0.495,1.175c1.045-0.383,2.118-0.585,3.199-0.754c0.107,0.323,0.245,0.636,0.411,0.938
			c-7.869,7.05-16.874,13.813-22.449,22.58c-0.188-7.318-0.438-14.636-0.697-21.951c1.318,0.056,2.637,0.098,3.95,0.214
			c1.219,0.107,1.219-2,0-1.893c-1.328,0.117-2.664,0.16-3.997,0.218c-0.318-8.871-0.657-17.74-0.98-26.611
			c1.883-0.395,3.751-0.433,5.678-0.377c1.306,0.038,1.305-2.068,0-2.025c-1.974,0.064-3.858,0.256-5.737,0.788
			c-0.076-2.096-0.16-4.19-0.232-6.286c0.018,0.01,0.037,0.022,0.054,0.033c0.591,0.354,1.147-0.4,0.767-0.905
			c0.326-0.009,0.658,0.007,0.961,0.018c1.037,0.037,2.035,0.229,3.026-0.174c0.623-0.254,1.021-1.293,0.216-1.648
			c-1.165-0.514-3.538-0.894-5.132-0.355c-0.082-2.508-0.197-5.014-0.268-7.522c0.182,0.332,0.503,0.585,0.992,0.459
			c2.098-0.544,4.216-0.262,6.295-0.743c0.861-0.2,0.865-1.542,0-1.739c-2.216-0.505-4.667-0.041-6.798,0.658
			c-0.261,0.085-0.414,0.255-0.52,0.441c-0.241-8.609-0.419-17.222-0.45-25.842c1.342-0.025,2.685-0.034,4.024-0.13
			c0.863-0.061,1.585-0.675,1.587-1.587c0.012-7.137-1.417-14.26-5.089-20.44c-0.603-1.014-2.222-1.095-2.804,0
			c-3.602,6.764-5.655,14.12-7.836,21.423c-0.52,1.741,1.985,2.75,2.891,1.219c0.099-0.168,0.168-0.345,0.264-0.514
			c1.614,0.046,3.229,0.087,4.844,0.089c-1.873,33.369,1.273,66.874,2.38,100.287c-0.024,0.147-0.053,0.293-0.025,0.425
			c-2.783,0.542-5.562,1.147-8.329,1.896c-0.957,0.259-0.538,1.608,0.401,1.454c2.674-0.441,5.347-0.753,8.02-1.076
			c0.121,4.089,0.236,8.176,0.274,12.261c0.016,1.696,2.64,1.697,2.631,0c-0.024-4.211-0.097-8.419-0.179-12.627
			c9.202-0.982,18.403-1.31,27.61-1.297c0.07,0.892,0.419,1.643,1.561,1.251c0.441-0.151,0.694-0.76,0.293-1.112
			c-0.044-0.038-0.042-0.106-0.078-0.15c10.82,0.068,21.651,0.615,32.502,1.19c0.085,0.147,0.236,0.24,0.403,0.302
			c0.006,0.004,0.009,0.008,0.014,0.011c0.107,0.037,0.209,0.021,0.325,0.02c0.115,0.003,0.218,0.019,0.325-0.02
			c0.005-0.002,0.008-0.007,0.014-0.011c0.131-0.048,0.241-0.128,0.326-0.229c4.94,0.263,9.884,0.525,14.834,0.752
			c26.038,1.193,52.026-1.85,78.064-2.024c0.147,0.881,0.358,1.749,0.579,2.616c0.026,0.734,0.06,1.471,0.076,2.217
			c0.02,0.851,0.532,1.381,1.204,1.604c0.142,0.338,0.227,0.686,0.384,1.021c0.5,1.071,2.239,0.31,1.891-0.797
			c-0.037-0.117-0.048-0.234-0.084-0.352c5.999-1.063,11.786-3.525,16.785-6.975C191.782,148.396,191.108,146.393,189.391,146.183z"
			/>
		<path d="M41.511,127.885c-0.715,1.469-1.321,3.249-0.743,4.842c0.277,0.764,1.258,0.753,1.539,0
			c0.505-1.354,0.24-2.789,0.744-4.192C43.373,127.635,41.928,127.028,41.511,127.885z"/>
		<path d="M41.958,138.574c-0.239-0.547-0.971-0.123-0.891,0.376c0.337,2.103-0.266,4.396,0.344,6.404
			c0.248,0.816,1.407,0.82,1.653,0C43.716,143.184,42.835,140.582,41.958,138.574z"/>
		<path d="M76.542,140.407c0.179-0.891-1.019-1.198-1.34-0.37c-0.75,1.934-1.36,4.384,0.013,6.175
			c0.393,0.511,1.529,0.466,1.418-0.385C76.39,143.945,76.162,142.303,76.542,140.407z"/>
		<path d="M107.259,97.478c0.022-0.522-0.814-0.797-1.033-0.279c-1.131,2.667-1.841,6.794-0.985,9.6
			c0.231,0.754,1.294,0.754,1.525,0c0.438-1.433,0.303-2.919,0.277-4.401C107.017,100.751,107.186,99.119,107.259,97.478z"/>
		<path d="M106.021,114.106c-0.743,2.033-1.343,4.561-0.737,6.693c0.203,0.714,1.235,0.711,1.44,0
			c0.583-2.022,0.197-4.23,0.665-6.316C107.59,113.581,106.331,113.254,106.021,114.106z"/>
		<path d="M106.324,126.997c0.097-0.425-0.491-0.572-0.641-0.177c-0.879,2.304-1.558,4.836-1.164,7.312
			c0.124,0.78,1.442,0.779,1.567,0C106.466,131.762,105.781,129.367,106.324,126.997z"/>
		<path d="M160.784,119.633c-0.075-1.549-0.182-3.091-0.307-4.637c-0.055-0.666-0.981-0.666-1.035,0
			c-0.126,1.546-0.233,3.088-0.308,4.637c-0.075,1.55-0.355,3.17,0.154,4.657c0.228,0.661,1.113,0.661,1.34,0
			C161.14,122.803,160.859,121.183,160.784,119.633z"/>
		<path d="M159.769,129.711c-0.075-0.655-0.947-0.657-1.021,0c-0.274,2.493-0.374,4.866,1.358,6.861
			c0.5,0.576,1.592-0.032,1.309-0.763C160.624,133.767,160.021,131.901,159.769,129.711z"/>
		<path d="M29.832,74.306c-2.149-0.433-4.347-0.034-6.513,0.15c-0.771,0.065-0.771,1.132,0,1.197
			c2.166,0.183,4.364,0.582,6.513,0.15C30.575,75.653,30.575,74.456,29.832,74.306z"/>
		<path d="M42.938,75.009c-2.059-0.174-4.231,0.569-6.306,0.738c-0.913,0.074-0.915,1.348,0,1.419
			c2.163,0.169,4.85,0.638,6.683-0.766C43.907,75.947,43.718,75.074,42.938,75.009z"/>
		<path d="M57.176,74.95c-2.106-0.492-4.261,0.016-6.379-0.437c-0.717-0.154-0.971,0.831-0.299,1.083
			c2.195,0.825,4.332,1.503,6.678,0.964C57.976,76.376,57.973,75.136,57.176,74.95z"/>
		<path d="M74.011,74.886c-2.663-0.609-5.318,0.558-7.948,0.905c-0.839,0.111-0.871,1.254,0,1.33
			c2.58,0.228,5.433,0.196,7.948-0.496C74.848,76.394,74.896,75.089,74.011,74.886z"/>
		<path d="M86.384,74.197c-1.879,0.143-3.722,0.651-5.606,0.834c-0.931,0.09-0.933,1.361,0,1.449
			c2.098,0.196,4.487,0.667,6.212-0.819C87.542,75.184,87.114,74.142,86.384,74.197z"/>
		<path d="M27.756,82.615c-2.49-0.673-5.406-0.056-7.942,0.176c-0.866,0.079-0.866,1.266,0,1.345
			c2.536,0.231,5.452,0.848,7.942,0.175C28.597,84.084,28.597,82.842,27.756,82.615z"/>
		<path d="M31.21,91.202c-1.568-0.586-3.283-0.18-4.895-0.736c-0.782-0.27-1.307,0.972-0.563,1.337
			c1.594,0.782,3.73,1.376,5.459,0.739C31.873,92.298,31.869,91.448,31.21,91.202z"/>
		<path d="M62.042,91.202c-1.715-0.248-3.363-0.132-5.09-0.04c-0.914,0.049-0.914,1.37,0,1.419c1.727,0.092,3.375,0.208,5.09-0.04
			C62.709,92.446,62.709,91.298,62.042,91.202z"/>
		<path d="M81.479,91.251c-2.557-0.04-5.153,0.538-7.708,0.73c-0.761,0.057-0.762,1.126,0,1.182c2.562,0.189,5.754,0.76,8.021-0.756
			C82.296,92.07,82.119,91.261,81.479,91.251z"/>
		<path d="M103.901,91.782c-2.098,0.096-4.201,0.578-6.306,0.775c-0.922,0.086-0.925,1.351,0,1.434
			c2.202,0.198,4.73,0.41,6.706-0.735C104.963,92.871,104.701,91.745,103.901,91.782z"/>
		<path d="M121.246,91.945c-2.474,0.447-4.64,1.993-7.166,0.696c-0.838-0.43-1.541,0.76-0.739,1.264
			c2.602,1.635,6.249,1.109,8.537-0.873C122.417,92.567,121.829,91.84,121.246,91.945z"/>
		<path d="M138.237,92.32c-2.81,0.283-5.588,0.608-8.409,0.789c-1.114,0.072-1.114,1.66,0,1.73c2.877,0.181,5.91,0.353,8.662-0.646
			C139.436,93.85,139.374,92.205,138.237,92.32z"/>
		<path d="M26.822,119.759c-2.139,0.27-3.982,0.658-6.159,0.309c-0.567-0.092-1.05,0.743-0.427,1.013
			c2.245,0.971,4.745,1.325,7.011,0.249C27.979,120.982,27.65,119.655,26.822,119.759z"/>
		<path d="M56.483,119.06c-2.132-0.582-4.253,0.018-5.759,1.621c-0.655,0.698,0.243,2.009,1.066,1.381
			c1.476-1.125,3.01-0.852,4.693-1.319C57.314,120.511,57.319,119.288,56.483,119.06z"/>
	</g>
</g>
<g>
</g>
<g>
</g>
<g>
</g>
<g>
</g>
<g>
</g>
<g>
</g>
<g>
</g>
<g>
</g>
<g>
</g>
<g>
</g>
<g>
</g>
<g>
</g>
<g>
</g>
<g>
</g>
<g>
</g>
</svg>
