<?xml version="1.0" encoding="iso-8859-1"?>
<!-- Generator: Adobe Illustrator 16.0.0, SVG Export Plug-In . SVG Version: 6.00 Build 0)  -->
<!DOCTYPE svg PUBLIC "-//W3C//DTD SVG 1.1//EN" "http://www.w3.org/Graphics/SVG/1.1/DTD/svg11.dtd">
<svg version="1.1" id="Capa_1" xmlns="http://www.w3.org/2000/svg" xmlns:xlink="http://www.w3.org/1999/xlink" x="0px" y="0px"
	 width="181.861px" height="181.862px" viewBox="0 0 181.861 181.862" style="enable-background:new 0 0 181.861 181.862;"
	 xml:space="preserve">
<g>
	<g>
		<path d="M73.243,14.374c0.306-3.066-2.416-4.671-5.017-4.564c-0.167-1.116-0.708-2.2-1.777-2.902
			c-3.78-2.483-9.917-1.587-14.304-1.897c-6.256-0.441-12.504-0.888-18.78-0.836c-4.141,0.036-8.142,0.555-11.091,2.262
			c-1.073-1.769-2.266-3.431-3.731-4.837c-2.484-2.383-6.17-0.559-6.415,2.657c-0.846,11.139,2.566,22.516,2.192,33.965
			c-0.61,18.71-3.948,37.361-6.492,55.872c-2.25,16.375-4.867,33.613-4.867,50.602c-0.006-0.006-0.012-0.012-0.019-0.017
			c-1.645-1.494-3.975,0.815-2.442,2.442c0.815,0.863,1.67,1.752,2.546,2.649c0.31,9.427,1.51,18.745,4.165,27.757
			c1.664,5.645,8.724,3.725,9.197-1.262c4.916,3.283,15.86,1.675,20.831,1.898c8.733,0.396,18.602,2.619,27.21,1.49
			c0.347-0.045,0.691-0.16,1.026-0.312c0.879-0.26,1.636-0.867,2.041-1.829c0.392-0.675,0.539-1.425,0.35-2.152
			C70.952,121.611,67.891,68.098,73.243,14.374z M41.555,12.681c5.794,0.538,15.542,3.656,22.02,2.16
			c-1.22,5.754-2.203,11.587-3.029,17.471c-3.501-2.473-7.425-4.569-10.807-6.849c-5.926-3.994-11.437-8.449-16.652-13.309
			C35.917,12.238,38.746,12.421,41.555,12.681z M27.924,12.156c-0.083,0.572,0.061,1.181,0.601,1.72
			c5.656,5.637,11.788,10.738,18.094,15.63c4.043,3.136,8.34,7.019,13.048,9.494c-0.312,2.641-0.596,5.289-0.851,7.946
			c-5.224-3.733-11.111-6.699-16.313-10.485c-5.413-3.94-10.406-8.464-15.095-13.264c-0.417-3.787-1.128-7.388-2.245-10.665
			C26.087,12.379,27.01,12.216,27.924,12.156z M58.281,52.383c-0.346,4.32-0.62,8.66-0.826,13.015
			C46.986,58.816,36.798,51.96,27.366,43.982c0.381-4.571,0.575-9.175,0.48-13.646c2.975,2.946,6.06,5.784,9.301,8.492
			C43.282,43.95,50.514,49.899,58.281,52.383z M26.802,49.849c9.572,8,19.885,15.053,30.382,21.837
			c-0.216,6.602-0.294,13.23-0.255,19.867c-5.637-1.801-13.211-8.282-15.936-10.266c-5.779-4.21-11.223-8.837-16.678-13.45
			C25.134,62.459,26.078,56.267,26.802,49.849z M23.184,75.715c0.131-1.038,0.284-2.145,0.449-3.296
			c6.594,5.712,13.18,11.44,20.147,16.693c2.952,2.227,8.323,6.417,13.221,7.373c0.091,6.618,0.252,13.237,0.517,19.842
			c-5.993-4.295-12.628-7.725-18.47-12.382c-6.134-4.889-11.875-10.278-17.545-15.712C22.079,84.059,22.657,79.887,23.184,75.715z
			 M20.893,92.738c4.849,4.938,9.755,9.818,14.905,14.456c6,5.403,13.769,12.88,21.922,14.484
			c0.248,5.412,0.532,10.811,0.848,16.184c-7.822-5.87-16.666-10.062-24.353-16.363c-5.443-4.461-10.412-9.393-15.3-14.414
			C19.554,102.299,20.227,97.519,20.893,92.738z M18.397,110.95c4.826,5.424,9.965,10.579,15.383,15.383
			c6.822,6.049,15.105,13.144,24.14,15.162c0.342,0.075,0.595-0.025,0.862-0.097c0.306,5.021,0.627,10.021,0.958,14.983
			c-15.441-9.738-29.621-19.545-42.886-32.322C17.306,119.687,17.835,115.318,18.397,110.95z M16.209,172.26
			c-0.432-3.694-0.692-7.383-0.871-11.069c3.963,3.274,8.179,6.321,12.534,8.815C23.269,169.982,18.795,170.426,16.209,172.26z
			 M41.782,170.686c-5.435-3.124-11.409-5.508-16.77-8.795c-3.403-2.087-6.647-4.421-9.81-6.863c-0.05-3.354-0.01-6.706,0.1-10.056
			c8.263,9.312,18.088,18.897,28.862,25.649C43.363,170.646,42.519,170.685,41.782,170.686z M57.579,170.721
			c-7.107-4.088-14.289-7.883-21.021-12.801c-7.582-5.539-14.387-12.057-20.952-18.765c0.18-3.183,0.508-6.36,0.789-9.54
			c11.971,13.363,27.486,26.952,43.789,33.401c0.184,2.721,0.367,5.438,0.548,8.137C59.725,170.928,58.645,170.838,57.579,170.721z"
			/>
		<path d="M170.661,7.31c-1.514-1.904-4.517-1.45-6.157,0.149c-7.649-1.169-15.902-0.178-23.589-0.303
			c-10.557-0.171-21.149-0.988-31.703-0.399c-2.514-1.578-6.287-0.46-6.738,3.57c-0.652,5.845-0.904,11.778-0.935,17.75
			c-0.623-0.315-1.217-0.678-1.845-0.985c-1.922-0.941-3.598,1.833-1.691,2.893c1.201,0.669,2.35,1.423,3.536,2.118
			c0.143,11.338,1.065,22.803,1.948,34.14c-0.733-0.257-1.458-0.539-2.196-0.776c-1.953-0.628-2.72,2.355-0.837,3.036
			c1.128,0.407,2.21,0.877,3.302,1.333c0.407,5.332,0.79,10.637,1.045,15.87c0.363,7.443,0.595,14.871,0.707,22.292
			c-1.794-0.504-3.263,1.934-1.422,2.903c0.486,0.256,0.939,0.548,1.421,0.81c0.054,5.736,0.092,11.473-0.009,17.203
			c-0.2,0.45-0.229,0.971-0.047,1.461c-0.252,12.534-0.858,25.062-1.991,37.603c-1.316,0.946-1.552,3.16-0.326,4.231
			c-0.389,3.965,5.658,4.998,7.159,1.768c9.635,1.966,19.208,4.027,29.003,5.262c7.022,0.885,16.371,1.748,23.22-1.502
			c-0.013,0.18-0.028,0.359-0.041,0.539c-0.234,3.562,5.386,4.27,6.186,0.837c0.239-1.026,0.437-2.067,0.667-3.097
			c1.703,0.474,2.816-1.88,1.637-3.078c-0.26-0.264-0.546-0.504-0.811-0.762c5.995-28.348,8.702-57.885,10.312-86.661
			C181.707,63.32,185.626,26.141,170.661,7.31z M137.042,15.645c8.765,0.571,18.397,2.661,27.224,1.569
			c0.687,5.304,1.364,10.54,2.006,15.743c-9.137-6.507-20.323-11.57-30.331-14.937c-3.104-1.044-4.33,3.736-1.336,4.847
			c11.995,4.454,21.506,12.867,32.635,18.509c0.254,2.22,0.535,4.448,0.766,6.667c-6.709-4.237-13.991-7.753-20.767-11.758
			c-11.186-6.611-21.758-13.962-31.961-21.938C122.528,14.819,129.793,15.173,137.042,15.645z M136.438,36.301
			c10.038,6.735,20.903,14.469,32.309,19.118c0.387,4.409,0.707,8.834,0.924,13.303c-9.273-5.019-18.575-9.794-27.536-15.658
			c-9.328-6.104-18.535-12.356-28.083-18.057c-0.508-5.632-1.112-11.154-1.738-16.645C119.951,24.859,128.101,30.708,136.438,36.301
			z M135.777,169.663c-8.119-0.349-16.218-1.173-24.329-1.744c0.804-4.718,1.433-9.557,2.051-14.397
			c2.5,2.469,5.16,4.771,8.013,6.928c4.357,3.296,9.946,7.591,15.438,9.19C136.559,169.631,136.169,169.678,135.777,169.663z
			 M140.633,169.563c0.799-0.691,1.078-1.889,0.104-2.824c-4.182-4.008-10.498-6.038-15.443-9.089
			c-4.07-2.511-7.765-5.483-11.152-8.804c0.407-3.537,0.693-7.137,1.01-10.723c7.646,5.799,15.29,11.601,22.933,17.405
			c5.469,4.155,11.033,8.774,16.901,12.79C150.234,168.706,145.448,169.349,140.633,169.563z M163.404,166.375
			c-7.232-5.523-15.413-10.168-22.727-15.289c-8.362-5.856-16.677-11.789-25.095-17.567c0.39-5.056,0.692-10.149,0.918-15.269
			c7.266,4.674,14.21,9.772,21.062,15.248c8.653,6.914,16.982,15.404,26.995,20.291c0.013,0.006,0.024,0.004,0.037,0.01
			C164.185,157.99,163.762,162.18,163.404,166.375z M165.083,148.643c-7.496-7.001-16.411-12.819-24.528-19.023
			c-7.651-5.849-15.538-11.39-23.913-16.087c0.169-4.864,0.25-9.75,0.286-14.64c14.871,13.857,31.642,28.693,49.565,35.895
			C166.026,139.405,165.549,144.024,165.083,148.643z M167.037,129.211c-8.188-5.904-17.194-10.838-25.423-16.692
			c-8.485-6.036-16.658-12.522-24.686-19.17c-0.013-5.581-0.15-11.159-0.316-16.727c18.221,11.625,32.351,28.716,51.659,38.941
			C167.878,120.114,167.485,124.665,167.037,129.211z M168.778,109.627c-16.109-13.213-33.329-28.153-52.301-37.808
			c-0.188-5.068-0.439-10.118-0.741-15.143c8.906,6.644,17.831,13.264,26.865,19.729c8.092,5.789,17.397,14.336,27.104,18.152
			C169.465,99.588,169.166,104.613,168.778,109.627z M145.249,71.878c-9.961-6.628-19.886-13.312-29.844-19.946
			c-0.264-3.933-0.612-7.8-0.935-11.688c8.428,5.664,16.643,11.664,24.914,17.524c8.942,6.334,19.485,15.205,30.544,18.661
			c0.079,3.607,0.108,7.237,0.03,10.926C162.074,81.789,153.152,77.137,145.249,71.878z"/>
	</g>
</g>
<g>
</g>
<g>
</g>
<g>
</g>
<g>
</g>
<g>
</g>
<g>
</g>
<g>
</g>
<g>
</g>
<g>
</g>
<g>
</g>
<g>
</g>
<g>
</g>
<g>
</g>
<g>
</g>
<g>
</g>
</svg>
